<svg width="17" height="16" viewBox="0 0 17 16" fill="none" xmlns="http://www.w3.org/2000/svg">
<g clip-path="url(#clip0)">
<path d="M16.7778 2.89329C16.6708 3.11924 16.4716 3.40464 16.1803 3.74948C15.889 4.09432 15.5292 4.39756 15.1011 4.65917C15.113 4.75432 15.122 4.84349 15.1279 4.92673C15.1741 6.20833 14.8671 7.53803 14.4412 8.6458C13.6156 10.7054 12.3506 12.3631 10.5437 13.4886C8.65953 14.5694 6.46515 14.7992 4.44338 14.6034C3.10117 14.4493 1.77827 14.011 0.777832 13.1854C2.60761 13.4041 4.31523 12.7816 5.66523 11.7762C4.16561 11.8142 3.07602 10.7294 2.56157 9.47521C2.79347 9.536 3.03607 9.52867 3.25722 9.51091C3.52943 9.48533 3.78783 9.4598 4.04206 9.40389C3.08583 9.09537 2.24914 8.52823 1.81241 7.67367C1.55623 7.1322 1.44057 6.61657 1.43783 6.03264C1.8859 6.26855 2.42487 6.49847 2.91833 6.47856C2.1731 5.84727 1.57566 5.04047 1.46459 4.11512C1.39447 3.34357 1.58754 2.63928 1.86594 1.98358C2.9807 3.20871 4.23147 4.21693 5.67418 4.83753C6.66082 5.24156 7.64466 5.45763 8.66193 5.46183C8.5445 4.55323 8.63581 3.67449 9.06327 2.92893C9.56634 2.12736 10.3003 1.66229 11.1235 1.4306C12.3013 1.12857 13.4501 1.5552 14.1737 2.37597C14.9539 2.29169 15.7014 1.94553 16.2963 1.59113C16.0435 2.3566 15.5513 3.11769 14.8336 3.48188C15.5169 3.35537 16.169 3.15309 16.7778 2.89329V2.89329Z" fill="#38CFFF"/>
</g>
<defs>
<clipPath id="clip0">
<rect width="16" height="16" fill="white" transform="translate(0.777832)"/>
</clipPath>
</defs>
</svg>
