<svg width="17" height="16" viewBox="0 0 17 16" fill="none" xmlns="http://www.w3.org/2000/svg">
<g clip-path="url(#clip0)">
<path fill-rule="evenodd" clip-rule="evenodd" d="M16.1112 0H1.4445C1.26769 0 1.09812 0.0702379 0.973094 0.195262C0.84807 0.320286 0.777832 0.489856 0.777832 0.666667L0.777832 15.3333C0.777832 15.5101 0.84807 15.6797 0.973094 15.8047C1.09812 15.9298 1.26769 16 1.4445 16H9.27783V10H7.27783V7.5H9.27783V5.5C9.27783 3.43333 10.5865 2.41667 12.4298 2.41667C13.3125 2.41667 14.0718 2.48267 14.2925 2.51133V4.67133L13.0145 4.672C12.0118 4.672 11.7778 5.14867 11.7778 5.84733V7.5H14.2778L13.7778 10H11.7778L11.8178 16H16.1112C16.288 16 16.4575 15.9298 16.5826 15.8047C16.7076 15.6797 16.7778 15.5101 16.7778 15.3333V0.666667C16.7778 0.489856 16.7076 0.320286 16.5826 0.195262C16.4575 0.0702379 16.288 0 16.1112 0" fill="#3171EC"/>
</g>
<defs>
<clipPath id="clip0">
<rect width="16" height="16" fill="white" transform="translate(0.777832)"/>
</clipPath>
</defs>
</svg>
