<svg width="18" height="16" viewBox="0 0 18 16" fill="none" xmlns="http://www.w3.org/2000/svg">
<g clip-path="url(#clip0)">
<path d="M8.88889 0.115479C10.496 0.115479 11.9825 0.418364 13.3482 1.02413C14.714 1.6299 15.7936 2.45362 16.5873 3.49529C17.381 4.53696 17.7778 5.67318 17.7778 6.90395C17.7778 8.13472 17.381 9.27255 16.5873 10.3174C15.7936 11.3623 14.7156 12.1876 13.3532 12.7934C11.9907 13.3992 10.5026 13.702 8.88889 13.702C8.37963 13.702 7.85384 13.6668 7.31151 13.5963C4.95701 15.1796 3.7037 15.9809 3.55159 16.0001C3.47884 16.0258 3.40939 16.0226 3.34325 15.9905C3.3168 15.9713 3.29696 15.9456 3.28373 15.9136C3.2705 15.8815 3.26389 15.8527 3.26389 15.827V15.7886C3.30357 15.5386 3.6045 14.4969 4.16667 12.6636C2.89021 12.0482 1.87665 11.2325 1.12599 10.2165C0.375331 9.20043 0 8.09626 0 6.90395C0 5.67318 0.396825 4.53696 1.19048 3.49529C1.98413 2.45362 3.06382 1.6299 4.42956 1.02413C5.7953 0.418364 7.28175 0.115479 8.88889 0.115479Z" fill="#2B2726"/>
</g>
<defs>
<clipPath id="clip0">
<rect width="17.7778" height="16" fill="white"/>
</clipPath>
</defs>
</svg>
