<?xml version="1.0" encoding="utf-8"?>
<!-- Generator: Adobe Illustrator 25.4.1, SVG Export Plug-In . SVG Version: 6.00 Build 0)  -->
<svg version="1.1" id="레이어_1" xmlns="http://www.w3.org/2000/svg" xmlns:xlink="http://www.w3.org/1999/xlink" x="0px"
	 y="0px" viewBox="0 0 153.5 143.6" style="enable-background:new 0 0 153.5 143.6;" xml:space="preserve">
<style type="text/css">
	.st0{clip-path:url(#SVGID_00000138535195752025359670000003453981064784871851_);}
	.st1{fill:#2B2726;}
</style>
<g>
	<defs>
		<rect id="SVGID_1_" width="153.5" height="143.6"/>
	</defs>
	<clipPath id="SVGID_00000034060786536377653320000007013170461533084050_">
		<use xlink:href="#SVGID_1_"  style="overflow:visible;"/>
	</clipPath>
	<g style="clip-path:url(#SVGID_00000034060786536377653320000007013170461533084050_);">
		<path class="st1" d="M4.2,145.7c0.8-2.5,0.9,1.2,1.7,1c0.3-2.1,4.7-3.8,2.8-5.8c0.7-6.3-11.9,7.1-8,10.4
			C0.3,163.8,4.3,150.8,4.2,145.7z"/>
		<path class="st1" d="M16.2,137c-0.1,0.4,0.3,1.3,1.3,2.8c-1.7,3.2,4.9,3.4-0.2,3.9c0.2,2-2.4,0.2-3.2,1.9c4.7-0.6,1.9,3.2,4.4,4.1
			c1.3,0.9,4.6,1.8,2.9,3.9c-1.8,2.4-7-1-4.6,3.7c0.9-2.1,5.7-2.4,5.1-0.3c-0.5,2.2-3.8,2.6-0.1,3.7c-1.7,1.6-3.2,4.5-4.5,1.6
			c-6.8,7.3,7.1,9.4-1.2,11.6c0.2,1.7,0.6,3.4-0.7,4.6c2.8,2.7-0.3,3.6-2,5.1c-2.4,1.4-0.5,3.6,0.2,5.2c1.1-1,2.4-1.2,3.4-2.1
			c8,3.9-1-0.3,3.7,6.3c-1.5,0.6-0.6,2.4-1.4,3.4c-1.3-1.6-2.5,1.1-3.9-0.2c1,4.4-3.9,6-1.2,9.6c2.9,3-0.7,3.1-3.3,3.1
			c2.9,9.9,9.1-0.6,11.6,4.3c5.1-4.4-1.6-10.9-1.5-17.3c6.2-3.1,5.7-8.2,4.4-13.2c3-1.4,5.6-2.7,7.4-4.9c2.9,2.4,7.7,3.6,6.8,9.4
			c-14.4,2.8,0.9,21.5,1.5,1.9c4.7,2.7,2.7,7.2,0.5,10.7c-1.9,2.7,1,4.4-1.9,6.8c-3.1,2.4,2.8,7.7-2.9,6.6c-0.9-4.3-3,1.8-4.8,3.1
			c1.9,0.4,3.4-0.9,5-1.9c2.5,0.7,0.6,5.4,2.5,4.9c-0.9-7.1,6.7-6.2,8.4-10.5c2.6-2.2,3.2-2.2,3.8-4.9c-2.8-4.9,2.6-3.7,1.4,0.9
			c2.4,4.4-3.2,4.2-4.6,7.5c-4.6,6.1,7.9,3.5,6.4,9.8c-7.3,3.2-6.9,1.2-13.7-0.8c-1.1,3,4.4,5.6,6.4,7.2c3.6,4.5,10.9,4.6,12.5,8.2
			c2.8-3.5,8.1-1.2,5.2,2.9c6.6,1.8,7.2,11.7,14.1,11.6c0.6,1.8-0.8,3-1,4.5c0.8,3.8,3.4,7.1,5.6,10.1c3.8,5,7.6,6.8,12.9,6
			c3-3.3,3.5,2.1,6.5,1.4c-0.4,2.1-2.9,0.9-1.5,5.3c4-0.9,7.6,1.6,9.7,1.7c1.3-1.6,2.6-1.7,4.8-1.2c0.3,2.9,3.3,3,3,6
			c4.1-0.4,7.9,6.4,11.2,2.7c1-0.5,2.2,0.2,3.1-0.9c-0.8,0-2.9-0.6-1.7-1.4c4-1.8,4.3-5.2,9-3.2c-0.4,1.1-2.3,2.2-1.4,4.6
			c1.1-1,1.8,0.4,2.7,0.8c-0.7-4.3,2.1-6.6,2.6-1.3c2-3.2,1.3-0.4,3.8,1.1c0.7-4.5,1.3,0.4,3.7-1.4c-2.4-3.4,3.5,1.2,2.3-5.6
			c1.2-3.1,6.5-8.2,6.1-1.8c-2.6,0-1.1,1-0.7,2.3c2.7,3.2,0.9,2.1,3.9-1.3c0.7-2.2,2.2-1.2,3.3-2.9c0.6,0.8,0.9,1.5,1.7,0.3
			c3.8-2.3-0.6,3.2,2.6,1.7c4.5-0.2,4.4-4.4,8.5-7.7c5.9,0.6,8.2-6,13.6-8.6c2.9,0.6,0.3-4.5,0.3-6.5c5.3-2.7,8-0.8,11.7,0.7
			c-0.1-0.3-0.1-0.8,0.3-0.8c0.6,0,0.4,0.5,0.2,0.8c0,0.1-0.1,0.1-0.1,0.2c3,1.1,6.7,1.8,13.1-0.2c8.9-3.6-1.5-0.6-4.4-1.1
			c-1.6-5.6,4.5-7.7,8.3-9.1c2-6.2,2.1-9.3-4.2-12.4c14.5-11.8-0.9,6.4,14.1,0.5c0.2-1.9,1.7-2.6,1.4-4.5c5.5-7.4-2.8-11.2,2.9-16.5
			c4.6-3.5,5.2-9.2,3.8-13.9c6.1-1.8,3.9-3.9-0.1-6.4c-0.2-3.6,4.2-2,5.6-4.4c-1-5.1,4.2-5,6.7-7.9c3.5-11,4.8,2.7,8.1,7.1
			c2.6-6.1-1.4-13.7-2.9-19.5c-4.5,0.6-5.9-1.9-5.3-5.9c-2.5-3.2-5.3-5.7-4.5-10c-1.7-3.9-1.7-5.6,2.2-8c-0.7-7.1,1-12,1.9-19.4
			c1.4-1.9-0.8-4.5-1.8-6c2.3-1.5,0.4-3.6-1.6-3.9c-1-3,3.5,1.8-0.9-5.2c-6.4-0.4,0.5,13.4-8.4,5.9c4.5-3.8,3.5-10.4-1.3-12.8
			c-5.4-3.9-10-4.8-14.7-8.6c-9.8,2-8.3-5.9-3.8-1.5c4.1,1.1-2.2-5-1.4-7.3c0.4-4.7,0.1-7.6-5-7.8c-0.4,0.9-1.8,2-3.2,2.1
			c-2.5,5.5-4.1-3.7-4.3-5.6c-2.2-0.7-4.3,1.8-6.7,1.1c-5.2-5.7-4.4-10.9-8.8-17.7c-4.8-0.7-8.1,3.6-12.5,4.6
			c-9,9.7-9.3-18.1-13.6-4.1c-1.9,5.3-8.2-7.6-11.5-8.6c1.7-2.2-3.5-2.7-0.6-4.9c-3.9-0.3,0.1-2.2-2.3-4.5c4.5-2.4,5.3-0.1,8.8-0.7
			c2.5-2.6,6.6-2.5,7.6-6.7c1.2-5.7-4.5-0.9-6.6-3.5c4.4,0.4,5.3-2.4,1.8-4.6c-1.6,2-4.7,4.3-5.7,1.2c5,0.4,1.9-3.1-0.2-4.9
			c0.2-4.3,0.4-7-2.2-9.1c3.6-0.8,3.1-4.1,0.5-5.6c5.8-0.2,1-6.6-2.5-5.6c-3.2,1.3-6.7,1.2-9.9,3.3c-0.2,1.4,2.5,3,2.8,5
			c-1.8,2,2.5,7.6-0.5,6.7c-3.3-2.1-3-7.4-4.3-9.7c-3.3,2.1-6.8,5.7-7.3,10c-2.5,6.3,0.1,3,2.1,7.2c-2.3,0.8-3.5-1.6-3.1,2.3
			c-2.2,3.6-0.6,3.8,3.1,3.8c-0.8,1.7-1.6,4.8-4.1,4c0.2-7.3-5.3,5.2-9.7,5.7c-5,1.6-11.8,0.2-15.5,4.2c-2.9-2.8-8,4.5-9.6,7.6
			c-0.6,1.5-2.5,4.4-0.7,5.2c-1.7,1.5-1.2,2.1-0.3,3.8c-1.3,1.2-1.9,4.3-2.1,6c-1.3,3.3,1.7,7.1-2.7,9.5c-2.2,2-3.8,0.2-5.9,0.5
			c-0.2,2.2-0.3,2.4-2,0.9c-6.7,3-18,0.2-21.7,8.4c-2.4,1.8-2.9,3.7-2.1,6.2c-2,3.2-3,6-4.2,9.2c-0.9,9-1.8,15.2-6.6,21.9
			c-3.3,1.8-4.7,4.5-8.9,5.5c2.1,0.8,2.6,14.3-0.4,10.7c-9.3-5.5,1.7-6.8-1.4-10c-2.4,1.8-5.7,3.5-8.9,3.3c-2-0.5-1.9,3.1-0.3,1.6
			c1.9-1.8,0.8,3.6,1.3,4.5c6,2.3-8.1,1-2,6c1.7,0.2,2.1-0.5,0.8-1.7c4.7-4.7,2.2,2.6,4.6,3.7c2.4,1.6,3.7,5.5,7.3,8.5
			c-3.7,1.5,0.2,1.3,0.9,4.1c1.5,3.8-3.7,3.6-5.1,0.4c0.2-2.2-0.4-9.4-3.7-6.4c-1.7,0.6-3.2-4.9-4.7-7.3c-2.1,1.1-3.2-1-6-0.5
			c0.7-3.8-3.3-7.7-4.4-7.6c0.8-0.8,1.6-1.5,1.9-1.6c-2.9-1.6-4.3,2-6.2,2.8C12.5,140.1,14.5,138.5,16.2,137z M16.9,185.4
			c-0.6-0.1-0.5-0.5-0.1-1C17.3,184.8,17.4,185.2,16.9,185.4z M16.8,201c-0.6-0.1-0.5-0.8,0.1-0.8C17.3,200.3,17.3,200.9,16.8,201z
			 M18,198.8c-0.2,0-0.3-0.2-0.6-0.5C18.1,197.5,18.9,198.4,18,198.8z M21.3,206.8c0.6,0,0.3,0.5,0.2,0.8
			C20.9,207.5,20.7,207.1,21.3,206.8z M35.4,196.3c-0.4-0.6,0.6-0.8,0.6-0.2C36,196.5,35.7,196.6,35.4,196.3z M222.6,240
			c0.3,0.2,0.8,0.4,0.3,0.7C222.3,240.6,222.3,240.3,222.6,240z M189.5,259.5c-0.1,0-0.3-0.3-0.5-0.5
			C189.7,258.2,190.4,259.3,189.5,259.5z M189.2,176.2c0-0.6,0.5-0.3,0.8-0.2C189.9,176.6,189.5,176.9,189.2,176.2z M189.4,148.1
			c0.8,0.5,0.8,0.4,0,1.4C189.1,148.9,189,148.7,189.4,148.1z M190.1,237.2c0.3-0.4,0.5-0.8,0.9-0.3
			C190.9,237.5,190.7,237.5,190.1,237.2z M191.8,251.8c-0.1,0-0.3-0.2-1-0.5C191.6,250.6,192.7,251.2,191.8,251.8z M193.2,237.2
			c-0.7,0.6-1-0.2-0.2-0.7C193.1,236.8,193.2,237.1,193.2,237.2z M192.5,233.9c0.1-0.3,0.3-0.8,0.7-0.4
			C193.2,234.1,192.9,234.2,192.5,233.9z M193.2,222.8c-0.7,0.6-1.1-0.2-0.2-0.7C193.1,222.5,193.3,222.7,193.2,222.8z M192.8,145.6
			c-0.4-0.4-0.4-0.6,0.1-0.8C193.1,145.2,193.4,145.6,192.8,145.6z M193,160c-0.5-0.1-0.7-0.4-0.3-0.7
			C193,159.4,193.4,159.7,193,160z M194.1,255.6c-0.6-0.3-0.9-1.3,0-1.2C194.2,254.8,194.5,255.2,194.1,255.6z M194,247.5
			c0.3,0.6,0.3,0.8-0.3,0.9C193.3,248.1,193.7,247.9,194,247.5z M193.5,220.3c0.4-0.1,0.7-0.3,0.8,0.3
			C193.9,220.7,193.6,220.9,193.5,220.3z M193.8,202.3c0.5,0,0.6,0.7,0.1,0.8C193.4,203.1,193.3,202.5,193.8,202.3z M194.3,183
			c-0.1,0.3-0.8,0.5-0.8,0C193.6,182.3,194.5,182.2,194.3,183z M195.2,233.2c-0.6-0.2-0.8-1,0-1
			C195.7,232.4,195.6,232.8,195.2,233.2z M195.1,174.5c-0.2,0-0.3-0.2-0.6-0.5C195.1,173.1,196,174.1,195.1,174.5z M195,143.5
			c-0.5-0.4-0.5-0.6,0-1C195.8,142.9,195.5,143,195,143.5z M196.4,234.5c0.4,0.4,0,0.6-0.4,0.7C195.8,234.8,195.9,234.4,196.4,234.5
			z M196.4,176.5c-0.5-0.1-0.5-0.4-0.3-0.7C196.4,176,196.7,176.3,196.4,176.5z M196.6,217.1c-0.1,0.2-0.2,0.3-0.4,0.6
			C195.5,217,196.4,216.3,196.6,217.1z M196.3,211.3c0.4,0.3,0.2,0.5-0.2,0.6C195.8,211.6,195.8,211.4,196.3,211.3z M199.6,247.4
			c-0.6,0.1-0.6-0.4-0.7-0.8C199.5,246.2,200.3,246.9,199.6,247.4z M201.9,246.3c-0.2-0.1-1.3-0.4-0.9-0.6
			C201.5,245.3,202.4,245.7,201.9,246.3z M203.1,247.1c0.6-0.6,1.4-0.8,1.3,0C204,247.6,203.6,247.5,203.1,247.1z M207.3,254.1
			c-0.6-0.3-0.5-0.5-0.1-1.1C207.7,253.5,207.8,253.6,207.3,254.1z M209.4,254.1c-1.1-0.1-0.4-0.9,0.1-0.9
			C210,253.3,209.9,254,209.4,254.1z M208.8,247.1c0.5-0.9,1.4-0.1,0.7,0.4C209.3,247.5,209.1,247.3,208.8,247.1z M206.5,211.7
			c-0.5,0.2-0.6,0.4-0.8-0.3C206.1,211.3,206.4,211.2,206.5,211.7z M205.5,182.8c0.8-0.7,1.4,0.3,0.5,0.5
			C205.9,183.3,205.8,183,205.5,182.8z M205.8,176.1c0.4-0.7,1,0,1,0.5C206.3,176.7,205.8,176.8,205.8,176.1z M206.9,176.7
			c0.5,0,0.8,0.3,0.8,0.8C207.2,178.1,206.5,177.2,206.9,176.7z M206.9,161.7c0.6-0.7,1.1,0.1,0.3,0.7
			C207,162.1,206.8,161.8,206.9,161.7z M208.2,223.5c0.8,0.8,2.2,0.5,2.7,1.8C208.8,225.7,205.3,225.6,208.2,223.5z M211.1,234.8
			c0.5-1,1.6,0.3,0.5,0.4C211.4,235.2,211.3,235,211.1,234.8z M211,201.7c0.3-0.2,0.4-0.5,0.6-0.5
			C212.5,201.5,211.8,202.5,211,201.7z M211.5,256.4c-0.4-0.5-0.4-0.9,0.2-0.9C212.3,255.8,212.1,256.1,211.5,256.4z M211.6,132.8
			c-0.6-0.7-0.1-1.7,0.5-1C212,132,211.9,132.2,211.6,132.8z M211.8,122.8c0.4,0.4,0.1,0.7-0.4,0.6
			C211.1,123.2,211.4,122.7,211.8,122.8z M212.7,248.5c-0.2-0.4-0.5-0.5,0.1-0.8C213.1,248.1,213.3,248.3,212.7,248.5z M212.9,223.3
			c-0.3-0.3-0.7-0.6-0.3-0.9C213.3,222.4,213.2,222.6,212.9,223.3z M212.7,209.9c-0.7-0.7,0.2-1.4,0.4-0.6
			C213.1,209.5,212.9,209.7,212.7,209.9z M212.8,137.1c0.5,0.1,0.3,0.5,0.2,0.8C212.3,137.7,212.4,137.5,212.8,137.1z M213.8,241.8
			c-0.1,0-0.3-0.2-0.5-0.5C214,240.6,214.7,241.6,213.8,241.8z M213.8,177.7c-0.1,0-0.3-0.2-0.5-0.5
			C214,176.4,214.7,177.5,213.8,177.7z M214,203.3c-0.2-0.2-0.5-0.4-0.5-0.5C213.7,201.9,214.8,202.6,214,203.3z M214.9,214.5
			c-0.2,0.5-0.6-0.9,0.1-1C215.7,213.6,215.2,214.3,214.9,214.5z M216.1,237.5c-0.1,0-0.3-0.2-0.9-0.5
			C215.9,236.4,217,236.9,216.1,237.5z M217.3,189.2c0.3,0.1,0.4,0.7-0.1,0.8C216.6,189.7,216.7,189.2,217.3,189.2z M217.4,173.6
			c0.1,0.3,0.4,0.8-0.2,0.8C216.5,174.1,216.7,173.8,217.4,173.6z M217.3,192.1c-0.1,0-0.4-0.2-0.7-0.4
			C217.2,191,218,191.5,217.3,192.1z M217.5,211.4c0,0.6-0.3,0.6-0.7,0.4C217,211.5,217.2,211.1,217.5,211.4z M216.2,208.2
			c0.9-0.4,1.6-0.5,1.2,0.5C217.2,208.6,217,208.5,216.2,208.2z M215.9,176.9c0.6-0.1,0.6,0.7,0.7,1
			C216.3,180,214.7,177.5,215.9,176.9z M216.1,117c-0.6-0.3-0.5-0.5-0.1-1.1C216.5,116.4,216.6,116.6,216.1,117z M216.2,101.5
			c-0.2-0.1-0.4-0.2-0.8-0.3C216,100.4,216.7,100.7,216.2,101.5z M217.3,230.9c0.4,0.5,0.4,0.9-0.2,1
			C216.6,231.6,216.8,231.3,217.3,230.9z M217.6,243.7c-0.6,0.9-1.1-0.3-0.5-1C217.4,243.3,217.6,243.5,217.6,243.7z M218.1,198.6
			c-0.2-0.6,0.5-1,0.6-0.3C218.6,198.4,218.3,198.9,218.1,198.6z M217.9,194c0.2-0.3,0.4-0.8,0.7-0.3
			C218.6,194.3,218.3,194.3,217.9,194z M219.5,230.8c-0.5-0.1-0.6-0.5-0.1-1C219.9,230.2,220,230.6,219.5,230.8z M218.6,197.8
			c0.3-0.5,0.5-1.4,1.2-0.8C220.1,197.8,219.2,197.7,218.6,197.8z M218.6,183c0.6-0.6,1.4-0.8,1.3,0
			C219.5,183.5,219.1,183.3,218.6,183z M219.4,109.5c0.5,0.1,0.6,0.6,0.1,0.8C218.9,110.3,218.7,109.6,219.4,109.5z M219,105.4
			c0.3-1,0.9,0,1.5,0.2C219.9,105.8,219.3,106.2,219,105.4z M219.4,118.3c0.6,0.1,0.7,0.7,0.1,0.9
			C218.9,119.2,218.7,118.3,219.4,118.3z M219.8,139.6c-0.1,0.7-0.5,0.7-0.8,0.2C219.2,139.5,219.6,139.1,219.8,139.6z M219.4,122.6
			c0.5,0.5,0.6,0.7,0,0.9C218.8,123.4,219.1,123,219.4,122.6z M220.4,153.4c-0.4-0.2-0.2-0.5,0.1-1
			C221,152.9,221.1,153.1,220.4,153.4z M220.8,148.9c-0.5,0.5-2,0.4-1.8-0.5C219.5,147.7,221.3,148,220.8,148.9z M220.3,127.8
			c0-0.4,0.3-0.7,0.6-0.4C220.9,127.9,220.5,128.1,220.3,127.8z M222.5,144.4c-0.5,0.2-1,0.4-1.2-0.3
			C221.8,143.5,222.1,144,222.5,144.4z M221.8,123.9c0.6,0.2,0.4,0.9-0.2,0.9C221.1,124.6,221.2,123.9,221.8,123.9z M222.6,132.2
			c-0.3-0.1-0.3-0.5,0-0.5C223.2,131.8,223,132.1,222.6,132.2z M222.9,145.6c-0.7,0.3-0.7-0.7-0.4-1.1
			C222.8,144.8,223.4,145.1,222.9,145.6z M221.9,164.8c0.4,0.4,0.1,1-0.4,0.8C221,165.2,221.3,164.5,221.9,164.8z M222.1,178.4
			c0,0.1-0.2,0.3-0.3,0.6C220.8,178.5,221.6,177.6,222.1,178.4z M221.6,200.1c0.8,0.4,0.5,0.4-0.1,1.4
			C221.2,200.8,221.1,200.6,221.6,200.1z M221.7,226.3c-0.6,0-0.3-0.4-0.2-0.8C222.1,225.7,222.4,226,221.7,226.3z M223.6,213.1
			c-0.6-0.4,0.3-1.1,0.5-1.5C224.1,212.2,224.6,213.2,223.6,213.1z M224.1,211.6c0.3-0.2,1.2-0.2,1.1,0.2
			C224.8,211.9,224.4,211.9,224.1,211.6z M225.2,209.8c-8.1-2,2.5-6.5,5.3-7.5C235.1,206.9,224.8,205.9,225.2,209.8z M223.4,165.2
			c0-0.2,0.2-0.3,0.3-0.7C224.7,165.1,223.9,166,223.4,165.2z M224.7,140.5c0.9,0.1,0.5,0.2,0.2,1.4
			C224.7,141.2,224.3,141,224.7,140.5z M224.8,137.1c0.3,0.2,0.7,0.4,0.3,0.7C224.5,137.8,224.4,137.5,224.8,137.1z M225.3,160.7
			c0.3,0.7-0.7,0.5-0.8,0.1C224.6,160.3,225.1,160.3,225.3,160.7z M225,178c0.2,0.3,0.5,0.7,0,0.8C224.3,178.6,224.4,178.3,225,178z
			 M224.9,201.3c0.5,0.1,0.3,0.5,0.1,0.8C224.4,201.8,224.5,201.7,224.9,201.3z M224.5,196.1c0.2-0.2,0.5-0.3,0.7-0.1
			C225.2,196.6,224.9,196.3,224.5,196.1z M225.9,161.3c0.4,0.1,0.5,0.3,0.4,0.7C225.7,162.8,224.9,160.9,225.9,161.3z M225.6,128.7
			c0.5-1,1.3-0.1,0.3,0.9C225.7,129.1,225.6,128.9,225.6,128.7z M227.8,167.5c0-0.6,0.7-0.7,0.8-0.2
			C228.6,167.8,228,168,227.8,167.5z M228,172.1c-0.3-0.3,0-0.7,0.4-0.6C228.8,171.8,228.5,172.2,228,172.1z M230,180.6
			c0.6-0.3,0.8-0.3,0.9,0.3C230.5,181.3,230.3,180.9,230,180.6z M228.7,225.1c-0.4,0.4-0.8,0.2-1.1-0.3
			C228.1,224.3,228.9,224.3,228.7,225.1z M228.1,218.9c0.6-0.2,1,0.8,0.2,0.9C227.7,219.7,227.6,219.1,228.1,218.9z M228.3,217.6
			c-0.6,0-0.8-0.6-0.2-0.9C228.7,216.5,229.1,217.5,228.3,217.6z M232.9,221.9c-0.8,0.2-0.6-1-0.5-1.5
			C232.7,220.8,233.2,221.3,232.9,221.9z M232.7,189.9c-0.4-0.4-0.5-0.6,0.2-0.8C233,189.5,233.2,189.9,232.7,189.9z M232.7,181.7
			c-0.2-0.7-0.6-1-0.2-1.4C233.4,180.5,233,180.6,232.7,181.7z M232.5,152.6c0.7,0.1,0.6,0.3,0.3,0.9
			C232.5,153.2,232.1,153,232.5,152.6z M233.9,155.5c-0.8,0.1-0.5-1,0-1.3C234.2,154.7,234.3,155.1,233.9,155.5z M234.8,179.9
			c-0.1,0-0.2-0.2-0.2-0.4C234.9,178.9,235.5,179.9,234.8,179.9z M235.2,194.8c0.1,0.6-0.3,0.7-0.6,0.4
			C234.6,194.8,234.9,194.4,235.2,194.8z M234.7,203.1c-0.4-0.4-0.2-0.6,0.3-0.8C235.4,202.7,235.1,202.9,234.7,203.1z M236,187.7
			c-0.8-0.1-0.5-0.8,0.1-1.1C236.5,187.1,236.6,187.5,236,187.7z M239.4,208.7c-0.9-0.4-0.2-1.1,1-0.3
			C239.8,208.5,239.6,208.6,239.4,208.7z M238.7,181.8c0.5-0.3,0.8-0.5,1-0.1C239.5,182.3,239.4,182.3,238.7,181.8z M240,186
			c0.4-0.2,0.8-0.5,0.8,0.1C240.5,186.5,240.3,186.7,240,186z M241.7,174.4c-0.2-0.1-0.4-0.2-0.8-0.3
			C241.5,173.4,242.2,173.6,241.7,174.4z M244.8,184.3c-0.2-0.4-0.5-0.5,0.1-0.8C245.1,183.9,245.4,184.2,244.8,184.3z M246,177.7
			c-0.8-0.2-0.4-0.4,0.1-1.4C246.4,177,246.6,177.4,246,177.7z M247.2,182.2c-0.6-0.2-0.5-0.4-0.3-0.8
			C247.5,181.4,247.4,181.8,247.2,182.2z M252.7,172.5c0.8,0.6-0.4,1.2-0.5,0.2C252.4,172.6,252.7,172.5,252.7,172.5z M251.9,176.2
			c-0.4,1.1-0.9-0.1-1.5-0.2C251,175.9,251.7,175.4,251.9,176.2z M248.2,134.7c-0.1,0-0.4-0.2-0.7-0.4
			C248.1,133.4,249,134.2,248.2,134.7z M245.6,118.5c3.7,0.9,2.3,1,1.9,5C244.4,124.3,245.5,120.3,245.6,118.5z M247.2,127.1
			c-0.4-0.3-0.7-0.6-0.3-0.9C247.6,126.2,247.5,126.4,247.2,127.1z M247.4,164.1c-0.4,0.4-0.9-0.1-0.4-0.3
			C247.1,163.8,247.2,164,247.4,164.1z M246.3,139.5c0,0.5-0.3,0.6-0.7,0.4C245.8,139.6,245.9,139.1,246.3,139.5z M245.9,131.6
			c0.5,0,0.4,0.4,0.3,0.8C245.6,132.2,245.6,132,245.9,131.6z M244.7,135c0.5,0.2,0.6,0.4,0.3,0.7
			C244.7,135.5,244.4,135.4,244.7,135z M244.5,170.6c2.3-4.6,7.2,3.3,6,5.4C249,173,243.2,174.8,244.5,170.6z M242.7,162
			c0.3-0.2,0.6-0.5,1-0.6C244.8,162.1,243.4,162.3,242.7,162z M242.5,160c-0.3-0.4-0.2-0.6,0.3-0.8
			C243.1,159.7,242.8,159.8,242.5,160z M242.6,120.3c0.3,0.4,0.5,0.7,0.1,1C242.1,121.1,242.2,120.9,242.6,120.3z M243.1,149.6
			c-0.2,0.6-0.4,0.5-0.8,0.1C242.4,149.2,242.8,149.4,243.1,149.6z M242.7,162c0.2,0.4,0.6,0.9,0,1.3
			C241.8,163.1,242.5,162.4,242.7,162z M243,179.7c-0.4,0.2-0.5,0.2-0.6-0.2C242.6,179.1,242.8,179.3,243,179.7z M242.8,184.5
			c0.3,0.6,0.4,0.8-0.3,0.9C242.1,185.1,242.4,184.8,242.8,184.5z M241.6,144.9c0.7,0.6-0.1,1.1-0.7,0.4
			C241.3,145,241.5,144.8,241.6,144.9z M240.8,169.9c-0.7,0-1.3,0-2,0C239.7,168.8,240.2,168.8,240.8,169.9z M239.3,155.7
			c-0.1-0.3-0.3-0.5-0.3-0.7C239.4,154.3,240.2,155.3,239.3,155.7z M239.4,147.2c0.3,0.1,0.4,0.5,0,0.6
			C238.9,147.7,239.1,147.4,239.4,147.2z M239.3,132.7c0.9,0.2,0.2,1.3-0.5,0.5C239,133,239.2,132.7,239.3,132.7z M238,178.2
			c0.4-0.5,1.9-0.5,1.8,0.3C239.5,179.1,237.6,179,238,178.2z M236.9,112.8c0.3,0.1,0.8,0.3,0.4,0.7
			C236.8,113.5,236.7,113.2,236.9,112.8z M237.3,125.7c-0.5-0.1-0.6-0.4-0.3-0.7C237.3,125.2,237.7,125.4,237.3,125.7z M237.2,150.4
			c0.5,0.2,0.1,0.5-0.1,0.8C236.6,150.9,236.6,150.5,237.2,150.4z M237.2,207.8c-0.3-0.3-0.7-0.6-0.3-0.9
			C237.6,206.9,237.5,207.1,237.2,207.8z M237.2,209c0.2,0.3,0.5,0.6,0,0.8C236.5,209.6,236.6,209.2,237.2,209z M236.1,159
			c-0.7,0.1-0.9-0.9-0.1-0.9C236.6,158.2,236.7,158.8,236.1,159z M236,129.3c0.9,0.4,0,1.3-0.6,0.5
			C235.6,129.6,235.8,129.3,236,129.3z M236.4,132.1c-0.3,0.4-0.6,0.1-1-0.2C236,131.5,236.2,131.5,236.4,132.1z M235.9,144.8
			c0.5,0.1,0.6,0.6,0.2,0.8C235.5,145.6,234.7,145,235.9,144.8z M235.2,154.1c-0.2,0.7-1.8,0.2-0.9-0.1
			C234.6,153.7,235.2,153.6,235.2,154.1z M233.8,120.5c0.5,0.5,0.4,0.6-0.2,1C233.3,120.9,233.3,120.8,233.8,120.5z M233.8,125
			c0.5,0.1,0.3,0.6,0,0.8C233.3,125.7,233.1,125.1,233.8,125z M234.1,139.7c-0.4,0.3-0.5,0.5-0.8-0.1
			C233.7,139.4,234.1,139.2,234.1,139.7z M232.5,100.7c0.4,0.1,0.7,0.4,0.3,0.7C232.3,101.4,232.2,101,232.5,100.7z M232.9,118
			c-0.5,0.1-0.7-0.3-0.4-0.6C232.9,117.4,233.2,117.6,232.9,118z M232.5,111.8c0.7,0.1,0.6,0.3,0.3,0.9
			C232.5,112.3,232.1,112.1,232.5,111.8z M233,135.4c-0.4,0.2-0.6,0.4-0.8-0.3C232.6,135,233.1,134.9,233,135.4z M232.1,220.6
			c-0.3,0.1-0.6,0.3-0.8-0.1C231.1,219.9,232.9,220.2,232.1,220.6z M231.5,215.5c-0.2-0.3-0.4-0.5-0.3-0.7
			C231.7,214.1,232.5,215.1,231.5,215.5z M231.7,119.4c0.7,0.6-0.1,1.1-0.7,0.3C231.3,119.6,231.6,119.4,231.7,119.4z M230.3,106.1
			c0.6,0.1,0.8,0.5,0.2,0.8C230,106.9,230.2,106.4,230.3,106.1z M230.5,121.6c0.2,0.3,0.6,0.7,0,0.8
			C229.9,122.3,230,121.9,230.5,121.6z M230.7,127.9c-0.3-0.2-0.7-0.4-0.3-0.7C230.9,127.3,231,127.6,230.7,127.9z M230.9,144
			c-0.1,0.7-0.3,0.6-0.9,0.3C230.3,143.9,230.5,143.5,230.9,144z M230.5,147.7c-0.3,0-0.4-0.3-0.2-0.6
			C230.7,147.4,231.1,147.5,230.5,147.7z M229.4,109.5c0.5,0,0.4,0.5,0.2,0.7C229,110.3,228.7,109.7,229.4,109.5z M231.1,175.9
			c-0.6,0.8-1.1,1.3-1.6,1.9C228.2,176.5,229.2,175.3,231.1,175.9z M228.1,99.5c0.7-0.2,0.8,0.9,0.1,1
			C227.7,100.4,227.6,99.8,228.1,99.5z M227.3,116.1c0.4,0.5,0.1,0.6-0.2,1.1C226.6,116.5,226.6,116.4,227.3,116.1z M227.3,174.7
			c0.1,0.3,0.3,0.8-0.2,0.8C226.5,175.1,226.7,174.8,227.3,174.7z M222,107.7c0.2,0.8,0.4,1.5,0.1,2.3
			C220.6,110.8,221.1,108.3,222,107.7c-0.4-0.2-0.7-0.3-0.9-0.5c-2.8-1.7,2.2-2.8,5.3-2C227,107.4,223.9,108.4,222,107.7z M224.3,95
			c0.3,0.6-0.4,1.3-0.8,0.6C223.4,94.9,223.9,95,224.3,95z M222.6,97.3c0.6,0.1,0.4,0.4,0.3,0.8C222.3,97.9,222.4,97.8,222.6,97.3z
			 M220.5,99.5c0.3,0.2,0.6,0.6,0.2,0.9C220,100.3,220,99.9,220.5,99.5z M219.4,96.1c1,0.5,0.1,1.4-0.6,0.5
			C219,96.4,219.3,96.1,219.4,96.1z M218.1,112.9c0.8-0.1,0.8,1.2,0.4,1.7C217.8,114.1,217.6,113.4,218.1,112.9z M217.3,151.2
			c-0.7-0.4-0.5-0.4,0.1-1.3C217.6,150.6,217.8,150.8,217.3,151.2z M217.3,128.2c0.5,0.5,0.4,0.6-0.2,1
			C216.7,128.7,216.7,128.5,217.3,128.2z M217.3,133.8c0.8,0.5-0.2,1.3-0.7,0.3C216.9,134,217.1,133.8,217.3,133.8z M216.2,80.7
			c0.7,0.6-0.1,1.1-0.7,0.3C215.8,80.9,216.1,80.7,216.2,80.7z M216,96.2c1,0.4,0.1,1.3-0.9,0.3C215.6,96.3,215.8,96.1,216,96.2z
			 M214.8,108.4c0.7,0.1,0.6,0.3,0.3,0.9C214.7,109,214.4,108.8,214.8,108.4z M215.1,120.2c-0.3-0.2-0.7-0.4-0.3-0.7
			C215.3,119.5,215.5,119.8,215.1,120.2z M215.1,184.6c0.2,0.3,0.4,0.8-0.2,0.8C214.3,185.1,214.5,184.8,215.1,184.6z M214.3,215.3
			c-0.3,0.1-0.9,0-0.7-0.5C214.1,214.1,215.3,214.8,214.3,215.3z M214.1,167.4c-0.5-1-0.9-1.2-0.1-1.4
			C214.6,166.2,214.3,166.6,214.1,167.4z M213.5,132.1c0.2-0.7,0.4-0.5,0.8-0.3C214.2,132.4,213.9,132.2,213.5,132.1z M213.7,115
			c0.3,0.2,0.7,0.5,0.3,0.7C213.5,115.7,213.4,115.4,213.7,115z M213.6,104.9c-0.3-0.5-0.2-0.8,0.3-1
			C214.6,104,214.2,105,213.6,104.9z M213.5,78.6c0.2-1,1.3,0.8,0.4,0.7C213.4,79.3,213.4,78.9,213.5,78.6z M213.2,105.5
			c-0.2,0.1-0.7,0.3-0.7,0C212.8,104.7,214.1,104.7,213.2,105.5z M211.3,85.2c3.1-0.8,2.5,3.5-0.1,4.2
			C211,87.8,210.9,86.6,211.3,85.2z M210.5,106.1c0.5,0.2,0.3,0.5,0.1,0.9C210,106.7,210.2,106.5,210.5,106.1z M210.7,120.1
			c-0.5,0-0.6-0.2-0.4-0.6C210.7,119.6,211.1,119.8,210.7,120.1z M210.6,208.9c0.2,0.3,0.5,0.6,0,0.8
			C210,209.6,210,209.2,210.6,208.9z M210.5,216.5c0.7,0.9,0.7,1.4,0.3,2.1C209.7,218.4,209.9,217.4,210.5,216.5z M209.4,193.4
			c-0.8-0.7,0.3-1.4,0.5-0.5C209.8,193,209.6,193.2,209.4,193.4z M209.5,175.6c-0.7-0.4-0.5-0.4,0.1-1.3
			C209.9,174.9,210,175.1,209.5,175.6z M209.5,151.5c0.5,0,0.3,0.6,0,0.8C208.9,152.2,208.8,151.6,209.5,151.5z M209,123.1
			c0.4-0.2,0.8-0.4,0.8,0.1C209.4,123.5,209.3,123.7,209,123.1z M209.4,85.2c0.6,0,0.3,0.4,0.2,0.8C209,85.8,208.7,85.5,209.4,85.2z
			 M209.5,97.3c0.7,0.6-0.1,1.1-0.7,0.4C209.2,97.5,209.4,97.2,209.5,97.3z M208.4,144.9c0.5,0.1,0.3,0.5,0.1,0.8
			C207.8,145.5,208,145.3,208.4,144.9z M208.4,196.9c0.5,0.1,0.2,0.5,0,0.8C207.8,197.4,207.8,197.1,208.4,196.9z M207.7,120.9
			c-0.8,1.3-1.6-1.3-0.4-1.5C207.9,119.6,207.7,120.5,207.7,120.9z M207.3,106.1c0.8,0.5-0.2,1.3-0.6,0.3
			C207,106.3,207.2,106.1,207.3,106.1z M205.7,164.2c0.2-0.4,0.3-0.7,0.8-0.3C206.4,164.4,206.1,164.5,205.7,164.2z M205.7,145.1
			c0.8-0.7,1.2,0.6,0.2,0.5C205.8,145.6,205.8,145.3,205.7,145.1z M206.1,115c0.5,0,0.4,0.4,0.3,0.8
			C205.7,115.7,205.8,115.5,206.1,115z M206.2,128.3c0.8,0.5-0.2,1.3-0.7,0.3C205.8,128.4,206,128.2,206.2,128.3z M210.8,237.8
			c0.9,3.4-4.3,4.3-6.9,4.2C194.6,253.4,190.1,235.9,210.8,237.8z M198.9,227c0.5-0.4,0.9-0.5,1,0.1
			C199.6,227.6,199.3,227.5,198.9,227z M200.4,221.9c-0.4-0.3,0-0.6,0.3-1C201,221.6,201.1,221.8,200.4,221.9z M200.3,224
			c0.1-0.4,0.3-0.8,0.6-0.4C201,224.1,200.5,224.3,200.3,224z M200.7,212.4c0.2,0.3,0.4,0.8-0.1,0.8
			C200,212.9,200.1,212.6,200.7,212.4z M200.2,95.6c0.2-0.6,0.4-0.5,0.8-0.1C200.9,96,200.5,95.8,200.2,95.6z M201.3,109.9
			c0-0.5,0.5-0.3,0.8-0.2C202,110.3,201.7,110.5,201.3,109.9z M201.7,189.9c-0.6-0.4-0.5-0.5,0.1-0.9
			C202,189.4,202.2,189.8,201.7,189.9z M204.9,132.7c0.5-0.2,0.5,0.3,0.5,0.7C205,134.5,204.3,133.3,204.9,132.7z M204.9,98.9
			c0.3,0.5,0.6,0.9,0.3,1.5C204.4,100.5,204.7,99.3,204.9,98.9z M205.4,209.2c-0.1,0.6-0.3,0.6-0.9,0.3
			C204.8,209.1,205,208.7,205.4,209.2z M204.9,134c-0.4,0.3-1,1-1.4,0.3C203.5,133.5,204.4,134,204.9,134z M203.6,157.2
			c0.6,0,1,0.3,0.4,0.7C203.6,157.9,203.3,157.4,203.6,157.2z M204.9,80.7c0.5,0.2,0.7,0.4,0.3,0.7
			C204.8,81.3,204.5,81.2,204.9,80.7z M205.2,94c0.4,0.3,0.1,0.6-0.2,1C204.6,94.4,204.5,94.2,205.2,94z M204.5,98.7
			c0.9,0.5-0.5,0.5-0.9,0.4C203.5,98.3,204.1,98,204.5,98.7z M203.8,87.3c0.5,0,0.6,0.6,0.2,0.8C203.4,88.2,203.2,87.5,203.8,87.3z
			 M202.9,113.8c0.4,0.5,0.1,0.6-0.3,0.8C202.3,114.3,202.4,114,202.9,113.8z M203.1,127.8c-0.3,0.3-0.5,0-0.6-0.4
			C202.8,127.1,203.2,127.3,203.1,127.8z M204.3,130.6c-0.1,0.9-1.3,1-1.9,0.4C202.4,129.8,203.7,130.4,204.3,130.6z M203.1,219.1
			c0,0.6-0.4,0.6-0.7,0.3C202.6,219.1,202.9,218.7,203.1,219.1z M201.7,104c0.4,0.1,0.5,0.6,0.5,1
			C201.8,107.1,200.3,104.3,201.7,104z M200.1,80.5c0.6,0.1,1.3,0.2,1.9,0.3C201.9,82.3,199.7,81.6,200.1,80.5z M199.4,173.4
			c-0.8-0.5,0.2-1.3,0.6-0.3C199.8,173.2,199.6,173.4,199.4,173.4z M199.7,179.9c-0.4-0.2-0.8-0.3-0.2-0.6
			C199.8,179.4,199.9,179.5,199.7,179.9z M199.4,79.6c0.6-0.1,0.6,0.4,0.6,0.8C199.4,80.8,198.7,80,199.4,79.6z M199.4,120.5
			c0.7,0.4,0.5,0.4-0.1,1.4C199.1,121.1,198.9,120.9,199.4,120.5z M199.6,207.9c0.6,0.7-0.2,1.1-0.7,0.3
			C199.3,208,199.5,207.8,199.6,207.9z M198.6,93c0.4,0.4-0.1,0.5-0.4,0.6C197.9,93.2,198.1,93,198.6,93z M198.2,148.3
			c0.7,0.1,0.6,0.3,0.3,0.9C198.2,148.9,197.9,148.6,198.2,148.3z M197.7,232.8c-1.2,0.7-0.7-1.1-0.8-2.1
			C198.1,231.6,198,232.2,197.7,232.8z M197.7,225.8c-0.1,0.6-0.5,0.8-0.8,0.2C196.9,225.4,197.4,225.7,197.7,225.8z M197.1,131.6
			c0.4,0.1,0.8,0.3,0.4,0.6C197,132.3,196.8,131.9,197.1,131.6z M196.9,114.1c0.3-0.2,0.8-0.4,0.8,0.1
			C197.6,114.9,196.6,114.8,196.9,114.1z M196,115.5c-0.1-0.6,0.4-0.6,0.7-0.8C197.1,114.5,196.4,116.2,196,115.5z M196.2,91.8
			c0.3,0.2,0.6,0.6,0.2,0.9C195.7,92.6,195.7,92.2,196.2,91.8z M195.2,107.3c0.4,0.4,0.1,0.7-0.4,0.6
			C194.5,107.7,194.8,107.2,195.2,107.3z M194.9,128.2c0.6-0.2,1,0.8,0.2,0.9C194.6,129.1,194.4,128.5,194.9,128.2z M195.2,171.4
			c0.6,0.6-0.2,1-0.7,0.3C194.8,171.6,195.1,171.4,195.2,171.4z M194.6,181.7c0.2-0.2,0.5-0.2,0.8-0.2
			C195.9,182.1,193.6,182.9,194.6,181.7z M193.9,90.7c0.5,0,0.4,0.4,0.2,0.8C193.5,91.3,193.5,91.1,193.9,90.7z M194,92.9
			c0.5,0,0.3,0.6,0,0.8C193.4,93.6,193.2,93.1,194,92.9z M194.1,114.6c-0.7,0.3-0.5-0.6-0.7-1C193.9,113.6,194.6,114,194.1,114.6z
			 M192.6,112.8c0.4,0.1,0.7,0.2,0.7,0.7C192.9,113.8,192.2,113.2,192.6,112.8z M193,196.7c0.6,0.7-0.3,1.4-0.5,0.6
			C192.5,197.1,192.7,196.9,193,196.7z M191.4,115.3c0.3-0.3,0.5-0.2,0.8,0.1C191.8,115.6,191.5,115.9,191.4,115.3z M191.7,78.3
			c0.5,0.6,0.5,0.8-0.1,1C191.1,79.1,191.4,78.8,191.7,78.3z M191.8,181.4c0.8,0.3-0.1,1.2-0.7,0.4
			C191.4,181.6,191.6,181.4,191.8,181.4z M190.2,218.4c0.2-0.3,0.4-0.8,0.8-0.3C190.9,218.6,190.6,218.6,190.2,218.4z M190.8,153.6
			c-0.4-0.3-0.7-0.6-0.3-0.9C191.1,152.7,191.1,152.9,190.8,153.6z M190.8,189.9c-0.5,0.1-0.7-0.4-0.4-0.6
			C190.9,189.3,191.2,189.5,190.8,189.9z M190.9,125.1c0.4,0.4-0.1,0.5-0.4,0.6C190.2,125.3,190.3,125,190.9,125.1z M189.5,106.9
			c-0.8-0.6,0.2-1.1,0.9-0.5C189.9,106.7,189.7,106.9,189.5,106.9z M189.5,92.7c-0.5-0.2-0.4-0.9,0.2-0.9
			C190.2,92,190.1,92.7,189.5,92.7z M189.6,87.3c-0.5-0.4-0.6-0.7-0.1-1C190.1,86.4,190,86.7,189.6,87.3z M189.6,74.8
			c-0.7-0.2-0.4-0.5,0-1.3C189.9,74.2,190.2,74.5,189.6,74.8z M189.2,62.3c0.7-0.9,1.1,0.3,0.6,1.1
			C189.3,62.6,189.1,62.4,189.2,62.3z M189.7,135c0.7,0.6-0.1,1.1-0.7,0.3C189.3,135.1,189.6,134.9,189.7,135z M188.4,67.5
			c0.3,0.2,0.6,0.6,0.2,0.9C187.9,68.2,187.9,67.8,188.4,67.5z M188.1,139.6c0.3-0.4,0.5-0.1,0.6,0.3
			C188.4,140.1,188.2,140.1,188.1,139.6z M188.6,203.2c-0.6-0.2-0.4-0.4-0.2-0.9C189,202.5,188.8,202.8,188.6,203.2z M188.3,233.3
			c0.5,0.2,0.7,0.4,0.3,0.7C188.2,233.9,187.9,233.8,188.3,233.3z M188.5,241.1c0.6,0.6-0.1,1.1-0.7,0.3
			C188.2,241.2,188.5,241,188.5,241.1z M159.7,34.4c0.8,0.2-0.4,0.9-0.4,0.2C159.4,34.5,159.6,34.4,159.7,34.4z M158.7,32
			c0.2,0.3,0.4,0.8-0.2,0.8C157.9,32.5,158.1,32.2,158.7,32z M156.5,28.8c0.4,0.3,0,0.5-0.3,0.7C155.9,29.2,156,28.9,156.5,28.8z
			 M153.9,4.6c0.8-0.3,0.6,0.7,0.3,1.1C154,5.4,153.6,5,153.9,4.6z M155.6,37.1c-0.6,0.7-0.8-0.3-1.4-0.3
			C154.7,36.5,155.8,36.2,155.6,37.1z M153,2.3c0.5,0,0.4,0.4,0.2,0.8C152.6,2.9,152.6,2.7,153,2.3z M152.9,33.1
			c2.3-0.7,3.3-1.6,2.8,1.5c-2.1,0.6-0.8,0.1-1.5,2.1c-0.8-0.7-0.2-1.4,0-2C154.2,33.6,151.6,34.5,152.9,33.1z M150.9,32
			c1.5,0,0.3,0.8-0.1,0.8C150.3,32.6,150.4,32.1,150.9,32z M53.9,198.3c0.3-0.2,0.6-0.3,0.7-0.3C55.3,198.6,54.5,199,53.9,198.3z
			 M54.1,151.9c0-0.5,0.5-0.3,0.8-0.2C54.8,152.3,54.5,152.5,54.1,151.9z M54.4,194.3c-0.5-0.2-0.2-0.5,0.1-1
			C55,193.8,55.1,194,54.4,194.3z M54.9,196c0,0.5-0.4,0.3-0.7,0.1C54.4,195.8,54.7,195.7,54.9,196z M54.5,215.5
			c-0.4-0.5-0.5-0.9,0.1-1C55.1,214.8,55,215.2,54.5,215.5z M53.9,230.5c-0.3,0.1-0.8,0.4-0.8-0.2C53.2,229.6,54.8,230.2,53.9,230.5
			z M56.7,232.1c-2.8-1.7-4.9-7.2,0.2-6.7C59.6,227.8,62.4,233.2,56.7,232.1z M55.7,182.5c0.5,0.1,0.2,0.5,0,0.8
			C55.1,183.1,55,182.7,55.7,182.5z M55.8,160.3c0.4,0.5,0.1,0.6-0.2,1C55.1,160.6,55.2,160.5,55.8,160.3z M56,201.6
			c0,0.5-0.4,0.4-0.8,0.2C55.4,201.2,55.6,201.3,56,201.6z M55.7,205.8c0.4,0.1,0.5,0.6,0.5,1.1C55.8,208.8,54.4,206.1,55.7,205.8z
			 M56.3,196.3c0.2-0.6,0.4-0.4,0.8-0.2C57,196.6,56.7,196.4,56.3,196.3z M56.8,199.8c-0.6,0-0.8-0.7-0.1-0.8
			C57.1,199.1,57.2,199.6,56.8,199.8z M58,193.5c0.1,0.4,0.3,0.8-0.2,0.8C57.5,193.8,57.4,193.6,58,193.5z M57.5,163.9
			c0.4-0.3,0.5-0.1,0.6,0.3C57.7,164.4,57.6,164.3,57.5,163.9z M58,162.2c-0.5-0.1-0.6-0.3-0.3-0.7C58,161.6,58.4,161.9,58,162.2z
			 M57.5,123.1c0.3-0.4,0.5-0.2,0.6,0.2C57.8,123.6,57.6,123.5,57.5,123.1z M57.8,221.1c0.6,0,0.3,0.5,0.2,0.9
			C57.4,221.9,57.2,221.5,57.8,221.1z M61.4,212c-0.6-0.1-0.5-0.3-0.3-0.8C61.6,211.2,61.5,211.7,61.4,212z M57.5,208.3
			c2.1-0.8,6.2-1.1,8.1,0.4c5.4,0.1-0.7,7.8-1.7,4.7C64.7,208.5,59,211.4,57.5,208.3z M58.9,149.3c0.5,0.1,0.6,0.6,0.1,0.8
			C58.4,150.1,58.2,149.4,58.9,149.3z M58.5,135.2c0.2-0.5,0.8-0.3,0.8,0.2C59.2,135.9,58.5,135.8,58.5,135.2z M59.9,174.4
			c-0.2-0.4-0.1-0.7,0.4-0.6C60.6,174.1,60.2,174.2,59.9,174.4z M60.4,204c0,0.1-0.2,0.2-0.4,0.2C59.4,203.8,60.4,203.3,60.4,204z
			 M59.7,132c0.3-0.2,0.6-0.4,0.7,0.1C60.2,132.3,59.9,132.3,59.7,132z M61.2,183c0.8-0.4,1-0.6,1.2-0.6
			C63.3,183.2,62.1,183.5,61.2,183z M64.9,196.1c-0.4,0.3-0.5,0.5-0.8-0.1C64.4,195.8,64.8,195.6,64.9,196.1z M64.5,128.2
			c0.4,0.2,0.4,0.7-0.1,0.8C63.8,128.9,64,128.3,64.5,128.2z M65.8,191.4c0.3,0.4,0,0.5-0.4,0.6C65.2,191.6,65.3,191.4,65.8,191.4z
			 M67.8,176.9c0.5,0,0.3,0.5,0.2,0.8C67.4,177.6,67.2,177.2,67.8,176.9z M65.8,215.3c-0.4,0.2-0.8-0.3-1.2-0.5
			C65.2,214.5,66.2,214.4,65.8,215.3z M64.6,218.6c-0.7-0.2-0.6-0.4-0.2-1C64.8,218,65.1,218.3,64.6,218.6z M65.7,222
			c-0.9-0.3-0.1-1,0.1-1.6C66,221,65.9,221.5,65.7,222z M66.9,220.7c-0.4-0.1-0.8-0.2-1.1-0.3C66.2,220.1,67.7,219.9,66.9,220.7z
			 M67.9,229.7c-0.7-0.2-0.6-0.5-0.1-0.9C68.1,229.1,68.4,229.6,67.9,229.7z M69.6,225.8c0.4-0.2,0.8-0.4,0.8,0.1
			C70,226.3,69.8,226.5,69.6,225.8z M70.4,224.1c-2.5-0.7-2-2,0-3.3C70.4,222.2,70.4,223.2,70.4,224.1z M71,209.8
			c-0.6-0.1-0.4-0.8,0.1-0.8C71.6,209.1,71.5,209.7,71,209.8z M72.6,203.8c0,0.4-1,0.4-1.2,0C71.8,203.7,72.3,203.2,72.6,203.8z
			 M72.2,189.2c0.6,0,0.3,0.4,0.2,0.8C71.8,189.8,71.5,189.5,72.2,189.2z M71.5,205.2c-1.3,0.7-0.6-0.8-0.1-1.4
			C71.4,204.2,71.5,204.7,71.5,205.2z M71.2,206.8c0.2,0,0.3,0.2,0.5,0.5C71,208.1,70.3,207,71.2,206.8z M73,239.5
			c0-0.2,0.1-0.7,0.4-0.6C74.1,239.5,73.3,240.6,73,239.5z M72.8,237.2c0.4-0.5,0.6-0.7,0.9-0.1C73.7,237.7,73.3,237.4,72.8,237.2z
			 M74.8,240.6c-0.7,0.6-0.8-0.3-1.4-0.5C73.9,240.1,75,239.6,74.8,240.6z M75.5,237.7c-0.3-0.6-0.5-0.9,0.2-1
			C76.2,237,75.9,237.3,75.5,237.7z M76.7,242.9c-0.2,0-0.3-0.2-0.6-0.4C76.8,241.7,77.5,242.7,76.7,242.9z M88,260.3
			c0,0.1-0.2,0.1-0.3,0.2C86.9,260.3,88.1,259.7,88,260.3z M88.8,266.1c-0.6-0.1-0.5-0.8,0.1-0.8C89.3,265.5,89.2,266.1,88.8,266.1z
			 M88.4,257c0-0.2,0.2-0.4,0.4-0.7C89.7,256.9,88.9,257.8,88.4,257z M81.7,246.5c0.2-1.6-0.3-2.3-2.1-2.6c0.5-1.6,1.5-2.8,0.2-4.2
			c-2.2-5.1-9.9-6.2-8-13.1c18.8,3.5,9.5,26.8,16.7,21.3c1.1-0.7,3.1,0.5,3.5-1.6c1.9,3-0.2,3.1-2,4.4C85,250.9,81.3,252,81.7,246.5
			z M77.2,158.7c0.3-0.4,0.6-0.7,0.9-0.3C78.1,159,77.9,159,77.2,158.7z M78,174.4c-0.5,0.1-1.1-0.7-0.4-0.7
			C78,173.7,78.3,174,78,174.4z M77.9,126.1c0.6,0.7-0.2,1.1-0.7,0.2C77.5,126.2,77.8,126,77.9,126.1z M77.2,116.7
			c0.3-0.4,0.5-0.8,0.9-0.3C78.1,117,77.9,117,77.2,116.7z M77.2,173.1c0.4,1.3-1.6,0-0.6-0.6C76.8,172.7,77.1,172.8,77.2,173.1z
			 M78.1,180.5c0.4,0.9-1.4,1.1-1.8,0.5C76.1,180,77.6,179.8,78.1,180.5z M79.3,220.2c0.5,3.2-2.1,1.7-3.1,0.3
			C77.3,219.8,77.3,219.8,79.3,220.2z M78.5,203.8c0.3-0.3,0.5-0.2,0.8,0.1C78.9,204.1,78.6,204.3,78.5,203.8z M78.9,94.9
			c-0.7-0.5-0.5-0.4,0.1-1.4C79.3,94.2,79.5,94.4,78.9,94.9z M78.7,110.6c-1.2,1-1.3,1.1-2.4,0.6C76.6,110,77.4,110.7,78.7,110.6z
			 M77,123c0,0.5-0.3,0.6-0.7,0.4C76.5,123,76.7,122.6,77,123z M76.3,92.3c0.1-0.5,0.7-0.6,0.9-0.1C77.1,92.8,76.4,92.9,76.3,92.3z
			 M76.7,155.9c0.6,0,0.6,1.1,0,0.9C76.1,156.7,76.1,156,76.7,155.9z M76.6,202.3c1,0.4,0.1,1.3-0.9,0.3
			C76.2,202.4,76.4,202.3,76.6,202.3z M75.7,163.2c-0.6,0.1-0.5-0.9-0.2-1.2C75.9,162.4,76,162.8,75.7,163.2z M74.1,161.6
			c0.6-0.6,0.8,0.3,1.4,0.4C75,162.2,73.9,162.5,74.1,161.6z M74.8,221.3c0.3,0.8-0.6,0.7-1.2,0.8C73.9,221.7,74.2,220.7,74.8,221.3
			z M73.7,222.3c0.3,0.5-0.3,1-0.7,0.6C72.7,222.5,73.4,221.9,73.7,222.3z M81,141.6c0.8,0.1,0.1,1-0.5,1.1
			C80.5,142.2,80.6,141.8,81,141.6z M80.6,137.5c0-0.2,0.2-0.4,0.4-0.9C81.8,137.6,81.1,138.3,80.6,137.5z M81.1,181.4
			c0.7,0.6-0.1,1.1-0.7,0.3C80.8,181.6,81,181.4,81.1,181.4z M81.1,191c-0.2,0-0.4-0.2-0.7-0.4C81,189.8,81.9,190.6,81.1,191z
			 M80.4,143.2c-0.3,0.2-0.8,0.4-0.8-0.2C79.8,142.5,80.8,142.5,80.4,143.2z M79.8,213.5c0.4,0.1,0.7,0.4,0.3,0.7
			C79.6,214.2,79.5,213.8,79.8,213.5z M79.6,205.9c0.4-0.2,0.7-0.2,0.7,0.4C79.9,206.7,79.7,206.2,79.6,205.9z M79.8,200.9
			c-0.4-0.3,0-0.6,0.3-0.9C80.4,200.6,80.5,200.8,79.8,200.9z M80.3,224c-0.3,0.4-0.6,0-0.7-0.3C80,223.3,80.3,223.4,80.3,224z
			 M79.6,126.5c0.3-0.6,0.8-0.5,0.8,0.2C80.2,126.9,79.5,127,79.6,126.5z M80,109.8c-0.2-0.7-0.6-1-0.2-1.4
			C80.7,108.6,80.3,108.7,80,109.8z M80,89.2c-0.7-0.3-0.5-0.7,0.2-0.8C80.2,88.7,80.5,89.2,80,89.2z M80.3,194.7
			c0,0.7-0.2,0.7-0.9,0.3C79.7,194.8,80,194.3,80.3,194.7z M82.3,224.3c0.1,0.3,0.2,0.5,0.3,0.7C81.8,225.5,81.5,224.8,82.3,224.3z
			 M87,211.5c-0.3,0.3-0.4,0.5-0.7,0.1C86.5,211.3,86.7,211.3,87,211.5z M86.4,183.6c0.7,0.1,0.6,0.3,0.3,0.9
			C86.4,184.2,86,183.9,86.4,183.6z M86.7,216.7c0.8,0.5-0.2,1.3-0.7,0.3C86.3,216.9,86.6,216.7,86.7,216.7z M85.2,199.6
			c0-0.7,0.3-0.7,0.9-0.3C85.8,199.6,85.6,200.1,85.2,199.6z M87.8,236.7c0.2,0.3,0.4,0.7-0.1,0.8C87.1,237.2,87.2,236.9,87.8,236.7
			z M89.1,123c0,0.6-0.3,0.6-0.7,0.4C88.6,123,88.8,122.6,89.1,123z M88.9,105c0.5,0.1,0.3,0.5,0.1,0.9
			C88.4,105.6,88.3,105.4,88.9,105z M89,141.4c0.2,0.4,0.4,0.8-0.1,0.9C88.3,142,88.4,141.8,89,141.4z M88.7,219.9
			c-0.4-0.6-0.4-0.7,0.2-1C89.3,219.3,89.3,219.4,88.7,219.9z M89,226.1c0.4,0.4,0.3,1.6-0.5,1.2C88.3,226.8,88.5,226.4,89,226.1z
			 M90,163c0.1,0.4,0.2,1,0,1.3C89.6,164.7,90,163.4,90,163z M89.9,161.4c0.1,0.1,0.3,0.2,0.3,0.3C90.3,162.7,89.1,162,89.9,161.4z
			 M90,163c0.5-0.3-0.1-0.9,0.7-0.6C92.1,163.1,90.8,163.7,90,163z M90.9,152.6c0.6-0.2,1,0.8,0.2,0.9
			C90.5,153.4,90.3,152.8,90.9,152.6z M90.6,139.8c0.2-0.7,0.5-0.7,0.9-0.1C91.2,140,90.8,140.3,90.6,139.8z M91.1,117
			c-0.8-0.2-0.8-1.8,0-2C91.8,115.3,91.8,116.8,91.1,117z M91.5,222.7c-0.3,0.7-0.7,0.3-1-0.2C90.9,222.2,91.5,222.1,91.5,222.7z
			 M91,241.9c-0.6-0.2-0.5-0.6,0-1C91.6,241.1,91.8,241.9,91,241.9z M91.8,205.9c0.3-0.2,0.7-0.3,0.8,0.2
			C92.1,206.5,91.9,206.6,91.8,205.9z M92.9,96.6c0.2-0.5,0.6-0.6,1.1-0.4C94,96.8,93,97.4,92.9,96.6z M93.2,126.9
			c-0.4-0.2-0.4-0.8,0.1-0.8C94,126.2,93.8,126.9,93.2,126.9z M93.4,157.1c0.6,0.7-0.3,1-0.7,0.2C93,157.2,93.3,157.1,93.4,157.1z
			 M91.1,266.4c0.5,0.2,0.4,0.7,0,1C90.5,267.2,90.3,266.4,91.1,266.4z M91,269.7c-0.3-0.1-0.6-0.7-0.2-0.9
			C91.8,268.6,92.3,270.1,91,269.7z M92,269.8c0.6,0.1,0.7,0.6,0.9,1C91.8,270.7,91.8,270.6,92,269.8z M101.4,269.4
			c-0.5,0.5-0.8,0.1-0.9-0.5C101.1,268.6,101.5,268.8,101.4,269.4z M102.5,262.1c-5.4,1.9-13.8,1.6-9.5-6.6
			C96.3,255.8,103,257.5,102.5,262.1z M94.4,213.3c0.5,0.6,0.5,0.7-0.1,1C93.8,214,94.1,213.7,94.4,213.3z M94.1,107.7
			c0.1-0.5,0.4-0.3,0.8-0.1C94.6,108,94.4,108,94.1,107.7z M95.2,98.1c-0.4-1-0.2-3.1,0.8-1.4C96,97.2,96.2,97.9,95.2,98.1z
			 M95.6,104.9c-0.4-0.3-0.8-0.6-0.3-0.9C96,104.1,95.9,104.3,95.6,104.9z M95.9,155.3c-0.3,0.4-0.6,0.1-0.9-0.3
			C95.6,154.7,95.7,154.6,95.9,155.3z M96.6,91.8c0.9,0.4,0,1.1-0.5,1.3C96.1,92.5,95.8,91.9,96.6,91.8z M96.2,77.8
			c0-0.1,0.3-0.3,0.5-0.5C97.4,78,96.3,78.7,96.2,77.8z M97.9,184.2c-1,0.4-1-1.2-0.1-1.7C98.3,183,98.3,183.6,97.9,184.2z
			 M98,228.3c0,0.1-0.2,0.1-0.4,0.2C97,228.1,98.1,227.6,98,228.3z M97.3,173.8c0.4-0.2,0.7-0.2,0.7,0.3
			C97.7,174.6,97.5,174.1,97.3,173.8z M97.9,176.5c-0.5,0-0.6-0.2-0.4-0.6C97.9,176,98.2,176.2,97.9,176.5z M97.7,129
			c-0.7-0.2-0.5-0.6,0.1-0.8C98,128.5,98.3,129,97.7,129z M98,88c-0.3,0.3-0.5,0-0.6-0.4C97.7,87.3,98.1,87.4,98,88z M97.6,113.8
			c1.5,1.5-2.7,1.2-1,0C96.9,113.7,97.4,113.7,97.6,113.8z M97,233.7c-0.2,0.7-0.8,0.4-0.8-0.1C96.4,233.4,97,233.1,97,233.7z
			 M96.6,200.1c0.4,0.2,0.4,0.7-0.1,0.8C95.9,200.8,96.1,200.2,96.6,200.1z M96.9,163.8c0,0.6-0.3,0.6-0.7,0.4
			C96.3,163.9,96.6,163.5,96.9,163.8z M96.6,147.1c0.5,0.1,0.3,0.5,0.1,0.8C96,147.7,96.2,147.5,96.6,147.1z M96.2,112
			c0.5-0.8,1.3,0.2,0.3,0.6C96.3,112.4,96.1,112.2,96.2,112z M96.5,190.2c0.5,0.1,0.5,0.6,0.1,0.8C96.1,191,95.9,190.4,96.5,190.2z
			 M97.3,245.9c0.1-0.5,0.5-0.3,0.8-0.1C97.9,246.4,97.7,246.3,97.3,245.9z M98.2,250.3c0.5-0.5,0.7-0.6,1.1-0.1
			C98.9,250.8,98.7,250.7,98.2,250.3z M100.9,249.9c1,0.7,1,1.4-0.1,1.8C100.4,251.1,100.4,250.5,100.9,249.9z M103.4,262.9
			c-0.5,0.2-0.6-0.3-0.7-0.7C103.1,261.8,104,262.3,103.4,262.9z M116.4,278.9c-0.5-0.7-0.6-1.5-0.1-2.5
			C117.5,276.8,117.3,278.2,116.4,278.9z M127.6,281.7c-0.2,0-0.4-0.2-1-0.5C127.4,280.5,128.5,281.1,127.6,281.7z M129.1,279.2
			c-0.1,0.3-0.8,0.5-0.8,0C128.3,278.5,129.3,278.4,129.1,279.2z M133.3,279.5c-0.8,0-0.7-1.2,0-0.9
			C133.5,278.9,133.7,279.4,133.3,279.5z M135.2,280.6c-0.5-0.2-0.2-0.5,0.1-1C135.8,280.1,135.8,280.3,135.2,280.6z M136,277.8
			c0.4-0.1,0.8-0.3,0.8,0.3C136.3,278.3,136.1,278.5,136,277.8z M136.9,273.2c2.7,1.6-3.6,4.6-3.1,1.9
			C137.1,270.1,142.4,272.5,136.9,273.2z M139.6,273.7c-0.9-1.7,1.5-0.3,0.9,0.1C140.2,273.8,139.8,273.9,139.6,273.7z M140.9,275
			c-0.7-0.2-0.3-0.8-0.1-1.2C141.1,274,141.6,274.9,140.9,275z M143.2,275.1c-0.4-0.3-0.8-0.6-0.3-0.9
			C143.5,274.3,143.5,274.5,143.2,275.1z M145.2,279.5c-1.4,0-0.3-0.8,0.1-0.8C145.8,278.9,145.7,279.4,145.2,279.5z M137.8,270.2
			c-3.1,0.7-2.4,4.1-4.9,4.6c-1,1.7,2.2,1.3-0.1,2.9c-3.6,5.1-0.5,2.6-3.8,0.8c-2.5-2-5.2-0.7-8.9-2.6c1.6-1.2,3.2-3.8,0.4-2.7
			c-2.2,4-6-0.9-8-2.3c3-1.3-0.9-2.8-2.1-3.6c1.7,2,2.9,5.5-1,2.6c4.6-4.3-9.4,6.6-4.7-3c-2.3-4.8,10.6-2.5,13.2-2.7
			c-0.3,1.7,6.6,6.6,1.3,5c-1-0.9-1.3,0.3-1,1c5.3,4.8,2.7-4,6.4-0.4c5,0.1,6.3,4,10-1c-0.4-1.4,0.9-2.2,0.8-3.4
			c-1.5-0.7,0.8-2.9,2.3-2.1c0,0.9,0.6,2.7,1.4,1c0.3-2.5,2.6,0.5,2.4,2.2c2.3-1.6,3.5-4.9,4.7-1.6
			C147.7,270.5,134.2,264.3,137.8,270.2z M109.8,223.8c-0.5,0.2-0.8,0.3-1,0.3C108,223.7,108.7,223.1,109.8,223.8z M108.9,216.7
			c0.2,0,0.3,0.3,0.6,0.5C108.7,218,107.9,217,108.9,216.7z M110,239.9c0.2,0.3,0.4,0.7-0.1,0.8C109.5,240.3,109.4,240.1,110,239.9z
			 M109.8,211.1c-0.4-0.6-0.4-0.8,0.3-1C110.5,210.4,110.2,210.7,109.8,211.1z M109.6,159.2c-0.1-0.4-0.3-0.9,0.4-1
			C110.7,158.4,110.1,159.1,109.6,159.2z M109.5,159.3c-0.1,0.5-0.9,1-1.1,0.4C108.4,159.1,109.1,159.1,109.5,159.3z M108.9,153.4
			c-0.2,0-0.4-0.2-1-0.5C108.7,152.3,109.7,152.8,108.9,153.4z M107.5,135.7c-0.2-0.4-0.2-0.7,0.3-0.7
			C108.2,135.3,107.8,135.5,107.5,135.7z M107.8,161.5c0.4,0.3,0,0.6-0.3,0.7C107.2,161.8,107.3,161.5,107.8,161.5z M107.5,194.2
			c-0.5-0.6,0.3-1.5,0.5-0.5C108.1,194,107.8,194.4,107.5,194.2z M107.8,184.4c-0.6-0.3-0.4-0.4-0.1-0.8
			C108.2,183.8,108,184,107.8,184.4z M107.7,185.8c0.4,0.1,0.3,0.9-0.2,0.9C107.2,186.3,107.5,186,107.7,185.8z M107.4,186.7
			c-0.3,0.3-0.6,1.2-1.1,0.8C106,186.6,106.8,186.8,107.4,186.7z M106.7,192.4c1.1,0.5,1,0.8-0.2,0.8
			C106,193,106.2,192.3,106.7,192.4z M106.4,205.6c0.6,0.3,0.8,0.6,0.2,0.9C106.1,206.4,106,206,106.4,205.6z M113.2,249.8
			c5.1,4.1-4.5,3.4-7.1,2.8C104.6,248.2,110.6,250.2,113.2,249.8z M110.6,125.5c0.1-0.7,0.7-0.6,0.8,0
			C111.2,125.7,110.7,126,110.6,125.5z M111.1,162.4c-0.4-0.3-0.8-0.6-0.3-0.9C111.4,161.5,111.4,161.7,111.1,162.4z M111.1,119.4
			c0.7,0.6-0.1,1.1-0.7,0.3C110.7,119.6,111,119.4,111.1,119.4z M110.6,103.3c0-0.5,0.5-0.3,0.8-0.2
			C111.3,103.7,110.9,103.9,110.6,103.3z M113.1,224.5c1,0.4,0.1,1.3-0.8,0.4C112.7,224.6,112.9,224.5,113.1,224.5z M112.8,220.2
			c0.4-0.3,0.7-0.2,0.7,0.4C113.1,221,112.9,220.6,112.8,220.2z M112.1,216.7c0.2,0.3,0.6,0.7,0,0.8
			C111.5,217.4,111.5,217,112.1,216.7z M111.7,200.5c0.3-0.7,0.7-0.5,0.8,0.2C112.1,200.9,111.7,201.1,111.7,200.5z M114.2,179.9
			c-0.1,0-0.2-0.2-0.3-0.3C114.2,178.9,114.9,179.9,114.2,179.9z M114.1,157.1c0.5,0.1,0.6,0.4,0.3,0.7
			C114.1,157.7,113.7,157.4,114.1,157.1z M114.6,236.1c-0.3,0.2-0.5,0.2-0.7-0.2C114.2,235.5,114.4,235.7,114.6,236.1z M113.5,260.4
			c-0.3,0.4-0.6,0-0.8-0.3C113.1,259.8,113.4,259.9,113.5,260.4z M111.4,258.2c-0.3,0.1-0.7,0.3-1,0.2
			C110.4,257.6,111.2,257.3,111.4,258.2z M109.8,259.5c-0.7-0.4,0-1,0.5-1C110.4,258.9,110.6,259.4,109.8,259.5z M107,258.1
			c0,0.1-0.3,0.3-0.5,0.5C105.6,258,106.7,257.1,107,258.1z M118.8,244c-0.1,0-0.3-0.2-1-0.5C118.6,242.9,119.7,243.4,118.8,244z
			 M118.8,211.3c0.3,0.1,0.4,0.5,0,0.6C118.3,211.9,118.5,211.5,118.8,211.3z M117.8,144.1c0.4-0.2,0.7-0.4,0.9-0.3
			C119.7,144.2,118.8,145,117.8,144.1z M117.8,150.1c-0.6-0.2-0.5-0.4-0.1-0.8C118.1,149.4,118,149.8,117.8,150.1z M117.3,107.6
			c0.3-0.2,0.5-0.2,0.7,0.1C117.7,108.1,117.6,107.9,117.3,107.6z M117.5,205.7c0.6,0.1,0.7,0.4,0.3,0.7
			C117.5,206.3,117.1,206.1,117.5,205.7z M117.5,251.3c-0.8,0.5-1.1,0.8-1.3,0C116.5,250.7,116.8,251,117.5,251.3z M116,227
			c0.3-0.2,0.5-0.4,0.6-0.3C117.4,227.1,116.5,227.9,116,227z M115.5,186.1c0.6-0.2,0.8-0.4,1-0.4
			C117.4,186.2,116.7,186.8,115.5,186.1z M116.6,193.2c-0.2,0-0.4-0.2-1-0.5C116.4,192.1,117.5,192.6,116.6,193.2z M115.5,171.1
			c-0.6,0-0.8-0.7-0.2-0.9C115.8,170.2,115.9,170.9,115.5,171.1z M115.4,206.7c0.6,0.2,0.4,0.6,0,1
			C114.8,207.5,114.6,206.7,115.4,206.7z M115.9,221.6c-0.2,0.6-0.6,0.6-1.1,0.1C115,221,115.8,220.8,115.9,221.6z M121,222.3
			c0.5,0.2,0.4,0.6-0.1,1C120.4,222.8,120.3,222.4,121,222.3z M121.1,201.2c0.3,0.5,0.3,0.8-0.4,0.7
			C120.3,201.7,120.6,201.3,121.1,201.2z M120.8,176c-0.2-0.4-0.3-0.6-0.3-0.8C120.9,174.2,121.8,175,120.8,176z M122.3,260.4
			c-0.2,0.3-0.5,0.2-0.6-0.1C122,260,122.4,259.8,122.3,260.4z M122,240c0.5,0.1,0.3,0.5,0.1,0.8C121.6,240.5,121.7,240.4,122,240z
			 M121.8,267.8c0.5-0.2,0.7,0,0.6,0.5C121.8,268.3,121,268.3,121.8,267.8z M122,173.6c-0.5-0.7-0.5-0.8,0.2-1.1
			C122.6,172.9,122.3,173.1,122,173.6z M123.1,222c-0.5-0.1-0.9-0.8,0-1C123.8,221,123.8,222,123.1,222z M123.6,249.2
			c-0.1,0.6-1.2,0.5-1-0.2C123,248.6,123.6,248.7,123.6,249.2z M122.5,219.2c0.6-0.6,0.7-0.3,1.1,0.3
			C123.1,219.8,122.9,219.8,122.5,219.2z M123.6,183.1c-0.4,0.4-0.8,0.2-1.1-0.3C123,182.3,123.9,182.3,123.6,183.1z M123.5,148.9
			c-0.7,0.6-1-0.6-1.1-1.1C123,148,123.7,148.1,123.5,148.9z M125,265c-0.3-0.5,0.3-1,0.7-0.6C125.8,264.9,125.2,265.8,125,265z
			 M125.2,265.4c-0.2,0.5-1.3,1-1.2,0.2C124.3,265.3,124.7,265.3,125.2,265.4z M125.4,258.4c-0.6,0-0.3-0.4-0.2-0.8
			C125.8,257.8,126.1,258.1,125.4,258.4z M125.2,206.9c-0.2-0.4-0.6-1,0.1-1.2C126.1,205.8,125.4,206.5,125.2,206.9z M125,135.3
			c0.4-0.7,1,0,1,0.5C125.6,135.8,125.1,136,125,135.3z M125.4,151.4c-0.5-0.4-0.6-0.7-0.1-1C125.9,150.5,125.9,150.9,125.4,151.4z
			 M125.5,157.1c0.6,0.7-0.3,1-0.7,0.2C125.1,157.2,125.4,157.1,125.5,157.1z M125.2,207c-0.3,0.4-0.7,0.6-1.2,0.5
			C123.7,206.8,124.7,206.7,125.2,207z M124.4,200.2c0.4,0.3,0.1,0.6-0.2,1C123.8,200.5,123.8,200.3,124.4,200.2z M123.9,178.6
			c0.1-0.9,0.9-0.6,0.5,0.2C124.2,178.7,123.9,178.7,123.9,178.6z M124.2,173.6c-0.3-0.5-0.5-0.7-0.1-1.1
			C124.8,172.8,124.7,173,124.2,173.6z M124.3,144.9c0.3,0,0.3,0.5,0.2,0.7C123.9,146,123.8,145.2,124.3,144.9z M124.1,128.3
			c0.7,0.1,0.7,0.3,0.3,0.9C124,128.9,123.7,128.6,124.1,128.3z M124.1,162.5c0.3,0.2,0.7,0.5,0.3,0.8
			C123.8,163.2,123.8,162.8,124.1,162.5z M124.4,168.1c0.2,0.3,0.4,0.8-0.1,0.8C123.6,168.6,123.8,168.2,124.4,168.1z M124.6,210.6
			c-0.4,0.3-0.6,0.4-0.8-0.3C124.2,210.1,124.6,210.1,124.6,210.6z M127,210.4c-0.3,0.3-0.6,0.7-0.9,0.3
			C126.2,210,126.3,210,127,210.4z M126.1,135.8c0.4,0.1,0.9,0.2,0.7,0.7C126.4,137.1,126,136.3,126.1,135.8z M126.1,128.7
			c0-0.6,0.5-0.3,0.8-0.2C126.7,129.1,126.4,129.3,126.1,128.7z M126.5,234.4c0.2,0.3,0.6,0.7,0,0.8
			C125.9,235,125.9,234.6,126.5,234.4z M127.1,255.5c-0.1,0.4-0.8,1.1-1,0.4C126.1,255.3,126.7,255.4,127.1,255.5z M127.6,111.1
			c0.8-0.4,1-0.6,1.1-0.5C129.6,111.3,128.4,111.6,127.6,111.1z M128.6,114.9c-0.2-0.3-0.4-0.5-0.3-0.7
			C128.7,113.4,129.5,114.4,128.6,114.9z M128.6,198.4c-0.8,0.2-1,0.6-1.4,0.2C127.3,197.6,127.5,198,128.6,198.4z M128.7,129.4
			c0.3,0.1,0.6,0.7,0,0.8C128,130,128.1,129.5,128.7,129.4z M127.5,195.8c0.4,0.1,0.5,0.3,0.2,0.6
			C127.3,196.2,127,196.1,127.5,195.8z M127.2,179.6c0.1-0.5,0.4-0.3,0.8-0.1C127.7,179.9,127.5,179.9,127.2,179.6z M127.6,157
			c-0.5-0.5-0.6-0.6-0.2-1.1C128.1,156.2,128,156.4,127.6,157z M127.5,174.7c0.6,0.1,0.5,0.5,0.1,1
			C127.1,175.3,126.9,175,127.5,174.7z M128,262.5c0.4-0.3,0.8-0.6,1-0.1C128.9,263,128.7,262.9,128,262.5z M129.9,258.2
			c0.2,0.4,0.5,0.9,0,1.3C129,259.3,129.7,258.7,129.9,258.2z M134.2,135.7c-0.3-0.4-0.5-0.6,0.1-0.8
			C134.5,135.2,134.7,135.7,134.2,135.7z M134,140c-0.2-0.3-0.1-0.5,0.2-0.5C134.8,139.7,134.4,139.8,134,140z M134.2,133.5
			c-0.6-0.3-0.5-0.7,0.2-0.8C134.5,133,134.7,133.5,134.2,133.5z M134.4,142.7c0.5,0.3,0.1,0.6-0.2,1
			C133.8,143,133.7,142.8,134.4,142.7z M135.4,130.3c-0.4-0.3-0.8-0.6-0.3-0.9C135.8,129.5,135.7,129.7,135.4,130.3z M135.7,184
			c-0.5,0.7-1.1,0-0.4-0.6C135.5,183.7,135.7,183.9,135.7,184z M135.3,199c0.3,0.1,0.6,0.7,0.1,0.8C134.7,200,134.5,198.8,135.3,199
			z M135.4,205.6c-0.2-0.2-0.5-0.4-0.5-0.6C135.1,204.2,136.1,204.9,135.4,205.6z M135.2,224.4c0.7,0.4,0.5,0.4-0.1,1.4
			C134.9,225.1,134.7,224.9,135.2,224.4z M135.2,240.8c0.2,0.2,0.5,0.4,0.5,0.5C135.5,242.3,134.4,241.5,135.2,240.8z M134.1,198.7
			c-0.1-0.2-0.3-0.7,0.1-0.7C135,198.2,134.9,199.5,134.1,198.7z M135.7,257c-0.5,0.5-0.6,0.4-1-0.1
			C135.3,256.5,135.4,256.4,135.7,257z M134,167.8c-0.3-0.4-0.2-0.7,0.3-0.7C134.8,167.4,134.4,167.6,134,167.8z M134.6,220.4
			c-0.2,0.2-0.4,0.3-0.7,0.1C134,220,134.3,220.2,134.6,220.4z M134.6,253.6c0,0.2-0.2,0.5-0.4,0.5
			C131.4,255.1,133.1,251.3,134.6,253.6z M134.5,260.3c-1.4,1.2-4,0.1-2.6-2C133.1,258.5,134,259.1,134.5,260.3z M136.2,61.6
			c-0.3-0.3-0.1-0.7,0.4-0.6C137,61.3,136.5,61.5,136.2,61.6z M136.7,252.6c-0.3,0.2-0.5,0.2-0.7-0.1
			C136.3,252.1,136.5,252.3,136.7,252.6z M136,38c0.3-0.6,0.8-0.5,0.8,0.2C136.6,38.4,136,38.5,136,38z M138.8,108
			c-0.4-0.1-0.8-0.2-1.1-0.3C138.1,107.3,139.7,107.2,138.8,108z M138.8,178.8c-0.6,0.1-0.6-0.4-0.8-0.8
			C137.8,177.5,140,178.2,138.8,178.8z M137.1,86.6c0-0.1,0.3-0.3,0.5-0.5C138.3,86.8,137.2,87.5,137.1,86.6z M137.1,108.6
			c0.5-1.1,0.7-1,0.8,0.2C137.8,109.4,136.8,109.2,137.1,108.6z M137.9,166.4c-0.1,0.6-0.8,0.4-0.8-0.1
			C137.2,165.8,137.8,165.8,137.9,166.4z M137.1,177.1c0.5-0.6,1.2,0.1,0.7,0.7C137.4,177.7,136.9,177.7,137.1,177.1z M137.4,201.1
			c-0.4-0.6-0.4-0.7,0.2-1C138,200.6,138,200.7,137.4,201.1z M137.8,203.7c0,0.6-0.3,0.6-0.7,0.4
			C137.2,203.7,137.5,203.3,137.8,203.7z M137.4,209c0.9,0.2,0.2,1.3-0.6,0.5C137.1,209.2,137.3,209,137.4,209z M137.5,233.3
			c0.8,0.5,0.1,1.1-0.7,0.4C137.2,233.5,137.4,233.3,137.5,233.3z M137.8,245.7c-0.1,0.7-0.3,0.7-1,0.3
			C137.2,245.7,137.5,245.4,137.8,245.7z M137.3,235.6c0.4,0.1,0.7,0.4,0.3,0.7C137.1,236.3,137,235.9,137.3,235.6z M139.5,222.6
			c0.3-0.4,0.8-0.3,1.2-0.1C140.4,222.9,139.3,223.4,139.5,222.6z M139.6,258.4c-0.2-0.4-0.1-0.7,0.4-0.6
			C140.4,258.1,140,258.3,139.6,258.4z M139.9,204.5c0.3,0.5,0.3,0.7-0.3,0.9C139.5,205,139.2,204.7,139.9,204.5z M140.9,252.1
			c0.5,0,0.4,0.4,0.1,0.8C140.4,252.7,140.5,252.5,140.9,252.1z M140.8,222.3c-0.1,0.2-0.1,0.3-0.2,0
			C139.6,220.6,142.5,221.2,140.8,222.3z M140.7,194.2c-0.1,0-0.1-0.3-0.2-0.5C141.2,193.1,141.7,194.4,140.7,194.2z M140.5,186
			c0.8-0.7,1.2,0.6,0.2,0.5C140.6,186.5,140.5,186.2,140.5,186z M141.3,213.8c-0.3,0.6-0.6,0.6-0.8-0.1
			C140.8,213.6,141.2,213.3,141.3,213.8z M141.2,195.9c0,0.5-0.3,0.6-0.7,0.4C140.7,195.9,140.8,195.5,141.2,195.9z M140.7,211.9
			c0,0-0.1-0.3-0.2-0.5C141.2,211,141.6,211.8,140.7,211.9z M140.5,133.2c0.1-0.5,0.7-0.6,0.9-0.1
			C141.3,133.6,140.6,133.8,140.5,133.2z M141,154.7c0.8,0.5-0.2,1.3-0.6,0.3C140.6,154.9,140.8,154.7,141,154.7z M140.6,207.8
			c0.9,0,0.9,1,0,1C139.4,209,138.9,207.7,140.6,207.8z M139.5,198.5c0.2-0.4,0.3-0.7,0.7-0.3C140,198.6,139.7,198.8,139.5,198.5z
			 M144.2,184.6c0.2,0.3,0.6,0.7,0,0.8C143.6,185.3,143.6,184.9,144.2,184.6z M143.8,175.2c0-0.1,0.2-0.3,0.4-0.7
			C144.8,175.2,144.3,175.9,143.8,175.2z M145.2,255.5c0.9,0.4,0.2,1.1-1,0.3C144.8,255.6,145,255.5,145.2,255.5z M144.8,242.4
			c0.2-0.3,0.8-0.5,0.8,0.1C145.4,243.2,144.8,242.9,144.8,242.4z M143.7,240.5c0.1-0.2,0.2-0.5,0.2-0.5
			C144.9,240.1,144.5,241,143.7,240.5z M143.8,228.1c0.3-0.2,0.5-0.2,0.7,0.1C144.2,228.4,143.9,228.6,143.8,228.1z M144.1,192.7
			c-0.9,0.5-1.1,0.8-1.4,0C143,192.2,143.3,192.4,144.1,192.7z M142.2,244.7c0.4-0.2,0.6-0.3,0.8-0.3
			C144,244.9,143.1,245.7,142.2,244.7z M143.2,263c-0.3-0.3-0.8-0.6-0.4-0.9C143.6,262.2,143.5,262.4,143.2,263z M142.1,232.5
			c0.5-0.2,0.7-0.3,0.9-0.3C144,232.6,143.2,233.5,142.1,232.5z M142.1,150.1c-0.5-0.1-0.6-0.4-0.3-0.7
			C142.2,149.5,142.6,149.7,142.1,150.1z M142.2,72.2c0.7-0.6,1.9-0.1,1,0.5C143,72.7,142.8,72.5,142.2,72.2z M142.4,199.2
			c-0.1,0.6-0.5,0.9-0.8,0.2C141.6,198.9,142.1,199.1,142.4,199.2z M142,202.3c0.2,0.3,0.6,0.7,0,0.8
			C141.4,203,141.5,202.6,142,202.3z M142.5,189.5c0.3-0.2,0.6-0.3,0.7-0.3C143.8,189.8,143,190.2,142.5,189.5z M142.5,172.8
			c0.5-0.4,0.9-0.4,0.9,0.2C143.2,173.6,142.8,173.4,142.5,172.8z M143,170.2c0.5,0,0.6,0.6,0.1,0.8
			C142.5,171.1,142.5,170.4,143,170.2z M143.1,154.4c-0.7-0.2-0.5-0.8,0.1-0.8C143.5,153.9,143.6,154.4,143.1,154.4z M142.7,105.5
			c0.2-0.7,0.6-0.7,0.8,0C143.2,105.7,142.8,106,142.7,105.5z M143.2,79.3c-0.9-0.2-0.3-1,0.3-0.9C143.6,78.8,143.7,79.2,143.2,79.3
			z M143.5,31.8c-1-0.3-1.4-1-2.4-1.9C143.4,29.6,143.7,29.6,143.5,31.8z M142.3,46.9c-0.4,0.4-0.6,0.5-0.8-0.2
			C141.9,46.6,142.3,46.4,142.3,46.9z M146.6,167.6c-0.3,0.3-0.5,0-0.6-0.4C146.4,166.9,146.7,167.1,146.6,167.6z M146.3,183.3
			c-0.5-0.4-0.4-0.7,0.2-0.8C146.6,182.8,146.8,183.3,146.3,183.3z M146.5,102.9c0.3,0.4,0,0.5-0.3,0.7
			C145.9,103.2,146,103,146.5,102.9z M146.3,131.2c-0.2-0.5-0.4-0.6,0.3-0.8C146.6,130.8,146.9,131.1,146.3,131.2z M146.1,74.2
			c0.3-0.4,0.7-0.1,0.6,0.4C146.4,75,146.1,74.6,146.1,74.2z M146.3,33.2c0.6,0.1,0.4,0.4,0.3,0.9C145.8,33.8,146.1,33.6,146.3,33.2
			z M146.7,237.1c-0.1,0.6-0.5,0.3-0.9,0C146.2,236.7,146.5,236.5,146.7,237.1z M146.3,257.7c0.5,0.1,0.4,0.4,0.3,0.8
			C145.9,258.3,146,258.1,146.3,257.7z M147.7,265c-1.4,0-1.6-0.1-0.2-0.7C147.8,264.3,148,264.8,147.7,265z M152,203.1
			c-0.9-0.2-0.1-0.9,0.2-1.3C152.3,202.3,152.6,202.8,152,203.1z M152.3,227.2c-0.2,0.5-0.5,0.2-1-0.1
			C151.9,226.6,152.1,226.5,152.3,227.2z M151.9,213.9c-0.8,0.2-1,0.6-1.4,0.2C150.6,213.2,150.8,213.5,151.9,213.9z M151.2,257.1
			c0,0.5-1.1,0.5-0.9,0.1C150.3,256.4,151.2,256.3,151.2,257.1z M150.5,150.3c-0.1-0.7-0.2-1.1-0.2-1.6
			C151.1,147.3,152.1,149.7,150.5,150.3z M151.1,142.3c-0.1,0.1-0.8,0-0.7-0.3C150.7,141.2,151.8,141.7,151.1,142.3z M150.9,99.6
			c0.5,0.6,0,0.9-0.4,1.3C150.5,100.4,150.2,99.9,150.9,99.6z M150.8,94c0.6,0.1,0.5,0.5,0.1,1C150.4,94.6,150.2,94.3,150.8,94z
			 M150.5,100.9c-0.3,0.4-0.7,0.6-1.2,0.3C149.2,100.6,150.2,100.6,150.5,100.9z M149.3,177.2c0.2-0.5,0.8-0.4,0.8,0.1
			C150,177.9,149.3,177.8,149.3,177.2z M149.1,247.1c0.2-0.2,0.4-0.5,0.6-0.5C150.5,246.9,149.8,247.9,149.1,247.1z M149.6,133.6
			c-0.5-0.2-0.4-0.9,0.2-0.9C150.4,132.9,150.2,133.6,149.6,133.6z M149.3,106.4c0.2-0.5,0.7-0.3,0.8,0.1
			C149.9,107.1,149.3,107,149.3,106.4z M149.1,56.7c0.8-0.8,1.5,0.3,0.6,0.4C149.5,57.1,149.4,57,149.1,56.7z M149.7,36.3
			c0.5,0.6,0.5,0.7-0.1,1C149.1,37.1,149.4,36.8,149.7,36.3z M149.7,25.1c-0.7-0.1-0.4-0.8-0.1-1.2
			C149.8,24.2,150.4,25.1,149.7,25.1z M149.3,23.9c-1.2,0.1-1.2,0-0.8-1.1C148.7,23.1,149.8,23.8,149.3,23.9z M148.4,207.9
			c0.5,0.2,0.6,0.4,0.3,0.7C148.4,208.4,148.1,208.3,148.4,207.9z M148.2,161.7c0.2-1.1,0.9-0.3,0.6,0.4
			C148.6,162.3,148.1,162,148.2,161.7z M148.6,141.5c-0.3-0.5-0.5-0.7-0.1-1.1C149.1,140.7,149.1,140.9,148.6,141.5z M148.5,75.2
			c0.3,0.3,0.5,0.6-0.1,0.7C148.2,75.7,148.2,75.4,148.5,75.2z M148.6,26.6c0.2,0.3,0.4,0.7-0.1,0.6
			C148.2,27.1,148.3,26.8,148.6,26.6z M148.8,78.6c0.4,0.4-0.1,0.5-0.4,0.6C148.2,78.9,148.2,78.6,148.8,78.6z M148.9,123.4
			c-0.4,0.2-0.5,0.1-0.6-0.3C148.6,122.7,148.7,123,148.9,123.4z M148.7,136c0.2,0.3,0.4,0.8-0.1,0.8
			C148,136.5,148.1,136.1,148.7,136z M148.5,161c-0.5,0.1-1.4,0.5-1.4-0.3C147.5,159.9,148.1,160.7,148.5,161z M147.6,58.7
			c0.7,0.6-0.1,1.1-0.7,0.3C147.2,58.8,147.4,58.6,147.6,58.7z M147.1,39c0.2-0.5,0.8-0.3,0.8,0.2C147.7,39.7,147,39.6,147.1,39z
			 M147.6,211.1c-0.8-0.3-0.6-0.5-0.1-1.1C148,210.3,148,210.5,147.6,211.1z M147,198.2c0.4-0.3,0.9-0.4,0.9,0.2
			C147.6,199,147.1,198.8,147,198.2z M148.7,274.9c-0.6-0.1-0.6-0.4-0.3-0.7C148.7,274.4,149.2,274.6,148.7,274.9z M148.7,270.6
			c-0.3-0.2-0.7-0.4-0.3-0.7C149,270,149,270.2,148.7,270.6z M148.4,260.6c-0.8-1.8-0.3-3.4,1.8-3.2
			C151,259.2,149.9,259.7,148.4,260.6z M150.5,259.7c0-1,0.5,0.3,0.8,0.7C150.3,260.7,150.3,260.3,150.5,259.7z M150.9,278.4
			c-0.9-0.4-0.2-1.1,1-0.4C151.3,278.2,151.1,278.4,150.9,278.4z M153.2,258.4c-0.2-0.1-0.4-0.1-1.2-0.4
			C152.9,257.6,153.6,257.4,153.2,258.4z M152.2,201.8c0.2-0.4,1.1-0.8,1.2-0.2C153,202.1,152.6,202.1,152.2,201.8z M153.2,81.5
			c-0.2-0.1-0.4-0.2-1.2-0.4C152.9,80.6,153.6,80.5,153.2,81.5z M152.9,77.5c0.5,0,0.6,0.6,0.1,0.8
			C152.5,78.3,152.3,77.6,152.9,77.5z M153.4,96.5c-0.1,0.6-0.5,0.5-1,0.1C152.8,96.2,153.1,96,153.4,96.5z M153.1,190.1
			c0.4,0.5,0.4,0.9-0.2,1C152.4,190.7,152.6,190.4,153.1,190.1z M152.5,167.2c1-0.3,1.8-1,2,0.3
			C153.2,167.9,153.2,167.9,152.5,167.2z M156.2,164.8c0.8-0.2,0.5,0.9,0.1,1.3C156,165.7,155.8,165.2,156.2,164.8z M156.2,125
			c0.3,0.2,0.7,0.4,0.3,0.7C156,125.7,155.9,125.4,156.2,125z M156,100.9c0.3-0.3,0.7-0.2,0.7,0.3
			C156.4,101.7,156.2,101.2,156,100.9z M156.3,166.1c-0.6,0.6-1.3,1-2.1,0.5C154.8,166,155.4,165.6,156.3,166.1z M154.2,245.3
			c-1-0.3,0.1-1,0-1.5C154.2,244.3,154.9,244.8,154.2,245.3z M153.8,263.8c0-0.2,0.1-0.7,0.4-0.6
			C154.8,263.8,154.1,264.9,153.8,263.8z M154.1,196.8c0.3,0.3,0.5,0.7,0.1,0.9C153.6,197.5,153.5,197.1,154.1,196.8z M154.4,270.4
			c-0.3,0.4-0.6,0-0.8-0.3C154.2,269.7,154.3,269.9,154.4,270.4z M154.3,277.3c-0.7-0.1-0.7-0.5-0.2-0.9
			C154.4,276.7,154.7,277.1,154.3,277.3z M155.6,264.9c-0.7,0.6-0.8-0.4-1.4-0.5C154.7,264.4,155.8,263.9,155.6,264.9z M154.2,243.7
			c0.4-0.4,1.4-1,1.4-0.1C155.3,244.3,154.8,244,154.2,243.7z M156.7,219.3c-0.1,0.5-0.5,0.3-0.8,0.1
			C156.2,218.7,156.3,218.9,156.7,219.3z M158.1,269c0-0.3,0-0.4,0.6-1.3C159.6,268.8,158.8,271,158.1,269z M158.6,184.7
			c0.3,0.2,0.5,0.8-0.1,0.8C157.9,185.3,158.1,184.7,158.6,184.7z M158.5,241c0.5,0,0.3,0.5,0.2,0.8
			C158.1,241.7,157.9,241.4,158.5,241z M159,270c1.5-0.4,1.1-3.5,3.1-2.2C164.7,271.3,161.9,273.9,159,270z M162,183.2
			c0.4-0.4,0.9-1.1,1.3-0.5C163.4,183.6,162.6,183.3,162,183.2z M162.2,183.8c0,0.2-0.2,0.4-0.4,0.5
			C160.8,184.3,162.1,182.5,162.2,183.8z M163.1,170c-0.2,0-0.4-0.1-1.1-0.4C162.8,168.9,163.9,169.3,163.1,170z M161.7,173.4
			c-0.6-0.2-0.4-1,0.2-0.9C162.4,172.7,162.2,173.4,161.7,173.4z M163.5,251.3c0,0.2-0.2,0.4-0.3,0.6
			C162,251.7,163.1,250.3,163.5,251.3z M162.9,239.9c0.5,0,0.6,0.6,0.2,0.8C162.5,240.8,162.3,240.1,162.9,239.9z M162.6,218.1
			c0.3-0.5,0.7-0.3,0.9,0.2C163.1,218.7,162.6,218.7,162.6,218.1z M162.9,279.5c-0.4-0.2-0.3-0.9,0.2-0.8
			C164.2,279.2,164.1,279.5,162.9,279.5z M163.8,262.8c0.2-1.3,1.5-1.7,1.8-2.7C166.3,262.4,167.1,263.6,163.8,262.8z M165.3,90.6
			c0.4-1.3,0.8,0.7,0,0.8C164.7,91.3,164.9,90.8,165.3,90.6z M165.2,87.1c0.5,0.6,0.6,0.7-0.1,1C164.6,87.9,164.9,87.6,165.2,87.1z
			 M166,179.3c0.2,0,0.4,0.1,0.5,0.2C166.7,180.2,164.9,179.4,166,179.3z M164.8,247.2c0-0.3,0.4-0.8,0.7-0.5
			C165.9,247.4,164.9,248.2,164.8,247.2z M165,247.8c-0.2,0.3-1.2,0.8-1.2,0.2C164.2,247.7,164.6,247.6,165,247.8z M164.8,220.6
			c0.1-0.2,0.2-0.5,0.2-0.5C165.9,220.2,165.6,221,164.8,220.6z M165.3,187.6c-0.7-0.2-0.4-0.5,0-1.3
			C165.6,186.9,165.9,187.3,165.3,187.6z M165.6,180.9c-0.1,0.3-0.7,0.3-0.7,0C164.9,179.3,165.8,179.3,165.6,180.9z M165.1,147.9
			c-0.3-0.4-0.3-0.7,0.3-0.7C165.8,147.4,165.4,147.7,165.1,147.9z M165,179.6c-0.4,0.3-1.4,0.6-1.1-0.2
			C164.3,179.1,164.7,179.4,165,179.6z M164,164.3c-0.1,0-0.1-0.2-0.2-0.4C164.2,163.3,164.7,164.4,164,164.3z M166,260
			c0.2,0,0.4,0.1,0.5,0.2C166.7,260.9,164.9,260.1,166,260z M166.3,245.3c-0.5,0-0.3-0.5-0.2-0.8
			C166.8,244.6,166.9,244.9,166.3,245.3z M165.9,192.8c0-0.6,0.5-0.3,0.8-0.2C166.6,193.3,166.3,193.5,165.9,192.8z M165.9,153.9
			c0.4-0.4,0.6-0.2,0.8,0.3C166.3,154.6,166.2,154.3,165.9,153.9z M166.1,140.5c0.7,0.1,0.6,0.3,0.3,0.9
			C166.1,141.1,165.8,140.8,166.1,140.5z M166.1,135c0.4,0.1,0.8,0.3,0.4,0.7C166,135.7,165.9,135.4,166.1,135z M166.8,110.6
			c0.4-0.2,0.7-0.3,1,0.2C167.8,111.8,166.7,111.4,166.8,110.6z M167.8,125.2c-0.1,0.6-0.5,0.8-0.8,0.2
			C167,124.9,167.5,125.1,167.8,125.2z M167.5,143.8c1.5,0,0.3,0.8-0.1,0.8C166.8,144.4,167,143.8,167.5,143.8z M168.6,161.1
			c-0.7-0.2-0.6-0.4-0.2-1C168.8,160.6,169.1,160.9,168.6,161.1z M168.5,166.2c-0.2-0.7-0.6-1-0.2-1.4
			C169.2,165,168.8,165.1,168.5,166.2z M168.6,116.1c0.2,0.3,0.4,0.7-0.1,0.8C167.9,116.7,168,116.3,168.6,116.1z M168.1,103.1
			c0.4-0.3,0.7-0.2,0.7,0.3C168.5,103.8,168.3,103.4,168.1,103.1z M167.4,233.1c-0.7-0.1,0-1.1,0.5-1
			C168,232.5,168,233.1,167.4,233.1z M168.7,265c-0.5,0.1-0.7-0.3-0.4-0.6C168.7,264.4,169.1,264.6,168.7,265z M173.2,204.6
			c0.4,0.4,0.1,1-0.4,0.8C172.3,205,172.6,204.4,173.2,204.6z M173.5,188.4c-0.1,0.2-0.3,0.4-0.7,0.9
			C172.3,188.5,172.7,187.6,173.5,188.4z M173.5,245.6c-0.6-0.1-1.3-0.8-0.6-1.2C173.3,244.7,173.7,245,173.5,245.6z M174.3,246.3
			c-0.4,0-0.7-0.2-0.7-0.6C174,245.3,174.7,245.8,174.3,246.3z M174,202c-0.7-0.4,0.1-0.9,0.6-1C174.6,201.4,174.7,202,174,202z
			 M174.8,201c-0.4-0.1,0-1.1,0.5-0.9C175.9,200.5,175.5,201.3,174.8,201z M174.8,148.6c0.4-0.8,1.2,0.1,0.3,0.7
			C174.9,148.9,174.7,148.7,174.8,148.6z M176,142.7c0.7,0,0.6,0.3,0.4,0.9C176.1,143.3,175.6,143,176,142.7z M175.9,132
			c0.3-0.2,0.7-0.5,0.7,0.1C176.4,132.3,176.1,132.2,175.9,132z M176.4,129.2c-0.4-0.3-0.8-0.6-0.3-0.9
			C176.7,128.4,176.7,128.6,176.4,129.2z M176.4,222.3c0.1,0.3,0.4,0.8-0.2,0.8C175.6,222.8,175.8,222.4,176.4,222.3z M176.6,225.8
			c0.1,0.6-0.3,0.7-0.7,0.4C176,225.8,176.2,225.3,176.6,225.8z M176.5,240c0.4,0.4,0,0.6-0.4,0.6C175.8,240.4,175.9,240,176.5,240z
			 M177.5,260.6c-0.5,0-0.7-0.4-0.3-0.7C177.5,260,177.9,260.3,177.5,260.6z M179.7,262.9c-0.2,0-0.4-0.2-0.6-0.3
			C179.2,261.7,180.6,262.5,179.7,262.9z M179.7,256.3c-4.6,0.7-4.8-3.5-1.2-5.5C183,250.4,183,254.4,179.7,256.3z M178.8,219.4
			c-0.3,0.4-0.6,0-0.7-0.3C178.4,218.8,178.8,218.9,178.8,219.4z M178.6,216.7c0.3,0.4,0.1,0.5-0.2,1C178,217,178,216.9,178.6,216.7
			z M178.4,181.3c-0.5-0.7-0.5-0.8,0.2-1.1C179,180.7,178.8,180.8,178.4,181.3z M178.6,189.9c-0.3-0.2-0.7-0.5-0.3-0.7
			C178.9,189.3,178.9,189.6,178.6,189.9z M178.7,156.2c0.5-0.3,1.4-0.6,1.4,0.2C179.6,157.2,179.4,156.9,178.7,156.2z M180.1,166.2
			c-0.3,0.4-0.7,0.8-1,0.1C179.2,165.7,179.7,165.8,180.1,166.2z M178.7,159.9c-0.3,0.3-0.5,0-0.6-0.4
			C178.5,159.2,178.8,159.4,178.7,159.9z M178.7,243.9c-0.6,0-0.7-0.3-0.4-0.7C178.6,243.3,179,243.6,178.7,243.9z M180.3,243.7
			c0.2-0.7,0.4-0.5,0.8-0.1C181,244.1,180.6,243.9,180.3,243.7z M181.9,265.2c-0.4-0.3-0.7-0.6-0.3-0.9
			C182.3,264.4,182.2,264.6,181.9,265.2z M182.6,258.3c-0.3-0.6-0.4-1.2,0.1-1.8C183.7,257.4,183.6,257.9,182.6,258.3z M183.3,238.5
			c-1.7-0.1-2.2,1.5-3.9,1.2C176.8,235.6,185,233.1,183.3,238.5z M180.3,227.2c0.2-0.4,0.4-0.8,0.7-0.3
			C181,227.4,180.7,227.5,180.3,227.2z M181.8,210.1c0.8,0.6-0.2,1.1-1,0.6C181.5,210.3,181.7,210,181.8,210.1z M181.4,188.5
			c0-0.6,0.6-0.7,0.9-0.2C182.3,188.9,181.6,189.2,181.4,188.5z M181.7,221.1c0.6,0.4,0.6,0.5,0.1,1.1
			C181.3,221.7,181.2,221.5,181.7,221.1z M183.4,209.3c0.6-0.4,0.7-0.5,1,0.1C184,209.9,183.8,209.8,183.4,209.3z M183.9,184.3
			c-0.5-0.2-0.2-0.5,0.1-1C184.4,183.9,184.5,184.1,183.9,184.3z M183.6,196c0.1-0.1,0.3-0.2,0.4-0.2
			C184.8,196,183.6,196.8,183.6,196z M183.9,151.3c0.2,0.3,0.4,0.5,0.4,0.6C183.8,152.6,183.3,152,183.9,151.3z M183.9,147.2
			c0.4,0.1,0.5,0.3,0.2,0.6C183.7,147.6,183.4,147.5,183.9,147.2z M184.2,166.4c1-0.9,1.9-0.1,0.9,0.3
			C184.8,166.7,184.6,166.6,184.2,166.4z M185.2,161.1c-0.2,0-0.4-0.2-1-0.5C184.9,160,186,160.5,185.2,161.1z M183.9,144.6
			c-0.9-0.7,0.3-1.1,1.2-0.6C184.3,144.4,184.1,144.6,183.9,144.6z M185.1,232.5c-1.1,0.5-1.2,0.9-1.5,0.1
			C183.9,232,184.3,232.3,185.1,232.5z M183.9,255.4c-0.4-0.5-0.5-0.9,0.1-1C184.6,254.6,184.4,255,183.9,255.4z M185.2,242.1
			c0.3,0.5,0.3,0.8-0.4,0.7C184.5,242.5,184.8,242.2,185.2,242.1z M185,266.3c-0.4-0.6-0.4-0.7,0.2-1
			C185.6,265.8,185.6,265.9,185,266.3z M186.3,205.4c-0.7-0.2-0.7-0.6-0.1-0.9C186.5,204.8,186.8,205.3,186.3,205.4z M186.3,158.2
			c0.5,0.1,0.2,0.5,0,0.8C185.7,158.7,185.6,158.4,186.3,158.2z M186.2,142.4c0.2,0.3,0.3,0.5,0.4,0.7
			C186.3,143.8,185.4,143.1,186.2,142.4z M186,121.7c0.4,0.1,0.7,0.3,0.4,0.7C185.9,122.4,185.7,122.1,186,121.7z M187.2,208.8
			c-0.4-0.5-0.4-0.9,0.2-0.9C188,208.2,187.8,208.5,187.2,208.8z M187.8,132c-0.3,0.2-0.7,0.5-0.9,0.1
			C187.1,131.4,187.5,131.4,187.8,132z M187.1,118.3c-1,1.1-2.8,1.2-2.2,0C185.5,118.3,186,118.3,187.1,118.3z M185,65.7
			c0.4,0.9,0.8,1.1,0,1.4C184.5,66.7,184.7,66.4,185,65.7z M183.9,141.3c-0.8-0.5,0.2-1.3,0.6-0.3
			C184.3,141.1,184.1,141.3,183.9,141.3z M183.4,122.1c0.3-0.5,0.7-0.7,1-0.2C184.3,122.5,183.9,122.5,183.4,122.1z M183.9,106.1
			c0.5,0,0.6,0.6,0.1,0.8C183.5,106.9,183.4,106.2,183.9,106.1z M182.8,83.1c0.4,0.1,0.3,0.3,0,0.5
			C182.5,83.5,182.5,83.2,182.8,83.1z M184.2,96.2c0.7,1.2-1.1,0.7-2.1,0.7C183,95.9,183.6,95.9,184.2,96.2z M181.8,107.3
			c0.5,0,0.4,0.4,0.1,0.8C181.3,107.9,181.4,107.7,181.8,107.3z M181.9,129.4c0.7,0.6-0.1,1.1-0.7,0.3
			C181.5,129.5,181.8,129.3,181.9,129.4z M181.8,157c-0.6-0.5-0.6-0.7-0.1-1.1C182.4,156.2,182.3,156.4,181.8,157z M180.9,85.2
			c0.4,0.3,0,0.5-0.3,0.7C180.3,85.6,180.3,85.2,180.9,85.2z M180.8,90.4c-0.6-0.2-0.4-0.4-0.2-0.9C181.2,89.7,181,90,180.8,90.4z
			 M180.4,177.2c0.4-0.5,1.3-0.6,1.7-0.2C182.7,178.2,179.9,177.9,180.4,177.2z M180.7,212.3c0.3,0.2,0.6,0.6,0.2,0.9
			C180.1,213.1,180.2,212.7,180.7,212.3z M179.6,94c0.8,0,0.4,1-0.2,0.9C178.9,94.6,179,94,179.6,94z M179.6,152.5
			c0.7,0.1,0.9,1.7,0.1,1.9C178.9,154.8,178.6,152.6,179.6,152.5z M178.6,66.2c0.2,0.4,0.4,0.8-0.1,0.8
			C178.1,66.7,177.9,66.5,178.6,66.2z M178.5,68.7c0.3,0.2,0.5,0.6,0,0.7C178,69.1,178,68.7,178.5,68.7z M178.7,80.9
			c0,0.5-0.2,0.6-0.6,0.4C178.2,81,178.4,80.5,178.7,80.9z M178.6,126.1c0.2,0.3,0.4,0.7-0.1,0.8
			C177.9,126.6,177.9,126.3,178.6,126.1z M178.8,149.8c-0.4,0.3-0.6,0.4-0.8-0.2C178.4,149.4,178.8,149.3,178.8,149.8z M178.4,204.4
			c0.4,0.2,0.5,0.7,0.2,1C178,205.1,177.3,203.7,178.4,204.4z M177.5,203.5c0.1,0.3,0.3,0.8-0.2,0.7
			C176.8,203.9,176.9,203.7,177.5,203.5z M177.7,211.5c-0.1,0.5-0.4,0.6-0.8,0.3C177.1,211.4,177.4,211.1,177.7,211.5z M176,120.1
			c-0.3-0.3-0.1-0.7,0.4-0.6C176.8,119.9,176.4,120.1,176,120.1z M175.9,101.3c0-0.4,0.3-0.7,0.6-0.4
			C176.6,101.4,176.2,101.6,175.9,101.3z M176.1,80.8c0.9,0.1,0.5,0.9-0.2,0.5C175.9,81.1,176,80.8,176.1,80.8z M175.5,96.1
			c0.6,0.1,1.5,0.3,0.9,0.9C175.2,97.4,173.9,96.4,175.5,96.1z M174.4,98.9c-0.3,0.4-0.6,0.1-0.9-0.3
			C174.1,98.3,174.3,98.3,174.4,98.9z M173.4,131.9c0.3-0.2,1.1-0.1,1,0.3C174,132.2,173.6,132.3,173.4,131.9z M173.5,133
			c-0.2,0.7-0.9,0.6-0.8-0.2C173.2,131.8,173.5,131.8,173.5,133z M174.2,119.3c-0.4-0.3-0.7-0.6-0.3-0.9
			C174.6,118.4,174.5,118.6,174.2,119.3z M173,95.9c-0.9-0.4-0.2-1.1,1-0.3C173.5,95.7,173.3,95.9,173,95.9z M172.9,76.2
			c0.7,0.3,0.6,0.5,0.2,1.1C172.5,76.9,172.5,76.7,172.9,76.2z M174.8,168.4c-1.2,0.9-2.2,0.6-3.2,0.5
			C170.8,167.5,173.7,167.7,174.8,168.4z M171.3,210.3c0.3-0.5,0.9-0.4,0.9,0.2C172.1,211.2,171.1,211,171.3,210.3z M172.2,255.9
			c-0.1,1-0.8,0.4-0.8-0.1C171.6,255.3,172.2,255.4,172.2,255.9z M172.2,220.3c0,0.7-0.4,0.7-0.8,0.2
			C171.6,220.2,171.9,219.8,172.2,220.3z M172.3,195c-0.1,0.5-0.8,0.6-0.9,0.1C171.2,194.4,172.2,194.3,172.3,195z M171.5,93
			c0.6,0,1,0.3,0.4,0.7C171.5,93.8,171.2,93.2,171.5,93z M172.3,106.5c0,0.2-0.2,0.4-0.3,0.6C170.8,106.8,171.9,105.5,172.3,106.5z
			 M171.6,111.7c0.6-0.2,1,0.8,0.2,0.9C171.3,112.5,171.1,112,171.6,111.7z M171.9,215.6c0.8,0.5-0.3,1.2-0.7,0.3
			C171.5,215.8,171.7,215.6,171.9,215.6z M171.7,251.8c-0.2,0-0.3-0.3-0.5-0.5C171.9,250.4,172.7,251.8,171.7,251.8z M172.5,261.3
			c-1.9,4.1-6.9-1.1-2.9,0.5C171,260.6,171,260.6,172.5,261.3z M168.6,248.6c0.3,0.6,0.4,0.9-0.3,0.9
			C167.9,249.2,168.3,249,168.6,248.6z M168.1,237.1c0-0.6,0.4-0.3,0.8-0.2C168.7,237.5,168.4,238.5,168.1,237.1z M170.3,233.9
			c0.2-0.3,0.4-0.8,0.7-0.3C171,234.1,170.6,234.2,170.3,233.9z M170.6,239.6c-0.5-0.4-0.4-0.7,0.2-0.8
			C171,239.2,171.1,239.7,170.6,239.6z M170.5,64.2c0.9,0.1,0.5,0.3,0.2,1.4C170.4,64.8,170.1,64.6,170.5,64.2z M170.6,108.4
			c0.6,0,0.3,0.5,0.2,0.9C170.2,109.1,170.1,108.7,170.6,108.4z M170.8,224.5c0.1,0.3,0.4,0.8-0.1,0.8
			C170,225,170.2,224.6,170.8,224.5z M169.5,257.5c-0.8-0.7,0.3-1.4,0.5-0.5C170,257.2,169.7,257.3,169.5,257.5z M169.5,124.8
			c-0.5-0.5-0.4-0.7,0.2-1.1C170.1,124.3,170.1,124.5,169.5,124.8z M169.6,111.7c0.8,0.5-0.1,1.3-0.7,0.4
			C169.3,111.9,169.5,111.7,169.6,111.7z M167.9,232c0.1-0.5,0.2-1.1,0.8-0.8C169.3,231.7,168.4,232.2,167.9,232z M168.3,69.8
			c0.7,0,0.6,0.3,0.4,0.9C168.3,70.4,167.9,70.1,168.3,69.8z M168.2,79.7c0.3-0.2,0.7,0,0.7,0.3C168.5,80.9,167.2,80.3,168.2,79.7z
			 M167.7,80.3c0.3,0.7,0.4,1.4,0,2.3C166.4,82.3,166.7,80.8,167.7,80.3z M166.8,110.2c0.1,0.9-1.5-0.4-0.5-0.6
			C166.7,109.5,166.8,109.8,166.8,110.2z M166.4,67.5c0.7,0.6-0.1,1.1-0.6,0.3C166.1,67.7,166.3,67.5,166.4,67.5z M165.8,89.8
			c0.4-0.6,1.1-0.2,0.8,0.5C166.3,90.7,165.3,90,165.8,89.8z M164.8,83.4c0.2-0.6,0.4-0.4,0.8-0.1C165.4,83.8,165.2,83.6,164.8,83.4
			z M165.2,64.1c0.8,0.4,0.5,0.4-0.1,1.4C164.8,64.7,164.7,64.6,165.2,64.1z M165.3,80.7c0.7,0.6-0.1,1.1-0.7,0.3
			C165,80.9,165.2,80.7,165.3,80.7z M165.3,105.1c0.7,0.6-0.1,1.1-0.7,0.3C165,105.2,165.2,105,165.3,105.1z M165.2,120.5
			c0.9,0.4,0.2,1.3-0.9,0.3C164.8,120.6,165,120.5,165.2,120.5z M164.2,150.4c0.7,0.3-0.1,1.1-0.6,0.4
			C163.8,150.6,164,150.5,164.2,150.4z M163.6,198.3c-0.5,0.5-0.7,0.6-1.1,0C162.9,197.8,163.1,197.9,163.6,198.3z M163.1,193.4
			c-0.6-0.2-0.8-1,0-1C163.6,192.6,163.5,193,163.1,193.4z M163.4,146.4c-0.5,0.8-1.1-0.1-1.3-0.6
			C162.7,145.8,163.4,145.6,163.4,146.4z M162.1,145.7c-0.6,0.1-1-0.9-0.2-0.9C162.4,145,162.2,145.4,162.1,145.7z M161.2,133
			c0.5-0.4,1-0.4,1,0.2C161.9,133.8,161.5,133.5,161.2,133z M161.8,89.5c0.7,0.4,0.5,0.4,0,1.3C161.4,90.1,161.2,90,161.8,89.5z
			 M161.9,96.2c0.8,0.5-0.1,1.2-0.7,0.4C161.5,96.4,161.7,96.1,161.9,96.2z M161.9,152.6c0.8,0.5-0.1,1.3-0.7,0.4
			C161.5,152.7,161.7,152.5,161.9,152.6z M161.1,206.3c-0.3,0.5-0.6,0-0.8-0.3C160.7,205.7,161.1,205.7,161.1,206.3z M160.8,141.3
			c-0.6-0.2-0.7-0.6,0-0.8C161.3,140.6,161,141,160.8,141.3z M160.9,68.7c0.4,0.3,0,0.6-0.3,0.7C160.2,69,160.3,68.7,160.9,68.7z
			 M160.7,111.7c0.5,0,0.3,0.5,0.2,0.8C160.3,112.4,160.1,112.1,160.7,111.7z M160.5,242.2c0.2,0,0.7,0,0.6,0.3
			C160.6,243.3,159.4,242.7,160.5,242.2z M159.3,243.4c0.5-0.8,0.8-0.7,0.8,0.2C159.8,244.1,159.2,243.9,159.3,243.4z M159.8,90.8
			c0.2,0.4,0.2,0.5-0.2,0.6C159.1,91.1,159.4,91,159.8,90.8z M159.7,159.3c0.5,0.1,0.3,0.6,0,0.8C159.1,160,159,159.4,159.7,159.3z
			 M160,221.6c-0.3,0.6-0.6,0.4-0.9-0.2C159.6,221.1,159.9,221,160,221.6z M159.6,226.6c0.9,0.2,0.2,1.3-0.5,0.5
			C159.3,226.9,159.4,226.6,159.6,226.6z M158.2,204c0.1-0.5,0.4-0.3,0.7-0.1C158.7,204.1,158.5,204.2,158.2,204z M158,162.8
			c0.6-0.4,0.8-0.4,1,0.3C158.6,163.5,158.4,163.2,158,162.8z M158.5,115.9c0.5,0.6,0.5,0.7-0.1,1.1
			C158,116.6,158.3,116.5,158.5,115.9z M158.7,130.4c0.2,0.3,0.4,0.8-0.1,0.8C157.9,130.9,158.1,130.5,158.7,130.4z M158.9,148.9
			c-0.5,0.4-1.9,0.5-1.8-0.4C157.4,147.7,159.3,147.9,158.9,148.9z M157.1,172c0.2-0.4,0.3-0.7,0.8-0.3
			C157.7,172.1,157.5,172.3,157.1,172z M157.5,213.2c-0.6-0.1-0.5-0.6-0.1-1C157.8,212.6,158.2,213,157.5,213.2z M157.4,158
			c0.6,0.4,0.7,0.7,0.2,1C157,158.9,157,158.5,157.4,158z M157.9,111c-0.7,1.1-1.4-0.6-0.8-1.2C157.9,109.1,158,110.4,157.9,111z
			 M157,83.4c0.2-0.6,0.4-0.4,0.8-0.1C157.7,83.8,157.4,83.6,157,83.4z M157.5,71.9c0.8,0.5-0.2,1.3-0.7,0.3
			C157.2,72,157.4,71.8,157.5,71.9z M157.9,251.5c-0.5,0.6-2,0.5-1.7-0.4C156.7,250.5,157.3,250.7,157.9,251.5z M156.5,62
			c0.4,0.3,0.1,0.6-0.2,1C155.9,62.3,155.9,62.1,156.5,62z M156.2,79.7c0.8-0.1,0.6,0.9-0.1,0.9C155.9,80.3,155.8,79.8,156.2,79.7z
			 M155.5,80.6c1.1-0.4,0.1,1.3-0.5,0.7C154.6,81.1,155.3,80.8,155.5,80.6z M155.3,86.2c0.8,0,0.4,1-0.2,0.9
			C154.5,86.8,154.7,86.2,155.3,86.2z M154.1,59.7c0.3,0.2,0.6,0.7,0.2,0.9C153.6,60.4,153.5,60.1,154.1,59.7z M154.2,101.8
			c0.5,0.1,0.2,0.5,0,0.8C153.6,102.4,153.5,102,154.2,101.8z M152.7,49.8c0.5-1,1.1,0.2,0.4,0.7C152.6,50.7,152.6,50.1,152.7,49.8z
			 M153.1,74c0.8,0.5-0.1,1.3-0.6,0.4C152.7,74.2,152.9,74,153.1,74z M152.1,68.6c0.1,0.4,0.2,0.8-0.3,0.8
			C151.6,68.9,151.5,68.7,152.1,68.6z M151.9,116.2c0.5,0,0.3,0.5,0.2,0.8C151.5,116.8,151.3,116.5,151.9,116.2z M152.1,140.5
			c0.5,0.4-0.3,0.7-0.5,1C151.6,141.2,151.4,140.3,152.1,140.5z M150.9,74c0.2,0,0.3,0.3,0.5,0.5C150.7,75.3,150,74.2,150.9,74z
			 M150.9,86.2c0.5,0.3,0.4,0.6-0.1,1C150.4,86.8,150.3,86.4,150.9,86.2z M150.8,88.4c1,0.4,0.1,1.3-0.9,0.3
			C150.4,88.6,150.6,88.4,150.8,88.4z M149.8,15.4c0.7,0.7,0.2,2,0.3,2.9C148.2,17.9,147,15,149.8,15.4z M148.8,4.5
			c0.4,0.3,0,0.5-0.3,0.7C148.2,4.9,148.2,4.5,148.8,4.5z M147,7c0.5-0.8,2.4-0.5,2.1,0.6C149.2,9.4,146.3,8.7,147,7z M147,20.9
			c1.4,0.1,2.1,2.5,0.1,2.1C145.5,23.3,145.3,20.8,147,20.9z M146.5,200.1c0.5,0.7-0.1,1.1-0.7,0.4
			C146.1,200.3,146.3,200.2,146.5,200.1z M144.8,208.3c0.3-0.6,0.7-0.5,0.8,0.2C145.3,208.6,144.9,208.8,144.8,208.3z M145.3,29.9
			c0.5,0.2,0.4,0.6-0.1,1C144.8,30.4,144.7,30,145.3,29.9z M145.3,51.9c0.5,0.2,0.3,0.9-0.2,0.9C144.6,52.6,144.7,51.9,145.3,51.9z
			 M145.3,210.1c0.8,0.5-0.1,1.3-0.6,0.4C144.9,210.3,145.1,210,145.3,210.1z M144.4,146.8c-1.8,0.3-2.1-0.6-0.9-1.5
			C143.6,142.8,145.2,144.3,144.4,146.8z M143.6,108.7c0.6-0.4,0.8-0.4,0.9,0.2C144.3,109.4,144,109,143.6,108.7z M144,78.4
			c-0.8,0.1-0.2-0.7,0.2-0.9C144.8,77.6,144.6,78.4,144,78.4z M143.7,24.1c0.4,0.2,1,0.3,0.8,0.9C143.9,25.4,143.5,24.6,143.7,24.1z
			 M143,17.6c0.9,0.2,0.2,1.3-0.5,0.5C142.7,17.9,142.9,17.6,143,17.6z M140.8,19.9c0.8,0,2.3-0.5,2.7,0.4
			C143.2,21.3,139.4,21.2,140.8,19.9z M143.5,22.2c0.7,3.6-1.7,0.4-3.7,0.8C138.7,21.5,142.6,22.2,143.5,22.2z M140,37.2
			c-0.2,0.3-0.6,0.1-0.6-0.2C139.8,36.5,140.1,36.6,140,37.2z M139.8,64.1c0.5,0,0.3,0.5,0.2,0.8C139.3,64.8,139.2,64.4,139.8,64.1z
			 M139.9,95.9c-0.3-0.2-0.6-0.3-0.3-0.7C140.1,95.3,140.2,95.5,139.9,95.9z M139.5,118.1c0.8,0.7,1.3,1.2,1.9,1.8
			C140,121.1,138.9,119.9,139.5,118.1z M139.9,127.9c-0.3-0.2-0.6-0.3-0.3-0.7C140.1,127.3,140.2,127.5,139.9,127.9z M139.9,166
			c0.6,0.7-0.2,1.1-0.7,0.2C139.6,166.1,139.8,165.9,139.9,166z M138.1,212.9c0.2-0.7,1.1-0.9,1.1-0.1
			C139,213.4,138.6,213.3,138.1,212.9z M138.5,27.6c0.7-0.2,0.8,0.9,0.1,1C138.1,28.5,138,27.9,138.5,27.6z M138.6,29.8
			c0.7,0,0.7,1,0,0.9C138,30.6,138,29.9,138.6,29.8z M137.4,84.9c-0.6-0.2-0.4-1,0.2-0.9C138,84.2,137.9,84.9,137.4,84.9z
			 M137.5,22.2c0.5,0,0.3,0.6,0,0.8C136.9,22.9,136.9,22.3,137.5,22.2z M136.5,15.3c0.3,0.6,0.4,0.9-0.3,1
			C135.8,15.9,136.2,15.6,136.5,15.3z M136.6,19.9c0.1,0.3,0.3,0.8-0.2,0.8C135.8,20.4,135.9,20.1,136.6,19.9z M137.1,34.7
			c2.3,2.6-3.6,3-1.2-1.8C135.3,28.8,139,33.7,137.1,34.7z M135.2,71.8c0.7,0.4,0.5,0.4-0.1,1.4C134.9,72.5,134.7,72.3,135.2,71.8z
			 M135.5,68.6c0.5,0.3,0.1,0.6-0.2,1C134.9,69,134.8,68.8,135.5,68.6z M135.2,58.3c-0.5-0.2-0.4-0.8,0.1-0.8
			C135.9,57.6,135.8,58.3,135.2,58.3z M135.1,10.4c0.2,0.5,1.1,1.1,0.5,1.5C134.5,12,135.1,11,135.1,10.4z M135.2,54.2
			c0.5,0.1,0.6,0.6,0.1,0.8C134.8,55,134.6,54.3,135.2,54.2z M135,95.3c0.9-0.5,1.2,1.4,0.4,1.7C134.9,97.3,134.5,95.8,135,95.3z
			 M135.2,244.4c0.9,0.2,0.2,1.3-0.5,0.5C135,244.7,135.1,244.4,135.2,244.4z M133.9,165.7c0-0.7,0-1.3,0-2
			C135,164.3,135,164.7,133.9,165.7z M134.7,109.8c-0.2,0.6-0.4,0.5-0.8,0.1C133.9,109.4,134.3,109.6,134.7,109.8z M134.3,44.3
			c0.5,0.1,0.2,0.5,0,0.8C133.7,44.8,133.6,44.4,134.3,44.3z M134.5,89.7c-0.1,0.7-0.3,0.6-0.9,0.4C134,89.7,134.2,89.3,134.5,89.7z
			 M132.8,173.3c-0.7-0.8,0.1-2.7,0.8-1.2C133.8,172.5,133.6,173.7,132.8,173.3z M133.1,205.5c-0.2,0-0.3-0.2-0.6-0.4
			C132.9,204,134.1,205.1,133.1,205.5z M133.3,216.6c-0.4-0.3-0.7-0.6-0.3-0.9C133.6,215.8,133.6,215.9,133.3,216.6z M132.7,200.6
			c0.4-0.9,1.3-0.2,0.3,0.9C132.8,201.1,132.7,200.8,132.7,200.6z M133.1,183.3c-0.2,0-0.3-0.3-0.5-0.5
			C133.3,182,133.9,183.1,133.1,183.3z M133.5,238c-0.1,0.7-0.3,0.7-1,0.3C132.9,237.9,133.2,237.6,133.5,238z M133.2,87.1
			c-0.5-0.1-0.5-0.5-0.2-1C133.6,86.4,133.7,86.8,133.2,87.1z M133.3,36.6c0.5,0.3,0.1,0.6-0.2,0.9
			C132.7,36.9,132.6,36.7,133.3,36.6z M133.4,64.8c-0.5,0.3-1.8,0.4-1.7-0.4C132.2,63.8,134,63.8,133.4,64.8z M132.3,159.5
			c0,0.5-0.4,0.6-0.7,0.3C131.8,159.4,132.1,159.1,132.3,159.5z M131.9,154.7c0.5,0.2,0.7,0.4,0.3,0.8
			C131.8,155.3,131.5,155.2,131.9,154.7z M132.2,186.5c-0.6-0.1-0.6-0.4-0.3-0.7C132.2,185.9,132.6,186.2,132.2,186.5z M132.4,229.3
			c-0.2,0.7-0.8,0.6-0.8-0.1C131.8,228.9,132.4,228.8,132.4,229.3z M132.1,77.5c0.6,0.7-0.2,1.1-0.7,0.2
			C131.8,77.6,132,77.4,132.1,77.5z M132.3,115.5c0,0.1-0.2,0.2-0.3,0.3C131.3,115.4,132.3,114.8,132.3,115.5z M132.4,122.3
			c-1,0.4-1.9,0.5-2.9,0C129.6,121,132.3,121,132.4,122.3z M129.9,132c0.5-0.1,1.2-0.7,1.4,0C131.1,132.6,130.4,132,129.9,132z
			 M129.9,133.5c-0.5-0.1-0.6-0.6-0.2-0.9C130.1,131.3,130.2,132.9,129.9,133.5z M130.9,145.7c-0.6-0.1-0.5-0.8,0.1-0.8
			C131.4,145,131.4,145.6,130.9,145.7z M130.3,161.9c0.5-0.5,0.7-0.6,1.1-0.1C131,162.3,130.8,162.3,130.3,161.9z M130.3,241.4
			c0.3-0.2,0.5-0.5,0.6-0.4C131.8,241.5,130.9,242.3,130.3,241.4z M129.9,86.3c0.4,0.4,0.3,0.8-0.1,1.2
			C129.4,87.2,129.3,86.3,129.9,86.3z M130.8,57.3c0.6,0.3,0.8,1,0.1,1.1C130.3,58.1,130.4,57.7,130.8,57.3z M131,75.2
			c0.6,0.6-0.2,1-0.7,0.3C130.6,75.3,130.9,75.2,131,75.2z M131.3,87.7c-0.3,1.1-0.9-0.1-1.5-0.2C130.4,87.5,131,86.9,131.3,87.7z
			 M129.6,48.7c0.3,0.2,0.7,0.4,0.3,0.7C129.4,49.3,129.3,49.1,129.6,48.7z M129.6,64.2c0.9,0.1,0.5,0.3,0.2,1.4
			C129.5,64.8,129.2,64.6,129.6,64.2z M129.6,168.2c0.9,0.1,0.5,0.3,0.2,1.4C129.5,168.8,129.2,168.6,129.6,168.2z M129.8,190.2
			c0.5,0.1,0.2,0.5,0,0.8C129.3,190.8,129.2,190.4,129.8,190.2z M130.1,204.5c-0.1,0.7,0.4,2.4-0.6,1.8
			C129.1,205.2,129.1,205.2,130.1,204.5z M129.9,216.7c0.5,0.7-0.1,1.1-0.7,0.4C129.5,216.9,129.7,216.8,129.9,216.7z M131.3,250.6
			c4-2.3,3.5,2.6-0.5,2.6c-0.7,1.3,4,1.8,1,4.7C130.9,259.9,123.7,254.7,131.3,250.6z M128.7,117c-0.6-0.1-0.6-0.8,0-0.9
			C129.2,116.2,129.2,116.9,128.7,117z M128.6,102.8c-0.4-0.5-0.5-0.9,0.1-1C129.3,102,129.1,102.4,128.6,102.8z M128.8,72.9
			c0.3,0.5,0.3,0.8-0.4,0.7C128.1,73.4,128.4,73,128.8,72.9z M129.1,107.5c-0.1,0.5-0.4,0.6-0.8,0.3
			C128.5,107.5,128.8,107.1,129.1,107.5z M126.6,104.3c0.6-0.3,1-0.6,1.3,0C127.7,105,127.5,104.7,126.6,104.3z M127.6,80.4
			c-0.2,0-0.4-0.2-1-0.5C127.4,79.3,128.5,79.8,127.6,80.4z M127.6,53.1c0.7,0.6-0.1,1.1-0.7,0.3C127.3,53.3,127.5,53.1,127.6,53.1z
			 M126.6,39.8c0.6,0.7-0.2,1.1-0.7,0.3C126.2,39.9,126.5,39.7,126.6,39.8z M125,62.3c0.7-0.9,1.1,0.3,0.6,1.1
			C125.1,62.6,124.9,62.4,125,62.3z M125.5,112.8c0.7,0.6-0.1,1.1-0.7,0.3C125.1,113,125.4,112.8,125.5,112.8z M124.6,124.4
			c-0.4,0.5-0.7,0.2-0.7-0.4C124.2,123.7,124.7,124,124.6,124.4z M124.4,87.2c-0.3-0.3-0.7-0.6-0.3-0.9
			C124.8,86.4,124.7,86.6,124.4,87.2z M124.4,47.6c0.2,0.3,0.4,0.8-0.1,0.8C123.6,48.1,123.8,47.7,124.4,47.6z M124,145.8
			c-0.6,1.1-0.7,1.1-1.9,0.7C122.7,146,123.3,145.7,124,145.8z M122.3,147.7c-0.9,0.2-0.4-0.7-0.2-1.2
			C122.2,146.9,122.3,147.3,122.3,147.7z M123.1,99.2c-0.6-0.2-0.5-0.7,0-0.9C123.5,98.6,123.8,99.1,123.1,99.2z M123.2,110.3
			c-0.5,0-0.7-0.7-0.1-0.8C123.6,109.6,123.7,110.1,123.2,110.3z M123,140.4c0.8-0.2,0.8,0.9,0.1,1
			C122.6,141.3,122.5,140.6,123,140.4z M122.7,79.9c0.3-0.5,0.9-0.4,1,0.2C123.5,80.7,122.4,80.5,122.7,79.9z M123.1,49.7
			c0.5,0,0.6,0.7,0.2,0.9C122.6,50.6,122.5,49.9,123.1,49.7z M123,64.1c0.6-0.2,1,0.8,0.2,0.9C122.6,64.9,122.4,64.4,123,64.1z
			 M123.6,76.8c-0.3,0.6-0.7,0.5-1.1,0C122.8,76.2,123.7,76,123.6,76.8z M122.2,106.1c0.1,0.4,0.3,0.7-0.3,0.8
			C121.7,106.4,121.5,106.3,122.2,106.1z M122.2,127.2c0.2,0.3,0.3,0.7-0.2,0.8C121.7,127.5,121.6,127.4,122.2,127.2z M122.1,165.8
			c0.3,0.6,0.3,0.9-0.3,0.9C121.4,166.3,121.8,166.1,122.1,165.8z M122.2,231.1c0.1,0.3,0.4,0.8-0.2,0.8
			C120.8,231.7,121.6,231.3,122.2,231.1z M120.9,141.3c-0.2,0-0.5-0.1-1-0.3C121,139.9,121.9,140.8,120.9,141.3z M120.2,236.9
			c-0.1,0.2-0.1,0.4-0.4,1.2C119.4,237.2,119.2,236.5,120.2,236.9z M119.9,234.4c0.2,0.3,0.5,0.8-0.1,0.8
			C119.2,234.9,119.4,234.6,119.9,234.4z M120.5,82.1c0.5-0.8,1.2,0.2,0.3,0.7C120.7,82.5,120.5,82.3,120.5,82.1z M120.9,72.4
			c0.4,1,0.7,1.2-0.2,1.3C120.3,73.3,120.6,73.1,120.9,72.4z M119.9,41.8c0.3,0.6,0.4,0.9-0.3,1C119.2,42.4,119.6,42.1,119.9,41.8z
			 M120.2,68.8c0,0.5-0.4,0.7-0.6,0.4C119.5,68.8,119.8,68.5,120.2,68.8z M119.8,110.6c0.6,0,0.3,0.5,0.2,0.8
			C119.4,111.3,119.1,110.9,119.8,110.6z M119.9,206.8c0.5,0.1,0.2,0.5,0,0.8C119.3,207.4,119.2,207,119.9,206.8z M120.2,262.3
			c-0.8,0.9-0.8,0.9-2,0.1C119,261.8,119.6,262,120.2,262.3z M118.7,85.1c-0.8-0.7,0.2-1.5,0.5-0.6
			C119.1,84.7,118.9,84.8,118.7,85.1z M118.7,51c0.5,0,0.3,0.4,0,0.6C118.4,51.5,118.3,51.1,118.7,51z M118.9,53.1
			c0.5,0.3,0.1,0.6-0.2,1C118.3,53.5,118.2,53.3,118.9,53.1z M118.8,57.4c0.4,0.5,0.4,0.6-0.2,1C118.3,57.9,118.2,57.7,118.8,57.4z
			 M117.8,60.9c0.5,0.3,0,0.6-0.3,0.7C117.2,61.3,117.2,60.9,117.8,60.9z M117.3,81c1.1-1.2,1.1,2.5-0.1,1.2
			C117.1,81.9,117.1,81.4,117.3,81z M117.2,217.2c-0.5,0.4-0.9,0.5-1-0.1C116.4,216.5,116.8,216.7,117.2,217.2z M116.2,174.1
			c0.1-0.7,0.5-0.6,0.8,0C116.7,174.3,116.3,174.6,116.2,174.1z M116.5,161.2c0.5,0.5,0.6,0.7-0.1,1
			C115.9,162,116.3,161.7,116.5,161.2z M116.7,46.5c0.5,0.3,0.1,0.6-0.2,0.9C116.1,46.8,116.1,46.6,116.7,46.5z M116.8,140.5
			c0.4,0.4,0.1,1-0.4,0.8C115.9,140.9,116.2,140.2,116.8,140.5z M115.3,54.1c0.8,0.1,0.5,0.5,0.1,0.9
			C115,54.9,114.1,54.3,115.3,54.1z M115.8,95.4c-0.3,0.6-0.5,0.6-1,0.2C115.2,95.1,115.3,95,115.8,95.4z M115.9,108.9
			c-0.4,0.7-0.6,0.4-1.4-0.2C115,108.3,115.9,108,115.9,108.9z M114.4,122.8c0.2,0.4,0.2,0.5-0.2,0.7
			C113.8,123.2,114.1,123.1,114.4,122.8z M114.2,140.4c0.5,0,0.3,0.5,0.2,0.9C113.8,141.2,113.6,140.8,114.2,140.4z M113.1,205.5
			c-0.5-0.5-0.5-0.7,0.1-1.1C113.7,205,113.7,205.1,113.1,205.5z M113.1,135.9c-0.4-0.6-0.4-0.8,0.2-1
			C113.7,135.2,113.4,135.5,113.1,135.9z M112.8,59c0.2,0.3,0.5,0.6,0.7,0.9C113.3,61.5,112.3,59.8,112.8,59z M112.1,58.7
			c0.6,0.1,0.8,0.3,0.1,0.6C111.9,59.3,111.7,58.8,112.1,58.7z M112.2,111.7c0.1,0.3,0.4,0.8-0.2,0.8
			C111.4,112.2,111.6,111.8,112.2,111.7z M111.9,127.2c0.5-0.3,1.9-0.2,1.4,0.6C112.9,128.4,110.8,127.8,111.9,127.2z M111,66.3
			c0.8,0.5-0.2,1.3-0.6,0.3C110.7,66.4,110.9,66.2,111,66.3z M109.8,76.3c0.6-0.1,1.5-0.4,1.6,0.5C111.2,77.7,108.7,77.3,109.8,76.3
			z M110.3,99.8c-0.1,0.2-0.2,0.4-0.3,0.8C109.3,100.1,109.5,99.4,110.3,99.8z M109.9,106.1c0.2,0.3,0.6,0.7,0,0.8
			C109.3,106.8,109.4,106.4,109.9,106.1z M110,114.7c-0.7-0.1-0.6-0.5,0-0.8C110.1,114.1,110.5,114.5,110,114.7z M110.3,155.3
			c-0.3,0.4-0.6,0.1-0.9-0.3C109.9,154.7,110.1,154.7,110.3,155.3z M108.4,129.6c0.5-0.4,0.7-0.2,0.9,0.3
			C108.8,130,108.5,130.3,108.4,129.6z M108.9,65.2c0.7,0.6-0.1,1.1-0.7,0.3C108.5,65.4,108.8,65.2,108.9,65.2z M107.5,55.4
			c0.7,0.1,0.7,0.3,0.3,0.9C107.4,55.9,107.1,55.7,107.5,55.4z M108,83.5c-0.4,0.2-0.5,0.2-0.7-0.2C107.7,82.8,107.8,83.2,108,83.5z
			 M107.6,91.8c0.3,0.2,0.7,0.6,0.2,0.9C107.2,92.6,107.2,92.2,107.6,91.8z M107.4,113.4c0.1-0.4,0.3-0.8,0.6-0.4
			C108.1,113.5,107.7,113.6,107.4,113.4z M107.7,123.9c0.8,0.6-0.4,1.2-0.5,0.2C107.5,124,107.7,123.8,107.7,123.9z M106,148.7
			c0.3-0.6,1.1-0.9,1.1-0.1C106.8,149.3,106.4,149.2,106,148.7z M106.1,138.4c0.3-0.5,0.9-0.4,0.9,0.2
			C106.9,139.3,105.9,139.1,106.1,138.4z M106,119.9c0.4-0.9,1.4-0.2,0.7,0.3C106.5,120.3,106.3,120.1,106,119.9z M106.5,96.1
			c1,0.5,0.1,1.4-0.6,0.5C106.2,96.4,106.4,96.1,106.5,96.1z M104.1,192.5c0.7,0.1,0.6,0.3,0.3,0.9
			C104.1,193.1,103.7,192.8,104.1,192.5z M104.3,186.8c0.5,0,0.3,0.5,0.2,0.8C103.8,187.5,103.7,187.2,104.3,186.8z M104.1,230.1
			c0.4,0.1,0.7,0.4,0.3,0.7C103.9,230.7,103.8,230.3,104.1,230.1z M104.3,113.5c-0.4-0.4-0.4-0.6,0.1-0.8
			C104.6,113.1,104.9,113.5,104.3,113.5z M104.2,77.1c-0.7-0.3,0.2-1.1,0.3-1.6C104.4,76,105,77,104.2,77.1z M104.3,182.2
			c-0.4-0.4-0.5-0.6,0.2-0.8C104.6,181.7,104.8,182.1,104.3,182.2z M104.5,104.3c0.4-0.2,0.6-0.4,0.8-0.4
			C106.3,104.3,105.5,105.2,104.5,104.3z M105.4,144.9c0.3,0.1,0.6,0.7,0,0.8C104.7,145.6,104.8,145,105.4,144.9z M105.8,240.3
			c-0.2,0.7-0.6,0.5-0.8-0.1C105.3,240.1,105.7,239.7,105.8,240.3z M105.5,100.5c-0.6,0-0.8-0.7-0.2-0.9
			C105.9,99.6,105.9,100.3,105.5,100.5z M104.9,88.9c0.5-1,1.3-0.1,0.3,0.9C105.1,89.3,104.9,89.1,104.9,88.9z M105.4,57.5
			c0.8,0.5-0.1,1.3-0.6,0.4C105.1,57.7,105.3,57.4,105.4,57.5z M105.4,70.5c-0.6,0-0.8-0.7-0.1-0.8
			C105.8,69.7,105.9,70.3,105.4,70.5z M104.9,75.3c0.3-0.2,0.6-0.2,0.8,0.2C105.8,76.1,103.8,75.6,104.9,75.3z M104.4,45.4
			c0.1,0.3,0.4,0.8-0.2,0.8C103.6,45.9,103.8,45.5,104.4,45.4z M104.4,47.5c0.2,0.3,0.5,0.8-0.1,0.8
			C103.6,48.1,103.8,47.7,104.4,47.5z M104.1,183.6c0.9,0.1,0.5,0.9-0.2,0.5C104,183.9,104.1,183.6,104.1,183.6z M106.5,244.3
			c1.7,1.8-5,1.4-5.9,0.7c-2.8-0.6-5.6-7.4-0.7-6.9C99.8,241.7,103.1,243.1,106.5,244.3z M98.8,74.9c-0.8-0.1-0.5-0.8,0.1-1.1
			C99.3,74.3,99.4,74.7,98.8,74.9z M99.2,135.4c-0.1,1-0.8,0.4-0.8-0.1C98.6,134.8,99.2,134.9,99.2,135.4z M101,165.7
			c-0.5-0.4-0.5-0.6,0.1-1.1C101.6,165.1,101.6,165.3,101,165.7z M101.4,176.4c-0.3,0.4-0.6,0.1-1-0.3
			C101.1,175.7,101.3,175.7,101.4,176.4z M101.2,95.9c-0.1,0.1-0.4-0.1-0.7-0.2C100.9,94.8,101.8,95.2,101.2,95.9z M101.4,125.4
			c-0.3,0.6-0.6,0.6-0.8-0.1C100.9,125.1,101.4,124.9,101.4,125.4z M101,152.6c0.9,0.4,0.2,1.3-0.9,0.3
			C100.6,152.7,100.8,152.5,101,152.6z M99.6,208.3c0-0.5,0.4-0.3,0.7-0.1C100.1,208.7,99.9,208.6,99.6,208.3z M100.1,214.2
			c-0.5-0.1-0.6-0.4-0.3-0.7C100.1,213.6,100.5,213.9,100.1,214.2z M99.8,161.4c0.5,0.2,0.7,0.4,0.3,0.8
			C99.7,162,99.4,161.9,99.8,161.4z M99.8,123.5c-0.1,0-0.1-0.2-0.2-0.4C100,122.5,100.5,123.6,99.8,123.5z M99.8,236.7
			c0.5-0.2,0.5,0.3,0.5,0.7C99.9,238.5,99.2,237.3,99.8,236.7z M103.2,95.1c0.9,0.4,0.2,1.1-1,0.3C102.7,95.2,102.9,95.1,103.2,95.1
			z M102.8,56.6c-0.1-1.6,1.6,0.6,0.3,0.5C103,57,102.8,56.8,102.8,56.6z M103.3,218.8c-0.4-0.3-0.8-0.6-0.3-0.9
			C103.7,217.9,103.7,218.1,103.3,218.8z M101.9,158.2c0.7,0.1,0.7,0.3,0.3,0.9C101.9,158.8,101.5,158.5,101.9,158.2z M101.7,139.7
			c0.1-0.1,0.2-0.3,0.3-0.3C102.7,139.7,102.1,140.2,101.7,139.7z M101.9,160.4c0.7,0.1,0.6,0.3,0.3,0.9
			C101.9,161,101.5,160.7,101.9,160.4z M101.9,200.2c1,0.6,1,1.1,0.1,1.8C101.7,201.1,101.7,201.1,101.9,200.2z M102.3,127.2
			c0.4,0.3,0,0.6-0.3,0.7C101.7,127.6,101.7,127.3,102.3,127.2z M102.1,132.7c0.6,0,0.3,0.5,0.2,0.8
			C101.7,133.4,101.5,133,102.1,132.7z M103.3,225.6c0.4,0.4,0.2,0.8-0.4,0.7C102.6,226.1,102.9,225.5,103.3,225.6z M102.9,220.3
			c0.3-0.3,0.5-0.2,0.8,0.1C103.3,220.6,103,220.9,102.9,220.3z M102.9,42.9c0-1,0.5,0.3,0.7,0.7C102.7,44,102.7,43.5,102.9,42.9z
			 M102.9,55.9c-0.5,0.4-1.5,0.2-0.9-0.6C102.5,55.1,102.6,55.7,102.9,55.9z M102.3,47.6c0.4,0.3,0.1,0.6-0.3,1
			C101.7,47.9,101.6,47.7,102.3,47.6z M101.4,57.5c0.1,0.3,0,0.9-0.5,0.7C100.3,57.7,100.9,56.5,101.4,57.5z M99.8,56
			c0.3,0.3,0.7,0.7,1,1C99.8,57.2,99.3,57.3,99.8,56z M100.1,52c0.5,0.3,0.1,0.6-0.2,1C99.5,52.4,99.4,52.2,100.1,52z M98.7,48.5
			c0.5,0.3,0.8,0.7,0.2,0.9C98.3,49.3,98.3,49,98.7,48.5z M98.4,55.5c0.6-0.7,0.9,0.3,1.4,0.5C99.3,56.2,98.1,56.4,98.4,55.5z
			 M97.7,60.9c0.3,0.2,0.5,0.6,0,0.7C97.2,61.4,97.2,60.9,97.7,60.9z M96,68.2c-0.2-3.7,7.4-9.7,6.5-2.6c-1.6,1.2-0.6,3.1-1.1,4.7
			C98.9,71,95.5,72.3,96,68.2z M95.7,80.8c0.3,0.3,0,0.6-0.4,0.6C95,81.1,95.2,80.7,95.7,80.8z M96.1,93.1c-0.2,0.5-0.6,0.7-1,0.9
			C95.1,93,95.2,92.9,96.1,93.1z M95,94.1c0,3.4-0.9,1-2.9,0.7C91.2,93.5,94.3,93.7,95,94.1z M92,81.7c1.5,0.7-1.1,1.6-1.4,0.6
			C90.7,81.6,91.5,81.7,92,81.7z M91,77.4c1.2,0.3-0.1,1.4-0.8,0.6C90.7,77.6,90.8,77.4,91,77.4z M90.1,112.8
			c0.1,0.4,0.3,0.8-0.2,0.8C89.6,113.2,89.5,112.9,90.1,112.8z M90.3,147.5c-0.3,0.2-0.7,0.3-0.6-0.2
			C89.8,147.1,90.1,147.2,90.3,147.5z M90.1,183.6c0.3,0.3,0,0.5-0.4,0.6C89.5,183.9,89.6,183.6,90.1,183.6z M90.2,225.8
			c0.5,0.9-1.9,0.5-0.8,0.2C89.6,225.7,89.8,225.4,90.2,225.8z M88.9,101.6c0.4,0.5,0.4,0.9-0.2,1C88.2,102.3,88.4,101.9,88.9,101.6
			z M88.9,191.3c0.5,0,0.3,0.6,0,0.8C88.3,192.1,88.2,191.5,88.9,191.3z M87.7,83.8c0.3,0.5,0.5,0.7,0.1,1.1
			C87.2,84.6,87.3,84.5,87.7,83.8z M87.8,110.6c0.5,0.1,0.2,0.5,0,0.8C87.2,111.2,87.1,110.8,87.8,110.6z M87.9,151.4
			c-0.3-0.3-0.8-0.6-0.4-0.9C88.2,150.5,88.2,150.7,87.9,151.4z M88.1,174.1c-0.4,0.2-0.6,0.4-0.8-0.3
			C87.7,173.7,88.1,173.6,88.1,174.1z M86.6,95c-0.4-0.5-0.5-0.9,0.1-1C87.2,94.3,87.1,94.6,86.6,95z M87,131.9
			c-0.3,0.3-0.4,0.6-0.7,0.1C86.5,131.7,86.7,131.6,87,131.9z M86.6,86.2c0.5,0.1,0.6,0.6,0.1,0.8C86.1,87.1,86,86.4,86.6,86.2z
			 M86.7,154.7c0.8,0.5-0.2,1.3-0.6,0.3C86.4,154.9,86.6,154.7,86.7,154.7z M85.5,162.3c0.2,0.3,0.4,0.5,0.4,0.7
			C85.4,163.7,84.9,163,85.5,162.3z M85.5,96.2c0.5,0,0.3,0.5,0.2,0.8C85.1,96.9,84.9,96.5,85.5,96.2z M85.9,106.3
			c-0.1,0.7-0.3,0.6-0.9,0.4C85.3,106.3,85.5,105.8,85.9,106.3z M84.6,205.7c-0.6-0.4-0.7-0.6-0.2-1.1C85,204.8,85,205,84.6,205.7z
			 M84.8,218c0,0.8-0.8,1-0.8,0.1C84.1,217.8,84.7,217.8,84.8,218z M84.4,87.1c-0.4-0.2-0.4-0.7,0.1-0.8
			C85.2,86.4,85,87.1,84.4,87.1z M84.2,77.4c0.5-0.2,1,0.7,0.4,0.9C84,78.2,83.9,77.9,84.2,77.4z M82.9,83.2c1-0.9,1.4,1.6,0.5,1.8
			C82.8,85.1,82.4,83.8,82.9,83.2z M83.3,124.8c-0.6,0-0.7-0.6-0.2-0.9C83.8,123.6,84,124.6,83.3,124.8z M83.7,147.3
			c0,0.7-0.4,0.7-0.8,0.2C83.1,147.2,83.4,146.8,83.7,147.3z M83.2,116.1c0.8-0.2,0.8,0.9,0.1,1C82.7,117,82.6,116.3,83.2,116.1z
			 M82.8,107.7c0.2-0.3,0.6-0.7,0.8-0.2C83.6,108.2,83.2,108.1,82.8,107.7z M82.2,168.9c-0.6-0.3-0.4-0.6,0.1-0.8
			C82.4,168.4,82.7,168.9,82.2,168.9z M82.3,174.4c-0.5-0.2-0.7-0.4-0.3-0.7C82.4,173.9,82.7,174,82.3,174.4z M82.3,206.8
			c0.2,0.3,0.4,0.7-0.1,0.8C81.6,207.3,81.6,207,82.3,206.8z M82.5,214c-0.3,0.4-0.5,0-0.7-0.3C82.2,213.4,82.5,213.5,82.5,214z
			 M82,195.3c-0.3-0.4-0.1-0.7,0.4-0.7C82.7,195,82.3,195.2,82,195.3z M82,121.7c0.4,0.1,0.8,0.3,0.4,0.7
			C81.8,122.4,81.7,122.1,82,121.7z M82.2,132.6c0.3,0.3,0.5,0.7,0.1,0.9C81.6,133.4,81.6,133,82.2,132.6z M83.3,218.8
			c0.8-0.3,2.1,1.9,1.6,3C81.4,223,79.4,220.3,83.3,218.8z M81,131.2c-0.7-0.2-0.7-1.4-0.1-1.8C81.7,129.4,81.8,131.1,81,131.2z
			 M77.6,78.6c0.4,0.1,0.8,0.3,0.4,0.7C77.4,79.3,77.3,79,77.6,78.6z M76.3,81.9c1.5-0.1,2.6-2.1,4.1-1
			C83.8,83.3,75.6,85.8,76.3,81.9z M75.4,101.8c0.6,0.1,0.8,0.4,0.2,0.8C75.1,102.6,75.3,102.1,75.4,101.8z M75.4,138.1
			c0.3,0.2,0.7,0.5,0.3,0.8C75.2,138.9,75.2,138.5,75.4,138.1z M74.6,117.3c0.5,0.2,0.3,0.8-0.2,0.8
			C73.8,117.8,73.9,117.2,74.6,117.3z M73.7,132.1c0,0.1-0.2,0.1-0.4,0.2C72.7,131.9,73.8,131.4,73.7,132.1z M73.4,119.5
			c0.5,0.1,0.3,0.5,0.1,0.8C72.9,120,73,119.8,73.4,119.5z M73.3,168.1c0.5,0,0.3,0.5,0.2,0.8C72.9,168.8,72.7,168.5,73.3,168.1z
			 M73.4,186.8c1.2,1.3-2.6,1.2-1.2,0C72.5,186.6,73,186.6,73.4,186.8z M72.2,89.3c0.5,0.5,0.6,0.6,0.1,1
			C71.7,90.1,71.8,89.9,72.2,89.3z M72.4,147.8c-0.5,0-0.7-0.4-0.3-0.7C72.5,147.3,72.8,147.5,72.4,147.8z M72.4,183.5
			c0.5,0.8-0.2,1.1-0.7,0.3C72,183.7,72.2,183.6,72.4,183.5z M71.5,115.6c-1.3,0.4-0.7-0.6-0.7-1.2
			C71.1,114.7,71.3,115.1,71.5,115.6z M69.8,114c0.4-0.4,0.6,0.2,1,0.4C70.4,114.7,69.4,114.7,69.8,114z M70,136
			c0.5,0,0.3,0.5,0.2,0.8C69.5,136.7,69.4,136.4,70,136z M69.6,107.7c0.1-0.1,0.2-0.3,0.3-0.3C70.6,107.7,70,108.2,69.6,107.7z
			 M70,122.9c0.5,0.1,0.3,0.4,0,0.5C69.6,123.4,69.6,123,70,122.9z M70.4,168.3c-0.1,0.6-0.5,0.8-0.8,0.2
			C69.6,167.9,70.1,168.2,70.4,168.3z M69.8,100.9c0.9-0.5,1,1.3,0.4,1.7C69.4,102.7,69.4,101.3,69.8,100.9z M70.5,196.1
			c-0.8,0.6-1.3,0.6-1.9,0.2C68.7,195.3,69.8,195.5,70.5,196.1z M68.9,159.3c0.7,0,0.3,0.9-0.1,1.1C68.5,160,68.3,159.4,68.9,159.3z
			 M68.4,138.5c0.7-0.8,1.4,0.3,0.5,0.5C68.7,139,68.6,138.7,68.4,138.5z M68.9,163.7c0.5,0,0.4,0.4,0.1,0.8
			C68.5,164.2,68.6,164,68.9,163.7z M69,111.7c0.8,0.5-0.2,1.3-0.7,0.3C68.6,111.9,68.8,111.7,69,111.7z M68.3,160.9
			c-0.3,0.2-0.9,0.2-0.7-0.3C68,160,69.3,160.3,68.3,160.9z M67.7,87.4c0.5,0.1,0.4,0.4,0.3,0.8C67.3,88,67.6,87.8,67.7,87.4z
			 M68,97.3c0.4,0.3,0,0.6-0.3,0.7C67.4,97.7,67.5,97.4,68,97.3z M67.6,104c0.7,0.1,0.7,0.3,0.3,0.9C67.6,104.6,67.3,104.3,67.6,104
			z M67.9,172.5c0.9,0.7,0.4,1.7-0.2,2.4C67.7,174.1,66.9,173,67.9,172.5z M66.7,175.6c-0.2,0-0.7-0.7-0.2-0.8
			C67.7,174.8,67.8,175,66.7,175.6z M66.8,149.3c0.5,0.2,0.4,0.7-0.1,0.8C66.1,150,66.1,149.3,66.8,149.3z M66.4,81.9
			c2-0.5,0,3.7-0.3,0.7C66.1,82.5,66.2,82.1,66.4,81.9z M65.5,93c0.5,0,0.4,0.4,0.2,0.8C65.2,93.6,65.3,93.4,65.5,93z M65.5,100.7
			c0.5,0.1,0.6,0.4,0.3,0.7C65.5,101.3,65,101,65.5,100.7z M65.4,142.7c0.9,0.1,0.5,0.2,0.2,1.3C65.3,143.3,65,143.1,65.4,142.7z
			 M64.5,86.2c0.9,0.7-0.3,1-1.1,0.5C64.2,86.4,64.4,86.2,64.5,86.2z M63.4,138.2c0.2,0.3,0.5,0.7,0,0.8
			C62.8,138.8,62.9,138.4,63.4,138.2z M63.8,155.3c-0.3,0.4-0.6,0.1-0.9-0.3C63.5,154.7,63.6,154.6,63.8,155.3z M61.4,136.3
			c0.7-0.3,1-0.5,1.4,0C62.5,137.1,62.3,136.8,61.4,136.3z M61.9,129.6c0.2-0.1,0.5-0.3,0.6-0.2C63.1,129.9,62,130.5,61.9,129.6z
			 M62.2,84c0.6,0.3,0.5,0.5,0.2,1.1C61.9,84.6,61.8,84.5,62.2,84z M59,100.7c0.6,0.3,0.3,0.7-0.2,0.9
			C58.4,101.1,58.4,100.8,59,100.7z M59,107.3c0.7,0.6-0.2,1.1-0.7,0.3C58.7,107.4,58.9,107.2,59,107.3z M57.6,104
			c0.9,0.1,0.5,0.3,0.2,1.4C57.6,104.6,57.2,104.4,57.6,104z M57.2,115.3c0.2-1.3,0.8-5.3,2.3-4.5C66.4,113,56.8,124,57.2,115.3z
			 M56.7,128.1c0.5,0.4,0.6,0.8,0.1,1C56.1,128.9,56.2,128.6,56.7,128.1z M57.1,144.2c0,0.1-0.3,0.3-0.5,0.5
			C55.8,144,56.9,143.4,57.1,144.2z M56.2,149c0.4-1.8,1.7,0,0.8,1C56.3,150.3,56.1,149.5,56.2,149z M56,107.1
			c0.8,2-1.7,3.4-1.7,1.3C54.7,108,55.2,107.7,56,107.1z M54.4,122.9c0.5,0.2,0.4,0.6-0.1,0.6C53.7,123.2,53.8,122.9,54.4,122.9z
			 M53.2,124c0.5-1,0.8-1,0.7,0.1C53.7,124.8,53,124.7,53.2,124z M51.3,185.4c-0.5,0-0.3-0.5-0.2-0.8
			C51.7,184.8,51.9,185.1,51.3,185.4z M51.4,171.5c0.2,0.3,0.2,0.5-0.2,0.7C50.8,171.9,51.1,171.7,51.4,171.5z M53,168.6
			c-0.5,0.4-0.9,0.5-1-0.1C52.2,167.9,52.6,168.1,53,168.6z M52.3,118.1c0.6,0.4,0.7,0.7,0.2,1C51.9,119,51.9,118.6,52.3,118.1z
			 M51.9,136.4c0-0.2,0.3-0.3,0.5-0.4C53.5,136.3,51.8,137.7,51.9,136.4z M51.4,137.1c1.4-0.4-0.1,1.3-0.4,0.5
			C51.1,137.4,51.2,137.1,51.4,137.1z M50,132.6c0.7-0.3,0.9,0.8,0.2,0.9C49.6,133.6,49.5,132.9,50,132.6z M50.2,142.4
			c-0.5-0.1-0.6-0.5-0.2-0.9C50.6,141.7,50.8,142,50.2,142.4z M50.5,147.3c-0.1,0.7-0.5,0.7-0.8,0.2
			C49.9,147.2,50.3,146.9,50.5,147.3z M50.2,192.3c0.7,0.1,0.5,1-0.2,0.9C49.4,193,49.6,192.4,50.2,192.3z M49.2,182.1
			c-1,0.5-1.1-1.7-0.4-1.8C49.6,180.1,49.7,181.4,49.2,182.1z M49.3,121.9c-0.3,1.1-0.9,0-0.9-0.6C48.8,121.5,49.2,121.4,49.3,121.9
			z M49,138.2c0.8,0.5-0.2,1.3-0.6,0.4C48.7,138.3,48.9,138.1,49,138.2z M48,123.7c0.3,0.6,0.4,0.9-0.3,1
			C47.3,124.3,47.6,124.1,48,123.7z M35.8,143.4c-0.5,0-0.3-0.5-0.2-0.8C36.2,142.8,36.3,143,35.8,143.4z M40.2,147.9
			c-0.6-0.2-0.5-0.4-0.1-0.8C40.7,147.2,40.4,147.6,40.2,147.9z M40.1,141.3c-0.6-0.1-0.6-0.8,0-0.9
			C40.7,140.5,40.7,141.2,40.1,141.3z M42,161.7c1.1-0.8,1.7,3,1.7,3.8C43,164.3,41.1,164.3,42,161.7z M43.3,201.3
			c0.3,0.1,0.8,0.3,0.4,0.7C43.1,202,43,201.7,43.3,201.3z M44.5,210.9c-3.9-1-3.2-5.8,0.2-6.4C44.9,206.7,47.1,210.2,44.5,210.9z
			 M44.7,174.7c0.5,0.2,0.4,0.7-0.1,0.8C44,175.4,44.1,174.7,44.7,174.7z M46.4,160.2c-0.3-0.6,0.3-1.3,0.8-0.6
			C47.2,160.2,46.7,160.1,46.4,160.2z M46.3,143.1c0.7-1.1,1.4,0.6,0.8,1.3C46.3,145.1,46.2,143.6,46.3,143.1z M47.2,146.4
			c0,0.1-0.3,0.3-0.5,0.5C45.9,146.2,47,145.5,47.2,146.4z M47.3,153.4c-0.7-0.1-2,0.4-1.9-0.6C45.8,152.2,46.7,152.4,47.3,153.4z
			 M45.9,160.2c1-0.1-0.3,1.4-0.6,0.6C45.3,160.4,45.5,160.2,45.9,160.2z M44.3,125c0.4-0.1,0.6,0.2,0.7,0.6
			C44.6,126.1,44,125.5,44.3,125z M44.1,144.4c0.5-1.7,1.7,0.5,0.6,1.2C44.3,145.2,43.9,145,44.1,144.4z M43.4,155.9
			c0.3,0.2,0.7,0.6,0.2,0.9C43,156.8,43,156.3,43.4,155.9z M40.9,142.9c1.8-1.7,3,2.2,1,1.8C40.9,144.7,40.8,144.5,40.9,142.9z
			 M28.1,172.1c-0.6-0.1-0.3-0.6,0-0.8C28.4,170,28.9,171.9,28.1,172.1z M30,173.3c-0.6-0.4,0.3-1.1,0.5-1.5
			C30.4,172.4,31,173.4,30,173.3z M36.5,172.1c0.7,0.3,1,0.7,1,1.5C36.2,173.9,36.5,173,36.5,172.1z M35.4,171.1
			c0.3,0.3,0.6,0.6,0.9,0.9C35.5,172.2,35.3,171.9,35.4,171.1z M36.4,173.7c0.2,1.9,1.4-1.2,2,0.5c-0.6,2.6,2,4.5,0.9,6.8
			C36.1,177.6,29.9,178.5,36.4,173.7z M28.1,154.7c0.2,0,0.4,0.1,0.8,0.3C28,156,27.1,155.2,28.1,154.7z M30.8,165.3
			c5.3-0.1,5.1,12.9,1,9.9c2.3-2.3-2.2-3.8-3.5-4.6c-1.1-1.3-1.1-1.7-0.5-3.5c-1.7,0-2.3-1.9-0.7-2.8c1.6-1.6,1.5-1.9,0.5-3.8
			C30.2,157,32.1,164,30.8,165.3z M26.8,149.3c0.5,0.1,0.6,0.6,0.1,0.8C26.3,150.1,26.1,149.4,26.8,149.3z M27.6,161.2
			c0.2,1.1-0.3,3.4-1.3,1.5C26,161.9,26.7,161.3,27.6,161.2z M23.9,162.7c0,0.7-0.2,0.7-0.9,0.4C23.3,162.7,23.5,162.2,23.9,162.7z
			 M23.2,155.3c0.3,0.4,1,0.8,0.6,1.3C22.9,157.1,23.1,155.8,23.2,155.3z M23.1,186.3c0.2-0.7,0.4-0.5,0.8-0.2
			C23.9,186.1,23.1,186.3,23.1,186.3z M23.1,176.4c0.2-0.7,0.4-0.5,0.8-0.2C23.9,176.6,23.5,176.5,23.1,176.4z M23.1,169.5
			c0.4-0.2,0.8-0.5,0.8,0.1C23.5,169.9,23.3,170.1,23.1,169.5z M24.6,189.9c-0.7-0.2-0.6-0.7,0.1-0.8
			C25,189.3,25.1,189.9,24.6,189.9z M24.6,159.2c-0.4-0.5-0.5-0.9,0.1-1C25.2,158.4,25,158.8,24.6,159.2z M25,151.7
			c-0.1,0.9-0.2,0.6-1.4,0.2C24.3,151.6,24.6,151.3,25,151.7z M23.3,149.4c0.4,0,0.8,0.3,0.4,0.6C23.2,150.1,23,149.7,23.3,149.4z
			 M23.1,155.3c-0.5,0.4-1,0.4-1.5-0.1C22.5,154.5,22.5,154.5,23.1,155.3z"/>
		<path class="st1" d="M24.6,135.8c-1.7,1.2,2.2,1.4,2.8,0.6C27.7,134.3,25.1,134.5,24.6,135.8z"/>
		<path class="st1" d="M12.1,137.9c0.4-1.4-1.7-1.2-2.3-0.2C10.6,138.1,11.4,138,12.1,137.9z"/>
		<path class="st1" d="M16,138.7c-0.1,0.6-1,1-0.7,1.7C16.1,142.6,16.5,139.6,16,138.7z"/>
		<path class="st1" d="M30.1,146.7c1.4,0,0.4-4-0.4-1.1C29.7,146,29.6,146.5,30.1,146.7z"/>
		<path class="st1" d="M22.5,137.8c0.7-0.1,0.7-1.7-0.1-1.8C21.8,136.2,21.8,137.8,22.5,137.8z"/>
		<path class="st1" d="M39.3,131.9c-0.3,0.4-1.3,1.6-0.1,1.6C39.8,133.2,39.3,132.4,39.3,131.9z"/>
		<path class="st1" d="M141.5,4.5c-1-0.1-1.1,0-0.9,0.9C141.1,5.4,141.4,5.1,141.5,4.5z"/>
		<path class="st1" d="M105.6,40.9c-0.5-0.2-0.7,0.2-0.8,0.6C105,42,106.2,41.5,105.6,40.9z"/>
		<path class="st1" d="M29.8,142.9c-0.1,0.5,0.3,0.6,0.7,0.7C31.2,143.3,30.3,141.8,29.8,142.9z"/>
		<path class="st1" d="M16.4,143c0,0.2,0.4,0.4,0.6,0.5C17.7,143.4,16.7,141.7,16.4,143z"/>
		<path class="st1" d="M23.9,142.1c0-0.6-0.4-0.6-0.7-0.3C23.3,142.1,23.5,142.6,23.9,142.1z"/>
		<path class="st1" d="M11.8,140.8c-0.1-0.3-0.7-0.5-0.8,0C11.1,141.5,11.7,141.4,11.8,140.8z"/>
		<path class="st1" d="M26.6,138.2c-0.8,1.1,2,0.8,0.8,0.2C27.2,138.2,27,137.9,26.6,138.2z"/>
		<path class="st1" d="M24.6,139c0.5,0,0.5-0.7,0.1-0.8C24.1,138.2,24,138.8,24.6,139z"/>
		<path class="st1" d="M13.1,136.8c-0.1-0.4,0-0.9-0.6-0.9C11.4,136.3,12.3,137.1,13.1,136.8z"/>
		<path class="st1" d="M20.7,135.5c-0.2-0.7-0.3-0.7-1-0.3C20.1,135.6,20.4,135.9,20.7,135.5z"/>
		<path class="st1" d="M24.4,134.7c0.8,1,0.7-1.3-0.1-0.8C24.1,134.2,24.1,134.5,24.4,134.7z"/>
		<path class="st1" d="M38,131.2c0.6-0.3-0.1-0.8-0.3-1.2C37.7,130.4,37.3,131.2,38,131.2z"/>
		<path class="st1" d="M37.7,129.9C37.7,129.9,37.7,129.9,37.7,129.9C37.7,129.9,37.7,129.9,37.7,129.9z"/>
		<path class="st1" d="M21.4,140c0.3-0.1,0.4-0.4,0-0.5C21,139.5,21.1,139.8,21.4,140z"/>
		<path class="st1" d="M37.7,129.9L37.7,129.9C37.7,129.9,37.7,129.9,37.7,129.9z"/>
		<path class="st1" d="M104.8,41.7C104.8,41.7,104.8,41.6,104.8,41.7C104.7,41.7,104.7,41.8,104.8,41.7z"/>
		<path class="st1" d="M105.7,41.7C105.8,41.8,105.8,41.8,105.7,41.7C105.8,41.7,105.7,41.7,105.7,41.7z"/>
	</g>
</g>
</svg>
