<?xml version="1.0" encoding="utf-8"?>
<!-- Generator: Adobe Illustrator 25.4.1, SVG Export Plug-In . SVG Version: 6.00 Build 0)  -->
<svg version="1.1" id="레이어_1" xmlns="http://www.w3.org/2000/svg" xmlns:xlink="http://www.w3.org/1999/xlink" x="0px"
	 y="0px" viewBox="0 0 16 16" style="enable-background:new 0 0 16 16;" xml:space="preserve">
<style type="text/css">
	.st0{fill:#2B2726;}
</style>
<g>
	<path class="st0" d="M14.2,7.4c-0.1,0.2-0.3,0.4-0.5,0.6c0.1-0.4,0.2-0.7,0.3-1.1c0.1-0.3,0.3-0.7,0.1-1c0-0.1-0.1-0.2-0.1-0.3
		c0-0.1,0.1-0.2,0.1-0.2c0,0,0,0,0-0.1c0,0,0-0.1,0-0.1C14,5,13.9,4.6,13.7,4.4c-0.2-0.2-0.2-0.3-0.2-0.5c0.5,0,0.4,0.4,0.6,0.7
		c0-0.3-0.1-0.5-0.2-0.7c-0.4-1-1-1.8-1.9-2.4c-0.1-0.1-0.2-0.3-0.3-0.1c-0.2,0.2,0.1,0.2,0.2,0.3C11.9,1.6,12,1.7,12,1.8
		c-0.1,0.1-0.2,0.1-0.2,0c-0.3-0.1-0.3-0.4-0.5-0.5c-0.1-0.1,0.1-0.2,0.1-0.3c0,0,0-0.1,0-0.1c0,0,0,0,0-0.1
		c-0.2-0.1-0.4-0.3-0.6-0.2c-0.3,0.1-0.4,0-0.5-0.2c0-0.1-0.1-0.1-0.2-0.2c-0.1,0-0.2-0.1-0.2-0.1c-0.2,0-0.4-0.1-0.7-0.2
		c-0.1,0-0.2-0.1-0.2,0c0,0.3-0.2,0.1-0.3,0.1c-0.2,0-0.4,0-0.6,0.1c0,0-0.1,0-0.1,0.1c0,0-0.1,0-0.1,0c0,0,0,0,0,0c0,0,0,0,0-0.1
		c0-0.1,0.1,0,0.1,0c0.1,0,0.2-0.1,0.1-0.2C7.9,0.1,8,0,7.8,0C7.6,0,7.4,0.1,7.2,0.2C6.9,0.3,6.6,0.5,6.3,0.3c0,0-0.1,0-0.1,0
		c-0.3,0.1-0.7,0.2-1,0.4c0.2,0,0.4,0.1,0.5,0c0.1-0.1,0.2,0,0.4,0c0.1,0.1,0.2,0.2,0.3,0.3L6.1,1.2c0-0.1-0.4-0.4-0.4-0.3
		C5.6,1.2,5.3,1.2,5.2,1.4c0,0.1-0.1,0.2-0.2,0.1c-0.1,0-0.1-0.2-0.1-0.3c0-0.1,0.1-0.2,0.2-0.2c0.1-0.1,0-0.2,0-0.3
		c-0.1-0.2-0.1,0-0.2,0C4.7,0.9,4.5,1,4.4,1.2C4,1.4,4,1.5,4.3,1.7c0,0,0,0-0.1,0.1c0,0-0.1,0-0.1,0c0,0-0.1,0-0.1,0
		c0,0-0.1,0-0.1,0c-0.1-0.1-0.2,0-0.2,0.1C3.6,1.9,3.6,2.4,3.2,2.2c0,0-0.1,0.1-0.1,0.1C2.9,2.6,2.7,2.9,2.5,3.2c0.1,0,0.1,0,0.2,0
		c0.1,0,0.1,0,0.2-0.1c0.1,0,0.1-0.1,0.2,0c0,0,0,0,0,0.1c0,0,0,0,0,0.1c0,0,0,0,0,0s0,0,0,0C2.7,3.3,2.6,3.6,2.3,3.6
		S2.2,3.8,2.1,3.9c0,0.1,0,0.1,0.1,0.2c0.4,0.1,0.4,0.2,0.1,0.5c0,0.1-0.1,0.1-0.2,0.1C2,4.7,2,4.8,2,4.9c0,0.1,0,0.3,0,0.4
		C1.8,5.5,1.8,5.7,1.8,5.9c0,0.3,0.2,0.6-0.1,0.8c0,0,0,0,0,0C1.8,6.8,1.8,6.9,1.7,7c0,0,0,0,0,0c0,0,0,0,0,0c0,0,0,0,0,0
		c0,0,0,0,0,0C2.2,7.3,2.2,7.6,2.1,8c0,0.1,0,0.1-0.1,0.1c-0.2,0-0.1,0.1-0.1,0.2C2,8.8,2.3,9.4,2.6,9.8c0,0,0,0,0,0.1
		c0,0,0,0,0.1,0c0,0,0,0,0.1,0c0,0,0,0,0.1,0c0.1,0,0.5,0.4,0.4,0.6c-0.1,0.1,0,0.1,0,0.2c0.2,0.2,0.5,0.5,0.7,0.7
		c0.2,0.3,0.6,0.4,0.8,0.6c0.1,0.1,0.2,0.2,0.3,0c0.1-0.2,0.4-0.1,0.4,0c0.1,0.2-0.2,0.1-0.2,0.3c0.1-0.1,0.3,0.3,0.4-0.1
		c0,0,0.1,0,0.1,0c0.1,0.2,0.4,0,0.4,0.3c0,0,0.1,0,0.1,0c0,0,0.1-0.1,0-0.1c0,0-0.1-0.1,0-0.2c0,0,0.1,0,0.1,0c0,0,0.1,0.1,0.1,0.1
		c0,0.1,0.1,0.2,0.1,0.2c-0.1,0-0.2,0-0.2,0c0.2,0.2,0.7-0.1,0.8,0.3c0.3,0,0.2,0.3,0.3,0.4c0,0,0,0.1-0.1,0.1
		c-0.1,0.1-0.1,0-0.1-0.1c-0.1,0-0.2-0.2-0.2,0c0,0.2-0.1,0.5,0.2,0.6c0,0,0,0,0.1,0c0,0,0,0,0,0c0,0,0,0,0,0.1c0,0,0,0,0,0.1
		c-0.1,0.4,0.2,0.6,0.5,0.7c0.1,0,0.1,0,0.1,0.1c-0.1,0.2,0,0.3,0.1,0.5c0.1-0.1,0.2-0.1,0.2-0.2c0-0.4,0.5-0.5,0.5-0.8
		c0,0,0.1,0,0.1,0c0.1,0.1,0.2,0,0.3-0.1c0.2-0.2,0.3-0.3,0.5-0.5c0-0.1,0.2-0.1,0.1-0.2c-0.1-0.1-0.1-0.2,0-0.3
		c0.1-0.1,0.3-0.2,0.4-0.1c0.2,0.1,0.2,0,0.3-0.1c0.1-0.1,0.2-0.2,0.3-0.3c0.1-0.1,0.2-0.2,0.3-0.3c0.1-0.1,0.1-0.4,0.4-0.4
		c0,0,0-0.1,0-0.1c0-0.1,0-0.2,0.1-0.2c0.1,0,0.1,0.1,0.1,0.2c0.2-0.2,0.3-0.4,0.5-0.5c0.2-0.1,0.1-0.3,0-0.3
		c-0.3-0.1-0.2-0.2-0.1-0.3c0.1-0.1,0.1-0.2,0.2-0.3c0.1,0,0.1,0.1,0.1,0.2c0,0.1,0,0.1,0,0.2c0,0.1,0,0.1,0.1,0.1
		c0.1-0.1,0.2-0.2,0.3-0.3c0.1-0.1,0-0.1-0.1-0.2c-0.2,0-0.1-0.2,0-0.2c0.2-0.2,0.3-0.4,0.5-0.6c0.1-0.1,0.1-0.1,0.2-0.1
		c0.1,0.1,0,0.1,0,0.2c0,0,0,0.1,0,0.1c0,0,0,0.1,0,0.1c0.6-1,1-2.1,1-3.2C14.1,6.9,14.3,7.2,14.2,7.4z M2.2,5.7
		C2.1,5.6,1.9,5.5,2,5.3c0,0,0,0,0,0h0C2.2,5.3,2.3,5.5,2.2,5.7z M2.4,7c0-0.2-0.1-0.4,0.2-0.5C2.4,6.7,2.5,6.9,2.4,7z M2.8,7.8
		c0.1,0.1,0,0.2,0.1,0.3C2.7,8,2.8,7.9,2.8,7.8L2.8,7.8z M3,9.5c0,0-0.1,0-0.1-0.1C2.8,9.4,2.6,9.5,2.6,9.3c0-0.1,0.1-0.2,0.1-0.3
		c0-0.1,0.2-0.1,0.2,0C3,9.2,3.3,9.3,3.4,9.5C3.2,9.6,3.1,9.6,3,9.5L3,9.5z M3.5,2.8c0,0.1-0.1,0.1-0.1,0.1c-0.1,0,0-0.1,0-0.1
		C3.3,2.7,3.3,2.7,3.5,2.8C3.5,2.7,3.5,2.8,3.5,2.8L3.5,2.8z M3.7,9.9C3.7,9.8,3.7,9.8,3.7,9.9c0.1-0.1,0.1-0.1,0.1,0c0,0,0,0,0,0
		c0,0.1,0,0.1-0.1,0.1C3.7,10,3.7,9.9,3.7,9.9L3.7,9.9z M4.4,11.2c-0.2,0-0.3,0.2-0.5,0.2c0,0,0,0,0,0l0,0c-0.1-0.3-0.1-0.5-0.2-0.8
		c0-0.1-0.1-0.2,0.1-0.2c0.1,0,0.2,0,0.2,0.1c0.1,0.2,0.1,0.5,0.3,0.6C4.4,11.1,4.4,11.2,4.4,11.2L4.4,11.2z M4.3,2.8
		c-0.1,0.1-0.2,0-0.3-0.1c0.1-0.1,0.1-0.4,0.4-0.4C4.2,2.4,4.5,2.6,4.3,2.8L4.3,2.8z M7,12.4c-0.1,0-0.1,0-0.2-0.1s-0.1-0.1-0.1-0.2
		c0-0.2,0.1-0.1,0.2-0.2c0.2,0,0.3,0,0.4,0.2c0,0.1-0.1,0.1-0.2,0.2C7.2,12.3,7.1,12.3,7,12.4L7,12.4z M7.1,1.1
		C7.1,1.1,7,1.1,7.1,1.1C7,1.1,7,1.1,7,1.1c0,0,0,0,0,0c0,0,0,0,0-0.1C6.9,0.9,7,0.8,7,0.8c0.1,0,0.2,0.1,0.4,0.1
		C7.3,1,7.2,1,7.1,1.1L7.1,1.1z M7.7,13.8c-0.1,0-0.2-0.1-0.2-0.2c0.1-0.1,0.2,0,0.4,0C7.8,13.6,7.8,13.8,7.7,13.8L7.7,13.8z
		 M8.3,14C8.2,14,8.2,14,8.3,14c0-0.1-0.1-0.2,0-0.2c0,0,0.1,0,0.1,0C8.3,14,8.3,14,8.3,14L8.3,14z M8.9,13.6c-0.1,0-0.2,0-0.2-0.2
		c0-0.1,0-0.3,0.2-0.3c0.1,0,0.1,0.2,0.2,0.2c0,0,0,0,0,0.1c0,0,0,0,0,0.1C9,13.6,9,13.6,8.9,13.6C9,13.6,9,13.6,8.9,13.6L8.9,13.6z
		 M9,0.5L8.9,0.4c0,0,0.1,0,0.1,0C9,0.4,9.1,0.4,9,0.5C9.1,0.5,9.1,0.5,9,0.5L9,0.5z M9.8,1.3C9.7,1.3,9.7,1.3,9.8,1.3
		c0-0.1,0-0.1,0-0.1c0,0,0,0,0,0c0,0,0,0,0,0C9.8,1.2,9.8,1.2,9.8,1.3C9.8,1.3,9.8,1.3,9.8,1.3C9.8,1.3,9.8,1.3,9.8,1.3L9.8,1.3z
		 M10.3,12.2c-0.1,0-0.2-0.1-0.2-0.2c0-0.1,0.1-0.1,0.2-0.1c0.1,0,0.1,0.1,0.2,0.1C10.3,12.1,10.4,12.2,10.3,12.2z M10.7,11.7
		c-0.1,0.1-0.1,0.2-0.2,0.1c-0.1-0.1-0.1-0.2,0-0.3c0.2-0.1,0.1-0.3,0.3-0.5C10.8,11.3,10.8,11.5,10.7,11.7z M10.4,1.7
		c0.2,0.2,0.5,0.3,0.5,0.6C10.6,2.1,10.5,2,10.4,1.7z M11.9,3.2C11.9,3.2,12,3.2,11.9,3.2C12,3.2,12,3.3,12.1,3.4
		c0,0-0.1-0.1-0.1-0.1C11.9,3.3,11.9,3.2,11.9,3.2z M12,2.3c-0.1,0-0.1-0.2-0.2-0.2c0,0,0.1,0,0.1-0.1c0,0,0-0.1,0.1-0.1
		C12,2,12.1,2.1,12.2,2.2C12.1,2.3,12.1,2.3,12,2.3z M12.2,2.6C12.2,2.6,12.1,2.6,12.2,2.6c-0.1-0.1-0.1-0.2,0-0.2
		C12.2,2.5,12.2,2.5,12.2,2.6C12.2,2.6,12.3,2.7,12.2,2.6z M13.1,3.6c-0.1,0-0.2,0-0.2-0.2c0-0.1,0-0.3,0.1-0.3
		c0.1,0,0.1,0.2,0.2,0.3C13.2,3.5,13.2,3.6,13.1,3.6C13.2,3.6,13.1,3.6,13.1,3.6z M13.6,8.6C13.6,8.6,13.6,8.6,13.6,8.6
		c-0.2-0.1-0.1-0.3,0-0.4C13.7,8.4,13.8,8.5,13.6,8.6L13.6,8.6z"/>
	<path class="st0" d="M7.6,14.8c-0.1,0-0.1,0.1-0.2,0.2c-0.2,0.3,0.1,0.6-0.1,1c0.1-0.1,0.1-0.1,0.1-0.1c0.1-0.1,0.2-0.1,0.3-0.1
		c0-0.1-0.2-0.2-0.3-0.3c0-0.1-0.1-0.2,0-0.3c0.1-0.1,0.1,0.1,0.3,0.1c0-0.1,0-0.1,0-0.2C7.7,15,7.7,14.9,7.6,14.8z"/>
	<path class="st0" d="M7.3,14.8c-0.1-0.1,0.1-0.4-0.1-0.4c-0.1,0,0,0.2-0.1,0.3c0,0.1,0,0.3,0.1,0.3C7.3,15,7.4,14.9,7.3,14.8z"/>
	<path class="st0" d="M14.4,5.5c-0.1,0.1-0.2,0.1-0.1,0.3c0,0,0.1,0.1,0.1,0.1C14.5,5.8,14.3,5.7,14.4,5.5z"/>
</g>
</svg>
