<svg width="35" height="46" viewBox="0 0 35 46" fill="none" xmlns="http://www.w3.org/2000/svg">
<g clip-path="url(#clip0)">
<path d="M34.3772 21.0677C34.0177 21.7212 33.4845 22.2749 33.026 22.8735C33.202 21.8202 33.4602 20.7834 33.7981 19.7731C34.1094 18.8103 34.534 17.8899 33.967 16.8498C33.8365 16.6276 33.7844 16.3656 33.8195 16.1083C33.8547 15.8509 33.975 15.6141 34.16 15.438C34.2184 15.3937 34.2621 15.3318 34.285 15.2608C34.3079 15.1897 34.3089 15.1131 34.2879 15.0414C33.8946 14.1659 33.6437 13.1408 33.0284 12.4823C32.5724 11.9834 32.5917 11.6342 32.5965 11.1303C33.8271 11.063 33.6099 12.3526 34.2348 13.0061C34.3338 12.1056 33.8536 11.5369 33.6075 10.8959C32.529 8.09727 30.7459 5.84491 28.4972 3.97668C28.2559 3.77963 27.9302 3.17351 27.5948 3.58757C27.1557 4.13382 27.8964 4.19618 28.1401 4.45808C28.2994 4.63018 28.5358 4.80978 28.4055 5.05422C28.2535 5.34356 27.976 5.19888 27.7372 5.12655C27.0254 4.91204 26.9048 4.12883 26.4077 3.67736C26.1351 3.42793 26.5742 3.1785 26.6804 2.92907C26.7171 2.86409 26.7288 2.78719 26.7132 2.71369C26.6975 2.64019 26.6557 2.57549 26.5959 2.53246C26.0892 2.23315 25.5826 1.75176 24.9697 2.01116C24.2772 2.3005 23.8502 1.96876 23.5582 1.46741C23.4405 1.25881 23.2786 1.08045 23.0847 0.945678C22.8908 0.810909 22.67 0.723224 22.4387 0.689184C21.8162 0.551997 21.2082 0.342469 20.5857 0.215259C20.4023 0.177845 20.0018 0.0606173 20.0018 0.344968C20.0018 1.13067 19.5506 0.769 19.2224 0.734079C18.6537 0.643303 18.0732 0.784612 17.6034 1.12817C17.5021 1.21045 17.3802 1.26119 17.2521 1.27444C17.1239 1.28769 16.9947 1.26292 16.8796 1.20301C16.8306 1.17749 16.7886 1.13968 16.7575 1.09306C16.7263 1.04644 16.7069 0.992483 16.7011 0.936118C16.7421 0.611858 16.8844 0.936119 16.9809 0.906187C17.2222 0.84383 17.4297 0.72909 17.3115 0.437256C17.2464 0.275126 17.3911 -0.0616074 16.9496 -0.00174406C16.3449 0.0531564 15.753 0.210747 15.1979 0.46469C14.5681 0.764007 13.7816 1.48985 12.9636 0.729086C12.8333 0.609359 12.7586 0.641789 12.609 0.701652C11.7404 1.05335 10.8066 1.22297 9.93799 1.7343C10.4399 1.85901 10.9031 1.98373 11.3181 1.71434C11.668 1.49235 11.9286 1.58214 12.2832 1.76423C12.6838 1.97375 12.9081 2.32794 13.2073 2.60231L12.4159 3.51772C12.2977 3.1336 11.2771 2.4302 11.1926 2.64221C10.9104 3.3481 10.1696 3.49278 9.75945 4.01908C9.62916 4.1862 9.51817 4.48052 9.27689 4.37576C8.98012 4.24855 9.10317 3.91182 9.09834 3.6574C9.09834 3.34561 9.36134 3.20094 9.54712 3.04629C9.95006 2.71455 9.61951 2.54744 9.48921 2.26059C9.27206 1.79166 9.07904 2.18078 8.94392 2.26059C8.42648 2.55174 7.94521 2.90688 7.51072 3.31818C6.65901 4.06647 6.62764 4.15127 7.49142 4.77984C7.447 4.84731 7.38971 4.90467 7.32306 4.94841C7.25642 4.99216 7.18182 5.02135 7.10386 5.0342C7.0259 5.04705 6.94622 5.04328 6.86972 5.02313C6.79322 5.00298 6.72152 4.96687 6.65901 4.91702C6.36947 4.73993 6.21988 4.94696 5.99066 5.07666C5.39953 5.4084 5.35127 6.66304 4.27034 6.17167C4.23174 6.1542 4.09662 6.31384 4.02906 6.40863C3.46929 7.22676 2.91676 8.04739 2.3401 8.90293C2.48762 8.946 2.642 8.95802 2.7941 8.93831C2.9462 8.91861 3.09293 8.86756 3.2256 8.78819C3.36313 8.71835 3.54891 8.40656 3.70816 8.72833C3.73102 8.77607 3.74397 8.82823 3.74616 8.88145C3.74835 8.93468 3.73973 8.98779 3.72087 9.03736C3.702 9.08694 3.67331 9.13189 3.63663 9.16931C3.59995 9.20673 3.5561 9.23578 3.5079 9.25462C2.95778 9.4417 2.62481 10.0453 1.97095 10.0378C1.31708 10.0304 1.58731 10.7113 1.34362 11.0356C1.21092 11.2052 1.44978 11.3848 1.65005 11.4621C2.68755 11.8637 2.73339 12.0832 1.93475 12.8614C1.79921 13.0046 1.6343 13.1146 1.4522 13.1832C1.04685 13.3079 0.933445 13.5723 0.969637 13.9788C0.993765 14.333 0.969637 14.6897 0.969637 15.0439C0.385741 15.4804 0.487078 16.2088 0.385741 16.7899C0.260276 17.5208 0.880363 18.3688 0.0358848 19.0024C-0.0389119 19.0597 0.0744893 19.1046 0.146873 19.1396C0.470188 19.2967 0.532922 19.5012 0.308532 19.828C0.286855 19.8678 0.273701 19.912 0.269959 19.9575C0.266218 20.0031 0.271975 20.0489 0.286843 20.0919C0.301711 20.135 0.325343 20.1742 0.356141 20.207C0.386939 20.2398 0.424184 20.2653 0.465362 20.282C1.6235 20.6736 1.72484 21.4792 1.33397 22.5119C1.27606 22.6615 1.37499 22.906 1.09269 22.881C0.547398 22.8311 0.694578 23.1629 0.769375 23.4747C1.16494 25.0317 1.78993 26.5166 2.6224 27.8771C2.6475 27.9336 2.68329 27.9844 2.72764 28.0264C2.772 28.0684 2.82403 28.1008 2.88068 28.1217C2.93733 28.1427 2.99746 28.1516 3.05752 28.1482C3.11758 28.1447 3.17637 28.1289 3.23043 28.1016C3.63578 27.9669 4.53816 29.3288 4.28964 29.6855C4.09421 29.9723 4.19072 30.0596 4.36444 30.2268C5.02554 30.8778 5.68424 31.5338 6.34293 32.1873C6.98715 32.9007 7.89436 33.2374 8.60372 33.8659C8.78468 34.0281 9.16107 34.4995 9.43613 33.7512C9.59538 33.3097 10.4013 33.4294 10.6015 33.8385C10.92 34.5195 9.98143 34.1653 10.02 34.6916C10.3578 34.4721 10.7994 35.6269 11.0768 34.5219C11.0768 34.5045 11.2264 34.4995 11.2264 34.5095C11.3808 35.153 12.3966 34.4446 12.4328 35.3176C12.4328 35.395 12.6234 35.4024 12.7175 35.3027C12.8116 35.2029 12.9106 35.1555 12.8044 35.0233C12.6982 34.8911 12.4449 34.7165 12.7561 34.5893C12.8606 34.5627 12.971 34.5783 13.0648 34.633C13.1585 34.6877 13.2285 34.7774 13.2604 34.8836C13.3741 35.112 13.5091 35.3284 13.6634 35.5297C13.4583 35.6569 13.1808 35.4374 13.0119 35.6219C13.6272 36.2655 14.7925 35.4773 15.2461 36.5847C16.1172 36.47 15.6804 37.348 15.9989 37.6598C15.9805 37.7682 15.9279 37.8673 15.8493 37.9416C15.6081 38.1287 15.7046 37.8219 15.6298 37.7621C15.4754 37.6398 15.2003 37.3056 15.181 37.7396C15.1545 38.3407 14.7998 39.1589 15.7384 39.4457C15.7873 39.4528 15.8342 39.471 15.8755 39.4991C15.9168 39.5272 15.9516 39.5644 15.9772 39.6081C16.0029 39.6518 16.0188 39.7009 16.0238 39.7518C16.0288 39.8026 16.0228 39.854 16.0062 39.9022C15.7384 41.0944 16.455 41.6083 17.367 41.8976C17.5841 41.9675 17.5817 42.0323 17.5214 42.1196C17.1667 42.6409 17.6034 43.0001 17.6831 43.5663C17.9243 43.2271 18.3007 43.1922 18.308 42.8679C18.3321 41.7729 19.5675 41.5285 19.7967 40.5781C19.9288 40.533 20.0723 40.5401 20.1996 40.5981C20.535 40.8824 20.6991 40.6355 20.9017 40.421C21.3626 39.9221 21.8451 39.4607 22.3012 38.9668C22.4387 38.8221 22.7451 38.6825 22.4556 38.4056C22.166 38.1287 22.0647 37.7646 22.3398 37.5725C22.6148 37.3804 23.0781 36.9589 23.4038 37.2108C23.8429 37.5451 23.9684 37.2457 24.188 37.0212C24.4534 36.7519 24.7067 36.465 24.9818 36.2031C25.2568 35.9412 25.5247 35.5745 25.8359 35.2877C26.2244 34.9285 26.1713 34.1628 26.8589 34.0156C26.8951 34.0156 26.8879 33.7387 26.8855 33.5916C26.8855 33.3421 26.842 33.0279 27.093 32.9755C27.4838 32.8907 27.3174 33.392 27.5007 33.5592C27.9833 33.0603 28.449 32.549 28.9484 32.1075C29.4044 31.7109 29.1897 31.3966 28.8181 31.3118C27.9495 31.1072 28.3669 30.7855 28.6613 30.4113C28.8736 30.137 29.0473 29.8302 29.1897 29.6082C29.3522 29.7228 29.4806 29.8821 29.5603 30.068C29.64 30.254 29.6679 30.4593 29.6409 30.6608C29.6409 30.8578 29.7736 31.0798 29.8822 31.0299C30.237 30.8392 30.5055 30.5124 30.6301 30.1195C30.7845 29.7528 30.5481 29.7129 30.2586 29.6431C29.8339 29.5383 30.0848 29.1991 30.1934 29.042C30.6181 28.4259 31.0886 27.8422 31.5446 27.2486C31.6966 27.0515 31.9161 26.8869 32.1309 27.0365C32.3456 27.1862 32.2274 27.3957 32.1043 27.5878C32.0553 27.6923 32.0376 27.8096 32.0537 27.9245C32.0537 28.0118 31.9885 28.1565 32.1888 28.1889C33.8633 25.3604 35.0166 22.3772 34.867 18.9924C34.1962 19.5661 34.7174 20.4441 34.3772 21.0677ZM1.59455 16.079C1.27365 15.7772 0.887602 15.5802 0.976875 15.0564V15.0414H1.00342C1.6235 15.0738 1.77551 15.438 1.59455 16.079ZM2.03851 19.8804C2.00231 19.2743 1.86237 18.7505 2.56449 18.4212C2.22912 18.8702 2.53072 19.4214 2.03851 19.8804ZM3.2449 22.0654C3.51031 22.3647 3.2449 22.7389 3.45723 23.0432C3.04705 22.7738 3.32694 22.3896 3.24249 22.0654H3.2449ZM3.76607 26.7647C3.70333 26.6873 3.56822 26.6749 3.47412 26.6225C3.20871 26.4728 2.67307 26.9468 2.65618 26.3032C2.65618 25.9989 2.82749 25.6746 2.89746 25.3579C2.96743 25.0411 3.51272 25.1084 3.56822 25.3579C3.74435 26.1386 4.50438 26.3132 4.91938 26.9293C4.48508 27.049 4.09421 27.1787 3.76607 26.7647ZM5.10034 7.92018C5.0352 8.07482 4.93144 8.23945 4.73118 8.2145C4.58642 8.19704 4.60572 8.05736 4.59607 7.95011C4.59607 7.6882 4.75048 7.68571 4.92903 7.70068C5.06174 7.72063 5.1486 7.80793 5.10034 7.93015V7.92018ZM5.63598 27.9021C5.63598 27.7599 5.71319 27.6801 5.84107 27.7075C5.88534 27.7149 5.92505 27.7399 5.95166 27.7772C5.97828 27.8145 5.98968 27.8612 5.98342 27.9071C5.96653 28.0916 5.9593 28.2188 5.8097 28.2163C5.6022 28.2188 5.63839 28.0467 5.63598 27.912V27.9021ZM7.58793 31.6011C7.13191 31.6959 6.86409 32.2596 6.34534 32.1549C6.35741 32.1324 6.36465 32.1124 6.3743 32.0925L6.32845 32.1349C6.15473 31.3866 5.96412 30.6383 5.82177 29.8676C5.78558 29.668 5.64563 29.3488 6.09441 29.2789C6.40325 29.2315 6.56249 29.1617 6.69761 29.5558C6.90511 30.1669 6.89305 30.9202 7.60241 31.2619C7.73511 31.3367 7.76407 31.5762 7.58793 31.6111V31.6011ZM7.46729 7.82289C7.17052 8.03242 6.95819 7.68571 6.68796 7.61836C7.02093 7.24421 6.87616 6.48095 7.74477 6.46349C7.23325 6.89252 8.00293 7.45124 7.46729 7.83287V7.82289ZM14.8649 34.9959C14.6672 34.9884 14.4795 34.9037 14.3398 34.7588C14.2001 34.6139 14.1187 34.4196 14.1121 34.2152C14.0784 33.7637 14.4596 33.7986 14.7732 33.7762C15.2268 33.7412 15.6081 33.8161 15.8349 34.3449C15.7264 34.5176 15.5839 34.6648 15.4168 34.777C15.2497 34.8891 15.0617 34.9637 14.8649 34.9959ZM14.9928 3.05628C14.9394 3.07973 14.8816 3.09036 14.8237 3.08738C14.7658 3.0844 14.7092 3.0679 14.6584 3.03909C14.6075 3.01028 14.5636 2.96992 14.53 2.92106C14.4964 2.87219 14.474 2.81608 14.4644 2.75696C14.4234 2.48757 14.6429 2.37284 14.9011 2.35288C15.263 2.32544 15.5791 2.742 15.9989 2.57738C15.6636 2.73202 15.3378 2.92158 14.9928 3.04879V3.05628ZM16.6625 38.9743C16.5177 38.9444 16.0038 38.8122 16.1799 38.433C16.385 38.0115 16.8169 38.3233 17.1836 38.3358C17.0002 38.5727 17.0147 39.0391 16.6625 38.9693V38.9743ZM18.2115 39.6602C18.0691 39.6403 18.0498 39.523 18.0715 39.4108C18.0932 39.2986 18.0016 39.1614 18.1994 39.2162C18.2726 39.2443 18.3417 39.283 18.4045 39.331C18.4045 39.5929 18.349 39.6752 18.2115 39.6552V39.6602ZM20.0983 38.5278C19.8739 38.453 19.4613 38.438 19.5409 38.0988C19.5988 37.8494 19.6495 37.3879 19.9873 37.3829C20.3251 37.3779 20.272 37.8818 20.4457 37.9965C20.4695 38.0549 20.4788 38.1186 20.4727 38.1816C20.4666 38.2447 20.4453 38.3052 20.4107 38.3575C20.3761 38.4099 20.3294 38.4524 20.2749 38.4813C20.2203 38.5102 20.1596 38.5245 20.0983 38.5228V38.5278ZM20.2358 1.45494L19.9945 1.17058C20.0729 1.14225 20.1537 1.12138 20.2358 1.10823C20.3444 1.10823 20.4578 1.10822 20.4771 1.25538C20.4964 1.40255 20.4119 1.44994 20.2358 1.44994V1.45494ZM22.3108 3.75468C22.2261 3.68322 22.1521 3.59917 22.0912 3.50525C22.1778 3.4679 22.2674 3.43869 22.3591 3.41796C22.3828 3.41311 22.4072 3.4138 22.4306 3.42C22.454 3.42619 22.4757 3.43773 22.4943 3.45376C22.5128 3.46979 22.5276 3.48991 22.5376 3.51263C22.5476 3.53536 22.5525 3.56011 22.5521 3.58507C22.5159 3.76965 22.417 3.81703 22.3108 3.74969V3.75468ZM23.7151 34.4721C23.4738 34.3898 23.177 34.2626 23.1601 33.9383C23.1432 33.614 23.481 33.7787 23.6427 33.6889C23.8043 33.5991 23.9684 33.8909 24.0818 34.0805C23.8864 34.1578 24.0046 34.5669 23.7151 34.4671V34.4721ZM24.9745 33.0877C24.808 33.3895 24.5933 33.5542 24.2965 33.3372C23.9998 33.1201 24.0022 32.7909 24.2965 32.6138C24.7791 32.327 24.6922 31.7034 25.1555 31.1397C25.0928 31.9453 25.2689 32.5315 24.9745 33.0827V33.0877ZM24.1325 4.71748C24.6464 5.36351 25.4402 5.54559 25.4692 6.46349C24.6488 6.01701 24.352 5.65036 24.1325 4.7125V4.71748ZM28.1884 8.98026C28.2673 8.96049 28.3489 8.95458 28.4297 8.9628C28.502 9.17731 28.5527 9.40179 28.6251 9.67866C28.4906 9.62438 28.376 9.52771 28.2976 9.40236C28.2192 9.277 28.181 9.12933 28.1884 8.98026ZM28.5262 6.63062C28.1449 6.61316 28.1932 6.16668 27.9543 6.00205C28.042 5.97011 28.121 5.91701 28.1847 5.84716C28.2485 5.77732 28.2953 5.69275 28.3211 5.60047C28.5816 5.76696 28.7973 5.99856 28.9484 6.27392C28.8736 6.49093 28.7506 6.63811 28.5262 6.63062ZM28.9822 7.44376C28.9084 7.4169 28.8392 7.37819 28.7771 7.32903C28.7771 7.06463 28.8326 6.98232 28.9701 7.00227C29.1076 7.02223 29.1294 7.13946 29.1101 7.2517C29.0908 7.36395 29.18 7.50611 28.9822 7.44376ZM31.4408 10.2075C31.1175 10.2075 30.8666 10.1451 30.8449 9.75099C30.828 9.42174 30.9317 8.98773 31.2092 9.0027C31.6121 9.02016 31.5808 9.58637 31.8486 9.90813C31.8213 9.99707 31.7668 10.0744 31.6932 10.1284C31.6196 10.1824 31.531 10.2102 31.4408 10.2075ZM32.9271 24.3801C32.862 24.4524 32.8113 24.4674 32.7365 24.3801C32.3722 23.9785 32.6376 23.6318 32.8282 23.2726C33.0091 23.6368 33.2987 23.976 32.9271 24.3801Z" fill="#2B2726" fill-opacity="0.1"/>
<path d="M16.4118 42.0216C16.0402 41.8919 16.0209 42.3534 15.8737 42.5654C15.3091 43.381 16.156 44.289 15.478 45.2967C15.7893 45.0996 15.8568 45.0822 15.8761 45.0472C16.0668 44.6556 16.4576 44.7978 16.752 44.6856C16.6241 44.3114 16.1609 44.2316 16.045 43.8874C15.9461 43.6055 15.8592 43.2314 16.1633 42.9919C16.5662 42.6751 16.5734 43.179 16.8557 43.4185C16.8695 43.2175 16.8695 43.0158 16.8557 42.8148C16.8002 42.4931 16.6989 42.1214 16.4118 42.0216Z" fill="#2B2726" fill-opacity="0.1"/>
<path d="M15.6301 41.8495C15.4637 41.4928 15.8883 40.8518 15.331 40.7969C14.9304 40.757 15.2586 41.3232 15.1234 41.5452C15.1621 41.8944 14.9907 42.3584 15.3647 42.4457C15.6543 42.513 15.7315 42.0665 15.6301 41.8495Z" fill="#2B2726" fill-opacity="0.1"/>
<path d="M34.9372 15.6467C34.6815 15.8388 34.2954 15.9785 34.5488 16.425C34.597 16.5147 34.7659 16.632 34.8045 16.6095C35.1761 16.3701 34.8938 15.9909 34.9372 15.6467Z" fill="#2B2726" fill-opacity="0.1"/>
</g>
<path d="M13.3846 6C13.3846 17.3827 12.845 21.4617 10.9629 23.8802C9.32167 25.9904 5.61843 23.8545 7.53911 20.9446C9.44372 18.0604 14.9392 16.8174 20.4506 16.2875" stroke="white" stroke-width="1.5" stroke-miterlimit="10" stroke-linecap="round" stroke-linejoin="round"/>
<path d="M23.126 13.2717C23.0714 23.3601 22.4933 27.1436 20.7075 29.4401C19.0663 31.5502 15.3631 29.4144 17.2837 26.5045C19.1883 23.6202 24.6838 22.3773 30.1953 21.8473" stroke="white" stroke-width="1.5" stroke-miterlimit="10" stroke-linecap="round" stroke-linejoin="round"/>
<path d="M13.3268 11.4504C15.9187 10.2299 19.5224 9.57787 23.1325 9.22778" stroke="white" stroke-width="1.5" stroke-miterlimit="10" stroke-linecap="round" stroke-linejoin="round"/>
<defs>
<clipPath id="clip0">
<rect width="35" height="45.2941" fill="white"/>
</clipPath>
</defs>
</svg>
