<svg width="103" height="71" viewBox="0 0 103 71" fill="none" xmlns="http://www.w3.org/2000/svg">
<path d="M25.2734 59.6301C23.9714 60.7369 22.5195 61.5898 20.918 62.1887C19.3164 62.7747 17.6497 63.0676 15.918 63.0676C14.5898 63.0676 13.3073 62.8918 12.0703 62.5403C10.8464 62.2017 9.70052 61.72 8.63281 61.095C7.5651 60.4569 6.58854 59.7017 5.70312 58.8293C4.81771 57.9439 4.0625 56.9674 3.4375 55.8997C2.8125 54.8189 2.32422 53.6601 1.97266 52.4231C1.63411 51.1861 1.46484 49.9036 1.46484 48.5754C1.46484 47.2473 1.63411 45.9713 1.97266 44.7473C2.32422 43.5234 2.8125 42.3775 3.4375 41.3098C4.0625 40.2291 4.81771 39.2525 5.70312 38.3801C6.58854 37.4947 7.5651 36.7395 8.63281 36.1145C9.70052 35.4895 10.8464 35.0077 12.0703 34.6692C13.3073 34.3176 14.5898 34.1418 15.918 34.1418C17.6497 34.1418 19.3164 34.4413 20.918 35.0403C22.5195 35.6262 23.9714 36.4726 25.2734 37.5793L22.3438 42.4622C21.4974 41.6028 20.5208 40.9322 19.4141 40.4504C18.3073 39.9556 17.1419 39.7083 15.918 39.7083C14.694 39.7083 13.5417 39.9426 12.4609 40.4114C11.3932 40.8801 10.4557 41.5181 9.64844 42.3254C8.84115 43.1197 8.20312 44.0572 7.73438 45.1379C7.26562 46.2056 7.03125 47.3515 7.03125 48.5754C7.03125 49.8124 7.26562 50.9713 7.73438 52.052C8.20312 53.1327 8.84115 54.0767 9.64844 54.884C10.4557 55.6913 11.3932 56.3293 12.4609 56.7981C13.5417 57.2668 14.694 57.5012 15.918 57.5012C16.6211 57.5012 17.3047 57.4166 17.9688 57.2473C18.6328 57.078 19.2643 56.8437 19.8633 56.5442V48.5754H25.2734V59.6301ZM51.2773 62.4622H49.9883L47.918 59.5911C47.4102 60.0468 46.8698 60.4765 46.2969 60.8801C45.737 61.2708 45.1445 61.6158 44.5195 61.9153C43.8945 62.2017 43.25 62.4296 42.5859 62.5989C41.9349 62.7681 41.2708 62.8528 40.5938 62.8528C39.1224 62.8528 37.7357 62.6054 36.4336 62.1106C35.1445 61.6158 34.0117 60.8997 33.0352 59.9622C32.0716 59.0116 31.3099 57.8528 30.75 56.4856C30.1901 55.1184 29.9102 53.5624 29.9102 51.8176C29.9102 50.19 30.1901 48.6991 30.75 47.345C31.3099 45.9778 32.0716 44.8059 33.0352 43.8293C34.0117 42.8528 35.1445 42.0976 36.4336 41.5637C37.7357 41.0168 39.1224 40.7434 40.5938 40.7434C41.2708 40.7434 41.9414 40.828 42.6055 40.9973C43.2695 41.1666 43.9141 41.401 44.5391 41.7004C45.1641 41.9999 45.7565 42.3515 46.3164 42.7551C46.8893 43.1588 47.4232 43.595 47.918 44.0637L49.9883 41.5833H51.2773V62.4622ZM45.9062 51.8176C45.9062 51.0885 45.763 50.3853 45.4766 49.7083C45.2031 49.0181 44.8255 48.4127 44.3438 47.8918C43.862 47.358 43.2956 46.9348 42.6445 46.6223C42.0065 46.2968 41.3229 46.134 40.5938 46.134C39.8646 46.134 39.1745 46.2577 38.5234 46.5051C37.8854 46.7525 37.3255 47.1171 36.8438 47.5989C36.375 48.0806 36.0039 48.6796 35.7305 49.3958C35.457 50.0989 35.3203 50.9062 35.3203 51.8176C35.3203 52.7291 35.457 53.5429 35.7305 54.259C36.0039 54.9622 36.375 55.5546 36.8438 56.0364C37.3255 56.5181 37.8854 56.8827 38.5234 57.1301C39.1745 57.3775 39.8646 57.5012 40.5938 57.5012C41.3229 57.5012 42.0065 57.345 42.6445 57.0325C43.2956 56.7069 43.862 56.2838 44.3438 55.7629C44.8255 55.2291 45.2031 54.6236 45.4766 53.9465C45.763 53.2564 45.9062 52.5468 45.9062 51.8176ZM62.7305 62.4622H57.3594V33.2239H62.7305V62.4622ZM74.1836 70.4309H68.8125V41.5442H70.1016L72.2305 44.0637C72.7122 43.608 73.2396 43.1783 73.8125 42.7747C74.3854 42.371 74.9779 42.026 75.5898 41.7395C76.2148 41.44 76.8594 41.2056 77.5234 41.0364C78.1875 40.8671 78.8581 40.7825 79.5352 40.7825C81.0065 40.7825 82.3867 41.0494 83.6758 41.5833C84.9779 42.1041 86.1107 42.8463 87.0742 43.8098C88.0508 44.7734 88.819 45.9387 89.3789 47.3059C89.9388 48.6601 90.2188 50.164 90.2188 51.8176C90.2188 53.5364 89.9388 55.0859 89.3789 56.4661C88.819 57.8333 88.0508 58.9986 87.0742 59.9622C86.1107 60.9127 84.9779 61.6418 83.6758 62.1497C82.3867 62.6575 81.0065 62.9114 79.5352 62.9114C79.0664 62.9114 78.5977 62.8593 78.1289 62.7551C77.6732 62.651 77.2174 62.5142 76.7617 62.345C76.319 62.1627 75.8763 61.9609 75.4336 61.7395C75.0039 61.5181 74.5872 61.2903 74.1836 61.0559V70.4309ZM84.8672 51.8176C84.8672 50.9322 84.724 50.1379 84.4375 49.4348C84.1641 48.7317 83.7865 48.1392 83.3047 47.6575C82.8229 47.1627 82.2565 46.7851 81.6055 46.5247C80.9544 46.2642 80.2643 46.134 79.5352 46.134C78.806 46.134 78.1159 46.2642 77.4648 46.5247C76.8268 46.7851 76.2669 47.1627 75.7852 47.6575C75.3034 48.1392 74.9193 48.7317 74.6328 49.4348C74.3594 50.1379 74.2227 50.9322 74.2227 51.8176C74.2227 52.664 74.3594 53.4387 74.6328 54.1418C74.9193 54.845 75.3034 55.4439 75.7852 55.9387C76.2669 56.4335 76.8268 56.8176 77.4648 57.0911C78.1159 57.3645 78.806 57.5012 79.5352 57.5012C80.2643 57.5012 80.9544 57.3645 81.6055 57.0911C82.2565 56.8176 82.8229 56.4335 83.3047 55.9387C83.7865 55.4439 84.1641 54.845 84.4375 54.1418C84.724 53.4387 84.8672 52.664 84.8672 51.8176ZM101.477 35.8606C101.477 36.3554 101.379 36.8176 101.184 37.2473C101.001 37.677 100.747 38.0546 100.422 38.3801C100.096 38.6926 99.7122 38.9465 99.2695 39.1418C98.8398 39.3241 98.3776 39.4153 97.8828 39.4153C97.388 39.4153 96.9193 39.3241 96.4766 39.1418C96.0469 38.9465 95.6693 38.6926 95.3438 38.3801C95.0312 38.0546 94.7773 37.677 94.582 37.2473C94.3997 36.8176 94.3086 36.3554 94.3086 35.8606C94.3086 35.3788 94.3997 34.9231 94.582 34.4934C94.7773 34.0507 95.0312 33.6731 95.3438 33.3606C95.6693 33.0351 96.0469 32.7812 96.4766 32.5989C96.9193 32.4036 97.388 32.3059 97.8828 32.3059C98.3776 32.3059 98.8398 32.4036 99.2695 32.5989C99.7122 32.7812 100.096 33.0351 100.422 33.3606C100.747 33.6731 101.001 34.0507 101.184 34.4934C101.379 34.9231 101.477 35.3788 101.477 35.8606ZM100.559 62.4622H95.1875V41.5442H100.559V62.4622Z" fill="#2B2726"/>
<g opacity="0.3">
<path d="M38.6118 10.4488C38.4276 10.7741 38.1542 11.0486 37.9193 11.3442C38.0101 10.8225 38.1424 10.3088 38.315 9.80821C38.4745 9.33085 38.6922 8.87451 38.4028 8.35881C38.3353 8.24894 38.3081 8.119 38.3259 7.99127C38.3438 7.86355 38.4055 7.74602 38.5005 7.65885C38.5307 7.63681 38.5532 7.60589 38.565 7.57041C38.5767 7.53494 38.5771 7.49667 38.5661 7.46097C38.3645 7.02813 38.2359 6.51986 37.9205 6.19337C37.6868 5.94604 37.6967 5.77167 37.6991 5.52309C38.3311 5.48847 38.2185 6.12783 38.5388 6.45308C38.5896 6.00664 38.3435 5.72467 38.2173 5.40684C37.6645 4.01928 36.7506 2.90256 35.5993 1.97505C35.4756 1.87858 35.3074 1.57683 35.1367 1.78212C34.9104 2.05419 35.2913 2.08511 35.415 2.21496C35.4966 2.30029 35.6178 2.38933 35.551 2.51053C35.4731 2.65275 35.3309 2.58102 35.2085 2.54516C34.8436 2.4388 34.7818 2.05048 34.527 1.82788C34.3873 1.70421 34.6124 1.58054 34.6668 1.45688C34.6854 1.4244 34.6913 1.38617 34.6833 1.3496C34.6753 1.31303 34.654 1.28074 34.6235 1.25901C34.3638 1.1106 34.1041 0.87316 33.79 1.00054C33.4351 1.14523 33.2162 0.979517 33.0665 0.73218C33.0062 0.628756 32.9232 0.540325 32.8238 0.473506C32.7245 0.406687 32.6113 0.363209 32.4927 0.346332C32.1736 0.278314 31.8632 0.173197 31.5429 0.111363C31.4489 0.0928123 31.2449 0.0346905 31.2437 0.175673C31.2437 0.565228 31.0124 0.384672 30.8442 0.368595C30.5529 0.323099 30.2553 0.392727 30.0144 0.562751C29.9628 0.604161 29.9003 0.629806 29.8345 0.636606C29.7687 0.643406 29.7024 0.631076 29.6434 0.601092C29.6181 0.588213 29.5964 0.569273 29.5802 0.545968C29.564 0.522663 29.5539 0.495716 29.5506 0.467528C29.5717 0.306759 29.6446 0.467529 29.6941 0.452689C29.8178 0.421771 29.9241 0.364883 29.8635 0.220191C29.8301 0.139807 29.9043 -0.0271455 29.678 0.00377163C29.368 0.0304043 29.0645 0.108563 28.7802 0.235031C28.4574 0.382196 28.0542 0.742071 27.635 0.366119C27.5682 0.305522 27.5299 0.321599 27.4545 0.35128C27.0093 0.525652 26.5294 0.609748 26.0842 0.863268C26.3414 0.926339 26.5789 0.986936 26.7916 0.854611C26.9709 0.744546 27.1045 0.78783 27.2863 0.878108C27.4916 0.983226 27.6066 1.15883 27.7599 1.29487L27.3543 1.74873C27.2937 1.55705 26.7706 1.20954 26.7273 1.31466C26.5826 1.6634 26.2029 1.73513 25.9927 1.99731C25.9259 2.07893 25.869 2.22609 25.7454 2.17415C25.5932 2.11108 25.6563 1.94289 25.6538 1.81799C25.6538 1.6634 25.7886 1.59044 25.8851 1.51376C26.0904 1.34928 25.921 1.26643 25.8542 1.12544C25.7429 0.891712 25.644 1.08587 25.5747 1.12544C25.3104 1.27187 25.0649 1.45003 24.8438 1.65598C24.4073 2.02699 24.3912 2.06903 24.8352 2.38068C24.8122 2.41385 24.7827 2.44202 24.7485 2.4635C24.7144 2.48498 24.6762 2.49934 24.6363 2.50569C24.5965 2.51204 24.5558 2.51027 24.5166 2.50047C24.4774 2.49068 24.4407 2.47307 24.4085 2.44869C24.2589 2.36089 24.1822 2.46354 24.0647 2.52784C23.7617 2.69232 23.737 3.31314 23.183 3.06951C23.1632 3.06086 23.0939 3.14124 23.0593 3.19318C22.7724 3.59758 22.4892 4.00444 22.1936 4.42368C22.2693 4.44468 22.3483 4.45047 22.4262 4.44071C22.5041 4.43094 22.5793 4.40582 22.6475 4.36679C22.718 4.33217 22.8132 4.17758 22.8948 4.33711C22.9065 4.36078 22.9132 4.38664 22.9143 4.41303C22.9154 4.43942 22.911 4.46575 22.9013 4.49033C22.8917 4.51491 22.8769 4.5372 22.8581 4.55575C22.8393 4.5743 22.8169 4.58871 22.7922 4.59805C22.5102 4.6908 22.3395 4.98885 22.0044 4.98637C21.6693 4.9839 21.8078 5.31904 21.6829 5.47486C21.6148 5.55895 21.7385 5.64923 21.8411 5.68757C22.3717 5.88668 22.3952 5.99551 21.9858 6.38135C21.9164 6.45236 21.8318 6.50687 21.7385 6.54088C21.5307 6.60272 21.4726 6.73257 21.4912 6.93538C21.5035 7.10976 21.4912 7.2866 21.4912 7.46345C21.1919 7.67987 21.2438 8.04098 21.1919 8.32913C21.1276 8.69148 21.4454 9.11319 21.0126 9.4273C20.9742 9.45451 21.0324 9.47801 21.0695 9.49532C21.2352 9.57199 21.2673 9.67464 21.1523 9.83541C21.1412 9.85525 21.1344 9.87724 21.1325 9.8999C21.1306 9.92256 21.1335 9.94537 21.1411 9.96681C21.1488 9.98824 21.1609 10.0078 21.1767 10.0242C21.1924 10.0405 21.2116 10.0533 21.2327 10.0617C21.8263 10.2546 21.8795 10.6553 21.6779 11.1673C21.6482 11.2403 21.6989 11.3615 21.5542 11.3491C21.2748 11.3256 21.3502 11.4901 21.3885 11.6434C21.591 12.4155 21.9114 13.1518 22.3383 13.8262C22.351 13.8545 22.3693 13.8799 22.3921 13.9009C22.4149 13.922 22.4418 13.9382 22.471 13.9486C22.5002 13.959 22.5313 13.9634 22.5622 13.9615C22.5932 13.9595 22.6234 13.9514 22.6512 13.9375C22.8577 13.8719 23.3202 14.5459 23.1941 14.7228C23.0927 14.865 23.1434 14.9095 23.2312 14.9924C23.5713 15.3139 23.9076 15.6392 24.2465 15.9632C24.5767 16.3156 25.0417 16.4838 25.4053 16.7955C25.498 16.8746 25.6922 17.1096 25.8319 16.7373C25.9136 16.5184 26.3266 16.579 26.4292 16.7819C26.5925 17.1195 26.1114 16.9426 26.1312 17.2048C26.3043 17.0947 26.5307 17.6686 26.6729 17.1207C26.6729 17.1121 26.7495 17.1096 26.7495 17.1133C26.8299 17.4336 27.3506 17.0811 27.3617 17.514C27.3617 17.5523 27.4594 17.5573 27.5076 17.514C27.5559 17.4707 27.6066 17.4398 27.5522 17.3755C27.4977 17.3112 27.3679 17.2221 27.5274 17.1603C27.5808 17.147 27.6373 17.1546 27.6853 17.1815C27.7333 17.2084 27.7693 17.2525 27.7859 17.305C27.8442 17.4182 27.9133 17.5255 27.9924 17.6253C27.8873 17.6896 27.7451 17.5795 27.6585 17.6723C27.9739 17.9913 28.5712 17.6005 28.8037 18.1496C29.2501 18.0915 29.0263 18.5281 29.1895 18.6826C29.1806 18.7362 29.1535 18.7851 29.1129 18.8212C28.9892 18.9151 29.0386 18.763 29.0003 18.7334C28.9212 18.6715 28.7802 18.5058 28.7703 18.7222C28.7567 19.0203 28.5749 19.4247 29.056 19.5681C29.0811 19.5716 29.1051 19.5806 29.1263 19.5946C29.1474 19.6085 29.1652 19.627 29.1784 19.6486C29.1915 19.6703 29.1997 19.6946 29.2023 19.7199C29.2048 19.7451 29.2017 19.7706 29.1932 19.7944C29.056 20.3856 29.4233 20.6391 29.8907 20.7838C30.002 20.8172 30.0008 20.8506 29.9699 20.8938C29.7881 21.1523 30.0119 21.3292 30.054 21.6111C30.1776 21.4417 30.3693 21.4256 30.373 21.2648C30.3854 20.7207 31.0186 20.5995 31.1361 20.1296C31.2039 20.106 31.2782 20.1091 31.3438 20.1382C31.5145 20.2804 31.5986 20.158 31.7025 20.0517C31.9399 19.8043 32.186 19.5755 32.421 19.3307C32.4902 19.2577 32.6473 19.1897 32.4989 19.0512C32.3505 18.9127 32.2986 18.7346 32.4395 18.6381C32.5805 18.5417 32.818 18.3351 32.9849 18.4588C33.21 18.6245 33.2743 18.4761 33.3868 18.3661C33.5229 18.2313 33.654 18.0903 33.7937 17.9604C33.9334 17.8306 34.072 17.6475 34.2315 17.5053C34.4306 17.3272 34.4034 16.9476 34.7558 16.8746C34.7744 16.8746 34.7707 16.7386 34.7707 16.6656C34.7707 16.5419 34.7472 16.3861 34.8758 16.3589C35.0761 16.3181 34.9908 16.5667 35.0848 16.6483C35.3321 16.401 35.5708 16.1536 35.8268 15.9298C36.0605 15.7332 35.9505 15.5773 35.76 15.5353C35.3148 15.4339 35.5288 15.2743 35.6796 15.0876C35.7885 14.9528 35.8775 14.7995 35.9505 14.6906C36.0336 14.7474 36.0992 14.8261 36.1401 14.9181C36.1809 15.0101 36.1953 15.1116 36.1817 15.2113C36.1817 15.3102 36.251 15.4203 36.3054 15.3943C36.4878 15.3001 36.626 15.138 36.69 14.9429C36.7679 14.7611 36.6467 14.7426 36.4983 14.7067C36.2807 14.6548 36.4093 14.4866 36.4649 14.4099C36.6826 14.1044 36.9237 13.8138 37.1575 13.5195C37.2354 13.4218 37.3479 13.3414 37.458 13.4144C37.5681 13.4873 37.5075 13.5937 37.4444 13.6889C37.4192 13.7407 37.4102 13.7989 37.4184 13.8559C37.4184 13.8992 37.3863 13.9709 37.4877 13.987C38.3459 12.5846 38.9371 11.1055 38.8604 9.4273C38.524 9.70432 38.7862 10.1396 38.6118 10.4488ZM21.809 7.97544C21.6445 7.82704 21.4467 7.7281 21.4924 7.46839C21.4918 7.46595 21.4918 7.46341 21.4924 7.46097H21.5048C21.8275 7.47829 21.903 7.65885 21.809 7.97544ZM22.0365 9.85891C22.018 9.55839 21.9463 9.29869 22.3061 9.13545C22.1404 9.36423 22.2888 9.63383 22.0365 9.85891ZM22.6549 10.9435C22.7909 11.0919 22.6549 11.2761 22.765 11.4283C22.5535 11.291 22.6969 11.1055 22.6537 10.9447L22.6549 10.9435ZM22.9232 13.2771C22.8911 13.2388 22.8218 13.2338 22.7736 13.2066C22.6376 13.1336 22.363 13.3686 22.3544 13.0495C22.3544 12.8987 22.4422 12.7379 22.478 12.5796C22.5139 12.4213 22.7946 12.4559 22.8218 12.5796C22.9121 12.9667 23.3017 13.0545 23.5144 13.36C23.2905 13.4156 23.0902 13.4787 22.922 13.2783L22.9232 13.2771ZM23.6071 3.93519C23.5737 4.01063 23.5218 4.09225 23.4179 4.08112C23.3437 4.07246 23.3549 4.00321 23.3487 3.94879C23.3425 3.82512 23.4278 3.81894 23.5193 3.82512C23.5861 3.83131 23.6306 3.8783 23.6059 3.93643L23.6071 3.93519ZM23.8817 13.841C23.8817 13.7718 23.9213 13.7322 23.9868 13.7458C24.0095 13.7495 24.0298 13.7619 24.0435 13.7804C24.0571 13.7989 24.063 13.822 24.0598 13.8447C24.0511 13.9363 24.0474 13.9993 23.9707 13.9969C23.8644 13.9956 23.8829 13.9103 23.8804 13.8423L23.8817 13.841ZM24.8822 15.6763C24.6484 15.722 24.5112 16.0028 24.2453 15.9496C24.2512 15.9402 24.2562 15.9303 24.2601 15.9199L24.2366 15.9397C24.1476 15.5687 24.0499 15.1977 23.9781 14.8155C23.9584 14.7166 23.8866 14.5583 24.1167 14.5249C24.2749 14.5014 24.3566 14.4656 24.4258 14.6622C24.5322 14.9639 24.526 15.3374 24.8896 15.5081C24.9564 15.5402 24.9712 15.659 24.8809 15.6775L24.8822 15.6763ZM24.8203 3.88572C24.6682 3.99084 24.5594 3.81771 24.4209 3.78555C24.5928 3.60005 24.5173 3.22162 24.9638 3.21173C24.6991 3.42815 25.0936 3.69898 24.8191 3.88696L24.8203 3.88572ZM28.612 17.3507C28.5104 17.347 28.4141 17.3048 28.3424 17.2327C28.2708 17.1606 28.2292 17.064 28.2261 16.9624C28.2088 16.7398 28.4042 16.7571 28.5662 16.7448C28.7975 16.7287 28.9929 16.7645 29.1091 17.028C29.0534 17.1139 28.9802 17.1871 28.8944 17.2429C28.8085 17.2987 28.7119 17.3359 28.6108 17.352L28.612 17.3507ZM28.6775 1.52118C28.6502 1.53281 28.6205 1.53809 28.5909 1.53661C28.5612 1.53513 28.5322 1.52694 28.5061 1.51266C28.4801 1.49838 28.4576 1.47837 28.4404 1.45414C28.4231 1.42991 28.4116 1.4021 28.4067 1.37278C28.3857 1.23922 28.4995 1.18233 28.6305 1.17244C28.816 1.1576 28.9781 1.36412 29.1932 1.28374C29.0213 1.35918 28.8531 1.44946 28.6763 1.51624L28.6775 1.52118ZM29.5333 19.3294C29.4591 19.3158 29.1957 19.2503 29.286 19.0611C29.3763 18.8719 29.6125 19.0067 29.8004 19.0128C29.7052 19.134 29.7126 19.3591 29.5321 19.3245L29.5333 19.3294ZM30.3273 19.6708C30.2543 19.6609 30.2457 19.6015 30.2555 19.5471C30.263 19.5112 30.2197 19.4234 30.3211 19.4519C30.3588 19.4649 30.3942 19.4837 30.4262 19.5075C30.4262 19.6349 30.3965 19.6745 30.326 19.6658L30.3273 19.6708ZM31.2944 19.1093C31.1793 19.0722 30.9691 19.0648 31.0087 18.8966C31.0384 18.7729 31.0643 18.5429 31.2375 18.5417C31.4106 18.5404 31.3834 18.789 31.4724 18.8459C31.4842 18.8749 31.4885 18.9064 31.485 18.9376C31.4815 18.9687 31.4703 18.9985 31.4523 19.0241C31.4344 19.0498 31.4103 19.0706 31.3823 19.0846C31.3543 19.0986 31.3232 19.1054 31.2919 19.1044L31.2944 19.1093ZM31.3661 0.72847L31.2424 0.587487C31.2828 0.573666 31.3241 0.562916 31.3661 0.555332C31.423 0.555332 31.4799 0.555332 31.4898 0.629533C31.4996 0.703734 31.4539 0.722286 31.3649 0.723523L31.3661 0.72847ZM32.4284 1.86746C32.3851 1.83424 32.3472 1.79462 32.3159 1.74997C32.3603 1.73185 32.4062 1.71778 32.4531 1.70792C32.4653 1.70552 32.4778 1.70586 32.4898 1.70894C32.5018 1.71201 32.5129 1.71773 32.5224 1.72568C32.5319 1.73363 32.5395 1.7436 32.5446 1.75487C32.5498 1.76613 32.5523 1.77841 32.5521 1.79078C32.5286 1.87364 32.4816 1.89466 32.4272 1.86251L32.4284 1.86746ZM33.1469 17.0935C33.0232 17.0527 32.8724 16.9896 32.8637 16.8289C32.8551 16.6681 33.027 16.7485 33.1111 16.7052C33.1951 16.6619 33.278 16.8054 33.3374 16.8981C33.2347 16.9389 33.2953 17.1417 33.1469 17.0935ZM33.7925 16.4059C33.7084 16.5568 33.5971 16.6384 33.445 16.5296C33.2928 16.4208 33.2941 16.26 33.4511 16.1722C33.6985 16.0287 33.6527 15.7208 33.8902 15.4413C33.8543 15.842 33.947 16.1326 33.7925 16.4059ZM33.3609 2.33987C33.6243 2.66017 34.0311 2.75169 34.046 3.20555C33.6255 2.98789 33.4734 2.80981 33.3609 2.33987ZM35.4397 4.45707C35.4801 4.44686 35.5219 4.44351 35.5634 4.44718C35.6005 4.55477 35.6265 4.66483 35.6636 4.8021C35.5946 4.77558 35.5358 4.72791 35.4956 4.66594C35.4554 4.60396 35.4358 4.53085 35.4397 4.45707ZM35.6129 3.29088C35.4175 3.28346 35.4422 3.06086 35.3198 2.98047C35.3648 2.96424 35.4054 2.93765 35.4382 2.90285C35.4711 2.86805 35.4953 2.82601 35.509 2.78013C35.6417 2.86418 35.752 2.97919 35.8305 3.11527C35.7909 3.22162 35.7279 3.29583 35.6129 3.29088ZM35.8466 3.69404C35.8092 3.68033 35.7738 3.66161 35.7415 3.63839C35.7415 3.50606 35.7699 3.46649 35.8404 3.47514C35.9109 3.4838 35.9233 3.5444 35.9121 3.59881C35.901 3.65323 35.948 3.72619 35.8466 3.69404ZM37.1043 5.06428C36.9386 5.06428 36.81 5.03337 36.7988 4.83921C36.7902 4.67596 36.8434 4.46078 36.9856 4.4682C37.1921 4.47686 37.1773 4.75635 37.3133 4.91712C37.2995 4.96121 37.2715 4.99951 37.2337 5.02611C37.196 5.05271 37.1505 5.06613 37.1043 5.06428ZM37.8661 12.0924C37.8327 12.127 37.8067 12.1356 37.7684 12.0924C37.5817 11.8933 37.7177 11.7214 37.8154 11.542C37.9106 11.7238 38.059 11.8908 37.8686 12.0924H37.8661Z" fill="#2B2726"/>
<path d="M29.4046 20.8395C29.2142 20.7739 29.2031 21.0027 29.1276 21.1079C28.8382 21.5135 29.2723 21.9636 28.9248 22.462C29.0843 22.3656 29.119 22.3569 29.1289 22.3383C29.2266 22.143 29.4269 22.2147 29.5778 22.1578C29.5122 21.9723 29.276 21.934 29.2154 21.7633C29.1647 21.6223 29.1202 21.438 29.276 21.3193C29.4838 21.1623 29.4863 21.4108 29.631 21.5296C29.638 21.4303 29.638 21.3307 29.631 21.2315C29.6025 21.072 29.5506 20.889 29.4046 20.8395Z" fill="#2B2726"/>
<path d="M29.0027 20.753C28.9174 20.5774 29.1363 20.2583 28.8494 20.2311C28.6441 20.2126 28.8123 20.492 28.743 20.6021C28.7628 20.7765 28.675 21.0053 28.8667 21.0486C29.0151 21.0832 29.0547 20.8655 29.0027 20.753Z" fill="#2B2726"/>
<path d="M38.8987 7.75659C38.7676 7.85182 38.571 7.92107 38.6996 8.14368C38.7243 8.18696 38.8109 8.24632 38.8307 8.23395C39.0211 8.1276 38.8764 7.9322 38.8987 7.75659Z" fill="#2B2726"/>
</g>
<g opacity="0.3">
<path d="M59.6164 9.45854C59.6535 9.1741 59.5434 8.928 59.4507 8.66706C59.327 8.32203 59.139 7.94607 59.489 7.60351C59.507 7.58083 59.5193 7.55418 59.5249 7.52579C59.5304 7.49739 59.5292 7.46808 59.5212 7.44027C59.3183 7.00743 59.1873 6.49916 58.8694 6.17514C58.6308 5.92781 58.6592 5.7522 58.6592 5.5197C59.3035 5.46653 59.1959 6.096 59.4816 6.44227C59.3159 4.91496 57.2259 2.19426 56.0819 1.75771C56.103 1.99886 56.1054 1.99515 56.307 2.15592C56.4196 2.2462 56.5927 2.36121 56.4987 2.50838C56.4047 2.65554 56.2155 2.55908 56.0782 2.48611C55.9013 2.38836 55.7605 2.23624 55.6768 2.05227C55.5931 1.86829 55.5708 1.66224 55.6132 1.46462C55.6219 1.42999 55.6132 1.36444 55.5922 1.35084C55.3449 1.19502 55.0901 0.942735 54.7946 1.00952C54.3976 1.09856 54.1515 0.986017 53.9375 0.674372C53.9047 0.617577 53.8609 0.567883 53.8087 0.52818C53.7564 0.488478 53.6968 0.45956 53.6333 0.443113C53.2029 0.349125 52.7899 0.174755 52.3373 0.174755C52.2705 0.174755 52.1728 0.0609785 52.179 0.235351C52.1901 0.548232 52.0021 0.451769 51.8327 0.410958C51.5854 0.351597 51.364 0.28729 51.1315 0.516077C51.0616 0.580164 50.9743 0.622207 50.8806 0.636945C50.7869 0.651683 50.6909 0.638463 50.6047 0.598936C50.5602 0.572966 50.5057 0.50742 50.5094 0.465372C50.5218 0.297183 50.601 0.465374 50.648 0.444351C50.7778 0.402304 50.8953 0.370151 50.8124 0.174755C50.7741 0.0807667 50.8124 -0.0181699 50.6467 0.00285376C50.0432 0.0782915 49.5016 0.361492 48.9215 0.512367C48.8572 0.529681 48.8078 0.601409 48.7571 0.521025C48.5703 0.229167 48.3403 0.41467 48.1387 0.475268C47.8061 0.577913 47.4858 0.722603 47.1234 0.859875C47.3238 0.917999 47.5229 0.99344 47.6589 0.882138C48.0089 0.595227 48.2203 0.882137 48.464 1.03549C48.58 1.12178 48.6903 1.21555 48.7942 1.31621C48.5454 1.43786 48.3446 1.63949 48.2241 1.8888C48.1635 1.71319 48.4046 1.51779 48.1523 1.4473C47.9829 1.39907 47.8308 1.28901 47.6168 1.48316C47.3064 1.76513 46.9033 1.94445 46.6102 2.36863C46.5941 1.98031 46.5323 1.69464 46.8229 1.50295C46.9466 1.41886 47.0022 1.32239 46.8551 1.1876C46.74 1.08124 46.677 1.04785 46.5323 1.16534C46.301 1.35331 46.0376 1.49306 45.7828 1.66001C45.3451 1.9531 45.3451 2.04833 45.8039 2.44036C45.0619 2.22517 44.8306 2.96719 44.3458 3.13414C43.6731 3.3654 43.6273 3.99981 43.1858 4.34114C43.3824 4.50933 43.49 4.38319 43.6013 4.34114C43.7126 4.29909 43.8252 4.18903 43.8845 4.35351C43.896 4.38168 43.9008 4.4121 43.8985 4.44242C43.8963 4.47274 43.8871 4.50214 43.8717 4.52834C43.8562 4.55453 43.835 4.57682 43.8095 4.59347C43.7841 4.61012 43.7552 4.62068 43.725 4.62434C43.4653 4.68989 43.2983 4.94588 43.0028 4.97556C42.7072 5.00524 42.6874 5.30823 42.638 5.50239C42.5947 5.67676 42.8334 5.64213 42.9669 5.68418C43.2241 5.7658 43.281 5.95749 43.119 6.17885C43.0263 6.32535 42.8882 6.43742 42.7258 6.49792C42.4933 6.56593 42.4104 6.72176 42.4388 6.96167C42.4487 7.12353 42.4487 7.28584 42.4388 7.44769C42.0802 7.8187 42.1816 8.28493 42.1767 8.73261C42.1767 8.99107 42.3498 9.07146 42.5316 9.16916C42.5939 9.20942 42.646 9.26361 42.6837 9.32745C42.7431 9.41155 42.6194 10.506 42.544 10.5641C42.5008 10.6017 42.4453 10.622 42.3881 10.621C42.0171 10.5691 42.0542 10.8115 42.1148 11.0267C42.3441 11.9352 42.6947 12.8088 43.1574 13.6237C43.3441 13.9353 43.4826 14.3212 43.7955 14.5017C44.1752 14.7194 44.4448 14.9803 44.5709 15.3934C44.7205 15.8806 45.2869 15.6692 45.5466 15.9734C45.5565 15.9858 45.6023 15.9895 45.6085 15.9808C45.8447 15.6519 46.0376 15.9487 46.1427 16.0736C46.2812 16.2368 46.693 16.1725 46.5805 16.4965C46.4828 16.7785 46.1897 16.4149 46.0215 16.5893C46.1992 16.719 46.3855 16.8363 46.5793 16.9405C47.7393 17.6145 49.0118 17.9175 50.3239 18.0436C50.8594 18.0955 51.437 18.1537 51.9156 17.753C52.0215 17.6631 52.1547 17.6115 52.2936 17.6066C52.4325 17.6016 52.569 17.6436 52.6811 17.7258C52.8616 17.8383 53.0422 17.7938 53.2289 17.7616C53.5084 17.7134 53.7681 17.3981 53.9276 17.4141C54.5361 17.476 54.9318 17.0654 55.4117 16.8638C55.497 16.8267 56.0535 16.7401 55.659 16.3469C55.7369 16.2789 55.659 16.013 55.915 16.1614C56.0387 16.2319 56.2019 16.4087 56.3404 16.2331C56.6718 15.8213 57.1579 15.6011 57.5165 15.2079C57.8059 14.8888 57.4782 14.524 57.7465 14.2433C57.8603 14.1196 57.9011 13.9069 57.6018 13.8661C57.5264 13.8562 57.4621 13.7634 57.5734 13.6793C57.6847 13.5952 57.6303 13.3788 57.7267 13.3083C57.9629 13.1352 58.0235 12.7271 58.4391 12.7419C58.4081 12.8347 58.3884 12.8978 58.3673 12.9608C58.3377 13.0573 58.0866 13.1711 58.3166 13.2391C58.491 13.2898 58.7396 13.6101 58.8818 13.2997C58.9882 13.061 59.4321 12.7716 58.9399 12.4538C58.8373 12.3882 58.9832 12.3153 59.0079 12.2436C59.118 11.927 59.5026 11.8317 59.5879 11.4892C59.7722 10.7806 59.9454 10.3378 59.6164 9.54387C59.6094 9.51586 59.6094 9.48655 59.6164 9.45854ZM42.7765 7.97452C42.6009 7.81499 42.4055 7.7111 42.4487 7.45758C42.4482 7.45472 42.4482 7.45179 42.4487 7.44893H42.4611C42.7876 7.46253 42.8494 7.65669 42.7765 7.97328V7.97452ZM57.2147 4.66763C56.9773 4.64908 56.8821 4.52046 56.8734 4.26941C57.0713 4.35722 57.2778 4.38814 57.2147 4.66763ZM56.9959 3.62263C56.9377 3.65354 56.8722 3.71167 56.8388 3.6993C56.7785 3.66691 56.73 3.61626 56.7003 3.55461C56.6916 3.54224 56.7324 3.47299 56.7596 3.46433C56.8499 3.44207 56.8833 3.52988 56.9959 3.61644V3.62263ZM56.4678 2.77426C56.5915 2.87443 56.7485 2.95482 56.7708 3.11806C56.7856 3.22071 56.6768 3.28254 56.5333 3.2912C56.3874 3.27636 56.4097 3.06859 56.286 3.00428L56.4678 2.77426ZM56.6879 4.8556C56.4406 4.70225 56.3874 4.59095 56.3985 4.44873C56.4241 4.43706 56.4529 4.43444 56.4802 4.44131C56.6471 4.50933 56.5222 4.66763 56.6879 4.84942V4.8556ZM55.7233 2.56526C55.4537 2.71243 55.2225 2.74582 54.9232 2.44159C55.2645 2.38347 55.4995 2.35132 55.7233 2.56526ZM54.9689 3.00057C54.9875 3.06859 55.058 3.14032 54.9689 3.17866C54.9507 3.18994 54.9302 3.19708 54.9088 3.1996C54.8875 3.20212 54.8659 3.19994 54.8456 3.19322C54.8252 3.18651 54.8065 3.17541 54.7908 3.16072C54.7752 3.14603 54.763 3.12809 54.755 3.10817C54.614 2.84105 54.3209 2.70006 54.1849 2.36616C54.5472 2.47128 54.8552 2.59618 54.9689 3.00057ZM53.3538 1.69216C53.4194 1.69216 53.4973 1.67238 53.5146 1.78863C53.496 1.80841 53.4738 1.8517 53.4453 1.85788C53.3637 1.87396 53.3217 1.81336 53.287 1.75029C53.2524 1.68722 53.3204 1.69958 53.3476 1.69216H53.3538ZM53.5913 2.53064C53.4317 2.6543 53.4095 2.39707 53.2771 2.47622C53.4256 2.32782 53.501 2.42428 53.5851 2.53064H53.5913ZM53.1782 3.49525C53.5702 3.7599 53.6457 2.93256 54.1008 3.26152C54.3481 3.43713 54.5955 3.49896 54.6165 3.87367C54.635 4.1408 54.8873 4.3127 55.1433 4.41658C55.2923 4.465 55.4299 4.54326 55.5477 4.6466C55.6454 4.7443 55.5996 4.87168 55.5799 4.9632C55.5601 5.05471 55.424 5.06213 55.3177 5.03863C55.0671 4.98837 54.8339 4.87383 54.6409 4.70623C54.4479 4.53864 54.3019 4.32376 54.217 4.08267C54.0934 3.7834 53.3427 3.588 53.104 3.78835C53.0385 3.62881 53.1399 3.47299 53.172 3.49525H53.1782ZM52.6638 2.11387C52.7281 2.28577 52.9729 2.23754 52.9618 2.44283C52.9601 2.46017 52.9542 2.47684 52.9447 2.49145C52.9353 2.50605 52.9224 2.51816 52.9072 2.52677C52.8921 2.53537 52.8751 2.54021 52.8577 2.54089C52.8403 2.54156 52.823 2.53804 52.8072 2.53064C52.5871 2.46262 52.6007 2.31793 52.6576 2.11387H52.6638ZM52.529 0.67932C52.5015 0.698337 52.4699 0.710761 52.4369 0.71563C52.4038 0.720499 52.37 0.717681 52.3382 0.707395C52.3064 0.697109 52.2774 0.679631 52.2534 0.656317C52.2294 0.633004 52.2112 0.604485 52.2 0.572967C52.2273 0.555153 52.2583 0.543712 52.2907 0.539495C52.323 0.535278 52.3559 0.538393 52.3869 0.548606C52.4179 0.558818 52.4462 0.575865 52.4697 0.598491C52.4933 0.621117 52.5114 0.648743 52.5228 0.67932H52.529ZM51.3121 1.754C51.4901 1.61302 51.6954 1.73421 51.9131 1.66743C51.876 1.75771 51.8747 1.77749 51.8649 1.78368C51.698 1.86964 51.5134 1.91538 51.3257 1.91724C51.3133 1.86035 51.2824 1.77255 51.3059 1.754H51.3121ZM50.6405 1.17399C50.9225 1.08372 50.8335 1.3731 50.993 1.44607C50.7457 1.5586 50.6059 1.53882 50.5379 1.3224C50.5082 1.23212 50.5799 1.19254 50.6405 1.17399ZM50.4934 2.799C50.4934 2.83926 50.4853 2.8791 50.4694 2.91611C50.4536 2.95313 50.4304 2.98653 50.4013 3.01429C50.3721 3.04206 50.3376 3.0636 50.2999 3.07761C50.2621 3.09163 50.2219 3.09781 50.1817 3.0958C50.0148 3.07679 49.852 3.03128 49.6994 2.961C49.6818 2.95572 49.6657 2.94633 49.6524 2.9336C49.6391 2.92087 49.629 2.90516 49.623 2.88778C49.6169 2.87039 49.6151 2.85181 49.6176 2.83358C49.6202 2.81535 49.627 2.79799 49.6376 2.78292C49.6721 2.72353 49.7267 2.67843 49.7916 2.65575C49.8564 2.63307 49.9273 2.63432 49.9913 2.65925C50.0623 2.65056 50.1342 2.65056 50.2052 2.65925C50.3079 2.68893 50.5057 2.56526 50.4921 2.799H50.4934ZM49.3618 1.29148C49.3826 1.24504 49.4181 1.20671 49.4627 1.18236C49.5074 1.15801 49.5588 1.14899 49.6091 1.15668C49.7773 1.17523 49.9406 1.28035 50.1323 1.1777C50.0642 1.40773 49.8317 1.38423 49.7229 1.53263C49.6339 1.6563 49.5485 1.59076 49.4756 1.50542C49.4212 1.44235 49.3148 1.38918 49.3606 1.29148H49.3618ZM49.1305 3.33819C49.1194 3.41858 49.0291 3.54101 48.9302 3.50885C48.8846 3.48887 48.8441 3.45896 48.8116 3.4213C48.7791 3.38364 48.7554 3.33919 48.7422 3.2912C48.7175 3.15516 48.8523 3.2071 48.9277 3.1935C49.0328 3.18979 49.1454 3.22071 49.1293 3.33819H49.1305ZM48.9549 1.97784C49.044 2.02483 48.9834 2.10151 48.9302 2.15345C48.7385 2.32782 48.5592 2.29319 48.3836 2.0879C48.5703 1.94692 48.7534 1.87148 48.9537 1.97537L48.9549 1.97784ZM48.4145 2.48859C48.6693 2.56526 48.6433 2.77426 48.6334 2.98944C48.4306 2.91772 48.2278 2.85836 48.2117 2.61844C48.2217 2.57454 48.2486 2.53635 48.2866 2.51206C48.3245 2.48778 48.3704 2.47935 48.4145 2.48859ZM46.9602 2.53064C47.0158 2.20539 47.4177 2.3068 47.5426 2.06441L47.7257 2.1955C47.5637 2.39955 47.4561 2.67533 47.1135 2.64441C47.0319 2.66667 46.9404 2.65925 46.9614 2.53064H46.9602ZM46.3802 3.19968C46.562 3.04262 46.8031 2.97955 46.975 2.79776C47.0467 2.72356 47.0987 2.85094 47.1321 2.92143C47.1321 3.06983 46.5521 3.426 46.4086 3.3654C46.3909 3.36156 46.3748 3.35249 46.3623 3.33936C46.3498 3.32624 46.3416 3.30966 46.3386 3.29179C46.3357 3.27392 46.3382 3.25558 46.3458 3.23916C46.3535 3.22273 46.3659 3.20898 46.3814 3.19968H46.3802ZM45.4749 3.58677C45.5503 3.41981 45.5813 3.17248 45.8719 3.21576C45.9312 3.36169 45.7124 3.47794 45.8373 3.61644C45.9622 3.75495 45.8645 3.84028 45.7569 3.88233C45.705 3.90868 45.6464 3.91865 45.5888 3.91092C45.5311 3.90319 45.4772 3.87813 45.4341 3.83905C45.3228 3.73145 45.4465 3.64736 45.4761 3.58677H45.4749ZM44.9617 4.98793C45.0771 4.9525 45.18 4.88495 45.2584 4.79319C45.3368 4.70143 45.3874 4.58925 45.4044 4.46976C45.6406 4.84818 45.5503 5.12025 45.3376 5.39356C45.1682 5.61122 45.0297 5.36388 44.8726 5.37501C44.8318 5.37501 44.6451 5.35646 44.6649 5.213C44.6847 5.06955 44.8529 5.02874 44.9629 4.98793H44.9617ZM45.2795 6.01314C45.235 6.1467 45.1558 6.22461 45.0173 6.19864C44.9394 6.1838 44.8269 6.14175 44.8776 6.04406C44.9003 5.98097 44.9437 5.92743 45.0008 5.89218C45.0578 5.85692 45.1251 5.84202 45.1917 5.8499C45.303 5.86845 45.2634 5.95625 45.2808 6.01314H45.2795ZM44.4448 3.81431C44.4992 3.81431 44.5684 3.81431 44.5684 3.89717C44.5625 3.9395 44.5436 3.97896 44.5144 4.01016C44.4851 4.04137 44.447 4.0628 44.4052 4.07154C44.3347 4.08638 44.3112 4.03197 44.3075 3.96766C44.2988 3.86625 44.3248 3.80195 44.4448 3.81431ZM44.4015 6.25058C44.5251 6.21472 44.5758 6.34704 44.6389 6.43608C44.5462 6.47813 44.6117 6.63766 44.4621 6.64632C44.396 6.65002 44.3306 6.63143 44.2763 6.59354C44.222 6.55565 44.1821 6.50064 44.1628 6.43732C44.1282 6.30871 44.3075 6.27531 44.4015 6.25058ZM43.4492 7.75934C43.5494 7.90032 43.4492 8.07469 43.5197 8.22556C43.3812 8.09448 43.4356 7.92381 43.4492 7.75934ZM43.7262 13.615C43.6347 13.5532 43.5073 13.4914 43.5197 13.359C43.5259 13.2935 43.6211 13.2354 43.6916 13.1587C43.7732 13.2947 43.8623 13.385 43.8598 13.5211C43.8586 13.6113 43.8091 13.6694 43.7262 13.615ZM44.0181 13.986C43.992 13.9771 43.9681 13.9628 43.9479 13.944C43.9276 13.9253 43.9115 13.9025 43.9006 13.8772C43.8796 13.7882 43.9699 13.8376 44.002 13.8166C44.0626 13.8166 44.1257 13.8166 44.1257 13.8995C44.1257 13.9823 44.075 14.0046 44.0181 13.9836V13.986ZM44.3334 12.5824C44.2741 12.6739 44.1479 12.7061 44.1047 12.6529C43.8672 12.3882 43.5543 12.5292 43.2662 12.4699C43.4393 12.3759 43.4344 12.1916 43.4925 12.0469C43.5296 11.9554 43.5259 11.8256 43.631 11.8107C43.6879 11.8033 43.7807 11.9035 43.8239 11.974C43.9266 12.1496 43.9983 12.345 44.237 12.3895C44.2815 12.3969 44.4138 12.4587 44.3334 12.5824ZM44.4064 10.626C44.5907 10.8844 44.681 11.1095 44.582 11.4249C44.5404 11.5489 44.5266 11.6805 44.5416 11.8105C44.5565 11.9404 44.5999 12.0655 44.6686 12.1768C44.7181 12.2534 44.723 12.3004 44.65 12.3511C44.5771 12.4018 44.5004 12.3091 44.4917 12.2732C44.4225 11.9566 44.1207 11.6908 44.2667 11.3309C44.3582 11.1169 44.2197 10.8646 44.4101 10.626H44.4064ZM44.4237 10.0373C44.4893 10.2438 44.5387 10.3811 44.3149 10.5406C44.3174 10.3626 44.2481 10.2191 44.4274 10.0373H44.4237ZM44.6525 14.4238C44.5886 14.3993 44.5335 14.3562 44.4942 14.3002C44.4853 14.2895 44.4795 14.2765 44.4775 14.2627C44.4754 14.2489 44.4773 14.2348 44.4828 14.222C44.4883 14.2092 44.4973 14.1981 44.5087 14.1901C44.5201 14.1821 44.5335 14.1774 44.5474 14.1765C44.65 14.1641 44.6884 14.2532 44.7391 14.3187C44.7403 14.3756 44.7304 14.4473 44.6562 14.4238H44.6525ZM44.9246 7.1447C44.7935 7.37844 44.8764 7.68884 44.6587 7.88671C44.9914 8.0042 44.7057 8.22557 44.7304 8.39376C44.7787 8.72766 44.6488 8.98489 44.1677 8.98613C44.4806 8.67819 44.4077 8.29606 44.4546 7.96586C44.4967 7.6703 44.5956 7.37225 44.5647 7.06679C44.5449 6.87387 44.7218 6.885 44.812 6.82688C44.8535 6.80993 44.8995 6.8082 44.9421 6.82201C44.9847 6.83583 45.021 6.86428 45.0445 6.90231C45.1991 7.08782 44.9716 7.06679 44.9283 7.14099L44.9246 7.1447ZM44.953 11.2258C44.9385 11.1415 44.9502 11.0549 44.9865 10.9775C45.0227 10.9001 45.0818 10.8357 45.1558 10.7929C45.3413 10.6693 45.1126 10.3477 45.423 10.2982C45.5182 10.5097 45.7457 10.736 45.3178 10.8115C45.2968 10.8115 45.2869 10.8857 45.2746 10.9265C45.2276 11.0724 45.1991 11.2307 45.0458 11.3086C45.0347 11.3198 44.9642 11.2641 44.9518 11.2295L44.953 11.2258ZM45.3611 15.1448C45.2993 15.1337 45.2251 15.1324 45.2214 15.1164C45.1509 14.7701 45.0866 14.4214 45.0223 14.0738C45.146 14.0738 44.9407 13.8698 45.1361 13.8945C45.2375 13.9069 45.3191 13.9489 45.3401 14.0281C45.3882 14.2881 45.478 14.5387 45.606 14.7701C45.7247 14.9507 45.4897 15.0558 45.3648 15.1485L45.3611 15.1448ZM46.2528 15.2104C46.2639 15.0706 46.3406 14.8876 46.4111 14.9321C46.6374 15.0768 47.0034 14.9544 47.1185 15.2425C47.2026 15.4565 46.954 15.4305 46.8649 15.3921C46.6708 15.3105 46.4828 15.2091 46.2565 15.2141L46.2528 15.2104ZM47.1185 16.2801C47.0232 16.2343 46.9429 16.1849 46.9664 16.0934C46.9787 16.0402 47.0814 15.9561 47.09 15.9697C47.1605 16.0142 47.252 16.0748 47.2681 16.1453C47.3015 16.2529 47.116 16.1688 47.1209 16.2838L47.1185 16.2801ZM47.8011 16.8811C47.7786 16.8966 47.7526 16.9064 47.7255 16.9097C47.6983 16.9129 47.6708 16.9095 47.6453 16.8997C47.5154 16.8057 47.5785 16.6808 47.6329 16.4767C47.7504 16.6536 47.8741 16.7327 47.8036 16.8848L47.8011 16.8811ZM47.9248 14.7788C47.8983 14.7799 47.872 14.7743 47.8482 14.7626C47.8244 14.7509 47.804 14.7334 47.7887 14.7118C47.7735 14.6901 47.7639 14.665 47.7609 14.6386C47.7578 14.6123 47.7615 14.5857 47.7714 14.5611C47.8753 14.3039 48.0769 14.2099 48.3527 14.2705C48.2612 14.4968 48.2686 14.7998 47.9198 14.7788H47.9248ZM48.1202 16.9343C48.0781 16.8935 48.0324 16.8712 48.0287 16.8428C48.0138 16.7463 48.0806 16.7265 48.1585 16.7377C48.1951 16.7458 48.2304 16.7587 48.2636 16.776L48.1202 16.9343ZM49.3927 15.4787C49.3668 15.6259 49.1763 15.5814 49.0477 15.5838C48.7558 15.663 48.5641 15.3118 48.2673 15.3959C48.2562 15.3959 48.2006 15.3303 48.2067 15.3068C48.2327 15.2215 48.2921 15.1337 48.3861 15.1498C48.7336 15.2091 48.7027 15.0916 48.5209 14.8876C48.4726 14.8319 48.4182 14.7639 48.5209 14.7157C48.5938 14.686 48.7373 14.6637 48.7187 14.7874C48.6717 15.109 48.9178 15.1287 49.1071 15.2054C49.2456 15.2623 49.4187 15.3316 49.3927 15.4787ZM49.4385 16.4347C49.4385 16.3555 49.4496 16.285 49.551 16.2949C49.5943 16.2949 49.6636 16.2714 49.6747 16.3543C49.6005 16.4075 49.6561 16.5447 49.53 16.5522C49.4422 16.5571 49.4422 16.4916 49.4385 16.4347ZM49.7538 15.407C49.8416 15.407 49.9097 15.4354 49.8639 15.5307C49.8321 15.5775 49.7933 15.6192 49.7489 15.6543C49.7111 15.5954 49.6792 15.5328 49.6537 15.4676C49.624 15.3662 49.7266 15.4367 49.7538 15.407ZM49.7415 17.8804C49.6265 17.8804 49.5387 17.816 49.5349 17.7047C49.5349 17.5737 49.7031 17.6268 49.7526 17.539C49.7946 17.6306 49.9567 17.5798 49.9715 17.706C49.9233 17.8173 49.8614 17.8903 49.7415 17.8841V17.8804ZM50.9584 17.5489C50.7692 17.6726 50.6504 17.4982 50.4019 17.4599C50.6838 17.2806 50.8335 17.3832 50.9819 17.4599C51.0462 17.4957 50.9769 17.5403 50.9584 17.5526V17.5489ZM50.9002 15.0756C50.7045 15.0008 50.5025 14.9433 50.2967 14.9037C50.6677 14.6143 51.108 14.7157 51.6052 14.6922C51.4135 15.0001 51.3034 15.2672 50.9002 15.0768V15.0756ZM51.3504 15.3229C51.3643 15.2927 51.3861 15.2669 51.4136 15.2481C51.441 15.2294 51.473 15.2185 51.5062 15.2166C51.5394 15.2147 51.5724 15.2218 51.6019 15.2373C51.6313 15.2528 51.6559 15.2759 51.6732 15.3043C51.7968 15.4515 51.9069 15.6148 52.0652 15.8312C51.761 15.7965 51.6645 15.5937 51.4976 15.5035C51.4122 15.4565 51.291 15.4268 51.3504 15.3229ZM52.7911 16.0748C52.4869 16.2319 52.1975 16.4322 51.7536 16.4829C51.8933 16.2529 52.085 16.2603 52.1035 16.0773C52.1406 15.7199 52.4102 15.736 52.6712 15.7619C52.7491 15.7706 52.8554 15.7186 52.8839 15.8485C52.8975 15.8911 52.8956 15.9371 52.8786 15.9785C52.8617 16.0199 52.8307 16.054 52.7911 16.0748ZM53.0385 15.5801C52.8418 15.6209 52.9024 15.4565 52.8913 15.3489C52.8752 15.2116 52.9061 15.1139 53.1609 15.1646C53.2054 15.1819 53.4082 15.1856 53.4082 15.3353C53.3959 15.5059 53.1844 15.5504 53.0372 15.5764L53.0385 15.5801ZM53.6976 15.2611C53.6928 15.236 53.6939 15.2101 53.7006 15.1854C53.7074 15.1608 53.7198 15.138 53.7367 15.1189C53.7537 15.0998 53.7748 15.0848 53.7985 15.0752C53.8222 15.0655 53.8477 15.0614 53.8732 15.0632C54.1033 15.0632 54.0365 14.9086 54.0389 14.7936C54.0389 14.6427 54.0946 14.5463 54.2517 14.5252C54.2957 14.5214 54.3399 14.5312 54.3781 14.5533C54.4164 14.5754 54.447 14.6088 54.4656 14.6489C54.5151 14.7268 54.4471 14.78 54.3976 14.8319C54.2739 14.9556 54.0736 15.0063 54.1156 15.2549C54.1292 15.3365 54.013 15.4181 53.8905 15.4095C53.8458 15.4096 53.8023 15.3947 53.7671 15.3671C53.7318 15.3395 53.7069 15.3008 53.6964 15.2574L53.6976 15.2611ZM54.7723 13.5606C54.8242 13.5758 54.869 13.6091 54.8985 13.6545C54.928 13.6999 54.9403 13.7543 54.9331 13.808C54.9219 14.1987 54.6796 14.2964 54.4471 14.3422C54.2801 14.3744 54.1651 14.2185 54.1329 14.0503C54.1144 13.9489 54.6709 13.5235 54.7711 13.5569L54.7723 13.5606ZM54.5744 13.2564C54.5641 13.2066 54.5737 13.1547 54.6012 13.1119C54.6288 13.0691 54.672 13.0389 54.7216 13.0276C54.8923 13.0029 54.9182 13.0598 54.9306 13.1686C54.9479 13.3182 54.87 13.3788 54.75 13.4159C54.6301 13.453 54.5806 13.3566 54.5732 13.2527L54.5744 13.2564ZM54.1033 16.3803C54.0538 16.2813 53.8559 16.337 53.8769 16.1849C53.8918 16.1045 54.0006 16.0402 54.0723 15.9697C54.1268 16.0554 54.174 16.1456 54.2133 16.2393C54.2368 16.3122 54.2059 16.379 54.1033 16.3803ZM54.5732 15.7545C54.4668 15.8015 54.3259 15.7199 54.3259 15.6308C54.3259 15.3439 54.635 15.3699 54.8032 15.1658C54.8453 15.4626 54.7946 15.6556 54.572 15.7545H54.5732ZM54.9158 16.2838C54.8972 16.2838 54.8453 16.2331 54.8428 16.2034C54.8255 15.987 54.9764 15.914 55.1656 15.8769C55.1124 16.0451 55.1248 16.2393 54.9145 16.2838H54.9158ZM55.5564 15.1312C55.4327 15.1312 55.3659 15.0335 55.3696 14.9024C55.3696 14.8431 55.3956 14.7676 55.4574 14.7973C55.5566 14.8565 55.6494 14.9257 55.7344 15.0038C55.6627 15.0558 55.6071 15.1337 55.5551 15.1312H55.5564ZM55.8581 15.9474C55.8112 15.8913 55.7698 15.8308 55.7344 15.7669C55.7258 15.7508 55.7691 15.6877 55.7975 15.6803C55.8853 15.658 55.9212 15.7409 55.9669 15.7941C55.9719 15.8077 55.9051 15.8794 55.8569 15.9474H55.8581ZM57.1034 14.9148C56.9365 14.7565 56.6174 14.8183 56.6842 14.4832C56.7127 14.3422 56.8376 14.153 56.9427 14.221C57.1579 14.3608 57.1764 14.6167 57.1022 14.9148H57.1034ZM57.1764 10.9228C57.0651 11.1701 57.0849 11.3964 57.0367 11.6413C56.9451 11.6277 56.8549 11.6116 56.7646 11.6017C56.6261 11.5869 56.4653 11.6017 56.4443 11.7551C56.4233 11.9084 56.5952 11.9134 56.7102 11.9715C56.8252 12.0296 57.1727 11.9987 57.0379 12.293C56.9575 12.4662 56.9217 12.7877 56.5309 12.5935C56.2699 12.4612 56.1698 12.8594 55.9311 12.9509C55.6924 13.0424 55.5057 13.0944 55.3016 12.8693C55.4624 12.8042 55.6082 12.7072 55.7305 12.5841C55.8527 12.461 55.9487 12.3145 56.0127 12.1533C56.0621 12.0409 56.0866 11.9191 56.0845 11.7964C56.0824 11.6736 56.0536 11.5528 56.0003 11.4422C55.8519 11.206 55.9237 10.9896 55.8606 10.7558C55.6862 11.5151 55.1346 12.0642 54.7698 12.711C54.6462 12.9361 54.4334 13.3677 54.0018 13.3825C53.9944 13.3834 53.9873 13.3859 53.9809 13.3897C53.9745 13.3936 53.969 13.3987 53.9647 13.4048C53.6556 14.1369 52.8901 13.8525 52.4078 14.1171C51.5421 14.5932 50.7667 14.1814 49.9529 14.1678C49.8812 14.1678 49.8095 14.1678 49.6932 14.1678C49.9047 14.4374 50.4414 14.4152 50.2881 14.9098C49.9059 14.8901 49.5572 14.8208 49.415 14.388C49.3977 14.3335 49.3123 14.2866 49.2493 14.2643C48.6309 14.0293 48.2599 13.4617 47.7047 13.1513C47.5117 13.3541 47.8988 13.432 47.8283 13.6459C47.5451 13.6336 47.5525 13.3331 47.3831 13.223C47.2384 13.1278 47.142 12.9497 46.9923 12.8755C46.8761 12.8186 46.7796 12.5045 46.6522 12.7234C46.5731 12.8582 46.2318 13.0944 46.5904 13.3306C46.6711 13.3924 46.736 13.4725 46.7796 13.5643C46.8278 13.6546 46.9404 13.7461 46.7957 13.8636C46.672 13.965 46.6201 13.8636 46.5397 13.808C46.434 13.7088 46.2951 13.6527 46.1501 13.6509C46.1061 13.6601 46.0602 13.6541 46.02 13.6339C45.9798 13.6137 45.9477 13.5804 45.9288 13.5396C45.8268 13.2301 45.7442 12.9145 45.6814 12.5948C45.6753 12.5614 45.6357 12.3252 45.8175 12.3314C45.9535 12.3314 45.9659 12.4884 46.0252 12.5787C46.0722 12.6517 45.9881 12.9151 46.1427 12.7766C46.2602 12.6727 46.6374 12.5601 46.463 12.3326C45.8694 11.5572 46.1242 10.5481 45.7025 9.75411C45.4551 9.28417 45.4984 8.77465 45.3092 8.3109C45.2773 8.23818 45.2642 8.15862 45.2712 8.07953C45.2781 8.00044 45.3048 7.92435 45.3488 7.85827C45.6518 7.3636 45.8311 6.73042 46.254 6.40022C46.7796 5.98964 47.0307 5.3342 47.6391 5.02626C47.7455 4.97185 47.9297 4.87292 47.8753 4.70967C47.8209 4.54643 47.6428 4.60579 47.5216 4.62311C47.3254 4.63583 47.1303 4.5851 46.9651 4.47841C46.8501 4.42153 46.7104 4.31394 46.8229 4.19769C46.9975 4.04122 47.1817 3.89583 47.3745 3.76237C47.4981 3.6622 47.5637 3.93674 47.5637 4.00971C47.5637 4.51304 47.7158 4.44502 48.1128 4.28673C48.6965 4.05423 49.2678 3.68075 49.922 3.73022C50.3314 3.76237 50.7419 3.35921 51.1711 3.77845C51.2774 3.88233 51.5817 3.57316 51.7189 3.39631C51.7993 3.29367 51.9663 3.22565 51.9391 3.04633C52.0429 3.61026 52.2594 3.74506 52.785 3.80937C52.9265 3.83301 53.0618 3.88536 53.1823 3.9632C53.3029 4.04104 53.4063 4.14272 53.4861 4.26199C53.7706 4.76409 54.2653 4.96814 54.6808 5.28597C54.7038 5.30236 54.73 5.3138 54.7577 5.31955C54.7853 5.3253 54.8139 5.32523 54.8415 5.31936C55.0617 5.25134 55.2868 5.14004 55.3684 5.4925C55.4154 5.69779 55.6157 5.84495 55.471 6.12444C55.309 6.43608 55.6219 6.88129 55.9657 6.91715C56.3788 6.96168 56.4703 7.32278 56.5915 7.61093C56.6854 7.83725 56.5915 8.05614 56.3182 8.16992C56.2093 8.21444 55.9904 8.3381 56.1203 8.48403C56.2501 8.62996 55.9447 9.06033 56.4257 8.95892C56.4397 8.95652 56.4539 8.95652 56.4678 8.95892C56.2205 9.41278 57.0762 9.50801 56.8029 9.97919C56.7658 10.0435 56.7436 10.1758 56.8747 10.182C57.4918 10.2117 57.2642 10.7274 57.1752 10.9228H57.1764ZM46.8934 4.9632C47.0393 4.9397 47.0579 5.04605 47.0616 5.06831C47.1333 5.23032 47.0616 5.22166 47.0146 5.22661C46.9634 5.23347 46.9116 5.22032 46.8699 5.18991C46.8282 5.1595 46.7998 5.11417 46.7907 5.06337C46.7685 4.99288 46.8278 4.97309 46.8921 4.9632H46.8934ZM56.5457 8.63862C56.7572 8.63862 56.615 8.34058 56.8277 8.32326C56.9513 8.49145 57.1443 8.63491 57.1269 8.85751C57.1096 9.08012 56.9019 9.04054 56.7473 9.03189C56.4666 9.01581 56.7003 8.72642 56.5445 8.63862H56.5457ZM57.2667 6.74031C57.1863 6.85656 57.122 6.74031 57.0515 6.73412C56.5296 6.65374 56.5173 6.07992 56.1129 5.85237C56.3157 5.68294 56.5457 5.88452 56.6347 5.62482C56.6644 5.53578 56.7695 5.5939 56.8054 5.65326C56.9724 5.93152 57.1319 6.21348 57.2902 6.49668C57.3115 6.53494 57.3205 6.57882 57.3161 6.62239C57.3117 6.66595 57.294 6.70711 57.2655 6.74031H57.2667ZM58.3797 6.58943C58.7767 6.6995 58.6975 7.0705 58.8632 7.29311C58.9473 7.40688 58.7074 7.44522 58.6159 7.4984C58.4762 7.57755 58.3958 7.45511 58.3871 7.33639C58.3661 7.09276 58.3772 6.84666 58.3772 6.58943H58.3797ZM57.7614 4.73441C57.7812 4.6194 57.8108 4.43142 57.9407 4.44873C58.1719 4.47965 58.188 4.72451 58.2573 4.93599C58.2239 5.03492 58.125 5.05965 58.0099 5.05223C57.7886 5.04852 57.7329 4.91496 57.7614 4.73441ZM58.031 11.0613C57.9679 11.0835 57.9333 11.0279 57.9357 10.9611C57.9382 10.8943 57.9234 10.8152 58.052 10.8053L58.1893 10.9364C58.144 10.9868 58.0905 11.029 58.031 11.0613ZM58.2313 12.2225C58.4279 12.1125 58.287 11.927 58.4712 11.875C58.4898 11.875 58.5442 11.9233 58.5479 11.9529C58.5627 12.1013 58.5108 12.204 58.2313 12.2225ZM58.1979 9.95692C58.2078 9.87778 58.2226 9.80234 58.3216 9.84562C58.3685 9.87436 58.4103 9.91072 58.4452 9.95321L58.3216 10.1709C58.2635 10.109 58.1843 10.0633 58.1979 9.95692ZM58.1262 8.34923C58.1096 8.30535 58.1034 8.25823 58.108 8.21155C58.1127 8.16487 58.128 8.11989 58.1529 8.08013C58.1779 8.04038 58.2116 8.00692 58.2516 7.98238C58.2916 7.95783 58.3367 7.94287 58.3834 7.93866C58.6703 7.92382 58.6159 8.22309 58.721 8.44569C58.5046 8.31708 58.2486 8.60028 58.1262 8.34923ZM58.8744 11.3099C58.862 11.3284 58.7878 11.3284 58.7606 11.3099C58.5541 11.1726 58.7866 11.0514 58.7693 10.9178C58.8187 11.0477 58.982 11.1491 58.8744 11.3099ZM59.0265 10.3205C59.0401 10.1078 58.8769 9.85181 59.1712 9.74298C59.2825 9.70217 59.4185 9.78008 59.4185 9.86665C59.421 10.109 59.1737 10.1783 59.0265 10.3255V10.3205Z" fill="#2B2726"/>
<path d="M58.334 13.4976C58.2697 13.4976 58.1299 13.6212 58.1336 13.6806C58.1472 13.9564 57.9543 14.2025 58.0594 14.5562C58.2511 14.2581 58.5986 14.1072 58.3909 13.7103C58.3661 13.6633 58.4799 13.5124 58.334 13.4976Z" fill="#2B2726"/>
<path d="M59.8946 7.9386C59.8216 7.88666 59.9614 7.72218 59.7919 7.72095C59.6609 7.72095 59.6163 7.83596 59.6139 7.96828C59.6114 8.10061 59.6572 8.22675 59.7783 8.22551C59.9651 8.22304 59.8427 8.04743 59.8946 7.9386Z" fill="#2B2726"/>
<path d="M41.9305 9.85061C42.0146 9.7356 42.0258 9.58596 41.9305 9.32007V9.85061Z" fill="#2B2726"/>
<path d="M56.7584 10.3046C56.6508 10.4048 56.4356 10.3961 56.4319 10.5977C56.4319 10.7733 56.5704 10.6954 56.6409 10.714C56.7769 10.7226 56.8882 10.73 56.8758 10.5445C56.8697 10.4332 56.7769 10.2873 56.7584 10.3046Z" fill="#2B2726"/>
<path d="M56.0152 7.72217C55.9583 7.87923 55.9843 7.98187 56.1512 8.03999C56.1746 7.97974 56.1734 7.91276 56.148 7.85337C56.1225 7.79397 56.0749 7.74688 56.0152 7.72217Z" fill="#2B2726"/>
</g>
<g opacity="0.3">
<path d="M80.5805 9.45733C80.6176 9.17289 80.5075 8.92803 80.4148 8.66585C80.2911 8.32082 80.1032 7.9461 80.4531 7.6023C80.4712 7.57966 80.4835 7.55302 80.4891 7.52461C80.4947 7.49619 80.4934 7.46686 80.4853 7.43906C80.2825 7.00746 80.1514 6.49918 79.8336 6.17517C79.5949 5.92783 79.6233 5.75222 79.6233 5.51973C80.2676 5.46531 80.16 6.09602 80.4457 6.44106C80.28 4.90881 78.19 2.18934 77.0498 1.7565C77.0708 2.00384 77.0733 1.99518 77.2749 2.15595C77.3874 2.24499 77.5605 2.36 77.4665 2.50717C77.3614 2.67288 77.1833 2.55787 77.0461 2.4849C76.8691 2.38752 76.7283 2.23564 76.6445 2.05183C76.5607 1.86802 76.5385 1.6621 76.5811 1.46464C76.5897 1.42878 76.5811 1.36447 76.5601 1.34963C76.3127 1.19381 76.058 0.941527 75.7624 1.00831C75.3654 1.09859 75.1193 0.986046 74.9054 0.674402C74.8729 0.617343 74.8292 0.567445 74.7769 0.527704C74.7246 0.487963 74.6648 0.4592 74.6011 0.443143C74.1708 0.347918 73.7577 0.174781 73.3051 0.174781C73.2383 0.174781 73.1406 0.0610083 73.1468 0.235381C73.1579 0.548262 72.97 0.45056 72.8005 0.40975C72.5532 0.350389 72.3318 0.286082 72.0993 0.514869C72.0297 0.579391 71.9424 0.621721 71.8485 0.636476C71.7547 0.651231 71.6586 0.637745 71.5725 0.597728C71.528 0.572994 71.4736 0.507448 71.4773 0.464164C71.4897 0.295975 71.5688 0.464164 71.6158 0.444377C71.7456 0.40233 71.8631 0.368943 71.7803 0.173547C71.7419 0.0795586 71.7803 -0.01814 71.6146 0.00288358C71.0111 0.0770846 70.4694 0.360285 69.8894 0.512397C69.8251 0.52971 69.7756 0.600202 69.7249 0.521054C69.5382 0.22796 69.3081 0.414696 69.1066 0.475294C68.7739 0.577939 68.4536 0.722631 68.0912 0.858667C68.2916 0.918027 68.4907 0.992227 68.6267 0.880926C68.9767 0.594015 69.1882 0.880926 69.4318 1.03551C69.5479 1.12137 69.6582 1.21473 69.762 1.315C69.5137 1.43727 69.3131 1.63872 69.1919 1.88759C69.1313 1.71322 69.3725 1.51658 69.1202 1.44733C68.9507 1.3991 68.7986 1.2878 68.5847 1.48319C68.2743 1.76516 67.8711 1.94324 67.578 2.36742C67.5619 1.9791 67.5001 1.69343 67.7907 1.50174C67.9144 1.41889 67.9701 1.32242 67.8229 1.18639C67.7079 1.08003 67.6448 1.04788 67.5001 1.16537C67.2689 1.35334 67.0054 1.49185 66.7507 1.66004C66.3129 1.95437 66.3129 2.04836 66.7717 2.44162C66.0297 2.22644 65.7984 2.96721 65.3137 3.13416C64.6409 3.36542 64.5951 3.99984 64.1536 4.34117C64.3503 4.51059 64.4579 4.38322 64.5692 4.34117C64.6805 4.29912 64.793 4.18906 64.8524 4.3523C64.864 4.38053 64.869 4.41108 64.8669 4.44156C64.8648 4.47204 64.8556 4.50161 64.8402 4.52797C64.8247 4.55432 64.8034 4.57674 64.7778 4.59346C64.7523 4.61019 64.7232 4.62077 64.6928 4.62437C64.4331 4.68991 64.2662 4.94591 63.9706 4.97559C63.675 5.00527 63.6553 5.30702 63.6058 5.50242C63.5625 5.67555 63.8012 5.64092 63.9348 5.68297C64.192 5.76583 64.2489 5.95628 64.0869 6.17764C63.9941 6.32742 63.8539 6.4419 63.6887 6.50289C63.4562 6.57091 63.3733 6.72673 63.4017 6.96665C63.4116 7.1285 63.4116 7.29081 63.4017 7.45266C63.0431 7.82367 63.1445 8.2899 63.1396 8.73758C63.1396 8.99605 63.3127 9.07643 63.4945 9.17536C63.5565 9.21548 63.6085 9.2692 63.6466 9.33243C63.706 9.41652 63.5823 10.5122 63.5069 10.5691C63.463 10.6054 63.408 10.6255 63.351 10.626C62.98 10.5741 63.0171 10.8152 63.0777 11.0316C63.3074 11.9401 63.658 12.8136 64.1203 13.6287C64.307 13.9391 64.4455 14.3262 64.7584 14.5055C65.138 14.7244 65.4076 14.9853 65.5338 15.3971C65.6834 15.8844 66.2498 15.6741 66.5095 15.9771C66.5194 15.9895 66.5652 15.9944 66.5714 15.9858C66.8076 15.6556 67.0005 15.9536 67.1056 16.0785C67.2441 16.2405 67.6559 16.1762 67.5434 16.5002C67.4457 16.7834 67.1526 16.4199 66.9844 16.5942C67.1618 16.724 67.3482 16.8409 67.5422 16.9442C68.7022 17.6182 69.9747 17.9224 71.2868 18.0486C71.8223 18.0993 72.3999 18.1574 72.8784 17.7579C72.9843 17.6679 73.1174 17.6161 73.2563 17.6109C73.3952 17.6057 73.5317 17.6475 73.644 17.7295C73.8245 17.8433 74.0051 17.7988 74.1918 17.7666C74.4713 17.7184 74.731 17.4018 74.8905 17.4191C75.499 17.4809 75.8947 17.0704 76.3746 16.8675C76.4599 16.8317 77.0164 16.7439 76.6219 16.3518C76.6998 16.2826 76.6219 16.0179 76.8779 16.1663C77.0016 16.2356 77.1648 16.4137 77.3033 16.2368C77.6347 15.8262 78.1208 15.6049 78.4794 15.2116C78.7688 14.8938 78.4411 14.529 78.7094 14.247C78.8232 14.1233 78.864 13.9106 78.5647 13.8698C78.4893 13.8599 78.425 13.7672 78.5363 13.6831C78.6476 13.599 78.5932 13.3826 78.6896 13.3121C78.9258 13.1377 78.9864 12.7308 79.402 12.7444C79.371 12.8372 79.3512 12.9003 79.3302 12.9646C79.3005 13.061 79.0495 13.1748 79.2795 13.2416C79.4539 13.2935 79.7025 13.6126 79.8447 13.3022C79.951 13.0647 80.395 12.7754 79.9028 12.4575C79.8002 12.3907 79.9461 12.319 79.9708 12.2473C80.0809 11.9295 80.4655 11.8342 80.5508 11.4929C80.7351 10.7843 80.9082 10.3416 80.5793 9.54637C80.572 9.51708 80.5724 9.4864 80.5805 9.45733ZM63.7406 7.97331C63.565 7.81501 63.3696 7.71113 63.4129 7.45637C63.4123 7.45393 63.4123 7.45139 63.4129 7.44895H63.4252C63.7517 7.46132 63.8136 7.65548 63.7406 7.97207V7.97331ZM78.1789 4.66147C77.9414 4.64416 77.8462 4.51554 77.8376 4.26326C78.0354 4.36095 78.2419 4.38816 78.1789 4.66023V4.66147ZM77.96 3.61895C77.9019 3.64986 77.8363 3.70675 77.8029 3.69438C77.745 3.66367 77.6976 3.61628 77.6669 3.55835C77.6582 3.54598 77.699 3.47549 77.7262 3.46807C77.8141 3.44086 77.8474 3.52867 77.96 3.61895ZM77.4319 2.77058C77.5556 2.87075 77.7126 2.9499 77.7349 3.11438C77.7497 3.21579 77.6409 3.27762 77.4975 3.28628C77.3515 3.27144 77.3738 3.06367 77.2501 2.99937L77.4319 2.77058ZM77.6521 4.85068C77.4047 4.69733 77.3515 4.58603 77.3627 4.44381C77.3884 4.43268 77.417 4.43008 77.4443 4.43639C77.6112 4.50936 77.4863 4.66147 77.6521 4.84821V4.85068ZM76.6874 2.56034C76.4178 2.70875 76.1866 2.7409 75.8873 2.43668C76.2286 2.38226 76.4636 2.35011 76.6874 2.55787V2.56034ZM75.9331 3.0006C75.9516 3.06986 76.0221 3.14035 75.9331 3.17992C75.9148 3.1912 75.8943 3.19835 75.873 3.20086C75.8517 3.20338 75.8301 3.2012 75.8097 3.19449C75.7893 3.18777 75.7706 3.17668 75.755 3.16199C75.7393 3.14729 75.7271 3.12936 75.7191 3.10943C75.5781 2.84231 75.285 2.70133 75.149 2.36742C75.5113 2.4713 75.8193 2.59621 75.9331 3.0006ZM74.3179 1.69343C74.3835 1.68724 74.4614 1.6724 74.4787 1.78989C74.4602 1.80968 74.4379 1.85296 74.4095 1.85791C74.3278 1.87522 74.2858 1.81339 74.2512 1.75032C74.2165 1.68725 74.2846 1.69467 74.3118 1.69219L74.3179 1.69343ZM74.5554 2.5319C74.3959 2.65557 74.3736 2.39834 74.2413 2.47625C74.3897 2.32785 74.4651 2.42431 74.5492 2.53067L74.5554 2.5319ZM74.1423 3.49652C74.5344 3.76117 74.6098 2.93258 75.0649 3.26154C75.3122 3.43839 75.5596 3.50022 75.5806 3.87988C75.5992 4.14701 75.8514 4.31891 76.1074 4.42279C76.2567 4.47069 76.3944 4.54901 76.5118 4.65281C76.6095 4.74927 76.5638 4.87665 76.544 4.96817C76.5242 5.05968 76.3882 5.06834 76.2818 5.0436C76.0311 4.99358 75.7978 4.87912 75.6048 4.71149C75.4118 4.54387 75.2658 4.32886 75.1812 4.08765C75.0575 3.78837 74.3068 3.59298 74.0681 3.79332C74.0026 3.6276 74.104 3.47302 74.1362 3.49528L74.1423 3.49652ZM73.6279 2.11514C73.6922 2.2858 73.9371 2.23881 73.9259 2.44286C73.9241 2.46018 73.9182 2.47683 73.9088 2.49143C73.8993 2.50604 73.8865 2.51819 73.8714 2.52688C73.8563 2.53557 73.8394 2.54056 73.822 2.54143C73.8046 2.5423 73.7872 2.53904 73.7713 2.5319C73.5512 2.46265 73.5648 2.32043 73.6217 2.1139L73.6279 2.11514ZM73.4931 0.680584C73.4654 0.699327 73.4339 0.711492 73.4008 0.716147C73.3677 0.720801 73.334 0.717821 73.3022 0.707436C73.2705 0.697051 73.2415 0.679537 73.2176 0.656234C73.1936 0.63293 73.1754 0.604455 73.1641 0.572993C73.1915 0.555412 73.2225 0.544166 73.2548 0.540072C73.2871 0.535978 73.3199 0.539141 73.3508 0.54933C73.3818 0.559518 73.41 0.576477 73.4336 0.59897C73.4571 0.621462 73.4753 0.648923 73.4869 0.67935L73.4931 0.680584ZM72.2762 1.75403C72.4543 1.61305 72.6596 1.73424 72.8772 1.6687C72.8401 1.75897 72.8389 1.77753 72.829 1.78495C72.6623 1.87109 72.4775 1.91644 72.2898 1.91727C72.2774 1.86038 72.2465 1.77134 72.27 1.75279L72.2762 1.75403ZM71.6047 1.17279C71.8866 1.08374 71.7976 1.37189 71.9571 1.44486C71.7098 1.55863 71.57 1.53761 71.502 1.32119C71.4723 1.23215 71.5441 1.19134 71.6047 1.17279ZM71.4575 2.79902C71.4575 2.83928 71.4494 2.87913 71.4336 2.91614C71.4177 2.95315 71.3945 2.98656 71.3654 3.01432C71.3362 3.04209 71.3017 3.06363 71.264 3.07764C71.2263 3.09165 71.1861 3.09784 71.1459 3.09583C70.979 3.07579 70.8163 3.0299 70.6635 2.95979C70.6459 2.95468 70.6298 2.94543 70.6165 2.93283C70.6032 2.92022 70.5931 2.90461 70.5871 2.88731C70.581 2.87 70.5792 2.8515 70.5817 2.83335C70.5843 2.8152 70.5911 2.79791 70.6017 2.78295C70.6359 2.72317 70.6905 2.67775 70.7555 2.65503C70.8204 2.63231 70.8914 2.63381 70.9554 2.65928C71.0265 2.65059 71.0983 2.65059 71.1694 2.65928C71.272 2.69143 71.4699 2.56776 71.4563 2.79902H71.4575ZM70.3259 1.29151C70.3465 1.24484 70.3819 1.20624 70.4266 1.18166C70.4713 1.15708 70.5228 1.14787 70.5733 1.15547C70.7415 1.17526 70.9047 1.27914 71.0964 1.17773C71.0284 1.40776 70.7959 1.38426 70.687 1.53142C70.598 1.65509 70.5127 1.59078 70.4397 1.50545C70.3853 1.44115 70.2789 1.39291 70.3247 1.29151H70.3259ZM70.0947 3.33822C70.0835 3.41737 69.9933 3.5398 69.8943 3.50888C69.8488 3.4889 69.8082 3.45899 69.7757 3.42133C69.7432 3.38367 69.7195 3.33922 69.7064 3.29122C69.6816 3.15519 69.8164 3.20589 69.8919 3.19229C69.997 3.18981 70.1095 3.2195 70.0934 3.33822H70.0947ZM69.9191 1.97787C70.0081 2.02362 69.9475 2.10154 69.8943 2.15224C69.7026 2.32661 69.5233 2.29322 69.3477 2.08669C69.5345 1.95066 69.7175 1.87027 69.9178 1.97539L69.9191 1.97787ZM69.3786 2.48861C69.6334 2.56529 69.6074 2.77429 69.5975 2.98947C69.3947 2.91775 69.1919 2.85715 69.1758 2.61847C69.1859 2.57457 69.2128 2.53637 69.2507 2.51209C69.2886 2.48781 69.3346 2.47938 69.3786 2.48861ZM67.9243 2.53067C67.9799 2.20542 68.3819 2.30683 68.5068 2.0632L68.6898 2.19552C68.5278 2.39957 68.4202 2.67536 68.0776 2.64444C67.996 2.6667 67.9045 2.65804 67.9255 2.53067H67.9243ZM67.3443 3.19847C67.5261 3.04265 67.7672 2.97834 67.9391 2.79655C68.0109 2.72235 68.0628 2.85097 68.0962 2.92022C68.0962 3.06862 67.5162 3.42355 67.3727 3.36419C67.3554 3.35984 67.3398 3.35052 67.3277 3.33739C67.3156 3.32425 67.3076 3.30787 67.3047 3.29026C67.3018 3.27265 67.3042 3.25458 67.3114 3.23827C67.3187 3.22196 67.3305 3.20813 67.3455 3.19847H67.3443ZM66.439 3.58556C66.5145 3.41984 66.5454 3.17127 66.836 3.21455C66.8954 3.36048 66.6765 3.47673 66.8014 3.61647C66.9263 3.75622 66.8286 3.83908 66.721 3.88236C66.669 3.90838 66.6103 3.91805 66.5527 3.9101C66.4951 3.90216 66.4412 3.87696 66.3982 3.83784C66.2869 3.73025 66.4106 3.64739 66.4403 3.58556H66.439ZM65.9258 4.98796C66.0411 4.95239 66.1439 4.88481 66.2223 4.79307C66.3007 4.70134 66.3514 4.58922 66.3685 4.46978C66.6048 4.84821 66.5145 5.11904 66.3018 5.39235C66.1323 5.61001 65.9938 5.36391 65.8368 5.37504C65.796 5.37504 65.6092 5.35525 65.629 5.21303C65.6488 5.07081 65.817 5.02877 65.927 4.98796H65.9258ZM66.2436 6.01316C66.1991 6.14672 66.12 6.2234 65.9815 6.19743C65.9036 6.18259 65.791 6.14178 65.8417 6.04408C65.8634 5.97841 65.9075 5.92246 65.9663 5.88605C66.0251 5.84964 66.0948 5.8351 66.1633 5.84498C66.2671 5.86847 66.2276 5.95504 66.2449 6.01316H66.2436ZM65.4076 3.81311C65.4621 3.81929 65.5313 3.8131 65.5313 3.8972C65.5255 3.93944 65.5066 3.97881 65.4773 4.00983C65.4481 4.04086 65.4099 4.062 65.3681 4.07033C65.2976 4.08517 65.2741 4.032 65.2704 3.96769C65.2629 3.86628 65.2889 3.79827 65.4089 3.81311H65.4076ZM65.3644 6.25061C65.488 6.21351 65.5387 6.34707 65.6018 6.43487C65.509 6.47692 65.5746 6.63769 65.425 6.64635C65.3588 6.64976 65.2933 6.6309 65.2391 6.5928C65.1848 6.5547 65.1449 6.49954 65.1257 6.43611C65.0923 6.3075 65.2716 6.27781 65.3656 6.25061H65.3644ZM64.4121 7.75936C64.5123 7.89911 64.4121 8.07472 64.4826 8.22435C64.3453 8.0945 64.3997 7.92384 64.4133 7.75936H64.4121ZM64.6891 13.6151C64.5976 13.5532 64.4702 13.4914 64.4826 13.3578C64.4888 13.2935 64.584 13.2342 64.6545 13.1587C64.7361 13.2948 64.8252 13.385 64.8227 13.5198C64.8227 13.6113 64.7732 13.6695 64.6904 13.6151H64.6891ZM64.981 13.9861C64.955 13.977 64.9311 13.9626 64.9109 13.9439C64.8907 13.9252 64.8745 13.9025 64.8635 13.8772C64.8425 13.787 64.9328 13.8364 64.9649 13.8154C65.0255 13.8154 65.0886 13.8228 65.0886 13.8995C65.0886 13.9762 65.0391 14.0071 64.9822 13.9836L64.981 13.9861ZM65.2976 12.5824C65.2382 12.6727 65.1121 12.7061 65.0688 12.6529C64.8313 12.3883 64.5185 12.5293 64.2303 12.4687C64.4035 12.3747 64.3985 12.1904 64.4566 12.0469C64.4937 11.9542 64.49 11.8243 64.5951 11.8107C64.652 11.8033 64.7448 11.9023 64.7881 11.974C64.8907 12.1484 64.9624 12.345 65.2011 12.3883C65.2456 12.3994 65.378 12.4625 65.2976 12.5824ZM65.3705 10.626C65.5548 10.8845 65.6451 11.1083 65.5462 11.4237C65.5045 11.5479 65.4907 11.6797 65.5057 11.8099C65.5206 11.94 65.564 12.0653 65.6327 12.1768C65.6822 12.2535 65.6871 12.3005 65.6142 12.3512C65.5412 12.4019 65.4645 12.3079 65.4559 12.272C65.3866 11.9567 65.0849 11.6908 65.2308 11.3309C65.3223 11.117 65.1838 10.8647 65.3743 10.626H65.3705ZM65.3879 10.0361C65.4534 10.2426 65.5029 10.3799 65.279 10.5394C65.2815 10.3613 65.2122 10.2179 65.3916 10.0361H65.3879ZM65.6166 14.4239C65.5526 14.3996 65.4974 14.3565 65.4583 14.3002C65.4494 14.2895 65.4436 14.2765 65.4416 14.2627C65.4396 14.2489 65.4414 14.2348 65.4469 14.222C65.4524 14.2092 65.4614 14.1982 65.4728 14.1901C65.4842 14.1821 65.4976 14.1774 65.5115 14.1765C65.6142 14.1629 65.6525 14.2532 65.7032 14.3187C65.7044 14.3781 65.6946 14.4461 65.6203 14.4239H65.6166ZM65.8887 7.14349C65.7576 7.37846 65.8405 7.68763 65.6228 7.8855C65.9555 8.00299 65.6698 8.22559 65.6946 8.39254C65.7428 8.72645 65.6129 8.98491 65.1319 8.98615C65.4447 8.67822 65.3718 8.29608 65.4188 7.96465C65.4608 7.67032 65.5598 7.37104 65.5288 7.06558C65.509 6.8739 65.6859 6.88379 65.7762 6.82566C65.8178 6.80908 65.8639 6.80768 65.9064 6.8217C65.9489 6.83572 65.9851 6.86427 66.0087 6.90234C66.1633 7.08784 65.9357 7.06682 65.8924 7.14349H65.8887ZM65.9172 11.2245C65.9027 11.1405 65.9145 11.0541 65.9507 10.9769C65.987 10.8997 66.0461 10.8355 66.12 10.7929C66.3055 10.6693 66.0767 10.3477 66.3871 10.2983C66.4823 10.5085 66.7099 10.7348 66.282 10.8115C66.261 10.8115 66.2511 10.8857 66.2387 10.9253C66.1917 11.0712 66.1633 11.2295 66.0099 11.3074C65.9988 11.3185 65.9283 11.2629 65.9159 11.2283L65.9172 11.2245ZM66.3253 15.1448C66.2634 15.1325 66.1892 15.1312 66.1855 15.1152C66.115 14.7689 66.0507 14.4214 65.9864 14.0739C66.1101 14.0739 65.9048 13.8686 66.1002 13.8933C66.2016 13.9069 66.2832 13.949 66.3042 14.0269C66.3525 14.2869 66.4423 14.5374 66.5701 14.7689C66.6888 14.9507 66.4539 15.0508 66.329 15.1485L66.3253 15.1448ZM67.2169 15.2091C67.228 15.0706 67.3047 14.8876 67.3752 14.9321C67.6015 15.0768 67.9676 14.9544 68.0826 15.2425C68.1667 15.4552 67.9181 15.4293 67.8291 15.3909C67.6349 15.3093 67.4469 15.2079 67.2206 15.2129L67.2169 15.2091ZM68.0826 16.2801C67.9874 16.2344 67.907 16.1849 67.9305 16.0921C67.9428 16.0402 68.0455 15.9561 68.0541 15.9685C68.1246 16.0118 68.2162 16.0736 68.2322 16.1441C68.2656 16.2529 68.0801 16.1614 68.0851 16.2838L68.0826 16.2801ZM68.7652 16.8799C68.7429 16.8957 68.7169 16.9057 68.6897 16.909C68.6625 16.9122 68.6349 16.9086 68.6094 16.8985C68.4796 16.8045 68.5426 16.6796 68.597 16.4755C68.7145 16.6536 68.8382 16.7278 68.7677 16.8836L68.7652 16.8799ZM68.8889 14.7775C68.863 14.7781 68.8373 14.7723 68.8141 14.7607C68.791 14.7491 68.7709 14.7321 68.7558 14.711C68.7407 14.6899 68.731 14.6655 68.7275 14.6398C68.7239 14.6141 68.7267 14.588 68.7356 14.5636C68.8394 14.3051 69.041 14.2124 69.3168 14.273C69.2253 14.5018 69.2327 14.7986 68.884 14.7788L68.8889 14.7775ZM69.0843 16.9318C69.0423 16.8923 68.9965 16.87 68.9928 16.8416C68.9779 16.7451 69.0447 16.7253 69.1226 16.7352C69.1589 16.7445 69.1941 16.7573 69.2278 16.7735L69.0843 16.9318ZM70.3569 15.4775C70.3309 15.6247 70.1404 15.5789 70.0118 15.5814C69.72 15.6605 69.5283 15.3106 69.2315 15.3946C69.2203 15.3946 69.1647 15.3279 69.1709 15.3056C69.1968 15.219 69.2562 15.1312 69.3502 15.1473C69.6977 15.2079 69.6668 15.0904 69.485 14.8851C69.4368 14.8295 69.3823 14.7615 69.485 14.7145C69.558 14.6836 69.7014 14.6625 69.6829 14.7862C69.6359 15.1077 69.882 15.1263 70.0712 15.2042C70.2097 15.2611 70.3828 15.3316 70.3569 15.4787V15.4775ZM70.4026 16.4322C70.4026 16.3531 70.4137 16.2838 70.5151 16.2925C70.5584 16.2925 70.6277 16.269 70.6388 16.3531C70.5646 16.405 70.6203 16.5435 70.4941 16.5509C70.4063 16.5559 70.4063 16.4903 70.4026 16.4335V16.4322ZM70.718 15.4045C70.8058 15.4045 70.8738 15.4342 70.828 15.5282C70.7966 15.5754 70.7578 15.6171 70.713 15.6519C70.675 15.5931 70.6431 15.5305 70.6178 15.4651C70.5881 15.3674 70.6908 15.4355 70.718 15.4058V15.4045ZM70.7056 17.8779C70.5906 17.8779 70.5028 17.8124 70.4991 17.7011C70.4991 17.5712 70.6673 17.6231 70.7167 17.5353C70.7588 17.6281 70.9208 17.5774 70.9356 17.7035C70.8874 17.8173 70.8256 17.889 70.7056 17.8841V17.8779ZM71.9225 17.5452C71.7333 17.6689 71.6146 17.4958 71.366 17.4562C71.6479 17.2769 71.7976 17.3795 71.946 17.4562C72.0103 17.4958 71.941 17.5403 71.9225 17.5514V17.5452ZM71.8644 15.0719C71.6687 14.997 71.4668 14.9398 71.2609 14.9012C71.6319 14.6106 72.0721 14.712 72.5693 14.6885C72.3776 14.9964 72.2675 15.266 71.8644 15.0756V15.0719ZM72.3145 15.3192C72.3283 15.2889 72.35 15.263 72.3774 15.2441C72.4048 15.2253 72.4368 15.2143 72.47 15.2122C72.5031 15.2102 72.5362 15.2172 72.5657 15.2326C72.5952 15.248 72.62 15.2711 72.6373 15.2994C72.761 15.4466 72.871 15.6111 73.0293 15.8262C72.7251 15.7916 72.6286 15.59 72.4617 15.4985C72.3764 15.4565 72.2552 15.4305 72.3145 15.3229V15.3192ZM73.7553 16.0711C73.451 16.2269 73.1616 16.4285 72.7177 16.478C72.8574 16.2492 73.0491 16.2566 73.0677 16.0736C73.1048 15.7162 73.3744 15.731 73.6353 15.7582C73.7132 15.7657 73.8196 15.7149 73.848 15.8436C73.8624 15.8869 73.861 15.9338 73.844 15.9762C73.827 16.0185 73.7956 16.0535 73.7553 16.0748V16.0711ZM74.0026 15.5764C73.806 15.6173 73.8666 15.4466 73.8554 15.3439C73.8394 15.2067 73.8703 15.1102 74.125 15.1597C74.1695 15.1782 74.3724 15.1807 74.3724 15.3316C74.36 15.5047 74.1485 15.5455 74.0014 15.5764H74.0026ZM74.6617 15.2574C74.6569 15.2323 74.658 15.2064 74.6648 15.1818C74.6716 15.1571 74.6839 15.1344 74.7009 15.1152C74.7178 15.0961 74.739 15.0811 74.7626 15.0715C74.7863 15.0618 74.8119 15.0577 74.8374 15.0595C75.0674 15.0595 75.0006 14.9037 75.0031 14.7899C75.0031 14.6378 75.0587 14.5426 75.2158 14.5215C75.2599 14.5173 75.3042 14.527 75.3426 14.5491C75.3809 14.5713 75.4114 14.6049 75.4297 14.6452C75.4792 14.7231 75.4112 14.7763 75.3617 14.8282C75.238 14.9519 75.0377 15.0026 75.0797 15.2512C75.0933 15.3328 74.9771 15.4144 74.8547 15.4058C74.8106 15.4055 74.7678 15.3909 74.7327 15.3641C74.6977 15.3373 74.6723 15.2999 74.6605 15.2574H74.6617ZM75.7364 13.5569C75.7885 13.5719 75.8334 13.6052 75.863 13.6506C75.8925 13.696 75.9047 13.7506 75.8972 13.8043C75.8861 14.1938 75.6437 14.2915 75.4112 14.3373C75.2442 14.3707 75.1292 14.2136 75.0971 14.0467C75.0785 13.949 75.635 13.5223 75.7352 13.5569H75.7364ZM75.5386 13.2515C75.5296 13.2023 75.5399 13.1515 75.5673 13.1096C75.5946 13.0677 75.637 13.0379 75.6857 13.0264C75.8564 13.0017 75.8824 13.0598 75.8947 13.1674C75.912 13.3183 75.8341 13.3776 75.7142 13.4147C75.5942 13.4518 75.5447 13.3554 75.5373 13.2515H75.5386ZM75.0674 16.3803C75.0179 16.2801 74.82 16.3358 74.8411 16.1849C74.8559 16.1033 74.9647 16.0402 75.0365 15.9685C75.091 16.0542 75.1381 16.1444 75.1774 16.2381C75.2009 16.311 75.17 16.3778 75.0674 16.3803ZM75.5373 15.7545C75.431 15.8015 75.29 15.7199 75.29 15.6309C75.29 15.3427 75.5991 15.3687 75.7673 15.1646C75.8094 15.4627 75.7587 15.6544 75.5361 15.7545H75.5373ZM75.8799 16.2826C75.8613 16.2826 75.8094 16.2331 75.8069 16.2034C75.7896 15.9858 75.9405 15.9128 76.1297 15.877C76.0765 16.0402 76.0889 16.2331 75.8786 16.2826H75.8799ZM76.5205 15.1312C76.3968 15.1312 76.33 15.0335 76.3337 14.9024C76.3337 14.8418 76.3597 14.7664 76.4215 14.7961C76.5201 14.8561 76.6129 14.9253 76.6986 15.0026C76.6268 15.0558 76.5712 15.1325 76.5192 15.1312H76.5205ZM76.8222 15.9474C76.7759 15.8909 76.7345 15.8305 76.6986 15.7669C76.6899 15.7496 76.7332 15.6865 76.7616 15.6803C76.8494 15.6581 76.8853 15.7397 76.9311 15.7941C76.936 15.8065 76.8692 15.8794 76.821 15.9474H76.8222ZM78.0676 14.9148C77.9006 14.7553 77.5816 14.8171 77.6483 14.482C77.6768 14.341 77.8017 14.153 77.9068 14.221C78.122 14.3608 78.1405 14.6168 78.0663 14.9148H78.0676ZM78.1405 10.9216C78.0292 11.1689 78.049 11.3964 78.0008 11.6401C77.9093 11.6265 77.819 11.6116 77.7287 11.6017C77.5902 11.5857 77.4294 11.6017 77.4084 11.7538C77.3874 11.906 77.5593 11.9121 77.6743 11.9703C77.7893 12.0284 78.1368 11.9975 78.002 12.2918C77.9216 12.4662 77.8858 12.7865 77.495 12.5923C77.234 12.4612 77.1339 12.8582 76.8952 12.951C76.6565 13.0437 76.4698 13.0944 76.2657 12.8681C76.4266 12.8032 76.5726 12.7062 76.6948 12.5831C76.8171 12.46 76.913 12.3134 76.9768 12.1521C77.0263 12.0397 77.0508 11.9179 77.0486 11.7952C77.0465 11.6724 77.0178 11.5516 76.9645 11.441C76.8161 11.2048 76.8878 10.9883 76.8247 10.7546C76.6503 11.5139 76.0988 12.0643 75.734 12.711C75.6103 12.9349 75.3976 13.3677 74.966 13.3826C74.9587 13.3832 74.9516 13.3855 74.9452 13.3891C74.9388 13.3927 74.9332 13.3977 74.9289 13.4036C74.6197 14.1369 73.8542 13.8513 73.3719 14.1172C72.5062 14.5933 71.7308 14.1815 70.9171 14.1679H70.6574C70.8688 14.4375 71.4056 14.4152 71.2522 14.9099C70.8701 14.8901 70.5213 14.8208 70.3791 14.388C70.3618 14.3323 70.2765 14.2866 70.2134 14.2643C69.5951 14.0293 69.224 13.4617 68.6688 13.1513C68.4759 13.3541 68.8629 13.4308 68.7924 13.646C68.5092 13.6336 68.5167 13.3343 68.3472 13.223C68.2025 13.129 68.1061 12.951 67.9564 12.8768C67.8402 12.8186 67.7437 12.5058 67.6164 12.7246C67.5372 12.8594 67.1959 13.0957 67.5545 13.3306C67.6353 13.3929 67.7002 13.4734 67.7437 13.5656C67.792 13.6546 67.9045 13.7461 67.7598 13.8636C67.6361 13.9663 67.5842 13.8636 67.5038 13.8092C67.3983 13.7097 67.2593 13.6532 67.1143 13.6509C67.0702 13.6603 67.0243 13.6544 66.984 13.6342C66.9438 13.614 66.9116 13.5806 66.8929 13.5396C66.7909 13.2301 66.7083 12.9146 66.6456 12.5948C66.6394 12.5614 66.5998 12.3264 66.7816 12.3326C66.9176 12.3326 66.93 12.4897 66.9894 12.58C67.0364 12.6529 66.9523 12.9151 67.1068 12.7766C67.2243 12.6727 67.6015 12.5614 67.4271 12.3339C66.8335 11.5585 67.0883 10.5481 66.6666 9.75413C66.4193 9.28543 66.4625 8.77468 66.2733 8.31216C66.2415 8.23923 66.2284 8.15948 66.2353 8.08019C66.2422 8.0009 66.2689 7.92461 66.3129 7.8583C66.6159 7.36362 66.7952 6.73168 67.2181 6.40148C67.7437 5.98967 67.9948 5.33423 68.6032 5.02753C68.7096 4.97312 68.8939 4.87294 68.8394 4.7097C68.785 4.54646 68.6069 4.60706 68.4857 4.62437C68.2896 4.63648 68.0947 4.5858 67.9292 4.47968C67.8142 4.42279 67.6745 4.3152 67.787 4.19895C67.961 4.04174 68.1452 3.89631 68.3386 3.76364C68.4623 3.66347 68.5278 3.93677 68.5278 4.01098C68.5278 4.51554 68.6799 4.44753 69.0769 4.28923C69.6606 4.0555 70.2319 3.68202 70.8862 3.73272C71.2955 3.76364 71.7061 3.36171 72.1352 3.78095C72.2416 3.8836 72.5458 3.57566 72.6831 3.39882C72.7634 3.29493 72.9304 3.22815 72.9032 3.0476C73.0071 3.61153 73.2235 3.74632 73.7491 3.81063C73.8906 3.83448 74.0257 3.88692 74.1463 3.96474C74.2668 4.04256 74.3703 4.14413 74.4503 4.26326C74.7347 4.76535 75.2294 4.97064 75.6449 5.28847C75.668 5.30472 75.6942 5.31598 75.7219 5.32151C75.7496 5.32705 75.7781 5.32675 75.8057 5.32062C76.0258 5.25384 76.2509 5.1413 76.3325 5.49376C76.3795 5.70028 76.5798 5.84745 76.4352 6.12694C76.2731 6.43858 76.586 6.88255 76.9298 6.91965C77.3429 6.96417 77.4344 7.32405 77.5556 7.61343C77.6496 7.83851 77.5556 8.0574 77.2823 8.17118C77.1734 8.2157 76.9546 8.33937 77.0844 8.4853C77.2143 8.63122 76.9088 9.06283 77.3899 8.96018C77.4038 8.9585 77.418 8.9585 77.4319 8.96018C77.1846 9.41405 78.0404 9.50803 77.7671 9.97921C77.73 10.0435 77.7077 10.1758 77.8388 10.1833C78.4559 10.2117 78.2283 10.7274 78.1393 10.9216H78.1405ZM67.8575 4.96198C68.0034 4.93972 68.022 5.04608 68.0257 5.06834C68.0974 5.22911 68.0257 5.22045 67.9787 5.22663C67.9274 5.23346 67.8754 5.22015 67.8337 5.18949C67.7919 5.15882 67.7637 5.11319 67.7549 5.06216C67.7326 4.9929 67.792 4.9793 67.8563 4.96198H67.8575ZM77.5098 8.63864C77.7213 8.63864 77.5791 8.33937 77.7918 8.32205C77.9155 8.49024 78.1084 8.6337 78.0911 8.85754C78.0738 9.08138 77.866 9.04056 77.7114 9.03191C77.4307 9.01583 77.6644 8.72645 77.5086 8.63864H77.5098ZM78.2308 6.74033C78.1504 6.85535 78.0861 6.74033 78.0156 6.73415C77.4938 6.65253 77.4814 6.07871 77.077 5.85116C77.2798 5.68173 77.5098 5.88455 77.5989 5.62485C77.6285 5.5358 77.7337 5.59269 77.7695 5.65205C77.9365 5.93031 78.096 6.21227 78.2543 6.49547C78.2756 6.53397 78.2846 6.57802 78.2801 6.62176C78.2757 6.6655 78.2581 6.70686 78.2296 6.74033H78.2308ZM79.3438 6.58946C79.7408 6.69952 79.6617 7.06929 79.8274 7.29313C79.9115 7.40567 79.6716 7.44524 79.58 7.49842C79.4403 7.57633 79.3599 7.4539 79.3513 7.33642C79.3302 7.09155 79.3414 6.84545 79.3414 6.58699L79.3438 6.58946ZM78.7255 4.73443C78.7453 4.61942 78.775 4.43145 78.9048 4.44876C79.1361 4.47844 79.1521 4.7233 79.2214 4.93601C79.188 5.03495 79.0891 5.05968 78.9741 5.05226C78.7527 5.04731 78.697 4.91252 78.7255 4.73196V4.73443ZM78.9951 11.0613C78.932 11.0823 78.8974 11.0267 78.8999 10.9611C78.9023 10.8956 78.8875 10.8152 79.0161 10.8053L79.1534 10.9352C79.1079 10.9856 79.0544 11.0282 78.9951 11.0613ZM79.1954 12.2226C79.3921 12.1113 79.2511 11.927 79.4353 11.875C79.4539 11.875 79.5083 11.9233 79.512 11.953C79.5269 12.1001 79.4749 12.2028 79.1954 12.2226ZM79.162 9.95695C79.1719 9.87656 79.1868 9.80236 79.2857 9.84565C79.3329 9.87407 79.3747 9.91048 79.4094 9.95324L79.2857 10.1697C79.2276 10.1103 79.1484 10.0633 79.162 9.95695ZM79.0903 8.34926C79.0737 8.30538 79.0675 8.25825 79.0721 8.21157C79.0768 8.16489 79.0922 8.11991 79.1171 8.08016C79.142 8.0404 79.1757 8.00695 79.2157 7.9824C79.2557 7.95786 79.3008 7.9429 79.3475 7.93868C79.6344 7.9226 79.58 8.22312 79.6852 8.44448C79.4687 8.31834 79.2127 8.59907 79.0903 8.34926ZM79.8385 11.3086C79.8261 11.3272 79.7519 11.3284 79.7247 11.3086C79.5182 11.1714 79.7507 11.0489 79.7334 10.9154C79.7829 11.0477 79.9461 11.1479 79.8385 11.3086ZM79.9906 10.3255C80.0042 10.1128 79.841 9.85554 80.1353 9.74671C80.2466 9.7059 80.3826 9.78381 80.3826 9.87038C80.3851 10.114 80.1378 10.1734 79.9906 10.3255Z" fill="#2B2726"/>
<path d="M79.298 13.4975C79.2337 13.4913 79.0939 13.6212 79.0976 13.6793C79.1112 13.9551 78.9183 14.2024 79.0234 14.5561C79.2151 14.2569 79.5626 14.1072 79.3549 13.7102C79.3301 13.662 79.4439 13.5124 79.298 13.4975Z" fill="#2B2726"/>
<path d="M80.8587 7.93738C80.7857 7.88668 80.9255 7.72096 80.7561 7.71973C80.625 7.71973 80.5804 7.83474 80.578 7.96706C80.5755 8.09939 80.6213 8.22553 80.7425 8.22553C80.9292 8.22306 80.8068 8.04745 80.8587 7.93738Z" fill="#2B2726"/>
<path d="M62.8947 9.84937C62.9787 9.73436 62.9899 9.58472 62.8947 9.32007V9.84937Z" fill="#2B2726"/>
<path d="M77.7225 10.3032C77.6149 10.4033 77.3997 10.3959 77.396 10.5963C77.396 10.7731 77.5345 10.694 77.605 10.7137C77.741 10.7212 77.8523 10.7298 77.84 10.5443C77.8338 10.4318 77.741 10.2859 77.7225 10.3032Z" fill="#2B2726"/>
<path d="M76.9793 7.72095C76.9224 7.87801 76.9484 7.98065 77.1153 8.03877C77.1387 7.97852 77.1375 7.91154 77.1121 7.85214C77.0867 7.79275 77.039 7.74566 76.9793 7.72095Z" fill="#2B2726"/>
</g>
</svg>
