<svg width="41" height="18" viewBox="0 0 41 18" fill="none" xmlns="http://www.w3.org/2000/svg">
<path d="M10.0094 12.8672C9.48854 13.3099 8.90781 13.651 8.26719 13.8906C7.62656 14.125 6.9599 14.2422 6.26719 14.2422C5.73594 14.2422 5.22292 14.1719 4.72812 14.0312C4.23854 13.8958 3.78021 13.7031 3.35312 13.4531C2.92604 13.1979 2.53542 12.8958 2.18125 12.5469C1.82708 12.1927 1.525 11.8021 1.275 11.375C1.025 10.9427 0.829687 10.4792 0.689062 9.98438C0.553645 9.48958 0.485937 8.97656 0.485937 8.44531C0.485937 7.91406 0.553645 7.40365 0.689062 6.91406C0.829687 6.42448 1.025 5.96615 1.275 5.53906C1.525 5.10677 1.82708 4.71615 2.18125 4.36719C2.53542 4.01302 2.92604 3.71094 3.35312 3.46094C3.78021 3.21094 4.23854 3.01823 4.72812 2.88281C5.22292 2.74219 5.73594 2.67188 6.26719 2.67188C6.9599 2.67188 7.62656 2.79167 8.26719 3.03125C8.90781 3.26562 9.48854 3.60417 10.0094 4.04688L8.8375 6C8.49896 5.65625 8.10833 5.38802 7.66562 5.19531C7.22292 4.9974 6.75677 4.89844 6.26719 4.89844C5.7776 4.89844 5.31667 4.99219 4.88437 5.17969C4.45729 5.36719 4.08229 5.6224 3.75937 5.94531C3.43646 6.26302 3.18125 6.63802 2.99375 7.07031C2.80625 7.4974 2.7125 7.95573 2.7125 8.44531C2.7125 8.9401 2.80625 9.40365 2.99375 9.83594C3.18125 10.2682 3.43646 10.6458 3.75937 10.9688C4.08229 11.2917 4.45729 11.5469 4.88437 11.7344C5.31667 11.9219 5.7776 12.0156 6.26719 12.0156C6.54844 12.0156 6.82187 11.9818 7.0875 11.9141C7.35312 11.8464 7.60573 11.7526 7.84531 11.6328V8.44531H10.0094V12.8672ZM20.4109 14H19.8953L19.0672 12.8516C18.8641 13.0339 18.6479 13.2057 18.4187 13.3672C18.1948 13.5234 17.9578 13.6615 17.7078 13.7812C17.4578 13.8958 17.2 13.987 16.9344 14.0547C16.674 14.1224 16.4083 14.1562 16.1375 14.1562C15.549 14.1562 14.9943 14.0573 14.4734 13.8594C13.9578 13.6615 13.5047 13.375 13.1141 13C12.7286 12.6198 12.424 12.1562 12.2 11.6094C11.976 11.0625 11.8641 10.4401 11.8641 9.74219C11.8641 9.09115 11.976 8.49479 12.2 7.95312C12.424 7.40625 12.7286 6.9375 13.1141 6.54688C13.5047 6.15625 13.9578 5.85417 14.4734 5.64062C14.9943 5.42188 15.549 5.3125 16.1375 5.3125C16.4083 5.3125 16.6766 5.34635 16.9422 5.41406C17.2078 5.48177 17.4656 5.57552 17.7156 5.69531C17.9656 5.8151 18.2026 5.95573 18.4266 6.11719C18.6557 6.27865 18.8693 6.45312 19.0672 6.64062L19.8953 5.64844H20.4109V14ZM18.2625 9.74219C18.2625 9.45052 18.2052 9.16927 18.0906 8.89844C17.9812 8.6224 17.8302 8.38021 17.6375 8.17188C17.4448 7.95833 17.2182 7.78906 16.9578 7.66406C16.7026 7.53385 16.4292 7.46875 16.1375 7.46875C15.8458 7.46875 15.5698 7.51823 15.3094 7.61719C15.0542 7.71615 14.8302 7.86198 14.6375 8.05469C14.45 8.2474 14.3016 8.48698 14.1922 8.77344C14.0828 9.05469 14.0281 9.3776 14.0281 9.74219C14.0281 10.1068 14.0828 10.4323 14.1922 10.7188C14.3016 11 14.45 11.237 14.6375 11.4297C14.8302 11.6224 15.0542 11.7682 15.3094 11.8672C15.5698 11.9661 15.8458 12.0156 16.1375 12.0156C16.4292 12.0156 16.7026 11.9531 16.9578 11.8281C17.2182 11.6979 17.4448 11.5286 17.6375 11.3203C17.8302 11.1068 17.9812 10.8646 18.0906 10.5938C18.2052 10.3177 18.2625 10.0339 18.2625 9.74219ZM24.9922 14H22.8438V2.30469H24.9922V14ZM29.5734 17.1875H27.425V5.63281H27.9406L28.7922 6.64062C28.9849 6.45833 29.1958 6.28646 29.425 6.125C29.6542 5.96354 29.8911 5.82552 30.1359 5.71094C30.3859 5.59115 30.6437 5.4974 30.9094 5.42969C31.175 5.36198 31.4432 5.32812 31.7141 5.32812C32.3026 5.32812 32.8547 5.4349 33.3703 5.64844C33.8911 5.85677 34.3443 6.15365 34.7297 6.53906C35.1203 6.92448 35.4276 7.39062 35.6516 7.9375C35.8755 8.47917 35.9875 9.08073 35.9875 9.74219C35.9875 10.4297 35.8755 11.0495 35.6516 11.6016C35.4276 12.1484 35.1203 12.6146 34.7297 13C34.3443 13.3802 33.8911 13.6719 33.3703 13.875C32.8547 14.0781 32.3026 14.1797 31.7141 14.1797C31.5266 14.1797 31.3391 14.1589 31.1516 14.1172C30.9693 14.0755 30.787 14.0208 30.6047 13.9531C30.4276 13.8802 30.2505 13.7995 30.0734 13.7109C29.9016 13.6224 29.7349 13.5312 29.5734 13.4375V17.1875ZM33.8469 9.74219C33.8469 9.38802 33.7896 9.07031 33.675 8.78906C33.5656 8.50781 33.4146 8.27083 33.2219 8.07812C33.0292 7.88021 32.8026 7.72917 32.5422 7.625C32.2818 7.52083 32.0057 7.46875 31.7141 7.46875C31.4224 7.46875 31.1464 7.52083 30.8859 7.625C30.6307 7.72917 30.4068 7.88021 30.2141 8.07812C30.0214 8.27083 29.8677 8.50781 29.7531 8.78906C29.6437 9.07031 29.5891 9.38802 29.5891 9.74219C29.5891 10.0807 29.6437 10.3906 29.7531 10.6719C29.8677 10.9531 30.0214 11.1927 30.2141 11.3906C30.4068 11.5885 30.6307 11.7422 30.8859 11.8516C31.1464 11.9609 31.4224 12.0156 31.7141 12.0156C32.0057 12.0156 32.2818 11.9609 32.5422 11.8516C32.8026 11.7422 33.0292 11.5885 33.2219 11.3906C33.4146 11.1927 33.5656 10.9531 33.675 10.6719C33.7896 10.3906 33.8469 10.0807 33.8469 9.74219ZM40.4906 3.35938C40.4906 3.55729 40.4516 3.74219 40.3734 3.91406C40.3005 4.08594 40.199 4.23698 40.0687 4.36719C39.9385 4.49219 39.7849 4.59375 39.6078 4.67188C39.4359 4.74479 39.251 4.78125 39.0531 4.78125C38.8552 4.78125 38.6677 4.74479 38.4906 4.67188C38.3187 4.59375 38.1677 4.49219 38.0375 4.36719C37.9125 4.23698 37.8109 4.08594 37.7328 3.91406C37.6599 3.74219 37.6234 3.55729 37.6234 3.35938C37.6234 3.16667 37.6599 2.98438 37.7328 2.8125C37.8109 2.63542 37.9125 2.48438 38.0375 2.35938C38.1677 2.22917 38.3187 2.1276 38.4906 2.05469C38.6677 1.97656 38.8552 1.9375 39.0531 1.9375C39.251 1.9375 39.4359 1.97656 39.6078 2.05469C39.7849 2.1276 39.9385 2.22917 40.0687 2.35938C40.199 2.48438 40.3005 2.63542 40.3734 2.8125C40.4516 2.98438 40.4906 3.16667 40.4906 3.35938ZM40.1234 14H37.975V5.63281H40.1234V14Z" fill="#2B2726"/>
</svg>
