<?xml version="1.0" encoding="utf-8"?>
<!-- Generator: Adobe Illustrator 25.4.1, SVG Export Plug-In . SVG Version: 6.00 Build 0)  -->
<svg version="1.1" id="레이어_1" xmlns="http://www.w3.org/2000/svg" xmlns:xlink="http://www.w3.org/1999/xlink" x="0px"
	 y="0px" viewBox="0 0 302 78.3" style="enable-background:new 0 0 302 78.3;" xml:space="preserve">
<style type="text/css">
	.st0{fill:none;stroke:#2B2726;stroke-width:2;stroke-linecap:round;}
	.st1{fill:#2B2726;}
	.st2{fill:none;stroke:#2B2726;stroke-width:2;stroke-linecap:round;stroke-opacity:0.3;}
	.st3{clip-path:url(#SVGID_00000104668865581788278410000012629625017330273964_);}
	.st4{clip-path:url(#SVGID_00000168104157726447546300000009591633694777314466_);}
	.st5{clip-path:url(#SVGID_00000183219342385665253350000008138070949537025428_);}
	.st6{clip-path:url(#SVGID_00000008857135329070945160000005539118392093708693_);}
	.st7{clip-path:url(#SVGID_00000183936967995588327000000001815110304580423093_);}
</style>
<path class="st0" d="M1,24.8h162.6"/>
<ellipse class="st1" cx="164.2" cy="24.8" rx="3.6" ry="3.5"/>
<path class="st2" d="M163.6,24.8H301"/>
<g>
	<defs>
		<rect id="SVGID_1_" x="11" y="48.3" width="58" height="20"/>
	</defs>
	<clipPath id="SVGID_00000092458769430538514030000002155684186915536553_">
		<use xlink:href="#SVGID_1_"  style="overflow:visible;"/>
	</clipPath>
	<g style="clip-path:url(#SVGID_00000092458769430538514030000002155684186915536553_);">
		<path class="st1" d="M15,53.3h10v3l4-4l-4-4v3H13v6h2V53.3z M25,63.3H15v-3l-4,4l4,4v-3h12v-6h-2V63.3z"/>
	</g>
</g>
<g>
	<defs>
		<rect id="SVGID_00000065770680637142362290000009220398673069547913_" x="101.5" y="52.3" width="12" height="12"/>
	</defs>
	<clipPath id="SVGID_00000047040518682021909720000003642666534437308350_">
		<use xlink:href="#SVGID_00000065770680637142362290000009220398673069547913_"  style="overflow:visible;"/>
	</clipPath>
	<g style="clip-path:url(#SVGID_00000047040518682021909720000003642666534437308350_);">
		<path class="st1" d="M101.5,52.3h2v12h-2V52.3z M105,58.3l8.5,6v-12L105,58.3z"/>
	</g>
</g>
<g>
	<defs>
		<rect id="SVGID_00000018923664367826743040000012158566478849857705_" x="146" y="51.3" width="12" height="14"/>
	</defs>
	<clipPath id="SVGID_00000054957651671926921730000004673280702629158801_">
		<use xlink:href="#SVGID_00000018923664367826743040000012158566478849857705_"  style="overflow:visible;"/>
	</clipPath>
	<g style="clip-path:url(#SVGID_00000054957651671926921730000004673280702629158801_);">
		<path class="st1" d="M146,65.3h4v-14h-4V65.3z M154,51.3v14h4v-14H154z"/>
	</g>
</g>
<g>
	<defs>
		<rect id="SVGID_00000018210129516518839980000017078851395004595614_" x="190.5" y="52.3" width="12" height="12"/>
	</defs>
	<clipPath id="SVGID_00000130646805382190478160000016501681044980008090_">
		<use xlink:href="#SVGID_00000018210129516518839980000017078851395004595614_"  style="overflow:visible;"/>
	</clipPath>
	<g style="clip-path:url(#SVGID_00000130646805382190478160000016501681044980008090_);">
		<path class="st1" d="M190.5,64.3l8.5-6l-8.5-6V64.3z M200.5,52.3v12h2v-12H200.5z"/>
	</g>
</g>
<g>
	<defs>
		<rect id="SVGID_00000008852012258798490210000008413551577696509058_" x="235" y="50.3" width="56" height="16"/>
	</defs>
	<clipPath id="SVGID_00000095317128912947196990000011855741577950095790_">
		<use xlink:href="#SVGID_00000008852012258798490210000008413551577696509058_"  style="overflow:visible;"/>
	</clipPath>
	<g style="clip-path:url(#SVGID_00000095317128912947196990000011855741577950095790_);">
		<path class="st1" d="M281.6,55.5l-5.2-5.2l-1.4,1.4l5.2,5.2L281.6,55.5z M285.5,50.3l2,2L275,64.9l1.4,1.4L289,53.8l2,2v-5.5
			H285.5z M285.8,59.7l-1.4,1.4l3.1,3.1l-2,2h5.5v-5.5l-2,2L285.8,59.7z"/>
	</g>
</g>
</svg>
