<svg width="15" height="12" viewBox="0 0 15 12" fill="none" xmlns="http://www.w3.org/2000/svg">
<path d="M14.9191 3.14499L14.9004 3.01936L14.8809 3.02385C14.7481 2.40248 14.442 1.83144 13.9981 1.37678C13.5542 0.922128 12.9906 0.60245 12.3726 0.454736C11.7546 0.307022 11.1074 0.337309 10.5059 0.542093C9.9044 0.746877 9.37316 1.11779 8.97367 1.61191C8.57418 2.10603 8.32275 2.70317 8.24849 3.33423C8.17423 3.96529 8.28016 4.60448 8.55404 5.17784C8.82791 5.7512 9.25853 6.2353 9.79607 6.57413C10.3336 6.91296 10.9561 7.09266 11.5915 7.09244C11.7583 7.09244 11.9183 7.06702 12.0776 7.04384C12.026 7.21732 11.9729 7.3938 11.8876 7.55232C11.8024 7.78263 11.6693 7.98229 11.5369 8.18344C11.4263 8.40104 11.2311 8.54835 11.0875 8.73454C10.9372 8.9155 10.7323 9.03589 10.5701 9.18619C10.4108 9.34322 10.2022 9.42174 10.0362 9.53241C9.86267 9.63186 9.71163 9.74178 9.55011 9.79413L9.14706 9.96013L8.79262 10.1074L9.15454 11.5574L9.60096 11.4497C9.74378 11.4138 9.91801 11.3719 10.1162 11.3218C10.3188 11.2844 10.5349 11.182 10.7757 11.0885C11.0127 10.9816 11.2887 10.9105 11.5444 10.7393C11.8016 10.5763 12.0985 10.4402 12.3602 10.2218C12.6137 9.99677 12.9195 9.8016 13.1454 9.51595C13.3921 9.24825 13.6359 8.9671 13.8251 8.64705C14.0442 8.34196 14.193 8.00696 14.35 7.6757C14.4921 7.34444 14.6065 7.0057 14.7 6.67669C14.8772 6.01716 14.9565 5.39053 14.9871 4.85438C15.0125 4.31748 14.9976 3.87107 14.9662 3.54803C14.9557 3.41313 14.94 3.27868 14.9191 3.14499ZM6.69364 3.14499L6.67495 3.01936L6.65551 3.02385C6.52263 2.40248 6.21654 1.83144 5.77265 1.37678C5.32876 0.922128 4.7652 0.60245 4.1472 0.454736C3.52919 0.307022 2.88199 0.337309 2.28048 0.542093C1.67897 0.746877 1.14773 1.11779 0.74824 1.61191C0.348747 2.10603 0.097324 2.70317 0.0230619 3.33423C-0.0512002 3.96529 0.0547341 4.60448 0.328607 5.17784C0.602481 5.7512 1.0331 6.2353 1.57064 6.57413C2.10818 6.91296 2.73067 7.09266 3.36608 7.09244C3.53283 7.09244 3.69286 7.06702 3.85213 7.04384C3.80053 7.21732 3.74744 7.3938 3.6622 7.55232C3.57695 7.78263 3.44385 7.98229 3.31149 8.18344C3.20083 8.40104 3.00566 8.54835 2.86209 8.73454C2.71179 8.9155 2.5069 9.03589 2.34463 9.18619C2.18536 9.34322 1.97673 9.42174 1.81073 9.53241C1.63725 9.63186 1.4862 9.74178 1.32468 9.79413L0.921634 9.96013C0.696556 10.0521 0.56794 10.1059 0.56794 10.1059L0.929859 11.5559L1.37628 11.4482C1.5191 11.4123 1.69333 11.3704 1.89149 11.3203C2.09413 11.2829 2.31024 11.1805 2.55102 11.087C2.78806 10.9801 3.06398 10.909 3.31972 10.7378C3.57695 10.5748 3.87381 10.4387 4.13553 10.2204C4.38903 9.99527 4.69486 9.80011 4.92069 9.51446C5.16745 9.24676 5.41122 8.9656 5.60041 8.64556C5.8195 8.34047 5.96831 8.00547 6.12534 7.67421C6.26741 7.34295 6.38182 7.00421 6.47529 6.67519C6.65251 6.01566 6.73178 5.38903 6.76244 4.85289C6.78786 4.31599 6.77291 3.86957 6.7415 3.54654C6.73033 3.41216 6.71437 3.27822 6.69364 3.14499Z" fill="#2B2726" fill-opacity="0.3"/>
</svg>
