<svg width="15" height="12" viewBox="0 0 15 12" fill="none" xmlns="http://www.w3.org/2000/svg">
<path d="M3.40927 4.82713C3.24252 4.82713 3.0825 4.85255 2.92322 4.87573C2.97482 4.70225 3.02791 4.52577 3.11315 4.36725C3.1984 4.13693 3.3315 3.93728 3.46386 3.73612C3.57453 3.51852 3.7697 3.37121 3.91327 3.18501C4.06358 3.00405 4.26847 2.88366 4.43073 2.73336C4.59001 2.57633 4.79864 2.49781 4.96464 2.38714C5.13813 2.28769 5.28918 2.17776 5.4507 2.12542L5.85375 1.95941L6.20819 1.8121L5.84552 0.362915L5.3991 0.470594C5.25628 0.506487 5.08204 0.548363 4.88388 0.598464C4.68124 0.635852 4.46513 0.738298 4.22435 0.831769C3.98655 0.937953 3.71137 1.00974 3.45563 1.18023C3.1984 1.34325 2.90153 1.47934 2.63981 1.69769C2.38632 1.92277 2.08048 2.11794 1.85465 2.40434C1.60788 2.67204 1.36411 2.9532 1.17492 3.27325C0.955826 3.57834 0.807018 3.91335 0.649986 4.24461C0.507909 4.57587 0.393499 4.91462 0.300027 5.24364C0.122805 5.90317 0.0435408 6.52981 0.0128821 7.06596C-0.0125422 7.60287 0.00241325 8.04929 0.0338198 8.37232C0.0450364 8.52487 0.0659741 8.67293 0.0809296 8.77538L0.0996239 8.901L0.119066 8.89651C0.252066 9.51779 0.558237 10.0887 1.00216 10.5432C1.44608 10.9978 2.00962 11.3174 2.62758 11.465C3.24554 11.6126 3.89267 11.5823 4.49411 11.3775C5.09555 11.1727 5.62673 10.8018 6.02619 10.3078C6.42565 9.81371 6.67708 9.21665 6.75139 8.58566C6.8257 7.95467 6.71984 7.31554 6.44608 6.74219C6.17232 6.16885 5.74183 5.68472 5.20442 5.34582C4.667 5.00692 4.04462 4.82708 3.40927 4.82713ZM11.6348 4.82713C11.468 4.82713 11.308 4.85255 11.1487 4.87573C11.2003 4.70225 11.2534 4.52577 11.3387 4.36725C11.4239 4.13693 11.557 3.93728 11.6894 3.73612C11.8 3.51852 11.9952 3.37121 12.1388 3.18501C12.2891 3.00405 12.494 2.88366 12.6562 2.73336C12.8155 2.57633 13.0242 2.49781 13.1902 2.38714C13.3636 2.28769 13.5147 2.17776 13.6762 2.12542L14.0793 1.95941L14.4337 1.8121L14.071 0.362915L13.6246 0.470594C13.4818 0.506487 13.3076 0.548363 13.1094 0.598464C12.9068 0.635852 12.6906 0.738298 12.4499 0.831769C12.2128 0.938701 11.9369 1.00974 11.6812 1.18098C11.4239 1.34399 11.1271 1.48009 10.8653 1.69844C10.6118 1.92352 10.306 2.11869 10.0802 2.40434C9.8334 2.67204 9.58963 2.9532 9.40044 3.27325C9.18134 3.57834 9.03254 3.91335 8.8755 4.24461C8.73343 4.57587 8.61902 4.91462 8.52554 5.24364C8.34832 5.90317 8.26906 6.52981 8.2384 7.06596C8.21297 7.60287 8.22793 8.04929 8.25934 8.37232C8.27055 8.52487 8.29149 8.67293 8.30645 8.77538L8.32514 8.901L8.34458 8.89651C8.47758 9.51779 8.78375 10.0887 9.22768 10.5432C9.6716 10.9978 10.2351 11.3174 10.8531 11.465C11.4711 11.6126 12.1182 11.5823 12.7196 11.3775C13.3211 11.1727 13.8522 10.8018 14.2517 10.3078C14.6512 9.81371 14.9026 9.21665 14.9769 8.58566C15.0512 7.95467 14.9454 7.31554 14.6716 6.74219C14.3978 6.16885 13.9673 5.68472 13.4299 5.34582C12.8925 5.00692 12.2701 4.82708 11.6348 4.82713Z" fill="#2B2726" fill-opacity="0.3"/>
</svg>
