<?xml version="1.0" encoding="utf-8"?>
<!-- Generator: Adobe Illustrator 25.4.1, SVG Export Plug-In . SVG Version: 6.00 Build 0)  -->
<svg version="1.1" id="Layer_1" xmlns="http://www.w3.org/2000/svg" xmlns:xlink="http://www.w3.org/1999/xlink" x="0px" y="0px"
	 viewBox="0 0 300 300" style="enable-background:new 0 0 300 300;" xml:space="preserve">
<style type="text/css">
	.st0{clip-path:url(#SVGID_00000080179032138180370050000014264201331086744476_);}
	.st1{fill:#FFF5E0;}
	.st2{fill:#FFFFFF;}
	.st3{fill:none;stroke:#F7D2B6;stroke-linecap:round;stroke-linejoin:round;}
	.st4{fill:none;stroke:#F46A54;stroke-linecap:round;stroke-linejoin:round;}
	.st5{fill:none;stroke:#CB154F;stroke-linecap:round;stroke-linejoin:round;}
	.st6{fill:#FFBBA9;}
	.st7{fill:none;stroke:#F5627E;stroke-linecap:round;stroke-linejoin:round;}
	.st8{fill:#FF988D;}
	.st9{fill:none;stroke:#FF988D;stroke-linecap:round;stroke-linejoin:round;}
	.st10{fill:none;stroke:#F5A091;stroke-linecap:round;stroke-linejoin:round;}
	.st11{fill:#FFFFFF;stroke:#CB154F;stroke-linecap:round;stroke-linejoin:round;}
	.st12{fill:#FFBBA9;stroke:#CB154F;stroke-miterlimit:10;}
	.st13{fill:#FFBBA9;stroke:#CB154F;stroke-linecap:round;stroke-linejoin:round;}
	.st14{fill:#FFF5E0;stroke:#CB154F;stroke-linecap:round;stroke-linejoin:round;}
	.st15{opacity:0.7;fill:#FFFFFF;enable-background:new    ;}
	.st16{opacity:0.5;fill:#FFBA84;enable-background:new    ;}
</style>
<g>
	<defs>
		<rect id="SVGID_1_" width="300" height="300"/>
	</defs>
	<clipPath id="SVGID_00000079448067546148794380000004973635387037204364_">
		<use xlink:href="#SVGID_1_"  style="overflow:visible;"/>
	</clipPath>
	<g style="clip-path:url(#SVGID_00000079448067546148794380000004973635387037204364_);">
		<rect x="-0.1" y="-0.1" class="st1" width="300.2" height="300.2"/>
		<path class="st2" d="M263.6,150.2c0,9.7-3.6,19.9-6,28.9c-2.5,9.2-4.3,20-9,28.1c-4.9,8.7-10.9,16.7-17.8,23.8
			c-6.7,6.7-19.8,5.8-28,10.6s-14.5,14.4-23.8,16.8c-8.9,2.4-19.3,2.6-29,2.6s-17.5-9.9-26.4-12.3c-9.2-2.5-22.8,5.4-30.9,0.7
			s-8.1-20.5-14.8-27.1s-22.2-6.7-26.9-14.9s-2.8-20-5.2-29.2c-2.4-8.9-9.5-18.2-9.5-27.9s7-19,9.4-27.9c2.5-9.2,3.5-19.4,8.2-27.6
			S66,79.5,72.7,72.8s16.7-8.8,24.9-13.5c5.5-3.3,11.3-6.1,17.4-8.3c2.5-0.9,5.1-1.8,7.9-2.5c8.9-2.4,17.6-10.3,27.2-10.3
			c9.8,0,19.5,1.2,29,3.7c9.2,2.5,20.2,4.3,28.3,9s14.6,14.1,21.2,20.7s14.4,13.9,19.2,22.1s3.9,19.3,6.4,28.5
			C256.5,131.2,263.6,140.5,263.6,150.2z"/>
		<path class="st2" d="M381.1,147.5H180.5L288,136.9c0.3,0,0.5-0.3,0.5-0.5c0,0,0,0,0,0c0-0.3-0.3-0.5-0.5-0.4l-107.7,10.6l4.3-8.1
			l137.2-56.8c1.3-0.3,2.2-1.7,1.8-3c-0.3-1.3-1.7-2.2-3-1.8c-0.2,0.1-0.5,0.2-0.7,0.3l-131.6,54.4l0.8-1.6l1.6-1.1L354,41.5
			c0.2-0.1,0.3-0.4,0.2-0.7c0,0,0,0,0,0c-0.1-0.2-0.4-0.3-0.7-0.2l-154.3,82.5l145.7-97.4c2.3-1.5,3-4.6,1.5-6.9
			c-1.5-2.3-4.6-3-6.9-1.5c0,0-0.1,0.1-0.1,0.1l-140.3,93.7l0.8-1.5l75.5-61.9c0.2-0.2,0.2-0.5,0.1-0.7c-0.2-0.2-0.5-0.2-0.7-0.1
			l-73.6,60.4l5.7-10.7L315.2-11.6c1-1,1-2.6,0-3.5c-1-1-2.6-1-3.5,0c0,0,0,0,0,0L215,81.5l22.4-42c6.5-12.2,1.9-27.3-10.3-33.8
			c-12.2-6.5-27.3-1.9-33.8,10.3l0,0l-33.9,63.3l13.4-135.9c0.1-1.4-0.9-2.6-2.2-2.7c0,0,0,0,0,0c-1.4-0.1-2.6,0.9-2.7,2.2
			c0,0,0,0,0,0L153.4,90.1l-2.9-14.5v-87.4c0-0.3-0.2-0.5-0.5-0.5s-0.5,0.2-0.5,0.5v82.4L119.6-79.6C118-87.7,110.1-93,102-91.4
			c-8.1,1.6-13.4,9.5-11.8,17.6c0,0,0,0,0,0L124,96L43.3-55c-0.7-1.2-2.2-1.7-3.4-1c-1.2,0.7-1.7,2.2-1,3.4l88.5,165.5l0.7,3.2
			L22-42.4c-0.1-0.2-0.5-0.3-0.7-0.1c0,0,0,0,0,0c-0.2,0.2-0.3,0.5-0.1,0.7l105.7,158.1L40.9,30.3c-3-2.8-7.8-2.7-10.6,0.4
			c-2.7,2.9-2.7,7.3,0,10.2l78.7,78.7l-149.7-100c-1.1-0.8-2.7-0.5-3.5,0.7c0,0,0,0,0,0c-0.8,1.1-0.5,2.7,0.7,3.5l156.6,104.6
			l-1-0.3L28.4,83.3c-0.7-0.4-1.7-0.1-2.1,0.6S26.3,85.6,27,86l0,0l70.4,37.7l-36.8-11.2L0.8,87.6c-0.3-0.1-0.5,0-0.7,0.3
			c0,0,0,0,0,0c-0.1,0.3,0,0.5,0.3,0.7l50.5,20.9l-97-29.4c-5.3-1.6-10.9,1.4-12.5,6.7c-1.6,5.3,1.4,10.9,6.7,12.5c0,0,0,0,0,0
			l148.4,45l-107.5-10.6c-0.3,0-0.5,0.2-0.6,0.4c0,0.3,0.2,0.5,0.4,0.5l112.5,11.1l5.9,1.8H-81.1c-1.4,0-2.5,1.1-2.5,2.5
			s1.1,2.5,2.5,2.5h200.6L12,163.1c-0.3,0-0.5,0.2-0.5,0.5s0.2,0.5,0.5,0.5h0.1l107.7-10.6l-4.3,8.1l-137.2,56.8
			c-1.3,0.5-1.9,2-1.4,3.3c0,0,0,0,0,0c0.4,0.9,1.3,1.6,2.3,1.6c0.3,0,0.6-0.1,1-0.2l131.6-54.5l-0.8,1.6l-1.6,1.1L-54,258.5
			c-0.2,0.1-0.3,0.4-0.2,0.7c0,0,0,0,0,0c0.1,0.2,0.3,0.3,0.4,0.3c0.1,0,0.2,0,0.2-0.1l154.3-82.5l-145.7,97.4
			c-2.3,1.5-2.9,4.6-1.4,6.9c0.9,1.4,2.5,2.2,4.2,2.2c1,0,1.9-0.3,2.8-0.8l140.3-93.7l-0.8,1.5l-75.5,61.9c-0.2,0.2-0.2,0.5-0.1,0.7
			c0.1,0.1,0.2,0.2,0.4,0.2c0.1,0,0.2,0,0.3-0.1l73.6-60.4l-5.7,10.7L-15.2,311.6c-1,1-1,2.6,0,3.5c0,0,0,0,0,0
			c0.5,0.5,1.1,0.7,1.8,0.7c0.7,0,1.3-0.3,1.8-0.7L85,218.5l-22.5,42c-6.5,12.2-1.9,27.3,10.3,33.8c12.2,6.5,27.3,1.9,33.8-10.3
			l33.8-63.3l-13.4,136c-0.1,1.4,0.9,2.6,2.2,2.7c0,0,0,0,0,0h0.2c1.3,0,2.4-1,2.5-2.2l14.5-147.4l2.9,14.5v87.4
			c0,0.3,0.2,0.5,0.5,0.5s0.5-0.2,0.5-0.5v-82.4l29.9,150.2c1.4,7,7.5,12.1,14.7,12.1c1,0,2-0.1,2.9-0.3c8.1-1.6,13.4-9.5,11.8-17.6
			L176,204l80.7,151c0.7,1.2,2.2,1.7,3.4,1c1.2-0.7,1.7-2.2,1-3.4l-88.5-165.5l-0.6-3.2l106,158.5c0.1,0.1,0.2,0.2,0.4,0.2
			c0.1,0,0.2,0,0.3-0.1c0.2-0.2,0.3-0.5,0.1-0.7L173.2,183.8l85.9,85.9c3,2.8,7.8,2.7,10.6-0.4c2.7-2.9,2.7-7.3,0-10.2L191,180.4
			l149.7,100c0.4,0.3,0.9,0.4,1.4,0.4c1.4,0,2.5-1.1,2.5-2.5c0-0.8-0.4-1.6-1.1-2.1L186.9,171.6l1,0.3l83.7,44.8
			c0.2,0.1,0.5,0.2,0.7,0.2c0.8,0,1.5-0.6,1.5-1.5c0-0.6-0.3-1.2-0.9-1.4l-70.4-37.6l36.8,11.2l59.9,24.8c0.1,0,0.1,0,0.2,0
			c0.2,0,0.4-0.1,0.5-0.3c0.1-0.3,0-0.5-0.3-0.6l-50.5-20.9l97,29.4c0.9,0.3,1.9,0.4,2.9,0.4c5.5,0,10-4.4,10-10
			c0-4.4-2.9-8.3-7.1-9.6l-148.4-45L311,166.3h0c0.3,0,0.5-0.2,0.5-0.5c0-0.3-0.2-0.5-0.5-0.5l-112.5-11.1l-5.9-1.8h188.4
			c1.4,0,2.5-1.1,2.5-2.5S382.5,147.5,381.1,147.5z"/>
		<line class="st3" x1="292.4" y1="4.1" x2="226.6" y2="69.9"/>
		<path class="st4" d="M260.8,42.7l54.4-54.3c1-1,1-2.6,0-3.5c-1-1-2.6-1-3.5,0c0,0,0,0,0,0"/>
		<line class="st3" x1="230.1" y1="73.4" x2="257" y2="46.5"/>
		<path class="st3" d="M244.8,92.7l100.1-66.9c2.3-1.5,3-4.6,1.5-6.9c-1.5-2.3-4.6-3-6.9-1.5c0,0-0.1,0.1-0.1,0.1L239.3,84.3"/>
		<line class="st3" x1="263.6" y1="100.2" x2="251.4" y2="105.3"/>
		<path class="st3" d="M321.8,81.6c1.3-0.3,2.2-1.7,1.8-3c-0.3-1.3-1.7-2.2-3-1.8c-0.2,0.1-0.5,0.2-0.7,0.3l-51.6,21.3"/>
		<line class="st3" x1="253.3" y1="109.9" x2="296.4" y2="92.1"/>
		<path class="st3" d="M260.8,152.5h120.3c1.4,0,2.5-1.1,2.5-2.5s-1.1-2.5-2.5-2.5H260.8"/>
		<path class="st5" d="M260.2,161.4l50.7,5h0.1c0.3,0,0.5-0.2,0.5-0.5c0-0.3-0.2-0.5-0.5-0.5l-50.7-5"/>
		<path class="st3" d="M252.7,191.6l93.4,28.3c0.9,0.3,1.9,0.4,2.9,0.4c5.5,0,10-4.4,10-10c0-4.4-2.9-8.3-7.1-9.6l-93.4-28.3"/>
		<line class="st3" x1="271.6" y1="213.3" x2="248.4" y2="200.9"/>
		<line class="st3" x1="247" y1="203.6" x2="267" y2="214.2"/>
		<line class="st3" x1="296.3" y1="244.8" x2="243.5" y2="209.5"/>
		<path class="st3" d="M286.8,244.4l54,36c0.4,0.3,0.9,0.4,1.4,0.4c1.4,0,2.5-1.1,2.5-2.5c0-0.8-0.4-1.6-1.1-2.1"/>
		<line class="st3" x1="274.3" y1="236.1" x2="282.5" y2="241.5"/>
		<line class="st3" x1="240.7" y1="213.6" x2="270" y2="233.2"/>
		<line class="st3" x1="269.7" y1="259.1" x2="233.5" y2="222.9"/>
		<line class="st3" x1="246.4" y1="257" x2="259.1" y2="269.7"/>
		<line class="st3" x1="222.9" y1="233.5" x2="241.2" y2="251.8"/>
		<path class="st3" d="M200,248.9L256.7,355c0.7,1.2,2.2,1.7,3.4,1c1.2-0.7,1.7-2.2,1-3.4l-56.7-106.1"/>
		<line class="st3" x1="192.6" y1="287.4" x2="186.1" y2="254.8"/>
		<path class="st3" d="M193.8,293.2l16,80.5c1.6,8.1-3.7,16-11.8,17.6c-1,0.2-2,0.3-2.9,0.3c-7.2,0-13.3-5.1-14.7-12.1l-23.7-119"/>
		<line class="st3" x1="138.2" y1="295.1" x2="141.6" y2="260.5"/>
		<path class="st3" d="M136.6,260l-9.5,96.7c-0.1,1.4,0.9,2.6,2.2,2.7c0,0,0,0,0,0h0.2c1.3,0,2.4-1,2.5-2.2"/>
		<line class="st3" x1="106.7" y1="284.1" x2="121.2" y2="257"/>
		<line class="st3" x1="77.1" y1="233.4" x2="62.6" y2="260.5"/>
		<path class="st3" d="M69.9,226.6l-85.1,85.1c-1,1-1,2.6,0,3.5c0,0,0,0,0,0c0.5,0.5,1.1,0.7,1.8,0.7c0.7,0,1.3-0.3,1.8-0.7
			l85.1-85.1"/>
		<path class="st3" d="M55.2,207.4l-100.1,66.9c-2.3,1.5-2.9,4.6-1.4,6.9c0.9,1.4,2.5,2.2,4.2,2.2c1,0,1.9-0.3,2.8-0.8l100.1-66.9"
			/>
		<path class="st4" d="M46.7,190.1l-68.4,28.4c-1.3,0.5-1.9,2-1.4,3.3c0,0,0,0,0,0c0.4,0.9,1.3,1.6,2.3,1.6c0.3,0,0.6-0.1,1-0.2
			l68.4-28.3"/>
		<path class="st5" d="M39.7,160.4L12,163.1c-0.3,0-0.5,0.2-0.5,0.5s0.2,0.5,0.5,0.5h0.1l27.7-2.7"/>
		<path class="st3" d="M39.2,147.5H-81.1c-1.4,0-2.5,1.1-2.5,2.5s1.1,2.5,2.5,2.5H39.2"/>
		<line class="st3" x1="16.8" y1="120.1" x2="41.5" y2="127.5"/>
		<path class="st3" d="M47.3,108.4l-93.4-28.3c-5.3-1.6-10.9,1.4-12.5,6.7c-1.6,5.3,1.4,10.9,6.7,12.5c0,0,0,0,0,0L10,118"/>
		<line class="st3" x1="27" y1="86" x2="51.6" y2="99.1"/>
		<line class="st3" x1="53" y1="96.4" x2="28.4" y2="83.3"/>
		<line class="st3" x1="51.6" y1="87.2" x2="56.5" y2="90.5"/>
		<line class="st3" x1="41.9" y1="80.8" x2="48.8" y2="85.4"/>
		<path class="st3" d="M6,50.8l-46.8-31.2c-1.1-0.8-2.7-0.5-3.5,0.7c0,0,0,0,0,0c-0.8,1.1-0.5,2.7,0.7,3.5L39.2,79"/>
		<line class="st3" x1="59.3" y1="86.4" x2="10" y2="53.5"/>
		<line class="st3" x1="46.8" y1="57.4" x2="66.5" y2="77.1"/>
		<line class="st3" x1="30.3" y1="40.9" x2="42.6" y2="53.2"/>
		<line class="st3" x1="77.1" y1="66.5" x2="40.9" y2="30.3"/>
		<path class="st3" d="M71.1-3L43.3-55c-0.7-1.2-2.2-1.7-3.4-1c-1.2,0.7-1.7,2.2-1,3.4L95.6,53.5"/>
		<line class="st3" x1="100" y1="51.1" x2="74.8" y2="4.1"/>
		<line class="st3" x1="109.7" y1="24.2" x2="113.9" y2="45.2"/>
		<line class="st3" x1="106.8" y1="9.7" x2="108.8" y2="19.8"/>
		<path class="st3" d="M143.3,39.4l-23.7-119C118-87.7,110.1-93,102-91.4c-8.1,1.6-13.4,9.5-11.8,17.6c0,0,0,0,0,0l15.6,78.6"/>
		<line class="st3" x1="159.5" y1="28.4" x2="158.4" y2="39.5"/>
		<path class="st3" d="M167.5-2.3l5.4-54.4c0.1-1.4-0.9-2.6-2.2-2.7c0,0,0,0,0,0c-1.4-0.1-2.6,0.9-2.7,2.2c0,0,0,0,0,0L160,23"/>
		<line class="st3" x1="163.4" y1="40" x2="166.5" y2="7.8"/>
		<line class="st4" x1="193.3" y1="15.9" x2="178.9" y2="43"/>
		<line class="st3" x1="222.9" y1="66.6" x2="237.4" y2="39.5"/>
		<path class="st6" d="M291.8,125.2h-0.3c-1,0-1.9-0.1-2.8-0.5l0,0l-30.2-12.4c-12.8-5.2-26.7-6.9-40.4-4.8l-12.6,1.9
			c-5.5,0.8-9.2,5.9-8.4,11.4c0,0.2,0.1,0.4,0.1,0.7c1.3,5.2,6.3,8.5,11.6,7.6l6.3-1c11.8-1.8,23.7,1.8,32.5,9.8
			c-10.6,3.5-21.5,6.1-32.6,7.8l-22.4,3.1l-31.4,0.8l-13.6-3.7c-5-1.3-10.2,1.4-12,6.3l-7.3-2.4c-5.2-1.7-10.9,1.1-12.6,6.4
			c-1.7,5.2,1.1,10.9,6.4,12.6l56.4,18.6c1.3,0.4,2.6,0.6,3.9,0.5l3.1-0.2l11.9,7.6c1.7,1.1,3.8,1.6,5.8,1.5l71.7-3.3
			c19.2-0.9,26.3-7.3,45.1-19.4l5.2-75.5C325.2,98.6,305.8,124.5,291.8,125.2z"/>
		<path class="st5" d="M273.8,118.6l14.9,6.1l0,0c0.9,0.4,1.8,0.6,2.8,0.5h0.3c14-0.8,33.5-26.6,33.5-26.6l-5.3,75.4
			c-18.9,12.1-26,18.5-45.1,19.4l-41.5,1.9"/>
		<path class="st5" d="M205.1,129.1c-5.4-1.1-8.9-6.3-7.8-11.7c0.8-4.1,4.2-7.3,8.3-7.9l12.6-1.9c13.6-2.1,27.6-0.4,40.4,4.8
			l12.5,5.1"/>
		<path class="st7" d="M136.9,149.9c2.4-3.4,6.7-5,10.8-3.9l7.6,2"/>
		<line class="st7" x1="214.3" y1="176.3" x2="225.2" y2="175.8"/>
		<line class="st7" x1="190.1" y1="157.4" x2="170.9" y2="152.3"/>
		<path class="st7" d="M226.7,152.6c-1.1,1.4-2.8,2.2-4.6,2.2l-28.4,2.3"/>
		<path class="st7" d="M156.2,150.4c3-1.2,6.4-0.9,9.1,0.8l36.8,23.4c2.1,1.4,4.6,2,7.1,1.9"/>
		<path class="st7" d="M190.3,167.1l33.7-2.6c2.5-0.2,4.3-0.5,6.6-2.4"/>
		<path class="st7" d="M117.6,152.9c2.6-3.1,6.9-4.3,10.8-3l22.1,7.3"/>
		<path class="st7" d="M152.4,160.8l11.3,7.2c1.1,0.7,1.4,2,0.8,3.1l0,0"/>
		<path class="st7" d="M117.6,161.5l10.8,3.6c1.6,0.5,2.4,2.2,2,3.8l0,0"/>
		<path class="st7" d="M247.7,138c4.4-1.4,7.6-3.7,13.1-4.9"/>
		<path class="st5" d="M247.7,138L247.7,138c-8.8-7.9-20.8-11.5-32.5-9.7l-6.3,1"/>
		<path class="st7" d="M167,149.5l25.6-0.7c0,0,16.8-2.3,22.4-3.1c21.8-3.1,32.6-7.8,32.6-7.8"/>
		<path class="st6" d="M167.6,109.2l-13.6-1.4l-38.2-14c-2.3-0.9-4.9-0.8-7.2,0.1l-56.5,23l-0.2,0.1l-0.6,0.3l-0.3,0.2
			c-0.2,0.1-0.3,0.2-0.5,0.3c-0.1,0.1-0.3,0.2-0.4,0.3l-0.4,0.3l-0.4,0.4L49,119l-0.4,0.4l-0.2,0.2l-35.2,40L-29.9,192
			c-2.8,2.1-4.3,5.4-4,8.8l3.4,41.9c0.3,3.8,2.8,7.1,6.3,8.5c1.2,0.5,2.4,0.7,3.6,0.7c2.5,0,4.9-1,6.8-2.7L23,215.3
			c7.1-6.6,12.3-7.1,24.7-5.7c11.3,1.3,33.4-5.8,45.1-10.7l10.5-4.4c5.1-2.2,7.4-8,5.3-13.1c-0.1-0.2-0.2-0.4-0.3-0.6
			c-2.4-4.8-8.2-6.6-13.1-4.6c-17.4,7-25.6,7.3-30.2,4.4c1.5-0.7,3-1.3,4.4-1.9c8.9-3.6,10.7-12.6,12.4-21.3
			c1.3-6.3,2.8-13.7,6.6-21.6l13.6-5.1l6.2,0.3l38,16.8c5.1,2.2,11-0.1,13.2-5.1c1.3-3,1.1-6.4-0.6-9.2c2.8-0.4,5.3-2,6.8-4.4
			c5.5,0.4,10.3-3.8,10.7-9.3C176.7,114.5,172.9,109.8,167.6,109.2L167.6,109.2z"/>
		<path class="st8" d="M65,180.6L65,180.6c1.5-0.7,3-1.3,4.4-1.9c8.9-3.6,10.7-12.6,12.4-21.3c1.3-6.3,2.8-13.7,6.6-21.6l-3.4,1.3
			l-6.1,2.3l0,0c-5.2,1.9-8.6,7.4-15.3,23.9c-2.7,6.7-3.4,12.8-0.1,16.1C64,179.8,64.5,180.2,65,180.6z"/>
		<path class="st7" d="M159.7,109.8l2.8,1c5.2,1.9,7.9,7.6,6,12.8c-1.5,4.1-5.5,6.8-9.9,6.6"/>
		<path class="st5" d="M10.5,161.6l-40.3,30.3c-2.8,2.1-4.3,5.4-4,8.8l3.4,41.9c0.3,3.8,2.8,7.1,6.3,8.5c1.2,0.5,2.4,0.7,3.6,0.7
			c2.5,0,4.9-1,6.8-2.7L23,215.3c7.1-6.6,12.3-7.1,24.7-5.7c11.3,1.3,33.4-5.8,45.1-10.7l10.5-4.4c2.2-0.9,3.9-2.5,5-4.6"/>
		<path class="st7" d="M70.6,120.9c-3,0.8-6.2,1.1-9.3,1l0,0"/>
		<line class="st7" x1="105" y1="129.6" x2="108.3" y2="131"/>
		<path class="st7" d="M65,180.6c-0.5-0.3-1-0.7-1.5-1.2c-3.3-3.3-2.7-9.4,0.1-16.1c6.7-16.4,10.1-21.9,15.3-23.9l0,0l6.2-2.3"/>
		<path class="st7" d="M88.6,182.8c-0.8,1.3-1,4-0.4,6.6c1,3.4,4.5,5.4,7.9,4.5c0.2,0,0.4-0.1,0.5-0.2l6.7-2.5"/>
		<line class="st7" x1="91.4" y1="181.6" x2="95.6" y2="180.1"/>
		<path class="st7" d="M143.5,127.9L143.5,127.9c-0.7,1.7,0.1,3.7,1.8,4.5l10.3,4.7"/>
		<path class="st7" d="M154,109.8L154,109.8c-0.6,1.8,0.3,3.8,2.1,4.5l8.8,3.2"/>
		<path class="st5" d="M109.4,186.1c0.2-1.8-0.2-3.6-1-5.2c-2.4-4.8-8.2-6.6-13.1-4.6c-17.4,7-25.6,7.3-30.2,4.4
			c1.5-0.7,3-1.3,4.4-1.9c8.9-3.6,10.7-12.6,12.4-21.3c1.3-6.3,2.8-13.7,6.6-21.6l13.6-5.1l6.2,0.3"/>
		<circle class="st2" cx="276.7" cy="288.1" r="5.1"/>
		<path class="st4" d="M275.5,283.1c2.8-0.7,5.5,1,6.2,3.8s-1,5.5-3.8,6.2s-5.5-1-6.2-3.8c-0.4-1.5,0-3.2,1-4.4"/>
		<circle class="st2" cx="57.4" cy="279.6" r="6.8"/>
		<path class="st4" d="M64.1,281.1c-0.8,3.7-4.4,6-8.1,5.2c-3.7-0.8-6-4.4-5.2-8.1c0.8-3.7,4.4-6,8.1-5.2c0,0,0,0,0,0
			c0.7,0.1,1.3,0.4,1.9,0.8"/>
		<circle class="st2" cx="260.8" cy="10.3" r="6.3"/>
		<path class="st4" d="M266.9,11.7c-0.8,3.4-4.1,5.5-7.5,4.8c-3.4-0.8-5.5-4.1-4.8-7.5c0.8-3.4,4.1-5.5,7.5-4.8
			c0.6,0.1,1.2,0.4,1.8,0.7"/>
		<circle class="st2" cx="284.4" cy="254.8" r="1.9"/>
		<path class="st4" d="M284.8,252.9c0.1,0,0.3,0.1,0.4,0.1c1,0.5,1.4,1.6,0.9,2.6c-0.5,1-1.6,1.4-2.6,0.9c-1-0.5-1.4-1.6-0.9-2.6
			c0,0,0,0,0,0"/>
		<circle class="st2" cx="32.3" cy="9.4" r="3.6"/>
		<path class="st4" d="M35.6,7.9c0.1,0.2,0.2,0.5,0.3,0.8c0.4,1.9-0.8,3.8-2.7,4.3s-3.8-0.8-4.3-2.7c-0.4-1.9,0.8-3.8,2.7-4.3
			c0,0,0,0,0,0"/>
		<circle class="st2" cx="115.1" cy="299.9" r="4"/>
		<path class="st4" d="M117.1,296.4c0.3,0.2,0.5,0.3,0.8,0.5c1.6,1.5,1.8,4,0.3,5.7c-1.5,1.6-4,1.8-5.7,0.3c-1.6-1.5-1.8-4-0.3-5.7
			c0,0,0,0,0,0"/>
		<path class="st8" d="M252.4,170c10.4-6.5,18.1-16.4,21.7-28.1c4.3-13.6,20.4-10.5,25.5,7C276.6,153.1,263.7,165.6,252.4,170z"/>
		<path class="st7" d="M225.2,175.8c30.1-1.4,37.1-13.6,57.6-21.9"/>
		<path class="st7" d="M287.1,152.3c4.1-1.4,8.2-2.5,12.5-3.3"/>
		<ellipse class="st8" cx="105.4" cy="112.7" rx="6.9" ry="3.9"/>
		
			<ellipse transform="matrix(0.1456 -0.9893 0.9893 0.1456 -18.0708 364.5781)" class="st8" cx="202" cy="192.8" rx="3.9" ry="6.9"/>
		<ellipse class="st8" cx="112.3" cy="97.1" rx="6.9" ry="3.9"/>
		<path class="st7" d="M156.2,130.6c-0.7-0.5-1.4-0.9-2.2-1.3l-44.7-19.7c-2.4-1.1-5.1-1.1-7.6-0.2l-27.6,10.4"/>
		<path class="st5" d="M108.3,131l38,16.8c5.1,2.2,11-0.1,13.2-5.1c1.3-3,1.1-6.4-0.6-9.2c2.8-0.4,5.3-2,6.8-4.4
			c5.5,0.4,10.3-3.8,10.7-9.3c0.4-5.3-3.5-10-8.7-10.6l-13.6-1.4l-38.2-14c-2.3-0.9-4.9-0.8-7.2,0.1l-56.5,23l-0.2,0.1l-0.6,0.3
			l-0.3,0.2c-0.2,0.1-0.3,0.2-0.5,0.3c-0.1,0.1-0.3,0.2-0.4,0.3l-0.4,0.3l-0.4,0.4L49,119l-0.4,0.4l-0.2,0.2l-35.2,40"/>
		<circle class="st8" cx="54.9" cy="195.4" r="7.7"/>
		<circle class="st8" cx="207.3" cy="119.2" r="6.4"/>
		<path class="st8" d="M175.2,181.2c-0.6,0.4-1,1.1-1.1,1.8c-0.3,2.2,2.5,4.4,6.2,4.9c1.6,0.3,3.3,0.1,4.8-0.4L175.2,181.2z"/>
		<path class="st5" d="M275.2,193.5h-0.4l-71.7,3.3c-2.1,0.1-4.1-0.4-5.8-1.5L155,168.3c-4.6-2.8-6.2-8.7-3.7-13.4
			c0.6-1.2,1.5-2.2,2.5-3"/>
		<path class="st5" d="M182.4,188c-1.3,0.1-2.7-0.1-3.9-0.5L122.3,169c-5.3-1.7-8.3-7.2-6.7-12.6"/>
		<path class="st4" d="M78.8,68.2c5.9-3.4,12.8-5.5,18.7-8.9l0.9-0.5"/>
		<path class="st3" d="M59.6,86.6c2.5-3,5.1-5.8,7.8-8.5"/>
		<path class="st3" d="M49.3,106.7c1-4.2,2.5-8.2,4.6-12c0.8-1.4,1.7-2.8,2.7-4.1"/>
		<path class="st3" d="M75.9,220.5c-3.8-2.6-9-4-13.8-5.8"/>
		<path class="st3" d="M80.9,226.3c-0.4-0.8-0.8-1.5-1.3-2.2"/>
		<path class="st4" d="M137,256.1c-3.9-2.5-7.7-5.3-11.7-6.8"/>
		<path class="st3" d="M148.8,260.9c-2.4-0.3-4.8-1-7-2.1"/>
		<path class="st3" d="M156.8,260.9c-1.5,0-3.1,0-4.6,0"/>
		<path class="st3" d="M197.9,245c-3.9,3.2-7.6,7.1-11.7,9.9"/>
		<path class="st3" d="M207.9,239.3c-1.8,0.5-3.5,1.3-5.2,2.2L202,242"/>
		<path class="st3" d="M224.3,234.9c-4.1,1.6-8.8,2.4-13.2,3.5"/>
		<path class="st3" d="M243.4,215.4c-2.3,3.4-4.8,6.7-7.5,9.9"/>
		<path class="st3" d="M249.9,204.8c-0.4,0.8-0.8,1.6-1.2,2.4c-0.8,1.3-1.6,2.7-2.5,4.1"/>
		<path class="st3" d="M253.1,196.7c-0.6,1.9-1.3,3.8-2,5.6"/>
		<path class="st3" d="M246.4,91.6c0.5,0.7,0.9,1.4,1.3,2.2c1.9,3.6,3.1,7.5,3.7,11.5"/>
		<path class="st3" d="M230.2,73.3c3.3,3.3,6.8,6.7,10,10.4"/>
		<path class="st3" d="M223.3,65.9c1.1,1.3,2.3,2.6,3.4,3.8"/>
		<path class="st3" d="M163.4,39c5.3,0.6,10.5,1.5,15.6,2.9l0.4,0.1"/>
		<path class="st3" d="M143.3,39.4c2.2-0.7,4.4-1.1,6.7-1.2c2.8,0,5.6,0.1,8.4,0.3"/>
		<path class="st3" d="M102.8,56.4c3.9-2.1,7.9-3.9,12.1-5.4"/>
		<path class="st2" d="M271.5-18.9l16.2-16.3c4.7-4.8,12.2-5.4,17.6-1.3c5.7,4.5,6.7,12.7,2.2,18.4c-0.3,0.4-0.7,0.8-1,1.1L252.7,37
			c-4.7,4.8-12.2,5.4-17.6,1.3c-5.7-4.5-6.7-12.7-2.2-18.5c0.3-0.4,0.6-0.8,1-1.1l1-1c3.8-3.7,4.1-9.6,0.9-13.7
			c-3.5-4.3-9.9-4.9-14.2-1.4c-0.2,0.2-0.5,0.4-0.7,0.6l-10.5,10.5L190,34.2c-2.3,2.4-6.1,2.7-8.8,0.8c-2.9-2.2-3.4-6.3-1.2-9.2
			c0.2-0.2,0.4-0.4,0.5-0.6l59.8-59.8c2.6-2.5,6.7-2.5,9.3,0l0.9,0.9l6.9-6.8c2.9-2.9,7.5-3.4,10.9-1c3.7,2.7,4.5,7.9,1.8,11.6
			c-0.2,0.3-0.5,0.7-0.8,1l-3.9,3.9c-1.7,1.7-1.7,4.5,0,6.2C267-17.1,269.8-17.1,271.5-18.9z"/>
		<path class="st5" d="M190,34.2c-2.3,2.4-6.1,2.7-8.8,0.8c-2.9-2.2-3.4-6.3-1.2-9.2c0.2-0.2,0.4-0.4,0.5-0.6l40.9-40.9"/>
		<line class="st5" x1="196.4" y1="27.8" x2="192.7" y2="31.5"/>
		<path class="st5" d="M233.9,18.7l1-1c3.8-3.7,4.1-9.6,0.9-13.7c-3.5-4.3-9.9-4.9-14.2-1.4c-0.2,0.2-0.5,0.4-0.7,0.6l-10.5,10.5
			l-11.4,11.4"/>
		<path class="st5" d="M297.4-7.7L252.7,37c-4.7,4.8-12.2,5.4-17.6,1.3"/>
		<line class="st5" x1="254.2" y1="-1.5" x2="252.5" y2="0.1"/>
		<line class="st5" x1="220.9" y1="3.3" x2="227.8" y2="-3.5"/>
		<path class="st2" d="M-4.1,145.5l16.2-16.3c4.7-4.8,12.2-5.3,17.6-1.2c5.7,4.5,6.7,12.7,2.2,18.4c-0.3,0.4-0.7,0.8-1,1.1
			L-23,201.4c-4.7,4.8-12.2,5.3-17.6,1.3c-5.7-4.5-6.7-12.7-2.2-18.5c0.3-0.4,0.6-0.8,1-1.1l1-1c3.8-3.7,4.1-9.6,0.9-13.7
			c-3.5-4.3-9.9-4.9-14.2-1.4c-0.2,0.2-0.5,0.4-0.7,0.6l-10.5,10.5l-20.5,20.4c-2.3,2.4-6.1,2.7-8.8,0.8c-2.9-2.2-3.4-6.3-1.2-9.2
			c0.2-0.2,0.4-0.4,0.5-0.6l59.8-59.8c2.6-2.5,6.7-2.5,9.3,0l0.9,0.9l6.9-6.8c2.9-2.9,7.5-3.4,10.9-1c3.7,2.7,4.5,7.9,1.8,11.6
			c-0.2,0.3-0.5,0.7-0.8,1l-3.9,3.9c-1.7,1.7-1.7,4.5,0,6.2C-8.7,147.2-5.9,147.2-4.1,145.5C-4.1,145.5-4.1,145.5-4.1,145.5z"/>
		<path class="st5" d="M-50.8,145.2l15.4-15.4c2.6-2.5,6.7-2.5,9.3,0l0.9,0.9l6.9-6.8c2.9-2.9,7.5-3.4,10.9-1
			c3.7,2.7,4.5,7.9,1.8,11.6c-0.2,0.3-0.5,0.7-0.8,1l-3.9,3.9c-1.7,1.7-1.7,4.5,0,6.2c1.7,1.7,4.5,1.7,6.2,0l16.2-16.3"/>
		<path class="st5" d="M21.8,156.6L-23,201.4c-4.7,4.8-12.2,5.3-17.6,1.3"/>
		<line class="st5" x1="24" y1="154.4" x2="29.2" y2="149.2"/>
		<line class="st5" x1="31.5" y1="146.9" x2="35.1" y2="143.3"/>
		<line class="st5" x1="29.7" y1="134.5" x2="21.2" y2="143"/>
		<line class="st5" x1="17.7" y1="146.4" x2="15" y2="149.1"/>
		<path class="st6" d="M216.9,45.3l21.4-21.5c1.8-1.6,4.5-1.5,6.2,0.2c1.6,1.7,1.6,4.3,0,6l-21.5,21.4c-1.7,1.7-4.5,1.7-6.2,0
			C215.3,49.8,215.3,47,216.9,45.3z"/>
		<path class="st5" d="M235.8,26.4l2.6-2.6c1.8-1.6,4.5-1.5,6.2,0.2c1.6,1.7,1.6,4.3,0,6l-21.5,21.4c-1.7,1.7-4.5,1.7-6.2,0
			c-1.7-1.7-1.7-4.4,0-6.1"/>
		<line class="st5" x1="225.9" y1="36.3" x2="233.2" y2="29"/>
		<line class="st5" x1="219.5" y1="42.8" x2="223.4" y2="38.9"/>
		<path class="st6" d="M35.7,253.7l16.3-16.2c4.8-4.7,5.4-12.2,1.3-17.6c-4.5-5.7-12.7-6.7-18.4-2.2c-0.4,0.3-0.8,0.7-1.1,1
			l-53.9,53.9c-4.8,4.7-5.4,12.2-1.3,17.6c4.5,5.7,12.7,6.7,18.4,2.2c0.4-0.3,0.8-0.7,1.1-1l1-1c3.7-3.8,9.6-4.1,13.7-0.9
			c4.3,3.5,4.9,9.9,1.4,14.2c-0.2,0.2-0.4,0.5-0.6,0.7L3,314.8l-20.4,20.5c-2.4,2.3-2.7,6.1-0.8,8.8c2.2,2.9,6.3,3.4,9.2,1.2
			c0.2-0.2,0.4-0.4,0.6-0.6l59.8-59.8c2.6-2.6,2.6-6.7,0-9.3l-0.9-0.9l6.8-6.9c2.9-2.9,3.4-7.5,1-10.9c-2.7-3.7-7.9-4.5-11.6-1.8
			c-0.3,0.3-0.7,0.5-1,0.8l-3.9,3.9c-1.8,1.6-4.6,1.5-6.2-0.3C34.1,257.9,34.1,255.4,35.7,253.7z"/>
		<path class="st2" d="M56.8,304.1c2,2,5.3,2,7.4,0l6.4-6.4c2-2,2-5.3,0-7.4c-2-2-5.3-2-7.4,0l-6.4,6.4
			C54.8,298.7,54.8,302,56.8,304.1z"/>
		<path class="st6" d="M75.7,269.6l9.2-9.2c1.3-1.2,1.4-3.3,0.2-4.6c-1.2-1.3-3.3-1.4-4.6-0.2c-0.1,0.1-0.2,0.1-0.2,0.2l-9.2,9.2
			c-1.2,1.3-1.1,3.4,0.2,4.6C72.5,270.7,74.4,270.7,75.7,269.6L75.7,269.6z"/>
		<path class="st2" d="M0.5,242.1L22,220.6c1.7-1.7,1.7-4.5,0-6.2c-1.7-1.7-4.5-1.7-6.2,0l0,0l-21.4,21.4c-1.7,1.7-1.7,4.5,0,6.2
			C-3.9,243.8-1.2,243.8,0.5,242.1z"/>
		<path class="st6" d="M64.2,232.6l6-6c1.6-1.6,4.2-1.6,5.8,0l0,0c1.6,1.6,1.6,4.2,0,5.8l-6,6c-1.6,1.6-4.2,1.6-5.8,0l0,0
			C62.7,236.7,62.7,234.1,64.2,232.6z"/>
		<circle class="st6" cx="37.2" cy="205.3" r="4.4"/>
		<path class="st5" d="M24.5,227.8l-44.8,44.7c-4.8,4.7-5.4,12.2-1.3,17.6c3.5,4.5,9.5,6.2,14.9,4.2"/>
		<line class="st9" x1="35.7" y1="253.7" x2="27.2" y2="262.1"/>
		<line class="st9" x1="24.5" y1="264.9" x2="21" y2="268.3"/>
		<line class="st10" x1="18.3" y1="271" x2="16.7" y2="272.6"/>
		<line class="st9" x1="13.5" y1="304.3" x2="20.4" y2="297.4"/>
		<line class="st9" x1="22.6" y1="295.2" x2="24.1" y2="293.7"/>
		<line class="st9" x1="47.9" y1="277.2" x2="43.7" y2="281.5"/>
		<line class="st9" x1="41.3" y1="283.9" x2="39.2" y2="285.9"/>
		<line class="st5" x1="26.8" y1="225.5" x2="32" y2="220.3"/>
		<line class="st5" x1="34.3" y1="218" x2="37.9" y2="214.4"/>
		<path class="st5" d="M54.9,233.1c1-2.3,1.3-4.8,0.9-7.3"/>
		<line class="st9" x1="46.7" y1="219.8" x2="38.2" y2="228.4"/>
		<line class="st9" x1="34.8" y1="231.8" x2="32" y2="234.5"/>
		<path class="st5" d="M67.9,228.9l-3.7,3.7c-1.6,1.6-1.6,4.2,0,5.8l0,0c1.6,1.6,4.2,1.6,5.8,0l6-5.9c1.6-1.6,1.6-4.2,0-5.8
			c0,0,0,0,0,0l0,0c-1.6-1.6-4.2-1.6-5.8,0c0,0,0,0,0,0"/>
		<path class="st5" d="M19.4,223.2l2.6-2.6c1.7-1.7,1.7-4.5,0-6.2c-1.7-1.7-4.5-1.7-6.2,0l0,0l-21.4,21.4c-1.7,1.7-1.7,4.5,0,6.2
			c1.7,1.7,4.5,1.7,6.2,0"/>
		<line class="st5" x1="9.6" y1="233.1" x2="16.9" y2="225.7"/>
		<line class="st5" x1="3.1" y1="239.5" x2="7" y2="235.6"/>
		<path class="st6" d="M231.6,123.3l21.4-21.4c1.7-1.7,1.7-4.5,0-6.2c-1.7-1.7-4.5-1.7-6.2,0c0,0,0,0,0,0l-21.4,21.4
			c-1.7,1.7-1.7,4.5,0,6.2C227.2,125,229.9,125,231.6,123.3L231.6,123.3z"/>
		<path class="st5" d="M250.5,104.4l2.6-2.6c1.7-1.7,1.7-4.5,0-6.2c-1.7-1.7-4.5-1.7-6.2,0c0,0,0,0,0,0l-13.5,13.5"/>
		<line class="st5" x1="244.3" y1="110.6" x2="247.9" y2="106.9"/>
		<path class="st5" d="M36.7,201c-1,0.1-1.9,0.6-2.6,1.2c-1.7,1.7-1.7,4.5,0,6.2c1.7,1.7,4.5,1.7,6.2,0c1.7-1.7,1.7-4.5,0-6.2"/>
		<path class="st5" d="M66.5,288.8c-1.2,0.1-2.4,0.6-3.3,1.5l-6.4,6.4c-2.1,2-2.2,5.3-0.2,7.4c2,2.1,5.3,2.2,7.4,0.2
			c0.1-0.1,0.1-0.1,0.2-0.2l6.4-6.4c2-2,2-5.3,0-7.4"/>
		<path class="st2" d="M155.6,188.5c2,2,5.3,2,7.4,0l6.4-6.4c2-2,2-5.3,0-7.4s-5.3-2-7.4,0l-6.4,6.4
			C153.6,183.2,153.6,186.5,155.6,188.5z"/>
		<path class="st5" d="M166.4,185.1l3-3c2-2,2-5.3,0-7.4"/>
		<path class="st5" d="M165.4,173.2c-1.2,0.1-2.4,0.6-3.3,1.5l-6.4,6.4"/>
		<line class="st5" x1="79.1" y1="266.1" x2="82.4" y2="262.9"/>
		<path class="st5" d="M84.9,260.4c1.3-1.2,1.4-3.3,0.2-4.6c-1.2-1.3-3.3-1.4-4.6-0.2c-0.1,0.1-0.2,0.1-0.2,0.2l-9.2,9.2
			c-1.2,1.3-1.1,3.4,0.2,4.6c1.2,1.1,3.1,1.1,4.4,0l1.6-1.6"/>
		<path class="st5" d="M-1.9,291.3l1-1c3.7-3.8,9.6-4.1,13.7-0.9c4.3,3.5,4.9,9.9,1.4,14.2c-0.2,0.2-0.4,0.5-0.6,0.7L3,314.8
			l-11.4,11.4"/>
		<path class="st5" d="M36,300.3l15.4-15.4c2.6-2.6,2.6-6.7,0-9.3l-0.9-0.9l6.8-6.9c2.9-2.9,3.4-7.5,1-10.9
			c-2.7-3.7-7.9-4.5-11.6-1.8c-0.3,0.3-0.7,0.5-1,0.8l-3.9,3.9c-1.8,1.6-4.6,1.5-6.2-0.3c-1.5-1.7-1.5-4.3,0-5.9l16.3-16.2"/>
		<path class="st2" d="M104.7,131.8l7.7-7.7c1.5-1.5,4-1.5,5.5,0l0,0c1.5,1.5,1.5,4,0,5.5l-7.7,7.7c-1.5,1.5-4,1.5-5.5,0l0,0
			C103.2,135.7,103.2,133.3,104.7,131.8z"/>
		<path class="st5" d="M114.2,123.1c0.4-0.1,0.9-0.1,1.4-0.1"/>
		<line class="st5" x1="108.8" y1="127.7" x2="112.2" y2="124.2"/>
		<line class="st5" x1="103.4" y1="133.1" x2="107.2" y2="129.2"/>
		<path class="st5" d="M117.8,124.1L117.8,124.1c1.5,1.5,1.5,4,0,5.5c0,0,0,0,0,0l-5.2,5.2"/>
		<path class="st2" d="M-17.7,290.9L7,266.2c4.9-4.9,12.8-4.9,17.6,0l0,0c4.9,4.9,4.9,12.8,0,17.6l-24.7,24.7
			c-4.9,4.9-12.8,4.9-17.6,0l0,0C-22.6,303.7-22.6,295.8-17.7,290.9z"/>
		<path class="st5" d="M11.1,263.5c2.5-1,5.4-1.2,8-0.5"/>
		<line class="st5" x1="-5.7" y1="278.8" x2="6.5" y2="266.7"/>
		<path class="st5" d="M24.6,266.2L24.6,266.2c4.9,4.9,4.9,12.8,0,17.6l-24.7,24.7c-4.9,4.8-12.8,4.8-17.6,0l0,0
			c-4.9-4.9-4.9-12.8,0-17.6l8.1-8.1"/>
		<path class="st6" d="M63.3,112.6l9.5-9.5c1.9-1.9,4.9-1.9,6.7,0l0,0c1.9,1.9,1.9,4.9,0,6.7l-9.5,9.5c-1.9,1.9-4.9,1.9-6.7,0l0,0
			C61.4,117.4,61.4,114.4,63.3,112.6z"/>
		<path class="st5" d="M74.3,102.1c1-0.4,2-0.5,3.1-0.2"/>
		<line class="st5" x1="67.9" y1="107.9" x2="72.6" y2="103.3"/>
		<line class="st5" x1="63.3" y1="112.6" x2="66.4" y2="109.4"/>
		<path class="st5" d="M79.5,103.1L79.5,103.1c1.9,1.9,1.9,4.9,0,6.7"/>
		<circle class="st2" cx="52.4" cy="227.8" r="6.6"/>
		<path class="st5" d="M54.9,221.7c1.4,0.6,2.6,1.7,3.3,3.1"/>
		<path class="st5" d="M58.9,227.8c0,3.6-2.9,6.6-6.6,6.6s-6.6-2.9-6.6-6.6c0-3.6,2.9-6.6,6.6-6.6c0,0,0,0,0,0"/>
		<circle class="st2" cx="210.3" cy="177.2" r="5"/>
		<path class="st5" d="M212.2,172.6c1.1,0.5,2,1.3,2.5,2.4"/>
		<path class="st5" d="M215.2,177.2c0,2.8-2.2,5-5,5s-5-2.2-5-5s2.2-5,5-5"/>
		<circle class="st2" cx="241" cy="133.1" r="5.4"/>
		<path class="st5" d="M244.1,128.6c1.1,0.7,1.8,1.9,2.2,3.1"/>
		<path class="st5" d="M235.7,132c0.6-2.9,3.5-4.8,6.4-4.2c0,0,0,0,0,0"/>
		<path class="st5" d="M246.3,134.2c-0.2,1.1-0.8,2-1.5,2.8"/>
		<circle class="st2" cx="62.1" cy="192.8" r="2.7"/>
		<path class="st5" d="M63.8,190.7c-1.2-0.9-2.9-0.8-3.8,0.4c-0.9,1.2-0.8,2.9,0.4,3.8s2.9,0.8,3.8-0.4c0.4-0.5,0.6-1.1,0.6-1.7"/>
		<path class="st6" d="M197.8,27.9l-5.2,5.2c-0.4-1.1-1-2.2-1.9-3c-3.2-3.2-8.4-3.2-11.6,0l-26.5,26.5c-3.1,3.3-2.9,8.5,0.4,11.6
			c3.1,2.9,8,2.9,11.1,0L185.4,47c0.2,0.3,0.4,0.5,0.6,0.8l0,0c2.2,2.2,5.8,2.2,8.1,0L205.9,36c2.2-2.2,2.2-5.9,0-8.1l0,0
			C203.6,25.7,200,25.7,197.8,27.9z"/>
		<path class="st5" d="M192.5,33.2c-0.4-1.1-1-2.2-1.9-3c-3.2-3.2-8.4-3.2-11.6,0"/>
		<line class="st5" x1="197.8" y1="27.9" x2="195.2" y2="30.5"/>
		<line class="st5" x1="204.2" y1="37.7" x2="205.9" y2="36"/>
		<line class="st5" x1="196.5" y1="45.4" x2="202" y2="39.9"/>
		<path class="st5" d="M170.1,62.2L185.4,47c0.2,0.3,0.4,0.5,0.6,0.8l0,0c2.2,2.2,5.8,2.2,8.1,0"/>
		<path class="st5" d="M174.2,35l-21.7,21.6c-3.2,3.2-3.2,8.4,0,11.6c3.2,3.2,8.4,3.2,11.6,0l0,0l2.4-2.4"/>
		<path class="st6" d="M130.5,102l11.2-11.2c2.3-2.3,6.1-2.3,8.4,0l0,0c2.3,2.3,2.3,6.1,0,8.4l-11.2,11.2"/>
		<line class="st5" x1="147.8" y1="101.5" x2="142.2" y2="107.1"/>
		<path class="st5" d="M151.7,93.8c0.4,2-0.2,4-1.6,5.4"/>
		<path class="st5" d="M130.5,102l11.2-11.2c2.3-2.3,6.1-2.3,8.4,0l0,0"/>
		<circle class="st2" cx="129.7" cy="140.6" r="2.6"/>
		<path class="st5" d="M127.2,139.8c0.4-1.4,1.9-2.1,3.3-1.7c1.4,0.4,2.1,1.9,1.7,3.3c-0.2,0.6-0.6,1.2-1.2,1.5"/>
		<circle class="st11" cx="131.5" cy="120.9" r="2.1"/>
		<circle class="st12" cx="108.8" cy="79.1" r="3.2"/>
		<path class="st13" d="M180.5,87c3.1,0,5.5,2.5,5.5,5.6s-2.5,5.5-5.6,5.5c-3.1,0-5.5-2.5-5.5-5.6c0-1.5,0.6-2.9,1.6-3.9"/>
		<path class="st14" d="M286.9,122.9c0,2.2-1.8,4.1-4.1,4.1c-2.2,0-4.1-1.8-4.1-4.1c0-1.1,0.4-2.1,1.1-2.8"/>
		<path class="st2" d="M221.1,198.9L211,208.9c-1.9,1.9-5,1.9-6.8,0h0c-1.9-1.9-1.9-5,0-6.8l10.1-10.1c1.9-1.9,5-1.9,6.8,0v0
			C223,193.9,223,197,221.1,198.9z"/>
		<path class="st5" d="M208.4,197.8l5.8-5.8c1.9-1.9,4.9-1.9,6.8,0l0,0c1.9,1.9,1.9,4.9,0,6.8"/>
		<path class="st6" d="M251.5,58.5c-3.7-3.6-3.8-9.6-0.1-13.3l14.9-14.9l9.2-9.2l4.9-4.9c1.3-1.3,1.5-3.2,0.6-4.8
			c-1.1-1.7-3.4-2.2-5.2-1.1c-0.2,0.1-0.4,0.3-0.6,0.5l-5,5l-2.3,2.3c-2,2-5.1,2.3-7.4,0.5c-2.3-1.9-2.7-5.3-0.8-7.6
			c0.1-0.1,0.2-0.3,0.4-0.4l18-18L305.8-35c2-2,5.1-2.3,7.4-0.5c2.3,1.9,2.7,5.3,0.8,7.6c-0.1,0.1-0.2,0.3-0.3,0.4l7.4,7.4l-20,20
			c-2.5,2.5-2.5,6.5,0,9l0,0c3.6,3.7,3.6,9.6,0,13.2l-36.3,36.4C261,62.1,255.2,62.1,251.5,58.5L251.5,58.5z"/>
		<line class="st5" x1="275.5" y1="47.6" x2="264.4" y2="58.7"/>
		<path class="st5" d="M271.7-0.9l6.4-6.4L305.8-35c2-2,5.1-2.3,7.4-0.5c2.3,1.9,2.7,5.3,0.8,7.6c-0.1,0.1-0.2,0.3-0.3,0.4l7.4,7.4
			l-20,20c-2.5,2.5-2.5,6.5,0,9l0,0c3.6,3.7,3.6,9.6,0,13.2l-22.9,22.8"/>
		<line class="st5" x1="263.8" y1="7" x2="269" y2="1.9"/>
		<path class="st5" d="M262.2,34.4l4.1-4.1l9.2-9.2l4.9-4.9c1.3-1.3,1.5-3.2,0.6-4.8c-1.1-1.7-3.4-2.2-5.2-1.1
			c-0.2,0.1-0.4,0.3-0.6,0.5l-5,5l-2.3,2.3c-2,2-5.1,2.3-7.4,0.5c-2.3-1.9-2.7-5.3-0.8-7.6c0.1-0.1,0.2-0.3,0.4-0.4"/>
		<line class="st5" x1="254.7" y1="41.9" x2="258.9" y2="37.7"/>
		<path class="st2" d="M324.2,23.9l-26.4,26.4c-4.6,4.6-12.1,4.6-16.8,0l0,0c-4.6-4.6-4.6-12.1,0-16.8l26.4-26.4"/>
		<path class="st5" d="M278.8,47.4c-2.4-4.6-1.5-10.2,2.2-13.8l6.1-6.1"/>
		<path class="st5" d="M286.3,53.4c-2-0.5-3.9-1.6-5.3-3.1l0,0"/>
		<path class="st5" d="M324.2,23.9l-26.4,26.4c-2.1,2.1-4.9,3.3-7.8,3.4"/>
		<path class="st6" d="M182.5,149.6l6.6-6.6c3.8-3.8,10-3.8,13.8,0l0,0c2.3,2.3,3.3,5.6,2.7,8.8"/>
		<path class="st7" d="M204.7,145.4c0.7,1.4,1.1,2.9,1.1,4.4"/>
		<path class="st7" d="M198.5,140.4c1.7,0.4,3.2,1.3,4.4,2.5l0,0"/>
		<path class="st7" d="M182.5,149.6l6.6-6.6c1.7-1.7,4-2.7,6.4-2.8"/>
		<path class="st15" d="M245.1,238c-1.5,0-3.1-0.3-4.5-0.9c-2.5-1.2-3.8-3.4-4.9-5.1c-0.3-0.5-0.6-0.9-0.9-1.4s-0.7-0.9-1.1-1.4
			c-1.4-1.7-2.9-3.6-3.1-6.2c-0.2-3,0.3-6.1,1.6-8.9c1.2-2.6,3.4-4,5.3-5.2l1.1-0.8c2-1.4,4.6-3.2,7.8-3.5l0.9-0.1
			c2.4-0.2,5.4-0.5,8.1,0.7c2.7,1.2,4.5,3.8,5.9,5.9l0.4,0.6c1.6,2.5,2.5,5.3,2.6,8.2c0.8,9-5.8,16.9-14.8,17.7c-0.1,0-0.1,0-0.2,0
			l-1.1,0.1C247.3,237.9,246.2,238,245.1,238z M250.7,209.3c-0.9,0-1.9,0.1-2.9,0.2l-0.9,0.1c-1.9,0.2-3.6,1.4-5.4,2.6
			c-0.4,0.3-0.8,0.6-1.3,0.9c-1.5,1-2.9,1.9-3.4,3.1l0,0c-0.9,2-1.3,4.1-1.1,6.3c0.1,1.1,1.1,2.3,2.1,3.6c0.4,0.5,0.9,1.1,1.3,1.7
			s0.7,1.1,1,1.6c0.9,1.4,1.7,2.7,2.8,3.2c1.4,0.6,3.1,0.4,4.9,0.2l1.2-0.1c4.1-0.2,7.7-2.7,9.3-6.4c0.9-1.8,1.3-3.8,1.2-5.8
			c-0.1-2.1-0.7-4.1-1.8-5.8l-0.4-0.6c-1.1-1.6-2.4-3.5-3.9-4.2C252.5,209.5,251.6,209.3,250.7,209.3L250.7,209.3z M234.5,215.2
			L234.5,215.2z"/>
		<path class="st16" d="M220.1,311c-1.4,0-2.7-0.2-4-0.8c-2.2-1-3.4-3-4.5-4.7c-0.3-0.5-0.6-1-0.9-1.4s-0.7-1-1.1-1.5
			c-1.3-1.6-2.7-3.4-2.9-5.7c-0.2-2.9,0.3-5.7,1.5-8.3c1.1-2.3,3.1-3.6,4.9-4.8c0.4-0.3,0.8-0.5,1.2-0.8c2.1-1.4,4.4-3.1,7.3-3.3
			l0.9-0.1c2.3-0.2,5.2-0.5,7.6,0.6s4.2,3.6,5.5,5.5l0.4,0.6c1.5,2.3,2.4,5,2.5,7.8c0.2,2.7-0.3,5.4-1.5,7.9
			c-2.3,5-7.1,8.4-12.6,8.7l-1.2,0.1C222.1,310.9,221.1,311,220.1,311z M225.6,282.3c-1,0-2,0.1-2.9,0.2l-0.9,0.1
			c-2.1,0.2-4.1,1.5-5.9,2.8c-0.4,0.3-0.8,0.6-1.2,0.8c-1.6,1-3.1,2-3.8,3.5c-1,2.1-1.4,4.5-1.2,6.8c0.1,1.4,1.2,2.7,2.3,4.1
			c0.4,0.5,0.9,1.1,1.2,1.6s0.7,1,1,1.6c0.9,1.5,1.8,2.9,3.2,3.6c1.6,0.7,3.5,0.5,5.5,0.3l1.2-0.1c2.1-0.1,4.2-0.9,6-2.1
			c1.8-1.2,3.2-2.9,4.1-4.9c1-2,1.4-4.1,1.3-6.3c-0.1-2.2-0.7-4.4-1.9-6.3l-0.4-0.6c-1.2-1.7-2.6-3.7-4.3-4.5
			C227.8,282.5,226.7,282.3,225.6,282.3L225.6,282.3z"/>
		<path class="st16" d="M281,115.9c-1.3,0-2.7-0.3-3.9-0.8c-1.8-0.9-3.2-2.4-4.2-4.1c-0.1-0.2-0.2-0.4-0.4-0.6l-0.4-0.6
			c-1.4-1.5-2.2-3.3-2.5-5.3c-0.2-2.3,0.2-4.5,1.2-6.6c0.9-1.8,2.4-3.3,4.2-4.3l0.5-0.3c1.7-1.4,3.8-2.3,6-2.5h0.4
			c2.1-0.3,4.3-0.1,6.2,0.7c1.9,1,3.5,2.5,4.6,4.4l0.2,0.3c1.2,1.8,1.9,4,2.1,6.2c0.3,4.4-1.7,8.7-5.3,11.3c-1.8,1.2-3.8,2-6,2.1
			l-0.5,0.1C282.5,115.9,281.7,116,281,115.9z M279.6,103.2l0.3,0.4c0.3,0.3,0.6,0.7,0.8,1.1s0.5,0.7,0.7,1l0.1,0.2h0.5l0.7-0.1
			c0.4,0,0.8-0.1,1.2-0.4c0.7-0.5,1.1-1.3,1.1-2.2c0-0.5-0.1-0.9-0.3-1.3l-0.2-0.3c-0.2-0.3-0.5-0.7-0.7-0.9c-0.3,0-0.7,0-1,0.1
			h-0.4c-0.4,0.2-0.8,0.5-1.2,0.8l-0.8,0.5c-0.2,0.1-0.5,0.3-0.6,0.4C279.7,102.7,279.6,103,279.6,103.2L279.6,103.2z M279.6,103.7
			L279.6,103.7z M282.3,100.7L282.3,100.7z M275.3,100.1L275.3,100.1z"/>
		<path class="st15" d="M3,84.8c-1.3,0-2.6-0.2-3.8-0.8c-1.8-1-3.3-2.5-4.2-4.4c-0.2-0.4-0.5-0.8-0.7-1.1s-0.6-0.8-0.9-1.1
			C-8,76-8.9,74.1-9.3,72.1c-0.2-2.6,0.3-5.2,1.4-7.5l0,0c1-1.9,2.6-3.4,4.5-4.5c0.3-0.2,0.6-0.4,0.9-0.6c1.7-1.2,3.9-2.7,6.7-3
			l0.7-0.1c2.1-0.2,4.6-0.5,6.9,0.6s3.9,3.2,5.1,5l0.3,0.5c1.3,2.1,2.1,4.5,2.3,7c0.2,2.5-0.3,4.9-1.4,7.1c-1,2.2-2.6,4.2-4.6,5.6
			c-2,1.4-4.4,2.2-6.8,2.4l-0.9,0.1C4.8,84.8,3.9,84.8,3,84.8z M-3.4,66.7L-3.4,66.7c-0.7,1.5-1,3.2-0.9,4.9c0.3,1,0.8,1.9,1.6,2.7
			c0.4,0.5,0.7,0.9,1.1,1.4s0.6,0.9,0.9,1.3c0.5,1,1.2,1.8,2.1,2.5c1.2,0.4,2.6,0.4,3.8,0.2l1-0.1c3.2-0.2,6-2.1,7.3-5
			c0.7-1.4,1.1-3,1-4.6c0-1.6-0.5-3.2-1.4-4.6l-0.4-0.5c-0.9-1.3-1.9-2.8-3-3.3s-2.8-0.3-4.3-0.2l-0.8,0.1c-1.6,0.3-3,1-4.3,2.1
			l-1.1,0.7C-1.8,64.9-2.7,65.7-3.4,66.7z"/>
		<path class="st16" d="M36.9,6.1c-0.4-1.5,0.3-3.1,0.8-4.5c0.3-1.5,1-2.9,2-4c1.1-1,2.3-2.4,3.8-2.7s3.2,0.2,4.7,0.6
			C49.6-4,50.9-3.1,51.9-2c1,1.1,1.7,2.5,2,3.9c0.4,1.4,0.3,3-0.1,4.4C53.4,7.8,52.6,9,51.5,10c-1.1,1-2.1,2.3-3.7,2.7
			s-3-0.4-4.4-0.9s-3.2-0.5-4.2-1.6C38.1,9,37.3,7.6,36.9,6.1z"/>
		<path class="st15" d="M78.1,72.7c-2.1,0-4.3-0.4-6.2-1.3c-3.5-1.7-5.4-4.7-6.8-7c-0.3-0.5-0.7-1.1-1-1.6s-0.8-1-1.2-1.6
			c-1.7-2.2-3.9-4.8-4.2-8.6c-0.3-4,0.4-8,2.1-11.6c1.7-3.6,4.7-5.6,7.1-7.1c0.5-0.3,0.9-0.6,1.3-0.9c2.7-1.9,6-4.2,10.4-4.6l1-0.1
			c3.2-0.3,7.1-0.7,10.9,1s6.2,5.3,8,7.8l0.5,0.7c2.1,3.3,3.4,7.1,3.6,11c0.3,3.8-0.4,7.7-2.2,11.2C98.1,67,91.3,71.7,83.5,72.3
			l-1.3,0.1C80.8,72.6,79.4,72.7,78.1,72.7z M84.9,37.9c-1,0-2.2,0.1-3.3,0.2l-1.1,0.1c-1.6,0.1-3.3,1.2-5.6,2.8
			c-0.5,0.4-1.1,0.7-1.6,1.1c-1.6,1-3,2-3.5,3l0,0c-1,2.1-1.4,4.3-1.2,6.6c0.1,0.8,1.1,2.1,2.1,3.2c0.5,0.7,1.1,1.4,1.6,2.1
			s0.9,1.4,1.3,2c0.9,1.4,1.7,2.8,2.5,3.1c1.1,0.5,3,0.3,4.9,0.1l1.6-0.2c4.2-0.2,8-2.8,9.7-6.7c1-1.9,1.4-4,1.3-6
			c-0.1-2.2-0.7-4.3-1.8-6.1l-0.5-0.7c-1.3-1.7-2.6-3.7-4-4.4C86.5,38,85.7,37.9,84.9,37.9z M65.2,43.1L65.2,43.1z"/>
		<path class="st15" d="M87.5,9.4c-1.7-2.2-1.5-5.1-1.9-7.6S85-3.4,86-5.8s2-5.3,4.2-7s5.3-1.9,7.8-2.2c2.6-0.2,5.3,0.3,7.6,1.4
			c2.4,1,4.4,2.7,5.9,4.8c1.6,2,2.6,4.4,2.9,7c0.3,2.5-0.1,5.1-1.2,7.5c-1,2.4-1.8,5.1-4,6.8s-5.1,1.4-7.6,1.7s-5.4,1.4-7.9,0.4
			C91.3,13.3,89.2,11.6,87.5,9.4z"/>
		<path class="st15" d="M279.4,287.2c1.1-2.4,3.6-3.6,5.6-5s4.1-2.9,6.6-3.1s5.4-0.7,7.7,0.4s3.9,3.6,5.3,5.6c1.3,2.1,2.1,4.5,2.2,7
			c0.3,5-2,9.7-6,12.6c-2,1.4-4.4,2.2-6.8,2.4c-2.4,0.2-5.1,0.8-7.4-0.3s-3.4-3.7-4.8-5.6s-3.6-3.9-3.8-6.4
			C277.8,292.2,278.3,289.6,279.4,287.2z"/>
		<path class="st15" d="M277.9,49.7c1.4-3,4.6-4.6,7.2-6.4s5.3-3.7,8.5-4s6.9-0.9,10,0.5s5.1,4.7,6.9,7.2c1.7,2.7,2.7,5.9,2.9,9.1
			c0.2,3.2-0.4,6.3-1.8,9.2c-2.6,5.9-8.3,9.8-14.7,10.2c-3.1,0.3-6.6,1-9.6-0.4s-4.4-4.7-6.2-7.3s-4.6-5.1-4.9-8.3
			C275.9,56.1,276.5,52.8,277.9,49.7z"/>
		<path class="st15" d="M115.7,245c2.6-2.1,6.1-2.1,9.1-2.5s6.3-0.9,9.2,0.2s6.5,2.2,8.5,4.8s2.4,6.3,2.9,9.4
			c0.3,3.2-0.1,6.3-1.4,9.2c-1.2,2.9-3.1,5.4-5.6,7.3c-4.9,4-11.5,5-17.3,2.5c-2.9-1.1-6.2-2-8.3-4.5s-1.8-6.1-2.3-9.1
			s-1.8-6.5-0.7-9.4C111.1,249.8,113.1,247.1,115.7,245z"/>
		<circle class="st6" cx="229.6" cy="9.7" r="12.5"/>
		<path class="st5" d="M242.1,9.4c-0.2-6.9-5.9-12.3-12.8-12.2S216.9,3.1,217.1,10c0.2,6.9,5.9,12.3,12.8,12.2"/>
		<circle class="st2" cx="242.1" cy="9.7" r="4.4"/>
		<path class="st5" d="M246.4,10.2c-0.1,1-0.6,1.9-1.2,2.6c-1.7,1.7-4.5,1.7-6.2,0s-1.7-4.5,0-6.2s4.5-1.7,6.2,0c0,0,0,0,0,0"/>
		<path class="st4" d="M277.9,49.7c1.4-3,4.6-4.6,7.2-6.4s5.3-3.7,8.5-4s6.9-0.9,10,0.5s5.1,4.7,6.9,7.2c1.7,2.7,2.7,5.9,2.9,9.1
			c0.2,3.2-0.4,6.3-1.8,9.2c-2.6,5.9-8.3,9.8-14.7,10.2c-3.1,0.3-6.6,1-9.6-0.4s-4.4-4.7-6.2-7.3s-4.6-5.1-4.9-8.3
			C275.9,56.1,276.5,52.8,277.9,49.7z"/>
		<path class="st4" d="M281,115.9c-1.3,0-2.7-0.3-3.9-0.8c-1.8-0.9-3.2-2.4-4.2-4.1c-0.1-0.2-0.2-0.4-0.4-0.6l-0.4-0.6
			c-1.4-1.5-2.2-3.3-2.5-5.3c-0.2-2.3,0.2-4.5,1.2-6.6c0.9-1.8,2.4-3.3,4.2-4.3l0.5-0.3c1.7-1.4,3.8-2.3,6-2.5h0.4
			c2.1-0.3,4.3-0.1,6.2,0.7c1.9,1,3.5,2.5,4.6,4.4l0.2,0.3c1.2,1.8,1.9,4,2.1,6.2c0.3,4.4-1.7,8.7-5.3,11.3c-1.8,1.2-3.8,2-6,2.1
			l-0.5,0.1C282.5,115.9,281.7,116,281,115.9z M279.6,103.2l0.3,0.4c0.3,0.3,0.6,0.7,0.8,1.1s0.5,0.7,0.7,1l0.1,0.2h0.5l0.7-0.1
			c0.4,0,0.8-0.1,1.2-0.4c0.7-0.5,1.1-1.3,1.1-2.2c0-0.5-0.1-0.9-0.3-1.3l-0.2-0.3c-0.2-0.3-0.5-0.7-0.7-0.9c-0.3,0-0.7,0-1,0.1
			h-0.4c-0.4,0.2-0.8,0.5-1.2,0.8l-0.8,0.5c-0.2,0.1-0.5,0.3-0.6,0.4C279.7,102.7,279.6,103,279.6,103.2L279.6,103.2z M279.6,103.7
			L279.6,103.7z M282.3,100.7L282.3,100.7z"/>
		<path class="st4" d="M279.4,287.2c1.1-2.4,3.6-3.6,5.6-5s4.1-2.9,6.6-3.1s5.4-0.7,7.7,0.4s3.9,3.6,5.3,5.6c1.3,2.1,2.1,4.5,2.2,7
			c0.3,5-2,9.7-6,12.6c-2,1.4-4.4,2.2-6.8,2.4c-2.4,0.2-5.1,0.8-7.4-0.3s-3.4-3.7-4.8-5.6s-3.6-3.9-3.8-6.4
			C277.8,292.2,278.3,289.6,279.4,287.2z"/>
		<path class="st4" d="M231.7,308.1c-2.2,1.5-4.7,2.4-7.4,2.5l-1.2,0.1c-1,0.1-2,0.2-3,0.2c-1.4,0-2.7-0.2-4-0.8
			c-2.2-1-3.4-3-4.5-4.7c-0.3-0.5-0.6-1-0.9-1.4s-0.7-1-1.1-1.5c-1.3-1.6-2.7-3.4-2.9-5.7c-0.2-2.9,0.3-5.7,1.5-8.3
			c1.1-2.3,3.1-3.6,4.9-4.8c0.4-0.3,0.8-0.5,1.2-0.8c1-0.7,2-1.3,3-1.9 M222.1,279.5h0.3c2.3-0.2,5.2-0.5,7.6,0.6s4.2,3.6,5.5,5.5
			l0.4,0.6c1.5,2.3,2.4,5,2.5,7.8c0.2,2.7-0.3,5.4-1.5,7.9c-0.4,0.9-0.9,1.8-1.5,2.6 M233.8,301.5c0.2-0.3,0.3-0.5,0.4-0.8
			c1-2,1.4-4.1,1.3-6.3c-0.1-2.3-0.8-4.5-2-6.4l-0.4-0.6c-1.2-1.7-2.6-3.7-4.3-4.5c-1-0.4-2.1-0.6-3.1-0.6c-0.7,0-1.4,0-2,0.1
			 M218.6,283.7c-0.9,0.5-1.8,1.1-2.7,1.8c-0.4,0.3-0.8,0.6-1.2,0.8c-1.6,1-3.1,2-3.8,3.5c-1,2.1-1.4,4.5-1.2,6.8
			c0.1,1.4,1.2,2.7,2.3,4.1c0.4,0.5,0.9,1.1,1.2,1.6s0.7,1,1,1.6c0.9,1.5,1.8,2.9,3.2,3.6c1.6,0.7,3.5,0.5,5.5,0.3l1.2-0.1
			c2.1-0.1,4.2-0.9,6-2.1l0.2-0.1"/>
		<path class="st3" d="M247.3,204.6c2.4-0.2,5.4-0.5,8.1,0.7c2.7,1.2,4.5,3.8,5.9,5.9l0.4,0.6c1.6,2.5,2.5,5.3,2.6,8.2
			c0.8,9-5.8,16.9-14.8,17.7c-0.1,0-0.1,0-0.2,0l-1.1,0.1c-1,0.1-2.1,0.2-3.1,0.2c-1.5,0-3.1-0.3-4.5-0.9 M250.7,209.4
			c-0.9,0-1.9,0.1-2.9,0.2l-0.9,0.1c-1.9,0.2-3.6,1.4-5.4,2.6c-0.4,0.3-0.8,0.6-1.3,0.9c-1.5,1-2.9,1.9-3.4,3.1l0,0
			c-0.9,2-1.3,4.1-1.1,6.3c0.1,1.1,1.1,2.3,2.1,3.6c0.4,0.5,0.9,1.1,1.3,1.7s0.7,1.1,1,1.6c0.9,1.4,1.7,2.7,2.8,3.2
			c1.4,0.6,3.1,0.4,4.9,0.2l1.2-0.1c4.1-0.2,7.7-2.7,9.3-6.4c0.9-1.8,1.3-3.8,1.2-5.8c-0.1-2.1-0.7-4.1-1.8-5.8l-0.4-0.6
			c-1.1-1.6-2.4-3.5-3.9-4.2C252.5,209.5,251.6,209.3,250.7,209.4L250.7,209.4z"/>
		<path class="st3" d="M145.4,256.9c0.3,3.1-0.2,6.3-1.4,9.2c-1.2,2.9-3.1,5.4-5.6,7.3c-4.9,4-11.5,5-17.3,2.5
			c-2.9-1.1-6.2-2-8.3-4.5"/>
		<path class="st3" d="M18.5,65.1c0.5,1.4,0.8,2.9,0.9,4.4c0.2,2.5-0.3,4.9-1.4,7.1c-1,2.2-2.6,4.2-4.6,5.6c-2,1.4-4.4,2.2-6.8,2.4
			l-0.9,0.1c-0.9,0.1-1.8,0.2-2.6,0.2c-1.3,0-2.6-0.2-3.8-0.8c-1.8-1-3.3-2.5-4.2-4.4c-0.2-0.4-0.5-0.8-0.7-1.1s-0.6-0.8-0.9-1.1
			C-8,76-8.9,74.1-9.3,72.1c-0.2-2.6,0.3-5.2,1.4-7.5l0,0c1-1.9,2.6-3.4,4.5-4.5c0.3-0.2,0.6-0.4,0.9-0.6c1.7-1.2,3.9-2.7,6.7-3
			l0.7-0.1h0.6 M-3.4,66.7L-3.4,66.7c-0.7,1.5-1,3.2-0.9,4.9c0.3,1,0.8,1.9,1.6,2.7c0.4,0.5,0.7,0.9,1.1,1.4s0.6,0.9,0.9,1.3
			c0.5,1,1.2,1.8,2.1,2.5c1.2,0.4,2.6,0.4,3.8,0.2l1-0.1c3.2-0.2,6-2.1,7.3-5c0.7-1.4,1.1-3,1-4.6c0-1.6-0.5-3.2-1.4-4.6l-0.4-0.5
			c-0.9-1.3-1.9-2.8-3-3.3s-2.8-0.3-4.3-0.2l-0.8,0.1c-1.6,0.3-3,1-4.3,2.1l-1.1,0.7C-1.8,64.9-2.7,65.7-3.4,66.7z"/>
		<path class="st4" d="M36.9,6.1c-0.4-1.5,0.3-3.1,0.8-4.5c0.3-1.5,1-2.9,2-4c1.1-1,2.3-2.4,3.8-2.7s3.2,0.2,4.7,0.6
			C49.6-4,50.9-3.1,51.9-2c1,1.1,1.7,2.5,2,3.9c0.4,1.4,0.3,3-0.1,4.4C53.4,7.8,52.6,9,51.5,10c-1.1,1-2.1,2.3-3.7,2.7
			s-3-0.4-4.4-0.9s-3.2-0.5-4.2-1.6C38.1,9,37.3,7.6,36.9,6.1z"/>
		<path class="st3" d="M87.7,28.1c1.3,0.2,2.6,0.6,3.8,1.1c3.8,1.8,6.2,5.2,8,7.8l0.5,0.7c2.1,3.3,3.4,7.1,3.6,11
			c0.2,2.5,0,5.1-0.8,7.6 M58.7,48.1c0.3-2.5,1-4.9,2-7.1c1.7-3.6,4.7-5.6,7.1-7.1c0.5-0.3,0.9-0.6,1.3-0.9c2.7-1.9,6-4.2,10.4-4.6
			l1-0.1l1.5-0.1 M88.4,39.1c-0.2-0.2-0.5-0.4-0.8-0.6l-0.3-0.2c-0.8-0.3-1.6-0.4-2.4-0.4c-1,0-2.2,0.1-3.3,0.2l-1.1,0.1
			c-1.6,0.1-3.3,1.2-5.6,2.8c-0.5,0.4-1.1,0.7-1.6,1.1c-1.6,1-3,2-3.5,3l0,0c-1,2.1-1.4,4.3-1.2,6.6c0.1,0.8,1.1,2.1,2.1,3.2
			c0.5,0.7,1.1,1.4,1.6,2.1s0.9,1.4,1.3,2c0.9,1.4,1.7,2.8,2.5,3.1c1.1,0.5,3,0.3,4.9,0.1l1.6-0.2c4.2-0.2,8-2.8,9.7-6.7
			c0.9-1.8,1.4-3.9,1.3-5.9c0,0,0-0.1,0-0.1c0-0.2,0-0.4,0-0.6"/>
		<path class="st3" d="M107.6,13.3c-1.9,0.6-4,0.5-5.9,0.8c-2.6,0.3-5.4,1.4-7.9,0.4c-2.5-1.1-4.7-2.8-6.3-5
			c-1.7-2.2-1.5-5.1-1.9-7.6S85-3.4,86-5.8s2-5.3,4.2-7s5.3-1.9,7.8-2.2c1.3-0.1,2.6-0.1,3.8,0.2"/>
		<path class="st6" d="M291.3,302.6c0.4,6.2-3.4,11.6-6,16.8c-2.7,5.4-5.3,10.7-10.3,14c-4.8,3.2-10.4,7.6-16.6,8
			s-12.4-3.1-17.6-5.6c-5.4-2.6-9.4-7.2-12.7-12.2c-3.2-4.9-5-10.6-5.2-16.5c-1-11.8,4.7-23.2,14.8-29.5c4.8-3.2,9.8-7.5,16-7.9
			c6.2-0.4,11.3,3.8,16.5,6.3c5.4,2.6,12,4.2,15.3,9.1C288.9,290.4,290.9,296.4,291.3,302.6z"/>
		<path class="st5" d="M231.6,282.6c1.9-1.9,3.9-3.6,6.1-5"/>
		<path class="st5" d="M244.9,272.8c2.6-1.7,5.6-2.7,8.8-3c6.2-0.4,11.3,3.7,16.6,6.3c5.4,2.6,12,4.2,15.3,9.1
			c3.4,5.2,5.4,11.2,5.8,17.4c0.4,6.2-3.4,11.6-6,16.8c-2.7,5.4-5.3,10.7-10.3,14c-4.8,3.2-10.4,7.6-16.6,8s-12.4-3.1-17.6-5.6
			c-5.4-2.6-9.4-7.2-12.7-12.2c-3.2-4.9-5-10.6-5.2-16.5c-0.5-5.8,0.7-11.6,3.3-16.9"/>
		<path class="st15" d="M-12.3,26.2c-0.8-4.9,1.8-9.5,3.4-13.8s3.4-8.9,7.1-11.9s7.7-6.9,12.6-7.7s10.1,1.4,14.4,3.1s8,5,11,8.7
			c2.9,3.7,4.8,8,5.4,12.6c1.7,9.3-1.9,18.8-9.4,24.6c-3.6,2.9-7.1,6.7-12,7.5s-9.3-2.1-13.6-3.7s-9.8-2.4-12.9-6
			C-9.4,35.7-11.5,31.1-12.3,26.2z"/>
		<path class="st5" d="M36.6,37.3c-1.3,1.6-2.8,3.1-4.4,4.5"/>
		<path class="st5" d="M26.8,46.2c-2,1.5-4.3,2.6-6.7,3.1c-4.9,0.8-9.3-2.1-13.6-3.7s-9.8-2.4-12.9-6c-3.1-3.9-5.2-8.5-6-13.4
			c-0.8-4.9,1.8-9.5,3.4-13.8s3.4-8.9,7.1-12s7.7-6.9,12.6-7.7s10.1,1.4,14.4,3.1s8,5,11,8.7c2.9,3.7,4.8,8,5.4,12.6
			c0.8,4.6,0.4,9.3-1.3,13.6"/>
		<path class="st15" d="M313.2,223c3.6,1.7,5.4,5.4,7.5,8.5s4.3,6.3,4.6,10s1,8.1-0.7,11.7c-1.7,3.6-5.5,5.9-8.5,8
			s-6.9,2.9-10.7,3.2c-3.7,0.2-7.4-0.5-10.7-2.2c-6.8-3.1-11.3-9.7-11.8-17.2c-0.3-3.7-1.1-7.7,0.6-11.3s5.6-5.1,8.6-7.2
			s6-5.3,9.8-5.6C305.7,220.6,309.6,221.3,313.2,223z"/>
		<path class="st5" d="M282.3,239.5c-0.1-2,0.2-4,1-5.8c1.7-3.6,5.6-5.1,8.6-7.2s6-5.3,9.8-5.6c3.9-0.3,7.9,0.5,11.5,2.2
			c3.6,1.7,5.4,5.4,7.5,8.5s4.3,6.3,4.6,10s1,8.1-0.7,11.7c-1.7,3.6-5.5,5.9-8.5,8s-6.9,2.9-10.7,3.2c-3.7,0.2-7.4-0.5-10.7-2.2
			c-3.4-1.5-6.2-4-8.3-7"/>
	</g>
</g>
</svg>
