<svg id="Layer_1" data-name="Layer 1" xmlns="http://www.w3.org/2000/svg" xmlns:xlink="http://www.w3.org/1999/xlink" viewBox="0 0 300 300"><defs><style>.cls-1,.cls-10,.cls-14,.cls-17,.cls-21,.cls-23,.cls-25,.cls-26,.cls-28,.cls-33,.cls-8{fill:none;}.cls-2{clip-path:url(#clip-path);}.cls-3{fill:#b7e5f5;}.cls-4{fill:#d1f7f9;}.cls-4,.cls-5{stroke:#a0cfe3;}.cls-23,.cls-33,.cls-4,.cls-5{stroke-miterlimit:10;}.cls-5{fill:#effff9;}.cls-6{fill:#a0cfe3;}.cls-7{fill:#fffbe6;}.cls-20,.cls-29,.cls-32,.cls-8,.cls-9{stroke:#5f58a7;}.cls-10,.cls-14,.cls-17,.cls-20,.cls-21,.cls-22,.cls-25,.cls-26,.cls-28,.cls-29,.cls-32,.cls-33,.cls-8,.cls-9{stroke-linecap:round;}.cls-10,.cls-14,.cls-17,.cls-20,.cls-21,.cls-22,.cls-25,.cls-26,.cls-28,.cls-29,.cls-32,.cls-8,.cls-9{stroke-linejoin:round;}.cls-18,.cls-22,.cls-34,.cls-9{fill:#fff;}.cls-10{stroke:#d1e4ef;}.cls-11{fill:#9bc8ce;}.cls-12{fill:#bfe5e2;}.cls-13,.cls-20{fill:#dcf4f2;}.cls-14,.cls-23{stroke:#a0cad9;}.cls-15{fill:#99c0e8;}.cls-16{fill:#b9dde0;}.cls-17{stroke:#88a5bd;}.cls-19{fill:#a0cad9;}.cls-21,.cls-22{stroke:#f5e6cc;}.cls-24{fill:#bfe5f3;}.cls-25{stroke:#bfe5f3;}.cls-26{stroke:#8596d7;}.cls-27{fill:#c6c0bb;}.cls-28{stroke:#a19492;}.cls-29{fill:#fdf1b7;}.cls-30,.cls-32{fill:#ffdc6b;}.cls-31{fill:#ec6746;}.cls-33{stroke:#ec6746;}.cls-34{opacity:0.5;}</style><clipPath id="clip-path"><rect class="cls-1" width="300" height="300"/></clipPath></defs><g class="cls-2"><rect class="cls-3" x="-10.78" y="-5.99" width="341.3" height="323.91"/><path class="cls-4" d="M102.94-3.39c17.79,7.21,18.33,26.54,20.47,43.17,6.34,49.32,65.05,35.79,100.3,47.3,54.48,17.79,35.43,66.56,119.1,54.58L362.55,10.23Z"/><path class="cls-5" d="M153.21-2.08c16.82,34.87,49.7,8.69,90,12.46,30,2.82,33.3,28.77,66.38,19l-1.07-44.24Z"/><path class="cls-6" d="M64.12,59.94a7.46,7.46,0,0,0,.31-2.13,7.33,7.33,0,0,0-9-7.17,5.43,5.43,0,0,0-10,2.66,2.19,2.19,0,0,0-3.86,1.94h-.09a6.1,6.1,0,0,0-6.1,6.1,6.18,6.18,0,0,0,.38,2.12H67.84A3.74,3.74,0,0,0,64.12,59.94Z"/><circle class="cls-7" cx="61.06" cy="36.77" r="16.42"/><path class="cls-6" d="M116.23,130.56s-4-.35-7.86,3.69c-6.1-15.06-16.72-14.12-16.72-14.12s-18.56-1.66-20.71,34.22h59.69C129.13,129.41,116.23,130.56,116.23,130.56Z"/><path class="cls-6" d="M188.82,118.48s-6.56-.58-12.51,6.29c-7.3-12-17.11-11.17-17.11-11.17s-22.1-2-24.67,40.75h76C208.27,116.74,188.82,118.48,188.82,118.48Z"/><path class="cls-8" d="M153.37,114.67c-6.07,2.33-15.1,9.56-18.08,31.79"/><path class="cls-9" d="M225.76,149.06l-1.92-30.59-5,.23a9.52,9.52,0,0,0-14.52-12.29,13.89,13.89,0,0,0-23.61,8.12,14.2,14.2,0,0,0-10.72,9.4,6.77,6.77,0,0,0-10.21,5.85,6.56,6.56,0,0,0,.12,1.26,11.72,11.72,0,0,0-1.57-.11A12.39,12.39,0,0,0,146,143.26a5.95,5.95,0,0,0-7.48,5.8H107c0-.11,0-.22,0-.32A11.14,11.14,0,0,0,95.9,137.6a11.48,11.48,0,0,0-2.13.21,10.7,10.7,0,0,0,.09-1.39,12.31,12.31,0,0,0-5.36-10.16,7.12,7.12,0,0,0-7-8.67,7,7,0,0,0-2.72.54A17.6,17.6,0,1,0,54.77,138l1.66,11.07H-95v21.39H316.1V149.06Z"/><path class="cls-10" d="M212.09,147.43a7.64,7.64,0,0,0-7.24-5.23,7.77,7.77,0,0,0-1,.07,13.72,13.72,0,0,0-26.48,5v.11"/><path class="cls-10" d="M167.68,138.45a4.19,4.19,0,0,0-4.79-6.22"/><path class="cls-9" d="M179.91,119.54H161.49a4.66,4.66,0,0,1-4.65-4.65h0a4.66,4.66,0,0,1,4.65-4.65h26.74"/><line class="cls-10" x1="183.11" y1="119.54" x2="188.23" y2="119.54"/><line class="cls-10" x1="191.82" y1="119.54" x2="193.77" y2="119.54"/><path class="cls-10" d="M196.23,132.1a12.82,12.82,0,0,1,18.25-10"/><path class="cls-10" d="M95.35,148.11a12.77,12.77,0,0,0-12.06-8.57,12.51,12.51,0,0,0-3.48.5c0-.08,0-.16,0-.25a8.65,8.65,0,1,0-17.3,0"/><path class="cls-10" d="M60,134.54a5,5,0,1,1,5-5"/><path class="cls-9" d="M88.58,130.09H99.12a2.32,2.32,0,0,1,2.32,2.31h0a2.32,2.32,0,0,1-2.32,2.32H91.51"/><line class="cls-10" x1="89.56" y1="134.72" x2="86.07" y2="134.72"/><line class="cls-10" x1="86.49" y1="130.09" x2="81.4" y2="130.09"/><circle class="cls-9" cx="86.18" cy="109.5" r="2.23"/><rect class="cls-9" x="188.23" y="90.66" width="11.13" height="5.58" rx="2.79"/><rect class="cls-9" x="132.66" y="133.34" width="9.08" height="7.17" rx="3.59"/><path class="cls-11" d="M33,102.28c27.92-1,48.11,22.28,50.58,58.38,0,0-42.36,21.82-43.8,18.44S-3.36,142.12,0,139,33,102.28,33,102.28Z"/><path class="cls-8" d="M68.59,118.47c8.41,10.17,13.78,24.67,15,42.19"/><path class="cls-8" d="M39.48,102.49a42.37,42.37,0,0,1,25.63,12.19"/><path class="cls-3" d="M165.67,21.26a2.48,2.48,0,0,0-2.36-2.48,5.06,5.06,0,0,0,.36-1.87,5.16,5.16,0,0,0-5.15-5.15,5.35,5.35,0,0,0-1.45.21,5.15,5.15,0,0,0-10,1.66v.07h0a7.31,7.31,0,0,0-7.21,8.45H165.5A2.39,2.39,0,0,0,165.67,21.26Z"/><path class="cls-3" d="M200.73,60a3.51,3.51,0,0,1,3.35-3.5,7.29,7.29,0,0,1,8.85-9.67,7.31,7.31,0,0,1,14.22,2.35s0,.06,0,.1h0A10.35,10.35,0,0,1,237.5,59.65a9.81,9.81,0,0,1-.13,1.64H201A3.54,3.54,0,0,1,200.73,60Z"/><path class="cls-12" d="M49.55,161.27C43.16,122,25.76,56.35-17.29,49.69c0,0-3.53,90-14.7,91.44s59.88,44,59.88,44Z"/><path class="cls-8" d="M35.36,106.18c7.19,18.91,11.59,39.17,14.19,55.09"/><path class="cls-8" d="M24.35,82.8a148.74,148.74,0,0,1,9.34,19.13"/><path class="cls-8" d="M-17.29,49.69c15.47,2.4,27.62,12.41,37.15,26.08"/><path class="cls-11" d="M204.72,164.26c-2.22-35.34,19.06-79.67,59.84-74.4l38.34,81.82Z"/><path class="cls-8" d="M220.67,108.86c-11.61,15.07-17.14,36.52-15.95,55.4"/><path class="cls-8" d="M229.18,100a54.53,54.53,0,0,0-6.1,6"/><path class="cls-8" d="M264.56,89.86c-12.87-1.66-23.8,1.61-32.65,8"/><path class="cls-12" d="M252.53,158.89c-1.81-61.58,16.84-120.64,66.19-113.3l11.71,135.1Z"/><path class="cls-8" d="M261.09,89.52c-6.67,19.88-9.29,44.42-8.56,69.37"/><path class="cls-8" d="M290.75,49.58c-12.85,6.53-22.16,19.58-28.39,36.35"/><path class="cls-8" d="M318.72,45.59a47.22,47.22,0,0,0-23.05,1.87"/><path class="cls-8" d="M44.73,38.45a15.48,15.48,0,0,1-.09-1.68,16.43,16.43,0,1,1,29.44,10"/><path class="cls-8" d="M71.68,49.3A16.42,16.42,0,0,1,45.3,41.37"/><path class="cls-13" d="M152.47,176.47c13.77,11.35,44.63,5.28,51.35,17.49,5.58,10.14-4.55,11,.84,18.33,5.53,7.47,22,12.74,40.84,14.52,13.49,1.27,23.42-2.36,32.22,1.56,16.1,7.19,16.09,20.81,31,28.17L307.5,151.73H160.29c-10.49,0-17.52,1.7-19.35,7.09C150.32,165,144.79,170.14,152.47,176.47Z"/><path class="cls-14" d="M214.31,202.41c1.88-5.75-.44-10.81-7.84-14"/><path class="cls-14" d="M253.17,216.14c-11.57.25-27.86-2.46-35.77-7.3"/><path class="cls-14" d="M298.34,232.09c-3.76-4.57-12.19-15.52-28.19-15.62-2.67,0-5.23,0-7.7-.08"/><path class="cls-13" d="M61.24,257.32c-4.85-5.7-11.36-20,0-28.13,33.36-23.87-12.12-35.12,8.37-45,16.37-7.88,23.52-11.75,20.28-22.14-1.77-5.67-4.81-10.32-12-10.32H-28.62L-51.5,303.27H42.73C51.17,281.57,76.43,275.17,61.24,257.32Z"/><path class="cls-14" d="M64.78,175.18C58.87,178,55.26,181.93,54,186.77c-1.85,7.29,2.39,13.17,5.48,17.47"/><path class="cls-14" d="M74.84,165.42c2.11,3.16-.94,5.57-4.3,7.27"/><path class="cls-15" d="M308.75,256.54c-14.94-7.36-14.93-21-31-28.17-8.8-3.92-18.73-.29-32.22-1.56-18.8-1.78-35.31-7.05-40.84-14.52-5.39-7.28,4.74-8.19-.84-18.33-6.72-12.21-37.58-6.14-51.35-17.49-6.72-5.54,3.05-10.53-.63-15.45a5.63,5.63,0,0,0-4.37-2.16l-71,0c11.2,7.33,9,17.49-7.37,25.37-20.49,9.88,25,21.13-8.37,45-11.35,8.12-4.85,22.43,0,28.13,15.19,17.85-10.07,24.25-18.5,45.95h266.5Z"/><path class="cls-8" d="M73,182.09c13.37-8.11,13.44-16.67,3.45-23.27"/><path class="cls-8" d="M69.81,220.86c14-18.32-18.64-28-.69-36.67"/><path class="cls-8" d="M39.86,313.27c3-30.15,38.19-35.62,20.89-55.95-4.85-5.7-11.35-20,0-28.13a55.91,55.91,0,0,0,5.34-4.31"/><path class="cls-8" d="M151.56,160.66c4.47,5-6,10.13.91,15.81"/><path class="cls-13" d="M115.75,280.23s-1.32.34-4,.75-6.87,1.09-12.47,1.71c-2.81.45-6,.8-9.53,1.29s-7.49,1-11.8,1.78c-8.62,1.37-18.83,3.15-30.6,6.12a286.47,286.47,0,0,0-29.67,9.23c-4.13,1.39-7.71,3-11.06,4.23S.39,308-2.25,309c-5.07,2.35-9,3.85-11.47,5s-3.83,1.53-3.83,1.53.67-1.15,2.33-3.42a70.3,70.3,0,0,1,8.75-9.61c2.23-1.91,4.78-4.16,7.86-6.4a104,104,0,0,1,10.75-6.86,126.67,126.67,0,0,1,31.39-12.39,133.84,133.84,0,0,1,33.39-4.12,119.82,119.82,0,0,1,12.66.65c3.76.42,7.07,1,10,1.55A80,80,0,0,1,112,278.58C114.56,279.61,115.75,280.23,115.75,280.23Z"/><path class="cls-8" d="M102.58,275.69c2.33.59,4.32,1.14,6,1.65s3,1.1,4.08,1.52c2.12.86,3.1,1.37,3.1,1.37s-1.32.34-4,.75-6.87,1.09-12.47,1.71c-2.81.45-6,.8-9.53,1.29s-7.49,1-11.8,1.78c-8.62,1.37-18.83,3.15-30.6,6.12a286.47,286.47,0,0,0-29.67,9.23c-4.13,1.39-7.71,3-11.06,4.23S.39,308-2.25,309c-5.07,2.35-9,3.85-11.47,5s-3.83,1.53-3.83,1.53.67-1.15,2.33-3.42a70.3,70.3,0,0,1,8.75-9.61c2.23-1.91,4.78-4.16,7.86-6.4a104,104,0,0,1,10.75-6.86,126.67,126.67,0,0,1,31.39-12.39c18.83-4.56,34.09-4.69,45.26-3.54"/><path class="cls-14" d="M-17.55,315.57c17-14.33,37.48-24.12,58.82-30"/><path class="cls-14" d="M46.86,284.06a186.4,186.4,0,0,1,19.88-3.69"/><polyline class="cls-14" points="84.82 278.85 81.73 278.94 78.65 279.17 72.48 279.65"/><path class="cls-8" d="M220.63,221.86a113.4,113.4,0,0,0,24.87,4.95c13.49,1.27,23.42-2.36,32.22,1.56,20,8.92,15.15,27.73,44.8,32.21"/><path class="cls-16" d="M89.48,250.26s-1.17,0-3.63.12c-1.23.07-2.78.19-4.65.46s-4.1.57-6.64,1.1l-4.06.92c-1.45.34-3,.71-4.57,1.22s-3.29,1-5.07,1.57-3.6,1.33-5.53,2.07a123.16,123.16,0,0,0-26.14,14.35,128.48,128.48,0,0,0-22,20.07,120.52,120.52,0,0,0-11.7,16.33c-1.29,2.25-2.36,4.21-3.24,5.88s-1.44,3.14-1.93,4.27C-10.67,320.89-11,322-11,322s.94-.73,2.74-2.38c.91-.81,2-1.88,3.35-3.17s3-2.75,4.79-4.51c3.64-3.51,8.31-7.89,14.08-13.19a274.08,274.08,0,0,1,21.79-17.57,249.66,249.66,0,0,1,23.66-14.91l4.9-2.72c1.59-.81,3.08-1.6,4.5-2.36s2.76-1.46,4-2.1l3.59-1.87c2.24-1.16,4.21-2.11,5.85-3l4.08-2.16C88.49,250.91,89.48,250.26,89.48,250.26Z"/><path class="cls-8" d="M78.8,256q2.76-1.39,4.77-2.49l3.34-1.77c1.76-1,2.57-1.5,2.57-1.5s-1.17,0-3.63.12c-1.23.07-2.78.19-4.65.46s-4.1.57-6.64,1.1l-4.06.92c-1.45.34-3,.71-4.57,1.22s-3.29,1-5.07,1.57-3.6,1.33-5.53,2.07a123.16,123.16,0,0,0-26.14,14.35,128.48,128.48,0,0,0-22,20.07,120.52,120.52,0,0,0-11.7,16.33c-1.29,2.25-2.36,4.21-3.24,5.88s-1.44,3.14-1.93,4.27C-10.67,320.89-11,322-11,322s.94-.73,2.74-2.38c.91-.81,2-1.88,3.35-3.17s3-2.75,4.79-4.51c3.64-3.51,8.31-7.89,14.08-13.19a274.08,274.08,0,0,1,21.79-17.57l2.39-1.73c.78-.57,1.6-1.07,2.38-1.6l4.58-3.06c3-1.84,5.83-3.72,8.59-5.24l4-2.33,3.76-2.06c2.4-1.39,4.71-2.53,6.81-3.66"/><path class="cls-17" d="M-11,322c11.16-16.31,24.57-31.2,40.37-43.14"/><path class="cls-17" d="M33.52,275.86l1.83-1.32,1.9-1.22L41,270.87c1.25-.84,2.59-1.54,3.88-2.31s2.59-1.52,3.91-2.25"/><path class="cls-17" d="M63.38,259.27c-1.71.67-3.35,1.52-5,2.27s-3.34,1.52-5,2.4"/><path class="cls-8" d="M207.23,215a32.65,32.65,0,0,0,7.7,4.66"/><path class="cls-8" d="M205.49,200.73c-.59,4.4-4.69,6.35-.83,11.56"/><path class="cls-8" d="M156.51,179.1c15,7.79,41.18,3.73,47.31,14.86"/><path class="cls-8" d="M160.29,151.73c-10.49,0-17.52,1.7-19.35,7.09"/><line class="cls-8" x1="169.18" y1="151.73" x2="290.34" y2="151.73"/><line class="cls-8" x1="77.41" y1="151.73" x2="-29.11" y2="151.73"/><path class="cls-18" d="M61.45,301.59s-4.6,0-5.23-2.14c-.81-2.77,4.07-3.57,3.43-6.93-.58-3.08-3.59-2.47-5-5.3s1.37-5.66-2.19-10-7.42-1.75-10.33-2.92c-5.62-2.26-4.66-8.46-11.4-9.35s-8.52,6.67-6.67,6.1c2-.61-3.36-5.81-10.28-2.81-5.69,2.47-5.68,8.82-8.16,10.63s-4.25,1-6,4.31c-1.62,3.06.42,4.56-.55,7.54S-4.07,294.25-4,297.3c0,3.61,3.75,3.53,3.75,4s-6.34.17-6.34.17"/><path class="cls-8" d="M-.92,290.76c-.93,2.88-3.15,3.49-3.13,6.54,0,3.61,3.75,3.53,3.75,4s-6.34.17-6.34.17"/><path class="cls-8" d="M7.93,275.19c-.7,1.6-1.29,3-2.27,3.72-2.5,1.82-4.25,1-6,4.31-1.06,2-.55,3.35-.34,4.87"/><path class="cls-8" d="M12,269.36a11,11,0,0,0-3,3.72"/><path class="cls-8" d="M42.17,274.34c-5.62-2.26-4.66-8.46-11.4-9.35s-8.52,6.67-6.67,6.1c2-.61-3.36-5.81-10.28-2.81"/><path class="cls-8" d="M61.45,301.59s-4.6,0-5.23-2.14c-.81-2.77,4.07-3.57,3.43-6.93-.58-3.08-3.59-2.47-5-5.3s1.37-5.66-2.19-10c-2.57-3.09-5.22-2.68-7.59-2.6"/><circle class="cls-14" cx="34.26" cy="286.64" r="2.32"/><circle class="cls-14" cx="17.46" cy="293.98" r="1.3"/><line class="cls-14" x1="12.25" y1="275.95" x2="16.6" y2="277.98"/><line class="cls-14" x1="16.6" y1="280.47" x2="12.25" y2="278.45"/><line class="cls-14" x1="16.6" y1="282.97" x2="12.25" y2="280.94"/><line class="cls-14" x1="46.35" y1="297.73" x2="42.01" y2="295.7"/><line class="cls-14" x1="46.35" y1="300.22" x2="42.01" y2="298.2"/><circle class="cls-19" cx="21.11" cy="277.02" r="0.72"/><circle class="cls-19" cx="50.79" cy="291.38" r="0.72"/><path class="cls-14" d="M37.05,278.29c1.2-2.51-1.6-4.34-3.57-2.15.15-1.85-1.82-2.49-2.94-1"/><path class="cls-14" d="M23.73,291.8c1.16-.68,2.17.42,1.53,1.36a1.36,1.36,0,0,1,1.09,2.48"/><line class="cls-8" x1="76.49" y1="158.82" x2="108.39" y2="158.82"/><line class="cls-8" x1="112.95" y1="158.84" x2="126.15" y2="158.84"/><line class="cls-8" x1="147.47" y1="158.86" x2="130.71" y2="158.86"/><line class="cls-14" x1="230.54" y1="158.8" x2="239.44" y2="158.8"/><line class="cls-14" x1="221.22" y1="158.8" x2="228.43" y2="158.8"/><line class="cls-14" x1="215.99" y1="158.8" x2="219.12" y2="158.8"/><line class="cls-14" x1="233.23" y1="161.87" x2="247.28" y2="161.87"/><line class="cls-8" x1="298.31" y1="151.73" x2="307.5" y2="151.73"/><path class="cls-20" d="M102.06,229a21.45,21.45,0,0,0-4-.36c-4.61,0-8.35,1.32-8.35,2.94a1.43,1.43,0,0,0,.53,1c.45,0,4.94-.38,4.94-.38L93.3,234a20.33,20.33,0,0,0,4.74.52c4.62,0,8.36-1.32,8.36-2.95,0-.83-1-1.59-2.57-2.12"/><path class="cls-13" d="M61.49,283.65a6.67,6.67,0,0,0-2.21-1,7.85,7.85,0,0,0-9.37,5.31,5.15,5.15,0,0,0-.06,2.48,12.21,12.21,0,0,0,2.33.45,8.33,8.33,0,0,0,5-1A8.21,8.21,0,0,0,60.83,286,7.33,7.33,0,0,0,61.49,283.65Z"/><path class="cls-8" d="M61,285.63a7.24,7.24,0,0,0,.51-2,6.67,6.67,0,0,0-2.21-1,7.85,7.85,0,0,0-9.37,5.31,5.15,5.15,0,0,0-.06,2.48,12.21,12.21,0,0,0,2.33.45,8.33,8.33,0,0,0,5-1,8.21,8.21,0,0,0,3-2.8"/><path class="cls-14" d="M51.1,289.36a34.69,34.69,0,0,1,4.32-2.75"/><path class="cls-14" d="M56.62,286q.75-.39,1.5-.75"/><path class="cls-13" d="M8.69,264.24a5.07,5.07,0,0,0-.48,1.86,5.91,5.91,0,0,0,1.41,4.28,5.81,5.81,0,0,0,4.11,2.22,4,4,0,0,0,1.93-.32,9.19,9.19,0,0,0,0-1.88,6.64,6.64,0,0,0-1.52-3.75,6.49,6.49,0,0,0-3.55-2.25A5.63,5.63,0,0,0,8.69,264.24Z"/><path class="cls-8" d="M10.3,264.33a5.52,5.52,0,0,0-1.61-.09,5.07,5.07,0,0,0-.48,1.86,5.91,5.91,0,0,0,1.41,4.28,5.81,5.81,0,0,0,4.11,2.22,4,4,0,0,0,1.93-.32,9.19,9.19,0,0,0,0-1.88,6.64,6.64,0,0,0-1.52-3.75A6.56,6.56,0,0,0,12.23,265"/><path class="cls-14" d="M14.66,271.46a27.61,27.61,0,0,1-2.78-2.94"/><path class="cls-14" d="M11.21,267.67c-.28-.34-.54-.7-.81-1.05"/><circle class="cls-9" cx="60.28" cy="95.39" r="3.39"/><circle class="cls-21" cx="62.93" cy="34.9" r="8.69"/><circle class="cls-22" cx="68.44" cy="42.96" r="2.58"/><circle class="cls-22" cx="64.32" cy="34.19" r="1.53"/><path class="cls-9" d="M116.82,55.71a2.35,2.35,0,0,0-2.34-2.34H109a10.37,10.37,0,0,0-10-7.74,10.49,10.49,0,0,0-2.11.22,9.8,9.8,0,0,0-19-2.43,7.81,7.81,0,0,0-12.22,6.46,8.42,8.42,0,0,0,.14,1.52,5.3,5.3,0,0,0-4.51,5.24,5.14,5.14,0,0,0,.08.88A23.76,23.76,0,0,0,56.51,63h59a4.86,4.86,0,0,0-2.43-4.93h1.42A2.36,2.36,0,0,0,116.82,55.71Z"/><path class="cls-10" d="M106.14,58.81a4,4,0,0,0-3.6-2.21,4,4,0,0,0-1.62.34,6.21,6.21,0,0,0-12.37.77,5.78,5.78,0,0,0,.11,1.1"/><path class="cls-10" d="M75.83,54.91a2.17,2.17,0,0,0-4,1.43"/><circle class="cls-9" cx="56.52" cy="52.53" r="2.22"/><circle class="cls-9" cx="63.76" cy="39.63" r="0.85"/><rect class="cls-9" x="99.47" y="40.48" width="4.51" height="2.44" rx="1.22"/><path class="cls-9" d="M283.23,75.32a13.72,13.72,0,0,0-4.9.91A11.76,11.76,0,0,0,268,70a11.33,11.33,0,0,0-2.34.24,9.39,9.39,0,0,0,.08-1.19,9.73,9.73,0,0,0-17.46-5.91,5.43,5.43,0,0,0-3-.88,5.52,5.52,0,0,0-5.48,4.84,13.19,13.19,0,0,0-12.21,13.15c0,.42,0,.84.06,1.25a10,10,0,0,0-5.51,4.72h74.62A13.81,13.81,0,0,0,283.23,75.32Z"/><circle class="cls-9" cx="232.32" cy="59.98" r="2"/><circle class="cls-9" cx="223.46" cy="75.06" r="1.35"/><path class="cls-10" d="M274.3,79.52a5.81,5.81,0,0,0-11.2-2.14,4.08,4.08,0,0,0-.93-.1,4.58,4.58,0,0,0-4.58,4.58,4.46,4.46,0,0,0,.21,1.37"/><path class="cls-10" d="M242.54,72.66a3.87,3.87,0,0,1,7,2"/><path class="cls-8" d="M129.64,146.46c-3.42-16.79-13.41-15.9-13.41-15.9s-4-.35-7.86,3.69c-6.1-15.06-16.72-14.12-16.72-14.12"/><circle class="cls-19" cx="281.59" cy="190.8" r="1.29"/><circle class="cls-19" cx="4.18" cy="221.86" r="1.29"/><circle class="cls-23" cx="296.76" cy="210.63" r="1.58"/><circle class="cls-23" cx="39.17" cy="209.01" r="1.58"/><path class="cls-24" d="M183.11,242.89c16.34,8.84,29.11-12.75,16.8-20.09a16.52,16.52,0,0,1-7.12-20.28c6.38-17.4-40.63-2.29-53.12-26.14a2.27,2.27,0,0,0-2-1.2h0a2.31,2.31,0,0,0-2.28,2.56c2.23,20.37,39.86,19,36.25,28.77C166.8,219.64,162.54,231.77,183.11,242.89Z"/><path class="cls-25" d="M232.2,245.87c2.59,0,2.59,2,5.19,2s2.6-2,5.19-2,2.6,2,5.2,2,2.6-2,5.2-2,2.6,2,5.2,2"/><path class="cls-25" d="M124.94,222.63c2.6,0,2.6,2,5.2,2s2.6-2,5.19-2,2.6,2,5.2,2,2.6-2,5.2-2,2.6,2,5.2,2"/><path class="cls-26" d="M68.4,289.47c2.6,0,2.6,2,5.2,2s2.6-2,5.19-2,2.6,2,5.2,2,2.6-2,5.2-2,2.6,2,5.2,2"/><path class="cls-25" d="M101.82,174.18c2.59,0,2.59,2,5.19,2s2.6-2,5.19-2,2.6,2,5.2,2,2.6-2,5.2-2,2.6,2,5.2,2"/><path class="cls-26" d="M113.16,165.9c2.59,0,2.59,2,5.19,2s2.6-2,5.19-2,2.6,2,5.2,2,2.6-2,5.2-2,2.6,2,5.2,2"/><path class="cls-26" d="M176,261.13c2.84,0,2.84,2,5.68,2s2.83-2,5.67-2,2.83,2,5.67,2,2.84-2,5.67-2,2.84,2,5.68,2,2.83-2,5.67-2,2.84,2,5.68,2,2.84-2,5.67-2,2.84,2,5.68,2,2.84-2,5.68-2,2.84,2,5.69,2"/><path class="cls-26" d="M78.35,193.65c2.84,0,2.84,2,5.67,2s2.84-2,5.67-2,2.84,2,5.68,2,2.83-2,5.67-2,2.84,2,5.68,2,2.83-2,5.67-2,2.84,2,5.68,2,2.83-2,5.67-2,2.84,2,5.68,2,2.84-2,5.68-2,2.84,2,5.68,2"/><path class="cls-25" d="M211.91,284.68c2.91,0,2.91,2,5.83,2s2.92-2,5.84-2,2.92,2,5.83,2,2.92-2,5.84-2,2.92,2,5.84,2,2.92-2,5.83-2,2.92,2,5.84,2,2.93-2,5.85-2,2.92,2,5.84,2"/><path class="cls-8" d="M251.29,262.69c2.92,0,2.92,2,5.83,2s2.92-2,5.84-2,2.92,2,5.84,2,2.92-2,5.83-2,2.92,2,5.84,2,2.92-2,5.84-2,2.92,2,5.84,2,2.92-2,5.84-2,2.92,2,5.85,2"/><rect class="cls-9" x="43.1" y="86.97" width="4.61" height="2.29" rx="1.14"/><circle class="cls-9" cx="10.52" cy="88.11" r="1.88"/><path class="cls-9" d="M51.87,94.48h-6.5A6.52,6.52,0,0,0,40.22,92a6.84,6.84,0,0,0-.91.07,4.44,4.44,0,0,0-4.43-4.13,4.34,4.34,0,0,0-1,.13,9.19,9.19,0,0,0-17.94,2.82A10.12,10.12,0,0,0,16,92.2a7.28,7.28,0,0,0-4.49,3.53,7.32,7.32,0,0,0-10.24,6.39h50a5.39,5.39,0,0,0-4.57-2.53h-.1a7,7,0,0,0,.1-1.13,6.34,6.34,0,0,0-.15-1.38h5.28a1.31,1.31,0,0,0,1.31-1.31h0A1.31,1.31,0,0,0,51.87,94.48Z"/><path class="cls-10" d="M13.05,96.62a7.39,7.39,0,0,1,1.89,2.16"/><path class="cls-10" d="M40.59,97.56A4,4,0,0,0,33,95.67h-.08a7.13,7.13,0,0,0-6.63,5"/><path class="cls-10" d="M24.18,89.26a2.37,2.37,0,0,1,1.33-1.34,2.34,2.34,0,0,1,3.13,2.69"/><path class="cls-9" d="M307.56,127.34a8.42,8.42,0,0,0-1.52.15,5.89,5.89,0,0,0-4.65-5.55,6.51,6.51,0,0,0-12.46-2.35,3.66,3.66,0,0,0-1.8-.47,3.7,3.7,0,0,0-3.09,1.66,8.24,8.24,0,0,0-1.94-.23,8.38,8.38,0,0,0-2.57.4h-5.09a.92.92,0,1,0,0,1.83h2a8.37,8.37,0,0,0-2.73,6.2,8.1,8.1,0,0,0,.29,2.16,5.65,5.65,0,0,0-3.24,3.37H315.8A8.32,8.32,0,0,0,307.56,127.34Z"/><path class="cls-10" d="M308,135.2a5.88,5.88,0,0,0-10.92-3,4.42,4.42,0,0,0-1.21-.17,4.56,4.56,0,0,0-4.47,3.62H308C308,135.49,308,135.35,308,135.2Z"/><path class="cls-10" d="M289.56,130.17a3.35,3.35,0,0,0,.11-.85,3.44,3.44,0,0,0-6.82-.63,1.54,1.54,0,0,0-.67-.16,1.5,1.5,0,0,0-1.51,1.51s0,.09,0,.13"/><circle class="cls-9" cx="284.21" cy="113.5" r="1.77"/><rect class="cls-9" x="263.86" y="126.61" width="6.24" height="2.84" rx="1.42"/><path class="cls-27" d="M241.43,276l-4.48-8.2,1.81-5.42a1.78,1.78,0,0,0-3.38-1.13l-.76,2.29-1.45-2.66a1.78,1.78,0,1,0-3.12,1.7l4.06,7.45-2.23-.41a1.78,1.78,0,0,0-.63,3.5l5.05.92,2,3.67a1.77,1.77,0,0,0,1.56.92,1.84,1.84,0,0,0,.85-.21A1.79,1.79,0,0,0,241.43,276Z"/><line class="cls-28" x1="235.72" y1="265.52" x2="236.95" y2="267.78"/><path class="cls-8" d="M231.07,264.43l3,5.58-2.23-.41a1.78,1.78,0,0,0-.63,3.5l5.05.92,2,3.67a1.77,1.77,0,0,0,1.56.92,1.84,1.84,0,0,0,.85-.21,1.79,1.79,0,0,0,.71-2.42l-4.48-8.2,1.81-5.42a1.78,1.78,0,0,0-3.38-1.13l-.76,2.29-1.45-2.66a1.78,1.78,0,1,0-3.12,1.7"/><path class="cls-14" d="M252.71,182.57a1.17,1.17,0,0,0-1.48-.76,4.16,4.16,0,0,0-.59.25,4,4,0,0,0,.06-.67,1.18,1.18,0,1,0-2.35,0,4,4,0,0,0,.06.67,4.16,4.16,0,0,0-.59-.25,1.18,1.18,0,1,0-.73,2.24,5.27,5.27,0,0,0,.6.14,5.07,5.07,0,0,0-.37.44,1.17,1.17,0,0,0,1.9,1.38,4,4,0,0,0,.3-.49c.1.17.2.34.3.49a1.18,1.18,0,0,0,1.91-1.38,3.86,3.86,0,0,0-.38-.44,5.45,5.45,0,0,0,.61-.14A1.17,1.17,0,0,0,252.71,182.57Z"/><circle class="cls-14" cx="249.52" cy="183.59" r="1.02"/><path class="cls-14" d="M290.8,162.48a2.31,2.31,0,0,0-2.35-.83,5.72,5.72,0,0,0-.83.27,3.43,3.43,0,0,0,0-.71c-.06-.63-.8-1.11-1.66-1.11s-1.6.48-1.66,1.11a3.43,3.43,0,0,0,0,.71,5.72,5.72,0,0,0-.83-.27,2.3,2.3,0,0,0-2.35.83,1.19,1.19,0,0,0,.78,1.88,6.78,6.78,0,0,0,1,.2,9.46,9.46,0,0,0-.74.64,1.84,1.84,0,0,0,0,2.79,2.32,2.32,0,0,0,3.2-.49,7.24,7.24,0,0,0,.57-.87,7.24,7.24,0,0,0,.57.87,2.32,2.32,0,0,0,3.2.49,1.84,1.84,0,0,0,0-2.79,9.46,9.46,0,0,0-.74-.64,6.78,6.78,0,0,0,1-.2A1.19,1.19,0,0,0,290.8,162.48Z"/><path class="cls-14" d="M227.25,182.2a1.49,1.49,0,0,0-1.53-.54,3.74,3.74,0,0,0-.54.17,2.43,2.43,0,0,0,0-.46c0-.41-.52-.72-1.08-.72s-1,.31-1.08.72a1.79,1.79,0,0,0,0,.46,3.74,3.74,0,0,0-.54-.17,1.48,1.48,0,0,0-1.52.54.77.77,0,0,0,.51,1.22c.19.05.4.09.63.13a4.91,4.91,0,0,0-.48.41,1.18,1.18,0,0,0,0,1.81,1.51,1.51,0,0,0,2.08-.31c.13-.18.25-.37.37-.57a4.28,4.28,0,0,0,.37.57,1.5,1.5,0,0,0,2.08.31,1.19,1.19,0,0,0,0-1.81,4.91,4.91,0,0,0-.48-.41c.23,0,.45-.08.64-.13A.78.78,0,0,0,227.25,182.2Z"/><path class="cls-14" d="M17.55,190.93a1.51,1.51,0,0,0-1.52-.54l-.54.18a1.79,1.79,0,0,0,0-.46c0-.41-.52-.72-1.08-.72s-1,.31-1.08.72a2.43,2.43,0,0,0,0,.46l-.54-.18a1.54,1.54,0,0,0-1.53.54.78.78,0,0,0,.51,1.23,5.23,5.23,0,0,0,.64.12c-.17.14-.34.28-.48.42a1.19,1.19,0,0,0,0,1.81,1.5,1.5,0,0,0,2.08-.32,4.17,4.17,0,0,0,.37-.56c.12.19.24.39.37.56a1.51,1.51,0,0,0,2.08.32,1.18,1.18,0,0,0,0-1.81c-.14-.14-.31-.28-.48-.42a5,5,0,0,0,.63-.12A.78.78,0,0,0,17.55,190.93Z"/><path class="cls-14" d="M32.68,233.75a1.17,1.17,0,0,0-1.49-.75,4.16,4.16,0,0,0-.59.25,4,4,0,0,0,.06-.68,1.18,1.18,0,0,0-2.35,0,4,4,0,0,0,.06.68,4.16,4.16,0,0,0-.59-.25,1.17,1.17,0,1,0-.73,2.23,3.88,3.88,0,0,0,.61.15,4.88,4.88,0,0,0-.38.43,1.18,1.18,0,1,0,1.91,1.39c.1-.15.2-.32.3-.49a4,4,0,0,0,.3.49,1.18,1.18,0,1,0,1.9-1.39c-.11-.14-.24-.29-.37-.43a3.76,3.76,0,0,0,.6-.15A1.17,1.17,0,0,0,32.68,233.75Z"/><circle class="cls-14" cx="29.49" cy="234.78" r="1.02"/><path class="cls-13" d="M223.29,291.54a6,6,0,0,0,.47,2.15,6.78,6.78,0,0,0,3.66,3.64,6.62,6.62,0,0,0,5.34.14,4.52,4.52,0,0,0,1.81-1.33,10.84,10.84,0,0,0-1-1.92,7.6,7.6,0,0,0-3.49-3,7.45,7.45,0,0,0-4.8-.46A6.71,6.71,0,0,0,223.29,291.54Z"/><path class="cls-8" d="M225,290.8a6.47,6.47,0,0,0-1.7.74,6,6,0,0,0,.47,2.15,6.78,6.78,0,0,0,3.66,3.64,6.62,6.62,0,0,0,5.34.14,4.52,4.52,0,0,0,1.81-1.33,10.84,10.84,0,0,0-1-1.92,7.79,7.79,0,0,0-7.2-3.68"/><path class="cls-14" d="M233.13,295.83a30.62,30.62,0,0,1-4.36-1.57"/><path class="cls-14" d="M227.64,293.74l-1.36-.65"/><path class="cls-18" d="M224.5,302.87c0-4.53,5.64-3.57,6.69-7.73,1.49-5.87-3.37-8.32-.66-15.14,2.57-6.45,10.51-6.13,14.07-8.72s4.56-11.75,12-14.2c9.6-3.15,15.16,5.4,19.2,6.53,4.35,1.23,6.84-4.09,11.36-2.37,4.16,1.59,2.83,7.91,6.35,10.47s12.74-.43,15.83,9.06c2.47,7.59-5,14.73-6,11.31s8.11-1.18,9.91,5.34a7.19,7.19,0,0,0,6.86,5.45h0"/><line class="cls-14" x1="288.62" y1="282.41" x2="282.42" y2="285.3"/><line class="cls-14" x1="282.42" y1="288.86" x2="288.62" y2="285.97"/><line class="cls-14" x1="282.42" y1="292.42" x2="288.62" y2="289.53"/><line class="cls-14" x1="258.35" y1="268.82" x2="252.15" y2="271.71"/><line class="cls-14" x1="252.15" y1="275.27" x2="258.35" y2="272.37"/><line class="cls-14" x1="252.15" y1="278.82" x2="258.35" y2="275.93"/><path class="cls-14" d="M294.28,280.33c2.25-3.27,6.52-1.12,5.21,2.87,2.18-1.5,4.37.48,3.36,2.91"/><path class="cls-14" d="M276.65,277.68c-1.65-1-3.09.6-2.18,1.94-2.43-.53-3.64,2.31-1.55,3.55"/><path class="cls-14" d="M248.81,296.78c.82-3-2.24-4.56-3.94-2.58-.21-4-5.14-4.7-6.19-.92"/><path class="cls-8" d="M224.5,302.87c0-4.53,5.64-3.57,6.69-7.73,1.49-5.87-3.37-8.32-.66-15.14,2.57-6.45,10.51-6.13,14.07-8.72s4.56-11.75,12-14.2c9.6-3.15,15.16,5.4,19.2,6.53,4.35,1.23,6.84-4.09,11.36-2.37,4.16,1.59,2.83,7.91,6.35,10.47s12.74-.43,15.83,9.06c2.47,7.59-5,14.73-6,11.31s8.11-1.18,9.91,5.34a7.19,7.19,0,0,0,6.86,5.45h0"/><circle class="cls-14" cx="244.96" cy="285.46" r="2.29"/><circle class="cls-19" cx="265.09" cy="294.38" r="1.2"/><circle class="cls-19" cx="269.62" cy="269.62" r="2.1"/><circle class="cls-14" cx="297.2" cy="296.55" r="1.49"/><path class="cls-13" d="M299.61,262.53a6.44,6.44,0,0,0-2.2-1,7.45,7.45,0,0,0-5.65.74,7.33,7.33,0,0,0-3.72,4.58,5,5,0,0,0-.06,2.47,11.73,11.73,0,0,0,2.33.46,8.31,8.31,0,0,0,5-1,8.17,8.17,0,0,0,3.64-3.87A7.53,7.53,0,0,0,299.61,262.53Z"/><path class="cls-8" d="M299.11,264.5a7,7,0,0,0,.5-2,6.44,6.44,0,0,0-2.2-1,7.45,7.45,0,0,0-5.65.74,7.33,7.33,0,0,0-3.72,4.58,5,5,0,0,0-.06,2.47,11.73,11.73,0,0,0,2.33.46,8.65,8.65,0,0,0,8.07-3.81"/><path class="cls-14" d="M289.23,268.23a34.58,34.58,0,0,1,4.31-2.75"/><path class="cls-14" d="M294.75,264.84c.49-.26,1-.5,1.49-.75"/><path class="cls-13" d="M257.31,282.87a4.93,4.93,0,0,0-.59,1.67,5.42,5.42,0,0,0,.95,4,5.33,5.33,0,0,0,3.58,2.35,3.69,3.69,0,0,0,1.79-.13,9,9,0,0,0,.16-1.72,6.22,6.22,0,0,0-4.15-5.9A5.36,5.36,0,0,0,257.31,282.87Z"/><path class="cls-8" d="M258.78,283.09a5.3,5.3,0,0,0-1.47-.22,4.93,4.93,0,0,0-.59,1.67,5.42,5.42,0,0,0,.95,4,5.33,5.33,0,0,0,3.58,2.35,3.69,3.69,0,0,0,1.79-.13,9,9,0,0,0,.16-1.72,6.05,6.05,0,0,0-1.09-3.55,6,6,0,0,0-1.83-1.77"/><path class="cls-14" d="M262.19,290a25,25,0,0,1-2.3-2.92"/><path class="cls-14" d="M259,285.76c-.11-.19-.23-.38-.35-.57"/><path class="cls-8" d="M0,316c-1.26-28.52,6.22-59.9,26.85-86.11"/><path class="cls-18" d="M44.88,222a9.35,9.35,0,0,0-3-1.84,10.66,10.66,0,0,0-8.17.12,10.55,10.55,0,0,0-6.06,5.91,7.22,7.22,0,0,0-.49,3.51,16.56,16.56,0,0,0,3.24,1,11.93,11.93,0,0,0,7.31-.6,11.8,11.8,0,0,0,5.82-4.92A10.42,10.42,0,0,0,44.88,222Z"/><path class="cls-8" d="M43.84,224.69a10.26,10.26,0,0,0,1-2.73,9.35,9.35,0,0,0-3-1.84,10.66,10.66,0,0,0-8.17.12,10.55,10.55,0,0,0-6.06,5.91,7.22,7.22,0,0,0-.49,3.51,16.56,16.56,0,0,0,3.24,1,11.93,11.93,0,0,0,7.31-.6,11.79,11.79,0,0,0,4.81-3.49"/><path class="cls-14" d="M29.15,228.37a49,49,0,0,1,6.6-3.2"/><path class="cls-14" d="M37.57,224.45l2.26-.82"/><path class="cls-18" d="M25.23,209.2a4.23,4.23,0,0,0-.92.44,7.79,7.79,0,0,0-2,1.78A12.49,12.49,0,0,0,23.77,228,9.72,9.72,0,0,0,26,229.41a6.58,6.58,0,0,0,.95.37,8.69,8.69,0,0,0,.67-.76A14.07,14.07,0,0,0,29,226.89a14.23,14.23,0,0,0-1.38-15.13A19.63,19.63,0,0,0,26,209.9C25.5,209.45,25.23,209.2,25.23,209.2Z"/><path class="cls-8" d="M27.25,211.33a22.55,22.55,0,0,0-2-2.13,4.23,4.23,0,0,0-.92.44,7.79,7.79,0,0,0-2,1.78A12.49,12.49,0,0,0,23.77,228,9.72,9.72,0,0,0,26,229.41a6.58,6.58,0,0,0,.95.37,8.69,8.69,0,0,0,.67-.76A14.07,14.07,0,0,0,29,226.89,13.61,13.61,0,0,0,30.46,219a13.8,13.8,0,0,0-1.88-5.85"/><path class="cls-14" d="M26.35,227.33a73,73,0,0,1-1.18-7.78"/><path class="cls-14" d="M25,217.46c-.06-.86-.09-1.72-.12-2.57"/><path class="cls-13" d="M42.32,233.52A7.8,7.8,0,0,0,39.47,231a12.82,12.82,0,0,0-9.54-1A12.68,12.68,0,0,0,22,235.57a8.91,8.91,0,0,0-1.05,2.58,5.44,5.44,0,0,0-.14,1,17.87,17.87,0,0,0,3.43,1.21,16.55,16.55,0,0,0,8.34-.06,16.42,16.42,0,0,0,9.76-6.81Z"/><path class="cls-8" d="M40.38,235.89a15.82,15.82,0,0,0,1.94-2.37A7.8,7.8,0,0,0,39.47,231a12.82,12.82,0,0,0-9.54-1A12.68,12.68,0,0,0,22,235.57a8.91,8.91,0,0,0-1.05,2.58,5.44,5.44,0,0,0-.14,1,17.87,17.87,0,0,0,3.43,1.21,16.55,16.55,0,0,0,8.34-.06,16.63,16.63,0,0,0,6-2.82"/><path class="cls-14" d="M23.2,237.94a47.4,47.4,0,0,1,8-2.76"/><path class="cls-14" d="M33.45,234.65c.91-.19,1.82-.37,2.73-.52"/><path class="cls-13" d="M15.48,219.25A9.53,9.53,0,0,0,13.24,222,12.32,12.32,0,0,0,17,237.55,9.46,9.46,0,0,0,20.23,239a11.18,11.18,0,0,0,1.82-3,12.75,12.75,0,0,0,.54-8,12.78,12.78,0,0,0-4.11-6.86A10.88,10.88,0,0,0,15.48,219.25Z"/><path class="cls-8" d="M18,220.77a10.13,10.13,0,0,0-2.56-1.52A9.53,9.53,0,0,0,13.24,222,12.32,12.32,0,0,0,17,237.55,9.46,9.46,0,0,0,20.23,239a11.18,11.18,0,0,0,1.82-3,12.75,12.75,0,0,0,.54-8,13,13,0,0,0-2.83-5.59"/><path class="cls-14" d="M19.48,236.66c-.77-2.45-1.45-4.93-2.06-7.43"/><line class="cls-14" x1="16.96" y1="227.23" x2="16.44" y2="224.76"/><path class="cls-18" d="M39.76,243.58a10.38,10.38,0,0,0-3-2.5,14.89,14.89,0,0,0-9.93-1.72,14.31,14.31,0,0,0-9.13,4.8,9,9,0,0,0-1.87,3.46,13.5,13.5,0,0,0,3.47,1.61,19.42,19.42,0,0,0,9.09.65,18.15,18.15,0,0,0,8.68-3.5A11.18,11.18,0,0,0,39.76,243.58Z"/><path class="cls-8" d="M37.58,246a10.79,10.79,0,0,0,2.18-2.41,10.38,10.38,0,0,0-3-2.5,14.89,14.89,0,0,0-9.93-1.72,14.31,14.31,0,0,0-9.13,4.8,9,9,0,0,0-1.87,3.46,13.5,13.5,0,0,0,3.47,1.61,19.42,19.42,0,0,0,9.09.65,19.22,19.22,0,0,0,7-2.35"/><path class="cls-14" d="M18.63,246.66a58.9,58.9,0,0,1,9-2"/><path class="cls-14" d="M30.07,244.3c1-.12,2-.21,3-.3"/><path class="cls-18" d="M8.9,227.33a10.51,10.51,0,0,0-2.2,3,11.63,11.63,0,0,0-1.2,3.76,13.75,13.75,0,0,0,.38,5.47,12.83,12.83,0,0,0,5.24,7.6,9.9,9.9,0,0,0,3.39,1.49,11.13,11.13,0,0,0,1.61-3.31,15.08,15.08,0,0,0,0-8.52,16.59,16.59,0,0,0-1.83-4.38,14.18,14.18,0,0,0-2.37-3A10.1,10.1,0,0,0,8.9,227.33Z"/><path class="cls-8" d="M11.51,229a9.72,9.72,0,0,0-2.61-1.68,10.51,10.51,0,0,0-2.2,3,11.63,11.63,0,0,0-1.2,3.76,13.75,13.75,0,0,0,.38,5.47,12.83,12.83,0,0,0,5.24,7.6,9.9,9.9,0,0,0,3.39,1.49,11.13,11.13,0,0,0,1.61-3.31,15.08,15.08,0,0,0,0-8.52,16.15,16.15,0,0,0-2.91-5.94"/><path class="cls-14" d="M13.58,246.11c-.94-2.62-1.84-5.27-2.56-8"/><path class="cls-14" d="M10.48,236c-.21-.89-.39-1.78-.55-2.67"/><path class="cls-13" d="M35.71,254.12a9.89,9.89,0,0,0-2.92-2.91,13.68,13.68,0,0,0-4.33-2,16.9,16.9,0,0,0-6.83-.37A16.36,16.36,0,0,0,15,251.27a12.73,12.73,0,0,0-3.59,3.4,10.19,10.19,0,0,0-1.35,2.77,6,6,0,0,0-.23,1.1,9,9,0,0,0,1.05.34,21.26,21.26,0,0,0,2.82.58,30,30,0,0,0,4.11.33,35.41,35.41,0,0,0,5.29-.39,31.82,31.82,0,0,0,5.37-1.19,21.56,21.56,0,0,0,4-1.7A13.67,13.67,0,0,0,35.71,254.12Z"/><path class="cls-8" d="M33,256.18a16.1,16.1,0,0,0,2-1.42,7.13,7.13,0,0,0,.68-.64,9.89,9.89,0,0,0-2.92-2.91,13.68,13.68,0,0,0-4.33-2,16.9,16.9,0,0,0-6.83-.37A16.36,16.36,0,0,0,15,251.27a12.73,12.73,0,0,0-3.59,3.4,10.19,10.19,0,0,0-1.35,2.77,6,6,0,0,0-.23,1.1,9,9,0,0,0,1.05.34,21.26,21.26,0,0,0,2.82.58,30,30,0,0,0,4.11.33,35.41,35.41,0,0,0,5.29-.39,28.86,28.86,0,0,0,7.39-1.94"/><path class="cls-14" d="M12.7,257a34.13,34.13,0,0,1,4.73-1.8,36.23,36.23,0,0,1,4.94-1.07"/><path class="cls-14" d="M25.06,253.86c1.1-.09,2.21-.13,3.31-.13"/><path class="cls-13" d="M.87,238.27a8.68,8.68,0,0,0-1.93,3.18,12.71,12.71,0,0,0,.35,9.18,12.73,12.73,0,0,0,6.12,6.93,9,9,0,0,0,2.62.83,4.72,4.72,0,0,0,1,.05s.15-.34.36-1a18.21,18.21,0,0,0,.65-2.48,14.65,14.65,0,0,0-.91-8.31A14.57,14.57,0,0,0,4.05,240,12.88,12.88,0,0,0,.87,238.27Z"/><path class="cls-8" d="M3.58,239.67a12.5,12.5,0,0,0-2.71-1.4,8.68,8.68,0,0,0-1.93,3.18,12.71,12.71,0,0,0,.35,9.18,12.73,12.73,0,0,0,6.12,6.93,9,9,0,0,0,2.62.83,4.72,4.72,0,0,0,1,.05s.15-.34.36-1a18.21,18.21,0,0,0,.65-2.48,14.65,14.65,0,0,0-.91-8.31,15,15,0,0,0-3.67-5.51"/><path class="cls-14" d="M7.69,256.19a72.09,72.09,0,0,1-3.46-7.53"/><path class="cls-14" d="M3.43,246.59Q3,245.33,2.53,244"/><path class="cls-18" d="M32.88,262.27a7.1,7.1,0,0,0-.77-.79,11.05,11.05,0,0,0-2.48-1.66,16.58,16.58,0,0,0-10.74-1.2,16.47,16.47,0,0,0-9.57,5.21,9.16,9.16,0,0,0-2,3.58,15.38,15.38,0,0,0,3.7,1.46,21.59,21.59,0,0,0,9.89.19,21,21,0,0,0,9.16-3.95,16.18,16.18,0,0,0,2.13-2A8.73,8.73,0,0,0,32.88,262.27Z"/><path class="cls-8" d="M30.58,264.7a15,15,0,0,0,1.74-1.7,7.88,7.88,0,0,0,.56-.73,7.1,7.1,0,0,0-.77-.79,11.05,11.05,0,0,0-2.48-1.66,16.58,16.58,0,0,0-10.74-1.2,16.47,16.47,0,0,0-9.57,5.21,9.16,9.16,0,0,0-2,3.58,15.38,15.38,0,0,0,3.7,1.46,21.59,21.59,0,0,0,9.89.19,22.1,22.1,0,0,0,7.39-2.74"/><path class="cls-14" d="M10.29,266.31a77.39,77.39,0,0,1,9.61-2.47"/><path class="cls-14" d="M22.51,263.37c1.06-.18,2.13-.32,3.2-.47"/><path class="cls-18" d="M-8,249.41a9,9,0,0,0-.91,3.7,13.73,13.73,0,0,0,3.1,9.18,13.41,13.41,0,0,0,8.37,5.29,9,9,0,0,0,2.82,0,6.1,6.1,0,0,0,1-.26,17.77,17.77,0,0,0-.28-3.68,17.23,17.23,0,0,0-3.54-7.87,16.47,16.47,0,0,0-7-5.43A12.53,12.53,0,0,0-8,249.41Z"/><path class="cls-8" d="M-5,250.12a11.84,11.84,0,0,0-3-.71,9,9,0,0,0-.91,3.7,13.73,13.73,0,0,0,3.1,9.18,13.41,13.41,0,0,0,8.37,5.29,9,9,0,0,0,2.82,0,6.1,6.1,0,0,0,1-.26,17.77,17.77,0,0,0-.28-3.68,17.23,17.23,0,0,0-3.54-7.87,17.11,17.11,0,0,0-5.21-4.59"/><path class="cls-14" d="M4.24,265.53A53.26,53.26,0,0,1-1.63,259"/><path class="cls-13" d="M31.9,271.19a10.79,10.79,0,0,0-3.51-2.65,16.13,16.13,0,0,0-5-1.55,19.84,19.84,0,0,0-7.56.39,18.57,18.57,0,0,0-7,3.29,16.37,16.37,0,0,0-2.2,2.05,16,16,0,0,0-1.42,2A10.42,10.42,0,0,0,4,277.8,6.81,6.81,0,0,0,3.84,279a10,10,0,0,0,1.16.15c.72,0,1.81.12,3.07.06.65,0,1.35,0,2.09-.12s1.54-.14,2.39-.25a57.26,57.26,0,0,0,5.82-1.11,35,35,0,0,0,10.14-3.85A14.49,14.49,0,0,0,31.9,271.19Z"/><path class="cls-8" d="M29.12,273.47a13.26,13.26,0,0,0,2.78-2.28,10.79,10.79,0,0,0-3.51-2.65,16.13,16.13,0,0,0-5-1.55,19.84,19.84,0,0,0-7.56.39,18.57,18.57,0,0,0-7,3.29,16.37,16.37,0,0,0-2.2,2.05,16,16,0,0,0-1.42,2A10.42,10.42,0,0,0,4,277.8,6.81,6.81,0,0,0,3.84,279a10,10,0,0,0,1.16.15c.72,0,1.81.12,3.07.06.65,0,1.35,0,2.09-.12s1.54-.14,2.39-.25a57.26,57.26,0,0,0,5.82-1.11A40.17,40.17,0,0,0,26.44,275"/><path class="cls-14" d="M6.76,276.87a34.46,34.46,0,0,1,10.36-4.33"/><path class="cls-14" d="M20.07,271.94c1.21-.21,2.44-.36,3.66-.47"/><path class="cls-13" d="M-12.69,260.92a6.5,6.5,0,0,0-.41,1,10,10,0,0,0-.47,2.83,14.29,14.29,0,0,0,3.66,9.52,14.3,14.3,0,0,0,8.82,5.23,8.84,8.84,0,0,0,2.93-.05,3.79,3.79,0,0,0,1-.33l-.1-1.05a21.69,21.69,0,0,0-.44-2.64,18.6,18.6,0,0,0-4.11-8A18.55,18.55,0,0,0-9,262,15.1,15.1,0,0,0-12.69,260.92Z"/><path class="cls-8" d="M-9.61,261.73a19.68,19.68,0,0,0-2.21-.66,7.65,7.65,0,0,0-.87-.15,6.5,6.5,0,0,0-.41,1,10,10,0,0,0-.47,2.83,14.29,14.29,0,0,0,3.66,9.52,14.3,14.3,0,0,0,8.82,5.23,8.84,8.84,0,0,0,2.93-.05,3.79,3.79,0,0,0,1-.33l-.1-1.05a21.69,21.69,0,0,0-.44-2.64,18.6,18.6,0,0,0-4.11-8,19,19,0,0,0-5.48-4.59"/><path class="cls-14" d="M.53,277.38a58.91,58.91,0,0,1-6.38-6.55"/><path class="cls-18" d="M31.77,279.84a13.66,13.66,0,0,0-4.42-1.48,22.14,22.14,0,0,0-5.5-.26,27.2,27.2,0,0,0-7.75,1.76A24.93,24.93,0,0,0,7,283.93a18.33,18.33,0,0,0-3.82,4.3,13,13,0,0,0-1.45,3.21,6.36,6.36,0,0,0-.26,1.22,9.1,9.1,0,0,0,1.23.13,22.27,22.27,0,0,0,3.35-.08,34.94,34.94,0,0,0,5.08-.82,50.89,50.89,0,0,0,6.75-2.1,32.93,32.93,0,0,0,10.92-6.32A13.49,13.49,0,0,0,31.77,279.84Z"/><path class="cls-8" d="M29.41,282.91a12.26,12.26,0,0,0,2.36-3.07,13.66,13.66,0,0,0-4.42-1.48,22.14,22.14,0,0,0-5.5-.26,27.2,27.2,0,0,0-7.75,1.76A24.93,24.93,0,0,0,7,283.93a18.33,18.33,0,0,0-3.82,4.3,13,13,0,0,0-1.45,3.21,6.36,6.36,0,0,0-.26,1.22,9.1,9.1,0,0,0,1.23.13,22.27,22.27,0,0,0,3.35-.08,34.94,34.94,0,0,0,5.08-.82,50.89,50.89,0,0,0,6.75-2.1,36.9,36.9,0,0,0,8.88-4.64"/><path class="cls-14" d="M4.78,290.39a61.15,61.15,0,0,1,5.47-3.07c1.88-.91,3.81-1.74,5.76-2.49"/><path class="cls-14" d="M19.15,283.69c1.3-.44,2.6-.86,3.9-1.27"/><path class="cls-18" d="M-17.71,272.29a10.73,10.73,0,0,0-.56,4.14A17.3,17.3,0,0,0-13.88,287a18.35,18.35,0,0,0,5.38,4.41A14.42,14.42,0,0,0-3.81,293,10.93,10.93,0,0,0-.7,293a6.23,6.23,0,0,0,1.11-.25,8.38,8.38,0,0,0-.16-1.12,20.72,20.72,0,0,0-.82-2.85,28.54,28.54,0,0,0-5.21-8.63,25.07,25.07,0,0,0-8-6.56A12.77,12.77,0,0,0-17.71,272.29Z"/><path class="cls-8" d="M-14.4,273.3a11.72,11.72,0,0,0-3.31-1,10.73,10.73,0,0,0-.56,4.14A17.3,17.3,0,0,0-13.88,287a18.35,18.35,0,0,0,5.38,4.41A14.42,14.42,0,0,0-3.81,293,10.93,10.93,0,0,0-.7,293a6.23,6.23,0,0,0,1.11-.25,8.38,8.38,0,0,0-.16-1.12,20.72,20.72,0,0,0-.82-2.85,28.54,28.54,0,0,0-5.21-8.63,27.48,27.48,0,0,0-6-5.46"/><path class="cls-13" d="M25.75,293.2a9.61,9.61,0,0,0-3.94-1.63,18.62,18.62,0,0,0-11.41,1.55,17.85,17.85,0,0,0-8.81,7.68,10.49,10.49,0,0,0-1.07,3,5.49,5.49,0,0,0-.09,1.15,21.11,21.11,0,0,0,4.08.3,25.57,25.57,0,0,0,10.22-2.42,24.16,24.16,0,0,0,8.7-6.19A15.65,15.65,0,0,0,25.75,293.2Z"/><path class="cls-8" d="M23.87,296.11a14.67,14.67,0,0,0,1.88-2.91,9.61,9.61,0,0,0-3.94-1.63,18.62,18.62,0,0,0-11.41,1.55,17.85,17.85,0,0,0-8.81,7.68,10.49,10.49,0,0,0-1.07,3,5.49,5.49,0,0,0-.09,1.15,21.11,21.11,0,0,0,4.08.3,25.57,25.57,0,0,0,10.22-2.42,25.45,25.45,0,0,0,7.13-4.57"/><path class="cls-14" d="M3.17,302.94a69,69,0,0,1,9.39-5"/><path class="cls-14" d="M15.17,296.85c1.07-.45,2.15-.87,3.24-1.28"/><path class="cls-8" d="M-10.95,291.11a16.17,16.17,0,0,0-2.88-.43,7.44,7.44,0,0,0-1.07,3.43,10.68,10.68,0,0,0,3.05,8.18,10.74,10.74,0,0,0,7.94,3.65,7.19,7.19,0,0,0,3.49-.83,17.57,17.57,0,0,0-.31-3.43,13,13,0,0,0-3.33-6.63,12.89,12.89,0,0,0-4.76-3.28"/><path class="cls-8" d="M317.79,279.51c-11-29.93-32.23-59-64.79-77.17"/><path class="cls-13" d="M231,201.91a10.45,10.45,0,0,1,2.26-3.17,11.94,11.94,0,0,1,8.48-3.39,11.73,11.73,0,0,1,8.78,3.47,8,8,0,0,1,2,3.41,19.17,19.17,0,0,1-2.9,2.46,13.31,13.31,0,0,1-7.79,2.53,13.14,13.14,0,0,1-8.12-2.56A11.74,11.74,0,0,1,231,201.91Z"/><path class="cls-8" d="M233.24,204.28a11.36,11.36,0,0,1-2.25-2.37,10.45,10.45,0,0,1,2.26-3.17,11.94,11.94,0,0,1,8.48-3.39,11.73,11.73,0,0,1,8.78,3.47,8,8,0,0,1,2,3.41,19.17,19.17,0,0,1-2.9,2.46,13.79,13.79,0,0,1-14.26,1"/><path class="cls-17" d="M250,201.74a55.94,55.94,0,0,0-8.18-.46"/><path class="cls-17" d="M239.6,201.34c-.89,0-1.79.07-2.68.12"/><path class="cls-13" d="M245.74,180.29a4.69,4.69,0,0,1,1.14.06,8.86,8.86,0,0,1,2.85,1,14,14,0,0,1,5.62,17.7,10.5,10.5,0,0,1-1.65,2.43,6.69,6.69,0,0,1-.81.78,8.78,8.78,0,0,1-1-.49,15.38,15.38,0,0,1-2.35-1.6A15.91,15.91,0,0,1,244.41,184a23.84,23.84,0,0,1,.89-2.63C245.57,180.66,245.74,180.29,245.74,180.29Z"/><path class="cls-8" d="M244.58,183.36a23.67,23.67,0,0,1,1.16-3.07,4.69,4.69,0,0,1,1.14.06,8.86,8.86,0,0,1,2.85,1,14,14,0,0,1,5.62,17.7,10.5,10.5,0,0,1-1.65,2.43,6.69,6.69,0,0,1-.81.78,8.78,8.78,0,0,1-1-.49,15.38,15.38,0,0,1-2.35-1.6,16,16,0,0,1-5.5-14.28"/><path class="cls-17" d="M252.41,199.46a81.2,81.2,0,0,0-2.14-8.53"/><path class="cls-17" d="M249.54,188.7q-.47-1.35-1-2.7"/><path class="cls-16" d="M238.62,212.72a8.68,8.68,0,0,1,1.85-3.81,14.35,14.35,0,0,1,9.41-5.13,14.18,14.18,0,0,1,10.58,2.29,9.71,9.71,0,0,1,2.19,2.2,6,6,0,0,1,.59,1,19.17,19.17,0,0,1-3,2.72,18.33,18.33,0,0,1-8.63,3.53,18,18,0,0,1-9.37-.95A18.62,18.62,0,0,1,238.62,212.72Z"/><path class="cls-8" d="M241.64,214.34a17.62,17.62,0,0,1-3-1.62,8.68,8.68,0,0,1,1.85-3.81,14.35,14.35,0,0,1,9.41-5.13,14.18,14.18,0,0,1,10.58,2.29,9.71,9.71,0,0,1,2.19,2.2,6,6,0,0,1,.59,1,19.17,19.17,0,0,1-3,2.72,19.53,19.53,0,0,1-16,3.21"/><path class="cls-17" d="M260.23,209a52.77,52.77,0,0,0-9.48.63"/><path class="cls-17" d="M248.25,210.07c-1,.2-2,.4-3.05.64"/><path class="cls-16" d="M260.12,186.45a10.58,10.58,0,0,1,3.51,1.89A13.78,13.78,0,0,1,266.48,206a10.32,10.32,0,0,1-2.73,2.9,12.16,12.16,0,0,1-3.18-2.34,14.13,14.13,0,0,1-4-8,14.31,14.31,0,0,1,1.27-8.83A12.16,12.16,0,0,1,260.12,186.45Z"/><path class="cls-8" d="M258.14,189.12a11.49,11.49,0,0,1,2-2.67,10.58,10.58,0,0,1,3.51,1.89A13.78,13.78,0,0,1,266.48,206a10.32,10.32,0,0,1-2.73,2.9,12.16,12.16,0,0,1-3.18-2.34,14.13,14.13,0,0,1-4-8,14.61,14.61,0,0,1,.5-7"/><path class="cls-17" d="M263.51,206.12q-.4-4.29-1.08-8.55"/><line class="cls-17" x1="262.04" y1="195.3" x2="261.51" y2="192.54"/><path class="cls-13" d="M245.6,222a11.49,11.49,0,0,1,2-3.86,16.66,16.66,0,0,1,9.5-6,15.94,15.94,0,0,1,11.48,1,10.18,10.18,0,0,1,3.42,2.75A15.28,15.28,0,0,1,269.1,219a21.76,21.76,0,0,1-9.1,4.59,20.39,20.39,0,0,1-10.45.14A12.57,12.57,0,0,1,245.6,222Z"/><path class="cls-8" d="M248.87,223.53A12.07,12.07,0,0,1,245.6,222a11.49,11.49,0,0,1,2-3.86,16.66,16.66,0,0,1,9.5-6,15.94,15.94,0,0,1,11.48,1,10.18,10.18,0,0,1,3.42,2.75A15.28,15.28,0,0,1,269.1,219a21.76,21.76,0,0,1-9.1,4.59,21.45,21.45,0,0,1-8.2.59"/><path class="cls-17" d="M268.7,216.06a67.28,67.28,0,0,0-10.16,1.77"/><path class="cls-17" d="M255.89,218.56c-1.08.31-2.16.64-3.23,1"/><path class="cls-13" d="M270.39,191.94a11.48,11.48,0,0,1,3.54,2.1,12.93,12.93,0,0,1,2.86,3.35,15.15,15.15,0,0,1,2,5.81,14.27,14.27,0,0,1-2.12,10.09,10.72,10.72,0,0,1-2.85,3,12.16,12.16,0,0,1-3.08-2.71A16.91,16.91,0,0,1,267,204.8a18.75,18.75,0,0,1,0-5.3,15.84,15.84,0,0,1,1.16-4.1A11.4,11.4,0,0,1,270.39,191.94Z"/><path class="cls-8" d="M268.43,194.79a10.72,10.72,0,0,1,2-2.85,11.48,11.48,0,0,1,3.54,2.1,12.93,12.93,0,0,1,2.86,3.35,15.15,15.15,0,0,1,2,5.81,14.27,14.27,0,0,1-2.12,10.09,10.72,10.72,0,0,1-2.85,3,12.16,12.16,0,0,1-3.08-2.71A16.91,16.91,0,0,1,267,204.8a18.25,18.25,0,0,1,.44-7.37"/><path class="cls-17" d="M273.66,213.31c-.15-3.11-.36-6.22-.79-9.31"/><path class="cls-17" d="M272.49,201.54c-.17-1-.37-2-.58-3"/><path class="cls-16" d="M254.32,231.11a10.9,10.9,0,0,1,1.75-4.26,15.47,15.47,0,0,1,3.61-3.89,19,19,0,0,1,6.89-3.33,18.24,18.24,0,0,1,7.84-.38,14.16,14.16,0,0,1,5.16,1.95,11,11,0,0,1,2.58,2.28,6.49,6.49,0,0,1,.72,1,9.7,9.7,0,0,1-.94.81,24.8,24.8,0,0,1-2.65,1.81,33.62,33.62,0,0,1-4.1,2.11,39.58,39.58,0,0,1-5.62,1.88,35.61,35.61,0,0,1-6,1.09,24.44,24.44,0,0,1-4.81-.05A15,15,0,0,1,254.32,231.11Z"/><path class="cls-8" d="M258,232.07a17.75,17.75,0,0,1-2.69-.6,8.91,8.91,0,0,1-1-.36,10.9,10.9,0,0,1,1.75-4.26,15.47,15.47,0,0,1,3.61-3.89,19,19,0,0,1,6.89-3.33,18.24,18.24,0,0,1,7.84-.38,14.16,14.16,0,0,1,5.16,1.95,11,11,0,0,1,2.58,2.28,6.49,6.49,0,0,1,.72,1,9.7,9.7,0,0,1-.94.81,24.8,24.8,0,0,1-2.65,1.81,33.62,33.62,0,0,1-4.1,2.11,39.58,39.58,0,0,1-5.62,1.88,31.68,31.68,0,0,1-8.45,1.18"/><path class="cls-17" d="M279.28,224.16a41.13,41.13,0,0,0-5.66.18,43.89,43.89,0,0,0-5.56,1"/><path class="cls-17" d="M265.17,226.24c-1.17.39-2.33.83-3.46,1.3"/><path class="cls-16" d="M283.39,199.75a9.71,9.71,0,0,1,3.35,2.44,15.33,15.33,0,0,1,.28,19.4,9.84,9.84,0,0,1-2.34,2,5.26,5.26,0,0,1-1.05.5s-.29-.29-.77-.83a19.38,19.38,0,0,1-1.74-2.28,17.47,17.47,0,0,1-.27-18.06A14.37,14.37,0,0,1,283.39,199.75Z"/><path class="cls-8" d="M281.19,202.36a14.37,14.37,0,0,1,2.2-2.61,9.71,9.71,0,0,1,3.35,2.44,15.33,15.33,0,0,1,.28,19.4,9.84,9.84,0,0,1-2.34,2,5.26,5.26,0,0,1-1.05.5s-.29-.29-.77-.83a19.38,19.38,0,0,1-1.74-2.28,16.36,16.36,0,0,1-2.65-9,16.65,16.65,0,0,1,1.41-7.26"/><path class="cls-17" d="M284.08,221.15a81.54,81.54,0,0,0,.32-9.25"/><path class="cls-17" d="M284.33,209.43c0-1-.1-2-.17-3"/><path class="cls-13" d="M260.74,238.28a7.83,7.83,0,0,1,.46-1.14,12.69,12.69,0,0,1,1.83-2.78,20.18,20.18,0,0,1,22.66-4.62,10,10,0,0,1,3.6,2.82,17,17,0,0,1-3.17,3.1A24.06,24.06,0,0,1,276,240.12a23.6,23.6,0,0,1-11.14-.11,17.92,17.92,0,0,1-3-1.12A7.49,7.49,0,0,1,260.74,238.28Z"/><path class="cls-8" d="M264.16,239.8a16.61,16.61,0,0,1-2.53-1,7.42,7.42,0,0,1-.89-.51,7.83,7.83,0,0,1,.46-1.14,12.69,12.69,0,0,1,1.83-2.78,20.18,20.18,0,0,1,22.66-4.62,10,10,0,0,1,3.6,2.82,17,17,0,0,1-3.17,3.1A24.06,24.06,0,0,1,276,240.12a24.74,24.74,0,0,1-8.79.37"/><path class="cls-17" d="M285.76,232.71a88.23,88.23,0,0,0-11,1.59"/><path class="cls-17" d="M271.91,235c-1.18.27-2.34.58-3.51.9"/><path class="cls-13" d="M297.35,207.4a10.11,10.11,0,0,1,2.53,3.42,15.29,15.29,0,0,1,.76,10.8,14.91,14.91,0,0,1-6.34,9,10,10,0,0,1-2.91,1.23,6.93,6.93,0,0,1-1.17.17,20.06,20.06,0,0,1-1.3-3.91,19.26,19.26,0,0,1,.25-9.64,18.48,18.48,0,0,1,4.85-8.61A13.88,13.88,0,0,1,297.35,207.4Z"/><path class="cls-8" d="M294.51,209.45a13.47,13.47,0,0,1,2.84-2,10.11,10.11,0,0,1,2.53,3.42,15.29,15.29,0,0,1,.76,10.8,14.91,14.91,0,0,1-6.34,9,10,10,0,0,1-2.91,1.23,6.93,6.93,0,0,1-1.17.17,20.06,20.06,0,0,1-1.3-3.91,20.53,20.53,0,0,1,3.65-16.62"/><path class="cls-17" d="M291.66,229.3a58.76,58.76,0,0,0,3.25-9.23"/><path class="cls-17" d="M295.54,217.54c.26-1,.48-2.09.69-3.13"/><path class="cls-16" d="M265.59,247.05a12,12,0,0,1,2.48-4.23,18,18,0,0,1,4.44-3.74,22.17,22.17,0,0,1,8-2.87,20.81,20.81,0,0,1,8.69.36,17.16,17.16,0,0,1,3.15,1.17,17.84,17.84,0,0,1,2.33,1.44,11.75,11.75,0,0,1,2.57,2.66,7.41,7.41,0,0,1,.66,1.14,9.81,9.81,0,0,1-1.13.66A28.44,28.44,0,0,1,293.6,245c-.67.27-1.4.55-2.2.79s-1.65.51-2.57.77a66.09,66.09,0,0,1-6.48,1.36,39.06,39.06,0,0,1-12.11.41A16.1,16.1,0,0,1,265.59,247.05Z"/><path class="cls-8" d="M269.44,248.21a14.76,14.76,0,0,1-3.85-1.16,12,12,0,0,1,2.48-4.23,18,18,0,0,1,4.44-3.74,22.17,22.17,0,0,1,8-2.87,20.81,20.81,0,0,1,8.69.36,17.16,17.16,0,0,1,3.15,1.17,17.84,17.84,0,0,1,2.33,1.44,11.75,11.75,0,0,1,2.57,2.66,7.41,7.41,0,0,1,.66,1.14,9.81,9.81,0,0,1-1.13.66A28.44,28.44,0,0,1,293.6,245c-.67.27-1.4.55-2.2.79s-1.65.51-2.57.77a66.09,66.09,0,0,1-6.48,1.36,44.75,44.75,0,0,1-9.5.67"/><path class="cls-17" d="M294,242.07a38.3,38.3,0,0,0-12.55,0"/><path class="cls-17" d="M278.11,242.73c-1.34.31-2.66.68-4,1.09"/><path class="cls-16" d="M307.12,217.25a6,6,0,0,1,.85.84,11.09,11.09,0,0,1,1.71,2.72,17.4,17.4,0,0,1-6.51,20.57,9.76,9.76,0,0,1-3,1.21,4.15,4.15,0,0,1-1.2.11l-.35-1.12a27.21,27.21,0,0,1-.69-2.91,22.53,22.53,0,0,1,5.92-18.78A16.32,16.32,0,0,1,307.12,217.25Z"/><path class="cls-8" d="M304.3,219.42a18.93,18.93,0,0,1,2-1.64,8.66,8.66,0,0,1,.83-.53,6,6,0,0,1,.85.84,11.09,11.09,0,0,1,1.71,2.72,17.4,17.4,0,0,1-6.51,20.57,9.76,9.76,0,0,1-3,1.21,4.15,4.15,0,0,1-1.2.11l-.35-1.12a27.21,27.21,0,0,1-.69-2.91,20.71,20.71,0,0,1,.79-10,21.25,21.25,0,0,1,3.67-7.09"/><path class="cls-13" d="M269.46,255.92a15.13,15.13,0,0,1,3.92-3.43,23.93,23.93,0,0,1,5.56-2.64,30,30,0,0,1,8.74-1.53,27.6,27.6,0,0,1,9,1.15,20.29,20.29,0,0,1,5.79,2.78,14.64,14.64,0,0,1,2.88,2.68,8,8,0,0,1,.8,1.15,11,11,0,0,1-1.21.66,26.08,26.08,0,0,1-3.5,1.36,39.17,39.17,0,0,1-5.58,1.35,58.82,58.82,0,0,1-7.86.74,36.77,36.77,0,0,1-14-1.8A15.12,15.12,0,0,1,269.46,255.92Z"/><path class="cls-8" d="M273.22,258.06a14,14,0,0,1-3.76-2.14,15.13,15.13,0,0,1,3.92-3.43,23.93,23.93,0,0,1,5.56-2.64,30,30,0,0,1,8.74-1.53,27.6,27.6,0,0,1,9,1.15,20.29,20.29,0,0,1,5.79,2.78,14.64,14.64,0,0,1,2.88,2.68,8,8,0,0,1,.8,1.15,11,11,0,0,1-1.21.66,26.08,26.08,0,0,1-3.5,1.36,39.17,39.17,0,0,1-5.58,1.35,58.82,58.82,0,0,1-7.86.74,41.39,41.39,0,0,1-11.16-.95"/><path class="cls-17" d="M301.82,255.15a67.69,67.69,0,0,0-7-.8c-2.33-.13-4.67-.15-7-.09"/><path class="cls-17" d="M284.12,254.45c-1.52.09-3,.22-4.56.37"/><path class="cls-16" d="M281.43,267.08a10.79,10.79,0,0,1,3.35-3.37,20.81,20.81,0,0,1,12.43-3.33c5.91.14,10,2.17,12.39,4.12a11.29,11.29,0,0,1,2.39,2.63,5.72,5.72,0,0,1,.59,1.14,22.8,22.8,0,0,1-4.08,2.07,28.49,28.49,0,0,1-11.57,1.91,27,27,0,0,1-11.63-2.62A16.92,16.92,0,0,1,281.43,267.08Z"/><path class="cls-8" d="M284.62,269.27a16.28,16.28,0,0,1-3.19-2.19,10.79,10.79,0,0,1,3.35-3.37,20.81,20.81,0,0,1,12.43-3.33c5.91.14,10,2.17,12.39,4.12a11.29,11.29,0,0,1,2.39,2.63,5.72,5.72,0,0,1,.59,1.14,22.8,22.8,0,0,1-4.08,2.07,31.61,31.61,0,0,1-20.89.28"/><path class="cls-17" d="M308.9,267.39a79.42,79.42,0,0,0-11.83-1.07"/><path class="cls-17" d="M293.9,266.29c-1.3,0-2.59,0-3.88.07"/><line class="cls-26" x1="126.75" y1="263.56" x2="134.82" y2="263.56"/><line class="cls-26" x1="100.38" y1="267.03" x2="120.68" y2="267.03"/><line class="cls-26" x1="121.83" y1="271.08" x2="126.85" y2="271.08"/><line class="cls-26" x1="122.84" y1="267.03" x2="131.12" y2="267.03"/><line class="cls-26" x1="129.74" y1="271.08" x2="139.74" y2="271.08"/><line class="cls-26" x1="99.86" y1="263.56" x2="92.19" y2="263.56"/><line class="cls-26" x1="95.81" y1="260.47" x2="89.48" y2="260.47"/><path class="cls-29" d="M106,253.58H103A4.07,4.07,0,1,0,95.64,256a5,5,0,0,0,4.22,7.61h1.72a7.2,7.2,0,0,0,7.18-7.18A2.81,2.81,0,0,0,106,253.58Z"/><rect class="cls-30" x="94.19" y="253.63" width="4.67" height="2.06" rx="1.03"/><circle class="cls-31" cx="99.36" cy="252.31" r="0.5"/><circle class="cls-31" cx="96.88" cy="252.31" r="0.5"/><path class="cls-32" d="M95.22,255.69a1,1,0,0,1-1-1h0a1,1,0,0,1,1-1"/><path class="cls-33" d="M95.22,253.63h2.62a1,1,0,0,1,1,1h0a1,1,0,0,1-1,1H95.22"/><path class="cls-29" d="M117.93,257.75h-1.72a2.37,2.37,0,1,0-4.29,1.38,2.83,2.83,0,0,0-.45,1.53,2.92,2.92,0,0,0,2.91,2.9h1a4.19,4.19,0,0,0,4.18-4.18A1.63,1.63,0,0,0,117.93,257.75Z"/><path class="cls-29" d="M129.3,257.75h-1.71a2.37,2.37,0,1,0-4.3,1.38,2.83,2.83,0,0,0-.44,1.53,2.91,2.91,0,0,0,2.9,2.9h1a4.19,4.19,0,0,0,4.18-4.18A1.63,1.63,0,0,0,129.3,257.75Z"/><path class="cls-34" d="M255.84,47.62h7.25a5.41,5.41,0,0,0,5.4-5.39h0a5.42,5.42,0,0,0-5.4-5.4H254.3a11.3,11.3,0,0,1,0-22.6h73a11.3,11.3,0,1,1,0,22.6h-9.72V50.55h-36a4,4,0,0,0-4,4h0a4,4,0,0,0,4,4h36v2.93H304.52A12.65,12.65,0,0,1,292,72.84H208.71V47.62Z"/><line class="cls-8" x1="213.61" y1="72.84" x2="208.71" y2="72.84"/><line class="cls-8" x1="230.63" y1="72.84" x2="217.61" y2="72.84"/><path class="cls-8" d="M284.86,58.5h32.75v2.93H304.52A12.65,12.65,0,0,1,292,72.84H234.63"/><path class="cls-8" d="M260.77,14.23h66.56a11.3,11.3,0,1,1,0,22.6h-9.72V50.55h-36a4,4,0,0,0-4,4h0a4,4,0,0,0,4,4"/><path class="cls-8" d="M216.67,47.62h46.42a5.41,5.41,0,0,0,5.4-5.39h0a5.42,5.42,0,0,0-5.4-5.4H254.3a11.3,11.3,0,0,1,0-22.6"/><line class="cls-8" x1="208.71" y1="47.62" x2="212.67" y2="47.62"/><rect class="cls-34" x="144.29" y="59.55" width="29.93" height="9.67" rx="4.84"/><path class="cls-8" d="M166.69,59.55h2.69a4.84,4.84,0,0,1,4.83,4.83h0a4.85,4.85,0,0,1-4.83,4.84H149.12a4.85,4.85,0,0,1-4.83-4.84h0a4.84,4.84,0,0,1,4.83-4.83h13.81"/><rect class="cls-34" x="101.43" y="103.91" width="14.66" height="6.7" rx="3.35"/><path class="cls-8" d="M112,103.91h.78a3.36,3.36,0,0,1,3.35,3.35h0a3.36,3.36,0,0,1-3.35,3.35h-8a3.36,3.36,0,0,1-3.35-3.35h0a3.36,3.36,0,0,1,3.35-3.35h4.57"/><path class="cls-34" d="M111,165.65H35.07a3.81,3.81,0,0,0-3.78,2.94,3.74,3.74,0,0,0,3.65,4.52h10.3A5.57,5.57,0,0,1,50.86,178a5.41,5.41,0,0,1-5.36,5.94H-19.14a5.57,5.57,0,0,1-5.62-4.84,5.41,5.41,0,0,1,5.36-5.94V162.66H8.87a6.37,6.37,0,0,0,6.37-6.37h0a9.38,9.38,0,0,1,9.35-9.35H110.7"/><line class="cls-8" x1="106" y1="146.94" x2="110.7" y2="146.94"/><line class="cls-8" x1="86.19" y1="146.94" x2="101.82" y2="146.94"/><path class="cls-8" d="M29.12,183.89H-19.14a5.57,5.57,0,0,1-5.62-4.84,5.41,5.41,0,0,1,5.36-5.94V162.66H8.87a6.37,6.37,0,0,0,6.37-6.37h0a9.38,9.38,0,0,1,9.35-9.35H82.37"/><line class="cls-8" x1="40.3" y1="183.89" x2="32.99" y2="183.89"/><path class="cls-8" d="M86.19,165.65H35.07a3.81,3.81,0,0,0-3.78,2.94,3.74,3.74,0,0,0,3.65,4.52h10.3A5.57,5.57,0,0,1,50.86,178a5.41,5.41,0,0,1-5.36,5.94"/><line class="cls-8" x1="96.79" y1="165.65" x2="90.84" y2="165.65"/><path class="cls-20" d="M206.22,282.34a42.28,42.28,0,0,0-7.89-.71c-9.06,0-16.4,2.59-16.4,5.78a2.82,2.82,0,0,0,1,2c.88,0,9.7-.75,9.7-.75L189,292.17a39.87,39.87,0,0,0,9.32,1c9.06,0,16.4-2.59,16.4-5.79,0-1.64-1.94-3.12-5-4.17"/></g></svg>