<svg xmlns="http://www.w3.org/2000/svg" xmlns:xlink="http://www.w3.org/1999/xlink" viewBox="0 0 300 300"><defs><style>.cls-1,.cls-17,.cls-20,.cls-24,.cls-29,.cls-37,.cls-39,.cls-40,.cls-45,.cls-46,.cls-47,.cls-48,.cls-49,.cls-50,.cls-54,.cls-57,.cls-60,.cls-62,.cls-8{fill:none;}.cls-2{isolation:isolate;}.cls-3{clip-path:url(#clip-path);}.cls-4{fill:#ccd5f0;}.cls-5{fill:#b8c0e2;}.cls-6{fill:#d9dcea;}.cls-6,.cls-7{stroke:#7b78a5;}.cls-11,.cls-17,.cls-20,.cls-21,.cls-22,.cls-24,.cls-25,.cls-26,.cls-27,.cls-28,.cls-29,.cls-30,.cls-32,.cls-33,.cls-34,.cls-35,.cls-37,.cls-39,.cls-40,.cls-41,.cls-42,.cls-43,.cls-44,.cls-45,.cls-46,.cls-47,.cls-48,.cls-49,.cls-50,.cls-52,.cls-54,.cls-57,.cls-59,.cls-6,.cls-60,.cls-62,.cls-7,.cls-8{stroke-linecap:round;}.cls-11,.cls-17,.cls-20,.cls-21,.cls-22,.cls-24,.cls-25,.cls-26,.cls-27,.cls-28,.cls-29,.cls-30,.cls-32,.cls-33,.cls-34,.cls-35,.cls-37,.cls-39,.cls-40,.cls-41,.cls-42,.cls-43,.cls-44,.cls-45,.cls-46,.cls-47,.cls-48,.cls-49,.cls-50,.cls-52,.cls-54,.cls-57,.cls-59,.cls-6,.cls-62,.cls-7,.cls-8{stroke-linejoin:round;}.cls-7{fill:#eff1f7;}.cls-25,.cls-26,.cls-27,.cls-28,.cls-30,.cls-32,.cls-33,.cls-34,.cls-35,.cls-41,.cls-43,.cls-59,.cls-8{stroke:#47364a;}.cls-9{fill:#fae3c5;}.cls-63,.cls-9{opacity:0.5;}.cls-10,.cls-11,.cls-41{fill:#fff;}.cls-11,.cls-20{stroke:#2d2726;}.cls-12{fill:#cebcc2;}.cls-13{fill:#f2eae8;}.cls-14{fill:#f1df8f;}.cls-15{fill:#b9a5ab;}.cls-16{fill:#e1d5cf;}.cls-17,.cls-22{stroke:#8c7685;}.cls-18{fill:#8e8e99;}.cls-19{fill:#5a505f;}.cls-21,.cls-36,.cls-42{fill:#d4936a;}.cls-21{stroke:#d4936a;}.cls-22{fill:#8c7685;}.cls-23{fill:#c4d0dd;}.cls-24,.cls-44{stroke:#a18889;}.cls-25{fill:#96c598;}.cls-26{fill:#cbe6bc;}.cls-27{fill:#f9ad7f;}.cls-28{fill:#ffefa1;}.cls-29{stroke:#ea9776;}.cls-30{fill:#958278;}.cls-31,.cls-35{fill:#47364a;}.cls-32{fill:#a8a29b;}.cls-33{fill:#f5f6ee;}.cls-34,.cls-56{fill:#897876;}.cls-37,.cls-42{stroke:#b54d50;}.cls-38,.cls-63{fill:#93808a;}.cls-39,.cls-48{stroke:#655567;}.cls-40,.cls-46,.cls-47{stroke:#bcacb1;}.cls-43,.cls-53{fill:#967c80;}.cls-44{fill:#a18889;}.cls-45{stroke:#9baed9;}.cls-46{stroke-dasharray:3.13 6.27;}.cls-47{stroke-dasharray:2.72 5.45;}.cls-48{stroke-dasharray:3 6;}.cls-49{stroke:#c8cfdd;}.cls-50{stroke:#9599b3;}.cls-51,.cls-52{fill:#ac9994;}.cls-52,.cls-54{stroke:#5e4955;}.cls-55{fill:#90ad9c;}.cls-57{stroke:#695559;}.cls-58{fill:#c3ddb8;}.cls-59{fill:#a7bc91;}.cls-60{stroke:#95c29e;stroke-miterlimit:10;}.cls-61{fill:#e6dac2;}.cls-62{stroke:#c3a49a;}.cls-63{mix-blend-mode:overlay;}</style><clipPath id="clip-path"><rect class="cls-1" width="300" height="300"/></clipPath></defs><g class="cls-2"><g id="Layer_1" data-name="Layer 1"><g class="cls-3"><rect class="cls-4" x="-11.92" y="-15.51" width="333.39" height="327.78"/><path class="cls-5" d="M89,105.52a11.19,11.19,0,0,0,.47-3.19,11,11,0,0,0-11-11,11.55,11.55,0,0,0-2.44.27,8.09,8.09,0,0,0-15,4,3.27,3.27,0,0,0-5.89,2,3.22,3.22,0,0,0,.14.93H55.2a9.09,9.09,0,0,0-8.53,12.23H94.53A5.57,5.57,0,0,0,89,105.52Z"/><path class="cls-5" d="M275.19,76.94a5.32,5.32,0,0,0-5.09-5.31A11.07,11.07,0,0,0,256.67,57a11.08,11.08,0,0,0-21.57,3.57s0,.09,0,.14h0a15.71,15.71,0,0,0-15.51,18.21h55.23A5.4,5.4,0,0,0,275.19,76.94Z"/><path class="cls-5" d="M142.08,60.7a6.16,6.16,0,0,0-6.17-6.16,6.28,6.28,0,0,0-.75,0,4.59,4.59,0,0,0-9-.86,4.64,4.64,0,0,0-7.09,3.94,4.57,4.57,0,0,0,.34,1.74l-.18,0a1.08,1.08,0,0,0-1.08,1.08,1.29,1.29,0,0,0,0,.35A3.69,3.69,0,0,0,115.68,63h25.94A6,6,0,0,0,142.08,60.7Z"/><path class="cls-6" d="M59.15,103.34c-44,0-70.77,106.44-79.87,131.71H139C129.92,209.78,103.14,103.34,59.15,103.34Z"/><path class="cls-7" d="M293.4,75.65c-51.3,0-82.53,128.81-93.15,159.4H386.54C375.93,204.46,344.69,75.65,293.4,75.65Z"/><path class="cls-7" d="M-15.24,31.56c-47.94,0-77.12,164.44-87,203.49H71.8C61.87,196,32.69,31.56-15.24,31.56Z"/><circle class="cls-8" cx="255.14" cy="30.18" r="1.47"/><circle class="cls-8" cx="285.22" cy="54.62" r="4.17"/><path class="cls-9" d="M354.81-15.81H299.15c-20.07,26-69.56,15.2-58.31,47.74,12.49,34.8-19.89,31.81-34.56,52.25l23.19.2c8.69-19.21,36.36-21.23,53.21-15.79,14.4,4.64,19.42-3.17,16.47-12.94-10.68-35.36,53.72-17.88,70.62-13.9ZM281,25.57c-16.9-.41-19-9.31-6.73-14.33,28-11.49,32.49-27.11,48.44-14.55C338.41,9.07,312.73,26.32,281,25.57Z"/><path class="cls-8" d="M243.13,13.57c-4,4-5.3,9.65-2.29,18.36,11.69,32.56-15.91,32-31.52,48.58M369.77,41.75l-15-57.56H299.15C285.94,1.28,260,2.46,247,10.53m21.25,55.52a56.84,56.84,0,0,1,14.42,2.54c14.4,4.64,19.42-3.17,16.47-12.94a21.33,21.33,0,0,1-1-9.85m-42.5,20.92a58.3,58.3,0,0,1,9.22-.75m-17.62,2.92a46.17,46.17,0,0,1,5.26-1.55m-23.08,17c3-6.71,8.38-11.32,14.77-14.25m30-58.89c28-11.49,32.49-27.11,48.44-14.55,15.71,12.38-10,29.63-41.71,28.88-14.3-.34-18-6.77-11.37-11.78"/><path class="cls-10" d="M327.31,311.3c-8.69,7.83-10.83,4.44-22.53,4.44s-11.7-3.07-23.4-3.07-11.71-.19-23.41-.19-11.7.25-23.4.25-11.7-1.77-23.4-1.77-11.7.41-23.41.41-11.7,3.63-23.4,3.63-11.7-4.68-23.4-4.68-11.7-1.21-23.41-1.21-11.7.34-23.4.34-11.71,2.71-23.41,2.71-11.7-1.42-23.41-1.42-11.7,3.4-23.4,3.4S12.22,315.61.51,315.61-16.26,322.4-25,314.56c-7.83-7.05-.48-12.83-.48-23.37s2.91-10.54,2.91-21.08-1.06-10.55-1.06-21.09-9.45-16.59-1.62-23.65c8.7-7.83,14,1.8,25.72,1.8s11.7,2.24,23.4,2.24,11.7-.92,23.4-.92,11.71-1.82,23.41-1.82,11.7,3.06,23.4,3.06,11.7-.69,23.4-.69,11.7-1.76,23.4-1.76,11.71.49,23.41.49,11.7-1.72,23.4-1.72,11.71-.79,23.41-.79,11.7-.21,23.41-.21,11.7.58,23.4.58S269.66,229,281.36,229s11.71-4.12,23.41-4.12,13.11-3,21.81,4.84c7.83,7.05,3.65,8.76,3.65,19.3s-2.56,10.54-2.56,21.08,1.05,10.22,3.15,20.55C333,301.24,335.14,304.24,327.31,311.3Z"/><path class="cls-8" d="M327.31,311.3c-8.69,7.83-10.83,4.44-22.53,4.44s-11.7-3.07-23.4-3.07-11.71-.19-23.41-.19-11.7.25-23.4.25-11.7-1.77-23.4-1.77-11.7.41-23.41.41-11.7,3.63-23.4,3.63-11.7-4.68-23.4-4.68-11.7-1.21-23.41-1.21-11.7.34-23.4.34-11.71,2.71-23.41,2.71-11.7-1.42-23.41-1.42-11.7,3.4-23.4,3.4S12.22,315.61.51,315.61-16.26,322.4-25,314.56c-7.83-7.05-.48-12.83-.48-23.37s2.91-10.54,2.91-21.08-1.06-10.55-1.06-21.09-9.45-16.59-1.62-23.65c8.7-7.83,14,1.8,25.72,1.8s11.7,2.24,23.4,2.24,11.7-.92,23.4-.92,11.71-1.82,23.41-1.82,11.7,3.06,23.4,3.06,11.7-.69,23.4-.69,11.7-1.76,23.4-1.76,11.71.49,23.41.49,11.7-1.72,23.4-1.72,11.71-.79,23.41-.79,11.7-.21,23.41-.21,11.7.58,23.4.58S269.66,229,281.36,229s11.71-4.12,23.41-4.12,13.11-3,21.81,4.84c7.83,7.05,3.65,8.76,3.65,19.3s-2.56,10.54-2.56,21.08,1.05,10.22,3.15,20.55C333,301.24,335.14,304.24,327.31,311.3Z"/><path class="cls-11" d="M74,169.59h85a0,0,0,0,1,0,0v0a3.27,3.27,0,0,1-3.27,3.27H77.32A3.27,3.27,0,0,1,74,169.59v0A0,0,0,0,1,74,169.59Z"/><rect class="cls-12" x="174.11" y="151.62" width="86.92" height="90.73"/><polygon class="cls-13" points="172.47 151.62 126.2 96.67 79.93 151.62 79.93 242.35 172.47 242.35 174.11 242.35 174.11 151.62 172.47 151.62"/><rect class="cls-14" x="206.29" y="184.16" width="28.56" height="22.63"/><rect class="cls-12" x="79.93" y="155.35" width="3.42" height="87"/><polygon class="cls-8" points="172.47 151.62 126.2 96.67 79.93 151.62 79.93 242.35 172.47 242.35 261.04 242.35 261.04 151.62 172.47 151.62"/><rect class="cls-15" x="109.73" y="201.14" width="2.28" height="37.67"/><rect class="cls-12" x="167.27" y="154.59" width="6.84" height="87.76"/><rect class="cls-16" x="170.69" y="156.53" width="3.42" height="85.81"/><rect class="cls-14" x="112.02" y="201.14" width="23.67" height="37.67"/><line class="cls-17" x1="170.69" y1="233.79" x2="170.69" y2="194.75"/><line class="cls-17" x1="170.69" y1="190.3" x2="170.69" y2="181.79"/><line class="cls-17" x1="170.69" y1="174.53" x2="170.69" y2="169.24"/><rect class="cls-18" x="200.3" y="177.96" width="39.89" height="3.92"/><rect class="cls-19" x="200.3" y="177.96" width="6.64" height="3.92"/><line class="cls-20" x1="206.29" y1="194.34" x2="206.29" y2="195.11"/><rect class="cls-21" x="233.55" y="184.16" width="1.3" height="10.18"/><polygon class="cls-21" points="234.01 188.42 234.01 184.16 221.71 184.16 221.71 186.62 234.01 188.42"/><polygon class="cls-21" points="218.59 188.42 218.59 184.16 206.29 184.16 206.29 186.62 218.59 188.42"/><rect class="cls-21" x="233.55" y="196.62" width="1.3" height="10.18"/><rect class="cls-21" x="218.13" y="184.16" width="1.3" height="10.18"/><rect class="cls-21" x="218.13" y="196.62" width="1.3" height="10.18"/><rect class="cls-22" x="200.3" y="212.99" width="35.44" height="5.95"/><rect class="cls-10" x="202.63" y="175.12" width="33.11" height="2.85"/><rect class="cls-23" x="202.63" y="175.12" width="5.81" height="2.79"/><line class="cls-17" x1="227.13" y1="227.94" x2="246.28" y2="227.94"/><line class="cls-17" x1="234.05" y1="232.2" x2="252.12" y2="232.2"/><line class="cls-17" x1="231.02" y1="227.94" x2="231.02" y2="232.2"/><line class="cls-17" x1="241.09" y1="227.94" x2="241.09" y2="232.2"/><line class="cls-17" x1="251.16" y1="227.94" x2="251.16" y2="232.2"/><line class="cls-17" x1="246.13" y1="232.2" x2="246.13" y2="236.46"/><line class="cls-17" x1="236.03" y1="223.68" x2="236.03" y2="227.94"/><line class="cls-17" x1="234.05" y1="223.68" x2="247.88" y2="223.68"/><line class="cls-24" x1="111.15" y1="179.76" x2="92" y2="179.76"/><line class="cls-24" x1="104.23" y1="184.02" x2="86.16" y2="184.02"/><line class="cls-24" x1="107.26" y1="179.76" x2="107.26" y2="184.02"/><line class="cls-24" x1="97.19" y1="179.76" x2="97.19" y2="184.02"/><line class="cls-24" x1="87.12" y1="179.76" x2="87.12" y2="184.02"/><line class="cls-24" x1="92.15" y1="184.02" x2="92.15" y2="188.28"/><line class="cls-24" x1="102.24" y1="175.5" x2="102.24" y2="179.76"/><line class="cls-24" x1="104.23" y1="175.5" x2="90.4" y2="175.5"/><line class="cls-17" x1="200.3" y1="185.52" x2="181.56" y2="185.52"/><line class="cls-17" x1="191.23" y1="181.26" x2="177.44" y2="181.26"/><line class="cls-17" x1="194.26" y1="185.52" x2="194.26" y2="181.26"/><line class="cls-17" x1="184.19" y1="185.52" x2="184.19" y2="181.26"/><line class="cls-17" x1="199.32" y1="189.78" x2="199.32" y2="185.52"/><line class="cls-17" x1="189.25" y1="189.78" x2="189.25" y2="185.52"/><line class="cls-17" x1="189.25" y1="181.26" x2="189.25" y2="177"/><line class="cls-17" x1="191.23" y1="189.78" x2="179.84" y2="189.78"/><line class="cls-24" x1="144.41" y1="227.94" x2="163.15" y2="227.94"/><line class="cls-24" x1="153.48" y1="223.68" x2="167.27" y2="223.68"/><line class="cls-24" x1="150.45" y1="227.94" x2="150.45" y2="223.68"/><line class="cls-24" x1="160.52" y1="227.94" x2="160.52" y2="223.68"/><line class="cls-24" x1="145.39" y1="232.2" x2="145.39" y2="227.94"/><line class="cls-24" x1="155.46" y1="232.2" x2="155.46" y2="227.94"/><line class="cls-24" x1="155.46" y1="223.68" x2="155.46" y2="219.42"/><line class="cls-24" x1="153.48" y1="232.2" x2="164.87" y2="232.2"/><rect class="cls-18" x="106.63" y="238.81" width="32.37" height="3.53"/><path class="cls-25" d="M205.19,239.34c-2.86-4.68-7.32-5.17-11.63-3.74,0,0,6.22.22,11.63,6.42"/><path class="cls-26" d="M205.42,245.54a.8.8,0,0,1-.8-.8V222.07a.8.8,0,1,1,1.6,0v22.67A.8.8,0,0,1,205.42,245.54Z"/><path class="cls-27" d="M198.41,224.35a2.72,2.72,0,0,0,2.6,1.89,2.75,2.75,0,0,0,.85-.14,7.55,7.55,0,0,0,.89-.36,6.78,6.78,0,0,0-.07,1,2.74,2.74,0,0,0,5.48,0,8.68,8.68,0,0,0-.07-1,7.22,7.22,0,0,0,.89.36,2.72,2.72,0,0,0,3.45-1.75,2.71,2.71,0,0,0-.16-2.09,2.66,2.66,0,0,0-1.6-1.36,7.88,7.88,0,0,0-.93-.24,8,8,0,0,0,.62-.73,2.74,2.74,0,0,0-.61-3.83,2.74,2.74,0,0,0-3.82.61,8.18,8.18,0,0,0-.51.81,8.18,8.18,0,0,0-.51-.81,2.74,2.74,0,1,0-4.43,3.22,8,8,0,0,0,.62.73,8.05,8.05,0,0,0-.94.24,2.67,2.67,0,0,0-1.59,1.36A2.71,2.71,0,0,0,198.41,224.35Z"/><path class="cls-28" d="M198.57,221.88a2.74,2.74,0,0,0,1.59,1.36,8.08,8.08,0,0,0,.94.23,8.11,8.11,0,0,0-.62.74,2.73,2.73,0,0,0,.6,3.82,2.73,2.73,0,0,0,3.83-.6,8.16,8.16,0,0,0,.51-.82,8.16,8.16,0,0,0,.51.82,2.76,2.76,0,0,0,2.22,1.13,2.72,2.72,0,0,0,1.6-.53,2.72,2.72,0,0,0,.61-3.82,7,7,0,0,0-.62-.74,7.9,7.9,0,0,0,.93-.23A2.74,2.74,0,0,0,209,218a9.22,9.22,0,0,0-.89.36,8.51,8.51,0,0,0,.07-1,2.74,2.74,0,1,0-5.48,0,6.68,6.68,0,0,0,.07,1,7.55,7.55,0,0,0-.89-.36,2.74,2.74,0,0,0-3.29,3.85Z"/><line class="cls-29" x1="205.42" y1="222.07" x2="205.42" y2="217.52"/><line class="cls-29" x1="205.42" y1="222.07" x2="201.1" y2="220.66"/><line class="cls-29" x1="205.42" y1="222.07" x2="202.75" y2="225.75"/><line class="cls-29" x1="205.42" y1="222.07" x2="208.09" y2="225.75"/><line class="cls-29" x1="205.42" y1="222.07" x2="209.74" y2="220.66"/><circle class="cls-30" cx="205.42" cy="222.07" r="2.85"/><circle class="cls-31" cx="205.64" cy="222.07" r="1.46"/><path class="cls-26" d="M205.64,234.51c2-3.24,5.06-3.57,8.05-2.58a12.25,12.25,0,0,0-8.05,4.44"/><rect class="cls-19" x="134.05" y="238.81" width="4.95" height="3.53"/><rect class="cls-18" x="106.63" y="197.6" width="32.37" height="3.53"/><rect class="cls-19" x="134.05" y="197.6" width="4.95" height="3.53"/><path class="cls-25" d="M230.33,235.19c-3.17-1.36-6.69.91-6.07,3.8C226.21,239.26,229.72,237.06,230.33,235.19Z"/><path class="cls-25" d="M224,239.41a.8.8,0,0,1-.8-.8v-14a.8.8,0,0,1,1.6,0v14A.8.8,0,0,1,224,239.41Z"/><path class="cls-32" d="M218.91,230.44a2,2,0,0,0,1.89,1.37,2.1,2.1,0,0,0,.61-.09c.2-.07.42-.16.65-.26a4.23,4.23,0,0,0-.05.69,2,2,0,1,0,4,0,5.75,5.75,0,0,0-.05-.69,5.87,5.87,0,0,0,.65.26,2,2,0,0,0,.61.09,2,2,0,0,0,1.88-1.37,2,2,0,0,0-1.27-2.49,6.14,6.14,0,0,0-.68-.17,5.29,5.29,0,0,0,.45-.53,2,2,0,0,0-.44-2.77,1.94,1.94,0,0,0-1.16-.38,2,2,0,0,0-1.6.82,4.61,4.61,0,0,0-.37.59,6.08,6.08,0,0,0-.37-.59,2,2,0,0,0-1.6-.82,2,2,0,0,0-2,1.67,2,2,0,0,0,.35,1.48c.13.18.29.35.45.53a6.56,6.56,0,0,0-.67.17,2,2,0,0,0-1.16,1A2,2,0,0,0,218.91,230.44Z"/><path class="cls-33" d="M219,228.66a2,2,0,0,0,1.16,1,4.69,4.69,0,0,0,.67.17c-.16.18-.32.36-.45.54a2,2,0,0,0,.44,2.76,2,2,0,0,0,2.77-.44c.13-.18.25-.38.37-.58a5.72,5.72,0,0,0,.37.58,2,2,0,0,0,1.6.82,1.94,1.94,0,0,0,1.16-.38,2,2,0,0,0,.44-2.77,6.7,6.7,0,0,0-.45-.53,4.51,4.51,0,0,0,.68-.17,2,2,0,0,0-.61-3.86,1.77,1.77,0,0,0-.61.1,4.34,4.34,0,0,0-.65.25,5.75,5.75,0,0,0,.05-.69,2,2,0,0,0-4,0,4.43,4.43,0,0,0,.05.7,4.63,4.63,0,0,0-.65-.26,1.81,1.81,0,0,0-.61-.1,2,2,0,0,0-1.77,2.88Z"/><circle class="cls-28" cx="223.99" cy="228.8" r="1.62"/><rect class="cls-34" x="190.93" y="238.81" width="73.67" height="3.53"/><rect class="cls-35" x="179.6" y="238.81" width="11.33" height="3.53" transform="translate(370.54 481.16) rotate(180)"/><rect class="cls-23" x="174.11" y="242.35" width="90.49" height="7.07"/><line class="cls-8" x1="195.27" y1="238.81" x2="195.27" y2="242.35"/><line class="cls-8" x1="199.6" y1="238.81" x2="199.6" y2="242.35"/><line class="cls-8" x1="203.93" y1="238.81" x2="203.93" y2="242.35"/><line class="cls-8" x1="208.27" y1="238.81" x2="208.27" y2="242.35"/><line class="cls-8" x1="212.6" y1="238.81" x2="212.6" y2="242.35"/><line class="cls-8" x1="216.93" y1="238.81" x2="216.93" y2="242.35"/><line class="cls-8" x1="221.27" y1="238.81" x2="221.27" y2="242.35"/><line class="cls-8" x1="225.6" y1="238.81" x2="225.6" y2="242.35"/><line class="cls-8" x1="229.93" y1="238.81" x2="229.93" y2="242.35"/><line class="cls-8" x1="234.27" y1="238.81" x2="234.27" y2="242.35"/><line class="cls-8" x1="238.6" y1="238.81" x2="238.6" y2="242.35"/><line class="cls-8" x1="242.93" y1="238.81" x2="242.93" y2="242.35"/><rect class="cls-14" x="112.02" y="219.46" width="23.67" height="19.35"/><rect class="cls-36" x="120.43" y="221.88" width="6.93" height="6.05"/><rect class="cls-36" x="120.43" y="230.35" width="6.93" height="6.05"/><rect class="cls-36" x="112.02" y="219.42" width="5.99" height="19.39"/><rect class="cls-36" x="129.78" y="221.88" width="5.9" height="6.05"/><rect class="cls-36" x="129.78" y="230.35" width="5.9" height="6.05"/><line class="cls-8" x1="247.27" y1="238.81" x2="247.27" y2="242.35"/><line class="cls-8" x1="251.6" y1="238.81" x2="251.6" y2="242.35"/><line class="cls-8" x1="255.93" y1="238.81" x2="255.93" y2="242.35"/><line class="cls-8" x1="260.27" y1="238.81" x2="260.27" y2="242.35"/><path class="cls-37" d="M129.78,227.93v-6.05h5.9m0,6.05h-3.09m.8,8.46h-3.61v-6h5.9m-11.33,0h3v6h-6.93v-6H122m.52-8.47h4.82v6.05h-6.93v-6.05"/><line class="cls-37" x1="118.01" y1="236.39" x2="118.01" y2="226.39"/><line class="cls-37" x1="118.01" y1="223.85" x2="118.01" y2="221.88"/><rect class="cls-35" x="71.11" y="156.58" width="8.83" height="13.01"/><path class="cls-10" d="M183.22,169.59h85a0,0,0,0,1,0,0v0a3.27,3.27,0,0,1-3.27,3.27H186.49a3.27,3.27,0,0,1-3.27-3.27v0A0,0,0,0,1,183.22,169.59Z"/><path class="cls-38" d="M272.74,157.26,217.65,91.84a7.5,7.5,0,0,0-5.74-2.67H126.12a6.36,6.36,0,0,0-.87.06l-.22,0c-.31,0-.62.12-.93.2l-.08,0a8.29,8.29,0,0,0-.83.31l-.18.08a7.45,7.45,0,0,0-1.61,1l-.17.15a6.75,6.75,0,0,0-.54.53l-.16.17-.06.07L76.32,144.26l-4,4.8-6.91,8.2a7.5,7.5,0,0,0,11.48,9.66l49.35-58.61,49.36,58.61a7.49,7.49,0,0,0,5.73,2.67H267a7.5,7.5,0,0,0,5.73-12.33Z"/><line class="cls-39" x1="224.13" y1="154.59" x2="259.26" y2="154.59"/><line class="cls-39" x1="219.83" y1="154.59" x2="209.09" y2="154.59"/><path class="cls-39" d="M163.76,109.89a3.53,3.53,0,0,0,6.17.86,3.51,3.51,0,0,0,5.7,0,3.53,3.53,0,0,0,6.17-.86"/><path class="cls-40" d="M224.89,143.76a3.53,3.53,0,0,1-6.17.87,3.54,3.54,0,0,1-5.71,0,3.53,3.53,0,0,1-5.7,0,3.53,3.53,0,0,1-5.7,0,3.54,3.54,0,0,1-5.71,0,3.53,3.53,0,0,1-6.17-.87"/><path class="cls-39" d="M239.17,134a3.53,3.53,0,0,1-6.17.87,3.53,3.53,0,0,1-6.17-.87"/><line class="cls-39" x1="184.19" y1="99.28" x2="170.55" y2="99.28"/><line class="cls-40" x1="166.74" y1="99.28" x2="156.46" y2="99.28"/><line class="cls-40" x1="152.64" y1="99.28" x2="147.33" y2="99.28"/><path class="cls-8" d="M240.19,169.59H267a7.5,7.5,0,0,0,5.73-12.33L217.65,91.84a7.5,7.5,0,0,0-5.74-2.67h-14"/><line class="cls-39" x1="220.19" y1="169.59" x2="234.88" y2="169.59"/><path class="cls-8" d="M137.44,89.17H126.12a6.36,6.36,0,0,0-.87.06l-.22,0c-.31,0-.62.12-.93.2l-.08,0a8.29,8.29,0,0,0-.83.31l-.18.08a7.45,7.45,0,0,0-1.61,1l-.17.15a6.75,6.75,0,0,0-.54.53l-.16.17-.06.07L76.32,144.26"/><line class="cls-8" x1="151.05" y1="89.17" x2="142.08" y2="89.17"/><line class="cls-8" x1="192.29" y1="89.17" x2="155.72" y2="89.17"/><path class="cls-41" d="M257.93,198.83h-.8v-6.17h-5.37v6.17h0a5.36,5.36,0,0,0,5.37,5.37h.8v6.17h5.37V204.2h0a5.37,5.37,0,0,0-5.37-5.37Z"/><rect class="cls-41" x="251.76" y="169.59" width="5.37" height="11.54"/><rect class="cls-41" x="251.76" y="181.13" width="5.37" height="11.54"/><rect class="cls-41" x="254.67" y="201.43" width="9.38" height="2.68" rx="1.34" transform="translate(-67.42 242.79) rotate(-45)"/><rect class="cls-41" x="257.93" y="210.37" width="5.37" height="11.54"/><rect class="cls-41" x="256.54" y="210.37" width="8.14" height="2.68" rx="1.34"/><rect class="cls-41" x="257.93" y="221.91" width="5.37" height="11.54"/><rect class="cls-41" x="257.93" y="233.44" width="5.37" height="5.37"/><rect class="cls-41" x="256.54" y="221.91" width="8.14" height="2.68" rx="1.34"/><rect class="cls-41" x="256.54" y="233.44" width="8.14" height="2.68" rx="1.34"/><rect class="cls-41" x="250.37" y="192.66" width="8.14" height="2.68" rx="1.34"/><rect class="cls-41" x="250.37" y="181.13" width="8.14" height="2.68" rx="1.34"/><rect class="cls-41" x="250.37" y="169.59" width="8.14" height="2.68" rx="1.34"/><rect class="cls-10" x="115.12" y="213.74" width="7.94" height="5.68"/><polygon class="cls-14" points="122.07 201.14 120.66 201.14 120.66 210.05 122.07 210.05 135.68 210.05 135.68 201.14 122.07 201.14"/><polyline class="cls-42" points="126.84 207.53 124.59 207.53 124.59 201.14 135.68 201.14 135.68 207.53 132.21 207.53"/><line class="cls-42" x1="130.5" y1="207.53" x2="128.65" y2="207.53"/><line class="cls-37" x1="122.07" y1="201.14" x2="122.07" y2="203.83"/><line class="cls-37" x1="122.07" y1="205.56" x2="122.07" y2="210.05"/><rect class="cls-10" x="114.69" y="192.67" width="13.51" height="4.93"/><rect class="cls-31" x="120.48" y="189.88" width="1.93" height="10.51" transform="translate(316.59 73.69) rotate(90)"/><rect class="cls-23" x="128.21" y="192.67" width="3.13" height="4.93"/><polyline class="cls-43" points="201.37 199.71 201.37 209.07 204.01 209.07 204.01 181.89 201.37 181.89 201.37 197.32"/><rect class="cls-44" x="115.68" y="164.7" width="18.18" height="3.1"/><line class="cls-39" x1="159" y1="123.98" x2="136.71" y2="97.5"/><line class="cls-39" x1="165.24" y1="131.39" x2="162.46" y2="128.08"/><path class="cls-39" d="M188.09,165.25a7.47,7.47,0,0,0-1.06-8l-9.89-11.74"/><line class="cls-17" x1="83.35" y1="159.19" x2="83.35" y2="232.2"/><line class="cls-17" x1="167.27" y1="157.08" x2="167.27" y2="242.35"/><line class="cls-17" x1="174.11" y1="224.1" x2="174.11" y2="242.35"/><line class="cls-17" x1="174.11" y1="171.89" x2="174.11" y2="218.95"/><line class="cls-17" x1="83.35" y1="242.35" x2="83.35" y2="235.87"/><path class="cls-45" d="M20.37,236.85c11.27,0,11.27.54,22.54.54s11.26-.15,22.53-.15"/><path class="cls-45" d="M54.6,242.63c9.19,0,9.19,0,18.38,0"/><path class="cls-45" d="M49.79,242.45c-4.17,0-4.17.12-8.35.12"/><path class="cls-45" d="M28.19,248c9.28,0,9.28-.15,18.55-.15"/><path class="cls-45" d="M24.28,247.89c-4.75,0-4.75,0-9.49,0"/><path class="cls-45" d="M221.71,274.65c14.94,0,14.94.06,29.89.06"/><path class="cls-45" d="M259.36,274.46c3.44,0,3.44,0,6.87,0"/><path class="cls-45" d="M244.09,268.09c9.12,0,9.12-.44,18.24-.44s9.11-.12,18.23-.12"/><path class="cls-45" d="M247.88,282.94c12.43,0,12.43.33,24.86.33"/><path class="cls-45" d="M277.39,283.1c5.68,0,5.68.09,11.35.09"/><line class="cls-40" x1="126.2" y1="96.67" x2="125.24" y2="97.82"/><line class="cls-46" x1="121.2" y1="102.61" x2="74.78" y2="157.73"/><line class="cls-40" x1="72.76" y1="160.13" x2="71.79" y2="161.28"/><line class="cls-40" x1="126.2" y1="96.67" x2="127.17" y2="97.82"/><line class="cls-47" x1="130.68" y1="101.99" x2="155.23" y2="131.14"/><line class="cls-40" x1="156.99" y1="133.23" x2="157.95" y2="134.37"/><line class="cls-48" x1="196.19" y1="162.09" x2="268.17" y2="162.09"/><path class="cls-45" d="M221.71,285.16a14.72,14.72,0,0,1,6.44,1.4"/><path class="cls-45" d="M209.09,287.63a19.87,19.87,0,0,1,5.58-1.91c1.25-.14,2.58-.32,4-.43"/><path class="cls-45" d="M190.19,285c4,1.07,7.53,4.39,11.76,4.61"/><path class="cls-45" d="M127.31,285.55c4.11-3,8.26-1.22,12.56-.53,4.06.65,8.33,1.78,12.89,2.55,4.05.68,8.67-.22,13.35-1.74s8.42-3,11.92-3a31,31,0,0,1,6.92.81"/><rect class="cls-9" x="189.63" y="33.93" width="26.38" height="13.83" rx="6.91"/><path class="cls-8" d="M200.82,47.76h-4.27a6.93,6.93,0,0,1-6.92-6.91h0a6.94,6.94,0,0,1,6.92-6.92"/><line class="cls-8" x1="209.09" y1="47.76" x2="204.29" y2="47.76"/><path class="cls-8" d="M199.5,33.93h9.59A6.94,6.94,0,0,1,216,40.85h0a6.93,6.93,0,0,1-3.89,6.21"/><rect class="cls-9" x="18.37" y="-22.55" width="67.26" height="38.94" rx="19.47"/><path class="cls-8" d="M82.33,7.73a19.51,19.51,0,0,1-16.18,8.66H43.4"/><path class="cls-8" d="M37.84,16.39A19.53,19.53,0,0,1,18.37-3.08h0A19.53,19.53,0,0,1,37.84-22.55H66.15A19.53,19.53,0,0,1,85.63-3.08h0"/><path class="cls-41" d="M307.4,92.73a15.22,15.22,0,0,0-5.42,1,13,13,0,0,0-14.08-6.63A9.5,9.5,0,0,0,288,85.8a10.77,10.77,0,0,0-19.32-6.55,6.11,6.11,0,0,0-9.37,4.39,14.6,14.6,0,0,0-13.51,14.55c0,.47,0,.93.07,1.39a11,11,0,0,0-6.1,5.22h82.58A15.28,15.28,0,0,0,307.4,92.73Z"/><circle class="cls-41" cx="251.06" cy="75.76" r="2.21"/><circle class="cls-41" cx="241.25" cy="92.44" r="1.49"/><path class="cls-49" d="M297.52,97.37A6.42,6.42,0,0,0,285.13,95a5.07,5.07,0,0,0-5.87,6.48"/><path class="cls-49" d="M262.37,89.78A4.29,4.29,0,0,1,270.1,92"/><path class="cls-41" d="M75.83,69.12a15.79,15.79,0,0,0-5.68,1.06,13.65,13.65,0,0,0-12-7.22,13.47,13.47,0,0,0-2.71.28,10.54,10.54,0,0,0,.09-1.38A11.27,11.27,0,0,0,35.26,55a6.39,6.39,0,0,0-9.8,4.59A15.29,15.29,0,0,0,11.3,74.84a13.79,13.79,0,0,0,.08,1.45A11.54,11.54,0,0,0,5,81.76H91.47A16,16,0,0,0,75.83,69.12Z"/><circle class="cls-41" cx="16.82" cy="51.34" r="2.31"/><circle class="cls-41" cx="6.55" cy="68.82" r="1.56"/><path class="cls-49" d="M65.48,74a6.73,6.73,0,0,0-13-2.49,5.49,5.49,0,0,0-1.08-.11,5.3,5.3,0,0,0-5.31,5.3,5.51,5.51,0,0,0,.24,1.59"/><path class="cls-49" d="M28.67,66a4.49,4.49,0,0,1,8.09,2.27"/><path class="cls-41" d="M185.27,21.53a2.05,2.05,0,0,0-2-2.05h-4.8a9.07,9.07,0,0,0-8.76-6.76,9.26,9.26,0,0,0-1.84.19,8.58,8.58,0,0,0-16.66-2.12,6.77,6.77,0,0,0-3.84-1.19,6.84,6.84,0,0,0-6.84,6.84,7.2,7.2,0,0,0,.13,1.32,4.64,4.64,0,0,0-3.94,4.58,4.9,4.9,0,0,0,.07.77,20.72,20.72,0,0,0-4.18,4.77h51.54a3.79,3.79,0,0,0,0-.58A4.3,4.3,0,0,0,182,23.57h1.24A2,2,0,0,0,185.27,21.53Z"/><path class="cls-49" d="M175.94,24.24a3.54,3.54,0,0,0-4.56-1.64,5.43,5.43,0,0,0-10.81.67,6.25,6.25,0,0,0,.09,1"/><path class="cls-49" d="M149.46,20.83A1.9,1.9,0,0,0,146,22.07"/><circle class="cls-41" cx="127.92" cy="18.21" r="2.19"/><circle class="cls-41" cx="137.67" cy="5.84" r="1.29"/><rect class="cls-41" x="172.35" y="6.43" width="5.83" height="3.15" rx="1.58"/><path class="cls-45" d="M32.19,277c2.7,0,2.7,2,5.4,2s2.7-1.59,5.4-1.59,2.71,2.08,5.41,2.08,2.7-2.45,5.4-2.45,2.71,2.4,5.41,2.4,2.7-1.8,5.4-1.8,2.71,1.67,5.41,1.67,2.71-1.75,5.41-1.75,2.71,1.57,5.42,1.57"/><path class="cls-45" d="M109.73,254.25c15.61,0,15.61-.31,31.21-.31"/><path class="cls-45" d="M144.94,254.25c2.75,0,2.75-.05,5.51-.05"/><path class="cls-45" d="M123,259.07c11.55,0,11.55-.21,23.1-.21"/><path class="cls-45" d="M150.64,258.89c4,0,4,0,8,0"/><path class="cls-45" d="M112,263.55c11.2,0,11.2.16,22.41.16"/><path class="cls-41" d="M36,225.86a20.81,20.81,0,0,1-6.42-3.16,8,8,0,0,0-.48-4.55,1,1,0,0,0-1.33-.56,1,1,0,0,0-.55,1.33,7.36,7.36,0,0,1,.5,2.35c-.52-.44-1.05-.91-1.58-1.44a1,1,0,0,0-1.42,1.45,28.4,28.4,0,0,0,4.33,3.52l-1.13.65a1,1,0,0,0,.69,1.87.94.94,0,0,0,.32-.11L31.07,226a19.37,19.37,0,0,0,4.52,1.85.94.94,0,0,0,.41,0,1,1,0,0,0,0-2Z"/><path class="cls-10" d="M61,232.24a13.92,13.92,0,0,1-.34,2c-.09.69.25,1.5.06,2.15a14.68,14.68,0,0,1-.78,2,17.61,17.61,0,0,1-.68,2.09c-.37.58-1.37.77-1.83,1.29s-.7,1.3-1.22,1.75-1.43.44-2,.81a16.13,16.13,0,0,1-1.73,1.14,15.2,15.2,0,0,1-2,.52c-.66.19-1.22,1-1.91,1.08s-1.44-1.1-2.14-1.1a16.1,16.1,0,0,1-2,.27c-.69-.1-1.47.27-2.13.08a16.32,16.32,0,0,1-2.13-.36c-.63-.28-.79-1.48-1.37-1.86s-1.51-.26-2-.71a16.12,16.12,0,0,1-1.34-1.63,16.28,16.28,0,0,1-.93-1.87,14.23,14.23,0,0,1-.73-1.89c-.28-.62-1.06-1-1.26-1.69a14.31,14.31,0,0,1,0-2.08,13.4,13.4,0,0,1-.35-2c0-.7-.41-1.44-.31-2.11a14.23,14.23,0,0,1,.49-2,13.65,13.65,0,0,1,.8-1.94,14.34,14.34,0,0,1,1.25-1.68,14,14,0,0,1,1.32-1.56c.46-.52,1.24-.62,1.76-1.08s.56-1.48,1.14-1.85.9-1.36,1.53-1.65,1.68.46,2.34.27,1.24-.78,1.92-.88a16.72,16.72,0,0,1,2.09-.5,16.13,16.13,0,0,1,2.18-.1c.69.09,1.25,1,1.91,1.22s1.66-.33,2.28,0,.66,1.75,1.23,2.12a14.63,14.63,0,0,1,1.43,1.41c.52.45,2.07-.11,2.53.41s-.06,1.8.31,2.38,1.38.82,1.67,1.45a17.55,17.55,0,0,1,.32,2.11c.19.65-.44,1.43-.35,2.12S61,231.54,61,232.24Z"/><path class="cls-45" d="M38.79,244.12c-.58-.37-1.51-.26-2-.71a16.12,16.12,0,0,1-1.34-1.63,16.28,16.28,0,0,1-.93-1.87"/><path class="cls-8" d="M33.76,238c-.28-.62-1.06-1-1.26-1.69a14.31,14.31,0,0,1,0-2.08,13.4,13.4,0,0,1-.35-2c0-.7-.41-1.44-.31-2.11a14.23,14.23,0,0,1,.49-2,13.65,13.65,0,0,1,.8-1.94,14.34,14.34,0,0,1,1.25-1.68,14,14,0,0,1,1.32-1.56c.46-.52,1.24-.62,1.76-1.08s.56-1.48,1.14-1.85.9-1.36,1.53-1.65,1.68.46,2.34.27,1.24-.78,1.92-.88a16.72,16.72,0,0,1,2.09-.5,16.13,16.13,0,0,1,2.18-.1c.69.09,1.25,1,1.91,1.22s1.66-.33,2.28,0,.66,1.75,1.23,2.12a14.63,14.63,0,0,1,1.43,1.41c.52.45,2.07-.11,2.53.41s-.06,1.8.31,2.38,1.38.82,1.67,1.45a17.55,17.55,0,0,1,.32,2.11c.19.65-.44,1.43-.35,2.12s1.08,1.25,1.08,2a13.92,13.92,0,0,1-.34,2c-.09.69.25,1.5.06,2.15a14.68,14.68,0,0,1-.78,2,17.61,17.61,0,0,1-.68,2.09c-.37.58-1.37.77-1.83,1.29s-.7,1.3-1.22,1.75-1.43.44-2,.81a16.13,16.13,0,0,1-1.73,1.14"/><path class="cls-10" d="M56.47,211.92c0,.7.42,1.39.29,2.05a10.16,10.16,0,0,1-.79,1.9,10.38,10.38,0,0,1-.73,1.93c-.38.57-1.2.75-1.69,1.24a9.26,9.26,0,0,1-1.49,1.3c-.56.38-.87,1.26-1.51,1.53a11.59,11.59,0,0,1-2,.9c-.66.13-1.46-.43-2.16-.43a11.51,11.51,0,0,1-2.09.13,11.07,11.07,0,0,1-1.94-.82,10.22,10.22,0,0,1-1.78-1,12.15,12.15,0,0,1-3.16-2.7c-.38-.56,0-1.53-.27-2.17s-1.18-1-1.32-1.72a11.49,11.49,0,0,1-.51-2.1,11.64,11.64,0,0,1,.33-2.14,11.1,11.1,0,0,1,.94-1.93c.26-.63.93-1,1.31-1.61s.24-1.61.73-2.09,1.41-.5,2-.89a10,10,0,0,1,1.79-1,11.1,11.1,0,0,1,1.91-.82,11.16,11.16,0,0,1,2.08-.35c.7,0,1.36.51,2,.64a10.7,10.7,0,0,1,1.95.58,10.25,10.25,0,0,1,1.65,1.16c.57.39,1.68.15,2.17.63a12.82,12.82,0,0,1,1,1.9c.38.56,1.12,1,1.39,1.66s-.4,1.57-.26,2.25A10.11,10.11,0,0,1,56.47,211.92Z"/><path class="cls-8" d="M50.41,202.33a10.25,10.25,0,0,1,1.65,1.16c.57.39,1.68.15,2.17.63a12.82,12.82,0,0,1,1,1.9c.38.56,1.12,1,1.39,1.66s-.4,1.57-.26,2.25a10.11,10.11,0,0,1,.07,2c0,.7.42,1.39.29,2.05a10.16,10.16,0,0,1-.79,1.9,10.38,10.38,0,0,1-.73,1.93c-.38.57-1.2.75-1.69,1.24a9.26,9.26,0,0,1-1.49,1.3"/><path class="cls-8" d="M40.62,220.61a12.15,12.15,0,0,1-3.16-2.7c-.38-.56,0-1.53-.27-2.17s-1.18-1-1.32-1.72a11.49,11.49,0,0,1-.51-2.1,11.64,11.64,0,0,1,.33-2.14,11.1,11.1,0,0,1,.94-1.93c.26-.63.93-1,1.31-1.61s.24-1.61.73-2.09,1.41-.5,2-.89a10,10,0,0,1,1.79-1,11.1,11.1,0,0,1,1.91-.82,11.16,11.16,0,0,1,2.08-.35c.7,0,1.36.51,2,.64"/><path class="cls-31" d="M43,210.86a.88.88,0,0,1-.86.92,1,1,0,0,1-.94-.92.91.91,0,0,1,.94-.87A.84.84,0,0,1,43,210.86Z"/><path class="cls-8" d="M43,210.86a.88.88,0,0,1-.86.92,1,1,0,0,1-.94-.92.91.91,0,0,1,.94-.87A.84.84,0,0,1,43,210.86Z"/><path class="cls-31" d="M49.39,210.86a.9.9,0,0,1-.87.93.93.93,0,0,1,0-1.86A.9.9,0,0,1,49.39,210.86Z"/><path class="cls-8" d="M49.39,210.86a.9.9,0,0,1-.87.93.93.93,0,0,1,0-1.86A.9.9,0,0,1,49.39,210.86Z"/><circle class="cls-35" cx="40.83" cy="215.12" r="0.22"/><circle class="cls-35" cx="42.63" cy="216.83" r="0.22"/><circle class="cls-35" cx="49.43" cy="215.12" r="0.22"/><circle class="cls-35" cx="47.66" cy="216.61" r="0.22"/><circle class="cls-35" cx="45.1" cy="217.27" r="0.22"/><circle class="cls-35" cx="44.61" cy="228.17" r="0.73"/><circle class="cls-35" cx="44.34" cy="233.69" r="0.73"/><circle class="cls-35" cx="44.61" cy="239.21" r="0.73"/><path class="cls-45" d="M50.55,221.87a11.59,11.59,0,0,1-2,.9c-.66.13-1.46-.43-2.16-.43a11.51,11.51,0,0,1-2.09.13"/><path class="cls-41" d="M68.53,218.92a1,1,0,0,0-1.43,0s-.64.64-1.63,1.54a6.64,6.64,0,0,1,.2-2.17,1,1,0,0,0-2-.58,8.47,8.47,0,0,0,0,4.27,28.38,28.38,0,0,1-6.57,4.18,1,1,0,0,0,.4,1.95,1.07,1.07,0,0,0,.39-.07,23.17,23.17,0,0,0,3.29-1.75,13.59,13.59,0,0,0,1.73.11,9.82,9.82,0,0,0,3-.42,1,1,0,1,0-.64-1.93,6.3,6.3,0,0,1-1.25.26,46.11,46.11,0,0,0,4.52-4A1,1,0,0,0,68.53,218.92Z"/><path class="cls-10" d="M57,225c.83,0-.08.47.06,1.35a2.45,2.45,0,0,0,.8,1.29,3.06,3.06,0,0,0,1.35,1.09c-.49.83-.84.57-1.59,1.19s-.56,1-1.51,1.17-.93-.14-1.75-.53-.89-.32-1.32-1.12-.34-.73-.15-1.52,0-1,.51-1.63,1.13-.07,2-.53S56.07,225.08,57,225Z"/><path class="cls-45" d="M57,225c.83,0-.08.47.06,1.35a2.45,2.45,0,0,0,.8,1.29,3.06,3.06,0,0,0,1.35,1.09"/><path class="cls-10" d="M49.88,307.18c0,1.38.83,2.73.58,4a20.83,20.83,0,0,1-1.54,3.72,21.4,21.4,0,0,1-1.44,3.78c-.75,1.12-2.36,1.47-3.31,2.42a18.6,18.6,0,0,1-2.91,2.56c-1.11.75-1.71,2.47-3,3s-2.51,1.5-3.85,1.76-2.85-.84-4.22-.84-2.82.51-4.12.25a21,21,0,0,1-3.79-1.59,21.27,21.27,0,0,1-3.48-2,21.41,21.41,0,0,1-3.29-2.36,21.77,21.77,0,0,1-2.91-2.93c-.74-1.11,0-3-.51-4.25s-2.33-2-2.6-3.38-1-2.74-1-4.12A23,23,0,0,1,9.17,303c.27-1.34,1.33-2.55,1.84-3.77s1.84-2.05,2.58-3.16.47-3.16,1.42-4.11,2.77-1,3.89-1.73a19.84,19.84,0,0,1,3.5-1.93,21.36,21.36,0,0,1,3.75-1.6,22,22,0,0,1,4.08-.7c1.37,0,2.66,1,4,1.27A19.78,19.78,0,0,1,38,288.4a20.13,20.13,0,0,1,3.24,2.28c1.12.75,3.3.29,4.24,1.24s1.29,2.58,2,3.7,2.21,2,2.73,3.27-.78,3.08-.52,4.41A19.2,19.2,0,0,1,49.88,307.18Z"/><path class="cls-8" d="M38,288.4a20.13,20.13,0,0,1,3.24,2.28c1.12.75,3.3.29,4.24,1.24s1.29,2.58,2,3.7,2.21,2,2.73,3.27-.78,3.08-.52,4.41a19.2,19.2,0,0,1,.14,3.88c0,1.38.83,2.73.58,4a20.83,20.83,0,0,1-1.54,3.72,21.4,21.4,0,0,1-1.44,3.78c-.75,1.12-2.36,1.47-3.31,2.42a18.6,18.6,0,0,1-2.91,2.56"/><path class="cls-8" d="M18.84,324.22a21.41,21.41,0,0,1-3.29-2.36,21.77,21.77,0,0,1-2.91-2.93c-.74-1.11,0-3-.51-4.25s-2.33-2-2.6-3.38-1-2.74-1-4.12A23,23,0,0,1,9.17,303c.27-1.34,1.33-2.55,1.84-3.77s1.84-2.05,2.58-3.16.47-3.16,1.42-4.11,2.77-1,3.89-1.73a19.84,19.84,0,0,1,3.5-1.93,21.36,21.36,0,0,1,3.75-1.6,22,22,0,0,1,4.08-.7c1.37,0,2.66,1,4,1.27"/><rect class="cls-14" x="117.96" y="147.2" width="9.92" height="11.3"/><line class="cls-50" x1="174.11" y1="245.21" x2="174.11" y2="249.42"/><rect class="cls-8" x="76.36" y="242.35" width="188.24" height="7.07"/><path class="cls-10" d="M53.46,249c2.36-1.51,5.06-2,7.31-2.54,2.65-.65,5.1-1.34,7.46-1.1a33.42,33.42,0,0,1,7.5,1.49,16.66,16.66,0,0,0,9.12.58,18.74,18.74,0,0,1,7,.24,14.86,14.86,0,0,1,6.33,2.67c1.7,3,1.18,3.2,2.47,6.37s5.31,3.87,3,6.43c-3.22,3.61-4.91,1-9.7,1.78s-4.86.25-9.65,1-4.82.54-9.6,1.29S70,268.28,65.22,269s-5.82,4.46-9.47,1.27c-4-3.54.32-5.35-.59-10.64S52.85,254.35,53.46,249Z"/><path class="cls-8" d="M53.46,249c2.36-1.51,5.06-2,7.31-2.54,2.65-.65,5.1-1.34,7.46-1.1a33.42,33.42,0,0,1,7.5,1.49,16.66,16.66,0,0,0,9.12.58,18.74,18.74,0,0,1,7,.24,14.86,14.86,0,0,1,6.33,2.67"/><path class="cls-45" d="M-13.94,262.48c2.94,0,2.94,1.13,5.88,1.13s2.94-1.56,5.88-1.56S.76,264.5,3.7,264.5s2.93-2.81,5.87-2.81,2.94,2.39,5.88,2.39,2.94-2,5.88-2,2.93,2,5.87,2,2.94-1.66,5.88-1.66S36,264.47,39,264.47s2.94-2.26,5.88-2.26,2.94,2.34,5.88,2.34,2.94-2.27,5.89-2.27,2.94,1.2,5.88,1.2"/><path class="cls-45" d="M102.8,259c7.86,0,7.86-.2,15.72-.2"/><path class="cls-51" d="M127.88,144.92h-12.2v15.85H132.8V144.92Zm0,13.58H118V147.2h9.92Z"/><rect class="cls-21" x="117.96" y="147.2" width="1.3" height="11.3"/><polygon class="cls-21" points="117.96 151.46 117.96 147.2 127.88 147.2 127.88 150 117.96 151.46"/><rect class="cls-19" x="127.23" y="160.77" width="6.64" height="3.92" transform="translate(261.09 325.47) rotate(180)"/><rect class="cls-18" x="112.61" y="160.77" width="14.61" height="3.92" transform="translate(239.84 325.47) rotate(180)"/><path class="cls-52" d="M237.13,194.34h0V181.89H204v12.45h0v2.28h0v12.45h33.12V196.62h0Zm-2.28-10.18v10.18H221.71V184.16Zm-26.18,0h10.76v10.18H206.29V184.16m8.91,12.46h4.23V206.8H206.29V196.62h6.57m22,10.18H221.71V196.62h13.14Z"/><line class="cls-17" x1="109.73" y1="214.27" x2="109.73" y2="236.39"/><line class="cls-17" x1="109.73" y1="210.05" x2="109.73" y2="203.83"/><path class="cls-8" d="M130.22,113.08l45.34,53.84a7.49,7.49,0,0,0,5.73,2.67H215"/><path class="cls-8" d="M247.19,172.86h-60.7a3.27,3.27,0,0,1-3.27-3.27h0"/><path class="cls-8" d="M268.17,169.59h0a3.27,3.27,0,0,1-3.27,3.27h-5.16"/><line class="cls-8" x1="127.23" y1="164.7" x2="127.23" y2="162.73"/><rect class="cls-18" x="200.3" y="209.07" width="39.89" height="3.92"/><rect class="cls-19" x="200.3" y="209.07" width="6.64" height="3.92"/><rect class="cls-8" x="200.3" y="209.07" width="39.89" height="3.92"/><line class="cls-8" x1="206.94" y1="212.99" x2="206.94" y2="210.78"/><rect class="cls-53" x="130.16" y="144.92" width="2.64" height="15.85"/><line class="cls-54" x1="130.16" y1="160.77" x2="130.16" y2="151.09"/><path class="cls-10" d="M243.11,114.35c-3.84-4.56-4.88-3.68-8.72-8.23s-2.46-5.72-6.3-10.28-5-3.62-8.8-8.18c-1-1.23-2.06-2.55-3.68-2.55-5.69,0-5.69,1.06-11.39,1.06s-5.69-.62-11.39-.62-5.69-.18-11.39-.18-5.69-1-11.39-1-5.7.92-11.39.92-5.7-1-11.4-1S141.56,86,135.86,86c-1,0-1-1.33-1.92-1.33a6.57,6.57,0,0,0-4.5,2.34c-.82,1-1.77.73-.79,1.54,1.55,1.27,1.46,1.19,3.46,1.19a4.93,4.93,0,0,1,4.09,1.51c4.29,5.09,5.24,4.28,9.52,9.37s4.2,5.16,8.49,10.25,3.53,5.71,7.82,10.8a5.62,5.62,0,0,0,4.18,2.13c5.48,0,5.48-1.06,11-1.06s5.47,1,11,1c4.54,0,8.41-1.22,8.32-6.94-.05-3.09-4-7.13-2.39-10,1.72-3,6.25-3.33,10.76-2.89,4.16.41,8.95,1,11.46,2.82,4.78,4.62,2.64,12,4.28,17.66,8.58,2.49,9.15-1.29,18.1-1.29C243.31,123.05,246.11,117.92,243.11,114.35Z"/><path class="cls-8" d="M243.11,114.35c-3.84-4.56-4.88-3.68-8.72-8.23s-2.46-5.72-6.3-10.28-5-3.62-8.8-8.18c-1-1.23-2.06-2.55-3.68-2.55-5.69,0-5.69,1.06-11.39,1.06s-5.69-.62-11.39-.62-5.69-.18-11.39-.18-5.69-1-11.39-1-5.7.92-11.39.92-5.7-1-11.4-1S141.56,86,135.86,86c-1,0-1-1.33-1.92-1.33a6.57,6.57,0,0,0-4.5,2.34c-.82,1-1.77.73-.79,1.54,1.55,1.27,1.46,1.19,3.46,1.19a4.93,4.93,0,0,1,4.09,1.51c4.29,5.09,5.24,4.28,9.52,9.37s4.2,5.16,8.49,10.25,3.53,5.71,7.82,10.8a5.62,5.62,0,0,0,4.18,2.13c5.48,0,5.48-1.06,11-1.06s5.47,1,11,1c4.54,0,8.41-1.22,8.32-6.94-.05-3.09-4-7.13-2.39-10,1.72-3,6.25-3.33,10.76-2.89,4.16.41,8.95,1,11.46,2.82,4.78,4.62,2.64,12,4.28,17.66,8.58,2.49,9.15-1.29,18.1-1.29C243.31,123.05,246.11,117.92,243.11,114.35Z"/><line class="cls-54" x1="130.16" y1="149.33" x2="130.16" y2="147.2"/><path class="cls-54" d="M115.68,160.77H132.8V144.92H115.68V158.5m4.6-11.3h7.6v11.3H118V147.2"/><rect class="cls-18" x="112.61" y="142.24" width="21.25" height="2.68" transform="translate(246.48 287.16) rotate(180)"/><rect class="cls-19" x="127.23" y="142.24" width="6.64" height="2.68" transform="translate(261.09 287.16) rotate(180)"/><polyline class="cls-8" points="115.68 142.24 112.61 142.24 112.61 144.92 133.86 144.92 133.86 142.24 117.96 142.24"/><polyline class="cls-8" points="112.02 197.6 139 197.6 139 201.14 106.63 201.14 106.63 197.6 109.39 197.6"/><line class="cls-8" x1="134.05" y1="201.14" x2="134.05" y2="199.37"/><polyline class="cls-8" points="139 238.81 139 242.35 106.63 242.35 106.63 238.81 136.81 238.81"/><rect class="cls-8" x="112.61" y="160.77" width="21.25" height="3.92"/><line class="cls-8" x1="121.45" y1="113.96" x2="126.2" y2="108.31"/><line class="cls-8" x1="111.83" y1="125.38" x2="118.61" y2="117.33"/><path class="cls-8" d="M72.28,149.06l-6.91,8.2a7.5,7.5,0,0,0,11.48,9.66l32-37.95"/><line class="cls-8" x1="57.21" y1="51.92" x2="53.67" y2="51.92"/><line class="cls-8" x1="50.81" y1="51.92" x2="33.4" y2="51.92"/><line class="cls-8" x1="35.91" y1="59.89" x2="30.14" y2="59.89"/><line class="cls-8" x1="57.21" y1="59.89" x2="39.26" y2="59.89"/><path class="cls-9" d="M-13.33,105.49C-1.12,69.28,25.49,67.86,58.88,67.86V44H-22.33v66.6Z"/><path class="cls-8" d="M39.84,68.29c6-.37,12.41-.43,19-.43"/><path class="cls-8" d="M-13.33,105.49c9-26.8,26-34.54,47.67-36.75"/><line class="cls-8" x1="34.88" y1="43.95" x2="-14.14" y2="43.95"/><line class="cls-8" x1="58.88" y1="43.95" x2="49.81" y2="43.95"/><line class="cls-8" x1="39.84" y1="43.95" x2="44.86" y2="43.95"/><path class="cls-10" d="M164.1,250.65c3-.17,6.11,1,9.07.38s5.67-1.69,8.65-2.56c2.76-.81,5.48-2.13,8.5-3,2.75-.78,5.72-1.2,8.79-1.89,2.78-.63,5.73-1,8.86-1.51,2.81-.42,5.7-1.69,8.85-1.9,2.84-.2,5.88,0,9,0s6.26.47,9,.65a86.44,86.44,0,0,1,8.84,1.47c3.38.55,6.59-.17,9.09.59,3.22,1,5.42,3.45,7.94,4.48,2.78,1.14,5.69,1.35,8.72,2.17,2.54.69,5.22,2.12,8.67,2.32,2.59.15,5.49-1.22,8.91-1.46"/><path class="cls-8" d="M164.1,250.65c3-.17,6.11,1,9.07.38s5.67-1.69,8.65-2.56c2.76-.81,5.48-2.13,8.5-3,2.75-.78,5.72-1.2,8.79-1.89,2.78-.63,5.73-1,8.86-1.51,2.81-.42,5.7-1.69,8.85-1.9,2.84-.2,5.88,0,9,0s6.26.47,9,.65a86.44,86.44,0,0,1,8.84,1.47c3.38.55,6.59-.17,9.09.59,3.22,1,5.42,3.45,7.94,4.48,2.78,1.14,5.69,1.35,8.72,2.17,2.54.69,5.22,2.12,8.67,2.32,2.59.15,5.49-1.22,8.91-1.46"/><path class="cls-10" d="M252.76,255.11c-.48,0-.93.39-1.39.34A7.9,7.9,0,0,1,250,255a7.8,7.8,0,0,1-1.38-.38c-.42-.23-.59-.78-1-1.08a6.36,6.36,0,0,1-1-.94c-.3-.37-.92-.52-1.15-.94a7.89,7.89,0,0,1-.75-1.29c-.13-.45.2-1,.16-1.51a7.31,7.31,0,0,1-.23-1.44,7.14,7.14,0,0,1,.43-1.38,7.66,7.66,0,0,1,.6-1.3,7.92,7.92,0,0,1,.72-1.23,7.18,7.18,0,0,1,.93-1.12c.36-.3,1.05-.1,1.47-.33s.64-.89,1.1-1a7,7,0,0,1,1.42-.49,7.41,7.41,0,0,1,1.49.08,7.76,7.76,0,0,1,1.39.52c.45.14.78.58,1.19.8s1.13.06,1.49.36.44.94.74,1.31a6.64,6.64,0,0,1,.8,1.16,7.81,7.81,0,0,1,.69,1.27,8,8,0,0,1,.38,1.4c0,.48-.27,1-.31,1.44a7,7,0,0,1-.27,1.38,7.26,7.26,0,0,1-.69,1.21c-.23.42,0,1.17-.29,1.54s-.87.54-1.24.84-.63.84-1.05,1.07-1.11-.17-1.57,0A6.11,6.11,0,0,1,252.76,255.11Z"/><path class="cls-45" d="M258.27,251.52c-.23.42,0,1.17-.29,1.54s-.87.54-1.24.84"/><path class="cls-8" d="M245.73,244.78a7.92,7.92,0,0,1,.72-1.23,7.18,7.18,0,0,1,.93-1.12c.36-.3,1.05-.1,1.47-.33s.64-.89,1.1-1a7,7,0,0,1,1.42-.49,7.41,7.41,0,0,1,1.49.08,7.76,7.76,0,0,1,1.39.52c.45.14.78.58,1.19.8s1.13.06,1.49.36.44.94.74,1.31a6.64,6.64,0,0,1,.8,1.16,7.81,7.81,0,0,1,.69,1.27,8,8,0,0,1,.38,1.4c0,.48-.27,1-.31,1.44"/><path class="cls-45" d="M245.52,251.7a7.89,7.89,0,0,1-.75-1.29c-.13-.45.2-1,.16-1.51a7.31,7.31,0,0,1-.23-1.44"/><path class="cls-55" d="M235,188h0a3.12,3.12,0,0,1,3.12,3.12v7.31a0,0,0,0,1,0,0h-6.24a0,0,0,0,1,0,0v-7.31A3.12,3.12,0,0,1,235,188Z"/><polygon class="cls-10" points="227.34 198.47 227.34 200.98 228.47 200.98 229.05 209.07 233.55 209.07 238.05 209.07 238.63 200.98 239.76 200.98 239.76 198.47 227.34 198.47"/><polygon class="cls-56" points="227.34 198.47 227.34 200.98 228.47 200.98 229.05 209.07 233.55 209.07 238.05 209.07 238.63 200.98 239.76 200.98 239.76 198.47 227.34 198.47"/><line class="cls-57" x1="238.63" y1="200.98" x2="232.87" y2="200.98"/><line class="cls-57" x1="228.47" y1="200.98" x2="229.97" y2="200.98"/><path class="cls-58" d="M231.84,191.42h0a2.65,2.65,0,0,1,2.65,2.65v4.4a0,0,0,0,1,0,0h-5.3a0,0,0,0,1,0,0v-4.4A2.65,2.65,0,0,1,231.84,191.42Z"/><path class="cls-8" d="M232.23,189.65A3.12,3.12,0,0,1,235,188h0a3.12,3.12,0,0,1,3.12,3.12v7.31h-3.59"/><path class="cls-8" d="M234.35,193.22a2.66,2.66,0,0,1,.14.85v4.4h-5.3v-4.4a2.65,2.65,0,0,1,2.65-2.65h0a2.69,2.69,0,0,1,1,.2"/><path class="cls-59" d="M234.49,193.67h0a1.26,1.26,0,0,1,1.26,1.26v3.55a0,0,0,0,1,0,0h-2.51a0,0,0,0,1,0,0v-3.55A1.26,1.26,0,0,1,234.49,193.67Z"/><line class="cls-60" x1="231.84" y1="194.07" x2="231.84" y2="198.47"/><line class="cls-8" x1="229.29" y1="193.34" x2="228.22" y2="192.82"/><line class="cls-8" x1="229.19" y1="196.27" x2="228.11" y2="196.47"/><line class="cls-8" x1="233.24" y1="188.56" x2="232.57" y2="187.72"/><line class="cls-8" x1="236.42" y1="188.4" x2="236.9" y2="187.49"/><line class="cls-8" x1="238.08" y1="191.16" x2="239.08" y2="191.09"/><line class="cls-8" x1="238.08" y1="196.27" x2="239.13" y2="196.37"/><line class="cls-8" x1="235.75" y1="194.92" x2="236.43" y2="194.54"/><line class="cls-8" x1="235.75" y1="197.12" x2="236.39" y2="197.26"/><rect class="cls-8" x="200.3" y="177.96" width="39.89" height="3.92"/><line class="cls-8" x1="206.94" y1="177.96" x2="206.94" y2="180.36"/><line class="cls-50" x1="208.43" y1="177.91" x2="208.43" y2="175.12"/><rect class="cls-8" x="202.63" y="175.12" width="33.11" height="2.85"/><rect class="cls-21" x="120.66" y="210.05" width="15.02" height="1.79"/><rect class="cls-8" x="112.02" y="201.14" width="23.67" height="37.67"/><line class="cls-8" x1="112.02" y1="219.46" x2="129.02" y2="219.46"/><line class="cls-8" x1="135.68" y1="219.46" x2="131.44" y2="219.46"/><rect class="cls-23" x="115.12" y="213.74" width="2.99" height="5.68"/><line class="cls-50" x1="118.11" y1="215.28" x2="118.11" y2="219.42"/><rect class="cls-8" x="115.12" y="213.74" width="7.94" height="5.68"/><rect class="cls-8" x="114.69" y="192.67" width="16.64" height="4.93"/><polyline class="cls-8" points="135.68 210.05 135.68 201.14 122.07 201.14 120.66 201.14 120.66 210.05 122.07 210.05 133.36 210.05"/><polygon class="cls-8" points="227.34 198.47 227.34 200.98 228.47 200.98 229.05 209.07 233.55 209.07 238.05 209.07 238.63 200.98 239.76 200.98 239.76 198.47 227.34 198.47"/><path class="cls-61" d="M227.59,204.39H223a2,2,0,0,0-2,2v2.69h8.51v-2.69A2,2,0,0,0,227.59,204.39Z"/><line class="cls-62" x1="221.06" y1="206.73" x2="225.94" y2="206.73"/><line class="cls-62" x1="228.02" y1="206.73" x2="229.57" y2="206.73"/><path class="cls-8" d="M223,204.39a2,2,0,0,0-2,2v2.69h8.51v-2.69a2,2,0,0,0-2-2H225"/><path class="cls-9" d="M171.76,195.11c19.47-13.85,74.37-17.15,71,16S196.19,247.37,168.27,251C116,257.74,36.67,275.14,28.45,337.81l177.84,2.13c-26.69-39,29.69-59.41,58.11-72,17.48-7.72,28.35-19.54,21.18-38.54-5-13.3-18.35-22.17-16.23-35,3.94-23.71,54.86-20.86,75.65-30.53l-32.78-55c-40.13,63.92-101.42,23.45-153,65.59Z"/><path class="cls-8" d="M168,168.18a90.72,90.72,0,0,0-8.79,6.35"/><path class="cls-8" d="M293.4,130.84c-35.28,28.93-80.52,11.81-121.47,35"/><path class="cls-8" d="M279.78,181.13a64.07,64.07,0,0,1,15.78-5.94"/><path class="cls-8" d="M271.17,189.25a18.79,18.79,0,0,1,4.25-5.09"/><path class="cls-8" d="M246.13,276c6.58-3,12.92-5.63,18.27-8,17.48-7.72,28.35-19.54,21.18-38.54-5-13.3-18.35-22.17-16.23-35"/><path class="cls-8" d="M232.4,282.67c3.17-1.69,6.4-3.28,9.6-4.79"/><path class="cls-8" d="M211.88,296.43a94.92,94.92,0,0,1,16.63-11.62"/><path class="cls-8" d="M91.39,269.25C59.66,282.06,33,302.91,28.45,337.81l177.84,2.13"/><path class="cls-8" d="M190.25,187.41c23.66-5.67,55.09-1.61,52.55,23.75-3.34,33.32-46.61,36.21-74.53,39.82-20.92,2.71-46.19,7.12-69.49,15.46"/><path class="cls-8" d="M177.44,191.82a60.47,60.47,0,0,1,9.29-3.48"/><path class="cls-8" d="M171.76,195.11c.9-.64,1.88-1.26,2.93-1.86"/><polyline class="cls-13" points="203.23 116.72 213.89 129.38 213.89 95.33 197.62 95.33 197.62 110.06"/><rect class="cls-12" x="213.89" y="95.33" width="21.06" height="34.05"/><line class="cls-17" x1="217.8" y1="117.52" x2="233" y2="117.52"/><line class="cls-17" x1="217.8" y1="113.26" x2="234.95" y2="113.26"/><line class="cls-17" x1="220.95" y1="117.52" x2="220.95" y2="113.26"/><line class="cls-17" x1="231.02" y1="117.52" x2="231.02" y2="113.26"/><line class="cls-17" x1="225.96" y1="121.78" x2="225.96" y2="117.52"/><line class="cls-17" x1="225.96" y1="113.26" x2="225.96" y2="109"/><line class="cls-17" x1="223.97" y1="121.78" x2="231.02" y2="121.78"/><rect class="cls-19" x="213.89" y="87.07" width="24.41" height="8.27"/><rect class="cls-18" x="194.27" y="87.07" width="19.62" height="8.27" transform="translate(408.17 182.4) rotate(180)"/><rect class="cls-10" x="196.39" y="84.38" width="17.5" height="2.69"/><rect class="cls-23" x="213.89" y="84.38" width="22.29" height="2.69" transform="translate(450.07 171.44) rotate(180)"/><line class="cls-24" x1="212.39" y1="102.93" x2="203.02" y2="102.93"/><line class="cls-24" x1="213.89" y1="107.19" x2="207.71" y2="107.19"/><line class="cls-24" x1="210.8" y1="102.93" x2="210.8" y2="107.19"/><line class="cls-24" x1="205.74" y1="98.67" x2="205.74" y2="102.93"/><line class="cls-24" x1="200.73" y1="98.67" x2="213.89" y2="98.67"/><polyline class="cls-39" points="203.23 116.72 213.89 129.38 213.89 95.33 197.62 95.33 197.62 110.06"/><polyline class="cls-39" points="234.95 102.93 234.95 129.38 213.89 129.38 213.89 95.33 234.95 95.33 234.95 98.67"/><rect class="cls-8" x="194.27" y="87.07" width="44.03" height="8.27"/><polyline class="cls-8" points="224.09 84.38 236.18 84.38 236.18 87.07 196.39 87.07 196.39 84.38 221.72 84.38"/><polygon class="cls-8" points="236.18 87.07 236.18 84.38 224.09 84.38 221.72 84.38 213.89 84.38 196.39 84.38 196.39 87.07 194.27 87.07 194.27 95.33 197.62 95.33 197.62 110.06 203.23 116.72 213.89 129.38 234.95 129.38 234.95 102.93 234.95 98.67 234.95 95.33 238.3 95.33 238.3 87.07 236.18 87.07"/><path class="cls-10" d="M240.69,84.28c-.1-1.57-1.4-1.87-3-1.87-3.31,0-3.31-.47-6.63-.47s-3.31-.5-6.63-.5-3.31-.81-6.62-.81-3.32.48-6.64.48h-6.63c-3.32,0-3.32.71-6.64.71-1.6,0-3.36.57-3.46,2.14-1.23.37-1.5,1.83-1.5,3.18,0,1.13.15,1.13.15,2.26,0,3.17.59,5.06,2,6.19,1.61,1.27,3.85,1,6.5.76,2.13-.2,4.7.72,7,.21s4.42-2.26,6.53-2.48c2.7-.29,5.64-.39,7.17.93,2.73,2.34,3,5.89,2.89,8.61-.12,3.36-1.42,6.57,1.26,8.16,1.93,1.14,5.8-1.15,6.83,2.75,1,3.7,6.64,3.54,6.64-1.19,0-3.73-1.05-3.73-1.05-7.47s-.59-3.78-.42-7.51c0-.17,1.14.1,1.32.1,1.65,0,3.47-1.4,3.47-3,0-4.14-.63-4.14-.63-8.27A2.86,2.86,0,0,0,240.69,84.28Z"/><path class="cls-8" d="M240.69,84.28c-.1-1.57-1.4-1.87-3-1.87-3.31,0-3.31-.47-6.63-.47s-3.31-.5-6.63-.5-3.31-.81-6.62-.81-3.32.48-6.64.48h-6.63c-3.32,0-3.32.71-6.64.71-1.6,0-3.36.57-3.46,2.14-1.23.37-1.5,1.83-1.5,3.18,0,1.13.15,1.13.15,2.26,0,3.17.59,5.06,2,6.19,1.61,1.27,3.85,1,6.5.76,2.13-.2,4.7.72,7,.21s4.42-2.26,6.53-2.48c2.7-.29,5.64-.39,7.17.93,2.73,2.34,3,5.89,2.89,8.61-.12,3.36-1.42,6.57,1.26,8.16,1.93,1.14,5.8-1.15,6.83,2.75,1,3.7,6.64,3.54,6.64-1.19,0-3.73-1.05-3.73-1.05-7.47s-.59-3.78-.42-7.51c0-.17,1.14.1,1.32.1,1.65,0,3.47-1.4,3.47-3,0-4.14-.63-4.14-.63-8.27A2.86,2.86,0,0,0,240.69,84.28Z"/><path class="cls-45" d="M185,114.65c-5.56-.21-11.13,1.39-16.58.62-2-.29-3.57-5.29-5.35-7.34"/><path class="cls-45" d="M156.9,99.18c.7.79,1,2,1.75,2.78a20.63,20.63,0,0,1,2.34,2.15"/><path class="cls-45" d="M149.51,90.25a8.36,8.36,0,0,1,1.2,1.63"/><path class="cls-45" d="M195.91,98.05c-6-1.73-9.18.12-12.8.12"/><path class="cls-45" d="M184.19,93.23h-9.48"/><line class="cls-45" x1="186.91" y1="93.39" x2="189.03" y2="93.39"/><path class="cls-45" d="M231.65,86.31c.84-.09,1.7-.16,2.59-.21"/><path class="cls-45" d="M223.11,87.31c2-.1,3.87-.39,5.86-.66"/><path class="cls-45" d="M200.36,85.51c3.68-1.88,10.92-.25,14.6.84a23.51,23.51,0,0,0,5.58,1"/><path class="cls-10" d="M247.63,130.46c-5.68,3.09-19.61-.87-18.79,6.81,1.44,13.39,17,5.6,23.35-.84C256.47,132.77,251.94,128.11,247.63,130.46Z"/><path class="cls-8" d="M247.63,130.46c-5.68,3.09-19.61-.87-18.79,6.81,1.44,13.39,17,5.6,23.35-.84C256.47,132.77,251.94,128.11,247.63,130.46Z"/><path class="cls-41" d="M200,130.27c-.7.64-3.54.21-3.78,2.49-.27,2.51,5.48,5.64,7.53,3.49S202.88,127.63,200,130.27Z"/><path class="cls-41" d="M111.1,103c-3.38-.36-6.77,1.8-8.82,4.51s-3.33,5.94-5.21,8.77c-2.25,3.39-5.31,6.14-8.07,9.12a126.78,126.78,0,0,0-10,12.93A8.71,8.71,0,0,0,77.49,141a2.66,2.66,0,0,0,3.84,3.28A8,8,0,0,0,84,142.11a70.77,70.77,0,0,0,8.89-12.37,61.43,61.43,0,0,1,3.5-5.9c1.29-1.77,2.84-3.33,4.08-5.13a37.61,37.61,0,0,0,3.87-8.15"/><line class="cls-8" x1="111.1" y1="102.96" x2="104.22" y2="111.14"/><path class="cls-45" d="M232.5,137.89c-.3.29-.1.8.16,1.13a4.79,4.79,0,0,0,3.82,1.78,8.31,8.31,0,0,1,2.17,0,5.8,5.8,0,0,0,.72.17.66.66,0,0,0,.64-.28"/></g><rect class="cls-63" width="300" height="300"/></g></g></svg>