<svg id="Layer_1" data-name="Layer 1" xmlns="http://www.w3.org/2000/svg" xmlns:xlink="http://www.w3.org/1999/xlink" viewBox="0 0 300 300"><defs><style>.cls-1,.cls-12,.cls-14,.cls-17,.cls-18,.cls-21,.cls-22,.cls-30,.cls-31,.cls-5,.cls-9{fill:none;}.cls-2{clip-path:url(#clip-path);}.cls-3{fill:#50e5ff;}.cls-4{fill:#78fff5;}.cls-14,.cls-31,.cls-5,.cls-6{stroke:#47cdf0;}.cls-12,.cls-17,.cls-18,.cls-19,.cls-21,.cls-22,.cls-27,.cls-28,.cls-30,.cls-31,.cls-5,.cls-6,.cls-7,.cls-9{stroke-linejoin:round;}.cls-6{fill:#b0ffe7;}.cls-12,.cls-17,.cls-18,.cls-19,.cls-21,.cls-22,.cls-27,.cls-28,.cls-30,.cls-31,.cls-6,.cls-7,.cls-9{stroke-linecap:round;}.cls-11,.cls-13,.cls-15,.cls-23,.cls-7{fill:#fff;}.cls-12,.cls-19,.cls-27,.cls-28,.cls-7{stroke:#5389d6;}.cls-8{fill:#47cdf0;}.cls-9{stroke:#ace3f5;}.cls-10,.cls-15{opacity:0.5;}.cls-13{opacity:0.59;}.cls-14,.cls-23{stroke-miterlimit:10;}.cls-14,.cls-31{stroke-width:3px;}.cls-16,.cls-19{fill:#daefca;}.cls-17{stroke:#b1d9b0;}.cls-18{stroke:#89bd99;}.cls-20,.cls-27{fill:#e6ebee;}.cls-21,.cls-22{stroke:#b7b9c9;}.cls-22{stroke-dasharray:0.94 2.83;}.cls-23{stroke:#fff;}.cls-24{fill:#9aa6c8;}.cls-25{fill:#c8d8eb;}.cls-26{fill:#5389d6;}.cls-28,.cls-29{fill:#ffeaaa;}.cls-30{stroke:#ef9c80;}</style><clipPath id="clip-path"><rect class="cls-1" width="300" height="300"/></clipPath></defs><g class="cls-2"><rect class="cls-3" x="-7.48" y="-7.48" width="314.96" height="314.96"/><path class="cls-4" d="M-22.1,255.37c21.91,6.48,53.55,4.64,64-32.26,13.2-46.54,40.19-55.82,64.63-57.76,107.57-8.53,59.27-76.49,127.25-85.68,47.56-6.44,61.68-15.18,67.78-59.27l-1.7-171.49L-78-13.11Z"/><path class="cls-5" d="M-22.1,255.37c21.91,6.48,53.55,4.64,64-32.26,13.2-46.54,40.19-55.82,64.63-57.76,107.57-8.53,59.27-76.49,127.25-85.68,47.56-6.44,61.68-15.18,67.78-59.27l-1.7-171.49L-78-13.11Z"/><path class="cls-6" d="M-24.77,97.55C20,117,54.78,35.87,124.31,36c21.83-.92,53.88.2,80.89-11.07,32.33-13.49,45.5-52.64,28.23-87.19L-60.39,16Z"/><path class="cls-7" d="M192.44,292.42a21.28,21.28,0,0,0-3.93.38,14.57,14.57,0,0,0-10.25-6.67,9.05,9.05,0,1,0-16.72-4.93,21,21,0,0,0-25.13,1.53,9.66,9.66,0,1,0-9,13.2,10.19,10.19,0,0,0,1.76-.16,20.22,20.22,0,0,0-.25,3,21,21,0,0,0,37.71,12.86,14.74,14.74,0,0,0,4.44,2.6,21.37,21.37,0,1,0,21.35-21.85Z"/><path class="cls-7" d="M24.66,208.77a9.35,9.35,0,0,0-8.06-14.12h0A16.66,16.66,0,0,0-.07,178.74a16.68,16.68,0,0,0-16.67,16.67,16.63,16.63,0,0,0,6.2,13,13.56,13.56,0,0,0-2.85,8.32A13.65,13.65,0,0,0,.26,230.35c.23,0,.44,0,.66,0a17.51,17.51,0,1,0,23.74-21.55Z"/><path class="cls-8" d="M175.57,55.29a11.19,11.19,0,0,0-5.41-14.88,12.55,12.55,0,0,0-1.28-.5,8.33,8.33,0,0,0-14.09-8.29,8.41,8.41,0,0,0-14.68,1,8.15,8.15,0,0,0-.78,3.12,1.64,1.64,0,0,0-.29-.16,2,2,0,0,0-2.61.94,2.29,2.29,0,0,0-.17.62,6.69,6.69,0,0,0-5.91,1.68L173,58.77A11,11,0,0,0,175.57,55.29Z"/><path class="cls-7" d="M260.68,147.66a2.42,2.42,0,0,0-1.16-3.19l-5.12-2.38a10.63,10.63,0,0,0-6-11.55,11.46,11.46,0,0,0-2.06-.72,10.07,10.07,0,0,0-16.68-10.53,8,8,0,0,0-14.17.72,7.36,7.36,0,0,0-.52,1.47,5.46,5.46,0,0,0-6.48,2.92,7.19,7.19,0,0,0-.3.85,24.47,24.47,0,0,0-6.82,3l4,1.84,33.43,15.59,8.43,3.93,8.34,3.89.72.34a5.82,5.82,0,0,0,.34-.6,5,5,0,0,0-.46-5l1.32.61A2.41,2.41,0,0,0,260.68,147.66Z"/><path class="cls-9" d="M249.4,145.91a4.17,4.17,0,0,0-2.39-3.62,4.1,4.1,0,0,0-1.66-.38,6.37,6.37,0,0,0-11.83-4.65,6.26,6.26,0,0,0-.39,1.07"/><path class="cls-9" d="M222.89,129.14a2.23,2.23,0,0,0-4.32-.4"/><circle class="cls-7" cx="200.4" cy="118.01" r="2.92"/><circle class="cls-7" cx="219.09" cy="105.04" r="1.44"/><rect class="cls-7" x="256.13" y="128.58" width="6.23" height="3.37" rx="1.69" transform="translate(79.34 -97.36) rotate(25)"/><path class="cls-7" d="M139.37,40.1a20.79,20.79,0,0,0-3.59-1.28,14.62,14.62,0,0,0-4.66-17.39A16.19,16.19,0,0,0,105.51,3,9.2,9.2,0,0,0,93.24.58,20.63,20.63,0,0,0,89.11-2a20.82,20.82,0,0,0-6.22-1.8L71.41-9.14a2.28,2.28,0,0,0-3,1.1,2.29,2.29,0,0,0,1.1,3l4.42,2.06A20.91,20.91,0,0,0,61.23,8.15a21.17,21.17,0,0,0-1.61,5.17,14.18,14.18,0,0,0-10.85,4.21L150.41,64.92A20.71,20.71,0,0,0,139.37,40.1Z"/><path class="cls-7" d="M132.12,58.3A14.64,14.64,0,0,0,110.69,40a11.35,11.35,0,0,0-16.45,1.82l37.39,17.44C131.8,58.92,132,58.62,132.12,58.3Z"/><path class="cls-9" d="M95.82,27.55A8.29,8.29,0,0,0,97,25.75a8.56,8.56,0,0,0-14.72-8.6,3.73,3.73,0,0,0-6.33.75c0,.1-.07.21-.1.31"/><rect class="cls-7" x="43.13" y="-1.72" width="15.53" height="7.06" rx="3.53" transform="translate(5.53 -21.34) rotate(25)"/><rect class="cls-7" x="283.98" y="163.89" width="9.12" height="3.08" rx="1.54" transform="translate(96.95 -106.44) rotate(25)"/><circle class="cls-7" cx="223.88" cy="146.01" r="2.14"/><path class="cls-7" d="M297,185l-11.66-5.44a12.86,12.86,0,0,0-7.12-8.83,11.77,11.77,0,0,0-1.68-.63,8.76,8.76,0,0,0-6.45-11.74,18.17,18.17,0,0,0-34.49-9.93,17.6,17.6,0,0,0-1,2.52,14.31,14.31,0,0,0-11,2.58,14.31,14.31,0,0,0-4.74-3.55A14.46,14.46,0,0,0,200,156.39l89.64,41.8a10.65,10.65,0,0,0-6.07-8.35l-.19-.08a12.53,12.53,0,0,0,1.12-1.92,12.77,12.77,0,0,0,.89-2.61l9.47,4.42a2.59,2.59,0,0,0,3.43-1.25h0A2.59,2.59,0,0,0,297,185Z"/><rect class="cls-7" x="293.37" y="175.3" width="5.64" height="2.82" rx="1.41" transform="translate(102.43 -108.62) rotate(25)"/><path class="cls-9" d="M225.67,156.37a14.46,14.46,0,0,1,1.59,5.46"/><path class="cls-9" d="M274.24,181.06a8,8,0,0,0-12-9.72l-.14-.08c-4.31-2-11.61-1.77-16.06,3.39"/><path class="cls-9" d="M251.78,152.49a4.61,4.61,0,0,1,6.86,6.13"/><path class="cls-8" d="M244.23,215.23a5,5,0,0,1,.44-1.46,5.18,5.18,0,0,1,6.88-2.51,5,5,0,0,1,1,.61,3.83,3.83,0,0,1,5.62,4.69,1.54,1.54,0,0,1,2.13,2,1.36,1.36,0,0,1-.24.38l.06,0a4.3,4.3,0,0,1,2.08,5.71,4.26,4.26,0,0,1-.87,1.24l-20.51-9.56A2.63,2.63,0,0,1,244.23,215.23Z"/><g class="cls-10"><path class="cls-11" d="M269,53.93a7.49,7.49,0,0,0-2.42-11.79,7.34,7.34,0,0,0-1.58-.53,5.54,5.54,0,0,0-10.42-1.87,2.23,2.23,0,0,0-4.21-.49,2.11,2.11,0,0,0-.19.62l-.08,0A6.23,6.23,0,0,0,241.26,45l29.65,13.82A3.83,3.83,0,0,0,269,53.93Z"/></g><path class="cls-8" d="M87.91,165.79a5,5,0,0,0-2.23-6.57A10.58,10.58,0,0,0,88,156.08,10.46,10.46,0,0,0,80,141.32a10.45,10.45,0,0,0-19.87-5.55s0,.08-.05.13h0a14.81,14.81,0,0,0-20.53,9.38l47.23,22A5.08,5.08,0,0,0,87.91,165.79Z"/><path class="cls-7" d="M129,158.38A15.49,15.49,0,0,0,123.5,157a13.37,13.37,0,0,0-10.27-12.34,12.47,12.47,0,0,0,.66-1.19,11.11,11.11,0,0,0-15.23-14.55A6.22,6.22,0,0,0,96,126.53a6.31,6.31,0,0,0-8,2.36,15.07,15.07,0,0,0-19,7.72,13.72,13.72,0,0,0-.54,1.33,11.39,11.39,0,0,0-8,2.22l77.26,36A15.77,15.77,0,0,0,129,158.38Z"/><circle class="cls-7" cx="83.71" cy="117.92" r="2.28"/><circle class="cls-7" cx="67.26" cy="129.25" r="1.54"/><path class="cls-9" d="M117.75,158.41a6.63,6.63,0,0,0-10.56-7.62,5.64,5.64,0,0,0-.92-.56,5.24,5.24,0,0,0-7,2.53,5.36,5.36,0,0,0-.45,1.53"/><path class="cls-9" d="M88.18,136a4.37,4.37,0,0,1,3.65-.28,4.42,4.42,0,0,1,2.63,5.68"/><path class="cls-12" d="M268.46,57.63l2.45,1.14A3.83,3.83,0,0,0,269,53.93a7.49,7.49,0,0,0-2.42-11.79,7.34,7.34,0,0,0-1.58-.53,5.55,5.55,0,0,0-3.16-4.36"/><line class="cls-12" x1="260.48" y1="53.91" x2="265.25" y2="56.13"/><path class="cls-12" d="M256.94,37.35a5.5,5.5,0,0,0-2.38,2.39,2.23,2.23,0,0,0-4.21-.49,2.11,2.11,0,0,0-.19.62l-.08,0A6.23,6.23,0,0,0,241.26,45L257,52.27"/><g class="cls-10"><path class="cls-11" d="M151.34,249.52a12.55,12.55,0,0,1,18.09-5.36,9.38,9.38,0,0,1,17.34,6.15,9.48,9.48,0,0,1,7.6,16.34,2.42,2.42,0,0,1,.35.12,2.22,2.22,0,0,1,1.07,2.94,2.49,2.49,0,0,1-.41.59,7.56,7.56,0,0,1,2.83,6.31l-48-22.4A12.56,12.56,0,0,1,151.34,249.52Z"/></g><path class="cls-12" d="M150.17,254.21a12.64,12.64,0,0,1,9.8-11.66"/><path class="cls-12" d="M196.5,263.72a9.41,9.41,0,0,1-2.13,2.93,2.42,2.42,0,0,1,.35.12,2.22,2.22,0,0,1,1.07,2.94,2.49,2.49,0,0,1-.41.59,7.56,7.56,0,0,1,2.83,6.31l-45-21"/><path class="cls-12" d="M191.92,251.12a9.44,9.44,0,0,1,4.68,4.81"/><path class="cls-12" d="M163.92,242.29a12.43,12.43,0,0,1,5.51,1.87,9.38,9.38,0,0,1,17.34,6.15"/><circle class="cls-13" cx="42.42" cy="109.88" r="5.21"/><path class="cls-12" d="M41.3,104.79a5.23,5.23,0,1,1-2.75,1.61"/><circle class="cls-14" cx="72.33" cy="61.04" r="3.88"/><circle class="cls-14" cx="140.81" cy="115.37" r="7.32"/><circle class="cls-14" cx="243.91" cy="81.18" r="3.44"/><circle class="cls-14" cx="239.72" cy="-2.95" r="14.05"/><circle class="cls-14" cx="294.41" cy="300" r="24.27"/><rect class="cls-15" x="-7.01" y="22.42" width="33.56" height="12.28" rx="6.14" transform="translate(12.99 -1.45) rotate(25)"/><path class="cls-12" d="M16.82,38.62l-19.29-9a6.16,6.16,0,0,1-3-8.16h0a6.16,6.16,0,0,1,8.16-3"/><path class="cls-12" d="M24.08,37a6.19,6.19,0,0,1-4.15,2.13"/><path class="cls-12" d="M7.72,20.83,22,27.49a6.18,6.18,0,0,1,3.46,6.62"/><path class="cls-16" d="M-11.72,218.85v92.41H161.54A828.32,828.32,0,0,0-11.72,218.85Z"/><path class="cls-12" d="M97.12,270.63a828,828,0,0,0-76.27-38.3"/><path class="cls-12" d="M125.42,287.46q-10.22-6.34-20.64-12.43"/><path class="cls-12" d="M14.64,229.63q-13-5.59-26.36-10.78v92.41H161.54Q147,301.09,131.91,291.54"/><path class="cls-17" d="M58.28,299.58a1.15,1.15,0,0,0-.51-.74,3,3,0,0,0-.36-.19l.33-.24a1.16,1.16,0,0,0,.16-1.64,1.12,1.12,0,0,0-.61-.39,1.13,1.13,0,0,0-1,.23,2.62,2.62,0,0,0-.3.28,3.56,3.56,0,0,0-.13-.39,1.13,1.13,0,0,0-.79-.7,1.11,1.11,0,0,0-.72,0,1.18,1.18,0,0,0-.66,1.52c.05.12.11.24.18.37h-.41a1.17,1.17,0,0,0-.22,2.3,1.47,1.47,0,0,0,.36,0L54,300a2.54,2.54,0,0,0-.13.39,1.17,1.17,0,1,0,2.26.59,3.73,3.73,0,0,0,.08-.41,2.39,2.39,0,0,0,.33.25,1.22,1.22,0,0,0,.33.14,1.16,1.16,0,0,0,1.28-.5A1.14,1.14,0,0,0,58.28,299.58Z"/><path class="cls-18" d="M41.82,260.61a1.05,1.05,0,0,0,.48-.61c0-.11.05-.23.07-.35.1.08.19.16.28.22a1,1,0,0,0,1.41-.27.94.94,0,0,0,.18-.6,1,1,0,0,0-.45-.81l-.31-.18a2.23,2.23,0,0,0,.3-.2,1,1,0,0,0,.39-.83,1,1,0,0,0-.22-.59,1,1,0,0,0-.67-.39,1,1,0,0,0-.75.21l-.27.24a2.75,2.75,0,0,0-.1-.34,1,1,0,0,0-.52-.58,1.05,1.05,0,0,0-.78,0,1,1,0,0,0-.66,1,.85.85,0,0,0,.06.31,2.33,2.33,0,0,0,.14.33,2.3,2.3,0,0,0-.36,0,1,1,0,0,0,.07,2l.36,0a2.67,2.67,0,0,0-.12.33.85.85,0,0,0,0,.32,1,1,0,0,0,.73.94A1.06,1.06,0,0,0,41.82,260.61Z"/><path class="cls-19" d="M18.56,232.33c5.35-4.4,9.91-.91,9.84,5,4.63-3.38,7.61.39,7.6,3.27"/><path class="cls-17" d="M90.25,293.5c.83-2.19,5.61-1.68,4.35,2.16,3.39-1.4,7.26,1.28,5.45,5.26"/><path class="cls-18" d="M-1.51,266.82c0-2.27,3.5-2.32,3.72-.34a2.25,2.25,0,0,1,4,2.11,2,2,0,0,1,3.13,1.55"/><circle class="cls-17" cx="24.54" cy="292.93" r="1.28"/><circle class="cls-17" cx="3.9" cy="247.51" r="3.97"/><circle class="cls-18" cx="70.23" cy="281.25" r="2.33"/><path class="cls-20" d="M70.6,198.1a22.06,22.06,0,0,0-2.15,3.25,19.6,19.6,0,0,0-2.25,6.94,14.69,14.69,0,0,0,1.09,7.83,9.65,9.65,0,0,0,5.44,5.16,5.85,5.85,0,0,0,4.91-.47A8,8,0,0,0,81,217.29a10.29,10.29,0,0,0,.3-9.26c-1.19-2.85-3.25-6-5-9.22C75.29,197,72.14,196.23,70.6,198.1Z"/><path class="cls-12" d="M68.45,201.35a39.73,39.73,0,0,0-4,3.8"/><path class="cls-12" d="M68.43,204.3a42.84,42.84,0,0,0-3.74,4.06"/><path class="cls-12" d="M68.63,207.24a41,41,0,0,0-3.46,4.31"/><path class="cls-12" d="M77.94,201.73a32.62,32.62,0,0,0,4,2.62"/><path class="cls-12" d="M77.92,204a34.27,34.27,0,0,0,4.21,2.33"/><path class="cls-12" d="M78.08,206.3a33.57,33.57,0,0,0,4.35,2"/><path class="cls-12" d="M73.65,197.06a3.65,3.65,0,0,1,2.63,1.75c.55,1,1.09,1.95,1.66,2.92"/><path class="cls-12" d="M76.41,220.75c.19.52.4,1,.61,1.55"/><path class="cls-12" d="M74.65,221.35c0,.57.09,1.13.15,1.7"/><path class="cls-21" d="M78.9,213a1.74,1.74,0,0,1,.09.43"/><path class="cls-22" d="M78.18,216a5.08,5.08,0,0,1-2.09,1.62,4,4,0,0,1-4.07-.39"/><path class="cls-21" d="M71,216c-.07-.17-.14-.34-.2-.51"/><path class="cls-12" d="M78.28,219.77c.3.43.63.84.94,1.25"/><path class="cls-12" d="M79.81,218.71c.38.29.81.55,1.21.82"/><path class="cls-23" d="M72.6,209.88a38.28,38.28,0,0,1,.53-16,1.07,1.07,0,0,1,1.38-.66,1.1,1.1,0,0,1,.88,1.23,36,36,0,0,0-.5,15.07,1.08,1.08,0,0,1-1,1.17A1.09,1.09,0,0,1,72.6,209.88Z"/><path class="cls-12" d="M66.08,210.3c0,4.74,2.21,9.37,6.65,11"/><path class="cls-12" d="M81.22,207.84a10.39,10.39,0,0,1-.23,9.45"/><path class="cls-21" d="M74.89,209.47a1.08,1.08,0,0,1-1,1.17,1.09,1.09,0,0,1-1.34-.76,39.07,39.07,0,0,1-.42-10.58"/><path class="cls-12" d="M72.47,197.05a32.83,32.83,0,0,1,.66-3.22,1.07,1.07,0,0,1,1.38-.66,1.1,1.1,0,0,1,.88,1.23,36.15,36.15,0,0,0-.79,13.15"/><path class="cls-12" d="M72.47,197.05a3,3,0,0,0-1.87,1,22.06,22.06,0,0,0-2.15,3.25"/><path class="cls-20" d="M139.31,271.75c-2-.22-4.11-.39-6.21-.52a70.63,70.63,0,0,0-10.8.08c-7.66.76-14.24,3.35-18.2,11-2.65,5.12-1.17,12.21,4.08,15.26,6.71,3.91,14.15,2.72,20.54-1.05s11.69-10.06,15.16-16C145.93,276.93,143.17,272.13,139.31,271.75Z"/><path class="cls-12" d="M133.1,271.23c-2.64-1.3-5.22-2.64-7.75-4.06"/><path class="cls-12" d="M129.08,273.11c-2.61-1.37-5.15-2.78-7.64-4.26"/><path class="cls-12" d="M125,274.88c-2.56-1.42-5.08-2.93-7.52-4.46"/><path class="cls-12" d="M140.23,286c-.79,2.94-1.66,5.91-2.62,8.85"/><path class="cls-12" d="M135.8,288c-.87,2.92-1.82,5.86-2.86,8.78"/><path class="cls-12" d="M131.32,290c-.95,2.91-2,5.8-3.09,8.71"/><line class="cls-12" x1="103.81" y1="288.68" x2="100.98" y2="288.99"/><line class="cls-12" x1="103.46" y1="285.49" x2="100.78" y2="284.95"/><path class="cls-21" d="M117.7,294.09a7.22,7.22,0,0,1-.89.22"/><path class="cls-22" d="M111.86,292.92a7.71,7.71,0,0,1-2.51-3.87,7.79,7.79,0,0,1,1.17-6.9"/><path class="cls-21" d="M112.38,280.59a4.82,4.82,0,0,1,.77-.33"/><line class="cls-12" x1="104.71" y1="292.2" x2="102" y2="293.25"/><line class="cls-12" x1="105.95" y1="295.15" x2="103.68" y2="296.92"/><path class="cls-11" d="M122.59,282.5a170.68,170.68,0,0,0,24.88-11.93,2,2,0,0,1,2,3.46A174.61,174.61,0,0,1,124,286.25a2,2,0,0,1-1.44-3.75Z"/><path class="cls-12" d="M119.52,271.68c-6.47,1.11-11.94,3.92-15.42,10.63"/><path class="cls-12" d="M129.13,296.27c-6.48,4-14.1,5.29-20.95,1.3"/><path class="cls-21" d="M124,286.25a2,2,0,0,1-1.44-3.75,172.5,172.5,0,0,0,16.56-7.38"/><path class="cls-12" d="M142.58,273.31a5.53,5.53,0,0,0-3.27-1.56c-2-.22-4.11-.39-6.21-.52"/><path class="cls-21" d="M141.54,278.4c-4.61,2.38-9.34,4.56-14.15,6.52"/><path class="cls-12" d="M142.58,273.31c1.65-.88,3.27-1.81,4.89-2.74a2,2,0,0,1,2,3.46c-1.65,1-3.32,1.9-5,2.81"/><path class="cls-12" d="M144.49,276.84a5.26,5.26,0,0,1-.61,3.64,55.45,55.45,0,0,1-3.65,5.48"/><polygon class="cls-24" points="225.2 222.46 232.03 247.61 235.8 239.63 225.2 222.46"/><polygon class="cls-11" points="235.8 239.63 242.15 245.1 225.2 222.46 235.8 239.63"/><polygon class="cls-25" points="234.02 239.04 232.03 247.61 225.2 222.46 234.02 239.04"/><polygon class="cls-11" points="225.2 222.46 224.11 248.46 234.02 239.04 225.2 222.46"/><polyline class="cls-12" points="230.59 242.31 232.03 247.61 235.8 239.63 242.15 245.1 231.6 231.01"/><polyline class="cls-12" points="229.69 228.45 225.2 222.46 224.11 248.46 232.01 240.95"/><polygon class="cls-24" points="113.69 87.14 94.51 92.28 98.32 86.73 113.69 87.14"/><polygon class="cls-11" points="98.32 86.73 92.29 84.64 113.69 87.14 98.32 86.73"/><polygon class="cls-25" points="99.39 87.68 94.51 92.28 113.69 87.14 99.39 87.68"/><polygon class="cls-11" points="113.69 87.14 96.98 97.81 99.39 87.68 113.69 87.14"/><polyline class="cls-12" points="98.55 91.19 94.51 92.28 98.32 86.73 92.29 84.64 105.6 86.2"/><polyline class="cls-12" points="108.02 86.48 113.69 87.14 96.98 97.81 98.9 89.74"/><circle class="cls-7" cx="24.28" cy="185.06" r="2.32"/><path class="cls-9" d="M170.52,297.54a5.63,5.63,0,0,0-7.43-1.89A8.67,8.67,0,0,0,146,297.54"/><circle class="cls-7" cx="146.82" cy="261.08" r="2.79"/><path class="cls-9" d="M16.81,224.07a5.13,5.13,0,0,0,.62-2.4,5.05,5.05,0,0,0-3.89-4.92,9.24,9.24,0,0,0,.3-2.3A9.07,9.07,0,1,0-4,216.74"/><path class="cls-7" d="M28.65,215.06a5.7,5.7,0,1,1,3,7.47"/><path class="cls-25" d="M192.06,192.28a.87.87,0,0,1-.77-.47,2.08,2.08,0,0,0-1.09-.95,3.73,3.73,0,0,0-1.34-.22h-.28a6.38,6.38,0,0,0-3.22,1.11.55.55,0,0,1-.15.08l-.44.13a1.66,1.66,0,0,1-.49.07,1.68,1.68,0,0,1-1.62-1.2,1.44,1.44,0,0,1-.07-.36,7.44,7.44,0,0,0-.76-3,2.2,2.2,0,0,0-.82-.88,1.54,1.54,0,0,0-.73-.17,2.59,2.59,0,0,0-.47.05l-.18,0a.87.87,0,0,1-.41-1.64,3.86,3.86,0,0,1,1.77-.44,3.16,3.16,0,0,1,.76.08,4.61,4.61,0,0,1,2.23,1.3,9.24,9.24,0,0,1,1.51,2.15,9.65,9.65,0,0,1,1.69-.15,9.49,9.49,0,0,1,1.59.14,6.25,6.25,0,0,1,2.5,1,3.92,3.92,0,0,1,1.64,2.3.88.88,0,0,1-.64,1Z"/><path class="cls-26" d="M181,184.9a2.94,2.94,0,0,1,.65.07,4.13,4.13,0,0,1,2,1.16,8.57,8.57,0,0,1,1.59,2.37,9.37,9.37,0,0,1,2-.22,9.62,9.62,0,0,1,1.51.13,5.84,5.84,0,0,1,2.3.91,3.51,3.51,0,0,1,1.43,2,.37.37,0,0,1-.27.45h-.09a.4.4,0,0,1-.33-.2h0a2.48,2.48,0,0,0-1.35-1.18,4.05,4.05,0,0,0-1.52-.26h-.31a6.86,6.86,0,0,0-3.48,1.21h0l-.45.13a1,1,0,0,1-.34.05,1.19,1.19,0,0,1-1.14-.84,1.32,1.32,0,0,1,0-.26,7.74,7.74,0,0,0-.83-3.21,2.64,2.64,0,0,0-1-1.08,2,2,0,0,0-1-.23,2.76,2.76,0,0,0-.57.06h-.08a.37.37,0,0,1-.36-.29.36.36,0,0,1,.19-.41,3.33,3.33,0,0,1,1.53-.38m0-1a4.37,4.37,0,0,0-2,.49,1.39,1.39,0,0,0-.71,1.52,1.36,1.36,0,0,0,1.34,1.07,1.53,1.53,0,0,0,.3,0,1.34,1.34,0,0,1,.35,0,1,1,0,0,1,.48.11,1.65,1.65,0,0,1,.63.69,6.73,6.73,0,0,1,.7,2.79,3.41,3.41,0,0,0,.09.48,2.18,2.18,0,0,0,2.1,1.55,2.23,2.23,0,0,0,.63-.09l.45-.13a1.14,1.14,0,0,0,.29-.15,5.9,5.9,0,0,1,3-1h.25a3.17,3.17,0,0,1,1.16.19,1.51,1.51,0,0,1,.82.71,1.37,1.37,0,0,0,1.22.74,1.12,1.12,0,0,0,.32,0,1.37,1.37,0,0,0,1-1.65,4.53,4.53,0,0,0-1.85-2.6,6.85,6.85,0,0,0-2.68-1.06,9.74,9.74,0,0,0-1.69-.15,11.3,11.3,0,0,0-1.42.1,9.34,9.34,0,0,0-1.42-1.94,5.05,5.05,0,0,0-2.49-1.45,4,4,0,0,0-.86-.09Z"/><path class="cls-8" d="M217.22,199.73a.61.61,0,0,1-.55-.33,2.26,2.26,0,0,0-1.22-1.07,4,4,0,0,0-1.43-.24h-.3a6.6,6.6,0,0,0-3.35,1.15l-.52.17a1.14,1.14,0,0,1-.41.07,1.46,1.46,0,0,1-1.44-1.34,7.48,7.48,0,0,0-.8-3.11,2.39,2.39,0,0,0-.91-1,1.67,1.67,0,0,0-.85-.21,2.37,2.37,0,0,0-.52.06h-.13a.62.62,0,0,1-.29-1.17,3.6,3.6,0,0,1,1.65-.41,3.19,3.19,0,0,1,.7.08,4.28,4.28,0,0,1,2.11,1.23,8.81,8.81,0,0,1,1.55,2.26,9.38,9.38,0,0,1,1.83-.18,8.89,8.89,0,0,1,1.54.13,6.14,6.14,0,0,1,2.41.94,3.84,3.84,0,0,1,1.54,2.16.65.65,0,0,1-.08.47.62.62,0,0,1-.39.28Z"/><path class="cls-8" d="M206.15,192.6a2.94,2.94,0,0,1,.65.07,4.07,4.07,0,0,1,2,1.17,8.68,8.68,0,0,1,1.59,2.36,9.35,9.35,0,0,1,2-.21,9.48,9.48,0,0,1,1.5.12,5.73,5.73,0,0,1,2.3.91,3.5,3.5,0,0,1,1.44,2,.35.35,0,0,1-.27.44h-.09a.36.36,0,0,1-.33-.2h0a2.55,2.55,0,0,0-1.35-1.18,4.09,4.09,0,0,0-1.52-.26h-.31a6.82,6.82,0,0,0-3.49,1.2h0l-.44.14a1.33,1.33,0,0,1-.34.05,1.19,1.19,0,0,1-1.14-.85.8.8,0,0,1-.05-.26,7.94,7.94,0,0,0-.83-3.21,2.62,2.62,0,0,0-1-1.07,2,2,0,0,0-1-.24,2.76,2.76,0,0,0-.57.06h-.08a.37.37,0,0,1-.37-.29.39.39,0,0,1,.2-.41,3.33,3.33,0,0,1,1.53-.38m0-.5a3.79,3.79,0,0,0-1.76.44.85.85,0,0,0-.45,1,.87.87,0,0,0,.85.68.62.62,0,0,0,.19,0,2.4,2.4,0,0,1,.46,0,1.5,1.5,0,0,1,.72.17,2.17,2.17,0,0,1,.82.89,7.26,7.26,0,0,1,.77,3,1.44,1.44,0,0,0,.07.36,1.66,1.66,0,0,0,2.11,1.13l.44-.13.14-.07a6.35,6.35,0,0,1,3.23-1.11H214a3.73,3.73,0,0,1,1.34.23,2,2,0,0,1,1.09.94.86.86,0,0,0,.77.47.65.65,0,0,0,.2,0,.87.87,0,0,0,.65-1.05,4,4,0,0,0-1.64-2.3,6.25,6.25,0,0,0-2.5-1,9.47,9.47,0,0,0-1.59-.13,9.85,9.85,0,0,0-1.7.15,8.73,8.73,0,0,0-1.5-2.15,4.53,4.53,0,0,0-2.24-1.31,3.67,3.67,0,0,0-.75-.08Z"/><path class="cls-8" d="M196.85,209.92a.48.48,0,0,1-.43-.26,1.4,1.4,0,0,0-.75-.65,2.49,2.49,0,0,0-.9-.16h-.18a4.12,4.12,0,0,0-2.13.73l-.36.13a1,1,0,0,1-.3,0,1,1,0,0,1-1-.73,1.24,1.24,0,0,1,0-.22,4.82,4.82,0,0,0-.51-2,1.38,1.38,0,0,0-.55-.59,1,1,0,0,0-.51-.13,1.17,1.17,0,0,0-.32,0h-.1a.48.48,0,0,1-.48-.39.49.49,0,0,1,.25-.54,2.44,2.44,0,0,1,1.11-.28,2,2,0,0,1,.48.06,2.87,2.87,0,0,1,1.4.82,5.26,5.26,0,0,1,1,1.43,6.29,6.29,0,0,1,1.14-.11,5.77,5.77,0,0,1,1,.09,3.89,3.89,0,0,1,1.6.63,2.52,2.52,0,0,1,1,1.45.49.49,0,0,1-.36.59Z"/><path class="cls-8" d="M189.67,205.2a2,2,0,0,1,.42.05,2.68,2.68,0,0,1,1.29.76,5.46,5.46,0,0,1,1,1.53,6.27,6.27,0,0,1,1.28-.14,5.33,5.33,0,0,1,1,.09,3.74,3.74,0,0,1,1.49.58,2.29,2.29,0,0,1,.94,1.31.25.25,0,0,1-.18.29h-.06a.23.23,0,0,1-.21-.13h0a1.66,1.66,0,0,0-.88-.77,2.71,2.71,0,0,0-1-.17h-.2a4.47,4.47,0,0,0-2.26.78h0l-.28.09a.91.91,0,0,1-.23,0,.77.77,0,0,1-.74-.55l0-.17a5,5,0,0,0-.54-2.08,1.7,1.7,0,0,0-.65-.7,1.3,1.3,0,0,0-.63-.15,2.33,2.33,0,0,0-.37,0h-.05a.25.25,0,0,1-.12-.46,2.21,2.21,0,0,1,1-.25m0-.5h0a2.7,2.7,0,0,0-1.23.31.76.76,0,0,0-.38.82.75.75,0,0,0,.73.58l.16,0a1.09,1.09,0,0,1,.26,0,.74.74,0,0,1,.38.09,1.18,1.18,0,0,1,.47.51,4.41,4.41,0,0,1,.47,1.87,2.33,2.33,0,0,0,.05.28,1.28,1.28,0,0,0,1.22.9,1.5,1.5,0,0,0,.37,0l.29-.09a.61.61,0,0,0,.14-.07,4,4,0,0,1,2-.69h.17a2.21,2.21,0,0,1,.81.14,1.16,1.16,0,0,1,.61.53.75.75,0,0,0,.66.4.55.55,0,0,0,.18,0,.73.73,0,0,0,.54-.89,2.75,2.75,0,0,0-1.13-1.6,4.34,4.34,0,0,0-1.69-.67,6.35,6.35,0,0,0-1.07-.09,6.85,6.85,0,0,0-1,.08,5.8,5.8,0,0,0-1-1.32,3.13,3.13,0,0,0-1.53-.9,2.33,2.33,0,0,0-.53-.06Z"/><path class="cls-8" d="M230.45,190.43a.48.48,0,0,1-.43-.26,1.38,1.38,0,0,0-.75-.65,2.49,2.49,0,0,0-.9-.16h-.18a4.12,4.12,0,0,0-2.13.73l-.36.13a1,1,0,0,1-.3,0,1,1,0,0,1-1-.73,1,1,0,0,1,0-.22,4.82,4.82,0,0,0-.51-2,1.54,1.54,0,0,0-.55-.6,1.07,1.07,0,0,0-.51-.12,1.17,1.17,0,0,0-.32,0h-.1a.49.49,0,0,1-.23-.93,2.44,2.44,0,0,1,1.11-.28,2,2,0,0,1,.48.06,2.84,2.84,0,0,1,1.4.82,5.26,5.26,0,0,1,1,1.43,6.38,6.38,0,0,1,1.14-.11,5.77,5.77,0,0,1,1,.09,3.89,3.89,0,0,1,1.6.63,2.49,2.49,0,0,1,1,1.45.49.49,0,0,1-.06.37.5.5,0,0,1-.31.22Z"/><path class="cls-8" d="M223.27,185.71a2,2,0,0,1,.42,0,2.6,2.6,0,0,1,1.29.76,5.68,5.68,0,0,1,1,1.53,6.27,6.27,0,0,1,1.28-.14,6.37,6.37,0,0,1,1,.08,3.91,3.91,0,0,1,1.49.59,2.29,2.29,0,0,1,.94,1.31.24.24,0,0,1-.18.28h-.06a.23.23,0,0,1-.21-.13h0a1.69,1.69,0,0,0-.88-.77,2.71,2.71,0,0,0-1-.17h-.2a4.47,4.47,0,0,0-2.26.78h0l-.28.09a.91.91,0,0,1-.23,0,.77.77,0,0,1-.74-.55.47.47,0,0,1,0-.17,5,5,0,0,0-.54-2.08,1.7,1.7,0,0,0-.65-.7,1.33,1.33,0,0,0-.63-.15,2.33,2.33,0,0,0-.37,0h-.06a.24.24,0,0,1-.23-.19.26.26,0,0,1,.12-.27,2.21,2.21,0,0,1,1-.25m0-.5h0a2.7,2.7,0,0,0-1.23.31.74.74,0,0,0,.34,1.4l.17,0a1.09,1.09,0,0,1,.26,0,.74.74,0,0,1,.38.09,1.18,1.18,0,0,1,.47.51,4.73,4.73,0,0,1,.47,1.87,2.33,2.33,0,0,0,.05.28,1.28,1.28,0,0,0,1.22.9,1.5,1.5,0,0,0,.37-.05l.29-.09a.61.61,0,0,0,.14-.07,4,4,0,0,1,2-.69h.17a2.21,2.21,0,0,1,.81.14,1.11,1.11,0,0,1,.61.53.74.74,0,0,0,.66.4l.17,0a.73.73,0,0,0,.55-.89,2.75,2.75,0,0,0-1.13-1.6,4.34,4.34,0,0,0-1.69-.67,6.44,6.44,0,0,0-1.07-.09,6.85,6.85,0,0,0-1,.08,5.8,5.8,0,0,0-.95-1.32,3.13,3.13,0,0,0-1.53-.9,2.33,2.33,0,0,0-.53-.06Z"/><path class="cls-8" d="M220.43,216.06a.44.44,0,0,1-.39-.24,1.06,1.06,0,0,0-.55-.48,1.83,1.83,0,0,0-.68-.12h-.15a3.25,3.25,0,0,0-1.64.56l-.29.11a1.07,1.07,0,0,1-.25,0,.87.87,0,0,1-.82-.6.58.58,0,0,1,0-.19,3.89,3.89,0,0,0-.39-1.53,1.05,1.05,0,0,0-.42-.44.72.72,0,0,0-.37-.09l-.24,0h0a.45.45,0,0,1-.49-.33.44.44,0,0,1,.22-.48,2,2,0,0,1,.9-.23,1.74,1.74,0,0,1,.39.05,2.23,2.23,0,0,1,1.12.66,4.08,4.08,0,0,1,.77,1.09,5.1,5.1,0,0,1,.86-.08,5.54,5.54,0,0,1,.81.07,3.22,3.22,0,0,1,1.27.5,2,2,0,0,1,.83,1.17.43.43,0,0,1-.05.33.45.45,0,0,1-.27.2Z"/><path class="cls-8" d="M214.81,212.31a1.24,1.24,0,0,1,.33,0,2.1,2.1,0,0,1,1,.59,4.27,4.27,0,0,1,.8,1.2,4.94,4.94,0,0,1,1-.11,4,4,0,0,1,.77.07,2.87,2.87,0,0,1,1.17.46,1.79,1.79,0,0,1,.73,1,.18.18,0,0,1-.14.22h0a.18.18,0,0,1-.16-.1h0a1.27,1.27,0,0,0-.69-.6,2,2,0,0,0-.77-.14h-.16a3.54,3.54,0,0,0-1.77.61h0l-.22.07a.55.55,0,0,1-.18,0,.6.6,0,0,1-.58-.43.59.59,0,0,1,0-.13,4.18,4.18,0,0,0-.42-1.63,1.36,1.36,0,0,0-.52-.54,1,1,0,0,0-.49-.12,1.43,1.43,0,0,0-.29,0h0a.2.2,0,0,1-.19-.14.21.21,0,0,1,.1-.21,1.7,1.7,0,0,1,.78-.2m0-.5h0a2.28,2.28,0,0,0-1,.25.68.68,0,0,0-.35.76.68.68,0,0,0,.67.54h.15a.55.55,0,0,1,.18,0,.62.62,0,0,1,.25,0,.89.89,0,0,1,.32.36,3.67,3.67,0,0,1,.36,1.42,1,1,0,0,0,0,.24,1.1,1.1,0,0,0,1.06.78,1.12,1.12,0,0,0,.32,0l.22-.07a.52.52,0,0,0,.15-.07,2.91,2.91,0,0,1,1.51-.52h.13a1.78,1.78,0,0,1,.59.1.84.84,0,0,1,.42.37.69.69,0,0,0,.61.37l.16,0a.69.69,0,0,0,.51-.83,2.25,2.25,0,0,0-.93-1.31,3.32,3.32,0,0,0-1.36-.54,5,5,0,0,0-.86-.08,4.37,4.37,0,0,0-.72.06,4.5,4.5,0,0,0-.72-1,2.69,2.69,0,0,0-1.26-.73,2.12,2.12,0,0,0-.44-.05Z"/><path class="cls-25" d="M209.05,177.67a.86.86,0,0,1-.77-.47,2.12,2.12,0,0,0-1.09-.95,3.75,3.75,0,0,0-1.35-.22h-.28a6.41,6.41,0,0,0-3.22,1.11.39.39,0,0,1-.14.08l-.44.13a1.66,1.66,0,0,1-.49.07,1.69,1.69,0,0,1-1.62-1.2,1.44,1.44,0,0,1-.07-.36,7.27,7.27,0,0,0-.77-3A2.19,2.19,0,0,0,198,172a1.58,1.58,0,0,0-.74-.17,2.49,2.49,0,0,0-.46,0l-.19,0a.89.89,0,0,1-.85-.68.87.87,0,0,1,.45-1,3.86,3.86,0,0,1,1.77-.44,3.27,3.27,0,0,1,.76.08,4.53,4.53,0,0,1,2.22,1.3,8.49,8.49,0,0,1,1.51,2.15,9.76,9.76,0,0,1,1.7-.15,9.28,9.28,0,0,1,1.58.14,6.36,6.36,0,0,1,2.51,1,4,4,0,0,1,1.64,2.3.88.88,0,0,1-.65,1.05Z"/><path class="cls-26" d="M198,170.28a3,3,0,0,1,.65.08,4.13,4.13,0,0,1,2,1.16,8.54,8.54,0,0,1,1.58,2.37,8.9,8.9,0,0,1,2-.22,9.5,9.5,0,0,1,1.5.13,5.79,5.79,0,0,1,2.3.91,3.48,3.48,0,0,1,1.44,2,.38.38,0,0,1-.27.45h-.09a.37.37,0,0,1-.33-.2h0a2.55,2.55,0,0,0-1.35-1.18,4.12,4.12,0,0,0-1.52-.26h-.32a6.89,6.89,0,0,0-3.48,1.21h0l-.44.13a1.06,1.06,0,0,1-.35,0,1.2,1.2,0,0,1-1.14-.84,1.27,1.27,0,0,1,0-.26,8.06,8.06,0,0,0-.83-3.21,2.66,2.66,0,0,0-1-1.08,2,2,0,0,0-1-.23,2.74,2.74,0,0,0-.56.06h-.08a.38.38,0,0,1-.37-.29.38.38,0,0,1,.19-.41,3.41,3.41,0,0,1,1.54-.39m0-1a4.45,4.45,0,0,0-2,.5,1.38,1.38,0,0,0-.7,1.52,1.38,1.38,0,0,0,1.63,1,1.45,1.45,0,0,1,.35,0,1.1,1.1,0,0,1,.48.1,1.7,1.7,0,0,1,.64.7,6.89,6.89,0,0,1,.7,2.79,1.86,1.86,0,0,0,.09.48,2.17,2.17,0,0,0,2.09,1.55,2.3,2.3,0,0,0,.64-.09l.44-.13a1.32,1.32,0,0,0,.29-.15,5.84,5.84,0,0,1,3-1h.26a3.08,3.08,0,0,1,1.15.19,1.52,1.52,0,0,1,.83.71,1.37,1.37,0,0,0,1.22.74,1.17,1.17,0,0,0,.32,0,1.36,1.36,0,0,0,1-1.65,4.47,4.47,0,0,0-1.84-2.6,6.9,6.9,0,0,0-2.69-1.06,9.62,9.62,0,0,0-1.68-.15,11.17,11.17,0,0,0-1.42.1,9.34,9.34,0,0,0-1.42-1.94,5.1,5.1,0,0,0-2.49-1.45,4,4,0,0,0-.86-.1Z"/><path class="cls-11" d="M185.39,175.65a1.05,1.05,0,0,1-.94-.57,3.33,3.33,0,0,0-1.79-1.56,5.83,5.83,0,0,0-2.13-.36h-.44a9.91,9.91,0,0,0-5,1.73.39.39,0,0,1-.14.08l-.67.2a2.22,2.22,0,0,1-.67.1,2.3,2.3,0,0,1-2.21-1.64,2.1,2.1,0,0,1-.09-.5,11.21,11.21,0,0,0-1.2-4.66,3.51,3.51,0,0,0-1.33-1.43,2.47,2.47,0,0,0-1.24-.3,3.91,3.91,0,0,0-.75.08.91.91,0,0,1-.23,0,1.06,1.06,0,0,1-1-.83,1.09,1.09,0,0,1,.54-1.18,5.58,5.58,0,0,1,2.56-.64,4.53,4.53,0,0,1,1.1.13,6.62,6.62,0,0,1,3.25,1.9,13.21,13.21,0,0,1,2.33,3.37,14.63,14.63,0,0,1,2.71-.26,14.37,14.37,0,0,1,2.36.2,9.18,9.18,0,0,1,3.7,1.46,5.84,5.84,0,0,1,2.38,3.33,1.09,1.09,0,0,1-.13.81,1,1,0,0,1-.66.47A1,1,0,0,1,185.39,175.65Z"/><path class="cls-26" d="M168.6,164.71a4.77,4.77,0,0,1,1,.11,6.18,6.18,0,0,1,3,1.77,13.16,13.16,0,0,1,2.41,3.59,13.77,13.77,0,0,1,3-.33,13.49,13.49,0,0,1,2.28.19,8.91,8.91,0,0,1,3.49,1.38,5.29,5.29,0,0,1,2.18,3,.56.56,0,0,1-.42.68h-.13a.56.56,0,0,1-.5-.3h0a3.8,3.8,0,0,0-2-1.78,6.14,6.14,0,0,0-2.31-.4h-.47a10.36,10.36,0,0,0-5.28,1.83h0l-.67.2a1.88,1.88,0,0,1-.52.08,1.79,1.79,0,0,1-1.73-1.29,1.68,1.68,0,0,1-.07-.39,12.06,12.06,0,0,0-1.26-4.87,4,4,0,0,0-1.54-1.62,2.94,2.94,0,0,0-1.47-.36,4.34,4.34,0,0,0-.86.09l-.12,0a.57.57,0,0,1-.26-1.07,5.2,5.2,0,0,1,2.32-.58m0-1h0a6,6,0,0,0-2.78.7,1.56,1.56,0,0,0,.72,3,2,2,0,0,0,.34,0,2.79,2.79,0,0,1,.64-.07,2,2,0,0,1,1,.23,3.05,3.05,0,0,1,1.16,1.24,11.08,11.08,0,0,1,1.13,4.45,3,3,0,0,0,.11.61,2.81,2.81,0,0,0,3.5,1.88l.67-.2a1.13,1.13,0,0,0,.29-.15,9.47,9.47,0,0,1,4.76-1.64h.41a5.31,5.31,0,0,1,1.95.33A2.8,2.8,0,0,1,184,175.3a1.56,1.56,0,0,0,2.91-1.07,6.26,6.26,0,0,0-2.59-3.64,9.82,9.82,0,0,0-3.87-1.53,14.59,14.59,0,0,0-2.46-.21,15.44,15.44,0,0,0-2.44.2,13.52,13.52,0,0,0-2.24-3.16,7.12,7.12,0,0,0-3.51-2,5.26,5.26,0,0,0-1.2-.14Z"/><path class="cls-27" d="M128.43,193.31l-23.54-19.75h0a15.87,15.87,0,0,0,2,22.37l11.37,9.54"/><path class="cls-27" d="M107.36,175.63l-3.66-3.07a1.22,1.22,0,0,0-1.72.16h0a1.21,1.21,0,0,0,.15,1.72l2.75,2.31"/><path class="cls-27" d="M104.88,176.75l-1.91-1.6a1.24,1.24,0,0,0-1.73.15h0a1.24,1.24,0,0,0,.15,1.73l3.66,3.07"/><path class="cls-28" d="M136.56,216.54a5.31,5.31,0,0,0,2.8,6.46,1.72,1.72,0,0,0,2.11-.47,1.69,1.69,0,0,0-.62-2.56,1.73,1.73,0,0,1-.62-.48,5.26,5.26,0,0,0,1.63.45,1.81,1.81,0,0,0,2-1.23,1.69,1.69,0,0,0-1.56-2.12,1.72,1.72,0,0,1-.75-.21,5.09,5.09,0,0,0,3.06-.09,1.73,1.73,0,0,0,1.17-1.83,1.68,1.68,0,0,0-2.25-1.36,1.8,1.8,0,0,1-2.29-1.07v0a1.23,1.23,0,0,0-.21-.37,2.55,2.55,0,0,0-1.2-1.18,2.61,2.61,0,0,0-3.45,1.25"/><path class="cls-7" d="M142.15,220a5.17,5.17,0,0,1-3.56-1.65"/><path class="cls-7" d="M144.68,216.27a5.16,5.16,0,0,1-4.81-.69"/><path class="cls-27" d="M131.17,192.21l-10.37-4.84L116,197.66l5.41,14.88a12.76,12.76,0,0,0,6.6,7.2h0a12.74,12.74,0,0,0,17-6.17l2.87-6.15a6.76,6.76,0,0,0-3.26-9l-11-5.14"/><path class="cls-7" d="M122.84,192.54a2.45,2.45,0,0,0,0-2,2.44,2.44,0,0,0,1.76-1.9,2.47,2.47,0,0,0-.87-2.37,2.55,2.55,0,0,0-1.56-.54c-3.68,0-3.33.78-6.67-.78l-.49-.23a6.27,6.27,0,0,0-8.33,3l-2.15,4.62,6.17,2.87c3.34,1.56,2.54,1.78,4.89,4.61a2.45,2.45,0,0,0,4.11-2.58,2.42,2.42,0,0,0,1.57-3.36A2.45,2.45,0,0,0,122.84,192.54Z"/><path class="cls-29" d="M104.36,187.52a6.78,6.78,0,0,0,2.47-.48,1.4,1.4,0,0,1,1.06.05,1.38,1.38,0,0,1,.72.8,9.78,9.78,0,0,0,.68,1.64,2.49,2.49,0,0,1,.07,2.26l-1.06,2.28-6.09-2.84a16.09,16.09,0,0,0-2.16-.72,1,1,0,0,1-.08-1.95l1.73-.64A7.44,7.44,0,0,1,104.36,187.52Z"/><line class="cls-30" x1="100.68" y1="190.71" x2="105.75" y2="191.46"/><path class="cls-7" d="M111.59,188.5a2.47,2.47,0,0,0,4.47,2.09"/><path class="cls-29" d="M140.54,218.39a5.32,5.32,0,0,0,2.79,6.46,1.73,1.73,0,0,0,2.12-.46,1.69,1.69,0,0,0-.62-2.56,1.87,1.87,0,0,1-.62-.48,5.24,5.24,0,0,0,1.63.44,1.79,1.79,0,0,0,2-1.22,1.69,1.69,0,0,0-1.55-2.13,1.68,1.68,0,0,1-.75-.21,5.17,5.17,0,0,0,3.06-.08,1.73,1.73,0,0,0,1.17-1.83,1.69,1.69,0,0,0-2.25-1.37,1.78,1.78,0,0,1-2.29-1.07v0a1.23,1.23,0,0,0-.21-.37,2.57,2.57,0,0,0-4.65.07"/><path class="cls-30" d="M146.13,221.81a5.11,5.11,0,0,1-3.56-1.65"/><path class="cls-30" d="M148.66,218.12a5.15,5.15,0,0,1-4.81-.69"/><path class="cls-12" d="M140.54,218.39a5.32,5.32,0,0,0,2.79,6.46,1.73,1.73,0,0,0,2.12-.46,1.69,1.69,0,0,0-.62-2.56,1.87,1.87,0,0,1-.62-.48,5.24,5.24,0,0,0,1.63.44,1.79,1.79,0,0,0,2-1.22,1.69,1.69,0,0,0-1.55-2.13,1.68,1.68,0,0,1-.75-.21,5.17,5.17,0,0,0,3.06-.08,1.73,1.73,0,0,0,1.17-1.83,1.69,1.69,0,0,0-2.25-1.37,1.78,1.78,0,0,1-2.29-1.07v0a1.23,1.23,0,0,0-.21-.37,2.57,2.57,0,0,0-4.65.07"/><path class="cls-20" d="M133.53,193.3l34.52,6.09h0a18.13,18.13,0,0,1-21,14.7l-16.68-2.94"/><path class="cls-27" d="M164.43,198.75l5.36.95a1.4,1.4,0,0,1,1.13,1.62h0a1.4,1.4,0,0,1-1.62,1.13l-4-.71"/><path class="cls-27" d="M165.27,201.74l2.79.49a1.41,1.41,0,0,1,1.14,1.62h0a1.4,1.4,0,0,1-1.62,1.14l-5.36-1"/><path class="cls-11" d="M131.94,202.28l16.68,2.94a9.13,9.13,0,0,0,10.57-7.39l-25.66-4.53"/><path class="cls-21" d="M131.94,202.28l16.68,2.94a9.13,9.13,0,0,0,10.57-7.39"/><path class="cls-12" d="M166.21,204.75a18.13,18.13,0,0,1-19.15,9.34l-16.68-2.94"/><path class="cls-12" d="M133.53,193.3l34.52,6.09h0"/><path class="cls-12" d="M105.92,187.33c.31-.08.61-.18.91-.29a1.4,1.4,0,0,1,1.06.05,1.38,1.38,0,0,1,.72.8,9.78,9.78,0,0,0,.68,1.64,2.49,2.49,0,0,1,.07,2.26l-1.06,2.28-6.09-2.84a16.09,16.09,0,0,0-2.16-.72,1,1,0,0,1-.08-1.95l1.73-.64a6.49,6.49,0,0,1,1.64-.36"/><path class="cls-27" d="M160.59,208.9l14.5,6.77a1.52,1.52,0,1,1-1.29,2.76l-17.59-8.21"/><path class="cls-27" d="M184.2,223.28l-4.14-1.93a1.52,1.52,0,0,1,1.29-2.76l4.14,1.93a1.52,1.52,0,0,1,.74,2A1.54,1.54,0,0,1,184.2,223.28Z"/><path class="cls-27" d="M165.43,224.43l-11.51-5.36a1.52,1.52,0,0,1,1.29-2.76l11.51,5.36a1.52,1.52,0,1,1-1.29,2.76Z"/><path class="cls-27" d="M177.33,230l-6.79-3.17a1.51,1.51,0,0,1-.74-2,1.53,1.53,0,0,1,2-.74l6.79,3.17a1.52,1.52,0,0,1-1.28,2.76Z"/><path class="cls-27" d="M138.12,218.25l15.12,7.05a1.52,1.52,0,0,1-1.28,2.76l-17.81-8.3"/><path class="cls-27" d="M172.47,237.63l-15.14-7.06a1.52,1.52,0,0,1,1.29-2.76l15.14,7.06a1.52,1.52,0,1,1-1.29,2.76Z"/><path class="cls-27" d="M185.42,233.75l-3-1.39a1.52,1.52,0,1,1,1.29-2.76l3,1.39a1.52,1.52,0,1,1-1.28,2.76Z"/><path class="cls-15" d="M113.2,200c-26.11-12-55.48-9.43-59.85-34.85-5.49-32,21.89-50.09,13-94.76-10-50.17-49.91-77-90.2-79.18L-31.79,13c29.18,1.34,54.47,34.47,52.47,66.53-6.19,99.67-109.6,53.17-48,135.55,10.52,21,99.65,44.43,90.52,108.64C58.31,358.07-62.95,366-96.06,371.39l178.41-20.3c2.8-4.79,10.84-9,20.85-13.12a88.22,88.22,0,0,0,3-14.8c-3-22.67-34.64-43.73-20.89-79.06,6.2-15.91,30.74-25,53.33-.57,18.37,19.86,14.75,51.83,3,80.06,11.16-4.65,20-9.63,21.95-15.45C179.29,261.71,170.66,226.5,113.2,200Z"/><path class="cls-31" d="M321.74,92.87c-10,18.13-58.11,35.1-67.07,12.84-2.63-6.53,3.68-14.33,12-11.75,8.95,2.78,7.17,16.63-10.22,18.63-15.52,1.78-42.47-11.18-52.28-27.5"/><g class="cls-10"><path class="cls-11" d="M417,71.29c-1.61-3.38-10.33-11.82-23.1-23.06h0L311.91,66.49c-19.57,11.22-45.51,15.24-45-12.35.43-23.32,33.18-35.4,35.53-60.08l22.8-2.8C282.16-43.4,240.18-76,240.18-76L170.75-6.77c17.08-4.76,50.85,8.51,56.77,27.51,8.86,28.49-3.71,50.55,19.08,72,43.1,40.64,86.74-68.77,133.16,21.7C379.76,114.48,424.63,87.38,417,71.29Z"/></g><path class="cls-12" d="M417,71.29c-1.61-3.38-10.33-11.82-23.1-23.06h0L311.91,66.49c-19.57,11.22-45.51,15.24-45-12.35.43-23.32,33.18-35.4,35.53-60.08l22.8-2.8C282.16-43.4,240.18-76,240.18-76L170.75-6.77c17.08-4.76,50.85,8.51,56.77,27.51,8.86,28.49-3.71,50.55,19.08,72,43.1,40.64,86.74-68.77,133.16,21.7C379.76,114.48,424.63,87.38,417,71.29Z"/><path class="cls-12" d="M113.2,200c-26.11-12-55.48-9.43-59.85-34.85-5.49-32,21.89-50.09,13-94.76-10-50.17-49.91-77-90.2-79.18L-31.79,13c29.18,1.34,54.47,34.47,52.47,66.53-6.19,99.67-109.6,53.17-48,135.55,10.52,21,99.65,44.43,90.52,108.64C58.31,358.07-62.95,366-96.06,371.39l178.41-20.3c2.8-4.79,10.84-9,20.85-13.12a88.22,88.22,0,0,0,3-14.8c-3-22.67-34.64-43.73-20.89-79.06,6.2-15.91,30.74-25,53.33-.57,18.37,19.86,14.75,51.83,3,80.06,11.16-4.65,20-9.63,21.95-15.45C179.29,261.71,170.66,226.5,113.2,200Z"/><rect class="cls-15" x="268.42" y="133.51" width="63.15" height="14.69" rx="7.35" transform="translate(87.63 -113.59) rotate(25)"/><rect class="cls-12" x="268.42" y="133.51" width="63.15" height="14.69" rx="7.35" transform="translate(87.63 -113.59) rotate(25)"/><rect class="cls-15" x="-43.29" y="254.16" width="63.15" height="31.95" rx="15.98" transform="translate(113.07 30.26) rotate(25)"/><rect class="cls-12" x="-43.29" y="254.16" width="63.15" height="31.95" rx="15.98" transform="translate(113.07 30.26) rotate(25)"/><rect class="cls-15" x="203.36" y="273.86" width="111.76" height="27.34" rx="13.67" transform="translate(145.81 -82.62) rotate(25)"/><rect class="cls-12" x="203.36" y="273.86" width="111.76" height="27.34" rx="13.67" transform="translate(145.81 -82.62) rotate(25)"/><rect class="cls-15" x="150.68" y="20.75" width="34.18" height="20.78" rx="10.39" transform="translate(28.88 -67.98) rotate(25)"/><rect class="cls-12" x="150.68" y="20.75" width="34.18" height="20.78" rx="10.39" transform="translate(28.88 -67.98) rotate(25)"/></g></svg>