<svg xmlns="http://www.w3.org/2000/svg" xmlns:xlink="http://www.w3.org/1999/xlink" viewBox="0 0 300 300"><defs><style>.cls-1,.cls-12,.cls-13,.cls-19,.cls-7,.cls-9{fill:none;}.cls-2{isolation:isolate;}.cls-10,.cls-21,.cls-3,.cls-6{fill:#fff;}.cls-4{clip-path:url(#clip-path);}.cls-5{fill:#d1e4ef;}.cls-13,.cls-15,.cls-22,.cls-25,.cls-6,.cls-8{stroke:#3e35ae;}.cls-10,.cls-12,.cls-13,.cls-15,.cls-18,.cls-19,.cls-22,.cls-25,.cls-26,.cls-6,.cls-7,.cls-8,.cls-9{stroke-linecap:round;stroke-linejoin:round;}.cls-7{stroke:#d1e4ef;}.cls-8{fill:#d9f4e9;}.cls-10,.cls-9{stroke:#abd6d6;}.cls-11{fill:#7ff1fa;}.cls-11,.cls-21,.cls-27{opacity:0.8;}.cls-12,.cls-18,.cls-26{stroke:#4a9add;}.cls-14,.cls-17{fill:#ccfff3;}.cls-14,.cls-16{opacity:0.4;}.cls-15,.cls-29{fill:#5eccf7;}.cls-18,.cls-24{fill:#cee4ef;}.cls-19{stroke:#afbdd7;}.cls-20{fill:#afbdd7;}.cls-22,.cls-23{fill:#b0b9da;}.cls-25{fill:#3e35ae;}.cls-26,.cls-28{fill:#4a9add;}.cls-29{mix-blend-mode:overlay;opacity:0.2;}</style><clipPath id="clip-path"><rect class="cls-1" width="300" height="300"/></clipPath></defs><g class="cls-2"><g id="Layer_1" data-name="Layer 1"><rect class="cls-3" width="300" height="300"/><g class="cls-4"><path class="cls-5" d="M147.67,14.61A11.21,11.21,0,0,0,136.94.15a11.38,11.38,0,0,0-2.49.28,8.28,8.28,0,0,0-15.3,4.06,3.34,3.34,0,0,0-5.88,3h-.14A9.3,9.3,0,0,0,104.41,20h48.94A5.71,5.71,0,0,0,147.67,14.61Z"/><path class="cls-5" d="M48.43,38a2.47,2.47,0,0,0-2.36-2.47,5.07,5.07,0,0,0,.35-1.88,5.15,5.15,0,0,0-5.15-5.15,5.28,5.28,0,0,0-1.44.21,5.15,5.15,0,0,0-10,1.66s-1,.05-1,.07h1a7.3,7.3,0,0,0-7.3,7.3,7.46,7.46,0,0,0,.09,1.16H48.26A2.44,2.44,0,0,0,48.43,38Z"/><path class="cls-6" d="M59,97.51a7.88,7.88,0,0,0,.08-1.09,8.07,8.07,0,0,0-4.06-7h2.32a3.84,3.84,0,0,0,0-7.68h-9A17,17,0,0,0,31.9,69a17.21,17.21,0,0,0-3.46.36,16.09,16.09,0,0,0-31.27-4A12.8,12.8,0,0,0-10,63.18,12.84,12.84,0,0,0-22.89,76a12.64,12.64,0,0,0,.25,2.48A8.72,8.72,0,0,0-30,87.11a8.57,8.57,0,0,0,.13,1.44,39.3,39.3,0,0,0-7.85,9"/><path class="cls-7" d="M43.68,90.67a6.62,6.62,0,0,0-8.57-3.07,10.18,10.18,0,0,0-20.29,1.26A10.78,10.78,0,0,0,15,90.67"/><rect class="cls-6" x="32.74" y="60.58" width="7.4" height="4" rx="2"/><rect class="cls-6" x="212.86" y="28.76" width="9.12" height="3.08" rx="1.54"/><circle class="cls-6" cx="154.47" cy="33.88" r="2.14"/><path class="cls-6" d="M232.27,58a10.69,10.69,0,0,0-9-5H223a13.47,13.47,0,0,0,.2-2.22,12.9,12.9,0,0,0-.3-2.73h10.45A2.59,2.59,0,0,0,236,45.47h0a2.59,2.59,0,0,0-2.58-2.59H220.51a12.87,12.87,0,0,0-10.18-5,13.23,13.23,0,0,0-1.79.14,8.78,8.78,0,0,0-8.76-8.16,8.63,8.63,0,0,0-2,.25,18.17,18.17,0,0,0-35.46,5.58,17.13,17.13,0,0,0,.2,2.69,14.32,14.32,0,0,0-8.88,7A14.47,14.47,0,0,0,133.35,58"/><rect class="cls-6" x="226.3" y="34.54" width="5.64" height="2.44" rx="1.22"/><path class="cls-7" d="M156.61,47.13a14.48,14.48,0,0,1,3.75,4.27"/><path class="cls-7" d="M211.06,49a8,8,0,0,0-15-3.75h-.16c-4.76,0-11.27,3.31-13.12,9.86"/><path class="cls-7" d="M178.63,32.57a4.62,4.62,0,0,1,8.82,2.66"/><path class="cls-8" d="M80.47,17.51A63.81,63.81,0,1,1,74,20.74"/><path class="cls-9" d="M144.61,38.93a54.41,54.41,0,0,1,6.22,7.86"/><path class="cls-9" d="M121.82,24.74A53.61,53.61,0,0,1,140.2,34.81"/><path class="cls-9" d="M53.46,88.32a53.76,53.76,0,0,1,52.31-66,54.22,54.22,0,0,1,9.43.83"/><circle class="cls-10" cx="78.09" cy="38.93" r="9.89"/><circle class="cls-9" cx="104.35" cy="57.66" r="9.22"/><circle class="cls-10" cx="96.08" cy="50.81" r="4.02"/><circle class="cls-9" cx="113.12" cy="35.67" r="2.02"/><path class="cls-11" d="M-7.93,153c54.66-16,67.87-67.31,131-89.25C180,44,244.38,72.75,318.89,41.54V317H-10.4Z"/><path class="cls-12" d="M111.09,79.56a134.89,134.89,0,0,1,15.3-6.38C144.31,67,163,66.12,178.86,66.12l4.91,0"/><path class="cls-12" d="M186.76,66.19c5.42.09,10.93.26,16.65.43,8.75.27,17.8.54,27,.54,22.73,0,49.37-1.45,78.45-11.18V307H-.25L2,160.25c25.28-9.25,42.18-25.72,58.58-41.7,13.64-13.29,27.64-26.93,47.14-37.25"/><path class="cls-12" d="M181.89,76.13c6.84.05,13.82.26,21.15.48,8.89.27,18,.55,27.4.55,19.73,0,42.88-1,68.45-7.76V297H9.9l2-129.91c23.69-10.21,39.92-26,55.65-41.35,17.64-17.19,34.29-33.42,62.16-43.09,13.39-4.65,27.5-6,40.39-6.4"/><path class="cls-13" d="M115.64,66.55c2.41-1,4.9-1.93,7.47-2.82,25.62-8.89,52.76-7.95,81.65-7.07"/><path class="cls-13" d="M213,56.9c32.91.87,68.08.47,105.85-15.36V317H-10.4l2.47-164c51.18-15,66-60.93,119.57-84.72"/><path class="cls-14" d="M45.37,28.48C41.83,34.54,32.65,37.15,31,44c-.69,2.91.81,5.62,7.47,3.91a68.32,68.32,0,0,1,20.17-2.61c11.69.43,9.66-9.22,5.69-17.1C60.76,21,50.15,20.28,45.37,28.48Z"/><path class="cls-15" d="M195,88.84a75.26,75.26,0,0,0,11.35-17.33c20.87-42.75,26.13-85.26,86-84.76h26.51V317H-10.4l8.05-194.55C53.57,62.31,141.46,136,189.84,94"/><g class="cls-16"><path class="cls-17" d="M306.26,63.13c-15.85-.62-42.81,3-50.63,22.6-8.39,21.06,14.33-.45,43.54,20.79C321.9,123.05,343.63,64.61,306.26,63.13Z"/></g><path class="cls-12" d="M265.92,72.84a29.08,29.08,0,0,0-10.29,12.89c-8.39,21.06,14.33-.45,43.54,20.79,22.73,16.53,44.46-41.91,7.09-43.39-9.6-.38-23.28.79-34.31,6.14"/><path class="cls-11" d="M154.16,196.92a134.77,134.77,0,0,1-13.72-.73A7.5,7.5,0,0,1,142,181.27c14,1.44,26.6.47,38.49-3a7.5,7.5,0,1,1,4.16,14.41A108.65,108.65,0,0,1,154.16,196.92Z"/><path class="cls-11" d="M206.25,182.55a7.5,7.5,0,0,1-3.88-13.92c17.08-10.3,30.77-25.37,44-39.94,24.33-26.79,49.49-54.48,93.11-45.4A7.5,7.5,0,1,1,336.42,98c-35.22-7.34-55.48,15-78.94,40.8-14,15.37-28.4,31.27-47.36,42.7A7.39,7.39,0,0,1,206.25,182.55Z"/><path class="cls-12" d="M154.16,196.92a134.77,134.77,0,0,1-13.72-.73A7.5,7.5,0,0,1,142,181.27c14,1.44,26.6.47,38.49-3a7.5,7.5,0,1,1,4.16,14.41A108.65,108.65,0,0,1,154.16,196.92Z"/><path class="cls-12" d="M206.25,182.55a7.5,7.5,0,0,1-3.88-13.92c17.08-10.3,30.77-25.37,44-39.94,24.33-26.79,49.49-54.48,93.11-45.4A7.5,7.5,0,1,1,336.42,98c-35.22-7.34-55.48,15-78.94,40.8-14,15.37-28.4,31.27-47.36,42.7A7.39,7.39,0,0,1,206.25,182.55Z"/><path class="cls-12" d="M73.78,162C35,161-10.34,170.25-17.67,210.5"/><path class="cls-12" d="M255.53,71.59c-17.8,20.36-28.88,49.63-60.43,71.23C165.63,160.4,133.32,168.26,96,163.65c-5-.62-10.43-1.11-16-1.41"/><path class="cls-12" d="M295.15,48.87A63.26,63.26,0,0,0,258.8,68"/><path class="cls-18" d="M218.48,111.9c-2.67-.65-6.24.21-9.22,2a14.33,14.33,0,0,0-5.54,5.83,5.71,5.71,0,0,0-4.12,0l2.32,2.16.85,3.06a5.72,5.72,0,0,0,1.94-3.64,14.39,14.39,0,0,0,7.72-2.23C215.42,117.33,217.82,114.56,218.48,111.9Z"/><path class="cls-19" d="M213.28,113.41h0a1.93,1.93,0,0,0,1.46,2.41h0"/><circle class="cls-20" cx="215.15" cy="113.06" r="0.42"/><path class="cls-18" d="M252.67,98.17c-2.74.13-5.92,2-8.28,4.54a14.42,14.42,0,0,0-3.67,7.15,5.7,5.7,0,0,0-3.95,1.2l2.84,1.42,1.67,2.7a5.66,5.66,0,0,0,.84-4,14.44,14.44,0,0,0,6.79-4.31C251.26,104.25,252.79,100.91,252.67,98.17Z"/><path class="cls-19" d="M248.11,101.08h0a1.92,1.92,0,0,0,2.08,1.9h0"/><circle class="cls-20" cx="249.81" cy="100.22" r="0.42"/><path class="cls-18" d="M277.44,80.62c-2.61.85-5.19,3.46-6.78,6.57A14.32,14.32,0,0,0,269,95.06a5.7,5.7,0,0,0-3.49,2.21l3.12.61L271,100a5.7,5.7,0,0,0-.26-4.12,14.42,14.42,0,0,0,5.4-6C277.69,86.85,278.28,83.23,277.44,80.62Z"/><path class="cls-19" d="M273.81,84.64h0a1.93,1.93,0,0,0,2.51,1.28h0"/><circle class="cls-20" cx="275.22" cy="83.36" r="0.42"/><path class="cls-18" d="M271.79,66c-2.74.11-5.94,1.91-8.32,4.47a14.29,14.29,0,0,0-3.74,7.11,5.71,5.71,0,0,0-4,1.17l2.83,1.44,1.65,2.72a5.68,5.68,0,0,0,.87-4,14.23,14.23,0,0,0,6.82-4.25C270.32,72,271.88,68.72,271.79,66Z"/><path class="cls-19" d="M267.2,68.85h0a1.92,1.92,0,0,0,2.06,1.92h0"/><circle class="cls-20" cx="268.9" cy="68.01" r="0.42"/><path class="cls-18" d="M301.48,40.31c-2.74.11-5.94,1.91-8.32,4.47a14.45,14.45,0,0,0-3.74,7.11,5.67,5.67,0,0,0-3.95,1.17l2.83,1.44,1.64,2.72a5.68,5.68,0,0,0,.87-4,14.31,14.31,0,0,0,6.83-4.25C300,46.37,301.58,43.05,301.48,40.31Z"/><path class="cls-19" d="M296.89,43.18h0A1.93,1.93,0,0,0,299,45.1h0"/><circle class="cls-20" cx="298.6" cy="42.34" r="0.42"/><path class="cls-18" d="M276.55,47.39c-2.63-.79-6.24-.13-9.32,1.52a14.29,14.29,0,0,0-5.85,5.51,5.7,5.7,0,0,0-4.12-.19l2.2,2.29.67,3.1a5.66,5.66,0,0,0,2.14-3.53,14.35,14.35,0,0,0,7.84-1.8C273.19,52.65,275.75,50,276.55,47.39Z"/><path class="cls-19" d="M271.28,48.61h0a1.91,1.91,0,0,0,1.32,2.48h0"/><circle class="cls-20" cx="273.16" cy="48.37" r="0.42"/><path class="cls-18" d="M239.81,81.25c-2.64-.78-6.24-.09-9.31,1.58a14.47,14.47,0,0,0-5.81,5.56,5.67,5.67,0,0,0-4.12-.15l2.22,2.26.7,3.1a5.71,5.71,0,0,0,2.11-3.54,14.43,14.43,0,0,0,7.82-1.86C236.49,86.53,239,83.88,239.81,81.25Z"/><path class="cls-19" d="M234.54,82.51h0A1.93,1.93,0,0,0,235.89,85h0"/><circle class="cls-20" cx="236.43" cy="82.25" r="0.42"/><path class="cls-14" d="M211.73,102.85c6.14-15.16,26.88-22.4,31.1.59,3.08,16.81,23.14-.1,31.09,8.82,15.11,16.94-23.87,61.25-46.29,49.48-9.79-7,2.51-21.9-.71-31C222.18,117.35,200.81,129.77,211.73,102.85Z"/><path class="cls-12" d="M236,90.7c3.12,2.17,5.63,6.25,6.82,12.74,3.08,16.81,23.14-.1,31.09,8.82,15.11,16.94-23.87,61.25-46.29,49.48-9.79-7,2.51-21.9-.71-31"/><path class="cls-12" d="M229.92,88.73a11.26,11.26,0,0,1,3.8.74"/><path class="cls-12" d="M223.81,126.22c-7.34-6-21.35-.51-12.08-23.37,2.93-7.22,9.17-12.65,15.36-13.86"/><path class="cls-21" d="M244,124.91c-6.26,4-7.64,14.13-6.8,21,2,16.61,29-7.7,27.94-16.34C263.81,119.05,250.82,120.53,244,124.91Z"/><path class="cls-12" d="M237.84,134.69a31.46,31.46,0,0,0-.87,7.71"/><path class="cls-12" d="M237.19,145.89c2,16.61,29-7.7,27.94-16.34-1.32-10.5-14.31-9-21.14-4.64a13.78,13.78,0,0,0-5.12,6.6"/><path class="cls-11" d="M126.36,304.36c14.73,13.2,42.41,2.06,50.91-29.46,6.68-24.81,21.31-40.28,47-47.38,26.49-7.32,40.86-23.22,32.3-61.82C244.61,111.83,279.13,69.31,314,64.56V329.18H119Z"/><path class="cls-22" d="M168.84,88.12s4.78,1.75,4.33,5.54c-.51,4.3-15.12,21.62-19.4,7.11"/><path class="cls-23" d="M174.61,47.48A104.68,104.68,0,0,1,172,63.07l-15.21-3.49Z"/><path class="cls-24" d="M154.28,171.05c7.21,11.39,14.87,16.95,27.73,18.23.14-9.07-2-19.3-7.86-25.17,6.27-6.41,9.11-14,9.11-25.39-7.88,1.57-20.42,6.95-28,17.3-12.65.75-28.09-21.3,6-51.72,14.24-12.72,18.6-27.72,19.36-46.78l-11.19,4a41.68,41.68,0,0,1,5.22-14.09c-27.35,0-56.93,15.59-64.36,48C97.66,150.52,137.42,170.53,154.28,171.05Z"/><path class="cls-19" d="M113.56,105.28q.56-4.23,1.57-8.64a53.73,53.73,0,0,1,24.21-34.21"/><path class="cls-19" d="M113.12,121.47a71,71,0,0,1,0-12"/><path class="cls-13" d="M114.69,130.7c-.45-1.77-.82-3.58-1.11-5.45"/><path class="cls-13" d="M123.11,148.15c-.89-1.16-1.73-2.36-2.5-3.59"/><path class="cls-13" d="M156.85,81.15a33.92,33.92,0,0,0,11.15,3"/><path class="cls-19" d="M145.68,60s-2.09,11.93,7.85,19.15"/><path class="cls-6" d="M154.7,53.59a6.38,6.38,0,0,1,3.49-1,6.45,6.45,0,1,1-4.79,2.12"/><circle class="cls-25" cx="157.74" cy="57.98" r="3.19"/><path class="cls-19" d="M155.77,158.44s3.49,3.7-.55,10.12"/><path class="cls-19" d="M128,75.66c-1.75,3.3,1.71,6.81,6.35,5.4,0,2.7,3.34,5.4,7.29,3.52"/><path class="cls-19" d="M129.77,105.28c-.27,2.79,3,5,6.79,3.86.28,2.45,3.43,4.77,7.28,3.32"/><path class="cls-19" d="M117.15,114.62c.38,3.22,4.43,3.43,5.81,1.49"/><path class="cls-19" d="M118.21,135.68c.41,3.17,4.81,3.16,6.05,1.41.35,2.61,4.79,4.22,7.41,1.67"/><path class="cls-13" d="M131.52,150.76a3.18,3.18,0,0,0,6.14-1.32"/><path class="cls-13" d="M131.67,126.22a1.71,1.71,0,0,0,3.3.75"/><path class="cls-13" d="M122.06,92.27a2.47,2.47,0,0,0,4.5,1.91"/><path class="cls-23" d="M141.59,81.14c-2.23,10.42-3.72,27.73,3.35,28.28s21.52-10.32,13.77-15.25C150.44,92.3,144.67,88,141.59,81.14Z"/><path class="cls-13" d="M145.54,87.09s-1.4,15.28,3.42,21.74"/><path class="cls-13" d="M152.56,94a23.08,23.08,0,0,0,2.59,6.83"/><path class="cls-19" d="M160.93,168.26s8,14.44,20.94,16.26"/><path class="cls-19" d="M169.87,168.26s4.5,7.43,10.71,8.2"/><path class="cls-13" d="M162.75,158.81a40.82,40.82,0,0,1,20.14-13.46"/><path class="cls-19" d="M169.87,160.3a21.7,21.7,0,0,1,10.54-5.38"/><path class="cls-19" d="M157.15,163.11a53.3,53.3,0,0,1,13.46.39"/><path class="cls-13" d="M139,56.79a59,59,0,0,0-28.79,38.73c-12.59,55,27.17,75,44,75.53,7.21,11.39,14.87,16.95,27.73,18.23.14-9.07-2-19.3-7.86-25.17,6.27-6.41,9.11-14,9.11-25.39-7.88,1.57-20.42,6.95-28,17.3-12.35.73-27.37-20.28,3.64-49.59"/><path class="cls-13" d="M170.5,56.79a42.63,42.63,0,0,1,4.11-9.31,72.72,72.72,0,0,0-32,7.39"/><path class="cls-13" d="M170.37,94c7.1-10.41,9.65-22.31,10.21-36.46l-11.19,4"/><path class="cls-22" d="M124.07,154.12a73.66,73.66,0,0,0,17.32,19.42,17.07,17.07,0,0,0,4.22,2.61,3.05,3.05,0,0,0,2,.22c1.2-.38,1.66-1.83,1.76-3.08a12.73,12.73,0,0,0-1-6.09s-4.74-5.41-15.48-10"/><path class="cls-13" d="M144.94,164.14a34.85,34.85,0,0,0,1.15,8.25"/><path class="cls-13" d="M140.71,161.22s-.19,5.55.78,8.76"/><path class="cls-13" d="M136.37,161.13a40.25,40.25,0,0,0,.37,5"/><path class="cls-13" d="M144.94,109.42c7.07.56,21.52-10.32,13.77-15.25"/><path class="cls-13" d="M141.59,81.14c-2,9.12-3.34,23.51,1.08,27.34"/><path class="cls-11" d="M-7.44,108.83C8.15,87,55,83.71,85.73,95.23c29.84,11.18,49.1,34.37,82.14,23-8.65-14.69,19.18-41.4,41.35-16.92,24.93,27.54-18.74,78.08-84.92,69.6C63,163.05,10.49,174.86-22.44,204.61"/><path class="cls-12" d="M80,168.83C37.94,170.27,2.35,182.48-22.3,204.75"/><path class="cls-12" d="M118.21,170.32A274.82,274.82,0,0,0,84,168.73"/><path class="cls-12" d="M212.6,134.72c-11,22.07-44.75,41.9-88.16,36.34"/><path class="cls-12" d="M186.76,91.72c7.11-.92,15.17,1.54,22.6,9.74,7.78,8.6,8.88,19.43,4.69,30"/><path class="cls-12" d="M180,93.67a23,23,0,0,1,3.75-1.36"/><path class="cls-12" d="M85.87,95.37c29.83,11.18,49.1,34.37,82.13,23-4.3-7.32.44-17.62,9-23.09"/><path class="cls-12" d="M-7.3,109C7,88.84,47.89,84.49,78.23,92.89"/><path class="cls-12" d="M170.82,117.17a24.15,24.15,0,0,0,3.07-1.82,20.81,20.81,0,0,0,8-10.21"/><path class="cls-26" d="M181.87,105.14a20.81,20.81,0,0,1-8,10.21,8.37,8.37,0,0,1,1.1-7.54A6.55,6.55,0,0,1,181.87,105.14Z"/><path class="cls-12" d="M126.36,304.36c14.73,13.2,42.41,2.06,50.91-29.46,6.68-24.81,21.31-40.28,47-47.38,26.49-7.32,40.86-23.22,32.3-61.82C244.61,111.83,279.13,69.31,314,64.56V329.18H119Z"/><path class="cls-14" d="M269.33,207.62c-9,1.1-16.44,8.62-25.51,9-11.32.43-19.7-10.09-30-14.76-38.82-14.31-74.42,34.63-106-7.71-29.22-39.2-80.27-49.8-124.13-21.05L-27.48,346.48H311.68V236.17C298,226.83,288.3,205.83,269.33,207.62ZM-20,311.46-15.58,227c25.64-12.34,64.06-14.89,68.72,26.92,5.16,46.22,40.49,6,54.69,32.31,19.7,36.46,36-20.95,54.92,25.25Z"/><path class="cls-12" d="M67.28,162.65a93,93,0,0,1,40.55,31.47c31.55,42.34,67.15-6.6,106,7.71,10.32,4.67,18.7,15.19,30,14.76,9.07-.35,16.5-7.87,25.51-9,19-1.79,28.64,19.21,42.35,28.55V346.48H-27.48L-16.3,173.07c25.68-16.83,53.82-20.18,78.61-12.19"/><path class="cls-12" d="M-15.58,227c25.64-12.34,64.06-14.89,68.72,26.92,5.16,46.22,40.49,6,54.69,32.31,19.7,36.46,36-20.95,54.92,25.25H-20Z"/><path class="cls-14" d="M293.29,11.6c-11.8-4.95-30.48,9.12-25.58,21.55,3,7.51,9,11.06,5.58,13.78-4.27,3.36-7.72,9.14-1.21,9,4.38-.08,8.52-3.67,8.28-10.05-.11-2.95,4-4.16,6.64-6.14C304.27,26.93,302.13,15.3,293.29,11.6Z"/><path class="cls-12" d="M287,39.76c17.27-12.83,15.13-24.46,6.29-28.16-11.8-4.95-30.48,9.12-25.58,21.55,3,7.51,9,11.06,5.58,13.78-4.27,3.36-7.72,9.14-1.21,9,4.38-.08,8.52-3.67,8.28-10.05-.06-1.76,1.37-2.9,3.09-3.95"/><path class="cls-11" d="M251,51c-13,.06-25.87,28.94-5.26,13.63C253.1,59.1,256.84,50.92,251,51Z"/><path class="cls-12" d="M243.92,53.53c-9.59,6.74-14.95,23.5,1.81,11C253.1,59.1,256.84,50.92,251,51a10.36,10.36,0,0,0-3.14.54"/><circle class="cls-14" cx="247.63" cy="32.44" r="3.25"/><circle class="cls-12" cx="247.63" cy="32.44" r="3.25"/><path class="cls-12" d="M125.38,146.68a104.51,104.51,0,0,1-10.58-2.12"/><path class="cls-12" d="M147.75,148.14a137,137,0,0,1-18.05-.89"/><path class="cls-12" d="M202,115c-1.59,23.34-25.81,31.82-50.15,33.05"/><path class="cls-14" d="M-8.45,234.16c13.6-2.08,41.89-3.8,38.61-19C27.33,202,1.8,206.32-5.15,195.41c-4-6.21-.27-19.18,9.45-19.9,105.6-7.86,37.13-38.35,64.24-58.18C166.16,45.92,34.8,42.16-5.51,82.71Z"/><path class="cls-12" d="M82.7,106.08c31.84-27.81,23.76-43.09,2-47.74"/><path class="cls-12" d="M72.18,114.62q3.9-3,7.27-5.77"/><path class="cls-12" d="M11.61,174.9c95.06-8.71,30.47-38.22,56.93-57.57"/><path class="cls-12" d="M78.23,57.3C52.29,54.43,13.39,63.7-5.51,82.71L-8.45,234.16c13.6-2.08,41.89-3.8,38.61-19C27.33,202,1.8,206.32-5.15,195.41c-4-6.21-.27-19.18,9.45-19.9"/><g class="cls-27"><path class="cls-3" d="M-1,99.43C5.68,88.26,58.38,71.75,51.64,88.14c-5.21,12.67-27.57,10.93-31,24.12C17,126.71,45.75,142.78,17.5,150c-8.24,2.08-16.95,3.61-25.43,3C-15.81,138.71-9.31,113.23-1,99.43Z"/></g><path class="cls-12" d="M29.92,138.56c.79,4.7-1.73,8.7-12.42,11.42-8.24,2.08-16.95,3.61-25.43,3-7.88-14.27-1.38-39.75,6.9-53.55,2.94-4.88,14.67-10.79,26.39-14.52"/><path class="cls-12" d="M25.17,128.09c1.26,2.22,2.52,4.39,3.45,6.46"/><path class="cls-12" d="M31,83.29C43.88,80,55,80.07,51.64,88.14c-5.21,12.67-27.57,10.93-31,24.12-1.1,4.28.65,8.7,2.93,13"/><path class="cls-12" d="M45.37,28.48C41.83,34.54,32.65,37.15,31,44c-.69,2.91.81,5.62,7.47,3.91a68.32,68.32,0,0,1,20.17-2.61c11.69.43,9.66-9.22,5.69-17.1C60.76,21,50.15,20.28,45.37,28.48Z"/><path class="cls-14" d="M150.77,139.21c-15.55,0-28.83-5.49-41.76-10.84-8-3.3-16.21-6.71-24.86-8.77a2.5,2.5,0,0,1,1.16-4.86c9,2.15,17.46,5.64,25.61,9,16.46,6.81,32,13.24,52,9.25a2.5,2.5,0,0,1,1,4.9A66.82,66.82,0,0,1,150.77,139.21Z"/><path class="cls-12" d="M143.69,138.84c-12.58-1.33-23.75-6-34.68-10.47-8-3.3-16.21-6.71-24.86-8.77a2.5,2.5,0,0,1,1.16-4.86c1.32.31,2.62.65,3.92,1"/><path class="cls-12" d="M150.77,139.21c-1.34,0-2.66,0-4-.11"/><path class="cls-12" d="M91.74,116.5c6.65,2.06,13,4.69,19.18,7.25,16.46,6.81,32,13.24,52,9.25a2.5,2.5,0,0,1,1,4.9,65.64,65.64,0,0,1-9.65,1.22"/><circle class="cls-14" cx="91.74" cy="146.12" r="10.12"/><path class="cls-12" d="M87.24,137a10.11,10.11,0,1,1-2.91,2.17"/><circle class="cls-21" cx="101.86" cy="151.68" r="5.33"/><path class="cls-12" d="M97.79,148.25A5.33,5.33,0,1,1,96.7,153"/><circle class="cls-14" cx="40.69" cy="268.07" r="5.33"/><path class="cls-12" d="M36.62,264.63a5.33,5.33,0,1,1-1.09,4.75"/><circle class="cls-11" cx="239.83" cy="194.6" r="3.15"/><path class="cls-12" d="M237.42,192.57a3.16,3.16,0,1,1-.64,2.81"/><circle class="cls-21" cx="45.4" cy="156.24" r="3.63"/><path class="cls-12" d="M45.4,159.87A3.63,3.63,0,1,1,49,156.24a3.57,3.57,0,0,1-.87,2.36"/><circle class="cls-11" cx="30.05" cy="135.99" r="7.61"/><path class="cls-12" d="M25.05,130.26a7.57,7.57,0,1,1-1.9,2.53"/><circle class="cls-28" cx="206.25" cy="128.84" r="1.3"/><circle class="cls-14" cx="191.02" cy="134.72" r="2.88"/><circle class="cls-12" cx="191.02" cy="134.72" r="2.88"/><circle class="cls-14" cx="193.52" cy="108.54" r="1.62"/><circle class="cls-12" cx="193.52" cy="108.54" r="1.62"/><g class="cls-27"><path class="cls-3" d="M77.64,76.45c-6-4.48-19.47-3-16.15,4.06a13.16,13.16,0,0,1-.83,9.91c-1.15,2-.65,6.13,4.78,5.41C71.63,95,88.51,84.6,77.64,76.45Z"/></g><path class="cls-12" d="M77.64,76.45c-6-4.48-19.47-3-16.15,4.06a13.16,13.16,0,0,1-.83,9.91c-1.15,2-.65,6.13,4.78,5.41C71.63,95,88.51,84.6,77.64,76.45Z"/><path class="cls-11" d="M-16.54,57c11.64-4.29,31.8-10.88,37.54.2,4,7.72-5.87,17.85-9.34,23.46C-5,108.33,39.34,105.23-2.42,136.57Z"/><path class="cls-12" d="M-16.54,57c11.64-4.29,31.8-10.88,37.54.2,4,7.72-5.87,17.85-9.34,23.46C-5,108.33,39.34,105.23-2.42,136.57Z"/><path class="cls-21" d="M248.2,73.74c-7.25.88-4.53,15.45-.69,11.73C249.49,83.55,254,73.09,248.2,73.74Z"/><path class="cls-12" d="M248.2,73.74c-7.25.88-4.53,15.45-.69,11.73C249.49,83.55,254,73.09,248.2,73.74Z"/><circle class="cls-11" cx="222.62" cy="87.53" r="5.42"/><path class="cls-12" d="M220.72,82.46a5.21,5.21,0,0,1,1.9-.35,5.42,5.42,0,1,1-3.51,1.29"/><path class="cls-14" d="M198.75,309.28c2.92-56.28,64.79,4.83,44.24-69.11-3.26-11.71,2.21-28.9,23.92-21.12,36.82,13.2-4.71-54.56,39.67-75.19V346.48Z"/><path class="cls-12" d="M243,240.17a24.08,24.08,0,0,1-.53-10.43"/><path class="cls-12" d="M244.35,224.21c3.27-6,10.34-9.54,22.56-5.16,36.82,13.2-4.71-54.56,39.67-75.19V346.48l-107.83-37.2c2.82-54.4,60.72.87,46-62.13"/><path class="cls-21" d="M316.68,277.16c-10.29-12.74-37.94-37.46-47.74-25.64-8.78,10.59.05,29.63-12.2,39.07-9.78,7.54-27.42,2.4-34,13.82-20,34.72,42.84,17.72,63.18,21.25C336.22,318.55,352.09,321,316.68,277.16Z"/><path class="cls-12" d="M265.83,257.45c-3.31,10.76,1.12,25.27-9.09,33.14-9.78,7.54-27.42,2.4-34,13.82-20,34.72,42.84,17.72,63.18,21.25,50.31-7.11,66.18-4.66,30.77-48.5-10.29-12.74-37.94-37.46-47.74-25.64"/><path class="cls-14" d="M290.15,315.41c-11.29-4.32-23.26-25.86-16-32,6.69-5.66,28.6,4.95,32,14.66C308.37,304.87,298.89,318.76,290.15,315.41Z"/><path class="cls-12" d="M272.32,292.47a13,13,0,0,1-.08-5.9"/><path class="cls-12" d="M274.15,283.41c6.69-5.66,28.6,4.95,32,14.66,2.18,6.8-7.3,20.69-16,17.34-6.73-2.57-13.69-11.26-16.69-19.16"/><path class="cls-11" d="M307.68,187.44c-12.87,6.1-8.32,23.4-12,34.62-2.88,12.25-18.05,12.79-23.1,22.18-12.17,22.6,41.32,29.8,56.8,35.11C325.56,247.15,315.53,218.91,307.68,187.44Z"/><path class="cls-12" d="M329.39,279.35c-3.83-32.2-13.86-60.44-21.71-91.91-12.87,6.1-8.32,23.4-12,34.62A15.24,15.24,0,0,1,291,230"/><path class="cls-12" d="M290,268c2.21.87,4.52,1.68,6.87,2.44"/><path class="cls-12" d="M288.45,232c-5.59,4-12.71,6.39-15.86,12.25-5.46,10.14,2.29,17.18,13.9,22.34"/><path class="cls-21" d="M310.8,262.84c-7.39-1.38-29.58-5.49-21.4-15.81,3.45-4.35,9.72-6,12.6-10.73Z"/><path class="cls-12" d="M310.8,262.84c-7.39-1.38-29.58-5.49-21.4-15.81,3.45-4.35,9.72-6,12.6-10.73Z"/><path class="cls-21" d="M266.42,230.11c-11.72-7.22-15.24,2.38-8.81,10.42C261.22,245,273.43,234.44,266.42,230.11Z"/><path class="cls-12" d="M259.2,227.56c-5.64,0-6.41,6.94-1.59,13,3.12,3.89,12.7-3.53,10.66-8.39"/><path class="cls-12" d="M265.75,229.72a18.77,18.77,0,0,0-3.34-1.56"/><path class="cls-21" d="M305.5,93c-31.85,10.65-41.82,40.44-19.63,68.23,12.09,23.58-20.12,31.22,21.37,52.12Z"/><path class="cls-12" d="M288.24,177.68c-2.43,12.33-11.07,20.51,19,35.66L305.5,93c-10.26,3.43-18.24,8.84-23.62,15.53"/><path class="cls-12" d="M287.68,165.57a22.8,22.8,0,0,1,1.1,7.42"/><path class="cls-12" d="M279.44,111.93c-8.75,13.77-7.44,31.92,6.43,49.29"/><path class="cls-11" d="M302.6,116.86c-13.79,3.13-20.53,17-7,25.85,16.65,10.94,42.78,20,42.05-10C337.22,114.18,316.44,113.71,302.6,116.86Z"/><path class="cls-12" d="M289,135.33a14.36,14.36,0,0,0,3.44,4.91"/><path class="cls-12" d="M295.61,142.71c16.65,10.94,42.78,20,42.05-10-.44-18.53-21.22-19-35.06-15.85-8.62,2-14.49,8.09-14.37,14.59"/><path class="cls-12" d="M222.55,67.1a42.05,42.05,0,0,1-4.68,7.66"/><path class="cls-12" d="M228.54,54.39C227.25,57.21,226,60,224.8,62.5"/><path class="cls-12" d="M305.74-2.53c-26-2.06-43.93,2.53-64.15,31.72-3.72,5.38-7.43,13-10.93,20.58"/><path class="cls-21" d="M286.94-5.61c-16.55,1.41-29.3,9.4-36.31,23.53C236.8,45.84,278,21.23,298.8,21.85,323.35,22.59,312.61-7.79,286.94-5.61Z"/><path class="cls-12" d="M286.94-5.61c-16.55,1.41-29.3,9.4-36.31,23.53C236.8,45.84,278,21.23,298.8,21.85,323.35,22.59,312.61-7.79,286.94-5.61Z"/><path class="cls-11" d="M301-.63c-10.7-1.94-23.32,3.79-30.84,8.41-5.71,3.51-3,10.89,3.32,9.54,12-2.57,22.31-5.7,35.05-2.29,2.37.63-.89-7.78-.87-10.16C307.68,3.58,308.22.68,301-.63Z"/><path class="cls-12" d="M270.17,7.78c-5.71,3.51-3,10.89,3.32,9.54,12-2.57,22.31-5.7,35.05-2.29,2.37.63-.89-7.78-.87-10.16,0-1.29.55-4.19-6.66-5.5-9.11-1.65-19.62,2.26-27.18,6.31"/><path class="cls-15" d="M222.72,17.22c-1.13,2.2-4.08,7.75-9.93,6.44-11-2.47-7.74-18.17,5.63-25.13a35.69,35.69,0,0,1,22.76-3.75c-9,7-13,12.45-16.59,18.9"/><path class="cls-11" d="M48.57,210.91c22.22-56.68,86.93-5.74,126.3-23.17,24.84-11,35.13,18.45,15.24,26.74-46.44,19.34-15.9,97.15-54.92,113.17-22.55,9.26-39.27-18.45-68-20.27C29.76,305-27.42,326.91-35.23,295.51-45.31,255,32.6,251.64,48.57,210.91Z"/><path class="cls-12" d="M52,203.58a41.09,41.09,0,0,1,9-11.33"/><path class="cls-12" d="M67.25,188c29.27-15.56,76.41,13.59,107.62-.23,24.84-11,35.13,18.45,15.24,26.74-46.44,19.34-15.9,97.15-54.92,113.17-22.55,9.26-39.27-18.45-68-20.27C29.76,305-27.42,326.91-35.23,295.51c-10.08-40.56,67.83-43.87,83.8-84.6"/><path class="cls-18" d="M25.68,268.81c-2.53-1.06-6.19-.76-9.42.56a14.34,14.34,0,0,0-6.39,4.89,5.69,5.69,0,0,0-4.08-.6l2,2.5.35,3.15A5.64,5.64,0,0,0,10.59,276a14.42,14.42,0,0,0,8-1C21.81,273.7,24.62,271.34,25.68,268.81Z"/><path class="cls-19" d="M20.31,269.49h0a1.91,1.91,0,0,0,1.07,2.6h0"/><circle class="cls-20" cx="22.21" cy="269.44" r="0.42"/><path class="cls-18" d="M61.6,260.6c-2.73-.31-6.16,1-8.89,3.18A14.45,14.45,0,0,0,48,270.27a5.7,5.7,0,0,0-4.08.57l2.58,1.84,1.23,2.93a5.68,5.68,0,0,0,1.46-3.86,14.41,14.41,0,0,0,7.38-3.19C59.26,266.37,61.29,263.32,61.6,260.6Z"/><path class="cls-19" d="M56.64,262.76h0a1.92,1.92,0,0,0,1.75,2.2h0"/><circle class="cls-20" cx="58.45" cy="262.17" r="0.42"/><path class="cls-18" d="M88.8,247.13c-2.71.43-5.66,2.6-7.72,5.43a14.38,14.38,0,0,0-2.86,7.52,5.69,5.69,0,0,0-3.79,1.63l3,1.09,2,2.5a5.66,5.66,0,0,0,.39-4.11,14.31,14.31,0,0,0,6.26-5C88.08,253.33,89.23,249.84,88.8,247.13Z"/><path class="cls-19" d="M84.59,250.53h0a1.93,1.93,0,0,0,2.28,1.66h0"/><circle class="cls-20" cx="86.18" cy="249.49" r="0.42"/><path class="cls-18" d="M85.51,231.79c-2.72-.33-6.16,1-8.91,3.11a14.36,14.36,0,0,0-4.81,6.44,5.69,5.69,0,0,0-4.09.54l2.57,1.86,1.2,2.94A5.63,5.63,0,0,0,73,242.84a14.35,14.35,0,0,0,7.41-3.14C83.12,237.55,85.18,234.51,85.51,231.79Z"/><path class="cls-19" d="M80.53,233.91h0a1.92,1.92,0,0,0,1.74,2.21h0"/><circle class="cls-20" cx="82.35" cy="233.34" r="0.42"/><path class="cls-18" d="M118.85,211.08c-2.72-.33-6.16.95-8.91,3.11a14.36,14.36,0,0,0-4.81,6.44,5.74,5.74,0,0,0-4.09.53l2.57,1.87,1.2,2.94a5.64,5.64,0,0,0,1.49-3.85,14.3,14.3,0,0,0,7.41-3.13C116.46,216.84,118.52,213.8,118.85,211.08Z"/><path class="cls-19" d="M113.87,213.2h0a1.93,1.93,0,0,0,1.74,2.21h0"/><circle class="cls-20" cx="115.69" cy="212.63" r="0.42"/><path class="cls-18" d="M93.12,214.17c-2.47-1.19-6.14-1.1-9.44,0A14.35,14.35,0,0,0,77,218.74a5.72,5.72,0,0,0-4-.83l1.82,2.6.18,3.17a5.71,5.71,0,0,0,2.66-3.15,14.34,14.34,0,0,0,8-.55C89,218.84,91.92,216.64,93.12,214.17Z"/><path class="cls-19" d="M87.72,214.55h0a1.92,1.92,0,0,0,.92,2.66h0"/><circle class="cls-20" cx="89.62" cy="214.61" r="0.42"/><path class="cls-18" d="M51.54,241.87c-2.48-1.18-6.15-1.06-9.44.11a14.36,14.36,0,0,0-6.61,4.58,5.67,5.67,0,0,0-4.05-.8l1.84,2.59.21,3.17a5.72,5.72,0,0,0,2.64-3.17,14.35,14.35,0,0,0,8-.62C47.44,246.56,50.36,244.34,51.54,241.87Z"/><path class="cls-19" d="M46.14,242.29h0a1.93,1.93,0,0,0,.94,2.65h0"/><circle class="cls-20" cx="48.04" cy="242.33" r="0.42"/><path class="cls-14" d="M-16.64,316c55.83-64.28,79.19-2.84,126.64-39.48,45.15-34.86,81-47.54,114-12,19.62,21.15,22.28,51,28.58,64.62Z"/><path class="cls-12" d="M78.23,289.06c9.68-.43,20-3.48,31.77-12.58,19.75-15.25,37.73-26.26,54.46-30.84"/><path class="cls-12" d="M59.59,287.46c3.84.64,7.68,1.22,11.6,1.49"/><path class="cls-12" d="M170.1,244.33c19.3-3.63,37,1.92,53.89,20.15,19.62,21.15,22.28,51,28.58,64.62L-16.64,316c29.39-33.84,49.78-32.84,69.42-29.65"/><path class="cls-21" d="M200.59,311.46c-15.06-3.87-53.79.7-63-11.46-13.77-18.17,31.76-43.25,54.51-33.42C213.7,275.9,220,313.92,200.59,311.46Z"/><path class="cls-12" d="M184.86,264.66a26.79,26.79,0,0,1,7.24,1.92"/><path class="cls-12" d="M196,268.64c18.41,11.86,22.77,45.13,4.62,42.82-15.06-3.87-53.79.7-63-11.46C126,284.69,156.51,264.46,180,264.37"/><path class="cls-14" d="M107.11,197.37c-17.11-1.6-30.31,2-36.83,17.81C64.76,228.57,63.83,251,85,252.2c17.79,1,24-21.43,42.63-30.7C142.69,214,135.44,200,107.11,197.37Z"/><path class="cls-12" d="M113.23,232.79c4.09-4.3,8.66-8.43,14.4-11.29,15.06-7.52,7.81-21.47-20.52-24.13-10.11-.94-18.86-.08-25.67,4"/><path class="cls-12" d="M103,243.81c2.33-2.31,4.61-4.92,7-7.57"/><path class="cls-12" d="M77.36,204.52a29.84,29.84,0,0,0-7.08,10.66C64.76,228.57,63.83,251,85,252.2c5.58.31,10-1.69,14.09-4.86"/><path class="cls-11" d="M218.46,221.83c-3.93-2.38-12.28-5.11-17-1.66-4.45,3.26-9.37,13.88-4.53,17.69,4.14,3.26,25.44,4.52,30-3.68C229.21,230.07,222.48,224.27,218.46,221.83Z"/><path class="cls-12" d="M206.54,218.56a9.26,9.26,0,0,0-5.09,1.61c-4.45,3.26-9.37,13.88-4.53,17.69,4.14,3.26,25.44,4.52,30-3.68,2.29-4.11-4.44-9.91-8.46-12.35a25.31,25.31,0,0,0-8.64-3.09"/><path class="cls-21" d="M-4.06,223.41C7.26,224,12.36,233.46,21.1,234.3c7.9.75,8.45,8,1.95,12.37C11.8,254.21,0,257-9.23,254.92-22.6,251.9-19.5,222.56-4.06,223.41Z"/><path class="cls-12" d="M21.1,234.3c7.9.75,8.45,8,1.95,12.37C11.8,254.21,0,257-9.23,254.92c-13.37-3-10.27-32.36,5.17-31.51,5.66.32,9.76,2.83,13.55,5.37"/><circle class="cls-21" cx="85.36" cy="290.77" r="11.81"/><path class="cls-12" d="M76.33,283.16a11.81,11.81,0,1,1-2.42,10.54"/><circle class="cls-21" cx="58.12" cy="270.47" r="4.43"/><circle class="cls-12" cx="58.12" cy="270.47" r="4.43"/><path class="cls-6" d="M151.94,26.65a13,13,0,0,1-3.21,4.26,2,2,0,0,0,0,3,13,13,0,0,1,3.21,4.26,2,2,0,0,0,3.67,0,13,13,0,0,1,3.21-4.26,2,2,0,0,0,0-3,13,13,0,0,1-3.21-4.26A2,2,0,0,0,151.94,26.65Z"/><path class="cls-6" d="M66.31,4.38A8,8,0,0,1,64.3,7a1.25,1.25,0,0,0,0,1.88,8.09,8.09,0,0,1,2,2.65,1.26,1.26,0,0,0,2.28,0,8.09,8.09,0,0,1,2-2.65A1.25,1.25,0,0,0,70.6,7a8,8,0,0,1-2-2.66A1.27,1.27,0,0,0,66.31,4.38Z"/><path class="cls-6" d="M102.61,79.87a12.45,12.45,0,0,1-3,4,1.88,1.88,0,0,0,0,2.86,12.3,12.3,0,0,1,3,4,1.93,1.93,0,0,0,3.48,0,12.31,12.31,0,0,1,3-4,1.88,1.88,0,0,0,0-2.86,12.47,12.47,0,0,1-3-4A1.93,1.93,0,0,0,102.61,79.87Z"/></g><rect class="cls-29" width="300" height="300"/></g></g></svg>