<svg id="Layer_1" data-name="Layer 1" xmlns="http://www.w3.org/2000/svg" xmlns:xlink="http://www.w3.org/1999/xlink" viewBox="0 0 300 300"><defs><style>.cls-1,.cls-10,.cls-15,.cls-16,.cls-23,.cls-27,.cls-30,.cls-31,.cls-32,.cls-38,.cls-43,.cls-45,.cls-46,.cls-49,.cls-52,.cls-55,.cls-56,.cls-57,.cls-58,.cls-7,.cls-71,.cls-79,.cls-80,.cls-84,.cls-89,.cls-90{fill:none;}.cls-2{clip-path:url(#clip-path);}.cls-3{fill:#d4efdf;}.cls-4,.cls-8{fill:#b2d8d5;}.cls-4,.cls-57,.cls-92{stroke:#8db5b0;}.cls-10,.cls-11,.cls-15,.cls-16,.cls-17,.cls-18,.cls-19,.cls-20,.cls-21,.cls-23,.cls-24,.cls-26,.cls-27,.cls-28,.cls-30,.cls-31,.cls-32,.cls-34,.cls-35,.cls-38,.cls-4,.cls-42,.cls-43,.cls-45,.cls-46,.cls-49,.cls-51,.cls-52,.cls-53,.cls-55,.cls-56,.cls-57,.cls-58,.cls-59,.cls-6,.cls-60,.cls-61,.cls-62,.cls-63,.cls-64,.cls-65,.cls-66,.cls-68,.cls-7,.cls-71,.cls-72,.cls-74,.cls-76,.cls-77,.cls-78,.cls-79,.cls-80,.cls-83,.cls-84,.cls-85,.cls-86,.cls-87,.cls-88,.cls-89,.cls-90,.cls-91,.cls-92{stroke-linecap:round;stroke-linejoin:round;}.cls-5{fill:#c9e5d4;}.cls-14,.cls-18,.cls-19,.cls-28,.cls-35,.cls-53,.cls-6,.cls-86,.cls-93{fill:#fff;}.cls-11,.cls-16,.cls-26,.cls-51,.cls-59,.cls-6,.cls-60,.cls-68,.cls-72,.cls-77,.cls-83,.cls-85,.cls-87,.cls-88{stroke:#4e6763;}.cls-7{stroke:#a3c1b3;}.cls-68,.cls-9{fill:#beddc2;}.cls-10,.cls-55{stroke:#9cc5ad;}.cls-10{stroke-dasharray:6 12;}.cls-11,.cls-22{fill:#9f7d77;}.cls-12{fill:#e5e0da;}.cls-13{fill:#76a17d;}.cls-15,.cls-18{stroke:#000;}.cls-17,.cls-47{fill:#5c9479;}.cls-17,.cls-19,.cls-24{stroke:#3a7467;}.cls-20{fill:#beac99;}.cls-20,.cls-21,.cls-23{stroke:#77525c;}.cls-21{fill:#77525c;}.cls-24,.cls-40,.cls-63{fill:#ffc566;}.cls-25{fill:#8bce83;}.cls-26,.cls-34,.cls-37,.cls-44{fill:#81bb82;}.cls-27,.cls-34,.cls-35{stroke:#509477;}.cls-28,.cls-56{stroke:#3f5552;}.cls-29,.cls-59{fill:#abcf99;}.cls-30,.cls-31,.cls-32{stroke:#8abd85;}.cls-30{stroke-dasharray:5.52 11.05;}.cls-32{stroke-dasharray:6.17 12.34;}.cls-33{fill:#c9ad9e;}.cls-36{fill:#509477;}.cls-37,.cls-46{stroke:#81bb82;}.cls-37,.cls-73{stroke-miterlimit:10;}.cls-38,.cls-42{stroke:#a6787e;}.cls-39{fill:#dfccb4;}.cls-41{fill:#ffdf79;}.cls-42{fill:#a6787e;}.cls-43{stroke:#5c9479;}.cls-45{stroke:#abcf99;}.cls-48{fill:#f5eadf;}.cls-49,.cls-63,.cls-65{stroke:#5c946e;}.cls-50,.cls-51{fill:#f5f8ed;}.cls-52,.cls-53{stroke:#cdddc4;}.cls-54{fill:#cdddc4;}.cls-58,.cls-61,.cls-62{stroke:#dbc2bd;}.cls-60{fill:#d2e2bf;}.cls-61{fill:#eae4dd;}.cls-62{fill:#f3f2eb;}.cls-64,.cls-65{fill:#f3f1dc;}.cls-64{stroke:#f8a26e;}.cls-66{fill:#f6e38c;stroke:#ecb476;}.cls-67{fill:#9cc5ad;}.cls-69,.cls-77{fill:#d8c4c2;}.cls-70,.cls-72,.cls-78{fill:#b2ccbc;}.cls-71,.cls-73{stroke:#9ab5a7;}.cls-73,.cls-75,.cls-76{fill:#9ab5a7;}.cls-74{fill:#fcb2b4;}.cls-74,.cls-76,.cls-78{stroke:#789989;}.cls-79{stroke:#c5a8af;}.cls-80{stroke:#d4c9c3;}.cls-81,.cls-88,.cls-91{fill:#aacda8;}.cls-82,.cls-85{fill:#4e6763;}.cls-83{fill:#709a7d;}.cls-84,.cls-86{stroke:#2d2726;}.cls-84{stroke-width:3px;}.cls-87{fill:#deedd3;}.cls-89,.cls-91{stroke:#709a7d;}.cls-90{stroke:#aacda8;}.cls-92{fill:#8db5b0;}.cls-93{opacity:0.5;}</style><clipPath id="clip-path"><rect class="cls-1" width="300" height="300"/></clipPath></defs><g class="cls-2"><rect class="cls-3" x="-11.81" y="-9.63" width="325.92" height="325.92"/><path class="cls-4" d="M278.79,130.5l.1-.12q.17-.23.3-.45v0a3.26,3.26,0,0,0,.25-.54,1.15,1.15,0,0,0,.06-.17v0c0-.13.07-.24.1-.35v-.06c0-.11,0-.2.05-.28v-.05c0-.07,0-.14,0-.18v-.08a3.47,3.47,0,0,0-2.16-.62,23.19,23.19,0,0,0-8-9.71l.05-.08,1.54-2.24a.94.94,0,1,0-1.54-1.07L268,116.82a23.07,23.07,0,0,0-11.61-3.13c-.63,0-1.25,0-1.86.09l-.29,0c-.59,0-1.17.13-1.74.23l-.33,0c-.57.11-1.14.23-1.7.38l-.21.06c-.55.15-1.09.32-1.63.51l-.14,0c-.54.19-1.07.42-1.6.65l-.28.13c-.51.24-1,.49-1.49.76l-.27.16c-.5.28-1,.58-1.46.9l-.1.07c-.46.32-.9.65-1.34,1l-.18.15c-.43.35-.85.72-1.26,1.1l-.23.23-.23.21a2.19,2.19,0,0,0-1.19-.35,2.24,2.24,0,0,0-2.24,2.23,2.22,2.22,0,0,0,.61,1.53l-.38.57-.15.24c-.29.47-.57,1-.83,1.46l-.15.28c-.25.51-.49,1-.71,1.55,0,.06,0,.13-.08.19-.21.52-.4,1.05-.58,1.59a.75.75,0,0,0,0,.16c-.18.55-.33,1.11-.46,1.68a1.21,1.21,0,0,1-.05.18h0c-.11.48-.2.95-.28,1.44h0a.07.07,0,0,0,0,.05c-.08.52-.14,1-.19,1.59l0,.37,0,.44-1.79-.14a.94.94,0,1,0-.14,1.87l1.93.15a23,23,0,0,0,1.25,6.92,2.29,2.29,0,0,0,1.52,4,1.51,1.51,0,0,0-.09.53,1.73,1.73,0,0,0,1.74,1.73h.11c.23.3.46.6.71.9a3.22,3.22,0,0,0,.24.28l.5.58.32.34c.16.16.31.33.48.49s.23.23.35.34l.48.45.37.33.49.42.41.31.5.39.42.3.52.36.44.28q.27.18.54.33l.45.27.55.3.47.24.57.27.48.22.59.25.49.2.6.21.5.17.63.19.5.15.18.05c-.22,4.75-.66,9.42-.95,12.86h0c-.19,2.45-2,3.61-2.26,4.81-.32,1.74,3,1.06,3.94.1-.14.15-.25.28-.35.41a.18.18,0,0,1,0,.07l-.21.35,0,.06a1.05,1.05,0,0,0-.1.3h0a.66.66,0,0,0,0,.24s0,0,0,0a.41.41,0,0,0,.08.19l0,0a1.29,1.29,0,0,0,.17.15h0a.82.82,0,0,0,.23.11h0a1.15,1.15,0,0,0,.28.06h.06l.34,0h.45l.39-.05h.08l.41-.08,0,0,.4-.1.06,0,.4-.13.08,0,.39-.16,0,0a2.31,2.31,0,0,0,.35-.18h0l.27-.16.5-.31c-.67,1.59,4.08,1.26,4.73-.33,1.19,1.93,5.9,1.93,4.87-.17-.68-1.38-1.77-1.77-1.86-3.22h0c0-.31-.05-.63-.08-1h0c0-.26,0-.53-.07-.8s0-.33,0-.5,0-.46-.06-.71V171c0-.47-.09-.95-.13-1.46,0-.21,0-.42,0-.63s0-.36-.05-.53l-.06-.71c0-.17,0-.34,0-.51l-.06-.74c0-.18,0-.37,0-.55l-.06-.75c0-.19,0-.38,0-.57s0-.49-.06-.75,0-.39,0-.59,0-.5,0-.75l0-.51a4.42,4.42,0,0,0,3.53-4.07,23.15,23.15,0,0,0,12.69-27.28Z"/><path class="cls-5" d="M236.76,180a15.32,15.32,0,0,0-18.09-19.41,11.33,11.33,0,0,0-20.94,5.55,4.57,4.57,0,0,0-8.24,2.73,4.33,4.33,0,0,0,.2,1.31h-.2a12.72,12.72,0,0,0-12.71,12.72,12.9,12.9,0,0,0,.78,4.41h67A7.8,7.8,0,0,0,236.76,180Z"/><path class="cls-5" d="M180.63,37.72A7.7,7.7,0,0,0,172.94,30a7.3,7.3,0,0,0-.94.06A5.73,5.73,0,0,0,160.82,29a5.79,5.79,0,0,0-8.42,7.08l-.22,0a1.34,1.34,0,0,0-1.35,1.35,1.55,1.55,0,0,0,.07.43,4.6,4.6,0,0,0-3.19,2.76h32.35A7.54,7.54,0,0,0,180.63,37.72Z"/><path class="cls-5" d="M91,139.33a5.8,5.8,0,0,1,5.8-5.8c.24,0,.47,0,.7,0a4.32,4.32,0,0,1,8.43-.8,4.36,4.36,0,0,1,6.66,3.7,4.23,4.23,0,0,1-.32,1.63h.17a1,1,0,0,1,1,1,.88.88,0,0,1-.06.33,3.46,3.46,0,0,1,2.41,2.08H91.43A5.84,5.84,0,0,1,91,139.33Z"/><path class="cls-6" d="M118.36,22.66a1.87,1.87,0,0,0-1.86-1.86h-4.36a8.25,8.25,0,0,0-8-6.15,7.7,7.7,0,0,0-1.67.18,7.79,7.79,0,0,0-15.14-1.94A6.22,6.22,0,0,0,77.65,18a6,6,0,0,0,.12,1.2,4.23,4.23,0,0,0-3.59,4.17,4,4,0,0,0,.06.7,19,19,0,0,0-3.8,4.34h46.87a4.73,4.73,0,0,0,0-.53,3.91,3.91,0,0,0-2-3.39h1.12A1.87,1.87,0,0,0,118.36,22.66Z"/><path class="cls-7" d="M109.88,25.12A3.2,3.2,0,0,0,107,23.37a3.24,3.24,0,0,0-1.29.27A4.93,4.93,0,1,0,96,25.12"/><path class="cls-7" d="M85.8,22a1.72,1.72,0,0,0-3.16,1.13"/><path class="cls-8" d="M233.58,188.76l-17.36-18.4a3.25,3.25,0,0,0-4.73,0L198.81,183.8l-9-5.48a2.66,2.66,0,0,0-2.8,0l-3.25,2v-4.78A1.71,1.71,0,0,0,182,173.8h-2.39a1.72,1.72,0,0,0-1.71,1.71v8.31l-5.51,3.34V154.4a2.67,2.67,0,0,0-2.68-2.67h-12.5a2.67,2.67,0,0,0-2.67,2.67v38.43H143V181.69h1.17a2.78,2.78,0,0,0,2-4.69l-14.84-15.73a2.78,2.78,0,0,0-4,0L112.46,177a2.78,2.78,0,0,0,2,4.69h1.16v5.48L108,179a2,2,0,0,0-3,0l-7.55,8-10-10.58a2.78,2.78,0,0,0-4,0L77,183.24v-1.56A1.71,1.71,0,0,0,75.33,180H72.94a1.7,1.7,0,0,0-1.71,1.71v7.72l-2.63,2.79a2.79,2.79,0,0,0,2,4.7h1.17v28.35H229.85v-31h1.36A3.26,3.26,0,0,0,233.58,188.76Z"/><path class="cls-9" d="M367,178.5a206.9,206.9,0,0,0-66-10.75c-97.09,0-178.58,66.77-201.09,156.89H367Z"/><path class="cls-10" d="M106.42,319.64a203.5,203.5,0,0,1,69.17-103.32A202.57,202.57,0,0,1,362,182.13"/><path class="cls-11" d="M78.53,194.14c-.36-1.94-3.34-3.8-3.65-7.74h0c-.65-7.75-1.76-19.34-1.76-29.8H54.69c0,12-1.45,25.46-2,32.94h0c-.16,2.32-1.9,3-3,5.17-1.67,3.38,5.91,3.38,7.82.28,1.1,2.7,9.61,3.14,7.34.06,2.09,2.84,12,4.28,7.34-.76C73.72,195.84,79,196.93,78.53,194.14Z"/><path class="cls-12" d="M291.32,168q-9.17.42-18.11,1.63c-36.09,23.92,21.93,46.33-72.09,75.25l60.42,28.84C322.16,235.27,256.81,192.91,291.32,168Z"/><path class="cls-13" d="M101.24,129.68a37.24,37.24,0,1,0-52.7,33.87A7.1,7.1,0,0,0,60.83,168a4.52,4.52,0,0,0,7.25-1.27,37.17,37.17,0,0,0,25.83-14.83h.17a2.78,2.78,0,0,0,2.79-2.79,2.65,2.65,0,0,0-.13-.85,3.68,3.68,0,0,0,2.45-6.36A37.26,37.26,0,0,0,101.24,129.68Z"/><path class="cls-14" d="M96.74,107.05a2.82,2.82,0,0,0-.55-.88,2.93,2.93,0,0,0-2.19-1,3.3,3.3,0,0,0-1.44.29,2.54,2.54,0,0,0-.88.68,2.33,2.33,0,0,0-.4.65,2,2,0,0,0-.08.28,2.25,2.25,0,0,0,.21.2,5.57,5.57,0,0,0,.57.43,3.45,3.45,0,0,0,4,0A3.07,3.07,0,0,0,96.74,107.05Z"/><path class="cls-15" d="M96.13,107.66a2.84,2.84,0,0,0,.61-.61,2.82,2.82,0,0,0-.55-.88,2.93,2.93,0,0,0-2.19-1,3.3,3.3,0,0,0-1.44.29,2.54,2.54,0,0,0-.88.68,2.33,2.33,0,0,0-.4.65,2,2,0,0,0-.08.28,2.25,2.25,0,0,0,.21.2,5.57,5.57,0,0,0,.57.43,3.46,3.46,0,0,0,1.94.66,3.35,3.35,0,0,0,1.65-.37"/><path class="cls-15" d="M91.94,106.77a5.14,5.14,0,0,1,3.21,0"/><path class="cls-16" d="M93.91,151.86h.17a2.78,2.78,0,0,0,2.79-2.79,2.65,2.65,0,0,0-.13-.85,3.68,3.68,0,0,0,2.45-6.36,37.26,37.26,0,0,0,2-12.19"/><path class="cls-16" d="M101.05,125.87a37.24,37.24,0,1,0-52.51,37.68A7.1,7.1,0,0,0,60.83,168a4.52,4.52,0,0,0,7.25-1.27,37.19,37.19,0,0,0,24.39-13"/><path class="cls-17" d="M75,152.43a2.51,2.51,0,0,0,4.73-.26,1.61,1.61,0,0,0,.39,0A1.92,1.92,0,0,0,81.61,149"/><path class="cls-18" d="M60.51,121.52a1.85,1.85,0,0,0-3.42.39,2.46,2.46,0,0,0-1.21,0,2.53,2.53,0,0,0-1.28,4.29"/><circle class="cls-18" cx="77.22" cy="125.23" r="0.92"/><circle class="cls-18" cx="59.06" cy="158.3" r="1.7"/><circle class="cls-19" cx="91.76" cy="132.04" r="0.71"/><circle class="cls-18" cx="65.88" cy="104.5" r="0.61"/><path d="M47.14,111.89a1.5,1.5,0,0,0,0-3,1.5,1.5,0,0,0,0,3Z"/><ellipse class="cls-20" cx="59.6" cy="176.69" rx="4.41" ry="5.41"/><path class="cls-21" d="M59.6,179.27c-1,0-1.78-1.18-1.78-2.58s.81-2.57,1.78-2.57,1.78,1.18,1.78,2.57S60.56,179.27,59.6,179.27Z"/><path class="cls-22" d="M72.63,173a2.18,2.18,0,0,1-.94-4.14l7.6-3.64a2.17,2.17,0,1,1,1.88,3.92l-7.6,3.64A2.15,2.15,0,0,1,72.63,173Z"/><path class="cls-23" d="M71.69,172.77a2.11,2.11,0,0,1-1-1"/><path class="cls-16" d="M71.69,168.85l7.6-3.64a2.17,2.17,0,1,1,1.88,3.92l-7.4,3.55-.2.09"/><circle class="cls-24" cx="72.63" cy="142.5" r="2.85"/><circle class="cls-18" cx="56.21" cy="135.6" r="2.85"/><circle class="cls-24" cx="88.2" cy="121.46" r="2.85"/><circle class="cls-18" cx="72.63" cy="110.39" r="2.85"/><path class="cls-14" d="M94.36,101.21a3.82,3.82,0,0,0-1.22-.66,4,4,0,0,0-3.24.3,4.31,4.31,0,0,0-1.5,1.3,3.48,3.48,0,0,0-.6,1.38,3.05,3.05,0,0,0,0,1,2.41,2.41,0,0,0,.09.39,3.17,3.17,0,0,0,.38.1c.24,0,.58.1,1,.13a4.72,4.72,0,0,0,2.72-.52,4.57,4.57,0,0,0,2-2.12A4.15,4.15,0,0,0,94.36,101.21Z"/><path class="cls-15" d="M94.05,102.34a4,4,0,0,0,.31-1.13,3.82,3.82,0,0,0-1.22-.66,4,4,0,0,0-3.24.3,4.31,4.31,0,0,0-1.5,1.3,3.48,3.48,0,0,0-.6,1.38,3.05,3.05,0,0,0,0,1,2.41,2.41,0,0,0,.09.39,3.17,3.17,0,0,0,.38.1c.24,0,.58.1,1,.13a4.72,4.72,0,0,0,2.72-.52,4.63,4.63,0,0,0,1.7-1.52"/><path class="cls-15" d="M88.51,104.07a7,7,0,0,1,3.78-2.17"/><path class="cls-14" d="M58.57,130.93a2.83,2.83,0,0,0-.87-.47,2.9,2.9,0,0,0-2.31.21,3.2,3.2,0,0,0-1.07.93,2.38,2.38,0,0,0-.45,1.72,2.52,2.52,0,0,0,.06.28l.28.06a4.54,4.54,0,0,0,.68.1,3.32,3.32,0,0,0,1.94-.37,3.25,3.25,0,0,0,1.45-1.51A3.09,3.09,0,0,0,58.57,130.93Z"/><path class="cls-15" d="M58.35,131.74a2.94,2.94,0,0,0,.22-.81,2.83,2.83,0,0,0-.87-.47,2.9,2.9,0,0,0-2.31.21,3.2,3.2,0,0,0-1.07.93,2.38,2.38,0,0,0-.45,1.72,2.52,2.52,0,0,0,.06.28l.28.06a4.54,4.54,0,0,0,.68.1A3.37,3.37,0,0,0,58,132.31"/><path class="cls-15" d="M54.4,133a4.87,4.87,0,0,1,2.69-1.54"/><path class="cls-14" d="M91.23,119.39a2.08,2.08,0,0,1-2.08,1,2.37,2.37,0,0,1-1-.34,1.81,1.81,0,0,1-.55-.56,1.66,1.66,0,0,1-.21-.48c0-.13,0-.21,0-.21l.17-.12c.11-.06.26-.16.44-.24a2.44,2.44,0,0,1,1.4-.27,2.41,2.41,0,0,1,1.38.63A2.26,2.26,0,0,1,91.23,119.39Z"/><path class="cls-15" d="M90.87,118.9a2.55,2.55,0,0,1,.36.49,2.08,2.08,0,0,1-2.08,1,2.37,2.37,0,0,1-1-.34,1.81,1.81,0,0,1-.55-.56,1.66,1.66,0,0,1-.21-.48c0-.13,0-.21,0-.21l.17-.12c.11-.06.26-.16.44-.24a2.44,2.44,0,0,1,1.4-.27,2.41,2.41,0,0,1,1.11.41"/><path class="cls-15" d="M88.3,119.3a3.47,3.47,0,0,0,1.8.15"/><path class="cls-25" d="M97,17.17a6.42,6.42,0,0,0-1.26-2,6.8,6.8,0,0,0-5-2.25,7.29,7.29,0,0,0-3.31.68,6,6,0,0,0-2,1.55,5.4,5.4,0,0,0-.9,1.5,3.4,3.4,0,0,0-.2.65s.18.19.49.46a11.89,11.89,0,0,0,1.31,1,8.06,8.06,0,0,0,4.47,1.51,7.89,7.89,0,0,0,4.79-1.45A7.12,7.12,0,0,0,97,17.17Z"/><path class="cls-26" d="M95.6,18.59A7,7,0,0,0,97,17.17a6.42,6.42,0,0,0-1.26-2,6.8,6.8,0,0,0-5-2.25,7.29,7.29,0,0,0-3.31.68,6,6,0,0,0-2,1.55,5.4,5.4,0,0,0-.9,1.5,3.4,3.4,0,0,0-.2.65s.18.19.49.46a11.89,11.89,0,0,0,1.31,1,8.06,8.06,0,0,0,4.47,1.51,7.91,7.91,0,0,0,3.78-.84"/><path class="cls-27" d="M85.94,16.54a11.84,11.84,0,0,1,7.4-.07"/><path class="cls-6" d="M301.28,40.3a16.09,16.09,0,0,0-5.78,1.08,13.93,13.93,0,0,0-15-7.07,10.73,10.73,0,0,0,.1-1.4,11.48,11.48,0,0,0-20.6-7,6.51,6.51,0,0,0-10,4.68,15.55,15.55,0,0,0-14.4,15.5c0,.5,0,1,.07,1.48a11.69,11.69,0,0,0-6.49,5.57h88A16.28,16.28,0,0,0,301.28,40.3Z"/><circle class="cls-6" cx="241.24" cy="22.21" r="2.35"/><circle class="cls-6" cx="230.78" cy="39.99" r="1.59"/><path class="cls-7" d="M290.75,45.25a6.85,6.85,0,0,0-13.21-2.53,5.62,5.62,0,0,0-1.1-.11A5.4,5.4,0,0,0,271,48a5.48,5.48,0,0,0,.25,1.62"/><path class="cls-7" d="M253.29,37.16a4.57,4.57,0,0,1,8.24,2.31"/><rect class="cls-6" x="137.99" y="80.42" width="15.74" height="3.84" rx="1.92"/><circle class="cls-28" cx="63.93" cy="96.16" r="2.67"/><circle class="cls-28" cx="75.76" cy="75.63" r="1.06"/><path class="cls-6" d="M167.21,101.65H151.16a16,16,0,0,0-12.7-6.24,16.51,16.51,0,0,0-2.24.17A11,11,0,0,0,125.29,85.4a10.73,10.73,0,0,0-2.55.31,22.67,22.67,0,0,0-44.25,7A22,22,0,0,0,78.74,96a17.84,17.84,0,0,0-11.08,8.71A18,18,0,0,0,42.4,120.5H165.83a13.32,13.32,0,0,0-11.28-6.24h-.26a15.76,15.76,0,0,0,.26-2.77,16,16,0,0,0-.37-3.41h13a3.23,3.23,0,0,0,3.23-3.22h0A3.23,3.23,0,0,0,167.21,101.65Z"/><rect class="cls-6" x="157.51" y="90.73" width="7.91" height="4.05" rx="2.03"/><path class="cls-7" d="M71.42,106.94a18.25,18.25,0,0,1,4.68,5.33"/><path class="cls-7" d="M139.37,109.25a9.93,9.93,0,0,0-18.69-4.67h-.2c-5.93,0-14.06,4.12-16.37,12.29"/><path class="cls-7" d="M98.9,88.78a5.76,5.76,0,0,1,11,3.32"/><path class="cls-29" d="M346.58,346.41C269.81,248,150.1,184.68,15.59,184.68a422.39,422.39,0,0,0-61.26,4.45V346.41Z"/><path class="cls-30" d="M-21.7,196.36c12.39-1.12,24.87-1.68,37.29-1.68q20.16,0,39.94,1.89"/><path class="cls-31" d="M61,197.13l3,.34"/><path class="cls-31" d="M107.35,204.92l2.92.68"/><path class="cls-32" d="M122.23,208.63a406.39,406.39,0,0,1,76,29,413.6,413.6,0,0,1,121.06,92"/><path class="cls-33" d="M55.09,217.54c-.83-4.46-7.67-8.73-8.38-17.8h0c-1.5-17.83-4-44.5-4-68.56H.24c0,27.57-3.34,58.58-4.62,75.77h0c-.36,5.35-4.37,6.82-6.88,11.92-3.83,7.77,13.61,7.76,18,.62,2.53,6.21,22.11,7.25,16.88.14,4.81,6.54,27.55,9.86,16.88-1.74C44,221.45,56.27,224,55.09,217.54Z"/><path class="cls-16" d="M27.11,222.48c7.76,4.37,22.35,5.15,13.39-4.59,3.52,3.56,15.77,6.07,14.59-.35-.83-4.46-7.67-8.73-8.38-17.8h0c-1.5-17.83-4-44.5-4-68.56H.24c0,25.75-2.91,54.5-4.34,72.19"/><path class="cls-29" d="M107.35,69.24A85.67,85.67,0,1,0-13.91,147.16a16.34,16.34,0,0,0,28.29,10.15,10.4,10.4,0,0,0,16.68-2.92,85.58,85.58,0,0,0,59.42-34.11l.4,0A6.41,6.41,0,0,0,97,111.92a8.45,8.45,0,0,0,5.63-14.62A85.49,85.49,0,0,0,107.35,69.24Z"/><path class="cls-34" d="M47.07,121.59A5.77,5.77,0,0,0,58,121a5.16,5.16,0,0,0,.89.09,4.42,4.42,0,0,0,3.33-7.33"/><path class="cls-34" d="M13.63,50.47a4.27,4.27,0,0,0-7.87.9A5.83,5.83,0,0,0,0,61.12"/><circle class="cls-34" cx="52.09" cy="59.01" r="2.11"/><circle class="cls-35" cx="10.3" cy="135.09" r="3.91"/><circle class="cls-36" cx="85.53" cy="74.68" r="1.63"/><circle class="cls-35" cx="27.39" cy="38.96" r="1.4"/><circle class="cls-37" cx="38.73" cy="107.2" r="6.56"/><path class="cls-38" d="M2.22,191.15A18.5,18.5,0,0,1-3.6,177.41"/><path class="cls-38" d="M22.38,189.56a14.19,14.19,0,0,1-10.84,5.29,13.43,13.43,0,0,1-6.38-1.62"/><ellipse class="cls-39" cx="11.54" cy="177.41" rx="10.14" ry="12.44"/><circle class="cls-40" cx="38.73" cy="105.15" r="6.56"/><circle class="cls-41" cx="38.73" cy="103.48" r="3.26"/><circle class="cls-37" cx="10.3" cy="79.54" r="6.56"/><circle class="cls-40" cx="10.3" cy="77.48" r="6.56"/><circle class="cls-41" cx="10.3" cy="75.81" r="3.26"/><path class="cls-42" d="M11.54,184.85c-2.79,0-5.14-3.41-5.14-7.44S8.75,170,11.54,170s5.14,3.4,5.14,7.44S14.32,184.85,11.54,184.85Z"/><circle class="cls-43" cx="65.28" cy="159.45" r="2.88"/><circle class="cls-37" cx="77.85" cy="58.43" r="6.56"/><path class="cls-33" d="M41.52,168.88a5,5,0,0,1-2.16-9.51L56.84,151a5,5,0,0,1,4.32,9l-17.48,8.38A5.07,5.07,0,0,1,41.52,168.88Z"/><path class="cls-38" d="M41.52,168.88A5,5,0,0,1,37,166"/><path class="cls-16" d="M39.36,159.37,56.84,151a5,5,0,0,1,4.32,9l-17,8.16-.46.22"/><path class="cls-27" d="M43.49,109.66a6.56,6.56,0,1,1,1.8-4.51,6.62,6.62,0,0,1-.5,2.52"/><path class="cls-27" d="M5.15,81.54a6.56,6.56,0,1,1,7.3,2.14"/><path class="cls-27" d="M9.67,84A6.56,6.56,0,0,1,7,83.16"/><circle class="cls-37" cx="52.09" cy="23.98" r="6.56"/><circle class="cls-40" cx="52.09" cy="21.93" r="6.56"/><path class="cls-29" d="M15.73,66.75a6.29,6.29,0,0,0-2-1.09,6.54,6.54,0,0,0-5.3.5A6.94,6.94,0,0,0,6,68.28a6,6,0,0,0-1,2.27,5.15,5.15,0,0,0,0,1.69,3.39,3.39,0,0,0,.13.64s.24.07.64.15a11.19,11.19,0,0,0,1.56.22,7.75,7.75,0,0,0,4.47-.85,7.54,7.54,0,0,0,3.34-3.47A7.08,7.08,0,0,0,15.73,66.75Z"/><path class="cls-27" d="M15.22,68.6a6.76,6.76,0,0,0,.51-1.85,6.29,6.29,0,0,0-2-1.09,6.54,6.54,0,0,0-5.3.5A6.94,6.94,0,0,0,6,68.28a6,6,0,0,0-1,2.27,5.15,5.15,0,0,0,0,1.69,3.39,3.39,0,0,0,.13.64s.24.07.64.15a11.19,11.19,0,0,0,1.56.22,7.75,7.75,0,0,0,4.47-.85,7.41,7.41,0,0,0,2.78-2.49"/><path class="cls-27" d="M6.13,71.44a11.46,11.46,0,0,1,6.19-3.56"/><path class="cls-34" d="M44.76,97a4.76,4.76,0,0,0-1.33-1.11,4.94,4.94,0,0,0-4-.42,5.21,5.21,0,0,0-2.14,1.21,4.55,4.55,0,0,0-1.07,1.53A4,4,0,0,0,36,99.46a2.5,2.5,0,0,0,0,.5,3.88,3.88,0,0,0,.44.2,7.71,7.71,0,0,0,1.12.4,5.91,5.91,0,0,0,3.44,0,5.77,5.77,0,0,0,3-2.08A5.19,5.19,0,0,0,44.76,97Z"/><path class="cls-27" d="M44.38,97.86a5,5,0,0,0,.38-.85,4.76,4.76,0,0,0-1.33-1.11,4.94,4.94,0,0,0-4-.42,5.21,5.21,0,0,0-2.14,1.21,4.55,4.55,0,0,0-1.07,1.53A4,4,0,0,0,36,99.46a2.5,2.5,0,0,0,0,.5,3.88,3.88,0,0,0,.44.2,7.71,7.71,0,0,0,1.12.4,5.91,5.91,0,0,0,3.44,0,5.81,5.81,0,0,0,2.43-1.43"/><path class="cls-27" d="M37.78,98.51a8.37,8.37,0,0,1,4.29-1.17"/><path class="cls-16" d="M35,153.87a85.62,85.62,0,0,0,55.52-33.59l.4,0A6.41,6.41,0,0,0,97,111.92a8.45,8.45,0,0,0,5.63-14.62,85.49,85.49,0,0,0,4.73-28.06,86.81,86.81,0,0,0-1.07-13.58"/><path class="cls-16" d="M14.38,157.31a10.4,10.4,0,0,0,16.68-2.92"/><path class="cls-16" d="M105.26,50.34A85.68,85.68,0,1,0-13.91,147.16,16.35,16.35,0,0,0,11.18,160"/><circle class="cls-44" cx="81.71" cy="100.34" r="13.5"/><circle class="cls-44" cx="1.4" cy="20.26" r="21.48"/><circle class="cls-44" cx="90.4" cy="86.72" r="7.99"/><circle class="cls-40" cx="77.85" cy="56.38" r="6.56"/><circle class="cls-41" cx="77.85" cy="54.71" r="3.26"/><path class="cls-27" d="M74.46,50.77a6.58,6.58,0,1,1-1.84,1.66"/><path class="cls-27" d="M52.09,28.49a6.56,6.56,0,1,1,6.56-6.56,6.29,6.29,0,0,1-.29,1.9"/><path class="cls-27" d="M56.81,26.48A6.48,6.48,0,0,1,55,27.8"/><circle class="cls-41" cx="52.09" cy="20.26" r="3.26"/><path class="cls-29" d="M84.81,51.6a4.55,4.55,0,0,1-1.06,1.27A4.75,4.75,0,0,1,80,53.94a5,5,0,0,1-2.22-.78,4.25,4.25,0,0,1-1.27-1.27,3.92,3.92,0,0,1-.48-1.12A2.22,2.22,0,0,1,76,50.3s.14-.11.38-.27a9,9,0,0,1,1-.56,5.59,5.59,0,0,1,3.24-.62,5.44,5.44,0,0,1,3.17,1.46A4.8,4.8,0,0,1,84.81,51.6Z"/><path class="cls-27" d="M84,50.49a4.78,4.78,0,0,1,.83,1.11,4.55,4.55,0,0,1-1.06,1.27A4.75,4.75,0,0,1,80,53.94a5,5,0,0,1-2.22-.78,4.25,4.25,0,0,1-1.27-1.27,3.92,3.92,0,0,1-.48-1.12A2.22,2.22,0,0,1,76,50.3s.14-.11.38-.27a9,9,0,0,1,1-.56,5.59,5.59,0,0,1,3.24-.62,5.4,5.4,0,0,1,2,.61"/><path class="cls-27" d="M78.08,51.4a8.11,8.11,0,0,0,4.14.34"/><circle class="cls-44" cx="-6.4" cy="107.2" r="18.73"/><path class="cls-33" d="M12.3,183.1c-1.77,0-3.28-2.19-3.28-4.78s1.51-4.78,3.28-4.78,3.29,2.19,3.29,4.78S14.08,183.1,12.3,183.1Z"/><path class="cls-38" d="M14.83,189.18a8.56,8.56,0,0,1-3.29.67c-5.6,0-10.14-5.57-10.14-12.44a13.18,13.18,0,0,1,5-10.73"/><path class="cls-38" d="M19.52,185.08a11.31,11.31,0,0,1-1.86,2.24"/><path class="cls-38" d="M8.83,165.42a8.2,8.2,0,0,1,2.71-.45c5.6,0,10.14,5.57,10.14,12.44a14.92,14.92,0,0,1-.75,4.69"/><circle class="cls-35" cx="72.63" cy="89.15" r="4.09"/><circle class="cls-34" cx="44.83" cy="7.06" r="2.84"/><path class="cls-16" d="M-4.38,207h0c-.36,5.35-4.37,6.82-6.88,11.92-3.83,7.77,13.61,7.76,18,.62,2.53,6.21,22.11,7.25,16.88.14"/><path class="cls-14" d="M91.52,3.75A9,9,0,0,0,88.7,2.22a9.2,9.2,0,0,0-7.44.7,9.77,9.77,0,0,0-3.45,3,8.15,8.15,0,0,0-1.39,3.19,7.42,7.42,0,0,0-.06,2.37,5.27,5.27,0,0,0,.19.89,8.79,8.79,0,0,0,.89.22,19.41,19.41,0,0,0,2.19.3,10.84,10.84,0,0,0,6.28-1.19A10.64,10.64,0,0,0,90.6,6.81,9.81,9.81,0,0,0,91.52,3.75Z"/><path class="cls-16" d="M90.8,6.35a9.5,9.5,0,0,0,.72-2.6A9,9,0,0,0,88.7,2.22a9.2,9.2,0,0,0-7.44.7,9.77,9.77,0,0,0-3.45,3,8.15,8.15,0,0,0-1.39,3.19,7.42,7.42,0,0,0-.06,2.37,5.27,5.27,0,0,0,.19.89,8.79,8.79,0,0,0,.89.22,19.41,19.41,0,0,0,2.19.3,10.84,10.84,0,0,0,6.28-1.19,10.4,10.4,0,0,0,3.9-3.49"/><path class="cls-45" d="M78.05,10.33a16,16,0,0,1,8.69-5"/><circle class="cls-46" cx="37.01" cy="75.81" r="3.26"/><circle class="cls-46" cx="36.52" cy="138.32" r="1.44"/><circle class="cls-46" cx="74.69" cy="29" r="3.39"/><circle class="cls-46" cx="24.88" cy="12.24" r="8.02"/><circle class="cls-43" cx="89.2" cy="146.54" r="2.88"/><circle class="cls-47" cx="83.26" cy="135.6" r="1.54"/><path class="cls-48" d="M218.75,302.63c-33.3-1.63-84.28-14.69-92-33.85-5-12.31,20.76-23,6.84-39.31-12.28-14.37-52.27-12.76-30.18-35.58q-9.51-2-19.19-3.62c-37,29.39,20.73,32.88-31,73.11C38.57,274.71,29.91,295,43.55,314Z"/><path class="cls-49" d="M104.18,214.12c-7.19-3.81-10.64-8.64-2.94-17.83"/><path class="cls-49" d="M109.5,216.58c-1-.42-2-.84-2.91-1.27"/><path class="cls-49" d="M43.55,314l175.2-11.38c-33.3-1.63-84.28-14.69-92-33.85-5-12.31,20.76-23,6.84-39.31-4.8-5.61-13.83-8.79-21.73-11.94"/><path class="cls-49" d="M64,254a123.52,123.52,0,0,1-10.84,9.38c-9.94,7.71-17.12,19.58-16.4,32.37"/><path class="cls-49" d="M81.74,192.33c-27.88,24.1,10,30.37-14.22,57.94"/><circle class="cls-50" cx="189.52" cy="32.78" r="14.75"/><path class="cls-51" d="M194.25,46.75a14.75,14.75,0,0,1-15.15-24.4"/><path class="cls-51" d="M201.35,41.58a15.08,15.08,0,0,1-3.21,3.17"/><path class="cls-51" d="M182.21,20a14.75,14.75,0,0,1,22.06,12.81,14.91,14.91,0,0,1-1,5.28"/><circle class="cls-52" cx="186.14" cy="28.04" r="5.52"/><circle class="cls-53" cx="189.53" cy="33.08" r="1.86"/><path class="cls-52" d="M193.51,30.62a6.27,6.27,0,1,1-6.27,6.27"/><circle class="cls-54" cx="186.14" cy="28.04" r="0.86"/><path class="cls-16" d="M293.91,167.87a206.31,206.31,0,0,0-117.13,41.22"/><path class="cls-55" d="M280.64,189.82c-.31-6.67,1.21-12.83,6.54-18.29"/><path class="cls-55" d="M273.45,264.73c26.5-24.28,10.78-49.43,7.66-70.29"/><path class="cls-55" d="M239.66,229.19a133.11,133.11,0,0,1-19,8.94"/><path class="cls-55" d="M248.67,222.88a53.31,53.31,0,0,1-4.79,3.64"/><path class="cls-55" d="M269.56,172.27c-19.24,15.58-2.16,30.64-17.58,47.42"/><polyline class="cls-56" points="-45.67 189.13 -45.67 346.4 346.58 346.4"/><path class="cls-16" d="M95.75,192.33a417.58,417.58,0,0,0-45.49-6.24"/><path class="cls-16" d="M267.05,268.37a417.44,417.44,0,0,0-163.64-74.49"/><path class="cls-57" d="M224.62,179.27l-8.4-8.91a3.25,3.25,0,0,0-4.73,0L198.81,183.8l-9-5.48a2.66,2.66,0,0,0-2.8,0l-3.25,2v-4.78A1.71,1.71,0,0,0,182,173.8h-2.39a1.72,1.72,0,0,0-1.71,1.71v8.31l-5.51,3.34V154.4a2.67,2.67,0,0,0-2.68-2.67h-12.5a2.67,2.67,0,0,0-2.67,2.67v38.43H143V181.69h1.17a2.78,2.78,0,0,0,2-4.69l-14.84-15.73a2.78,2.78,0,0,0-4,0L112.46,177a2.78,2.78,0,0,0,2,4.69h1.16v5.48L108,179a2,2,0,0,0-3,0l-7.55,8-10-10.58a2.78,2.78,0,0,0-4,0L78.18,182"/><path class="cls-5" d="M255.26,110.27a3.8,3.8,0,0,0-3.63-3.79,7.89,7.89,0,0,0-7.36-10.79A7.81,7.81,0,0,0,242,96a7.9,7.9,0,0,0-15.39,2.55v.1h0a11.21,11.21,0,0,0-11.22,11.21,11.56,11.56,0,0,0,.14,1.78H255A3.94,3.94,0,0,0,255.26,110.27Z"/><line class="cls-58" x1="123.96" y1="236.04" x2="116.14" y2="236.04"/><line class="cls-58" x1="113.03" y1="236.04" x2="109.5" y2="236.04"/><line class="cls-58" x1="105.14" y1="240.01" x2="119.28" y2="240.01"/><line class="cls-58" x1="79.21" y1="200.59" x2="82.82" y2="200.59"/><line class="cls-58" x1="76.43" y1="202.91" x2="85.63" y2="202.91"/><line class="cls-58" x1="85" y1="200.59" x2="86.6" y2="200.59"/><line class="cls-58" x1="85.84" y1="278.02" x2="97.52" y2="278.02"/><line class="cls-58" x1="93.84" y1="283.6" x2="113.03" y2="283.6"/><line class="cls-58" x1="90.03" y1="283.6" x2="86.79" y2="283.6"/><line class="cls-58" x1="77.91" y1="289.5" x2="99.91" y2="289.5"/><line class="cls-58" x1="103.67" y1="289.5" x2="108.41" y2="289.5"/><path class="cls-59" d="M96.17,254.13a19.32,19.32,0,0,0-5.58.67,16.53,16.53,0,0,0-7.79,4.61c-1.75,2-2.34,4.07-1.36,5.66s3,2,5.29,1.86a35.07,35.07,0,0,0,6.88-1.2c4.43-1.22,10.55-3.79,10-7.55-.27-2-2.22-3.21-4.9-3.76"/><path class="cls-49" d="M92.45,260.17a37.23,37.23,0,0,0-8.66,3.52"/><path class="cls-49" d="M97.52,259.09c-.94.17-1.88.34-2.82.55"/><path class="cls-60" d="M94.73,262.11a13.38,13.38,0,0,0-3.86-1.43,12.21,12.21,0,0,0-6.71.51c-2,.81-3.31,2.35-3.16,4.21a5.88,5.88,0,0,0,2.6,4.26,13,13,0,0,0,5.07,2.15c3.64.71,8.62.17,9.67-3.44.54-1.92-.34-3.71-2-5.12"/><path class="cls-31" d="M90,266.3a44.32,44.32,0,0,0-7-.92"/><path class="cls-31" d="M93.84,267.17c-.69-.18-1.4-.35-2.1-.51"/><path class="cls-60" d="M82.24,250.46a14.7,14.7,0,0,0-2.71,3.63,13.44,13.44,0,0,0-1.6,6.82c.14,2.16,1,3.89,2.83,4.49s3.5-.08,5-1.28a15.43,15.43,0,0,0,3.78-4.75,15,15,0,0,0,1.74-5.65,6.09,6.09,0,0,0-1.51-4.84,3.27,3.27,0,0,0-2.63-1A6.91,6.91,0,0,0,84,249.05"/><path class="cls-31" d="M84.68,256.47a68.8,68.8,0,0,0-3.16,6.87"/><path class="cls-31" d="M86.79,252.85c-.42.65-.82,1.32-1.2,2"/><path class="cls-59" d="M87.56,268.5a16.08,16.08,0,0,0-4.34-2.28,14.66,14.66,0,0,0-7.75-.59c-2.38.53-4,1.92-4.07,3.79S72.48,272.74,74,274a19.33,19.33,0,0,0,5.56,3A19,19,0,0,0,85.84,278c2-.07,3.75-.6,4.81-2.15s.44-3.88-1.31-5.78"/><path class="cls-49" d="M81.67,271.69a43.87,43.87,0,0,0-7.9-2"/><path class="cls-49" d="M85.89,273.35c-.77-.33-1.54-.66-2.32-1"/><path class="cls-59" d="M70.6,254.16a14.55,14.55,0,0,0-2,3.76,13.3,13.3,0,0,0-.66,6.67c.39,2,1.44,3.62,3.25,4.11s3.5-.34,4.89-1.72a15.16,15.16,0,0,0,4-11.28c-.19-1.95-1-3.67-2.67-4.44s-3.75-.16-5.42,1.35"/><path class="cls-49" d="M74,259.57q-1.26,3.48-2.27,7.05"/><line class="cls-49" x1="75.48" y1="255.74" x2="74.64" y2="257.85"/><path class="cls-60" d="M80.68,274.6a19.08,19.08,0,0,0-4.35-2.81,16.56,16.56,0,0,0-8.13-1.58c-2.5.23-4.33,1.3-4.74,3.12s.68,3.52,2.27,5a23.49,23.49,0,0,0,5.84,3.76,21.9,21.9,0,0,0,6.91,2c2.27.2,4.28-.25,5.23-1.87s.33-3.85-1.32-5.87"/><path class="cls-31" d="M74.25,277.08A53,53,0,0,0,66,274"/><path class="cls-31" d="M78.63,279.32c-.79-.44-1.6-.86-2.41-1.27"/><path class="cls-60" d="M61.38,257.73A15.57,15.57,0,0,0,59.21,262c-1.63,4.92-.84,10.73,2.81,11.51s6.63-4,7.95-7.94a18.76,18.76,0,0,0,1-6.38c-.09-2.13-.83-4-2.56-4.71s-3.78,0-5.52,1.58"/><path class="cls-31" d="M64.68,263.48c-.85,2.54-1.53,5.14-2.14,7.74"/><path class="cls-31" d="M66.27,259.33c-.32.75-.63,1.51-.92,2.28"/><path class="cls-59" d="M72.61,279.81a18.73,18.73,0,0,0-5-3.4,16.67,16.67,0,0,0-9.49-1.54c-2.82.48-4.62,1.9-4.68,3.76s1.43,3.32,3.23,4.6a45,45,0,0,0,6.11,3.44,35.75,35.75,0,0,0,6.94,2.53c2.32.52,4.45.46,5.64-1s.77-3.9-1-6.29"/><path class="cls-49" d="M65.57,281.7a30.46,30.46,0,0,0-9.27-2.83"/><path class="cls-49" d="M70.25,284.38q-1.26-.83-2.55-1.56"/><path class="cls-59" d="M50.24,262.86a16.28,16.28,0,0,0-1.58,4.36,14.87,14.87,0,0,0,.29,7.34c.72,2.2,2.18,3.82,4.07,3.68a5.79,5.79,0,0,0,4.37-2.82,17.8,17.8,0,0,0,2.51-12.36c-.4-2-1.28-3.64-3-4.31s-3.83.3-5.37,2.21"/><path class="cls-49" d="M54.28,268.06a67.5,67.5,0,0,0-1.2,7.86"/><path class="cls-49" d="M55.29,263.77c-.2.79-.41,1.57-.59,2.37"/><path class="cls-60" d="M65.49,285.15a21.9,21.9,0,0,0-4.8-2.75,19.23,19.23,0,0,0-8.58-1.49c-2.65.24-4.63,1.32-5,3.17s.86,3.5,2.63,5a28.1,28.1,0,0,0,14.05,5.74c2.36.17,4.41-.24,5.38-1.85s.18-4-1.76-6"/><path class="cls-31" d="M58.87,287.79a69.75,69.75,0,0,0-9-3.09"/><path class="cls-31" d="M63.68,290c-.87-.43-1.75-.85-2.64-1.25"/><path class="cls-60" d="M39.3,268.82a17.29,17.29,0,0,0-.32,4.93,15.63,15.63,0,0,0,2.52,7.52c1.42,2,3.37,3.06,5.1,2.36s2.62-2.31,3.17-4.23a19.52,19.52,0,0,0,.51-6.54,19.75,19.75,0,0,0-1.62-6.58c-.92-1.91-2.21-3.36-4.09-3.52S41,264.17,40,266.54"/><path class="cls-31" d="M44.61,273a47.53,47.53,0,0,0,1.26,8.31"/><path class="cls-31" d="M44.41,268.32c0,.86,0,1.72.07,2.58"/><path class="cls-59" d="M59.86,290.71A21.8,21.8,0,0,0,54,287.52a20.94,20.94,0,0,0-5.45-1.16,16.2,16.2,0,0,0-5.17.43,8.21,8.21,0,0,0-3.55,1.78,3,3,0,0,0-1.09,2.56,3.62,3.62,0,0,0,1.37,2.37A13.7,13.7,0,0,0,43,295.27c1.1.5,2.28,1,3.51,1.5s2.48,1,3.73,1.42a51.39,51.39,0,0,0,7.94,2.29c2.58.45,4.86.31,5.91-1.25s.25-4.07-1.92-6.45"/><path class="cls-49" d="M52.5,293a36.33,36.33,0,0,0-5.21-1.47,31.35,31.35,0,0,0-5.38-.54"/><path class="cls-49" d="M58,295.5c-.48-.27-1-.53-1.47-.77s-1-.49-1.51-.71"/><path class="cls-59" d="M30.06,275.6a18.57,18.57,0,0,0-.13,5.21,16.8,16.8,0,0,0,2.87,7.7,7.3,7.3,0,0,0,2.58,2.28,2.93,2.93,0,0,0,2.7,0A6.14,6.14,0,0,0,41,286.34a21.48,21.48,0,0,0,.19-6.87,22.45,22.45,0,0,0-1.81-6.69c-.94-1.92-2.19-3.41-4.06-3.62s-3.67,1.43-4.61,4"/><path class="cls-49" d="M35.53,279.8a52.47,52.47,0,0,0,1.65,8.62"/><path class="cls-49" d="M35.16,275c0,.9.08,1.8.16,2.69"/><path class="cls-60" d="M52.89,298.31a30.11,30.11,0,0,0-6.53-2.24,25,25,0,0,0-11.11,0c-3.2.83-5.22,2.44-5.09,4.3s2.17,3.13,4.77,4.18a61.86,61.86,0,0,0,9,2.63,43.92,43.92,0,0,0,9.79,1.18c3-.07,5.4-.82,5.94-2.62s-1.15-4-4-5.83"/><path class="cls-31" d="M45.6,301.71a57,57,0,0,0-11.93-1.48"/><path class="cls-60" d="M20.68,282.54a21.33,21.33,0,0,0-.1,6A18.61,18.61,0,0,0,24,297.38c1.71,2.25,3.76,3.3,5.47,2.55s2.36-2.78,2.6-5.14a37.51,37.51,0,0,0-.21-7.67A33.25,33.25,0,0,0,30,279.39c-.93-2.32-2.27-4.07-4.15-4.13s-3.56,1.78-4.51,4.57"/><path class="cls-31" d="M26.15,287.44a45.3,45.3,0,0,0,2.23,9.76"/><path class="cls-31" d="M25.79,281.89c0,1,.06,2.05.14,3.07"/><path class="cls-59" d="M13.15,296a15.75,15.75,0,0,0,.55,4.86,14.54,14.54,0,0,0,3.68,6.49c1.65,1.59,3.58,2.3,5.26,1.45s2.4-2.57,2.63-4.58a18,18,0,0,0-.64-6.37,17.76,17.76,0,0,0-2.56-5.56,8,8,0,0,0-.88-1.05,6.78,6.78,0,0,0-1-.86,5,5,0,0,0-2.42-1,3.21,3.21,0,0,0-2.65,1,7,7,0,0,0-1.64,3.15"/><path class="cls-49" d="M19.09,299.08a61.28,61.28,0,0,0,2.59,7.6"/><path class="cls-49" d="M18.13,294.73c.12.81.3,1.62.47,2.42"/><path class="cls-60" d="M15.1,315.83a125.12,125.12,0,0,1,28.33-31.41A114.09,114.09,0,0,1,80.54,265a.43.43,0,0,1,.27.81,112.19,112.19,0,0,0-35.3,21.11A121,121,0,0,0,20,318.72h0A2.83,2.83,0,0,1,15,316Z"/><path class="cls-61" d="M98.35,222.7a2.41,2.41,0,0,1,1.3-.34,4.17,4.17,0,0,1,3.53,2.17.6.6,0,0,1-.52.91H97.79a.6.6,0,0,1-.6-.69,4.58,4.58,0,0,1,.2-.79"/><path class="cls-62" d="M103.65,223.66a1.74,1.74,0,0,0-1.6,1.15.45.45,0,0,0,.41.63h2.39a.45.45,0,0,0,.41-.63A1.74,1.74,0,0,0,103.65,223.66Z"/><path class="cls-63" d="M170.23,270.5a1.77,1.77,0,0,0-1-.87,5.27,5.27,0,0,0-.6-.14l.4-.47a1.75,1.75,0,0,0-2.83-2.06c-.12.16-.22.34-.33.52a4.52,4.52,0,0,0-.32-.52,1.76,1.76,0,0,0-1.41-.72,1.74,1.74,0,0,0-1.41,2.78c.11.15.25.31.39.47a5.26,5.26,0,0,0-.6.15,1.72,1.72,0,0,0-1,.86,1.78,1.78,0,0,0-.11,1.34,1.75,1.75,0,0,0,1.66,1.2,1.91,1.91,0,0,0,.54-.08,4.53,4.53,0,0,0,.57-.23,4.45,4.45,0,0,0,0,.61,1.75,1.75,0,0,0,3.49,0,4.45,4.45,0,0,0,0-.61c.2.09.39.17.57.23a1.91,1.91,0,0,0,.54.08,1.74,1.74,0,0,0,1.66-1.2A1.78,1.78,0,0,0,170.23,270.5Z"/><circle class="cls-64" cx="165.86" cy="270.38" r="1.33"/><path class="cls-63" d="M191.23,247a1.06,1.06,0,0,0-.43-.68,3.37,3.37,0,0,0-.32-.19,3.28,3.28,0,0,0,.31-.2,1.06,1.06,0,0,0,.2-1.49,1.11,1.11,0,0,0-.53-.37,1.07,1.07,0,0,0-1,.17,3,3,0,0,0-.28.24,3.57,3.57,0,0,0-.1-.35,1.07,1.07,0,0,0-.69-.67,1,1,0,0,0-.65,0,1.05,1.05,0,0,0-.61.54,1.08,1.08,0,0,0-.05.81,2.52,2.52,0,0,0,.15.34l-.37,0a1.06,1.06,0,0,0-.75.33,1.06,1.06,0,0,0,.46,1.74,1,1,0,0,0,.33.05l.37,0a2.11,2.11,0,0,0-.13.34,1.06,1.06,0,1,0,2,.62,3.15,3.15,0,0,0,.09-.36,1.94,1.94,0,0,0,.29.23,1.11,1.11,0,0,0,.29.14,1.06,1.06,0,0,0,1.18-.4A1.08,1.08,0,0,0,191.23,247Z"/><path class="cls-63" d="M60.53,199.68a1,1,0,0,0-.13-.8,2.86,2.86,0,0,0-.22-.3l.37-.07a1.06,1.06,0,0,0,.77-1.28,1,1,0,0,0-.35-.56,1,1,0,0,0-.93-.21,1.65,1.65,0,0,0-.36.11,1.57,1.57,0,0,0,0-.37,1,1,0,0,0-.37-.88,1,1,0,0,0-.61-.25,1.08,1.08,0,0,0-1.13,1c0,.12,0,.25,0,.38a2.59,2.59,0,0,0-.33-.17,1.08,1.08,0,0,0-.81,0,1.05,1.05,0,0,0-.27,1.78,1,1,0,0,0,.28.17,1.9,1.9,0,0,0,.36.12,2.17,2.17,0,0,0-.26.27A1.06,1.06,0,1,0,58.21,200c.07-.09.15-.19.22-.3a2.55,2.55,0,0,0,.17.33,1,1,0,0,0,.22.25,1.07,1.07,0,0,0,1.24.09A1.05,1.05,0,0,0,60.53,199.68Z"/><path class="cls-63" d="M253.61,302.25a2.13,2.13,0,0,0-.61-1.57,7.19,7.19,0,0,0-.57-.52,6.75,6.75,0,0,0,.72-.29,2.2,2.2,0,0,0,1-2.94,2.15,2.15,0,0,0-.94-1,2.2,2.2,0,0,0-2,0,7.73,7.73,0,0,0-.68.38,4.9,4.9,0,0,0-.05-.77,2.18,2.18,0,0,0-1.14-1.64,2.09,2.09,0,0,0-1.34-.24,2.2,2.2,0,0,0-1.89,2.48c0,.24.09.5.16.76a5.5,5.5,0,0,0-.75-.19,2.2,2.2,0,0,0-2.56,1.78,2.19,2.19,0,0,0,1.13,2.33,2.1,2.1,0,0,0,.65.23,6.07,6.07,0,0,0,.77.08,6.3,6.3,0,0,0-.41.66,2.2,2.2,0,0,0,3.88,2.08,5.79,5.79,0,0,0,.32-.7c.17.22.34.42.5.59a2.06,2.06,0,0,0,.55.42,2.19,2.19,0,0,0,3.24-1.9Z"/><circle class="cls-64" cx="248.82" cy="299.51" r="1.68"/><path class="cls-65" d="M204.27,296a2.19,2.19,0,0,0,.48-1.62,7.69,7.69,0,0,0-.14-.76,6.11,6.11,0,0,0,.75.21,2.21,2.21,0,0,0,2.62-1.7,2.27,2.27,0,0,0-.15-1.36,2.22,2.22,0,0,0-1.56-1.26c-.24-.05-.5-.08-.76-.11a6.51,6.51,0,0,0,.43-.64,2.21,2.21,0,0,0,.1-2,2.18,2.18,0,0,0-.91-1,2.21,2.21,0,0,0-3,.81,7.62,7.62,0,0,0-.34.7,6,6,0,0,0-.48-.62,2.19,2.19,0,0,0-1.52-.72,2.2,2.2,0,0,0-2.13,3.1,2.05,2.05,0,0,0,.37.58,5.73,5.73,0,0,0,.56.54,6.19,6.19,0,0,0-.73.27,2.21,2.21,0,0,0,1.81,4,6.53,6.53,0,0,0,.68-.36,4.77,4.77,0,0,0,0,.77,2,2,0,0,0,.18.67,2.2,2.2,0,0,0,3.73.48Z"/><circle class="cls-66" cx="202.16" cy="290.89" r="1.68"/><path class="cls-65" d="M71.11,239.08a1.94,1.94,0,0,0-.66-1.32,6,6,0,0,0-.55-.4,6.71,6.71,0,0,0,.6-.31,1.93,1.93,0,0,0,.64-2.65,1.87,1.87,0,0,0-.9-.77,1.93,1.93,0,0,0-1.75.13c-.18.12-.37.25-.55.39a4.54,4.54,0,0,0-.11-.66,1.94,1.94,0,0,0-2.32-1.43,1.93,1.93,0,0,0-1.43,2.32,6.11,6.11,0,0,0,.21.65,5.73,5.73,0,0,0-.67-.1,2,2,0,0,0-1.41.45,1.93,1.93,0,0,0,.52,3.25,1.89,1.89,0,0,0,.58.14,5.12,5.12,0,0,0,.68,0,4.19,4.19,0,0,0-.3.6,1.92,1.92,0,1,0,3.55,1.48c.08-.19.15-.41.22-.64a5.23,5.23,0,0,0,.48.47,2.29,2.29,0,0,0,.51.32,1.92,1.92,0,0,0,2.66-1.93Z"/><circle class="cls-66" cx="66.72" cy="237.11" r="1.47"/><path class="cls-65" d="M240.72,279.08a1,1,0,0,0-.44-.63,3.07,3.07,0,0,0-.31-.17l.29-.2a1,1,0,0,0,.13-1.42.94.94,0,0,0-.52-.33,1,1,0,0,0-.9.19l-.25.25a3.38,3.38,0,0,0-.11-.34,1,1,0,0,0-1.3-.57,1,1,0,0,0-.56.54,1,1,0,0,0,0,.77,3,3,0,0,0,.15.32h-.35a1,1,0,0,0-.7.33,1.08,1.08,0,0,0-.25.73,1,1,0,0,0,.76.92,1.63,1.63,0,0,0,.31,0l.35-.05a3.18,3.18,0,0,0-.11.33,1,1,0,1,0,1.95.51,1.82,1.82,0,0,0,.06-.35l.29.21a1.08,1.08,0,0,0,.29.13,1,1,0,0,0,1.23-1.2Z"/><path class="cls-31" d="M192.53,277.55a.78.78,0,0,0-.35-.5l-.25-.13.23-.17a.81.81,0,0,0,.11-1.13.73.73,0,0,0-.42-.27.76.76,0,0,0-.71.16l-.21.19a1.43,1.43,0,0,0-.09-.27.77.77,0,0,0-.54-.48.85.85,0,0,0-.5,0,.78.78,0,0,0-.44.43.76.76,0,0,0,0,.61,1.51,1.51,0,0,0,.12.26h-.29a.79.79,0,0,0-.55.27.82.82,0,0,0-.2.58.8.8,0,0,0,.6.73,1.07,1.07,0,0,0,.25,0l.28,0c0,.09-.06.19-.08.27a.79.79,0,0,0,.57,1,.82.82,0,0,0,1-.58c0-.08,0-.18.05-.28l.22.17a.72.72,0,0,0,.24.1.79.79,0,0,0,.88-.35A.81.81,0,0,0,192.53,277.55Z"/><path class="cls-55" d="M217.91,223.63a1.08,1.08,0,0,0-.5-.71,2.37,2.37,0,0,0-.35-.19l.33-.24a1.14,1.14,0,0,0,.15-1.6,1.21,1.21,0,0,0-.59-.38,1.15,1.15,0,0,0-1,.23,2.44,2.44,0,0,0-.29.27l-.12-.38a1.15,1.15,0,0,0-.78-.68,1.12,1.12,0,0,0-.7,0,1.17,1.17,0,0,0-.63.61,1.14,1.14,0,0,0,0,.87c.05.12.11.24.17.36a2.67,2.67,0,0,0-.4,0,1.08,1.08,0,0,0-.78.38,1.14,1.14,0,0,0,.57,1.85,1.34,1.34,0,0,0,.35,0l.4-.06c-.05.14-.1.27-.13.38a1.14,1.14,0,0,0,2.21.57,3.91,3.91,0,0,0,.07-.39l.32.24a1.22,1.22,0,0,0,.33.14,1.14,1.14,0,0,0,1.39-1.35Z"/><path class="cls-55" d="M295.39,198.57a1.09,1.09,0,0,0,.16-.86,2,2,0,0,0-.11-.38l.4.07a1.15,1.15,0,0,0,1.25-1,1.19,1.19,0,0,0-.15-.69,1.09,1.09,0,0,0-.86-.56,2.68,2.68,0,0,0-.4,0,2.91,2.91,0,0,0,.18-.35,1.13,1.13,0,0,0-.05-1,1.08,1.08,0,0,0-.52-.47,1.1,1.1,0,0,0-.87,0,1.12,1.12,0,0,0-.63.6,3.35,3.35,0,0,0-.14.38,1.94,1.94,0,0,0-.28-.29,1.14,1.14,0,0,0-1.6.08,1.13,1.13,0,0,0-.15,1.33,1.23,1.23,0,0,0,.23.28,2.55,2.55,0,0,0,.31.24l-.36.18a1.14,1.14,0,0,0,1.14,2l.33-.22a2.13,2.13,0,0,0,.06.39,1.06,1.06,0,0,0,.12.34,1.16,1.16,0,0,0,1.23.54A1.12,1.12,0,0,0,295.39,198.57Z"/><path class="cls-55" d="M240.82,192.7a.79.79,0,0,0,0-.64,2,2,0,0,0-.12-.26H241a.82.82,0,0,0,.59-1.35.81.81,0,0,0-.69-.3l-.29,0a1.43,1.43,0,0,0,.09-.27.83.83,0,0,0-.16-.74.85.85,0,0,0-1.06-.19.84.84,0,0,0-.38.51,2.47,2.47,0,0,0-.06.29,1.3,1.3,0,0,0-.23-.18.87.87,0,0,0-.63-.11.85.85,0,0,0-.52.37.83.83,0,0,0,.06,1,.65.65,0,0,0,.2.17,2,2,0,0,0,.25.14l-.23.17a.83.83,0,1,0,1.05,1.28,1.29,1.29,0,0,0,.21-.2c0,.1.06.2.09.28a.8.8,0,0,0,.13.22.82.82,0,0,0,1.4-.19Z"/><path class="cls-67" d="M244.3,210.15a.66.66,0,0,0,.26-.46,1.94,1.94,0,0,0,0-.24l.21.12a.7.7,0,0,0,1-.76.7.7,0,0,0-.39-.49.92.92,0,0,0-.23-.09,1.49,1.49,0,0,0,.18-.17.66.66,0,0,0,.17-.6.68.68,0,0,0-.2-.37.71.71,0,0,0-.5-.19.74.74,0,0,0-.48.22l-.15.19c0-.08-.07-.15-.1-.22a.7.7,0,0,0-.42-.33.68.68,0,0,0-.52.06.69.69,0,0,0-.34.74.48.48,0,0,0,.07.2,1.37,1.37,0,0,0,.13.2l-.24,0a.69.69,0,0,0,.27,1.36l.23-.06c0,.08,0,.16-.05.23a.81.81,0,0,0,0,.22.69.69,0,0,0,.59.55A.7.7,0,0,0,244.3,210.15Z"/><path class="cls-67" d="M301,230a.93.93,0,0,0,.36-.63c0-.1,0-.22,0-.33a2.19,2.19,0,0,0,.3.16.93.93,0,0,0,1.25-.46.93.93,0,0,0-.45-1.26l-.31-.12.24-.22a1,1,0,0,0,.24-.83,1,1,0,0,0-1-.77,1,1,0,0,0-.66.3l-.21.26a2.75,2.75,0,0,0-.14-.3.92.92,0,0,0-.57-.45.94.94,0,0,0-1.19,1.09.94.94,0,0,0,.1.28l.18.28-.33,0a.94.94,0,0,0-.74,1.11.93.93,0,0,0,1.11.75l.32-.08c0,.11,0,.22-.07.32a1.51,1.51,0,0,0,0,.3,1,1,0,0,0,.82.76A.94.94,0,0,0,301,230Z"/><path class="cls-31" d="M161.06,238.89a1.1,1.1,0,0,0-.51-.72,2.89,2.89,0,0,0-.35-.19l.33-.24a1.16,1.16,0,0,0,.15-1.63,1.09,1.09,0,0,0-.6-.38,1.14,1.14,0,0,0-1,.23,3.84,3.84,0,0,0-.3.28,2.22,2.22,0,0,0-.12-.39,1.17,1.17,0,0,0-1.5-.65,1.1,1.1,0,0,0-.63.62,1.12,1.12,0,0,0,0,.88c0,.12.11.24.18.37a2.84,2.84,0,0,0-.41,0,1.18,1.18,0,0,0-.8.39,1.17,1.17,0,0,0,.58,1.89,1.1,1.1,0,0,0,.36,0l.4-.05a3.3,3.3,0,0,0-.12.38,1.15,1.15,0,1,0,2.23.58,4,4,0,0,0,.08-.4l.32.24a1.11,1.11,0,0,0,.34.14,1.15,1.15,0,0,0,1.26-.49A1.13,1.13,0,0,0,161.06,238.89Z"/><path class="cls-31" d="M10.18,232.1a1.19,1.19,0,0,0,0-.89l-.2-.35.4,0a1.16,1.16,0,0,0,1-1.29,1.2,1.2,0,0,0-.31-.65,1.14,1.14,0,0,0-1-.35,2.66,2.66,0,0,0-.39.07c0-.13.07-.26.1-.39a1.17,1.17,0,0,0-.29-1,1.18,1.18,0,0,0-.63-.34,1.15,1.15,0,0,0-1.35.92,2.57,2.57,0,0,0,0,.4A3.26,3.26,0,0,0,7.1,228a1.17,1.17,0,0,0-1.57.46,1.17,1.17,0,0,0,.17,1.35A1.3,1.3,0,0,0,6,230l.36.17-.31.25a1.17,1.17,0,0,0,0,1.64,1.15,1.15,0,0,0,1.63.05,2.74,2.74,0,0,0,.28-.3,1.88,1.88,0,0,0,.15.38,1.21,1.21,0,0,0,.2.3,1.14,1.14,0,0,0,1.33.25A1.16,1.16,0,0,0,10.18,232.1Z"/><path class="cls-65" d="M205.8,270.89a1.45,1.45,0,0,0,1.08-.34,4.13,4.13,0,0,0,.37-.36c.05.17.1.34.16.49a1.48,1.48,0,0,0,1.92.82,1.42,1.42,0,0,0,.69-.59,1.46,1.46,0,0,0,.12-1.33,3.39,3.39,0,0,0-.23-.47h.52a1.47,1.47,0,0,0,1.15-.69,1.49,1.49,0,0,0-.29-1.89,1.45,1.45,0,0,0-1.07-.35,3.12,3.12,0,0,0-.51.07c.06-.17.12-.33.16-.49a1.51,1.51,0,0,0-.17-1.12,1.45,1.45,0,0,0-.91-.67,1.47,1.47,0,0,0-1.6.65,1.63,1.63,0,0,0-.18.43,3.86,3.86,0,0,0-.09.51,3.46,3.46,0,0,0-.42-.31,1.47,1.47,0,1,0-1.56,2.5,4,4,0,0,0,.46.24,5.1,5.1,0,0,0-.42.31,1.27,1.27,0,0,0-.3.35,1.47,1.47,0,0,0,1.12,2.24Z"/><circle class="cls-66" cx="207.84" cy="267.82" r="1.12"/><path class="cls-60" d="M62.13,208a27.52,27.52,0,0,0-7.23,3.74,23.77,23.77,0,0,0-8.26,10.19c-1.37,3.59-1.12,6.71,1,8.38s5.13,1.13,8.13-.15a51.06,51.06,0,0,0,8.74-5.1c5.4-3.9,12.42-10.49,9.81-15.33-1.36-2.54-4.64-3.25-8.56-2.63"/><path class="cls-31" d="M60.13,218.06a53.84,53.84,0,0,0-10,9.15"/><path class="cls-31" d="M66.48,214c-1.2.7-2.39,1.41-3.56,2.16"/><path class="cls-6" d="M64.2,219.54a19.22,19.22,0,0,0-6,0,17.71,17.71,0,0,0-8.86,4.08c-2.33,2.12-3.31,4.86-2.16,7.32a8.52,8.52,0,0,0,5.69,4.46,18.48,18.48,0,0,0,8,.36c5.3-.87,11.79-4.12,11.4-9.55-.23-2.88-2.34-4.87-5.28-6"/><path class="cls-45" d="M60,227.6a64,64,0,0,0-10,2.29"/><path class="cls-45" d="M65.56,226.85c-1,.12-2.08.25-3.11.39"/><path class="cls-6" d="M41.35,210a21.38,21.38,0,0,0-1.84,6.3,19.52,19.52,0,0,0,1.26,10.07c1.29,2.88,3.41,4.75,6.12,4.68s4.72-1.88,6.17-4.28a22.35,22.35,0,0,0,2.75-8.36,22,22,0,0,0-.5-8.56,8.87,8.87,0,0,0-4.49-5.81,4.71,4.71,0,0,0-4.08,0,9.87,9.87,0,0,0-3.7,3.16"/><path class="cls-45" d="M47.71,217a97.31,97.31,0,0,0-.82,10.92"/><path class="cls-45" d="M48.74,211c-.23,1.1-.44,2.2-.62,3.31"/><path class="cls-60" d="M57.69,231.84a23.2,23.2,0,0,0-7-.9,21.3,21.3,0,0,0-10.83,3.11c-3,1.92-4.5,4.64-3.61,7.2s3.14,4,5.8,4.9a28.86,28.86,0,0,0,18.17-.5c2.67-1.11,4.78-2.72,5.44-5.35.72-2.81-1.36-5.5-4.7-7.19"/><path class="cls-31" d="M51.31,239.14a63.6,63.6,0,0,0-11.76,1.23"/><path class="cls-31" d="M57.87,239.28c-1.21-.07-2.42-.12-3.63-.14"/><path class="cls-60" d="M27.41,220.92a20.67,20.67,0,0,0-.85,6.15A19.1,19.1,0,0,0,29,236.45c1.56,2.58,3.78,4.2,6.49,4s4.58-2.23,5.77-4.81a20.92,20.92,0,0,0,1.7-8.72,21.19,21.19,0,0,0-1.89-8.65c-1.25-2.55-3.15-4.5-5.87-4.69-2.88-.2-5.18,1.69-6.69,4.58"/><path class="cls-31" d="M34.77,226.56q.06,5.37.48,10.72"/><line class="cls-31" x1="34.85" y1="220.61" x2="34.77" y2="223.9"/><path class="cls-6" d="M51.43,243.61A27.4,27.4,0,0,0,44.1,242a24.13,24.13,0,0,0-11.85,1.95c-3.27,1.58-5.22,4-4.85,6.64S30.1,255,33,256.22a34.36,34.36,0,0,0,9.83,2.16,32.33,32.33,0,0,0,10.4-.77c3.19-.87,5.69-2.5,6.17-5.18.5-2.84-1.51-5.4-4.77-7.31"/><path class="cls-45" d="M44,250.23a78.64,78.64,0,0,0-12.84,0"/><path class="cls-45" d="M51,251.05c-1.3-.19-2.6-.36-3.91-.51"/><path class="cls-6" d="M16.7,230.44a22.37,22.37,0,0,0-.81,6.89c.27,7.5,4.28,15,9.63,14.21s7-8.79,6.79-14.8a27.18,27.18,0,0,0-1.88-9.16c-1.21-2.85-3.14-5-5.86-5.12-2.89-.14-5.15,1.87-6.71,4.94"/><path class="cls-45" d="M24.09,236.59c.12,3.88.51,7.74,1,11.59"/><path class="cls-45" d="M24.14,230.14c-.05,1.19-.09,2.38-.09,3.57"/><path class="cls-60" d="M43.1,254.76a27.39,27.39,0,0,0-8.46-2.12c-4.76-.41-10.12.59-13.66,2.71s-5.33,4.91-4.46,7.47,3.62,3.79,6.71,4.62a64,64,0,0,0,10,1.58A52.53,52.53,0,0,0,44,269c3.4-.47,6.28-1.63,7.16-4.21s-.93-5.68-4.47-8.07"/><path class="cls-31" d="M34.49,260.89a44.33,44.33,0,0,0-14,.83"/><path class="cls-31" d="M42.2,262.16c-1.41-.32-2.83-.6-4.25-.84"/><path class="cls-60" d="M4.15,243a23.28,23.28,0,0,0,.06,6.72,21.52,21.52,0,0,0,4.1,9.83c2.09,2.62,4.89,4.07,7.38,2.94s3.81-3.28,4.52-6a24.5,24.5,0,0,0,.24-9.26,24.88,24.88,0,0,0-3.07-8.81c-1.55-2.47-3.59-4.29-6.31-4.31-2.89,0-5.06,2.33-6.18,5.72"/><path class="cls-31" d="M12.26,248.06a98.79,98.79,0,0,0,2.35,11.29"/><path class="cls-31" d="M11.47,241.72c.12,1.17.24,2.34.4,3.51"/><path class="cls-6" d="M36.13,265.61a31.46,31.46,0,0,0-7.92-1.31,27.87,27.87,0,0,0-12.41,2.32c-3.47,1.65-5.61,4.13-5.12,6.8s2.94,4.32,6.1,5.46a38.19,38.19,0,0,0,10.89,1.85,38,38,0,0,0,11.09-1.16c3.3-1,5.88-2.56,6.38-5.24s-1.75-5.46-5.43-7.3"/><path class="cls-45" d="M28.47,272.54a104.24,104.24,0,0,0-13.8.35"/><path class="cls-45" d="M36.11,273.07c-1.41-.15-2.82-.26-4.23-.35"/><path class="cls-6" d="M-7.71,256.66a25.45,25.45,0,0,0,2.06,6.86,22.73,22.73,0,0,0,7.22,8.94c3,2.05,6.12,2.46,8.13.64s2.39-4.47,2.17-7.36a28.64,28.64,0,0,0-2.62-9.14,28.36,28.36,0,0,0-5.52-8.12C1.52,246.34-1,245-3.6,245.77s-4.18,3.73-4.31,7.44"/><path class="cls-45" d="M1.61,259.63a69.65,69.65,0,0,0,5.92,10.65"/><path class="cls-45" d="M-1,253.4c.44,1.16.91,2.32,1.4,3.47"/><path class="cls-60" d="M31.29,276a31.56,31.56,0,0,0-9.55-1.38,30.28,30.28,0,0,0-8,1.17A23.92,23.92,0,0,0,7,279,12,12,0,0,0,3,283.21a4.47,4.47,0,0,0-.19,4,5.21,5.21,0,0,0,3.06,2.51,18.74,18.74,0,0,0,4.75,1c1.74.14,3.62.27,5.52.28s3.86.05,5.78.05a75.48,75.48,0,0,0,11.94-.91c3.73-.69,6.77-2,7.41-4.68s-1.72-5.66-5.88-7.79"/><path class="cls-31" d="M22.44,282.83a52.52,52.52,0,0,0-7.82.63,46.21,46.21,0,0,0-7.58,2"/><path class="cls-31" d="M31.12,283.48c-.8-.12-1.59-.22-2.4-.3s-1.59-.16-2.4-.2"/><path class="cls-60" d="M-16.83,270.54a27,27,0,0,0,2.46,7.14,24.15,24.15,0,0,0,7.79,9,10.47,10.47,0,0,0,4.65,1.79,4.28,4.28,0,0,0,3.68-1.33c1.77-2,2.13-4.56,1.71-7.55a31.94,31.94,0,0,0-3.21-9.43A32.24,32.24,0,0,0-5.6,262c-2.24-2.13-4.7-3.53-7.34-2.87-2.81.68-4.26,3.8-4.24,7.75"/><path class="cls-6" d="M25.66,289.85a44.28,44.28,0,0,0-10,.26c-5.39.75-11.23,2.78-15.12,5.56s-5.85,5.95-4.73,8.41,4.51,3.16,8.58,3.27a89.67,89.67,0,0,0,13.57-1A63.9,63.9,0,0,0,31.86,303c4.07-1.62,6.92-3.84,6.75-6.56-.19-2.88-3.58-4.83-8.35-5.92"/><path class="cls-45" d="M17.48,298.16a82.24,82.24,0,0,0-17,4"/><path class="cls-45" d="M27.1,297.19c-1.78.13-3.56.28-5.34.46"/><path class="cls-6" d="M-16.83,332.75a181.56,181.56,0,0,1,22.62-57A165.28,165.28,0,0,1,46.4,230.65a.61.61,0,0,1,.87.12.63.63,0,0,1-.09.85,162.25,162.25,0,0,0-37.3,46.5,175.36,175.36,0,0,0-18.65,56.1h0a4.1,4.1,0,0,1-4.68,3.43A4.1,4.1,0,0,1-16.87,333,1.85,1.85,0,0,1-16.83,332.75Z"/><path class="cls-59" d="M-6.58,226.33C-12.2,215.79,1.49,211,7.17,224.82c-.93-2.27.2-4.88,2.65-4.88,3.49,0,6,3.08,7,5.18"/><path class="cls-59" d="M61.55,188.14c2.09-1.82,5.48-2.3,6.83.73,3.07-3.2,11.62-3.17,6.6.93"/><path class="cls-31" d="M159.54,258.91c2.72-3.49,8.05-3,7.65.35,4.49-4.88,10.35-3.7,8.45.49"/><path class="cls-59" d="M226.92,242.86c5.87-3.06,8.48,1.35,6.06,3.82,4.23-1.16,11.26.79,6.68,5"/><path class="cls-59" d="M288.19,287.24c4.28-2.89,9.77.74,7,5.85"/><path class="cls-55" d="M284.42,271.5c1.43-1.95,5.74-3.41,5.32.07,2-2.88,7.79-3.95,7,.51"/><path class="cls-68" d="M200.47,195.56c-2.13-1.83-3-5.6-.49-7.08s7.58-.44,9.35,2.12c-1.32-5.37,4-4.57,5.7-2.62"/><path class="cls-68" d="M290.42,169.8c-2.32-5.49,5.35-4.7,7.72-.89"/><path class="cls-55" d="M219.27,204.63c.38-2.09,3.43-2.95,4.39.06a3.28,3.28,0,0,1,6.32.23"/><path class="cls-69" d="M265.65,174.16c.36-1.93,3.32-3.78,3.63-7.71h0c.65-7.72,1.75-19.27,1.75-29.69h18.38c0,11.94,1.44,25.37,2,32.81h0c.15,2.32,1.89,3,3,5.16,1.66,3.37-5.9,3.37-7.8.28-1.1,2.69-9.58,3.13-7.31.06-2.09,2.83-11.93,4.26-7.31-.76C270.44,175.85,265.14,176.94,265.65,174.16Z"/><path class="cls-16" d="M277.77,176.3c-3.36,1.89-9.68,2.23-5.8-2-1.53,1.54-6.83,2.63-6.32-.15.36-1.93,3.32-3.78,3.63-7.71h0c.65-7.72,1.75-19.27,1.75-29.69h18.38c0,11.15,1.26,23.6,1.88,31.26"/><path class="cls-70" d="M243,109.93a37.11,37.11,0,1,1,52.51,33.75,7.07,7.07,0,0,1-12.25,4.39,4.5,4.5,0,0,1-7.22-1.26A37.07,37.07,0,0,1,250.32,132h-.17a2.77,2.77,0,0,1-2.78-2.78,3,3,0,0,1,.13-.85,3.66,3.66,0,0,1-2.44-6.33A37,37,0,0,1,243,109.93Z"/><path class="cls-16" d="M274.37,146.58A37.07,37.07,0,0,1,250.32,132h-.17a2.77,2.77,0,0,1-2.78-2.78,3,3,0,0,1,.13-.85,3.66,3.66,0,0,1-2.44-6.33,37,37,0,0,1-2-12.15,37.93,37.93,0,0,1,.46-5.88"/><path class="cls-16" d="M283.28,148.07a4.5,4.5,0,0,1-7.22-1.26"/><path class="cls-16" d="M243.92,101.74a37.11,37.11,0,1,1,51.61,41.94,7.09,7.09,0,0,1-7.07,6.66,7,7,0,0,1-3.79-1.11"/><path class="cls-14" d="M274.58,70.71a5.54,5.54,0,0,0-2-.4,5.77,5.77,0,0,0-4.32,1.77,6.12,6.12,0,0,0-1.51,2.41,5.18,5.18,0,0,0-.25,2.16,4.38,4.38,0,0,0,.39,1.42,2.81,2.81,0,0,0,.28.5,4,4,0,0,0,.57,0,9.25,9.25,0,0,0,1.37-.22,6.78,6.78,0,0,0,3.53-1.85,6.64,6.64,0,0,0,1.91-3.76A5.9,5.9,0,0,0,274.58,70.71Z"/><path class="cls-16" d="M274.63,72.39a5.94,5.94,0,0,0-.05-1.68,5.54,5.54,0,0,0-2-.4,5.77,5.77,0,0,0-4.32,1.77,6.12,6.12,0,0,0-1.51,2.41,5.18,5.18,0,0,0-.25,2.16,4.38,4.38,0,0,0,.39,1.42,2.81,2.81,0,0,0,.28.5,4,4,0,0,0,.57,0,9.25,9.25,0,0,0,1.37-.22,6.78,6.78,0,0,0,3.53-1.85,6.48,6.48,0,0,0,1.69-2.8"/><path class="cls-71" d="M267.74,77.09A10,10,0,0,1,272,72.53"/><path class="cls-72" d="M250.65,90a3.58,3.58,0,1,1,3.92-5.83"/><circle class="cls-73" cx="260.18" cy="107.02" r="2.72"/><circle class="cls-73" cx="302.04" cy="123.71" r="2.72"/><circle class="cls-73" cx="272.68" cy="129.15" r="2.72"/><circle class="cls-73" cx="286.76" cy="95.89" r="2.72"/><circle class="cls-74" cx="286.76" cy="94.77" r="2.72"/><circle class="cls-75" cx="274.37" cy="111.95" r="1.74"/><circle class="cls-71" cx="265.85" cy="92.36" r="2.41"/><circle class="cls-71" cx="283.41" cy="137.95" r="2.84"/><circle class="cls-75" cx="288.54" cy="134.06" r="4.5"/><circle class="cls-75" cx="301.25" cy="94.55" r="4.6"/><path class="cls-76" d="M292.49,110.3a2.6,2.6,0,0,1,2.79,4.06,2.54,2.54,0,0,1,.28.29,2,2,0,0,1-.36,2.81,2,2,0,0,1-1.34.41"/><path class="cls-76" d="M274.63,87A2.66,2.66,0,0,1,278,83.35a3.65,3.65,0,0,1,7,.66"/><path class="cls-57" d="M261.12,157.2a1.28,1.28,0,0,1-1.6,1.75,1.94,1.94,0,0,1-.46.69,1.75,1.75,0,0,1-2.47-.09,1.73,1.73,0,0,1-.45-.93"/><circle class="cls-76" cx="261.05" cy="128.03" r="5.97"/><circle class="cls-76" cx="298.79" cy="89.87" r="1.97"/><circle class="cls-74" cx="260.18" cy="105.91" r="2.72"/><circle class="cls-74" cx="302.04" cy="122.6" r="2.72"/><circle class="cls-76" cx="283.06" cy="107.02" r="1.29"/><circle class="cls-74" cx="272.68" cy="128.03" r="2.72"/><path class="cls-77" d="M246.62,108.24a1.5,1.5,0,0,1-.11,3h-.12l-6.42-.49a1.5,1.5,0,0,1,.23-3l4.35.33"/><path class="cls-77" d="M300.17,81a1.5,1.5,0,0,1-2.53-1.61l.06-.1,3.65-5.3a1.5,1.5,0,0,1,2.47,1.7l-2.48,3.6"/><path class="cls-78" d="M296.05,81.74a2.69,2.69,0,0,1,5.06,1.05"/><path class="cls-78" d="M248.6,106.63a1.37,1.37,0,0,0-1,2.43c-1.85,1.31-.47,3.71,1.5,3.82"/><path class="cls-79" d="M287.75,161.81c.07.78.13,1.55.2,2.29"/><path class="cls-79" d="M287,152.4c.16,2.45.35,4.83.53,7.06"/><path class="cls-9" d="M283.78,177.77c-1.36-3.24,3.5-5.83,6.5-3.14,1.67-3.49,8.84-6.28,8.22-.78l-1.45,6.5"/><path class="cls-16" d="M283.78,177.77c-1.36-3.24,3.5-5.83,6.5-3.14,1.67-3.49,8.84-6.28,8.22-.78"/><path class="cls-60" d="M254.43,273.65c.49,3.41-.86,6.36-2,6.74s-2-1.83-1-8.84a9.58,9.58,0,0,0-4.06-1.65c-.34,6.34-1.93,8.53-3.14,7.86s-2.19-4.21-1.58-9.47c-6.89-1-9.93.11-12.87,1s-5.83,1.75-12.37.7c5.7,3.38,7.16,6,8.53,8.69a26.58,26.58,0,0,0,7.37,9.83c3.46-3.92,6.78-5.42,8-4.89s.39,3.06-4.22,7.35a8.81,8.81,0,0,0,3.42,2.06c4.89-5.09,7.22-5.57,7.5-4.45s-1.45,3.87-4.36,5.47a14.69,14.69,0,0,1,5.53,4.11c.83.92,1.65,1.91,2.45,3s1.6,2.17,2.43,3.3c3.31,4.51,7,9.17,13.24,12a31.67,31.67,0,0,0,17.14,2.63c5-.61,9.07-2.37,10.69-4.14s2.58-6.14,1.94-11.42a29,29,0,0,0-8.59-16.92c-5.67-5.59-12.4-7.53-18.47-8.7l-4.46-.79c-1.44-.24-2.84-.47-4.16-.76A20.32,20.32,0,0,1,254.43,273.65Z"/><path class="cls-31" d="M291.86,312.15q-9.37-7.69-19.45-14.44"/><path class="cls-31" d="M269.18,295.59c-2.91-1.88-5.86-3.72-8.85-5.47"/><path class="cls-31" d="M257.33,288.37c-1.95-1.09-3.88-2.21-5.86-3.24"/><polyline class="cls-31" points="240.56 279.61 237.99 278.39 235.39 277.23"/><path class="cls-31" d="M289.63,310.35c-.17-4.72-.52-9.43-1-14.23"/><path class="cls-15" d="M282.66,293q-.33-2.69-.72-5.41"/><path class="cls-31" d="M283.88,305.88c-.22-3.5-.56-6.95-.94-10.48"/><path class="cls-31" d="M278,301.57c-.47-4.66-1.05-9.41-1.8-14.13"/><path class="cls-31" d="M265.27,293.11c-.45-2.92-1-5.81-1.55-8.73"/><path class="cls-31" d="M265.27,293.11c-2.79.85-5.58,1.79-8.33,2.75"/><line class="cls-80" x1="267.05" y1="241.54" x2="276.75" y2="241.54"/><line class="cls-80" x1="280.2" y1="241.54" x2="283.13" y2="241.54"/><line class="cls-80" x1="271.03" y1="237.74" x2="280.69" y2="237.74"/><path class="cls-59" d="M277.06,244.44c0,3.84-2,6.37-3.33,6.3-.67,0-1.18-.74-1.22-2.3a24.87,24.87,0,0,1,1.4-7.45,14.32,14.32,0,0,0-2-1.81c-.4-.3-.82-.6-1.25-.87s-.9-.5-1.34-.71a15,15,0,0,1-2.3,6.43c-.87,1.09-1.7,1.2-2.39.63-1.37-1.14-2-5.23-.76-10.55a56.14,56.14,0,0,0-5.39-2,26.61,26.61,0,0,0-4.18-.91,27.57,27.57,0,0,0-6.13-.17c-.92.05-1.83.09-2.79.08s-2-.09-3.17-.18a31.21,31.21,0,0,1-4-.65c-1.5-.33-3.27-.64-5.26-1.19a36.87,36.87,0,0,1,4.38,3.06,27.91,27.91,0,0,1,2.78,2.76,15.13,15.13,0,0,1,1.74,2.5c.46.81.83,1.58,1.19,2.37.72,1.53,1.34,3.18,2.45,5.12.54,1,1.24,2,2.06,3.18a48,48,0,0,0,3.06,4c4.46-2.95,8.49-3.29,9.89-2.29.7.49.69,1.37-.21,2.41s-2.72,2.28-5.65,3.73a10.88,10.88,0,0,0,.83,1c.29.33.59.66.9,1a11,11,0,0,0,1.8,1.43,19.87,19.87,0,0,1,7-2.65c1.48-.14,2.19.29,2.25.94.14,1.3-2.3,3.44-5.83,3.95A20.45,20.45,0,0,1,267,268c.73,1.31,1.42,2.69,2.1,4.12l1.89,4.53,1,2.3c.31.8.64,1.59,1,2.39.69,1.59,1.49,3.15,2.33,4.74a36.45,36.45,0,0,0,2.84,4.74c.57.76,1.11,1.56,1.7,2.34s1.25,1.56,1.95,2.33,1.4,1.43,2.07,2.12,1.33,1.34,2,2a47.27,47.27,0,0,0,4.18,3.31,41.72,41.72,0,0,0,8.13,4.71c5.1,2.34,9.76,3,12,2.17,2.16-1.05,4.79-4.82,6-10.92a35.63,35.63,0,0,0,.2-10.58,39,39,0,0,0-1.4-6.2c-.32-1.08-.69-2.18-1.1-3.29s-1-2.2-1.51-3.33-1.18-2.26-1.81-3.33a28.34,28.34,0,0,0-2-3,58,58,0,0,0-4.5-5.2,55.2,55.2,0,0,0-4.9-4.2c-.82-.65-1.64-1.26-2.46-1.85s-1.68-1.11-2.52-1.64l-4.84-3c-1.61-.92-3.16-1.82-4.61-2.74A37.4,37.4,0,0,1,277.06,244.44Z"/><path class="cls-49" d="M307.87,304.74a162.54,162.54,0,0,0-15.67-26.28"/><path class="cls-49" d="M289.3,274.53l-4.15-5.1c-.68-.86-1.42-1.68-2.15-2.49l-2.19-2.46"/><path class="cls-49" d="M277.82,261.27c-2-2-3.91-4.07-6-6"/><path class="cls-49" d="M260.09,245.24c-1-.73-1.88-1.5-2.86-2.2L254.29,241"/><path class="cls-49" d="M297.1,285.53c.4-2.59.79-5.26,1.09-7.93s.48-5.34.66-8.09"/><path class="cls-49" d="M285.61,270l.11-2.5c0-.83,0-1.65,0-2.48,0-1.65,0-3.33,0-5"/><path class="cls-49" d="M306.3,301.47q-3.74-1.39-7.4-2.61l-1.82-.6-1.87-.54-3.71-1"/><path class="cls-49" d="M288.26,289.72c-1.9-.4-3.75-.8-5.63-1.13"/><path class="cls-49" d="M301.93,293.37c-1.88-.58-3.74-1.14-5.58-1.66L293.6,291l-2.81-.66"/><path class="cls-49" d="M297.1,285.53c-2.58-.65-5.09-1.26-7.62-1.78s-5.11-.94-7.61-1.33"/><path class="cls-49" d="M285.61,270l-2.43-.34c-.8-.1-1.64-.18-2.45-.26-1.64-.16-3.25-.31-4.86-.43"/><line class="cls-80" x1="264.42" y1="194.82" x2="269.56" y2="194.82"/><line class="cls-80" x1="263.03" y1="197.89" x2="266.99" y2="197.89"/><line class="cls-80" x1="271.96" y1="194.82" x2="274" y2="194.82"/><line class="cls-80" x1="269.97" y1="181.61" x2="277.72" y2="181.61"/><rect class="cls-81" x="100.63" y="206.32" width="4" height="20.54"/><path class="cls-82" d="M104.13,206.82v19.53h-3V206.82h3m1-1h-5v21.53h5V205.82Z"/><path class="cls-83" d="M99.32,224.13h7.46a0,0,0,0,1,0,0v1.76a3,3,0,0,1-3,3H103a3.63,3.63,0,0,1-3.63-3.63v-1.11A0,0,0,0,1,99.32,224.13Z" transform="translate(206.11 453.01) rotate(180)"/><rect class="cls-81" x="109.41" y="206.32" width="4" height="20.54"/><path class="cls-82" d="M112.91,206.82v19.53h-3V206.82h3m1-1h-5v21.53h5V205.82Z"/><path class="cls-83" d="M109.41,224.13h8.23a0,0,0,0,1,0,0v4.74a0,0,0,0,1,0,0h-3.49a4.74,4.74,0,0,1-4.74-4.74v0A0,0,0,0,1,109.41,224.13Z" transform="translate(227.05 453.01) rotate(-180)"/><rect class="cls-6" x="99.25" y="164.25" width="17.8" height="21.1" rx="8.9"/><path class="cls-16" d="M107.26,164.3a8,8,0,0,1,9.53-.82"/><path class="cls-84" d="M103.91,188.23s-9.32,2.59-8.75,17"/><path class="cls-85" d="M117.05,208.74H99.25V194.26a8.93,8.93,0,0,1,8.9-8.9h0a8.91,8.91,0,0,1,8.9,8.9Z"/><rect class="cls-86" x="105.42" y="181.98" width="5.46" height="6.75" rx="2.73"/><path class="cls-6" d="M113.34,204h-.17a1.51,1.51,0,1,1,0-3h.17a2.81,2.81,0,0,0,2.8-2.8v-6.1a2.8,2.8,0,0,0-2.8-2.79h-.17a1.52,1.52,0,1,1,0-3h.17a5.83,5.83,0,0,1,5.82,5.82v6.1A5.83,5.83,0,0,1,113.34,204Z"/><circle class="cls-6" cx="95.16" cy="205.19" r="3.34"/><path class="cls-82" d="M119.52,199.66a6.79,6.79,0,0,1-1.48-.17c-5.16-1.18-7.61-9-8.05-10.59a2.5,2.5,0,1,1,4.81-1.35c.82,2.85,2.61,6.22,4,6.94a12.47,12.47,0,0,0-1.3-3.52,2.5,2.5,0,1,1,4.45-2.28c2.17,4.25,2.49,7.41.94,9.39A4.14,4.14,0,0,1,119.52,199.66Z"/><circle class="cls-6" cx="119.77" cy="189.83" r="3.34"/><path class="cls-85" d="M107.46,163.4h0a5.81,5.81,0,0,1,5.81,5.81V186a7.39,7.39,0,0,1-7.39,7.39h0A7.39,7.39,0,0,1,98.5,186V172.37A9,9,0,0,1,107.46,163.4Z"/><path class="cls-85" d="M107.26,172.18h10v-.85a7.94,7.94,0,0,0-7.93-7.93h-2Z"/><path class="cls-87" d="M92,185h14.36a4.33,4.33,0,0,1,4.33,4.33v3a14.28,14.28,0,0,1-14.28,14.28H92a0,0,0,0,1,0,0V185A0,0,0,0,1,92,185Z" transform="translate(202.76 391.68) rotate(-180)"/><path class="cls-88" d="M108.21,193.41v9.81a3.43,3.43,0,0,0,3.42,3.42h0a3.43,3.43,0,0,0,3.42-3.42V188.46a3.43,3.43,0,0,0-3.42-3.42h0a3.43,3.43,0,0,0-3.42,3.42"/><line class="cls-89" x1="111.63" y1="195.84" x2="111.63" y2="189.83"/><path class="cls-6" d="M93.11,182h16.06a3.93,3.93,0,0,1,3.93,3.93v0a3.93,3.93,0,0,1-3.93,3.93H93.11a0,0,0,0,1,0,0V182a0,0,0,0,1,0,0Z" transform="translate(206.2 371.81) rotate(-180)"/><circle class="cls-81" cx="113.09" cy="185.9" r="3.93"/><circle class="cls-83" cx="113.09" cy="185.9" r="1.53"/><path class="cls-6" d="M104,197.89a1.07,1.07,0,0,1-1.07-1.07V184.13a4.32,4.32,0,0,1,4.31-4.31,1.07,1.07,0,1,1,0,2.13,2.19,2.19,0,0,0-2.18,2.18v12.69A1.06,1.06,0,0,1,104,197.89Z"/><path class="cls-6" d="M97.48,197.89a1.07,1.07,0,0,1-1.07-1.07V184.13a4.32,4.32,0,0,1,4.31-4.31,1.07,1.07,0,1,1,0,2.13,2.18,2.18,0,0,0-2.17,2.18v12.69A1.07,1.07,0,0,1,97.48,197.89Z"/><rect class="cls-81" x="102.52" y="193.31" width="2.91" height="2.5" transform="translate(207.94 389.12) rotate(-180)"/><path class="cls-87" d="M100.3,199.69H93a2.15,2.15,0,0,0-2.16,2.16h0A2.16,2.16,0,0,0,93,204h12.26"/><line class="cls-90" x1="105.22" y1="199.69" x2="102.91" y2="199.69"/><rect class="cls-6" x="111.59" y="173.15" width="3.01" height="6.51" rx="1.5"/><line class="cls-89" x1="102.52" y1="194.56" x2="105.42" y2="194.56"/><rect class="cls-81" x="96.03" y="193.31" width="2.91" height="2.5" transform="translate(194.96 389.12) rotate(-180)"/><line class="cls-89" x1="96.03" y1="194.56" x2="98.93" y2="194.56"/><path class="cls-6" d="M116.23,197.63H112v6.77h4.28a1.34,1.34,0,0,0,1.33-1.33V199A1.34,1.34,0,0,0,116.23,197.63Z"/><path class="cls-87" d="M113.27,197.63H112a1.34,1.34,0,0,0-1.33,1.33v4.11A1.34,1.34,0,0,0,112,204.4h0a1.33,1.33,0,0,0,1.32-1.33v-2.7"/><polyline class="cls-16" points="113.27 200.86 115.42 200.86 117.56 200.86"/><circle class="cls-82" cx="115.42" cy="199.43" r="0.53"/><path class="cls-91" d="M105.22,199.69a2.16,2.16,0,0,0-2.17,2.16h0a2.17,2.17,0,0,0,2.17,2.16"/><line class="cls-89" x1="105.22" y1="204.01" x2="105.22" y2="202.39"/><path class="cls-16" d="M109.17,185.9a3.93,3.93,0,1,0,3.92-3.92h-3.92"/><path class="cls-90" d="M105,169.9c.83-1.07,3.12-2.17,4.57-.41.91,1.1,2.14.95,5.79-1.29"/><path class="cls-89" d="M105,169.9a3.57,3.57,0,0,1,2.91-1.32,2.38,2.38,0,0,1,1.66.91"/><line class="cls-89" x1="108.21" y1="193.41" x2="108.21" y2="203.22"/><rect class="cls-16" x="102.52" y="193.31" width="2.91" height="2.5" transform="translate(207.94 389.12) rotate(-180)"/><rect class="cls-16" x="96.03" y="193.31" width="2.91" height="2.5" transform="translate(194.96 389.12) rotate(-180)"/><rect class="cls-92" x="161.21" y="157.07" width="4.53" height="5.85" rx="0.83" transform="translate(323.46 -3.48) rotate(90)"/><rect class="cls-92" x="161.21" y="166.55" width="4.53" height="5.85" rx="0.83" transform="translate(332.95 6) rotate(90)"/><rect class="cls-92" x="161.21" y="176.04" width="4.53" height="5.85" rx="0.83" transform="translate(342.44 15.49) rotate(90)"/><rect class="cls-92" x="161.21" y="185.53" width="4.53" height="5.85" rx="0.83" transform="translate(351.93 24.98) rotate(90)"/><rect class="cls-92" x="132.05" y="181.69" width="5.48" height="4.81" rx="0.83"/><rect class="cls-92" x="178.99" y="191" width="5.48" height="4.81" rx="0.83"/><rect class="cls-92" x="143" y="198.22" width="5.48" height="2.72" rx="0.63"/><path class="cls-57" d="M171.26,194.52h2.49a2.66,2.66,0,0,1,2.67,2.67v5.19"/><path class="cls-57" d="M157.1,206.59v-9.4a2.66,2.66,0,0,1,2.67-2.67h8.84"/><path class="cls-57" d="M252.48,150a2.61,2.61,0,0,1-4.92-.31,1.8,1.8,0,0,1-.4,0,2,2,0,0,1-1.48-3.32"/><circle class="cls-57" cx="243.29" cy="134" r="1.23"/><circle class="cls-57" cx="264.24" cy="149.61" r="2.42"/><path class="cls-93" d="M257.57,70h7.25a5.41,5.41,0,0,0,5.4-5.39h0a5.42,5.42,0,0,0-5.4-5.4H256a11.3,11.3,0,1,1,0-22.6h73a11.3,11.3,0,1,1,0,22.6h-9.72V73h-36a4,4,0,0,0-4,4h0a4,4,0,0,0,4,4h36v2.93H306.25a12.65,12.65,0,0,1-12.54,11.41H210.44V70Z"/><line class="cls-16" x1="215.34" y1="95.25" x2="210.44" y2="95.25"/><line class="cls-16" x1="232.36" y1="95.25" x2="219.34" y2="95.25"/><path class="cls-16" d="M286.59,80.91h32.75v2.93H306.25a12.65,12.65,0,0,1-12.54,11.41H236.36"/><path class="cls-16" d="M262.5,36.64h66.56a11.3,11.3,0,1,1,0,22.6h-9.72V73h-36a4,4,0,0,0-4,4h0a4,4,0,0,0,4,4"/><path class="cls-16" d="M218.41,70h46.41a5.41,5.41,0,0,0,5.4-5.39h0a5.42,5.42,0,0,0-5.4-5.4H256a11.3,11.3,0,1,1,0-22.6"/><line class="cls-16" x1="210.44" y1="70.03" x2="214.41" y2="70.03"/><rect class="cls-93" x="188.81" y="116.04" width="25.58" height="11.89" rx="5.95"/><path class="cls-16" d="M206.87,116h1.58a5.94,5.94,0,0,1,5.94,5.95h0a5.94,5.94,0,0,1-5.94,5.94H194.76a5.94,5.94,0,0,1-5.95-5.94h0a6,6,0,0,1,5.95-5.95h8.35"/><circle class="cls-93" cx="151.28" cy="54.38" r="5.93"/><path class="cls-16" d="M145.82,52.07a5.93,5.93,0,0,1,2.15-2.6"/><path class="cls-16" d="M150.45,48.51a5.69,5.69,0,0,1,.83-.06,5.93,5.93,0,1,1-5.93,5.93"/></g></svg>