<svg xmlns="http://www.w3.org/2000/svg" xmlns:xlink="http://www.w3.org/1999/xlink" viewBox="0 0 300 300"><defs><style>.cls-1,.cls-12,.cls-13,.cls-17,.cls-7{fill:none;}.cls-2{isolation:isolate;}.cls-3{clip-path:url(#clip-path);}.cls-4{fill:#ff898d;}.cls-18,.cls-5{opacity:0.3;}.cls-6{fill:#ffe394;}.cls-10,.cls-7,.cls-9{stroke:#d03661;}.cls-10,.cls-12,.cls-13,.cls-17,.cls-7,.cls-9{stroke-linecap:round;stroke-linejoin:round;}.cls-10,.cls-8{opacity:0.5;}.cls-10,.cls-15,.cls-9{fill:#fff8ee;}.cls-11,.cls-14{fill:#fff;}.cls-12{stroke:#f7d2b6;}.cls-13{stroke:#f46a54;}.cls-14{opacity:0.7;}.cls-16{fill:#fbc290;}.cls-17{stroke:#f9a789;}.cls-18{fill:#ffe269;mix-blend-mode:overlay;}</style><clipPath id="clip-path"><rect class="cls-1" width="300" height="300"/></clipPath></defs><g class="cls-2"><g id="Layer_1" data-name="Layer 1"><g class="cls-3"><rect class="cls-4" x="-8" y="-4.8" width="317.62" height="309.27"/><g class="cls-5"><path class="cls-6" d="M150,333.69c-8.25,0-16.38-7.2-24.37-8.16-8.17-1-17.25,1.9-25.09,0s-12-15.89-19.52-18.77-13.73-6.83-20.91-10.62S45.72,290.22,39,285.59s-21,.4-27-5,.45-23-5-29.15-15.54-7.34-20.18-14.05-13.26-10.79-17.07-18S-39,205.22-41.91,197.56s8.23-19.05,6.27-27-20.23-12.47-21.22-20.64c-1-8,11.1-16.86,11.1-25.11S-47.2,109-46.24,101c1-8.17-8-18.18-6.07-26s5.2-16.23,8.08-23.79A210.82,210.82,0,0,1-33.77,28.35C-30,21.12-23.6,14.85-19,8.16s4.24-18.44,9.64-24.53S15.25-15,21.35-20.44s8.08-15.1,14.79-19.75,8.13-18.89,15.36-22.7S68-68.37,75.64-71.28,91.58-78,99.55-79.92s17.46,1.26,25.63.27c8-1,16.57,2.17,24.82,2.17s15.44,8.32,23.44,9.28c8.17,1,16.43-2.55,24.27-.62s20.41-8.84,28-6,10,18.82,17.17,22.6,19.54-.18,26.22,4.45,2.63,22.85,8.72,28.25,16.12,5.89,21.52,12a196.19,196.19,0,0,1,15,18.86C319,18.06,320.2,26.26,324,33.49s2.25,15.72,5.16,23.38,7.25,13.53,9.22,21.5,2.56,14.94,3.55,23.11c1,8,8.86,15.06,8.86,23.31S343,140.12,342,148.11c-1,8.17,0,15.69-1.93,23.53s4.94,18.45,2.06,26-15.37,10.73-19.15,17.9,0,18.79-4.59,25.48S306.35,252.43,301,258.52s-11.56,11.33-17.66,16.74-14,8-20.74,12.62-14.74,5.75-22,9.56-9.14,19-16.79,21.93-19.67-9.24-27.63-7.28-12.28,23.53-20.45,24.52C167.71,337.57,158.25,333.69,150,333.69Z"/><path class="cls-7" d="M150,333.69c-8.25,0-16.38-7.2-24.37-8.16-8.17-1-17.25,1.9-25.09,0s-12-15.89-19.52-18.77-13.73-6.83-20.91-10.62S45.72,290.22,39,285.59s-21,.4-27-5,.45-23-5-29.15-15.54-7.34-20.18-14.05-13.26-10.79-17.07-18S-39,205.22-41.91,197.56s8.23-19.05,6.27-27-20.23-12.47-21.22-20.64c-1-8,11.1-16.86,11.1-25.11S-47.2,109-46.24,101c1-8.17-8-18.18-6.07-26s5.2-16.23,8.08-23.79A210.82,210.82,0,0,1-33.77,28.35C-30,21.12-23.6,14.85-19,8.16s4.24-18.44,9.64-24.53S15.25-15,21.35-20.44s8.08-15.1,14.79-19.75,8.13-18.89,15.36-22.7S68-68.37,75.64-71.28,91.58-78,99.55-79.92s17.46,1.26,25.63.27c8-1,16.57,2.17,24.82,2.17s15.44,8.32,23.44,9.28c8.17,1,16.43-2.55,24.27-.62s20.41-8.84,28-6,10,18.82,17.17,22.6,19.54-.18,26.22,4.45,2.63,22.85,8.72,28.25,16.12,5.89,21.52,12a196.19,196.19,0,0,1,15,18.86C319,18.06,320.2,26.26,324,33.49s2.25,15.72,5.16,23.38,7.25,13.53,9.22,21.5,2.56,14.94,3.55,23.11c1,8,8.86,15.06,8.86,23.31S343,140.12,342,148.11c-1,8.17,0,15.69-1.93,23.53s4.94,18.45,2.06,26-15.37,10.73-19.15,17.9,0,18.79-4.59,25.48S306.35,252.43,301,258.52s-11.56,11.33-17.66,16.74-14,8-20.74,12.62-14.74,5.75-22,9.56-9.14,19-16.79,21.93-19.67-9.24-27.63-7.28-12.28,23.53-20.45,24.52C167.71,337.57,158.25,333.69,150,333.69Z"/></g><g class="cls-5"><path class="cls-6" d="M150,321.54c-8.29,0-17-5.78-25-6.83a195.09,195.09,0,0,1-24.51-5.1c-8-2.14-15.95-5.55-23.45-8.66s-17.36-3.44-24.4-7.52-9.5-16-16-20.94-15.39-7.42-21.17-13.2S-2.21,251.9-7.19,245.41s-4.78-17.65-8.89-24.74S-28,207.42-31.18,199.83s5.07-19.34,2.94-27.29,2.12-16.23,1-24.42c-1-8-17.06-15-17.06-23.33s3.33-17,4.38-25C-38.8,91.61-29.79,85-27.69,77.19S-25.37,61-22.25,53.45s7.57-14.32,11.65-21.36S-8.17,13.71-3.19,7.24a201.66,201.66,0,0,1,16.63-19c5.78-5.77,22,.68,28.49-4.31S49.3-33.27,56.39-37.37,66.69-54.89,74.27-58s21,10.25,28.93,8.12,13.11-18,21.3-19.06c8-1,17.21,10.84,25.5,10.84s15.37,4.35,23.38,5.4c8.18,1.07,16.15-1.34,24,.76s16.94.28,24.44,3.4,16.94,3.38,24,7.46,7,18.51,13.49,23.49,15.84,5.76,21.62,11.53,4.55,16.68,9.54,23.16,19.12,6.16,23.23,13.25a190.14,190.14,0,0,1,10.95,22.17c3.12,7.49-3.23,17.88-1.1,25.83s13.26,13.57,14.33,21.76c1.05,8-1.3,16.44-1.3,24.72s-5.4,15.71-6.45,23.71c-1.07,8.19,13.56,19.79,11.46,27.61s-15.38,12.85-18.5,20.35-7.87,14.28-11.95,21.32-7.31,14.73-12.28,21.19-15.61,7.48-21.39,13.25-12.32,9.17-18.81,14.16-7.66,16.92-14.75,21-13.79,9.29-21.37,12.44-14.56,9.4-22.51,11.53-17.52-3.21-25.71-2.13C166.28,310.28,158.29,321.54,150,321.54Z"/><path class="cls-7" d="M150,321.54c-8.29,0-17-5.78-25-6.83a195.09,195.09,0,0,1-24.51-5.1c-8-2.14-15.95-5.55-23.45-8.66s-17.36-3.44-24.4-7.52-9.5-16-16-20.94-15.39-7.42-21.17-13.2S-2.21,251.9-7.19,245.41s-4.78-17.65-8.89-24.74S-28,207.42-31.18,199.83s5.07-19.34,2.94-27.29,2.12-16.23,1-24.42c-1-8-17.06-15-17.06-23.33s3.33-17,4.38-25C-38.8,91.61-29.79,85-27.69,77.19S-25.37,61-22.25,53.45s7.57-14.32,11.65-21.36S-8.17,13.71-3.19,7.24a201.66,201.66,0,0,1,16.63-19c5.78-5.77,22,.68,28.49-4.31S49.3-33.27,56.39-37.37,66.69-54.89,74.27-58s21,10.25,28.93,8.12,13.11-18,21.3-19.06c8-1,17.21,10.84,25.5,10.84s15.37,4.35,23.38,5.4c8.18,1.07,16.15-1.34,24,.76s16.94.28,24.44,3.4,16.94,3.38,24,7.46,7,18.51,13.49,23.49,15.84,5.76,21.62,11.53,4.55,16.68,9.54,23.16,19.12,6.16,23.23,13.25a190.14,190.14,0,0,1,10.95,22.17c3.12,7.49-3.23,17.88-1.1,25.83s13.26,13.57,14.33,21.76c1.05,8-1.3,16.44-1.3,24.72s-5.4,15.71-6.45,23.71c-1.07,8.19,13.56,19.79,11.46,27.61s-15.38,12.85-18.5,20.35-7.87,14.28-11.95,21.32-7.31,14.73-12.28,21.19-15.61,7.48-21.39,13.25-12.32,9.17-18.81,14.16-7.66,16.92-14.75,21-13.79,9.29-21.37,12.44-14.56,9.4-22.51,11.53-17.52-3.21-25.71-2.13C166.28,310.28,158.29,321.54,150,321.54Z"/></g><g class="cls-5"><path class="cls-6" d="M150,289.14c-8.32,0-16.92,10.24-24.93,9.09a174.21,174.21,0,0,1-24.34-5.62c-7.93-2.33-17.25-2.52-24.66-5.92S63.57,274.42,56.7,270s-15.15-7.53-21.34-12.9-9.86-13.57-15.24-19.77S3.14,229-1.32,222s-3.61-17.45-7-24.94-1.18-16.86-3.51-24.79S-20.8,157.72-22,149.51c-1.14-8,2.91-16.4,2.91-24.72a165.34,165.34,0,0,1,2.08-24c1.17-8.21-4.87-18-2.58-25.77s3.46-17.12,6.86-24.53S3.14,40.14,7.57,33.27,18.42,21.62,23.79,15.44a164.86,164.86,0,0,1,16.72-17C46.7-6.94,51.66-13,58.57-17.5s15.23-4.78,22.72-8.21,11-16.72,18.93-19,17.09.41,25.29-.77c8-1.14,16.17-5.1,24.49-5.1s15.62,9.92,23.63,11.06c8.21,1.18,14.94,4.13,22.73,6.42s16.71.19,24.12,3.58,10.44,13.28,17.31,17.71S255-8.95,261.23-3.58,273.47,7,278.84,13.16s15.08,9.37,19.53,16.28,13.24,12.49,16.67,20-3.69,19.39-1.36,27.32,9.36,14.8,10.53,23c1.15,8-7.2,16.72-7.2,25s4.19,16.44,3.05,24.45c-1.18,8.21,3.51,18,1.22,25.84s-12.39,13.3-15.79,20.71-14.07,10.14-18.49,17-2.17,18-7.54,24.17S267.22,247.55,261,252.92a169.21,169.21,0,0,1-19.49,14.32c-6.87,4.43-12.39,11-19.88,14.47a172.14,172.14,0,0,1-23,8.74c-7.79,2.29-16.7-1.81-24.9-.63C165.72,291,158.32,289.14,150,289.14Z"/><path class="cls-7" d="M150,289.14c-8.32,0-16.92,10.24-24.93,9.09a174.21,174.21,0,0,1-24.34-5.62c-7.93-2.33-17.25-2.52-24.66-5.92S63.57,274.42,56.7,270s-15.15-7.53-21.34-12.9-9.86-13.57-15.24-19.77S3.14,229-1.32,222s-3.61-17.45-7-24.94-1.18-16.86-3.51-24.79S-20.8,157.72-22,149.51c-1.14-8,2.91-16.4,2.91-24.72a165.34,165.34,0,0,1,2.08-24c1.17-8.21-4.87-18-2.58-25.77s3.46-17.12,6.86-24.53S3.14,40.14,7.57,33.27,18.42,21.62,23.79,15.44a164.86,164.86,0,0,1,16.72-17C46.7-6.94,51.66-13,58.57-17.5s15.23-4.78,22.72-8.21,11-16.72,18.93-19,17.09.41,25.29-.77c8-1.14,16.17-5.1,24.49-5.1s15.62,9.92,23.63,11.06c8.21,1.18,14.94,4.13,22.73,6.42s16.71.19,24.12,3.58,10.44,13.28,17.31,17.71S255-8.95,261.23-3.58,273.47,7,278.84,13.16s15.08,9.37,19.53,16.28,13.24,12.49,16.67,20-3.69,19.39-1.36,27.32,9.36,14.8,10.53,23c1.15,8-7.2,16.72-7.2,25s4.19,16.44,3.05,24.45c-1.18,8.21,3.51,18,1.22,25.84s-12.39,13.3-15.79,20.71-14.07,10.14-18.49,17-2.17,18-7.54,24.17S267.22,247.55,261,252.92a169.21,169.21,0,0,1-19.49,14.32c-6.87,4.43-12.39,11-19.88,14.47a172.14,172.14,0,0,1-23,8.74c-7.79,2.29-16.7-1.81-24.9-.63C165.72,291,158.32,289.14,150,289.14Z"/></g><g class="cls-5"><path class="cls-6" d="M150,290.12c-8.37,0-15.18-17.6-23.2-18.86-8.23-1.3-19.48,11.31-27.24,8.78S88.42,263.72,81.13,260s-22,3.81-28.62-1-2-23-7.83-28.86a142.87,142.87,0,0,1-15.49-17.57c-4.83-6.64-8.9-12.4-12.67-19.76s-7.41-13.5-10-21.39S-5,157.77-6.28,149.54c-1.26-8-8.83-16.38-8.83-24.75s3.91-17.3,5.18-25.32A165.17,165.17,0,0,1-4.19,74.7C-1.62,66.81,5.4,60.31,9.12,53s9.4-13.6,14.23-20.23,5.58-17.43,11.4-23.25,20.35-1.37,27-6.22S72-10.22,79.31-14s13.31-11,21.2-13.58,16.77-1,25-2.28c8-1.27,16.12-7.71,24.49-7.71s16.84,4.1,24.86,5.37c8.23,1.3,18.11-1.7,25.87.83s13.42,12.19,20.71,15.92S237-8.87,243.59-4s13.85,9.75,19.67,15.57,13.81,10.73,18.67,17.4,12.66,12.89,16.43,20.25a175.16,175.16,0,0,1,9.84,24.2c2.53,7.76-7.9,19.16-6.6,27.39,1.26,8,1.17,15.64,1.17,24s10.88,17.69,9.62,25.71c-1.3,8.23-14.44,13.77-17,21.53s-.14,17.58-3.87,24.87-5.06,16.91-9.89,23.54a169.47,169.47,0,0,1-16.86,19.15c-5.82,5.82-15.32,8.1-22,13s-17.44,2-24.8,5.77S204.6,266,196.71,268.6s-14.63,5.49-22.86,6.79C165.83,276.65,158.37,290.12,150,290.12Z"/><path class="cls-7" d="M150,290.12c-8.37,0-15.18-17.6-23.2-18.86-8.23-1.3-19.48,11.31-27.24,8.78S88.42,263.72,81.13,260s-22,3.81-28.62-1-2-23-7.83-28.86a142.87,142.87,0,0,1-15.49-17.57c-4.83-6.64-8.9-12.4-12.67-19.76s-7.41-13.5-10-21.39S-5,157.77-6.28,149.54c-1.26-8-8.83-16.38-8.83-24.75s3.91-17.3,5.18-25.32A165.17,165.17,0,0,1-4.19,74.7C-1.62,66.81,5.4,60.31,9.12,53s9.4-13.6,14.23-20.23,5.58-17.43,11.4-23.25,20.35-1.37,27-6.22S72-10.22,79.31-14s13.31-11,21.2-13.58,16.77-1,25-2.28c8-1.27,16.12-7.71,24.49-7.71s16.84,4.1,24.86,5.37c8.23,1.3,18.11-1.7,25.87.83s13.42,12.19,20.71,15.92S237-8.87,243.59-4s13.85,9.75,19.67,15.57,13.81,10.73,18.67,17.4,12.66,12.89,16.43,20.25a175.16,175.16,0,0,1,9.84,24.2c2.53,7.76-7.9,19.16-6.6,27.39,1.26,8,1.17,15.64,1.17,24s10.88,17.69,9.62,25.71c-1.3,8.23-14.44,13.77-17,21.53s-.14,17.58-3.87,24.87-5.06,16.91-9.89,23.54a169.47,169.47,0,0,1-16.86,19.15c-5.82,5.82-15.32,8.1-22,13s-17.44,2-24.8,5.77S204.6,266,196.71,268.6s-14.63,5.49-22.86,6.79C165.83,276.65,158.37,290.12,150,290.12Z"/></g><g class="cls-5"><path class="cls-6" d="M150,263.65c-8.43,0-17.94,9.89-26,8.48-8.25-1.45-16.47-6.76-24.17-9.57s-16.48-5.91-23.6-10-13.66-10.72-20-16-5.71-17.47-11-23.81-13-10.3-17.2-17.49-5.84-15-8.7-22.85-4.05-15.29-5.5-23.54c-1.41-8-13.35-15.58-13.35-24a157.51,157.51,0,0,1,2.24-26C4.18,90.58,20.2,86.29,23,78.59s6.22-14,10.35-21.12,7.15-13.76,12.47-20.08,3.68-19.47,10-24.8S70,2.89,77.22-1.28,92-10.2,99.83-13.06s16.68-3.84,24.93-5.29c8-1.42,16.81,7.18,25.24,7.18s16.7-5.72,24.73-4.31c8.25,1.45,16.93,1.82,24.63,4.63S213-.89,220.16,3.24s9.54,13.7,15.86,19,20,2.78,25.31,9.12,9.58,14,13.75,21.2,6.19,15.57,9.05,23.4S293,91.07,294.45,99.32c1.42,8-3.68,17-3.68,25.47s4.25,17.29,2.84,25.32c-1.45,8.25-8.26,15.21-11.07,22.91s-.17,18.69-4.29,25.81S263.18,209,257.87,215.3a140.78,140.78,0,0,1-17.51,17.19c-6.32,5.32-11.26,12.72-18.44,16.88s-17.72,0-25.55,2.85-14.25,6.48-22.5,7.93C165.84,261.56,158.43,263.65,150,263.65Z"/><path class="cls-7" d="M150,263.65c-8.43,0-17.94,9.89-26,8.48-8.25-1.45-16.47-6.76-24.17-9.57s-16.48-5.91-23.6-10-13.66-10.72-20-16-5.71-17.47-11-23.81-13-10.3-17.2-17.49-5.84-15-8.7-22.85-4.05-15.29-5.5-23.54c-1.41-8-13.35-15.58-13.35-24a157.51,157.51,0,0,1,2.24-26C4.18,90.58,20.2,86.29,23,78.59s6.22-14,10.35-21.12,7.15-13.76,12.47-20.08,3.68-19.47,10-24.8S70,2.89,77.22-1.28,92-10.2,99.83-13.06s16.68-3.84,24.93-5.29c8-1.42,16.81,7.18,25.24,7.18s16.7-5.72,24.73-4.31c8.25,1.45,16.93,1.82,24.63,4.63S213-.89,220.16,3.24s9.54,13.7,15.86,19,20,2.78,25.31,9.12,9.58,14,13.75,21.2,6.19,15.57,9.05,23.4S293,91.07,294.45,99.32c1.42,8-3.68,17-3.68,25.47s4.25,17.29,2.84,25.32c-1.45,8.25-8.26,15.21-11.07,22.91s-.17,18.69-4.29,25.81S263.18,209,257.87,215.3a140.78,140.78,0,0,1-17.51,17.19c-6.32,5.32-11.26,12.72-18.44,16.88s-17.72,0-25.55,2.85-14.25,6.48-22.5,7.93C165.84,261.56,158.43,263.65,150,263.65Z"/></g><g class="cls-5"><path class="cls-6" d="M150,258.85c-8.5,0-16.35-9.87-24.38-11.47a121.4,121.4,0,0,1-23.56-6.82c-7.75-3.22-19.73.42-26.62-4.19S62.7,223.86,56.81,218s-2.88-19-7.53-25.91S35.6,181.25,32.38,173.5s-10-14.72-11.68-23c-1.6-8-1.51-17.21-1.51-25.71a133.59,133.59,0,0,1,2.72-25.47C23.55,91,24.21,81.62,27.38,74S37.38,59.52,42,52.63,53.32,39.88,59.2,34s10.6-14.2,17.54-18.85,19.6,2,27.34-1.25S115.4-5.95,123.67-7.6c8-1.59,17.83.93,26.33.93S165.43,5.22,173.47,6.82c8.27,1.64,19.65-7.7,27.27-4.53s13.89,10.84,20.78,15.45S233,30,238.9,35.89s13.36,10.54,18,17.47,7,15.16,10.26,22.91,6.31,15.36,7.95,23.64c1.59,8,4.91,16.38,4.91,24.88s-3.36,16.84-5,24.88c-1.64,8.27-1.08,17.54-4.25,25.16s-16.12,9.93-20.73,16.81-6.64,14.83-12.53,20.71-9.15,14.76-16.09,19.41-14.94,7.61-22.68,10.83-16.14,3.1-24.42,4.74C166.34,248.93,158.5,258.85,150,258.85Z"/><path class="cls-7" d="M150,258.85c-8.5,0-16.35-9.87-24.38-11.47a121.4,121.4,0,0,1-23.56-6.82c-7.75-3.22-19.73.42-26.62-4.19S62.7,223.86,56.81,218s-2.88-19-7.53-25.91S35.6,181.25,32.38,173.5s-10-14.72-11.68-23c-1.6-8-1.51-17.21-1.51-25.71a133.59,133.59,0,0,1,2.72-25.47C23.55,91,24.21,81.62,27.38,74S37.38,59.52,42,52.63,53.32,39.88,59.2,34s10.6-14.2,17.54-18.85,19.6,2,27.34-1.25S115.4-5.95,123.67-7.6c8-1.59,17.83.93,26.33.93S165.43,5.22,173.47,6.82c8.27,1.64,19.65-7.7,27.27-4.53s13.89,10.84,20.78,15.45S233,30,238.9,35.89s13.36,10.54,18,17.47,7,15.16,10.26,22.91,6.31,15.36,7.95,23.64c1.59,8,4.91,16.38,4.91,24.88s-3.36,16.84-5,24.88c-1.64,8.27-1.08,17.54-4.25,25.16s-16.12,9.93-20.73,16.81-6.64,14.83-12.53,20.71-9.15,14.76-16.09,19.41-14.94,7.61-22.68,10.83-16.14,3.1-24.42,4.74C166.34,248.93,158.5,258.85,150,258.85Z"/></g><g class="cls-5"><path class="cls-6" d="M150,242.53c-8.59,0-16.07-10.26-24.11-12.09-8.3-1.89-18.82,2.66-26.31-1s-12-13-18.5-18.26-18.49-6-23.74-12.54S47.45,183.55,43.77,176,42.9,158,41,149.66c-1.84-8-5-16.28-5-24.87s2.47-17,4.3-25c1.89-8.3,2.61-17.31,6.23-24.8a118.58,118.58,0,0,1,13.38-22c5.25-6.57,16.4-7.11,23-12.36S93,25.81,100.57,22.13s16.9-1.62,25.2-3.52c8-1.83,15.64-3.32,24.23-3.32s15.47,4.65,23.51,6.49c8.29,1.89,15.69,2.41,23.18,6s20,0,26.53,5.17,5.42,18.35,10.67,24.92,12.7,11,16.38,18.61,12.1,13.91,14,22.21c1.84,8-7.4,17.48-7.4,26.07s7.34,17.6,5.51,25.64c-1.89,8.3-12.05,13.42-15.67,20.91s-4.95,15.91-10.17,22.45-13,9.71-19.59,15-11.15,12.43-18.76,16.11-14.09,11.09-22.38,13C167.76,239.68,158.59,242.53,150,242.53Z"/><path class="cls-7" d="M150,242.53c-8.59,0-16.07-10.26-24.11-12.09-8.3-1.89-18.82,2.66-26.31-1s-12-13-18.5-18.26-18.49-6-23.74-12.54S47.45,183.55,43.77,176,42.9,158,41,149.66c-1.84-8-5-16.28-5-24.87s2.47-17,4.3-25c1.89-8.3,2.61-17.31,6.23-24.8a118.58,118.58,0,0,1,13.38-22c5.25-6.57,16.4-7.11,23-12.36S93,25.81,100.57,22.13s16.9-1.62,25.2-3.52c8-1.83,15.64-3.32,24.23-3.32s15.47,4.65,23.51,6.49c8.29,1.89,15.69,2.41,23.18,6s20,0,26.53,5.17,5.42,18.35,10.67,24.92,12.7,11,16.38,18.61,12.1,13.91,14,22.21c1.84,8-7.4,17.48-7.4,26.07s7.34,17.6,5.51,25.64c-1.89,8.3-12.05,13.42-15.67,20.91s-4.95,15.91-10.17,22.45-13,9.71-19.59,15-11.15,12.43-18.76,16.11-14.09,11.09-22.38,13C167.76,239.68,158.59,242.53,150,242.53Z"/></g><g class="cls-5"><path class="cls-6" d="M150,351c-8.22,0-16.5-7.89-24.49-8.79-8.15-.91-13.13-16.36-21-18.15s-14.54-3.23-22.16-5.9-16.33-.31-23.61-3.83-22.53,6.77-29.39,2.45S23,297.07,16.67,292s-20.88-1.51-26.62-7.26-2.81-19.76-7.89-26.12A211.84,211.84,0,0,1-32,239.11c-4.32-6.86-12-11.85-15.59-19.19s6.16-19.52,3.45-27.23S-59.35,181-61.17,173s3.82-16.57,2.91-24.72c-.9-8-2.76-15.25-2.76-23.47s-2-15.91-1.14-23.9c.91-8.16-5-17.39-3.21-25.25S-64,58.48-61.3,50.86s9.89-14.07,13.41-21.35,16.25-9.25,20.57-16.11-2-21.26,3-27.6S-7.13-20.85-1.39-26.6s13.93-8,20.29-13,4-22.63,10.84-27S51.64-60.73,59-64.28s12.19-11.53,19.9-14.23,16.45.53,24.43-1.29,13.29-18.63,21.44-19.54c8-.9,17,13.42,25.25,13.42s16.48-7.35,24.47-6.46c8.15.91,14.84,8.68,22.7,10.48s16.56.07,24.18,2.74S235-70.41,242.28-66.89s23.17-7.28,30-3,.24,27.92,6.58,33S294.27-31,300-25.22A207.39,207.39,0,0,1,316-7.59c5.06,6.34,2.77,16.74,7.11,23.63s19.78,6.81,23.32,14.15-1.73,17.83,1,25.54,13.07,12.63,14.89,20.61-.68,16.35.23,24.5c.9,8,11.19,15.73,11.19,24s-1.11,17-2,25c-.91,8.15-13,14.39-14.8,22.25s12.9,21.14,10.23,28.76-22.91,8.55-26.44,15.84-12.87,10.32-17.19,17.17-5.78,14.39-10.84,20.73.95,22.43-4.8,28.18-16.18,6.78-22.53,11.86a218.44,218.44,0,0,1-19.92,14c-6.85,4.33-13.7,8.76-21,12.31a219.38,219.38,0,0,1-22.69,8.92c-7.62,2.67-12.61,17.25-20.59,19.07S181.72,333,173.57,333.91C165.58,334.81,158.22,351,150,351Z"/><path class="cls-7" d="M150,351c-8.22,0-16.5-7.89-24.49-8.79-8.15-.91-13.13-16.36-21-18.15s-14.54-3.23-22.16-5.9-16.33-.31-23.61-3.83-22.53,6.77-29.39,2.45S23,297.07,16.67,292s-20.88-1.51-26.62-7.26-2.81-19.76-7.89-26.12A211.84,211.84,0,0,1-32,239.11c-4.32-6.86-12-11.85-15.59-19.19s6.16-19.52,3.45-27.23S-59.35,181-61.17,173s3.82-16.57,2.91-24.72c-.9-8-2.76-15.25-2.76-23.47s-2-15.91-1.14-23.9c.91-8.16-5-17.39-3.21-25.25S-64,58.48-61.3,50.86s9.89-14.07,13.41-21.35,16.25-9.25,20.57-16.11-2-21.26,3-27.6S-7.13-20.85-1.39-26.6s13.93-8,20.29-13,4-22.63,10.84-27S51.64-60.73,59-64.28s12.19-11.53,19.9-14.23,16.45.53,24.43-1.29,13.29-18.63,21.44-19.54c8-.9,17,13.42,25.25,13.42s16.48-7.35,24.47-6.46c8.15.91,14.84,8.68,22.7,10.48s16.56.07,24.18,2.74S235-70.41,242.28-66.89s23.17-7.28,30-3,.24,27.92,6.58,33S294.27-31,300-25.22A207.39,207.39,0,0,1,316-7.59c5.06,6.34,2.77,16.74,7.11,23.63s19.78,6.81,23.32,14.15-1.73,17.83,1,25.54,13.07,12.63,14.89,20.61-.68,16.35.23,24.5c.9,8,11.19,15.73,11.19,24s-1.11,17-2,25c-.91,8.15-13,14.39-14.8,22.25s12.9,21.14,10.23,28.76-22.91,8.55-26.44,15.84-12.87,10.32-17.19,17.17-5.78,14.39-10.84,20.73.95,22.43-4.8,28.18-16.18,6.78-22.53,11.86a218.44,218.44,0,0,1-19.92,14c-6.85,4.33-13.7,8.76-21,12.31a219.38,219.38,0,0,1-22.69,8.92c-7.62,2.67-12.61,17.25-20.59,19.07S181.72,333,173.57,333.91C165.58,334.81,158.22,351,150,351Z"/></g><g class="cls-8"><path class="cls-9" d="M277.69,290.86c1.15.29,3.61.43,1.58-7.36-1.63-6.21-6-20.55-6.81-24.17-.71-3.19,1.48-4,3.39-2.7,2.43,1.64,3.73,5.13,5.65,11.54,1.49,5,3.4,11.9,4.39,14s4.64,1.28,4.66-1.36c0-6.44-1.42-22.83-.92-27.46.34-3.27,4.16-3,5.29,1.53s1.7,16.12,2.46,26.35c.17,2.33,2.65,2.36,3.26.75,1.82-4.86,3.8-19.86,5.26-27.18.48-2.4,2.51-2.67,3.84-.69,2.43,3.62.57,10-2.88,30-.76,4.44,1.45,3.85,2.85,2.37,3.06-3.22,8.67-10.62,10.42-12.63,1.14-1.29,2.15-1.06,2.69.4,1.38,3.7-.63,6.24-11.2,20-2.86,3.73.3,10.48-5.15,16.59-1.29,1.44-1.76,1.33-1.37,3.8,1.63,10.25,11.41,38.48,11.41,38.48l-24.43,9.17s-4.62-41.27-5.59-44.34-3.42-2.63-6.38-6.77c-2.26-3.17-3.16-7-6.51-11s-10.11-11.05-11.82-13.55,2-4.85,5.77-3.2C270.49,284.7,275.14,290.22,277.69,290.86Z"/><path class="cls-10" d="M197.49,289.86c1,.08,3-.14.3-6.33-2.19-4.94-7.77-16.26-8.93-19.16-1-2.55.69-3.52,2.45-2.7,2.24,1,3.8,3.76,6.26,8.82,1.92,4,4.44,9.42,5.55,11s4,.43,3.68-1.77c-.84-5.35-4.27-18.77-4.49-22.68-.16-2.77,3.05-3.08,4.61.55s3.59,13.16,5.61,21.55c.46,1.91,2.52,1.61,2.81.18.86-4.28.46-17,.68-23.29.08-2.06,1.72-2.55,3.1-1.09,2.51,2.68,1.82,8.2,1.67,25.28,0,3.8,1.73,3,2.69,1.59,2.11-3.09,5.76-10,7-11.91.76-1.23,1.63-1.17,2.28,0,1.65,2.89.33,5.27-6.58,18.14-1.88,3.49,1.66,8.67-2,14.48-.87,1.37-1.28,1.35-.62,3.34,2.75,8.3,14.7,30.41,14.7,30.41l-19,10.94s-9.43-33.65-10.66-36.08-3.19-1.72-6.21-4.75c-2.31-2.33-3.57-5.36-6.9-8.25s-9.9-7.8-11.66-9.65,1-4.3,4.36-3.44C190.67,285.71,195.28,289.67,197.49,289.86Z"/><path class="cls-10" d="M161.31,288c-.93.22-2.92.31-1.21-6,1.37-5,5-16.56,5.72-19.47.6-2.57-1.16-3.24-2.71-2.21-2,1.3-3.06,4.11-4.67,9.27-1.25,4-2.86,9.58-3.68,11.26s-3.76,1-3.75-1.14c0-5.21,1.35-18.43,1-22.17-.25-2.65-3.34-2.49-4.29,1.18s-1.52,13-2.23,21.26c-.16,1.88-2.16,1.89-2.64.58-1.43-3.94-2.88-16.08-4-22-.37-1.94-2-2.17-3.1-.59-2,2.9-.55,8.05,2.05,24.24.58,3.6-1.2,3.1-2.32,1.89-2.44-2.63-6.9-8.66-8.31-10.3-.9-1.06-1.72-.87-2.17.3-1.15,3,.45,5,8.86,16.27,2.28,3-.33,8.47,4,13.45,1,1.17,1.41,1.09,1.07,3.08-1.41,8.27-9.57,31-9.57,31L149,345.56s4.11-33.3,4.93-35.78,2.78-2.09,5.2-5.41c1.86-2.53,2.62-5.59,5.37-8.81s8.27-8.84,9.68-10.85-1.59-3.93-4.64-2.63C167.18,283.09,163.38,287.51,161.31,288Z"/><path class="cls-9" d="M188.38,280.38c-1,.25-3.3.35-1.36-6.76,1.55-5.66,5.7-18.75,6.48-22.05.68-2.91-1.31-3.67-3.08-2.5-2.24,1.47-3.46,4.65-5.28,10.5-1.42,4.58-3.24,10.86-4.17,12.76s-4.26,1.12-4.25-1.3c0-5.89,1.54-20.87,1.13-25.11-.28-3-3.78-2.81-4.86,1.34s-1.72,14.73-2.52,24.08c-.18,2.13-2.45,2.14-3,.65-1.62-4.46-3.27-18.2-4.53-24.92-.42-2.2-2.27-2.46-3.51-.67-2.26,3.29-.62,9.12,2.32,27.45.66,4.08-1.36,3.51-2.63,2.15-2.77-3-7.82-9.81-9.4-11.67-1-1.2-1.95-1-2.47.34-1.3,3.37.51,5.71,10,18.42,2.58,3.45-.38,9.6,4.55,15.24,1.16,1.33,1.59,1.24,1.21,3.49-1.6,9.37-10.84,35.09-10.84,35.09l22.26,8.65s4.65-37.71,5.58-40.52,3.15-2.37,5.9-6.13c2.1-2.87,3-6.34,6.07-10s9.37-10,11-12.28-1.8-4.45-5.25-3C195,274.81,190.73,279.81,188.38,280.38Z"/><path class="cls-10" d="M29.73,268.18c-1.34,1.27-4.57,3.33-7.75-8.79-2.53-9.66-7.52-32.45-9.19-38-1.46-4.87-5-4.29-6.65-1.08-2,4.08-1.15,9.81,1.14,20,1.8,7.95,4.44,18.74,4.7,22.32s-5.32,5.28-7.36,1.7c-5-8.7-15.47-32-19.67-37.94-3-4.18-7.95-.93-6,6.11,1.88,6.82,10,23.15,16.74,37.61,1.54,3.28-1.78,5.22-3.84,3.49-6.19-5.2-20.28-24-27.85-32.85-2.48-2.89-5.43-1.71-5.73,2-.54,6.76,6.82,14,26.74,38.45,4.42,5.45,1,6.33-2.06,5.4-6.6-2-19.85-7.81-23.76-9.19-2.53-.9-3.71.19-3.34,2.59.94,6.07,5.6,8,30.43,18.6C-7,301.46-6.15,313,5.9,317.16c2.84,1,3.4.47,4.74,4.11,5.61,15.15,13.85,60.88,13.85,60.88L64.62,376s-25.19-59.49-26.21-64.41,2.63-6.16,3.49-14c.65-6-1-11.85.46-19.87s5.3-22.69,5.71-27.39-6.43-5-10.26.06C34.8,254.33,32.7,265.36,29.73,268.18Z"/><path class="cls-9" d="M47.53,274.31c1.29.83,4.25,2,5-8.39.56-8.28,1.08-27.69,1.58-32.46.44-4.2,3.46-4.29,5.28-1.92,2.3,3,2.46,7.83,2.17,16.49-.22,6.78-.71,16-.35,19s5.17,3.48,6.28.24c2.69-7.88,7.64-28.59,10.14-34.07,1.78-3.87,6.36-2,5.88,4.06-.47,5.86-4.55,20.47-7.82,33.33-.74,2.93,2.28,4,3.69,2.26C83.58,267.61,92.16,250,97,241.63c1.58-2.74,4.17-2.24,5,.74,1.5,5.44-3.4,12.46-15.84,35.59-2.77,5.14.19,5.32,2.52,4.08,5.08-2.69,15-9.47,18-11.21,1.93-1.13,3.06-.42,3.13,1.59.18,5.11-3.33,7.4-22,19.95-5.05,3.4-4,13-13.15,18.24-2.17,1.24-2.7.91-3.23,4.1-2.22,13.25-1.82,51.9-1.82,51.9l-33.75,1.22s11.3-52.53,11.36-56.71-3.1-4.63-5-10.93c-1.48-4.81-1-9.84-3.48-16.16s-7.87-17.71-8.94-21.49,4.47-5.11,8.4-1.55C41.22,263.79,44.66,272.47,47.53,274.31Z"/><path class="cls-9" d="M221,267.77c1.55-.09,4.7-.87-.9-9.86-4.46-7.17-15.57-23.49-18-27.72-2.13-3.73.3-5.6,3.21-4.72,3.69,1.12,6.69,5,11.59,12.31,3.84,5.72,8.93,13.61,11,15.86s6.33-.21,5.32-3.54C230.75,242,222.52,222,221.33,216c-.84-4.25,4-5.43,7.25-.15,3.1,5.12,8.42,19.59,13.37,32.14,1.13,2.86,4.25,1.94,4.39-.33.4-6.82-3-26.43-4-36.2-.33-3.2,2.11-4.33,4.55-2.36,4.47,3.59,4.61,12.3,8.09,38.77.77,5.88,3.32,4.28,4.51,1.87,2.58-5.24,6.74-16.73,8.16-19.94.92-2.07,2.28-2.16,3.53-.54,3.19,4.11,1.65,8.08-6.25,29.5-2.15,5.81,4.46,13.07,0,22.86-1.05,2.32-1.68,2.36-.23,5.31,6.05,12.25,29.36,43.89,29.36,43.89l-27.12,21.07S245,301.81,242.59,298.32s-5.31-2-10.64-6c-4.08-3.1-6.69-7.51-12.48-11.26s-17-9.94-20.14-12.42.64-6.87,6-6.27C209.53,262.84,217.52,268,221,267.77Z"/></g><path class="cls-11" d="M263.63,136.68c0,9.69-3.59,19.9-6,28.84-2.47,9.25-4.3,20-9,28.12a120.37,120.37,0,0,1-17.88,23.82c-6.67,6.67-19.84,5.8-28,10.55S188.25,242.4,179,244.87c-8.94,2.39-19.3,2.61-29,2.61s-17.46-9.92-26.39-12.31c-9.25-2.47-22.77,5.36-30.86.67S84.66,215.36,78,208.7,55.81,202,51.05,193.82s-2.75-20-5.22-29.22c-2.39-8.94-9.5-18.23-9.5-27.92s7-19,9.41-27.94c2.47-9.25,3.48-19.45,8.16-27.55S66,66,72.67,59.34,89.34,50.55,97.55,45.8a110.15,110.15,0,0,1,17.35-8.29c2.53-.92,5.14-1.75,7.87-2.48,8.94-2.39,17.55-10.26,27.24-10.26a116.05,116.05,0,0,1,29,3.64c9.25,2.47,20.24,4.27,28.34,9s14.55,14.09,21.22,20.76S243,72,247.77,80.23s3.89,19.3,6.36,28.55C256.52,117.72,263.63,127,263.63,136.68Z"/><path class="cls-11" d="M381.08,134H180.49L288,123.39a.49.49,0,0,0,.45-.54.51.51,0,0,0-.55-.45L180.21,133l4.34-8.13,137.2-56.83a2.5,2.5,0,0,0-1.91-4.62l-131.57,54.5.83-1.55,1.65-1.11L354,28a.49.49,0,0,0,.21-.67.5.5,0,0,0-.68-.21L199.24,109.6,344.92,12.26A5,5,0,1,0,339.36,4L199.1,97.67l.78-1.47,75.48-61.95a.5.5,0,0,0,.07-.7.52.52,0,0,0-.71-.07L201.11,93.89l5.73-10.71L315.17-25.15a2.5,2.5,0,0,0,0-3.53,2.5,2.5,0,0,0-3.54,0L215,68l22.45-42a25,25,0,0,0-44.1-23.57L159.48,65.71,172.87-70.24A2.5,2.5,0,0,0,170.63-73a2.5,2.5,0,0,0-2.73,2.25L153.38,76.61l-2.88-14.5V-25.27a.5.5,0,0,0-.5-.5.5.5,0,0,0-.5.5V57.09L119.63-93.09A15,15,0,0,0,102-104.87,15,15,0,0,0,90.21-87.23L124,82.46,43.27-68.49a2.5,2.5,0,0,0-3.38-1,2.51,2.51,0,0,0-1,3.39L127.32,99.36l.65,3.25L22-55.93a.5.5,0,0,0-.69-.14.5.5,0,0,0-.14.69L126.83,102.71,40.92,16.8a7.5,7.5,0,0,0-10.6,10.61L109,106.06-40.75,6a2.52,2.52,0,0,0-3.47.69,2.51,2.51,0,0,0,.69,3.47L113.11,114.85l-1-.3L28.43,69.8A1.5,1.5,0,0,0,27,72.45l70.43,37.64L60.62,98.92.75,74.12a.51.51,0,0,0-.66.27A.5.5,0,0,0,.36,75L50.86,96l-97-29.42a10,10,0,0,0-12.47,6.67,10,10,0,0,0,6.67,12.47l148.45,45L-10.93,120.13a.53.53,0,0,0-.55.45.51.51,0,0,0,.45.55l112.47,11.08,5.87,1.78H-81.08a2.49,2.49,0,0,0-2.5,2.5,2.5,2.5,0,0,0,2.5,2.5H119.51L12,149.58a.5.5,0,0,0,0,1h.05L119.79,140l-4.34,8.13-137.2,56.83a2.5,2.5,0,0,0-1.35,3.27,2.49,2.49,0,0,0,2.31,1.54,2.48,2.48,0,0,0,.95-.19L111.73,155l-.83,1.55-1.64,1.1L-54,245a.49.49,0,0,0-.21.67.5.5,0,0,0,.44.27.53.53,0,0,0,.24-.06l154.33-82.5L-44.92,260.71a5,5,0,0,0-1.38,6.94,5,5,0,0,0,4.17,2.22,5,5,0,0,0,2.77-.84L100.9,175.3l-.78,1.48L24.64,238.72a.5.5,0,0,0-.07.7.52.52,0,0,0,.71.07l73.6-60.41-5.72,10.71L-15.17,298.12a2.49,2.49,0,0,0,0,3.53,2.5,2.5,0,0,0,1.77.74,2.5,2.5,0,0,0,1.77-.74L85,205,62.59,247a25,25,0,1,0,44.1,23.57l33.83-63.29-13.39,136a2.5,2.5,0,0,0,2.24,2.74h.25a2.5,2.5,0,0,0,2.48-2.26l14.52-147.34,2.88,14.5v87.38a.5.5,0,0,0,1,0V215.89l29.87,150.17a15,15,0,0,0,14.7,12.07,14.8,14.8,0,0,0,2.94-.29,15,15,0,0,0,11.78-17.64L176,190.51l80.69,151a2.5,2.5,0,1,0,4.41-2.36L172.68,173.61l-.65-3.25L278,328.9a.47.47,0,0,0,.41.22.46.46,0,0,0,.28-.08.5.5,0,0,0,.14-.69L173.17,170.27l85.91,85.9a7.5,7.5,0,0,0,10.6-10.61L191,166.91,340.75,267a2.54,2.54,0,0,0,1.39.42,2.5,2.5,0,0,0,1.39-4.58L186.89,158.12l1,.3,83.72,44.75a1.51,1.51,0,0,0,.71.17,1.5,1.5,0,0,0,.71-2.82l-70.42-37.64,36.81,11.17,59.87,24.8a.48.48,0,0,0,.2,0,.51.51,0,0,0,.46-.31.5.5,0,0,0-.27-.65L249.14,177l97,29.42a10,10,0,0,0,5.8-19.14l-148.45-45,107.46,10.59H311a.5.5,0,0,0,0-1L198.56,140.76,192.69,139H381.08a2.5,2.5,0,0,0,0-5Z"/><line class="cls-7" x1="292.41" y1="-9.46" x2="226.57" y2="56.38"/><path class="cls-7" d="M260.81,29.21l54.36-54.36a2.5,2.5,0,0,0,0-3.53,2.5,2.5,0,0,0-3.54,0"/><line class="cls-7" x1="230.1" y1="59.92" x2="257.05" y2="32.97"/><path class="cls-7" d="M244.83,79.13,344.92,12.26A5,5,0,1,0,339.36,4L239.27,70.83"/><line class="cls-7" x1="263.63" y1="86.71" x2="251.41" y2="91.77"/><path class="cls-7" d="M321.75,68.05a2.5,2.5,0,0,0-1.91-4.62L268.28,84.79"/><line class="cls-7" x1="253.33" y1="96.39" x2="296.41" y2="78.55"/><path class="cls-7" d="M260.78,139h120.3a2.5,2.5,0,0,0,0-5H260.78"/><path class="cls-7" d="M252.73,178.1l93.39,28.33a10,10,0,0,0,5.8-19.14L258.53,159"/><line class="cls-7" x1="271.61" y1="199.79" x2="248.44" y2="187.4"/><line class="cls-7" x1="247.02" y1="190.05" x2="267" y2="200.72"/><line class="cls-7" x1="296.34" y1="231.26" x2="243.51" y2="195.96"/><path class="cls-7" d="M286.8,230.9l53.95,36a2.54,2.54,0,0,0,1.39.42,2.5,2.5,0,0,0,1.39-4.58"/><line class="cls-7" x1="274.29" y1="222.54" x2="282.49" y2="228.02"/><line class="cls-7" x1="240.73" y1="200.11" x2="270.02" y2="219.69"/><line class="cls-7" x1="269.68" y1="245.56" x2="233.48" y2="209.36"/><line class="cls-7" x1="246.4" y1="243.5" x2="259.08" y2="256.17"/><line class="cls-7" x1="222.87" y1="219.96" x2="241.22" y2="238.31"/><path class="cls-7" d="M200,235.38l56.7,106.08a2.5,2.5,0,1,0,4.41-2.36L204.43,233"/><line class="cls-7" x1="192.62" y1="273.85" x2="186.14" y2="241.26"/><path class="cls-7" d="M193.78,279.7l16,80.5A15,15,0,0,1,198,377.84a14.8,14.8,0,0,1-2.94.29,15,15,0,0,1-14.7-12.07l-23.66-119"/><line class="cls-12" x1="138.22" y1="281.61" x2="141.63" y2="246.98"/><path class="cls-12" d="M136.65,246.49l-9.52,96.72a2.5,2.5,0,0,0,2.24,2.74h.25a2.5,2.5,0,0,0,2.48-2.26"/><line class="cls-12" x1="106.69" y1="270.55" x2="121.15" y2="243.5"/><line class="cls-7" x1="77.06" y1="219.9" x2="62.59" y2="246.98"/><path class="cls-7" d="M69.9,213.05l-85.07,85.07a2.49,2.49,0,0,0,0,3.53,2.5,2.5,0,0,0,1.77.74,2.5,2.5,0,0,0,1.77-.74l85.06-85.06"/><path class="cls-7" d="M55.17,193.84-44.92,260.71a5,5,0,0,0-1.38,6.94,5,5,0,0,0,4.17,2.22,5,5,0,0,0,2.77-.84L60.73,202.14"/><path class="cls-7" d="M46.67,176.58l-68.42,28.34a2.5,2.5,0,0,0-1.35,3.27,2.49,2.49,0,0,0,2.31,1.54,2.48,2.48,0,0,0,.95-.19L48.59,181.2"/><path class="cls-7" d="M39.22,134H-81.08a2.49,2.49,0,0,0-2.5,2.5,2.5,2.5,0,0,0,2.5,2.5H39.22"/><line class="cls-12" x1="16.84" y1="106.54" x2="41.47" y2="114.01"/><path class="cls-12" d="M47.27,94.87-46.12,66.54a10,10,0,0,0-12.47,6.67,10,10,0,0,0,6.67,12.47L10,104.47"/><line class="cls-7" x1="27.01" y1="72.45" x2="51.56" y2="85.57"/><line class="cls-7" x1="52.98" y1="82.92" x2="28.43" y2="69.8"/><line class="cls-7" x1="51.56" y1="73.72" x2="56.49" y2="77.01"/><line class="cls-7" x1="41.92" y1="67.27" x2="48.8" y2="71.87"/><path class="cls-7" d="M6,37.28-40.75,6a2.52,2.52,0,0,0-3.47.69,2.51,2.51,0,0,0,.69,3.47L39.19,65.45"/><line class="cls-7" x1="59.27" y1="72.86" x2="10.02" y2="39.95"/><line class="cls-7" x1="46.83" y1="43.92" x2="66.52" y2="63.61"/><line class="cls-7" x1="30.32" y1="27.41" x2="42.58" y2="39.67"/><line class="cls-7" x1="77.13" y1="53.01" x2="40.92" y2="16.8"/><path class="cls-7" d="M71.06-16.5l-27.79-52a2.5,2.5,0,0,0-3.38-1,2.51,2.51,0,0,0-1,3.39L95.57,40"/><line class="cls-7" x1="99.97" y1="37.59" x2="74.83" y2="-9.45"/><line class="cls-7" x1="109.68" y1="10.67" x2="113.86" y2="31.7"/><line class="cls-7" x1="106.79" y1="-3.85" x2="108.81" y2="6.31"/><path class="cls-7" d="M143.29,25.88l-23.66-119A15,15,0,0,0,102-104.87,15,15,0,0,0,90.21-87.23L105.84-8.65"/><line class="cls-7" x1="159.46" y1="14.93" x2="158.37" y2="25.99"/><path class="cls-7" d="M167.51-15.83l5.36-54.41A2.5,2.5,0,0,0,170.63-73a2.5,2.5,0,0,0-2.73,2.25L160,9.51"/><line class="cls-7" x1="163.35" y1="26.48" x2="166.52" y2="-5.76"/><line class="cls-7" x1="193.31" y1="2.42" x2="178.85" y2="29.47"/><line class="cls-7" x1="222.94" y1="53.07" x2="237.41" y2="25.99"/><path class="cls-13" d="M35.59-5.59a4,4,0,0,1,.26.78A3.58,3.58,0,0,1,33.1-.56a3.58,3.58,0,0,1-4.25-2.75A3.57,3.57,0,0,1,31.6-7.56"/><path class="cls-13" d="M78.83,54.71c5.88-3.41,12.77-5.47,18.72-8.91l.88-.5"/><path class="cls-7" d="M59.62,73.09c2.45-3,5.13-5.8,7.83-8.54"/><path class="cls-7" d="M49.33,93.15a47.32,47.32,0,0,1,4.57-12q1.23-2.11,2.66-4.13"/><path class="cls-7" d="M75.94,207c-3.75-2.57-9-4-13.84-5.78"/><path class="cls-7" d="M80.88,212.78a19.75,19.75,0,0,0-1.33-2.2"/><path class="cls-13" d="M137,242.55c-3.89-2.5-7.69-5.33-11.7-6.83"/><path class="cls-12" d="M148.8,247.43a19.61,19.61,0,0,1-7-2.13"/><path class="cls-7" d="M156.77,247.42l-4.61.06"/><path class="cls-7" d="M197.92,231.44c-3.9,3.2-7.6,7.06-11.72,9.92"/><path class="cls-7" d="M207.91,225.81a26.71,26.71,0,0,0-5.17,2.2l-.74.45"/><path class="cls-7" d="M224.33,221.42c-4.06,1.57-8.78,2.37-13.21,3.49"/><path class="cls-7" d="M243.44,201.93a123.93,123.93,0,0,1-7.49,9.89"/><path class="cls-7" d="M249.92,191.28c-.39.81-.81,1.6-1.25,2.36q-1.17,2-2.48,4.11"/><path class="cls-7" d="M253.07,183.15c-.61,1.93-1.27,3.83-2,5.64"/><path class="cls-7" d="M246.44,78.06c.46.72.91,1.44,1.33,2.17a34,34,0,0,1,3.67,11.54"/><path class="cls-12" d="M230.24,59.78c3.33,3.29,6.84,6.73,10,10.36"/><path class="cls-12" d="M223.3,52.38c1.15,1.31,2.29,2.6,3.44,3.83"/><path class="cls-7" d="M163.44,25.53A108.61,108.61,0,0,1,179,28.41l.35.09"/><path class="cls-7" d="M143.3,25.91A22,22,0,0,1,150,24.77c2.78,0,5.61.1,8.45.3"/><path class="cls-12" d="M102.81,42.9a100.5,100.5,0,0,1,12.09-5.39"/><path class="cls-14" d="M245.14,224.52a10.4,10.4,0,0,1-4.46-.89c-2.48-1.15-3.83-3.35-4.92-5.11-.29-.47-.58-.93-.89-1.37s-.71-1-1.09-1.42c-1.36-1.69-2.9-3.61-3.13-6.23a17.79,17.79,0,0,1,1.6-8.84c1.19-2.55,3.44-4,5.26-5.21.39-.25.77-.5,1.14-.76,2-1.44,4.61-3.23,7.82-3.52l.86-.09c2.43-.24,5.44-.54,8.14.72s4.52,3.83,5.94,5.87l.4.57a16.9,16.9,0,0,1,2.65,8.25,16.1,16.1,0,0,1-1.64,8.37,15.86,15.86,0,0,1-13.41,9.32q-.57,0-1.14.12A29.75,29.75,0,0,1,245.14,224.52Zm5.54-28.65c-.94,0-1.92.1-2.85.19l-.91.09c-1.88.17-3.59,1.37-5.4,2.63-.41.29-.84.57-1.28.86-1.48,1-2.87,1.87-3.45,3.13h0a12.88,12.88,0,0,0-1.15,6.28c.1,1.12,1.05,2.3,2.05,3.55.43.54.88,1.09,1.29,1.68s.7,1.06,1,1.61c.89,1.44,1.66,2.69,2.78,3.21,1.35.63,3.09.43,4.93.23l1.24-.13a11.66,11.66,0,0,0,10.52-12.26,11.76,11.76,0,0,0-1.77-5.83l-.41-.59c-1.13-1.63-2.41-3.48-3.93-4.19A6.53,6.53,0,0,0,250.68,195.87Zm-16.16,5.84h0Z"/><path class="cls-14" d="M3.05,71.34a9,9,0,0,1-3.84-.78A10.2,10.2,0,0,1-5,66.19c-.23-.38-.46-.76-.71-1.11s-.58-.77-.89-1.15a10.21,10.21,0,0,1-2.67-5.36,15.21,15.21,0,0,1,1.36-7.51h0a11.25,11.25,0,0,1,4.49-4.47l.92-.61c1.74-1.22,3.9-2.73,6.65-3l.71-.07c2.05-.21,4.6-.46,6.93.62s3.87,3.26,5.06,5l.33.47a14.26,14.26,0,0,1,2.26,7A13.67,13.67,0,0,1,18,63.13,13.49,13.49,0,0,1,6.61,71.05l-.92.1A23.55,23.55,0,0,1,3.05,71.34ZM-3.42,53.17h0a10.21,10.21,0,0,0-.91,4.95,6.23,6.23,0,0,0,1.6,2.68c.37.47.74.94,1.07,1.41s.59.89.87,1.35A6.33,6.33,0,0,0,1.31,66a7.75,7.75,0,0,0,3.83.15l1-.11a8.5,8.5,0,0,0,7.32-5,8.74,8.74,0,0,0,.94-4.56,9.24,9.24,0,0,0-1.37-4.58l-.35-.5c-.89-1.29-1.91-2.76-3-3.29s-2.81-.34-4.33-.19L4.56,48A9.62,9.62,0,0,0,.33,50.07c-.34.24-.7.47-1.06.71A7.2,7.2,0,0,0-3.42,53.17Z"/><path class="cls-14" d="M78.08,59.19a14.36,14.36,0,0,1-6.2-1.27c-3.54-1.64-5.44-4.71-6.82-7-.33-.53-.66-1.07-1-1.57s-.79-1-1.25-1.62c-1.73-2.16-3.89-4.85-4.22-8.61A23.49,23.49,0,0,1,60.7,27.44c1.67-3.61,4.67-5.57,7.08-7.14.46-.3.9-.59,1.33-.89,2.69-1.88,6-4.22,10.45-4.62l1-.1c3.18-.31,7.14-.71,10.9,1s6.24,5.26,8,7.79l.48.68a22.33,22.33,0,0,1,3.56,11,21.46,21.46,0,0,1-2.15,11.16A21.23,21.23,0,0,1,83.47,58.76l-1.34.14A35.52,35.52,0,0,1,78.08,59.19Zm6.78-34.77c-1,0-2.2.11-3.29.22l-1.12.11c-1.64.15-3.28,1.23-5.6,2.85-.52.36-1.06.72-1.6,1.07-1.55,1-3,2-3.48,3h0a13.76,13.76,0,0,0-1.23,6.62c.07.76,1.14,2.09,2.07,3.26.54.67,1.1,1.37,1.64,2.13s.91,1.39,1.32,2.05c.88,1.42,1.71,2.76,2.53,3.14,1.14.53,3,.33,4.94.11l1.55-.16a11.2,11.2,0,0,0,9.71-6.69,11.61,11.61,0,0,0,1.26-6,12.52,12.52,0,0,0-1.79-6.12l-.51-.73c-1.23-1.77-2.62-3.78-4-4.41A5.86,5.86,0,0,0,84.86,24.42ZM65.23,29.54h0Z"/><path class="cls-14" d="M87.54-4.07C85.88-6.26,86-9.16,85.65-11.7S85-16.93,86-19.37s2-5.33,4.19-7,5.31-1.89,7.85-2.2a15,15,0,0,1,7.63,1.41,14.41,14.41,0,0,1,5.91,4.8,14.2,14.2,0,0,1,2.88,7,14.06,14.06,0,0,1-1.16,7.45c-1,2.36-1.78,5.11-4,6.77S104.29.27,101.75.59,96.33,2,93.89.94A16.27,16.27,0,0,1,87.54-4.07Z"/><path class="cls-14" d="M115.67,231.51c2.57-2.06,6.06-2,9.1-2.51s6.26-.93,9.22.21,6.47,2.23,8.54,4.8,2.43,6.32,2.9,9.36a18,18,0,0,1-1.45,9.22,17.2,17.2,0,0,1-5.58,7.25,16.93,16.93,0,0,1-17.32,2.55c-2.86-1.11-6.19-2-8.26-4.55s-1.82-6.06-2.29-9.1-1.82-6.47-.67-9.43A19.5,19.5,0,0,1,115.67,231.51Z"/><path class="cls-7" d="M247.33,191.08c2.43-.24,5.44-.54,8.14.72s4.52,3.83,5.94,5.87l.4.57a16.9,16.9,0,0,1,2.65,8.25,16.1,16.1,0,0,1-1.64,8.37,15.86,15.86,0,0,1-13.41,9.32q-.57,0-1.14.12a29.75,29.75,0,0,1-3.13.22,10.4,10.4,0,0,1-4.46-.89m10-27.76c-.94,0-1.92.1-2.85.19l-.91.09c-1.88.17-3.59,1.37-5.4,2.63-.41.29-.84.57-1.28.86-1.48,1-2.87,1.87-3.45,3.13h0a12.88,12.88,0,0,0-1.15,6.28c.1,1.12,1.05,2.3,2.05,3.55.43.54.88,1.09,1.29,1.68s.7,1.06,1,1.61c.89,1.44,1.66,2.69,2.78,3.21,1.35.63,3.09.43,4.93.23l1.24-.13a11.66,11.66,0,0,0,10.52-12.26,11.76,11.76,0,0,0-1.77-5.83l-.41-.59c-1.13-1.63-2.41-3.48-3.93-4.19A6.53,6.53,0,0,0,250.68,195.87Z"/><path class="cls-12" d="M145.43,243.37a18,18,0,0,1-1.45,9.22,17.2,17.2,0,0,1-5.58,7.25,16.93,16.93,0,0,1-17.32,2.55c-2.86-1.11-6.19-2-8.26-4.55"/><path class="cls-7" d="M18.49,51.62A17.28,17.28,0,0,1,19.4,56,13.67,13.67,0,0,1,18,63.13,13.49,13.49,0,0,1,6.61,71.05l-.92.1a23.55,23.55,0,0,1-2.64.19,9,9,0,0,1-3.84-.78A10.2,10.2,0,0,1-5,66.19c-.23-.38-.46-.76-.71-1.11s-.58-.77-.89-1.15a10.21,10.21,0,0,1-2.67-5.36,15.21,15.21,0,0,1,1.36-7.51h0a11.25,11.25,0,0,1,4.49-4.47l.92-.61c1.74-1.22,3.9-2.73,6.65-3l.71-.07.58-.06m-8.82,10.3h0a10.21,10.21,0,0,0-.91,4.95,6.23,6.23,0,0,0,1.6,2.68c.37.47.74.94,1.07,1.41s.59.89.87,1.35A6.33,6.33,0,0,0,1.31,66a7.75,7.75,0,0,0,3.83.15l1-.11a8.5,8.5,0,0,0,7.32-5,8.74,8.74,0,0,0,.94-4.56,9.24,9.24,0,0,0-1.37-4.58l-.35-.5c-.89-1.29-1.91-2.76-3-3.29s-2.81-.34-4.33-.19L4.56,48A9.62,9.62,0,0,0,.33,50.07c-.34.24-.7.47-1.06.71A7.2,7.2,0,0,0-3.42,53.17Z"/><path class="cls-7" d="M87.69,14.61a13.88,13.88,0,0,1,3.79,1.12c3.83,1.78,6.24,5.26,8,7.79l.48.68a22.33,22.33,0,0,1,3.56,11,20.08,20.08,0,0,1-.78,7.57M58.67,34.55a24.26,24.26,0,0,1,2-7.11c1.67-3.61,4.67-5.57,7.08-7.14.46-.3.9-.59,1.33-.89,2.69-1.88,6-4.22,10.45-4.62l1-.1L82,14.56m6.37,11a5.37,5.37,0,0,0-.81-.61l-.28-.15a5.86,5.86,0,0,0-2.41-.38c-1,0-2.2.11-3.29.22l-1.12.11c-1.64.15-3.28,1.23-5.6,2.85-.52.36-1.06.72-1.6,1.07-1.55,1-3,2-3.48,3h0a13.76,13.76,0,0,0-1.23,6.62c.07.76,1.14,2.09,2.07,3.26.54.67,1.1,1.37,1.64,2.13s.91,1.39,1.32,2.05c.88,1.42,1.71,2.76,2.53,3.14,1.14.53,3,.33,4.94.11l1.55-.16a11.2,11.2,0,0,0,9.71-6.69,11.63,11.63,0,0,0,1.27-5.91.71.71,0,0,0,0-.14c0-.19,0-.37,0-.55"/><path class="cls-7" d="M107.62-.19c-1.86.64-4,.54-5.87.78C99.13.92,96.33,2,93.89.94a16.27,16.27,0,0,1-6.35-5C85.88-6.26,86-9.16,85.65-11.7S85-16.93,86-19.37s2-5.33,4.19-7,5.31-1.89,7.85-2.2a11.79,11.79,0,0,1,3.84.18"/><path class="cls-15" d="M108.86,130.58c2.44,1.69,8.09,4.18,10.19-15.91,1.66-16,4-53.58,5.34-62.79,1.15-8.11,7-8.08,10.35-3.35,4.26,6,4.24,15.35,3.07,32.1-.92,13.11-2.49,31-2,36.74.49,5.95,9.78,7.1,12.15.9C153.72,103.18,164.75,63.4,170,53c3.71-7.39,12.46-3.44,11.1,8.26-1.32,11.34-10.24,39.35-17.48,64.06-1.64,5.62,4.13,7.89,7,4.62,8.58-9.8,26.45-43.29,36.35-59.19,3.25-5.21,8.23-4,9.62,1.77,2.52,10.65-7.46,23.91-33.2,67.85-5.72,9.77,0,10.33,4.61,8.1,10-4.86,29.71-17.31,35.62-20.47,3.81-2,6-.6,6,3.3,0,9.92-7,14.1-44,37.12-10,6.24-8.56,24.89-26.75,34.43-4.3,2.25-5.31,1.58-6.56,7.71C147.07,236.06,145.14,311,145.14,311H79.65s25.57-101,26-109.11-5.69-9.19-9-21.52c-2.52-9.43-1.29-19.14-5.61-31.56s-14-34.87-15.82-42.27,9-9.6,16.38-2.42C97.37,109.74,103.42,126.81,108.86,130.58Z"/><path class="cls-16" d="M158.57,163.46c-16.56,7.26-24,22.33-24.37,24-.58,2.39-5.26,2.11-4.63-1.07,3.63-18.34-.38-31.37-.38-31.37s5.45,12.47,15.1,8.82A23.65,23.65,0,0,1,158.57,163.46Z"/><path class="cls-17" d="M131,164.51c.18,2,.28,4.15.27,6.43"/><path class="cls-17" d="M111.93,135.51c8.53,4.25,15.17,10.44,17.94,22"/><path class="cls-17" d="M140.43,124.79a30,30,0,0,0,4.71,3"/><path class="cls-17" d="M180.94,153.6a44.46,44.46,0,0,1-.46,13.33"/><path class="cls-17" d="M115.6,197.88A81,81,0,0,1,142.78,204"/><path class="cls-17" d="M134.2,187.46s7.81-16.74,24.37-24"/><path class="cls-7" d="M113.34,131.3c2.22-1.17,4.53-5.33,5.71-16.63,1.66-16,4-53.58,5.34-62.79.84-5.88,4.14-7.48,7.17-6.12"/><path class="cls-7" d="M104.68,125.64a17.78,17.78,0,0,0,4.18,4.94"/><path class="cls-7" d="M94,253.39c5.92-24.25,11.47-47.77,11.66-51.51.42-8.09-5.69-9.19-9-21.52-2.52-9.43-1.29-19.14-5.61-31.56s-14-34.87-15.82-42.27,9-9.6,16.38-2.42c3.62,3.53,7.35,11.57,11,18"/><path class="cls-7" d="M145.14,311H79.65s6.13-24.24,12.44-49.91"/><path class="cls-7" d="M153.45,206.57a17.27,17.27,0,0,0-1.16,4c-3.55,17.36-5.58,57.55-6.51,81.5"/><path class="cls-7" d="M226.9,139.51c-4.48,6-15.7,12.94-41.3,28.88-10,6.24-8.56,24.89-26.75,34.43"/><path class="cls-7" d="M191.76,146.5c10.56-5.65,26.61-15.73,31.84-18.53,3.81-2,6-.6,6,3.3a14.9,14.9,0,0,1-.53,4.08"/><path class="cls-7" d="M181.15,145.4c-1.11,4.82,3.2,4.79,6.83,3"/><path class="cls-7" d="M216.78,78.09c-1.4,10.25-11.91,25.55-33.41,62.25"/><path class="cls-7" d="M170.6,129.91c8.58-9.8,26.45-43.29,36.35-59.19,3.25-5.21,8.23-4,9.62,1.77"/><path class="cls-7" d="M181.09,61.23c-1.32,11.34-10.24,39.35-17.48,64.06-.82,2.81.21,4.78,1.81,5.64"/><path class="cls-7" d="M140.1,122.19a6.51,6.51,0,0,0,7.84-3.92C153.72,103.18,164.75,63.4,170,53c3.07-6.12,9.6-4.46,11,2.94"/><path class="cls-7" d="M136.41,99.75c-.52,7.65-.88,14.45-.62,17.62"/><path class="cls-7" d="M134.74,48.53c4.26,6,4.24,15.35,3.07,32.1-.3,4.23-.66,9-1,13.62"/><path class="cls-7" d="M252.15,96.88a92.88,92.88,0,0,0,2,11.9c2.09,7.8,7.76,15.85,9.18,24.21"/><path class="cls-7" d="M36.5,134c1.08-8.74,7.07-17.16,9.24-25.27"/><path class="cls-7" d="M47.26,174.76a54.56,54.56,0,0,0-1.43-10.16c-2.2-8.23-8.4-16.75-9.38-25.61"/><path class="cls-7" d="M51.05,193.82c-1.91-3.31-2.72-7.25-3.18-11.38"/></g><rect class="cls-18" width="300" height="300"/></g></g></svg>