<svg xmlns="http://www.w3.org/2000/svg" xmlns:xlink="http://www.w3.org/1999/xlink" viewBox="0 0 300 300"><defs><style>.cls-1,.cls-11,.cls-12,.cls-13,.cls-16,.cls-18,.cls-19,.cls-21,.cls-22,.cls-29,.cls-30,.cls-31,.cls-32,.cls-39,.cls-40,.cls-45,.cls-47,.cls-9{fill:none;}.cls-2{isolation:isolate;}.cls-3{clip-path:url(#clip-path);}.cls-4{fill:#48556a;}.cls-23,.cls-5{fill:#8b9fc3;}.cls-6{fill:#576779;}.cls-26,.cls-27,.cls-7{fill:#c4e0db;}.cls-8{fill:#91abc2;}.cls-11,.cls-14,.cls-15,.cls-23,.cls-31,.cls-35,.cls-36,.cls-43,.cls-46,.cls-8{stroke:#31374b;}.cls-11,.cls-12,.cls-14,.cls-15,.cls-16,.cls-18,.cls-19,.cls-21,.cls-22,.cls-23,.cls-24,.cls-26,.cls-27,.cls-29,.cls-30,.cls-31,.cls-32,.cls-35,.cls-36,.cls-39,.cls-40,.cls-43,.cls-45,.cls-46,.cls-47,.cls-8,.cls-9{stroke-linecap:round;}.cls-15,.cls-16,.cls-18,.cls-19,.cls-21,.cls-22,.cls-23,.cls-24,.cls-26,.cls-27,.cls-29,.cls-30,.cls-31,.cls-32,.cls-35,.cls-36,.cls-39,.cls-40,.cls-43,.cls-45,.cls-46,.cls-47,.cls-8,.cls-9{stroke-linejoin:round;}.cls-9{stroke:#696d95;}.cls-10,.cls-14{fill:#9abfdd;}.cls-11,.cls-12,.cls-13,.cls-14{stroke-miterlimit:10;}.cls-12,.cls-45{stroke:#5a60b4;}.cls-13{stroke:#8398c7;}.cls-15,.cls-44{fill:#bfd3f6;}.cls-16{stroke:#a3b0e3;}.cls-17{fill:#95c4e4;}.cls-18,.cls-19{stroke:#7da1d1;}.cls-19{stroke-dasharray:6.28 12.56;}.cls-20{fill:#7da1d1;}.cls-21,.cls-24,.cls-27{stroke:#6475c4;}.cls-22,.cls-26{stroke:#676599;}.cls-24{fill:#fff;}.cls-25{fill:#676599;}.cls-28{fill:#6475c4;}.cls-29{stroke:#c4e0db;}.cls-30{stroke:#8b9fc3;}.cls-32{stroke:#8b8ed7;}.cls-33,.cls-35{fill:#e6f0ff;}.cls-34,.cls-36{fill:#b1c8f5;}.cls-37{fill:#adc3d4;}.cls-38{fill:#99afc7;}.cls-39{stroke:#8195b7;}.cls-40{stroke:#96a3bd;}.cls-41{fill:#d4eaed;}.cls-42{fill:#c1d2dd;}.cls-43{fill:#31374b;}.cls-44,.cls-48{opacity:0.5;}.cls-46{fill:#a6b1bf;}.cls-47{stroke:#b1c8f5;}.cls-48{fill:#201f35;mix-blend-mode:overlay;}</style><clipPath id="clip-path"><rect class="cls-1" width="300" height="300"/></clipPath></defs><g class="cls-2"><g id="Layer_1" data-name="Layer 1"><g class="cls-3"><rect class="cls-4" x="-10.23" y="-15.06" width="341.3" height="323.91"/><path class="cls-5" d="M242,67.87C258.32,44.56,355.28,57.3,408.35,37.2L307.83-80.34,106.65-89.46C-8.61,32.84,120.36,7.9,104,61.38c-9.23,30.16-90.51,58.92-68.81,75.75C84.67,175.51,13.6,213-22.61,222.05l-28,34.67,36,39.82C41,182.81,134.25,232.65,159.66,192.22c6.59-10.49-5.21-25.82,1.88-36.52,14.78-22.3,78.38-14.89,90-38.35C261.09,98,228.68,86.86,242,67.87ZM89.6-4.55C55.72-45.34,236-42.21,272.57-27.24,200.45-15.6,148.48,66.33,89.6-4.55Z"/><path class="cls-6" d="M292,97.62l-32.29,27.52a1.25,1.25,0,1,1-1.62-1.9l0,0,33.48-26a.3.3,0,0,1,.43,0A.31.31,0,0,1,292,97.62Z"/><path class="cls-5" d="M173.87-15.62,145.2,15.65A1.25,1.25,0,0,1,143.35,14s0,0,0,0l30-30a.3.3,0,0,1,.43,0A.3.3,0,0,1,173.87-15.62Z"/><path class="cls-7" d="M194.09,32.63l-44.68,38.1a1.73,1.73,0,0,1-2.25-2.64l.06,0L193.56,32a.42.42,0,0,1,.59.07A.42.42,0,0,1,194.09,32.63Z"/><path class="cls-8" d="M222.65,186.68a12.57,12.57,0,0,0-8.13,3A20.32,20.32,0,0,0,178.85,203s0,0,0,.05a12.17,12.17,0,0,0-11.34,11.49A17.84,17.84,0,0,0,145.84,212a4.05,4.05,0,1,0-5.78,5.58,17.79,17.79,0,0,0-2.88,9.73v.1a9.69,9.69,0,0,0-2.17-.25,9.83,9.83,0,0,0-5.85,1.94,16.69,16.69,0,0,0-24.64-8.41H93.36a4.24,4.24,0,1,0,0,8.48h4.35a16.84,16.84,0,0,0-1,5.66,16.38,16.38,0,0,0,.27,2.9,8.85,8.85,0,0,0-.89-.05,9,9,0,0,0-8.34,5.53l-.71,0a22.33,22.33,0,1,0,22.29,23.55l46.65-8,66.62-35V212h.05a12.64,12.64,0,1,0,0-25.27Z"/><path class="cls-9" d="M158.57,229.21a8.48,8.48,0,0,1,8.48-8.48"/><path class="cls-10" d="M229.44,221.79l-33.25-28.28a7.26,7.26,0,0,0-11.26,2.39L166,235.26Z"/><line class="cls-11" x1="214.63" y1="209.19" x2="199.39" y2="196.23"/><path class="cls-11" d="M196.19,193.51a7.26,7.26,0,0,0-11.26,2.39L166,235.26l63.4-13.47"/><path class="cls-10" d="M278.25,219.58,243.56,182.7A8.43,8.43,0,0,0,230.28,184l-26.83,42.93Z"/><line class="cls-11" x1="221.38" y1="198.25" x2="214.04" y2="209.99"/><line class="cls-11" x1="228.78" y1="186.41" x2="222.89" y2="195.83"/><path class="cls-12" d="M266.86,207.48l-23.3-24.78A8.43,8.43,0,0,0,230.28,184"/><line class="cls-13" x1="212.95" y1="211.74" x2="210.5" y2="215.65"/><path class="cls-14" d="M147.16,226.52l-4.39,14.13,23.52-8.74L152,223a2.81,2.81,0,0,0-4.18,1.55"/><path class="cls-15" d="M83.08,251.41a13.6,13.6,0,0,0-8.12,4.2,21,21,0,0,0-32-2.3,18.14,18.14,0,0,0-11.45-8.2,11.92,11.92,0,0,0-19.1-13.71A20,20,0,0,0-7.76,221.28a20,20,0,0,0-17.07,22.53,19.88,19.88,0,0,0,6.08,11.79l-.25.72s.85,73.7,1.68,73.58S76.2,302.08,76.2,302.08s-1.69-9.42-3.63-18.88a21,21,0,0,0,4.72-6.82,13.72,13.72,0,1,0,5.79-25Z"/><circle class="cls-15" cx="256.94" cy="162.06" r="2.48"/><path class="cls-15" d="M315.43,189.68a24.75,24.75,0,1,0-43.95-18.48c0,.08,0,.16,0,.24a11.82,11.82,0,0,0-15,7.39,21.51,21.51,0,0,0-16.78,16.11,14.32,14.32,0,0,0-9.42,11.7v0a9.65,9.65,0,1,0,7.5,14.44A14.24,14.24,0,0,0,253,220a21.87,21.87,0,0,0,4.9,1.24,21.38,21.38,0,0,0,9.29-.89,30.23,30.23,0,1,0,48.23-30.67Z"/><path class="cls-16" d="M293.37,210.39a7.88,7.88,0,0,0-9.52-6.92,14,14,0,0,0-27.32,4.37,13.57,13.57,0,0,0,.17,2.22"/><path class="cls-16" d="M280,194.12a17.63,17.63,0,0,1,22.58-10.62"/><path class="cls-16" d="M80.19,282.4a19.43,19.43,0,0,0-38.67-2.68A12.86,12.86,0,0,0,29,292.57"/><path class="cls-16" d="M25.77,272.92a6.48,6.48,0,0,0-12-3.06"/><circle class="cls-15" cx="27.61" cy="207.9" r="3.79"/><path class="cls-17" d="M326.85,326.05V217.93A353.17,353.17,0,0,0,14,326.05Z"/><path class="cls-18" d="M133,253.09l2.74-1.21"/><path class="cls-19" d="M147.35,247.09a340.37,340.37,0,0,1,124.72-23.4,349.07,349.07,0,0,1,35.56,1.83"/><path class="cls-11" d="M261.45,213.85c3.53-.1,7.07-.16,10.62-.16a354.82,354.82,0,0,1,57.39,4.65"/><path class="cls-11" d="M54.58,288.72A354.72,354.72,0,0,0,14,326.05"/><path class="cls-11" d="M72.27,275.71A350.77,350.77,0,0,1,252,214.26"/><path class="cls-15" d="M21.59,238H44.43a5,5,0,0,1,5,5h0a5,5,0,0,1-5,5H29"/><line class="cls-16" x1="25.77" y1="247.97" x2="16.29" y2="247.97"/><line class="cls-16" x1="13.01" y1="247.97" x2="9.1" y2="247.97"/><line class="cls-16" x1="17.84" y1="237.97" x2="11.98" y2="237.97"/><path class="cls-16" d="M1.57,278.61H11.89a6,6,0,0,1,5.95,5.95h0a6,6,0,0,1-5.95,6H5.12"/><line class="cls-16" x1="2.05" y1="290.52" x2="-2.06" y2="290.52"/><path class="cls-15" d="M249.77,188.29H233.48a4.71,4.71,0,0,1-4.7-4.7h0a4.71,4.71,0,0,1,4.7-4.7H260.7"/><line class="cls-16" x1="252.55" y1="188.29" x2="258.62" y2="188.29"/><line class="cls-16" x1="261.03" y1="188.29" x2="263.61" y2="188.29"/><line class="cls-16" x1="263.61" y1="178.89" x2="271.17" y2="178.89"/><rect class="cls-15" x="216.47" y="194.12" width="9.36" height="5.98" rx="2.99"/><rect class="cls-15" x="71.54" y="237.97" width="12.65" height="8.64" rx="4.32"/><path class="cls-15" d="M291.3,155.68H280a5,5,0,0,1-5-5h0a5,5,0,0,1,5-5h23.9a5,5,0,0,1,5,5h0"/><line class="cls-16" x1="294.52" y1="155.68" x2="301.01" y2="155.68"/><circle class="cls-8" cx="161.52" cy="200.87" r="2.63"/><path class="cls-9" d="M130.15,239.43A8.07,8.07,0,0,0,115,243.25a7.77,7.77,0,0,0,.06,1,4,4,0,0,0-.85-.09,4.05,4.05,0,0,0-3.88,5.28"/><path class="cls-9" d="M101.18,247.29a3.38,3.38,0,0,0-6.59-.6"/><line class="cls-9" x1="99.87" y1="229.21" x2="103.31" y2="229.21"/><line class="cls-9" x1="105.68" y1="229.21" x2="107.36" y2="229.21"/><path class="cls-8" d="M187.08,189.68H181a2.14,2.14,0,0,1-2.14-2.14h0A2.14,2.14,0,0,1,181,185.4h15.35"/><line class="cls-9" x1="190.15" y1="189.68" x2="193.96" y2="189.68"/><line class="cls-9" x1="197.16" y1="189.68" x2="198.81" y2="189.68"/><path class="cls-18" d="M278.87,243.13a1.5,1.5,0,0,0-1.53-.54,4.17,4.17,0,0,0-.54.17,2.4,2.4,0,0,0,0-.46c0-.41-.52-.72-1.08-.72s-1,.31-1.08.72a2.43,2.43,0,0,0,0,.46l-.54-.18a1.52,1.52,0,0,0-1.53.54.78.78,0,0,0,.51,1.23c.19.05.41.09.63.13a4.91,4.91,0,0,0-.48.41,1.19,1.19,0,0,0,0,1.81,1.5,1.5,0,0,0,2.08-.31,5.65,5.65,0,0,0,.38-.57,4.28,4.28,0,0,0,.37.57,1.51,1.51,0,0,0,2.08.32,1.19,1.19,0,0,0,0-1.81,3.8,3.8,0,0,0-.47-.42,3.9,3.9,0,0,0,.63-.13A.77.77,0,0,0,278.87,243.13Z"/><path class="cls-18" d="M174.39,283.48a1.33,1.33,0,0,0-1.41.17,3.91,3.91,0,0,0-.36.35,1.79,1.79,0,0,0-.16-.37,1,1,0,0,0-1.7.84,3.13,3.13,0,0,0,.19.36,2.63,2.63,0,0,0-.49.07,1.32,1.32,0,0,0-1,1,.68.68,0,0,0,.88.76,4.45,4.45,0,0,0,.55-.14,3.74,3.74,0,0,0-.22.51,1,1,0,0,0,.72,1.41,1.31,1.31,0,0,0,1.51-1.06,3.68,3.68,0,0,0,.07-.58l.51.3a1.33,1.33,0,0,0,1.76-.57,1,1,0,0,0-.69-1.42A3.05,3.05,0,0,0,174,285c.16-.12.32-.23.45-.35A.68.68,0,0,0,174.39,283.48Z"/><path class="cls-18" d="M200.44,237.15a1.52,1.52,0,0,0-1.62-.06,4.84,4.84,0,0,0-.46.33,2.55,2.55,0,0,0-.12-.44,1,1,0,0,0-1.25-.37c-.53.17-.9.61-.81,1a2.22,2.22,0,0,0,.15.43,5.47,5.47,0,0,0-.57,0,1.49,1.49,0,0,0-1.29,1,.77.77,0,0,0,.85,1A3.68,3.68,0,0,0,196,240a5.22,5.22,0,0,0-.33.54,1.19,1.19,0,0,0,.56,1.72,1.5,1.5,0,0,0,1.89-.92c.07-.21.13-.43.18-.65.17.15.34.3.52.43a1.5,1.5,0,0,0,2.08-.33,1.19,1.19,0,0,0-.52-1.73c-.18-.09-.38-.17-.59-.25a5,5,0,0,0,.57-.31A.78.78,0,0,0,200.44,237.15Z"/><circle class="cls-18" cx="122.42" cy="280.77" r="2.42"/><circle class="cls-18" cx="261.05" cy="271.79" r="1.27"/><circle class="cls-20" cx="162.81" cy="265.77" r="0.79"/><path class="cls-7" d="M207.06,22.74a13.41,13.41,0,0,0-12.46-3.58,10.47,10.47,0,1,1-10.06,10.06,13.39,13.39,0,1,0,22.52-6.48Z"/><path class="cls-21" d="M209.14,25.43a13.28,13.28,0,0,0-2.08-2.69"/><path class="cls-22" d="M200,38.83a10.46,10.46,0,0,1-15.41-9.61,13.39,13.39,0,1,0,26.09-.09"/><path class="cls-21" d="M203.77,20.32a13.53,13.53,0,0,0-9.17-1.16A10.46,10.46,0,0,1,202.39,37"/><circle class="cls-20" cx="217.71" cy="256.19" r="0.79"/><circle class="cls-20" cx="258.62" cy="224.97" r="0.79"/><path class="cls-23" d="M304.84,62.61c-20.46-2-41,3.3-35.16,18,5.95,15.07,32.22,35,43.54,30.7C327.77,105.83,323,64.43,304.84,62.61Z"/><polyline class="cls-21" points="122.42 122.36 133.43 113.1 142.72 112.78 154.18 111.29 160.84 118.09 176.09 109.88 172.41 98.67"/><circle class="cls-24" cx="122.42" cy="122.36" r="1.47"/><circle class="cls-24" cx="133.43" cy="113.1" r="1.47"/><circle class="cls-24" cx="142.72" cy="112.78" r="1.47"/><circle class="cls-24" cx="154.18" cy="111.29" r="1.47"/><circle class="cls-24" cx="160.84" cy="118.09" r="1.47"/><circle class="cls-24" cx="176.09" cy="109.88" r="1.47"/><circle class="cls-24" cx="172.41" cy="98.67" r="1.47"/><path class="cls-25" d="M130.08,91.14A7.13,7.13,0,0,0,130.4,89a7.33,7.33,0,0,0-9-7.17,5.43,5.43,0,0,0-10,2.66,2.19,2.19,0,0,0-4,1.31,2.18,2.18,0,0,0,.09.63h-.09a6.1,6.1,0,0,0-6.1,6.09,6,6,0,0,0,.38,2.12h32.11A3.75,3.75,0,0,0,130.08,91.14Z"/><path class="cls-6" d="M32.82,182.66a4.35,4.35,0,0,0-4.15-4.35A9,9,0,0,0,20.25,166a9.3,9.3,0,0,0-2.55.36A9.05,9.05,0,0,0,.08,169.25s0,.08,0,.12h0A12.83,12.83,0,0,0-12.75,182.2a13.8,13.8,0,0,0,.16,2H32.52A4.15,4.15,0,0,0,32.82,182.66Z"/><path class="cls-6" d="M233.57,150.31a3.51,3.51,0,0,1,3.35-3.5,7.31,7.31,0,0,1,8.85-9.67A7.31,7.31,0,0,1,260,139.5s0,.06,0,.09h0A10.35,10.35,0,0,1,270.34,150a9.9,9.9,0,0,1-.13,1.64h-36.4A3.64,3.64,0,0,1,233.57,150.31Z"/><path class="cls-26" d="M206.13,86.05a6.42,6.42,0,0,1-1.55,2.06,1,1,0,0,0,0,1.45,6.26,6.26,0,0,1,1.55,2,1,1,0,0,0,1.76,0,6.26,6.26,0,0,1,1.55-2,1,1,0,0,0,0-1.45,6.42,6.42,0,0,1-1.55-2.06A1,1,0,0,0,206.13,86.05Z"/><path class="cls-26" d="M191.66,24.57a6.37,6.37,0,0,1-1.55,2.05,1,1,0,0,0,0,1.45,6.37,6.37,0,0,1,1.55,2.05,1,1,0,0,0,1.77,0A6.23,6.23,0,0,1,195,28.07a1,1,0,0,0,0-1.45,6.23,6.23,0,0,1-1.55-2.05A1,1,0,0,0,191.66,24.57Z"/><path class="cls-26" d="M101.61,105a6.23,6.23,0,0,1-1.55,2,1,1,0,0,0,0,1.45,6.13,6.13,0,0,1,1.55,2,1,1,0,0,0,1.77,0,6.26,6.26,0,0,1,1.55-2,1,1,0,0,0,0-1.45,6.37,6.37,0,0,1-1.55-2A1,1,0,0,0,101.61,105Z"/><path class="cls-7" d="M66.59,38.72A6.23,6.23,0,0,1,65,40.77a1,1,0,0,0,0,1.45,6.23,6.23,0,0,1,1.55,2.05,1,1,0,0,0,1.77,0,6.37,6.37,0,0,1,1.55-2.05,1,1,0,0,0,0-1.45,6.37,6.37,0,0,1-1.55-2.05A1,1,0,0,0,66.59,38.72Z"/><path class="cls-26" d="M286.43,81.51a6.4,6.4,0,0,1-1.55,2,1,1,0,0,0,0,1.46,6.4,6.4,0,0,1,1.55,2,1,1,0,0,0,1.76,0,6.26,6.26,0,0,1,1.55-2,1,1,0,0,0,0-1.46,6.26,6.26,0,0,1-1.55-2A1,1,0,0,0,286.43,81.51Z"/><circle class="cls-26" cx="172.41" cy="63.4" r="1.21"/><circle class="cls-6" cx="19.26" cy="65.82" r="1.21"/><circle class="cls-27" cx="133.81" cy="142.68" r="1.21"/><circle class="cls-6" cx="29.43" cy="24.01" r="1.21"/><circle class="cls-6" cx="58.85" cy="84.29" r="1.21"/><circle class="cls-26" cx="221.38" cy="108.41" r="1.21"/><circle class="cls-25" cx="140.04" cy="87.62" r="1.21"/><circle class="cls-28" cx="190.15" cy="122.16" r="1.21"/><path class="cls-22" d="M229.08,123.34c23.27-8,14.65-21.55,6.41-31.17"/><path class="cls-22" d="M206,127.86c1.21-.33,2.84,1.31,3.94,1s1.83-2.51,3-2.77,2.67,1.46,3.88,1.21,1.86-2.4,3.1-2.64c1.08-.2,2.6,1.56,3.85,1.33"/><path class="cls-22" d="M162.32,143.17c5.92-4.74,22.3-10.16,36.42-12.1"/><path class="cls-22" d="M152.36,173.45c-.58-1,.69-2.85.27-3.75s-2.73-1.3-3-2.25,1.4-2.52,1.29-3.52-2.1-2.16-2-3.18,2.31-1.65,2.65-2.66-1.07-2.73-.57-3.7,2.75-.82,3.34-1.74-.5-2.85.14-3.75,2.84-.53,3.48-1.42"/><path class="cls-22" d="M144.19,197.11c8.51-5.33,10.51-10.7,9.29-17.06"/><path class="cls-22" d="M89.77,90.89c29.4-18.23,31.07-48.62,11.55-62.33"/><path class="cls-22" d="M60,110.46c1.23-.77,3.46.17,4.56-.54s1.24-3.22,2.32-4,3.46,0,4.53-.71,1.11-3.25,2.17-4,3.43,0,4.5-.86,1-3.25,2.08-4.07,3.36,0,4.49-.85"/><path class="cls-26" d="M161.92,140.39a6.25,6.25,0,0,1-1.54,2.05,1,1,0,0,0,0,1.46,6.25,6.25,0,0,1,1.54,2,1,1,0,0,0,1.77,0,6.26,6.26,0,0,1,1.55-2,1,1,0,0,0,0-1.46,6.26,6.26,0,0,1-1.55-2.05A1,1,0,0,0,161.92,140.39Z"/><circle class="cls-29" cx="188.94" cy="76.71" r="3.04"/><circle class="cls-30" cx="285.8" cy="125.72" r="3.04"/><circle class="cls-26" cx="136.99" cy="46.46" r="1.98"/><circle class="cls-6" cx="43.61" cy="53.87" r="4.72"/><circle class="cls-29" cx="105.26" cy="160.2" r="2.74"/><path class="cls-31" d="M41.61,232.13C90,204.34,141.74,220.74,159.66,192.22c6.59-10.49-5.21-25.82,1.88-36.52,6.94-10.48,24.66-14.4,42.7-18M99.43,70.12C80,97,15.59,121.94,35.19,137.13c36.91,28.63,6.74,56.76-26,73M212.54,136c17.44-3.62,33.66-7.89,39-18.63C261.09,98,228.68,86.86,242,67.87,258.32,44.56,355.28,57.3,408.35,37.2L307.83-80.34,106.65-89.46C-8.61,32.84,120.36,7.9,104,61.38m24.17-38.86c-12.71-3.1-25.47-11.3-38.57-27.07C55.72-45.34,236-42.21,272.57-27.24c-52.49,8.47-94.3,54.17-135.87,51.11"/><path class="cls-15" d="M278.81,43a18.14,18.14,0,0,0-3.32.32,12.78,12.78,0,0,0-10.11-12,14.15,14.15,0,0,0-27.07-5.11,8,8,0,0,0-10.62,2.58,18.25,18.25,0,0,0-9.81.37H206.82a2,2,0,1,0,0,4h4.26a18.26,18.26,0,0,0-5.94,13.47,18.56,18.56,0,0,0,.63,4.69,12.4,12.4,0,0,0-7,7.33h98A18.07,18.07,0,0,0,278.81,43Z"/><path class="cls-15" d="M279.78,60.09a12.78,12.78,0,0,0-23.73-6.6,10.08,10.08,0,0,0-2.64-.37A9.94,9.94,0,0,0,243.69,61h36.05C279.76,60.7,279.78,60.4,279.78,60.09Z"/><path class="cls-16" d="M239.69,49.15a7.92,7.92,0,0,0,.23-1.84,7.48,7.48,0,0,0-14.83-1.37,3.24,3.24,0,0,0-1.45-.36,3.28,3.28,0,0,0-3.28,3.28,2.85,2.85,0,0,0,0,.29"/><circle class="cls-15" cx="230.33" cy="15.27" r="2.47"/><rect class="cls-15" x="187.84" y="42.27" width="13.57" height="6.17" rx="3.08"/><path class="cls-27" d="M253.58,25.78a6.37,6.37,0,0,1-1.55,2,1,1,0,0,0,0,1.45,6.37,6.37,0,0,1,1.55,2,1,1,0,0,0,1.77,0,6.23,6.23,0,0,1,1.55-2,1,1,0,0,0,0-1.45,6.23,6.23,0,0,1-1.55-2A1,1,0,0,0,253.58,25.78Z"/><path class="cls-27" d="M288,7.42a6.26,6.26,0,0,1-1.55,2.05,1,1,0,0,0,0,1.45A6.31,6.31,0,0,1,288,13a1,1,0,0,0,1.76,0,6.31,6.31,0,0,1,1.55-2.06,1,1,0,0,0,0-1.45,6.26,6.26,0,0,1-1.55-2.05A1,1,0,0,0,288,7.42Z"/><rect class="cls-15" x="42.56" y="120.86" width="9.17" height="3.09" rx="1.55"/><circle class="cls-15" cx="-0.34" cy="114.72" r="2.3"/><path class="cls-15" d="M60,132.86H49.64a10.37,10.37,0,0,0-8.21-4,9.76,9.76,0,0,0-1.44.11,7.08,7.08,0,0,0-7.06-6.58,7.29,7.29,0,0,0-1.64.2,14.65,14.65,0,0,0-28.58,4.5,14.22,14.22,0,0,0,.16,2.17,11.53,11.53,0,0,0-7.15,5.62,11.77,11.77,0,0,0-4.68-1A11.66,11.66,0,0,0-20.6,145H59.11a8.6,8.6,0,0,0-7.28-4h-.17a9.88,9.88,0,0,0-.07-4H60a2.09,2.09,0,0,0,2.08-2.08h0A2.08,2.08,0,0,0,60,132.86Z"/><rect class="cls-15" x="54.3" y="125.72" width="4.55" height="1.95" rx="0.98"/><path class="cls-32" d="M-1.86,136.27a11.93,11.93,0,0,1,3,3.45"/><path class="cls-16" d="M42,137.77a6.41,6.41,0,0,0-12.07-3h-.12a11.36,11.36,0,0,0-10.57,7.94"/><path class="cls-16" d="M15.89,124.55A3.69,3.69,0,0,1,18,122.41a3.73,3.73,0,0,1,4.82,2.11,3.69,3.69,0,0,1,.16,2.17"/><path class="cls-33" d="M183.19,296.49c-50.57-48.07-121.1-93.33-186.7-70.56,25.16-19.28,51.92-34.61,86.21-31.43C120.87,221.33,146.47,254.88,183.19,296.49Z"/><path class="cls-34" d="M183.19,296.49c-33.76-32.09-76.4-62.92-120.54-73.11h0C87,249.6,103.51,320.8,93.92,361.45,115.92,331.71,156.11,303.83,183.19,296.49Z"/><path class="cls-31" d="M183.19,296.49c-28.26-26.86-62.74-52.84-99.12-66.57"/><circle class="cls-6" cx="258.62" cy="85.35" r="2.27"/><circle class="cls-5" cx="34.77" cy="92.96" r="4.13"/><circle class="cls-6" cx="200.72" cy="164.79" r="2.73"/><circle class="cls-25" cx="102.53" cy="200.1" r="4.05"/><circle class="cls-25" cx="72.28" cy="174.42" r="2.21"/><path class="cls-35" d="M169.91,174.59c21.21-5.47,29.59,13.22,29.59,13.22l-7.74,43.89s-21.92-28-47.3-17C144.46,214.74,164.36,180.41,169.91,174.59Z"/><path class="cls-36" d="M124.26,168.19c2.39-3.65,2-4,4.45-5.31A19.44,19.44,0,0,0,127.15,175,7.42,7.42,0,0,1,124.26,168.19Z"/><path class="cls-35" d="M147.13,139.91a39.69,39.69,0,0,0-22.87,28.28c5.4-8.24,10.48-9.32,16.9-8.66-.21-5.9,2.62-15.67,6-19.62"/><polygon class="cls-37" points="176.91 324.74 172.43 321.75 203.88 274.52 211.88 267.36 208.36 277.5 176.91 324.74"/><path class="cls-38" d="M185.45,279.51h0A1.45,1.45,0,0,1,186.9,281v55.66a0,0,0,0,1,0,0H184a0,0,0,0,1,0,0V281a1.45,1.45,0,0,1,1.45-1.45Z" transform="translate(201.85 -51.14) rotate(33.66)"/><line class="cls-39" x1="205.57" y1="278.46" x2="194.34" y2="295.32"/><line class="cls-40" x1="193.15" y1="297.1" x2="187.58" y2="305.47"/><path class="cls-41" d="M203.88,274.52c-.35.53.36,1.63,1.6,2.46s2.53,1.06,2.88.52l3.52-10.14Z"/><path class="cls-42" d="M208.86,272.63l-2.07,3.61a.76.76,0,0,0,.52,1.12h0a.77.77,0,0,0,.85-.5l1.36-3.93a.37.37,0,0,0-.25-.48h0A.37.37,0,0,0,208.86,272.63Z"/><path class="cls-43" d="M209.14,269.81c-.12.19.12.57.55.85s.87.36,1,.18l1.2-3.48Z"/><path class="cls-39" d="M204.66,276.32a6.22,6.22,0,0,0,.82.66c1.24.82,2.53,1.06,2.88.52"/><polygon class="cls-31" points="176.91 324.74 172.43 321.75 203.88 274.52 211.88 267.36 208.36 277.5 176.91 324.74"/><path class="cls-44" d="M34.92,65.48H27.67a5.41,5.41,0,0,0-5.4,5.39h0a5.42,5.42,0,0,0,5.4,5.4h8.44a11.55,11.55,0,0,1,11.6,10.18A11.33,11.33,0,0,1,36.46,98.87H-36.21A11.54,11.54,0,0,1-47.81,88.7,11.33,11.33,0,0,1-36.56,76.27h9.72V62.55h36a4,4,0,0,0,4-4h0a4,4,0,0,0-4-4h-36V51.67h13.08A12.66,12.66,0,0,1-1.21,40.26H69.44A12.61,12.61,0,0,1,82.05,52.87h0A12.61,12.61,0,0,1,69.44,65.48Z"/><line class="cls-45" x1="60.13" y1="40.26" x2="73.16" y2="40.26"/><path class="cls-45" d="M5.9,54.6H-26.84V51.67h13.08A12.66,12.66,0,0,1-1.21,40.26H56.13"/><path class="cls-45" d="M30,98.87H-36.56a11.34,11.34,0,0,1-11.31-11.3,11.34,11.34,0,0,1,11.31-11.3h9.72V62.55h36a4,4,0,0,0,4-4h0a4,4,0,0,0-4-4"/><path class="cls-45" d="M66.38,65.48H27.67a5.41,5.41,0,0,0-5.4,5.39h0a5.42,5.42,0,0,0,5.4,5.4h8.79a11.3,11.3,0,0,1,0,22.6"/><path class="cls-44" d="M292.94,124.87H282.32a11.09,11.09,0,0,0,1-6.84,11.46,11.46,0,0,0-11.39-9.29H200a11.4,11.4,0,0,0-11.38,9.42,11.21,11.21,0,0,0,11,13h28.29a7,7,0,0,1,7,7h0a7,7,0,0,1-7,7.05h-8.14a5.77,5.77,0,0,0-5.81,5,5.59,5.59,0,0,0,5.55,6.14h73.41a15.78,15.78,0,0,0,15.74-15.74h0A15.79,15.79,0,0,0,292.94,124.87Z"/><line class="cls-45" x1="231.63" y1="108.74" x2="219.35" y2="108.74"/><path class="cls-45" d="M275.09,156.35h17.85a15.78,15.78,0,0,0,15.74-15.74h0a15.79,15.79,0,0,0-15.74-15.74H282.32a11.09,11.09,0,0,0,1-6.84,11.46,11.46,0,0,0-11.39-9.29H235.63"/><path class="cls-45" d="M219.79,145.21a5.77,5.77,0,0,0-5.81,5,5.59,5.59,0,0,0,5.55,6.14h48.59"/><path class="cls-45" d="M215.3,108.74H200a11.4,11.4,0,0,0-11.38,9.42,11.21,11.21,0,0,0,11,13h28.29a7,7,0,0,1,7,7h0a7,7,0,0,1-7,7.05"/><path class="cls-44" d="M113.53,83.08H97.18a5.06,5.06,0,0,0-5,4v.07a3.39,3.39,0,0,1-3.4,2.74H83.26a8.84,8.84,0,0,0-8.93,8,8.66,8.66,0,0,0,8.61,9.26h17.25a8.85,8.85,0,0,0,8.93-8.37,7.92,7.92,0,0,0-.05-1.2,4.24,4.24,0,0,1,4.23-4.7h0a5.08,5.08,0,0,0,5.12-4.42A4.93,4.93,0,0,0,113.53,83.08Z"/><rect class="cls-46" x="178.15" y="157.34" width="15.49" height="9.44" rx="4.72"/><rect class="cls-8" x="178.15" y="157.34" width="15.49" height="9.44" rx="4.72"/><path class="cls-22" d="M93.36,107.2h6.83a8.85,8.85,0,0,0,8.93-8.37,7.92,7.92,0,0,0-.05-1.2,4.24,4.24,0,0,1,4.23-4.7h0a5.08,5.08,0,0,0,5.12-4.42,4.93,4.93,0,0,0-4.89-5.43h-5.29"/><line class="cls-22" x1="85.68" y1="107.2" x2="90.61" y2="107.2"/><path class="cls-22" d="M105.38,83.08h-8.2a5.06,5.06,0,0,0-5,4v.07a3.39,3.39,0,0,1-3.4,2.74H83.26a8.84,8.84,0,0,0-8.93,8,8.66,8.66,0,0,0,8.61,9.26"/><circle class="cls-26" cx="64.86" cy="-0.37" r="6.36"/><circle class="cls-29" cx="70.24" cy="5.08" r="3.86"/><path class="cls-47" d="M63.38,203.78A110.84,110.84,0,0,1,93,202.15"/><path class="cls-47" d="M45.68,210.39s3.49-2.62,11.15-4.95"/><path class="cls-47" d="M72.28,214.26s7.43-4.39,30.47-4.16"/><path class="cls-47" d="M92.19,220s7.24-2.52,19.52-1.93"/><path class="cls-47" d="M110.1,227.08a33,33,0,0,1,10-.94"/><path class="cls-47" d="M123,235.17a21.61,21.61,0,0,1,5.32-.67"/><path class="cls-31" d="M82.7,194.5c-34.29-3.18-61,12.15-86.21,31.43,21.83-7.57,44.19-7.59,66.19-2.51,24.37,26.24,40.82,97.39,31.24,138,22-29.74,62.19-57.62,89.27-65C146.47,254.88,120.87,221.33,82.7,194.5Z"/><path class="cls-47" d="M189.85,183.32a26,26,0,0,1,4.41,5"/><path class="cls-47" d="M172,178.89a20.21,20.21,0,0,1,15.33,2.56"/><path class="cls-47" d="M178.16,183.24c4.75.87,10.57,3.54,15.57,10.58"/><path class="cls-47" d="M168.84,183.59a18.62,18.62,0,0,1,5.08-.7"/><path class="cls-47" d="M165.57,189.26s16.11-5.06,27.18,11.61"/><path class="cls-47" d="M168.61,194.7c6.93-.62,15.54,2.57,23,13.31"/><rect class="cls-48" x="-8.53" y="-9.07" width="317.42" height="317.86"/></g></g></g></svg>