<svg xmlns="http://www.w3.org/2000/svg" xmlns:xlink="http://www.w3.org/1999/xlink" viewBox="0 0 300 300"><defs><style>.cls-1,.cls-10,.cls-14,.cls-28,.cls-32,.cls-33,.cls-37,.cls-40,.cls-42,.cls-44,.cls-47,.cls-52,.cls-57,.cls-61,.cls-64,.cls-65,.cls-66,.cls-74,.cls-75,.cls-9{fill:none;}.cls-2{isolation:isolate;}.cls-3{clip-path:url(#clip-path);}.cls-4{fill:#f1ffe6;}.cls-5,.cls-70{fill:#d8f7ed;}.cls-5,.cls-65,.cls-71{stroke:#b5d9e0;}.cls-10,.cls-12,.cls-14,.cls-19,.cls-26,.cls-27,.cls-28,.cls-30,.cls-32,.cls-33,.cls-36,.cls-37,.cls-41,.cls-43,.cls-44,.cls-48,.cls-5,.cls-51,.cls-55,.cls-57,.cls-58,.cls-60,.cls-61,.cls-62,.cls-63,.cls-64,.cls-65,.cls-66,.cls-71,.cls-72,.cls-73,.cls-74,.cls-75,.cls-76,.cls-8,.cls-9{stroke-linecap:round;stroke-linejoin:round;}.cls-6,.cls-60,.cls-63,.cls-67,.cls-71,.cls-72{fill:#fff;}.cls-58,.cls-62,.cls-7{fill:#c6e6b8;}.cls-76,.cls-8{fill:#d7d1ed;}.cls-72,.cls-76,.cls-8{stroke:#b4aed3;}.cls-12,.cls-18,.cls-19,.cls-30,.cls-36,.cls-43,.cls-48,.cls-51,.cls-55,.cls-60,.cls-62,.cls-73,.cls-9{stroke:#4a363c;}.cls-10,.cls-58{stroke:#9ed2a2;}.cls-11,.cls-12{fill:#e7bea3;}.cls-13{fill:#efdcbf;}.cls-14,.cls-41{stroke:#cf8586;}.cls-15{fill:#cf8586;}.cls-16,.cls-48{fill:#98b7a7;}.cls-17{fill:#86a396;}.cls-18{fill:#5abc6c;}.cls-18,.cls-40,.cls-42,.cls-47,.cls-52{stroke-miterlimit:10;}.cls-19,.cls-27{fill:#8e7a71;}.cls-20,.cls-36{fill:#f0e0ba;}.cls-21,.cls-51{fill:#e1b3bf;}.cls-22,.cls-43{fill:#baceb3;}.cls-23,.cls-55{fill:#eae3c8;}.cls-24,.cls-30{fill:#83d07b;}.cls-25{fill:#b0a296;}.cls-26{fill:#775858;}.cls-26,.cls-27,.cls-28{stroke:#775858;}.cls-29{fill:#71c36f;}.cls-31{fill:#63b465;}.cls-32{stroke:#63b465;}.cls-33,.cls-63{stroke:#c797ac;}.cls-34,.cls-41{fill:#deae90;}.cls-35{fill:#bae19a;}.cls-37,.cls-40{stroke:#d9aa93;}.cls-38{fill:#d9aa93;}.cls-39{fill:#f9f2cf;}.cls-42{stroke:#efdcbf;stroke-width:3px;}.cls-44{stroke:#d8c7b3;}.cls-45{fill:#a2bca1;}.cls-46{fill:#d3ddc7;}.cls-47{stroke:#a2bca1;}.cls-49{fill:#a6bfa3;}.cls-50{fill:#cdd8c2;}.cls-52{stroke:#86a396;}.cls-53{fill:#c797ac;}.cls-54{fill:#eac3cb;}.cls-56{fill:#d8c7b3;}.cls-57{stroke:#98847d;}.cls-59{fill:#9ed2a2;}.cls-61{stroke:#d7e1f3;}.cls-64{stroke:#eac3cb;}.cls-66{stroke:#d1e4ef;}.cls-67,.cls-76{opacity:0.5;}.cls-68{fill:#b4aed3;}.cls-69{fill:#c4eae8;}.cls-73{fill:#cae7ef;}.cls-74,.cls-75{stroke:#adc3d7;}.cls-74{stroke-dasharray:3 9;}.cls-76{mix-blend-mode:soft-light;}</style><clipPath id="clip-path"><rect class="cls-1" width="300" height="300"/></clipPath></defs><g class="cls-2"><g id="Layer_1" data-name="Layer 1"><g class="cls-3"><rect class="cls-4" x="-3.71" y="-5.72" width="303.71" height="303.71"/><path class="cls-5" d="M-166.72,246.47C-129.89,282.76-58.9,307.15-18,271.38c19.7-17.23,53.61-44,91-30.62C225.2,295,153,173.15,213.88,162.43c89.19-15.7.74-95.93,89.57-108.74l25.07-78.28L-11.79-3.4Z"/><path class="cls-6" d="M299.61,195.68l9-3a15.24,15.24,0,0,0-10.6-8.24h0l-.25,0c-.34-.06-.69-.12-1-.16l-.39,0c-.46,0-.92-.07-1.39-.07a15.21,15.21,0,0,0-13.68,8.56,29.1,29.1,0,0,0-36.07,15.37,23.14,23.14,0,0,0-29.61,30.78A22.42,22.42,0,0,0,200.43,260c0,.23,0,.46,0,.69-.24,0-.48,0-.73,0a14.1,14.1,0,0,0-14.1,14.11c0,.14,0,.28,0,.42a8.79,8.79,0,0,0-2.68-.42,8.63,8.63,0,0,0-6.5,2.94H129a12.8,12.8,0,0,0-10-4.85,13.47,13.47,0,0,0-2.22.2c0-.12,0-.25,0-.38a18.51,18.51,0,0,0-18.51-18.51c-.21,0-.4,0-.61,0A20.82,20.82,0,0,0,71.34,229.4a11.42,11.42,0,0,0-10.68-9.18,30.67,30.67,0,0,0-16-25.9,30.09,30.09,0,0,0-27.53-42.23c-.59,0-1.18,0-1.76.06l-.55,0c-.41,0-.81.07-1.21.12l-.6.07-1.18.19-.54.1c-.53.1-1.05.21-1.56.34l-.1,0c-.55.14-1.09.3-1.63.47l-.49.16-1.11.4-.55.22c-.35.14-.71.29-1.06.45l-.49.22c-.45.22-.89.44-1.32.67l-.16.08c-.49.27-1,.54-1.44.83l-.41.27-1,.65-.47.33c-.31.23-.61.45-.91.69l-.42.33c-.37.3-.73.6-1.08.92l-.18.15c-.4.37-.8.75-1.18,1.14l-.33.34-.8.87c-.13.15-.26.29-.38.44s-.48.57-.71.87l-.35.43c-.27.36-.54.73-.79,1.1l-.15.2h0a29.92,29.92,0,0,0-5.2,16.9l4.2-.42-5.79,96H47.1v4.89H265.53v-4.14h46.09Z"/><rect class="cls-7" x="-9" y="268.83" width="318.01" height="52.46"/><path class="cls-8" d="M-47.12,141.77C44.57,174.52,31.74,62.59,88.7,54c40.18-6,73.4,35.35,98.82,17.83C220,49.46,219.3,21.07,251.64,28.33c57.39,12.87,67.18-1.3,76-75.22C178.41-67.91,4.93-49.59-152.12-54-169.77,32.56-112.63,94.64-47.12,141.77Z"/><line class="cls-9" x1="-3.71" y1="268.83" x2="131.91" y2="268.83"/><line class="cls-10" x1="137.06" y1="273.64" x2="118.23" y2="273.64"/><path class="cls-11" d="M120.93,267.75c.17-1.81,2.72-.76,3.51-1.77.73-.69.12-2.19,1.7-2.61,3.33-.87,1.89-4.38,5.83-1.77,3.88-2.65,5.61-1.87,7.91,2a1.49,1.49,0,0,1,.71,2.07s1.45.88,1.62,1.54c.45,1.68-.41,2.64.71,4.23,1.37,2-.66,3.69-2.7,2.68a4.65,4.65,0,0,0-2.7-.19c-1.5,1.63-2,1.28-4,.89-3.72,2.09-6.29-.24-9.45-.57-2,.94-3.77-.26-6.13.28-3.34.76-8-1-5.16-3.64a8.89,8.89,0,0,1,5.17-2C118.63,268,119.73,267.2,120.93,267.75Z"/><path class="cls-9" d="M132,261.6c3.88-2.65,5.61-1.87,7.91,2a1.49,1.49,0,0,1,.71,2.07s1.45.88,1.62,1.54c.45,1.68-.41,2.64.71,4.23,1.37,2-.66,3.69-2.7,2.68a4.65,4.65,0,0,0-2.7-.19c-1.5,1.63-2,1.28-4,.89-3.72,2.09-6.29-.24-9.45-.57-2,.94-3.77-.26-6.13.28-3.34.76-8-1-5.16-3.64a8.89,8.89,0,0,1,5.17-2c.67-.91,1.77-1.72,3-1.17.17-1.81,2.72-.76,3.51-1.77.73-.69.12-2.19,1.7-2.61"/><path class="cls-9" d="M127.58,262.66c1.15-1,1.24-2.26,2.57-2"/><path class="cls-12" d="M138.2,263c.79-1.08,2.5-.31,1.73,1.31a1.59,1.59,0,0,1,.71,3.08"/><path class="cls-7" d="M108.09,276.4l16.74.56-.75-2.69c-2.32-.43-4.83-3.59-7.25-1.34-1.8-1.68-6.75-2.74-6.75.48Z"/><path class="cls-9" d="M110.08,273.41c0-3.22,5-2.16,6.75-.48,2.42-2.25,5.59,1.27,7.91,1.7"/><circle class="cls-13" cx="136.5" cy="270.01" r="1.12"/><circle class="cls-14" cx="128.71" cy="271.6" r="1.13"/><circle class="cls-15" cx="133.22" cy="266.59" r="0.8"/><rect class="cls-16" x="142.61" y="113.13" width="83.49" height="57.1" rx="28.55"/><rect class="cls-17" x="154.61" y="139.58" width="59.51" height="23.35" rx="11.67"/><rect class="cls-11" x="152.36" y="72.17" width="68.46" height="31.95" rx="15.98"/><rect class="cls-18" x="100.9" y="93.84" width="68.46" height="31.95" rx="15.98"/><path class="cls-19" d="M197.89,180.31a4,4,0,0,0-5.24-2.12l-6.89,2.91,4.37-10.5a2.17,2.17,0,1,0-4-1.67l-6.07,14.59-14.8,6.26-1.24-41,17.09-25L196.67,119a2.18,2.18,0,0,0,0-4.16,2.2,2.2,0,0,0-1.27,0L185,118l6.24-9.13a4.47,4.47,0,1,0-7.37-5l-20.35,29.76-.91-30.08,11.24-21.94A3.47,3.47,0,0,0,169.12,77a3.37,3.37,0,0,0-1.41,1.46l-4.37,8.51L160.05,78a2.35,2.35,0,0,0-4.4,1.64l4.51,12.13a2.52,2.52,0,0,0,.36.62L156,101.28H146l-.85,28.28-11-9.17-.87-17a2.18,2.18,0,0,0-4.35.22l.67,13-5.82-4.85a4,4,0,0,0-6.41,4.18,4.07,4.07,0,0,0,1.28,2l12.44,10.38-10.49.25a2.17,2.17,0,1,0,.1,4.34l15.47-.35,8.65,7.22-1.18,39-15.1-7.81a5.38,5.38,0,0,0-4.94,9.57l17.2,8.9,2.48,1.28-2.51,83.17h27l-2.28-75.51,30.26-12.79A4,4,0,0,0,197.89,180.31Z"/><line class="cls-9" x1="185.03" y1="118.01" x2="182.96" y2="121.02"/><line class="cls-9" x1="163.35" y1="86.92" x2="162.1" y2="89.36"/><line class="cls-9" x1="129.64" y1="116.59" x2="134.19" y2="120.39"/><line class="cls-9" x1="131.13" y1="128.26" x2="133.81" y2="130.49"/><line class="cls-9" x1="185.76" y1="181.1" x2="182.96" y2="182.29"/><rect class="cls-11" x="61.11" y="114.02" width="93.03" height="73.3" rx="36.65"/><rect class="cls-20" x="100.9" y="173.96" width="49.66" height="33.53" rx="16.77"/><rect class="cls-21" x="72.13" y="40.3" width="107.2" height="68.17" rx="34.08"/><rect class="cls-22" x="194.79" y="134.62" width="46.74" height="32.11" rx="16.06"/><rect class="cls-23" x="167.65" y="58.86" width="32.29" height="25.95" rx="12.98"/><rect class="cls-24" x="166.39" y="173.96" width="34.81" height="20.52" rx="10.26"/><ellipse class="cls-25" cx="150.14" cy="218.51" rx="5.86" ry="13.95"/><ellipse class="cls-26" cx="149.78" cy="218.51" rx="2.87" ry="8.86"/><ellipse class="cls-27" cx="150.27" cy="218.51" rx="2.38" ry="7.33"/><path class="cls-28" d="M146.9,230.15c-1.58-2.5-2.62-6.78-2.62-11.64,0-7.7,2.62-13.95,5.86-13.95"/><path class="cls-28" d="M155.75,214.51a31.92,31.92,0,0,1,.25,4c0,7.71-2.62,14-5.86,14"/><path class="cls-28" d="M153.17,206.57a13.58,13.58,0,0,1,1.74,3.84"/><line class="cls-28" x1="150.14" y1="232.46" x2="150.14" y2="249.53"/><line class="cls-28" x1="153.07" y1="230.59" x2="153.07" y2="238.37"/><line class="cls-28" x1="145.47" y1="226.96" x2="145.47" y2="235.86"/><line class="cls-28" x1="160.44" y1="166.73" x2="160.44" y2="187.4"/><line class="cls-28" x1="160.44" y1="162.93" x2="160.44" y2="156.6"/><path class="cls-9" d="M199.11,178a10.23,10.23,0,0,1,2.1,6.2h0A10.29,10.29,0,0,1,191,194.47h-14.3a10.29,10.29,0,0,1-10.26-10.25h0A10.29,10.29,0,0,1,176.65,174h9.09"/><path class="cls-9" d="M191,174a10.17,10.17,0,0,1,4.66,1.12"/><path class="cls-29" d="M185.86,186.47a1.78,1.78,0,0,1,3.43.44c1.41-1.4,4.38-1.28,4.55,1.62h0a1.58,1.58,0,0,1-2,1.16l-4.9-1.35a1.53,1.53,0,0,1-1.11-1.87Z"/><path class="cls-30" d="M197.74,176.91c3-1.83,5.38,2.18,2.54,3.73a2.57,2.57,0,1,1-.32,5.12"/><path class="cls-30" d="M168.4,179.32c-1.92-1.2.46-4.2,2-2.26"/><circle class="cls-31" cx="175.05" cy="187.2" r="3.4"/><path class="cls-32" d="M185.86,186.47a1.78,1.78,0,0,1,3.43.44c1.41-1.4,4.38-1.28,4.55,1.62"/><path class="cls-33" d="M95.22,74.63A1.78,1.78,0,0,1,98,72.54c0-2,2.22-4,4.38-2"/><path class="cls-34" d="M124.8,158.6a2.26,2.26,0,0,1,4.29.88c1.9-1.63,5.64-1.21,5.58,2.47h0a2,2,0,0,1-2.58,1.28L126,161.07a1.94,1.94,0,0,1-1.23-2.47Z"/><path class="cls-14" d="M124.8,158.6a2.26,2.26,0,0,1,4.29.88c1.9-1.63,5.64-1.21,5.58,2.47"/><circle class="cls-31" cx="191.19" cy="178.14" r="0.79"/><circle class="cls-35" cx="183.02" cy="180.57" r="1.64"/><path class="cls-9" d="M122.25,174h11.54a16.81,16.81,0,0,1,16.77,16.76h0a16.82,16.82,0,0,1-16.77,16.77H117.66a16.82,16.82,0,0,1-16.76-16.77h0a16.59,16.59,0,0,1,1.32-6.5"/><path class="cls-9" d="M106.4,178.33A16.66,16.66,0,0,1,117.66,174"/><path class="cls-36" d="M108.53,177.16c-3.3-2.64-6.89,1.62-4.1,4.06a3.9,3.9,0,0,0-2.44,7.33"/><path class="cls-33" d="M141.93,95.45c2.8,1.94,5.46-1.68,3.08-3.5a3.14,3.14,0,0,0,1.56-6"/><path class="cls-37" d="M136.8,187.44c.7-1.85,4-1,3.21,1.21,1.91-1.4,5.16.76,3.47,3.36"/><circle class="cls-38" cx="114.38" cy="196.83" r="3.29"/><circle class="cls-39" cx="120.7" cy="183.29" r="2.2"/><circle class="cls-40" cx="132.28" cy="199.16" r="1.64"/><path class="cls-9" d="M94.84,187.21a36.79,36.79,0,0,1-33.73-36.54h0A36.75,36.75,0,0,1,97.76,114h19.73a36.75,36.75,0,0,1,36.65,36.65h0a36.45,36.45,0,0,1-8.4,23.28"/><path class="cls-12" d="M68,170.65c-5,1.14-2.48,8.23,2.15,5.58-1.09,3.39,2.16,6.28,6.17,4.66a2,2,0,0,0,3.53-.69"/><path class="cls-41" d="M85.68,138.44c-1.94-3.13,1.78-6.67,5.09-3,2.14-5.12,8.65-3.77,8.52,1.35"/><circle class="cls-14" cx="91.47" cy="172.31" r="2.77"/><circle class="cls-15" cx="106.72" cy="152.33" r="1.07"/><circle class="cls-13" cx="86.71" cy="155.38" r="4.77"/><circle class="cls-13" cx="138.26" cy="148.53" r="1.47"/><circle class="cls-42" cx="124.08" cy="134.62" r="5.24"/><path class="cls-12" d="M145.09,129c3-2.92-.69-7-3.48-4.61a3.89,3.89,0,0,0-6.94-3.38"/><path class="cls-9" d="M195.9,144.82a16.24,16.24,0,0,1,3-4.86"/><path class="cls-9" d="M222.86,134.62h2.61a16.1,16.1,0,0,1,16.06,16h0a16.11,16.11,0,0,1-16.06,16.06H210.85a16.1,16.1,0,0,1-16.06-16.06h0"/><path class="cls-9" d="M202.72,136.84a15.9,15.9,0,0,1,8.13-2.22h7.31"/><path class="cls-9" d="M188.36,113.13h9.2a28.64,28.64,0,0,1,26.29,17.46"/><path class="cls-9" d="M183.45,170.22H171.16a28.58,28.58,0,0,1-6.52-.75"/><path class="cls-9" d="M211.14,166.77a28.38,28.38,0,0,1-13.58,3.45h-4.43"/><path class="cls-43" d="M236.44,141.1c2.54-3.38-1.81-6.85-4.18-4a3.89,3.89,0,0,0-7.39-2.24"/><path class="cls-44" d="M194.41,72.54c1.89-2.51-1.35-5.09-3.11-3a2.89,2.89,0,0,0-5.49-1.66"/><circle class="cls-45" cx="207.21" cy="156.86" r="3.46"/><rect class="cls-46" x="204.62" y="139.12" width="21.49" height="7.95" rx="3.98"/><circle class="cls-46" cx="221.34" cy="160.9" r="2.03"/><circle class="cls-47" cx="230.76" cy="150.92" r="2.95"/><path class="cls-48" d="M217.86,124.21c5-1.09,2.57-8.21-2.09-5.6,1.12-3.38-2.1-6.31-6.12-4.73a2,2,0,0,0-3.54.65"/><path class="cls-9" d="M180.63,58.86H187a13,13,0,0,1,13,13h0a13,13,0,0,1-13,13h-6.34a12.81,12.81,0,0,1-5.53-1.25"/><path class="cls-9" d="M167.65,71.84h0a13,13,0,0,1,7.94-12"/><path class="cls-9" d="M130.49,40.3h14.75A34.18,34.18,0,0,1,176,59.64"/><line class="cls-9" x1="112.42" y1="40.3" x2="124.04" y2="40.3"/><path class="cls-9" d="M175.92,89.18a34.18,34.18,0,0,1-30.68,19.29h-39A34.19,34.19,0,0,1,72.13,74.38h0A34.19,34.19,0,0,1,106.21,40.3"/><rect class="cls-22" x="151.83" y="93.84" width="35.07" height="20.18" rx="10.09"/><path class="cls-9" d="M161.92,93.84H176.8a10.12,10.12,0,0,1,10.09,10.09h0A10.12,10.12,0,0,1,176.8,114H161.92a10.12,10.12,0,0,1-10.09-10.09h0a10.05,10.05,0,0,1,3-7.13"/><path class="cls-43" d="M183.71,97.77c1.6-2.74-2-5-3.46-2.61a2.93,2.93,0,0,0-5.71-1"/><circle class="cls-49" cx="161.12" cy="105.84" r="3.77"/><circle class="cls-49" cx="170.22" cy="107.9" r="1.71"/><circle class="cls-49" cx="168.51" cy="99.5" r="2.29"/><circle class="cls-50" cx="178.46" cy="103.09" r="4.21"/><path class="cls-51" d="M88.15,46.82c-2.73-3.68,2.14-7.19,4.49-3.73a3.31,3.31,0,1,1,6.61-.22"/><circle class="cls-17" cx="187.53" cy="128.66" r="2.87"/><circle class="cls-17" cx="215.6" cy="130.15" r="1.49"/><circle class="cls-52" cx="204.92" cy="124.21" r="3.55"/><rect class="cls-53" x="120.48" y="52.16" width="34.88" height="13.4" rx="6.7"/><circle class="cls-53" cx="129.99" cy="78.9" r="4.27"/><circle class="cls-53" cx="148.33" cy="73.94" r="2.1"/><circle class="cls-54" cx="116.23" cy="69.38" r="3.82"/><circle class="cls-53" cx="107.94" cy="52.96" r="2.99"/><circle class="cls-54" cx="100.9" cy="91.69" r="10.1"/><path class="cls-55" d="M191.91,60.71c1.39-3,6.23-.12,3.68,2.45"/><circle class="cls-44" cx="177.37" cy="73.22" r="1.78"/><circle class="cls-56" cx="185.16" cy="78.66" r="1.36"/><line class="cls-57" x1="155.36" y1="114.96" x2="155.36" y2="128.03"/><line class="cls-57" x1="155.36" y1="131.93" x2="155.36" y2="136.84"/><line class="cls-57" x1="160.44" y1="122.65" x2="160.44" y2="145.26"/><path class="cls-9" d="M204.85,72.17a16,16,0,0,1,16,16h0a16,16,0,0,1-16,16H191.57"/><path class="cls-58" d="M75.09,279.25c0-3.17-4.2-3.25-4.3-.47a2.93,2.93,0,0,0-5.43,2"/><path class="cls-7" d="M187.24,274c1.42-5.46-12.61.69-14.64,1.21,3.25-1,10.41-5.87,5.25-9.87-4-3.1-13.93,2.58-21.57,5.08a3.38,3.38,0,0,0-2.7-4.19c-7.71-1-12.56,10.44-21.1,9.2v3.27"/><line class="cls-9" x1="179.63" y1="268.83" x2="241.53" y2="268.83"/><line class="cls-9" x1="247.36" y1="268.83" x2="301.87" y2="268.83"/><rect class="cls-59" x="198.91" y="275.48" width="114.4" height="31.64" rx="15.82"/><circle class="cls-10" cx="45.34" cy="289.19" r="2.16"/><circle class="cls-59" cx="24.54" cy="279.36" r="1.46"/><line class="cls-10" x1="124.57" y1="282.28" x2="161.78" y2="282.28"/><line class="cls-10" x1="169.03" y1="282.28" x2="177.03" y2="282.28"/><line class="cls-10" x1="99.08" y1="287.02" x2="142.06" y2="287.02"/><path class="cls-60" d="M206.32,146.16c3.33-2.37,7.08-5.13,14.64-3.3,5.37,1.3,6.91-1.21,6.3-3.5,9.4-7.76-16.55-6.24-21.44-5.38-5.58,1-9.66,3.22-11.32,5.72-2.49,3.74-1.52,7.37,2.32,8.72a7.86,7.86,0,0,0,7.16-.7"/><path class="cls-61" d="M198.57,140c-1.84.7-1.56,3.09.35,3,1.62-.09,2.37-.41,4.09.1s1.3-1.3,2.19-2.49c.71-1,2.21-.91,3.08-1.72"/><path class="cls-60" d="M235.64,140.66c-4.55-1.07-6.85,3.72-2.74,4.2,2.47.28,4,3.28,6.82,1.8C243.91,144.44,239.79,138,235.64,140.66Z"/><path class="cls-60" d="M76.45,48.61c-19.13,20.77,6.41,39.53,21.43,23C107.19,61.44,113.64,53.86,124,54s13.25,7.29,24.35,3.29c8.08-2.91,8-8,4.85-12-12.36-15.64-39.4-6-55.35-9.65C87.35,33.23,78.22,38.32,76.45,48.61Z"/><path class="cls-61" d="M80.35,61.66c4.15,2.36,11.2,1.15,14.45-.89,4.45-2.79,2.11-5.11,3.28-7.4,1.74-3.4,6-2.73,6.87-8.3"/><path class="cls-61" d="M77.74,52.46c1.37,1.54-1.08,4,0,6.4"/><path class="cls-61" d="M126.77,46c6.17,2.21,20.68,5.6,18.49-.31"/><path class="cls-60" d="M74.2,85.49c-3,2.34.51,7.6,1.77,11.28,2.09,6.11,10,5.51,12,1.09s-2.48-5.69-2.85-8.16C84.38,85.07,78,79.88,74.2,85.49Z"/><path class="cls-19" d="M68,141.62a2.41,2.41,0,0,1-.64-.09l-8.65-2.27A2.5,2.5,0,0,1,60,134.42l8.66,2.28a2.5,2.5,0,0,1-.64,4.92Z"/><path class="cls-11" d="M66.32,141.68A1.81,1.81,0,0,1,69,139.41c-.08-2,2-4.17,4.34-2.3l1.57,8.22-9.7,1Z"/><path class="cls-12" d="M66.32,141.68A1.81,1.81,0,0,1,69,139.41c-.08-2,2-4.17,4.34-2.3"/><path class="cls-19" d="M212.85,81.9a2,2,0,0,1-1.45-3.47L218,71.75a2,2,0,1,1,2.91,2.86l-6.56,6.68A2.07,2.07,0,0,1,212.85,81.9Z"/><circle class="cls-11" cx="210.27" cy="82.28" r="5.86"/><path class="cls-9" d="M210.27,76.42a5.86,5.86,0,0,1,5.86,5.86"/><path class="cls-62" d="M187.24,274c1.42-5.46-12.61.69-14.64,1.21,3.25-1,10.41-5.87,5.25-9.87-4-3.1-13.93,2.58-21.57,5.08a3.38,3.38,0,0,0-2.7-4.19c-7.71-1-12.56,10.44-21.1,9.2"/><path class="cls-63" d="M122.5,72.19a1.38,1.38,0,0,0,.22-1,4.27,4.27,0,0,0-.13-.48c.17,0,.33.08.48.1a1.4,1.4,0,0,0,1.56-1.22,1.44,1.44,0,0,0-.16-.84,1.4,1.4,0,0,0-1-.71,3.91,3.91,0,0,0-.49,0,2.91,2.91,0,0,0,.23-.42,1.39,1.39,0,0,0-1.73-1.91,1.43,1.43,0,0,0-.79.72,4.9,4.9,0,0,0-.18.46q-.17-.19-.33-.36a1.4,1.4,0,0,0-2,.07,1.39,1.39,0,0,0-.2,1.63,1.44,1.44,0,0,0,.27.34,3,3,0,0,0,.38.31,3.18,3.18,0,0,0-.45.2,1.4,1.4,0,0,0-.54,1.9,1.38,1.38,0,0,0,1.89.54,3.93,3.93,0,0,0,.41-.26,3.31,3.31,0,0,0,.06.48,1.34,1.34,0,0,0,.15.41,1.38,1.38,0,0,0,1.48.7A1.35,1.35,0,0,0,122.5,72.19Z"/><line class="cls-64" x1="120.9" y1="69.09" x2="121.79" y2="69.2"/><line class="cls-64" x1="120.9" y1="69.09" x2="121.07" y2="69.97"/><line class="cls-64" x1="120.9" y1="69.09" x2="120.12" y2="69.53"/><line class="cls-64" x1="121.28" y1="68.28" x2="120.9" y2="69.09"/><line class="cls-64" x1="120.9" y1="69.09" x2="120.25" y2="68.48"/><path class="cls-63" d="M152,66a1,1,0,0,0-.12-.81,3.46,3.46,0,0,0-.22-.31l.37-.06a1.09,1.09,0,0,0,.8-1.3,1.13,1.13,0,0,0-.35-.57,1.09,1.09,0,0,0-1-.23l-.36.11c0-.12,0-.25,0-.37a1.1,1.1,0,0,0-.37-.91,1.17,1.17,0,0,0-.62-.25,1.08,1.08,0,0,0-1.16,1c0,.12,0,.25,0,.38a1.8,1.8,0,0,0-.34-.17,1.07,1.07,0,0,0-1.11,1.81,1,1,0,0,0,.29.18,3.59,3.59,0,0,0,.35.12,2.17,2.17,0,0,0-.26.27,1.08,1.08,0,1,0,1.64,1.4c.07-.09.15-.19.22-.3q.09.18.18.33a1.07,1.07,0,0,0,1.48.36A1.06,1.06,0,0,0,152,66Z"/><path class="cls-63" d="M147.82,102.26a1.77,1.77,0,0,0-.84-1.14,3.94,3.94,0,0,0-.58-.3,4.26,4.26,0,0,0,.53-.39,1.85,1.85,0,0,0,.18-2.61,1.79,1.79,0,0,0-1-.59,1.84,1.84,0,0,0-1.64.4,5,5,0,0,0-.46.46,5,5,0,0,0-.21-.62,1.85,1.85,0,0,0-1.29-1.08,1.79,1.79,0,0,0-1.14.1,1.86,1.86,0,0,0-1,1,1.84,1.84,0,0,0,0,1.42,5.23,5.23,0,0,0,.29.58,4.68,4.68,0,0,0-.65,0,1.85,1.85,0,0,0-.26,3.65,1.56,1.56,0,0,0,.57,0,5.13,5.13,0,0,0,.65-.1,4.75,4.75,0,0,0-.19.62,1.85,1.85,0,1,0,3.6.85,5.15,5.15,0,0,0,.11-.65,4.07,4.07,0,0,0,.53.38,2,2,0,0,0,.53.22,1.86,1.86,0,0,0,2-.85A1.81,1.81,0,0,0,147.82,102.26Z"/><line class="cls-64" x1="143.34" y1="101.08" x2="144.24" y2="100.3"/><line class="cls-64" x1="143.34" y1="101.08" x2="144.36" y2="101.7"/><line class="cls-64" x1="143.34" y1="101.08" x2="143.07" y2="102.24"/><line class="cls-64" x1="142.88" y1="99.98" x2="143.34" y2="101.08"/><line class="cls-64" x1="143.34" y1="101.08" x2="142.16" y2="101.18"/><path class="cls-63" d="M102.05,92.36a1.82,1.82,0,0,0-.38-1.37,3.87,3.87,0,0,0-.43-.49,5.79,5.79,0,0,0,.63-.17A1.85,1.85,0,0,0,103,88a1.8,1.8,0,0,0-.7-.91,1.87,1.87,0,0,0-1.67-.21,5.92,5.92,0,0,0-.59.26,4.75,4.75,0,0,0,0-.65,1.85,1.85,0,0,0-1.91-1.79,1.82,1.82,0,0,0-1.29.58,1.86,1.86,0,0,0-.5,1.33,5.35,5.35,0,0,0,.07.65c-.21-.09-.42-.17-.61-.23a1.85,1.85,0,0,0-2.3,1.26,1.84,1.84,0,0,0,.74,2,1.92,1.92,0,0,0,.52.25,6,6,0,0,0,.64.13,4.42,4.42,0,0,0-.41.52,1.85,1.85,0,0,0,3.07,2.08,4.86,4.86,0,0,0,.32-.56,6.31,6.31,0,0,0,.37.54,1.73,1.73,0,0,0,.42.39,1.85,1.85,0,0,0,2.88-1.29Z"/><line class="cls-64" x1="98.29" y1="89.64" x2="99.41" y2="89.24"/><line class="cls-64" x1="98.29" y1="89.64" x2="99.02" y2="90.58"/><line class="cls-64" x1="98.29" y1="89.64" x2="97.62" y2="90.63"/><line class="cls-64" x1="98.25" y1="88.45" x2="98.29" y2="89.64"/><line class="cls-64" x1="98.29" y1="89.64" x2="97.15" y2="89.31"/><path class="cls-51" d="M168.79,55.16a1.81,1.81,0,0,0,.68-1.24c0-.21,0-.43,0-.65.19.11.38.22.57.31a1.85,1.85,0,1,0,1.52-3.38A5.33,5.33,0,0,0,171,50a4.89,4.89,0,0,0,.46-.45,1.83,1.83,0,0,0-.12-2.61,1.79,1.79,0,0,0-1.33-.48,1.87,1.87,0,0,0-1.29.6c-.13.15-.27.33-.4.51A6.27,6.27,0,0,0,168,47a1.84,1.84,0,0,0-1.12-.87,1.87,1.87,0,0,0-1.41.17,1.84,1.84,0,0,0-.89,2,1.76,1.76,0,0,0,.2.54,5.63,5.63,0,0,0,.36.54,5.48,5.48,0,0,0-.64.09,1.85,1.85,0,0,0,.75,3.63,5.2,5.2,0,0,0,.63-.18,4.42,4.42,0,0,0-.12.64,1.87,1.87,0,0,0,0,.58,1.86,1.86,0,0,0,3,1.07Z"/><path class="cls-51" d="M164.85,89.13a1.23,1.23,0,0,0-.08-.94l-.23-.37.43,0a1.24,1.24,0,0,0,1-1.42,1.35,1.35,0,0,0-.35-.68,1.27,1.27,0,0,0-1.07-.34l-.42.1a3.15,3.15,0,0,0,.09-.42,1.22,1.22,0,0,0-.35-1.06,1.24,1.24,0,0,0-.69-.35,1.28,1.28,0,0,0-.91.23,1.24,1.24,0,0,0-.49.81c0,.14,0,.28,0,.43a3.6,3.6,0,0,0-.37-.22,1.23,1.23,0,0,0-.94-.06,1.21,1.21,0,0,0-.72.61,1.25,1.25,0,0,0,.24,1.44,1.34,1.34,0,0,0,.31.22l.4.17a2.26,2.26,0,0,0-.32.29,1.23,1.23,0,0,0,1.76,1.73,3.22,3.22,0,0,0,.28-.33,3,3,0,0,0,.17.4,1.39,1.39,0,0,0,.23.31,1.24,1.24,0,0,0,1.44.22A1.26,1.26,0,0,0,164.85,89.13Z"/><path class="cls-60" d="M65,67.84a3.19,3.19,0,0,0-3.19-3.19H54.27A14.14,14.14,0,0,0,40.59,54.08a14.35,14.35,0,0,0-2.88.29,13.4,13.4,0,0,0-26-3.32A10.68,10.68,0,0,0-5,59.89,10.82,10.82,0,0,0-4.81,62,7.26,7.26,0,0,0-11,69.12a6.67,6.67,0,0,0,.11,1.19,32.53,32.53,0,0,0-6.53,7.46H63.16a6.84,6.84,0,0,0,.07-.91A6.71,6.71,0,0,0,59.85,71h1.93A3.19,3.19,0,0,0,65,67.84Z"/><path class="cls-65" d="M50.39,72.08a5.52,5.52,0,0,0-4.92-3,5.64,5.64,0,0,0-2.21.46,8.47,8.47,0,0,0-16.88,1,8.4,8.4,0,0,0,.14,1.51"/><path class="cls-65" d="M9,66.75a3,3,0,0,0-5.43,2"/><circle class="cls-60" cx="12.04" cy="35.03" r="3.04"/><rect class="cls-60" x="42.03" y="44.6" width="8.96" height="4.85" rx="2.42"/><circle class="cls-60" cx="282.09" cy="148.3" r="3.43"/><path class="cls-60" d="M347.6,183.36H335.75a11.81,11.81,0,0,0-9.37-4.6,12.81,12.81,0,0,0-1.65.12,8.08,8.08,0,0,0-8.06-7.51,8.27,8.27,0,0,0-1.88.23,16.73,16.73,0,0,0-32.46,7.61,13.16,13.16,0,0,0-8.17,6.43,13.31,13.31,0,0,0-18.64,11.63h91a9.81,9.81,0,0,0-8.32-4.61h-.18a12.38,12.38,0,0,0,.18-2,11.58,11.58,0,0,0-.27-2.52h9.62a2.38,2.38,0,0,0,2.37-2.38h0A2.38,2.38,0,0,0,347.6,183.36Z"/><path class="cls-66" d="M276.93,187.26a13.47,13.47,0,0,1,3.46,3.94"/><path class="cls-65" d="M297.2,173.87a4.25,4.25,0,0,1,8.12,2.45"/><path class="cls-60" d="M241.53,207.42h74.66a17.75,17.75,0,0,0-23.7-12.88,15.14,15.14,0,0,0-13.37-8,14.92,14.92,0,0,0-3,.3,12.82,12.82,0,0,0,.1-1.53,12.53,12.53,0,0,0-22.49-7.61,7,7,0,0,0-3.84-1.13,7.11,7.11,0,0,0-7.06,6.23,17,17,0,0,0-15.73,16.94c0,.54,0,1.08.08,1.61a12.83,12.83,0,0,0-7.1,6.08h15.72"/><circle class="cls-60" cx="233.22" cy="173.61" r="2.57"/><circle class="cls-60" cx="221.81" cy="193.03" r="1.73"/><path class="cls-65" d="M287.3,198.78A7.48,7.48,0,0,0,272.88,196a6.06,6.06,0,0,0-1.21-.12,5.9,5.9,0,0,0-5.9,5.89,6,6,0,0,0,.27,1.77"/><path class="cls-65" d="M246.39,189.94a5,5,0,0,1,9,2.52"/><rect class="cls-51" x="-9.05" y="135.29" width="22.7" height="9.13" rx="4.56" transform="translate(70.23 17.59) rotate(30)"/><rect class="cls-43" x="251.81" y="147.2" width="12.08" height="6.82" rx="3.41" transform="translate(109.85 -108.75) rotate(30)"/><path class="cls-43" d="M239.55,153.31l2.21,1.28a6.25,6.25,0,0,1,2.28,8.52h0a6.26,6.26,0,0,1-8.52,2.28l-2.2-1.28"/><path class="cls-12" d="M214.56,92.16l9.81,5.66a4.58,4.58,0,0,1,1.67,6.23h0a4.59,4.59,0,0,1-6.24,1.67l-9.8-5.66"/><path class="cls-12" d="M203.22,101.81a2.48,2.48,0,0,1,.9,3.38h0a2.47,2.47,0,0,1-3.37.9l-4.27-2.46"/><path class="cls-51" d="M171.51,59.5l4.63,2.67a4.57,4.57,0,0,1,1.67,6.24h0a4.58,4.58,0,0,1-6.23,1.67L167,67.41"/><rect class="cls-12" x="159.62" y="130.74" width="11.79" height="7.28" rx="3.64" transform="translate(89.37 -64.76) rotate(30)"/><path class="cls-12" d="M151,156.6l9.12,5.27a6.1,6.1,0,0,1,2.22,8.31h0a6.1,6.1,0,0,1-8.31,2.23l-9.12-5.27"/><rect class="cls-60" x="27.58" y="125.59" width="16.12" height="7.58" rx="3.79" transform="translate(69.46 -0.49) rotate(30)"/><rect class="cls-51" x="185.28" y="37.22" width="6.17" height="6.17" rx="3.08" transform="translate(45.39 -88.78) rotate(30)"/><circle class="cls-36" cx="159.35" cy="203.22" r="3.35"/><line class="cls-14" x1="211.82" y1="90.57" x2="207.94" y2="88.33"/><line class="cls-14" x1="194.57" y1="96.82" x2="193.02" y2="95.93"/><line class="cls-14" x1="201.07" y1="100.57" x2="196.08" y2="97.69"/><circle class="cls-12" cx="230.78" cy="85.76" r="2.16"/><path class="cls-65" d="M74,256.33h0a8.28,8.28,0,0,0-8.28-8.28,8,8,0,0,0-2.08.28,12.08,12.08,0,1,0-22.46,8"/><path class="cls-65" d="M-19,238.31a31.09,31.09,0,0,1-31.09-31.08A31.09,31.09,0,0,1-19,176.14,31.09,31.09,0,0,1,12,207.23"/><path class="cls-65" d="M28.84,219.81A11.65,11.65,0,0,0,29.2,217a11.37,11.37,0,0,0-20.8-6.36"/><path class="cls-9" d="M208.46,242.84a22.33,22.33,0,0,0-8,17.18c0,.23,0,.46,0,.69-.24,0-.48,0-.73,0a14.07,14.07,0,0,0-10.87,5.12"/><path class="cls-9" d="M216.69,218.11a23.21,23.21,0,0,0-1.14,20.72"/><path class="cls-9" d="M44.67,194.32a30.09,30.09,0,0,0-27.53-42.23c-.59,0-1.18,0-1.76.06l-.55,0c-.41,0-.81.07-1.21.12l-.6.07-1.18.19-.54.1c-.53.1-1.05.21-1.56.34l-.1,0c-.55.14-1.09.3-1.63.47l-.49.16-1.11.4-.55.22c-.35.14-.71.29-1.06.45l-.49.22c-.45.22-.89.44-1.32.67l-.16.08c-.49.27-1,.54-1.44.83l-.41.27-1,.65-.47.33c-.31.23-.61.45-.91.69l-.42.33c-.37.3-.73.6-1.08.92l-.18.15c-.4.37-.8.75-1.18,1.14l-.33.34-.8.87c-.13.15-.26.29-.38.44s-.48.57-.71.87l-.35.43c-.27.36-.54.73-.79,1.1l-.15.2h0a29.92,29.92,0,0,0-5.2,16.9l4.2-.42"/><path class="cls-9" d="M115.32,265.49a18.52,18.52,0,0,0-17-11.31c-.21,0-.4,0-.61,0A20.82,20.82,0,0,0,71.34,229.4a11.42,11.42,0,0,0-10.68-9.18,30.63,30.63,0,0,0-9.43-21.1"/><path class="cls-65" d="M236.12,264.16a13.82,13.82,0,0,1,13.39-10.4,14,14,0,0,1,3.06.35,23.14,23.14,0,0,1,44,10.05"/><path class="cls-60" d="M38,182.85H59.53a5,5,0,0,1,4.94,5h0a5,5,0,0,1-4.94,4.95H44.75"/><line class="cls-65" x1="39.92" y1="192.75" x2="30.52" y2="192.75"/><line class="cls-65" x1="33.13" y1="182.85" x2="27.55" y2="182.85"/><line class="cls-65" x1="27.55" y1="192.75" x2="24.38" y2="192.75"/><path class="cls-60" d="M218.16,235.86H212.3a6.2,6.2,0,0,1-6.19-6.19h0a6.2,6.2,0,0,1,6.19-6.18h10.81"/><line class="cls-65" x1="221.43" y1="235.86" x2="231.34" y2="235.86"/><circle class="cls-65" cx="224.03" cy="246.93" r="2.6"/><circle class="cls-65" cx="294.43" cy="229.67" r="9.41"/><circle class="cls-55" cx="211.54" cy="57.51" r="5.34"/><path class="cls-67" d="M121.79,57.65H17.51A11.36,11.36,0,0,0,6.18,69h0a7.72,7.72,0,0,1-7.71,7.72H-35.77V89.34a6.54,6.54,0,0,0-6.49,7.2,6.73,6.73,0,0,0,6.8,5.86H42.82a6.55,6.55,0,0,0,6.5-7.2,6.75,6.75,0,0,0-6.8-5.86H30a4.54,4.54,0,0,1-4.42-5.48,4.62,4.62,0,0,1,4.57-3.56h91.94"/><line class="cls-9" x1="116.1" y1="57.65" x2="121.79" y2="57.65"/><line class="cls-9" x1="92.11" y1="57.65" x2="111.04" y2="57.65"/><path class="cls-9" d="M23,102.4H-35.46a6.73,6.73,0,0,1-6.8-5.86,6.54,6.54,0,0,1,6.49-7.2V76.69H-1.53A7.72,7.72,0,0,0,6.18,69h0A11.36,11.36,0,0,1,17.51,57.65h70"/><line class="cls-9" x1="36.53" y1="102.4" x2="27.68" y2="102.4"/><path class="cls-9" d="M92.11,80.3H30.19a4.62,4.62,0,0,0-4.57,3.56A4.54,4.54,0,0,0,30,89.34H42.52a6.75,6.75,0,0,1,6.8,5.86,6.55,6.55,0,0,1-6.5,7.2"/><line class="cls-9" x1="104.95" y1="80.3" x2="97.74" y2="80.3"/><path class="cls-67" d="M243.4,126.74h7.25a5.41,5.41,0,0,0,5.4-5.39h0a5.42,5.42,0,0,0-5.4-5.4h-8.78a11.3,11.3,0,1,1,0-22.6h73a11.3,11.3,0,1,1,0,22.6h-9.72v13.72h-36a4,4,0,0,0-4,4h0a4,4,0,0,0,4,4h36v2.93H292.08A12.65,12.65,0,0,1,279.54,152H196.27V126.74Z"/><line class="cls-9" x1="201.17" y1="151.96" x2="196.27" y2="151.96"/><line class="cls-9" x1="218.19" y1="151.96" x2="205.17" y2="151.96"/><path class="cls-9" d="M272.42,137.62h32.75v2.93H292.08A12.65,12.65,0,0,1,279.54,152H222.19"/><path class="cls-9" d="M248.33,93.35h66.56a11.3,11.3,0,1,1,0,22.6h-9.72v13.72h-36a4,4,0,0,0-4,4h0a4,4,0,0,0,4,4"/><path class="cls-9" d="M204.24,126.74h46.41a5.41,5.41,0,0,0,5.4-5.39h0a5.42,5.42,0,0,0-5.4-5.4h-8.78a11.3,11.3,0,1,1,0-22.6"/><line class="cls-9" x1="196.27" y1="126.74" x2="200.24" y2="126.74"/><path class="cls-68" d="M176.66,27a9,9,0,0,0,.4-2.65,9.14,9.14,0,0,0-9.14-9.13,9.64,9.64,0,0,0-2,.22,6.75,6.75,0,0,0-12.47,3.31,2.73,2.73,0,0,0-4.91,1.63,2.54,2.54,0,0,0,.12.78h-.12a7.57,7.57,0,0,0-7.1,10.19h39.88A4.66,4.66,0,0,0,176.66,27Z"/><path class="cls-69" d="M256.05,73.69a2.08,2.08,0,0,1,2-2.08,4.34,4.34,0,0,1,4-5.92,4.5,4.5,0,0,1,1.22.18,4.34,4.34,0,0,1,8.44,1.4v0h0a6.15,6.15,0,0,1,6.15,6.15,6.37,6.37,0,0,1-.08,1H256.19A2.14,2.14,0,0,1,256.05,73.69Z"/><path class="cls-70" d="M176.82,216.6a2.89,2.89,0,0,1,2.76-2.89,6.13,6.13,0,0,1-.41-2.19,6,6,0,0,1,6-6,6,6,0,0,1,1.69.24,6,6,0,0,1,11.72,1.94s0,0,0,.08h0a8.53,8.53,0,0,1,8.53,8.53,8.71,8.71,0,0,1-.11,1.36H177A2.84,2.84,0,0,1,176.82,216.6Z"/><circle class="cls-71" cx="93.96" cy="221" r="2.49"/><circle class="cls-71" cx="85.36" cy="196.14" r="1.35"/><circle class="cls-72" cx="273.61" cy="33.28" r="3.84"/><circle class="cls-72" cx="232.46" cy="9.99" r="2.31"/><circle class="cls-72" cx="50.82" cy="18.95" r="2.9"/><circle class="cls-72" cx="98.15" cy="25.16" r="1.67"/><circle class="cls-73" cx="271.86" cy="-18.38" r="45.22"/><circle class="cls-74" cx="271.86" cy="-18.38" r="40.22"/><circle class="cls-75" cx="258.4" cy="0.3" r="13.46"/><circle class="cls-75" cx="281.45" cy="9.21" r="2.56"/><circle class="cls-75" cx="295.13" cy="-2.33" r="6.93"/></g><rect class="cls-76" width="300" height="300"/></g></g></svg>