<svg id="Layer_1" data-name="Layer 1" xmlns="http://www.w3.org/2000/svg" xmlns:xlink="http://www.w3.org/1999/xlink" viewBox="0 0 300 300"><defs><style>.cls-1,.cls-13,.cls-19,.cls-21,.cls-22,.cls-23,.cls-24,.cls-25,.cls-31,.cls-33,.cls-37,.cls-41,.cls-43{fill:none;}.cls-2{clip-path:url(#clip-path);}.cls-3{fill:#6de0e3;}.cls-4,.cls-7{fill:#b8fae5;}.cls-5,.cls-6{fill:#96f0e7;}.cls-27,.cls-41,.cls-5{stroke:#68d2dc;}.cls-13,.cls-14,.cls-15,.cls-16,.cls-19,.cls-20,.cls-21,.cls-22,.cls-23,.cls-24,.cls-26,.cls-27,.cls-28,.cls-30,.cls-31,.cls-33,.cls-34,.cls-36,.cls-37,.cls-38,.cls-39,.cls-40,.cls-41,.cls-43,.cls-5,.cls-7{stroke-linecap:round;stroke-linejoin:round;}.cls-7{stroke:#6de0e3;}.cls-39,.cls-40,.cls-8{fill:#fff2b9;}.cls-9{fill:#68d2dc;}.cls-10,.cls-26{fill:#a5e6e3;}.cls-11,.cls-15,.cls-16{fill:#d8f7f6;}.cls-12,.cls-14,.cls-27,.cls-28,.cls-36,.cls-44{fill:#fff;}.cls-13,.cls-14,.cls-15,.cls-20,.cls-26,.cls-30,.cls-34,.cls-40{stroke:#667bb6;}.cls-16{stroke:#a1d3de;}.cls-17{fill:#61ead4;}.cls-18{fill:#b8fbce;}.cls-19{stroke:#52b4d0;}.cls-20{fill:#e5c8af;}.cls-21{stroke:#ba9187;}.cls-22{stroke:#fff;}.cls-23{stroke:#d1e4ef;}.cls-24,.cls-28{stroke:#ecb680;}.cls-25{stroke:#90c1d2;stroke-miterlimit:10;}.cls-29{fill:#afdcc6;}.cls-30{fill:#c6c0bb;}.cls-31{stroke:#978d8c;}.cls-32{fill:#d3f2e0;}.cls-33{stroke:#9eccc2;}.cls-34,.cls-35{fill:#a8a2a0;}.cls-36,.cls-37,.cls-38,.cls-39{stroke:#807878;}.cls-38{fill:#eeece6;}.cls-42{fill:#b4dbce;}.cls-43{stroke:#8bbcb7;}.cls-44{opacity:0.5;}</style><clipPath id="clip-path"><rect class="cls-1" width="300" height="300"/></clipPath></defs><g class="cls-2"><rect class="cls-3" x="-10.78" y="-5.48" width="341.3" height="323.91"/><path class="cls-4" d="M164.77.14l-35,24a1.26,1.26,0,0,1-1.42-2.07l0,0,36-22.43a.3.3,0,0,1,.42.1A.3.3,0,0,1,164.77.14Z"/><path class="cls-5" d="M-61.84,246c6.36-18.51,24.94-33.31,32.34-49.66C-21.4,178.46-18,157.09-9,141.65.94,124.6,38.16,126,47.84,111.09,75.24,69,87.18,81.65,102.17,70.17c16.13-12.36,6-39.59,19.24-50.48C137.93,6.08,146.56,7.59,160.13-.78c29.85-18.4,32.09-6.7,58.74-15.65,0,0-167.3-51.88-170.93-49.65s-177-5-177-5l23.52,182.51Z"/><path class="cls-4" d="M219.72,82.86,175,121a1.73,1.73,0,1,1-2.25-2.63.15.15,0,0,1,.06,0l46.34-36.06a.42.42,0,0,1,.59.07A.42.42,0,0,1,219.72,82.86Z"/><path class="cls-6" d="M233.19,52.51,188.59,90.7a1.74,1.74,0,1,1-2.26-2.64l.06,0,46.27-36.15a.42.42,0,0,1,.53.65Z"/><path class="cls-5" d="M208.66-30.71c-.74,18.76-14.9,17.64-11.1,39.87,1.85,10.76,18.68,20.91,23.15,34.09,3.76,11.1-10.29,33.23-3.93,44.86,5.73,10.49,44.28.28,52.65,10.37,7.63,9.2-8.93,44.64,1.3,52.88,9.26,7.46,43.8-22.5,55.48-16.3,10.45,5.54,11,31.31,23.57,35.51l13.84-188Z"/><path class="cls-7" d="M215.08-5.21c5.45,11.51-3.41,15.28,5.86,27.45,4.49,5.89,17.79,6.7,24.62,13.22,5.75,5.49,4.25,23.21,11.73,28.2,6.74,4.5,26.71-13.74,34.9-10.31,7.48,3.14,8.66,29.64,17.4,31.38,7.91,1.58,19.26-27.28,28.22-27.23,8,0,16.44,15.38,25.33,13.94L312.4-45.9Z"/><circle class="cls-8" cx="150" cy="56.09" r="20.27"/><path class="cls-9" d="M251.69,173c-11.11,0-10.78,16-20.68,16-16.79,0-13.79-45.91-41.38-45.91-11.43,0-18.22,10.9-22.26,24.22a9.45,9.45,0,0,0-5.22-1.64c-11.11,0-10.77,16-20.68,16-16.79,0-13.79-45.91-41.38-45.91C70.67,135.66,72,207.84,72,207.84H161.6c-.15,4.54-.1,7.38-.1,7.38H272.94S267.6,173,251.69,173Z"/><path class="cls-10" d="M196.1,182.5a11.37,11.37,0,0,0-5.6,1.47,13.26,13.26,0,0,0-21.23,1,10.11,10.11,0,0,0-9.15-5.83,10.23,10.23,0,0,0-2,.2c.06-.63.1-1.28.1-1.93a20.31,20.31,0,0,0-20.31-20.31,19.05,19.05,0,0,0-2,.1h-.1c-.63.06-1.25.16-1.86.28l-.18,0-.09,0h0a20.27,20.27,0,0,0-3.93,1.27h0c-.14.07-.27.15-.41.21-.46.22-.91.44-1.35.68l-.48.3c-.44.26-.86.53-1.27.82l-.43.31c-.41.31-.82.63-1.21,1l-.35.32c-.4.37-.78.74-1.15,1.14l-.28.3c-.37.42-.73.86-1.08,1.31l-.2.27q-.53.74-1,1.5a2.39,2.39,0,0,0-.13.21,18.31,18.31,0,0,0-.89,1.7s0,.09-.07.13c-.28.63-.54,1.28-.76,1.94h0a10,10,0,0,0-1.24-.09,9.69,9.69,0,0,0-9.32,7,11.26,11.26,0,0,0-3.15-.45,11.47,11.47,0,1,0,4.59,22c.26,2.91.5,5.2.7,6.07s3.21.72,7.24-.13l-2.42,7.12H190.8v-8.3a11.46,11.46,0,1,0,5.3-21.62Z"/><path class="cls-11" d="M269.91,145.41l7.22-2.42a12.31,12.31,0,0,0-8.54-6.64h0l-.19,0c-.28,0-.56-.1-.84-.13l-.32,0a10.37,10.37,0,0,0-1.12-.06,12.23,12.23,0,0,0-11,6.89,23.22,23.22,0,0,0-7.72-1.31,23.46,23.46,0,0,0-21.31,13.67,18.62,18.62,0,0,0-23.82,24.77,18,18,0,0,0-12.17,17c0,.19,0,.37,0,.56-.2,0-.39,0-.59,0a11.35,11.35,0,0,0-11.35,11.35c0,.11,0,.22,0,.34a7,7,0,0,0-7.39,2H132.65a10.33,10.33,0,0,0-8.09-3.9,9.51,9.51,0,0,0-1.78.17c0-.11,0-.21,0-.31a14.89,14.89,0,0,0-14.89-14.89l-.49,0a16.48,16.48,0,0,0,.49-3.94A16.77,16.77,0,0,0,91.14,171.8a16.58,16.58,0,0,0-4.91.74,9.2,9.2,0,0,0-8.59-7.4,24.67,24.67,0,0,0-12.87-20.83,24.21,24.21,0,0,0-22.15-34c-.47,0-.95,0-1.42,0l-.44,0-1,.09-.49.06-.94.15-.44.08-1.25.28-.09,0c-.44.12-.87.24-1.3.38l-.4.13-.89.32-.44.18c-.29.11-.57.24-.85.36l-.4.18c-.36.17-.72.35-1.07.54l-.13.06-1.15.67-.33.22-.79.52-.38.27-.73.55-.34.27c-.29.24-.58.48-.86.73l-.15.13c-.33.29-.64.6-.95.91l-.27.28c-.22.23-.43.46-.64.7l-.31.35-.57.7-.28.35c-.22.29-.43.59-.64.89a.91.91,0,0,0-.11.16h0a24.17,24.17,0,0,0-4.18,13.6l3.38-.34-4.66,77.21h49.6v3.94H242.48V212h37.09Z"/><path class="cls-12" d="M103,203.19c-.21-.37-.43-.73-.66-1.09-.07-.12-.15-.23-.22-.34l-.49-.71-.29-.39c-.16-.21-.33-.42-.5-.62l-.32-.39-.54-.6-.32-.34-.86-.83-.4-.35-.54-.46-.51-.4-.48-.35c-.18-.13-.37-.27-.57-.39l-.44-.29-.63-.39-.41-.23a20.41,20.41,0,0,0-2.55-1.2l-.28-.11-.82-.28-.36-.12c-.28-.08-.56-.17-.84-.24l-.33-.08-.91-.21a21.14,21.14,0,0,0-4.08-.4,20.76,20.76,0,0,0-3.72.35,11.71,11.71,0,0,0,.09-1.32,10,10,0,0,0-14.27-9.1A23.46,23.46,0,0,0,45.6,168.92L42,169.2a23.2,23.2,0,0,0-5.63,1.61,13.39,13.39,0,0,0-1.1-2.71,13.71,13.71,0,0,0,8.1-16.92h0a13.88,13.88,0,0,0-2.44-4.51l0,0a13.84,13.84,0,0,0-1.1-1.2l0,0c-.39-.36-.8-.7-1.22-1l-.2-.15a13.38,13.38,0,0,0-1.25-.81l-.08,0a13.68,13.68,0,0,0-1.39-.67l-.32-.13a15.14,15.14,0,0,0-1.48-.5,21.15,21.15,0,0,0-16.14-18.32l-.25,0a25.31,25.31,0,0,0-4.6-.51h0c-.72,0-1.43,0-2.13.1v-.1a7.67,7.67,0,0,0-14.29-3.88l-22.26,26.74-3.07,84.08,100.61-.35a20.94,20.94,0,0,0,32.24-8.1H188.8a7.25,7.25,0,0,0,7.87,0h.62a16,16,0,0,0,27.84,0H300v-4.59a23.55,23.55,0,0,0,13.17-32.22A19.16,19.16,0,0,0,303.1,151.4c0-.06,0-.12,0-.18,0-.4,0-.79-.06-1.18.34,0,.68.05,1,.05a10.81,10.81,0,1,0-10-14.8,18.48,18.48,0,0,0-21.88,2.13l-2.66,3a18.34,18.34,0,0,0-2.29,4.28,25.57,25.57,0,0,0-3.18.27c-.3,0-.87.15-1.16.2l-.29.05-1.07.25-.42.11-1,.29-.46.15c-.32.1-.64.22-.95.33l-.46.19-.92.38-.44.21c-.3.14-.6.28-.9.44h0c-.66.35-1.72,1-2.35,1.39l-.11.07c-.23.15-.45.32-.67.48l-.55.4c-.21.15-.4.32-.6.48l-.58.47-.54.49c-.2.17-.39.35-.58.54l-.49.49c-.2.19-.39.4-.57.6l-.45.49c-.19.22-.38.45-.56.68l-.39.48c-.2.26-.39.53-.59.8s-.2.27-.29.41c-.29.41-.56.84-.82,1.27H234.18a4.75,4.75,0,0,0-4.8,4.13,4.62,4.62,0,0,0,4.58,5.08h8.52a26.45,26.45,0,0,0-.3,3.91,25.3,25.3,0,0,0,1.28,8,10.32,10.32,0,0,0-2.44-.3,9.63,9.63,0,0,0-2.48.32,7.61,7.61,0,0,0-14.35,3.51c0,.13,0,.25,0,.37a8.32,8.32,0,0,0,.18,1.34,17.51,17.51,0,0,0-2.81,1.12c-.41.2-.8.41-1.19.64l0,0c-.38.22-.74.45-1.1.7l-.06,0c-.35.24-.68.49-1,.75a.27.27,0,0,0-.08.07c-.32.25-.63.52-.93.8l-.1.08c-.3.28-.58.57-.86.87l-.08.08c-.3.33-.59.66-.87,1h0a18.93,18.93,0,0,0-1.54,2.24,18.27,18.27,0,0,0-2.18,5.87l-4.76.6a16.08,16.08,0,0,0-10.86,10.58,7.21,7.21,0,0,0-3.18-.73,7.34,7.34,0,0,0-7.34,7.2H105.56c.06-.66.1-1.32.1-2a20.81,20.81,0,0,0-.83-5.84"/><path class="cls-13" d="M42,169.2a23.2,23.2,0,0,0-5.63,1.61,13.39,13.39,0,0,0-1.1-2.71,13.72,13.72,0,0,0-1.46-26,21.15,21.15,0,0,0-16.14-18.32"/><path class="cls-13" d="M103,203.19a21,21,0,0,0-18.35-10.81,20.76,20.76,0,0,0-3.72.35,11.71,11.71,0,0,0,.09-1.32,10,10,0,0,0-14.27-9.1A23.46,23.46,0,0,0,45.6,168.92"/><path class="cls-13" d="M105.66,213.35a20.81,20.81,0,0,0-.83-5.84"/><path class="cls-13" d="M12.83,123.19c-.72,0-1.43,0-2.13.1v-.1a7.67,7.67,0,0,0-14.29-3.88l-22.26,26.74-3.07,84.08,100.61-.35a20.8,20.8,0,0,0,13,4.54"/><path class="cls-13" d="M304.08,150.09a10.81,10.81,0,1,0-10-14.8,18.48,18.48,0,0,0-21.88,2.13"/><path class="cls-13" d="M269.5,140.39a18.34,18.34,0,0,0-2.29,4.28,25.53,25.53,0,0,0-21.4,12.41H234a4.61,4.61,0,0,0,0,9.21h8.52a26.45,26.45,0,0,0-.3,3.91,25.3,25.3,0,0,0,1.28,8,10.32,10.32,0,0,0-2.44-.3,9.63,9.63,0,0,0-2.48.32,7.61,7.61,0,0,0-14.35,3.51,8,8,0,0,0,.2,1.71,18.52,18.52,0,0,0-12.84,14.29"/><line class="cls-14" x1="189.12" y1="215.35" x2="98.47" y2="215.35"/><path class="cls-14" d="M142.61,37.21a19.77,19.77,0,0,1,4.14-1.13"/><path class="cls-13" d="M150,35.82a20.25,20.25,0,1,1-10.41,2.87"/><path class="cls-15" d="M95.82,88.9h52a11.64,11.64,0,0,0-13.68-9.84,8.24,8.24,0,0,0-6.52-7.77A9.12,9.12,0,0,0,110.2,68a5.18,5.18,0,0,0-6.85,1.66,12.13,12.13,0,0,0-2.72-.32,11.89,11.89,0,0,0-3.6.56H89.9a1.28,1.28,0,0,0,0,2.56h2.75a11.77,11.77,0,0,0-3.83,8.69,12,12,0,0,0,.4,3,8,8,0,0,0-4.53,4.73h7"/><path class="cls-15" d="M115,87.76a6.28,6.28,0,0,0-1.29,2.7h23.24c0-.19,0-.39,0-.59a8.49,8.49,0,0,0-.25-2"/><path class="cls-16" d="M111.09,82.82a5.17,5.17,0,0,0,.15-1.19,4.82,4.82,0,0,0-9.56-.88,2.1,2.1,0,0,0-3.05,1.88,1.11,1.11,0,0,0,0,.19"/><circle class="cls-15" cx="105.06" cy="60.98" r="1.59"/><rect class="cls-15" x="77.66" y="78.39" width="8.75" height="3.98" rx="1.99"/><rect class="cls-17" y="221.68" width="300" height="78.32"/><path class="cls-18" d="M323.47,283.13a6.83,6.83,0,0,0-3.47-.95H221.12a5.11,5.11,0,0,1,0-10.21H273.4a4,4,0,0,0,2.3-7.23h0a4,4,0,0,0-2.29-.73H259.59a3,3,0,0,1-1.93-.71l-.08-.07a3.19,3.19,0,0,1,2.08-5.6h2.85a2.62,2.62,0,1,0,0-5.23H229.1a2.18,2.18,0,1,1,0-4.36h17.1a1.85,1.85,0,0,0,1.06-3.36,1.9,1.9,0,0,0-1.06-.33H227a1.59,1.59,0,0,1,0-3.17h21.06a1.37,1.37,0,0,0,.71-2.55,1.39,1.39,0,0,0-.71-.2H206.46a1.2,1.2,0,0,1,0-2.4H225a1.08,1.08,0,0,0,.68-1.92,1,1,0,0,0-.6-.21h-3.65a.95.95,0,0,1,0-1.89h12.34a.85.85,0,0,0,0-1.69H210a.76.76,0,0,1,0-1.52h15.8a.69.69,0,0,0,0-1.38H209.09a.63.63,0,1,1,0-1.25h21.36a.57.57,0,0,0,.57-.57.56.56,0,0,0-.57-.57H69.55a.56.56,0,0,0-.57.57.57.57,0,0,0,.57.57H90.91a.63.63,0,1,1,0,1.25H74.22a.69.69,0,0,0,0,1.38H90a.76.76,0,1,1,0,1.52H66.19a.85.85,0,0,0,0,1.69H78.53a.95.95,0,0,1,0,1.89H74.88a1,1,0,0,0-.6.21A1.08,1.08,0,0,0,75,236H93.54a1.2,1.2,0,0,1,0,2.4H51.92a1.39,1.39,0,0,0-.71.2,1.37,1.37,0,0,0,.71,2.55H73a1.59,1.59,0,0,1,0,3.17H53.8a1.9,1.9,0,0,0-1.06.33,1.85,1.85,0,0,0,1.06,3.36H70.9a2.18,2.18,0,1,1,0,4.36H37.49a2.62,2.62,0,1,0,0,5.23h2.85a3.19,3.19,0,0,1,2.08,5.6l-.08.07a3,3,0,0,1-1.93.71H26.59a4,4,0,0,0-2.29.73h0A4,4,0,0,0,26.6,272H78.88a5.11,5.11,0,0,1,0,10.21H-20a6.83,6.83,0,0,0-3.47.95A6.79,6.79,0,0,0-20,295.75h2.87a4.29,4.29,0,0,1,2.66,7.66H314.47a4.29,4.29,0,0,1,2.66-7.66H320A6.79,6.79,0,0,0,323.47,283.13Z"/><line class="cls-19" x1="273.57" y1="224.88" x2="283.89" y2="224.88"/><line class="cls-19" x1="232.84" y1="227.62" x2="263.63" y2="227.62"/><line class="cls-19" x1="268.38" y1="227.62" x2="278.52" y2="227.62"/><line class="cls-19" x1="283.26" y1="227.62" x2="285.37" y2="227.62"/><line class="cls-19" x1="238.89" y1="231.34" x2="274.8" y2="231.34"/><line class="cls-19" x1="234.8" y1="231.34" x2="223.73" y2="231.34"/><path class="cls-20" d="M267.45,213.45H226v3.33H228a11.58,11.58,0,0,0,5.81,8.1h36.49a11.58,11.58,0,0,0,5.81-8.1h2.08v-3.33Z"/><line class="cls-21" x1="229.88" y1="216.78" x2="246.91" y2="216.78"/><line class="cls-21" x1="250.31" y1="216.78" x2="254.29" y2="216.78"/><line class="cls-21" x1="257.68" y1="216.78" x2="261.66" y2="216.78"/><line class="cls-21" x1="246.91" y1="219.78" x2="272.94" y2="219.78"/><line class="cls-21" x1="242.18" y1="222.78" x2="260.14" y2="222.78"/><line class="cls-21" x1="262.55" y1="222.78" x2="266" y2="222.78"/><line class="cls-21" x1="243.76" y1="219.78" x2="237.48" y2="219.78"/><line class="cls-22" x1="-10.78" y1="244.55" x2="12.94" y2="244.55"/><line class="cls-22" x1="18.41" y1="244.55" x2="25.67" y2="244.55"/><line class="cls-22" x1="31.15" y1="244.55" x2="33.94" y2="244.55"/><path class="cls-23" d="M278.6,182.28a21.45,21.45,0,0,1,18.06-19.53"/><line class="cls-19" x1="287.45" y1="274.89" x2="307.63" y2="274.89"/><path class="cls-14" d="M286.29,114h17a5.37,5.37,0,0,1,5.35,5.35h0a5.37,5.37,0,0,1-5.35,5.35H280.52a5.37,5.37,0,0,1-5.35-5.35h0a5.37,5.37,0,0,1,5.35-5.35"/><path class="cls-14" d="M209.66,172.82a3,3,0,0,1,.86-.12,3.21,3.21,0,1,1-3.21,3.21,3.16,3.16,0,0,1,.29-1.34"/><path class="cls-23" d="M258.13,201.45a16.31,16.31,0,0,0,.91,5.34"/><path class="cls-23" d="M303.17,206.79a9.76,9.76,0,0,0-9.67-8.46,10.06,10.06,0,0,0-2.76.4,16.42,16.42,0,0,0-31.87-2.17"/><path class="cls-23" d="M229.88,201.33a10.43,10.43,0,0,1,3.93,2.26"/><path class="cls-23" d="M216.12,211.42a10.58,10.58,0,0,1,10.58-10.58"/><line class="cls-13" x1="242.48" y1="166.29" x2="255.73" y2="166.29"/><line class="cls-23" x1="252.66" y1="157.08" x2="264.24" y2="157.08"/><line class="cls-23" x1="268.36" y1="157.08" x2="272.75" y2="157.08"/><line class="cls-23" x1="245.96" y1="178.17" x2="251.16" y2="178.17"/><line class="cls-23" x1="196.94" y1="215.35" x2="217.22" y2="215.35"/><line class="cls-19" x1="111.97" y1="227.62" x2="188.03" y2="227.62"/><line class="cls-19" x1="115.06" y1="232.98" x2="184.94" y2="232.98"/><line class="cls-19" x1="106.97" y1="240.07" x2="193.03" y2="240.07"/><path class="cls-19" d="M83.88,248.9c3.14,0,3.14,2,6.29,2s3.15-2,6.29-2,3.15,2,6.3,2,3.15-2,6.3-2,3.14,2,6.29,2,3.15-2,6.3-2,3.15,2,6.29,2,3.15-2,6.3-2,3.15,2,6.3,2,3.15-2,6.3-2,3.14,2,6.29,2,3.15-2,6.3-2,3.14,2,6.29,2,3.15-2,6.3-2,3.15,2,6.3,2,3.15-2,6.29-2,3.15,2,6.3,2,3.15-2,6.3-2,3.15,2,6.3,2,3.16-2,6.31-2,3.15,2,6.3,2"/><line class="cls-19" x1="103.08" y1="264.42" x2="196.92" y2="264.42"/><line class="cls-19" x1="229.26" y1="288.07" x2="247.75" y2="288.07"/><line class="cls-19" x1="70.74" y1="288.07" x2="52.25" y2="288.07"/><polyline class="cls-19" points="77.76 288.07 150 288.07 222.24 288.07"/><path class="cls-24" d="M150.67,40.61a13.1,13.1,0,0,0-8.78.58"/><path class="cls-24" d="M159.85,56A13.14,13.14,0,0,0,155,42.76"/><path class="cls-24" d="M136.67,45.29a13.14,13.14,0,0,0,2.54,18.32"/><circle class="cls-14" cx="155.56" cy="62.57" r="1.69"/><circle class="cls-14" cx="67.4" cy="166.74" r="2.69"/><path class="cls-23" d="M72,197.77a13.18,13.18,0,0,0-21.78,3.44,9.74,9.74,0,0,0-13.56,6.3"/><path class="cls-23" d="M75.4,207.51c0-.29,0-.58,0-.88a13.12,13.12,0,0,0-1.33-5.77"/><path class="cls-23" d="M-9.39,180.66a14.15,14.15,0,0,1,27.07-5.75"/><path class="cls-23" d="M18.89,180.66a14.09,14.09,0,0,1-3.74,9.57"/><line class="cls-23" x1="-11.62" y1="199.36" x2="22.04" y2="199.36"/><path class="cls-14" d="M15.73,136.15H41.82A5.17,5.17,0,0,1,47,141.31h0a5.17,5.17,0,0,1-5.16,5.16H30.89"/><line class="cls-23" x1="23.12" y1="146.47" x2="9.87" y2="146.47"/><line class="cls-23" x1="9.87" y1="136.15" x2="6.38" y2="136.15"/><rect class="cls-14" x="32.61" y="120.94" width="10.19" height="4.6" rx="2.3"/><line class="cls-23" x1="12.94" y1="215.35" x2="59.54" y2="215.35"/><circle class="cls-15" cx="75.79" cy="140.26" r="1.47"/><path class="cls-25" d="M148.62,189.86a11.52,11.52,0,0,0-5.66,12.6"/><path class="cls-25" d="M174.05,202.46a6.51,6.51,0,0,0-8.42-4,11.53,11.53,0,0,0-11.43-10.09"/><path class="cls-25" d="M125.88,189.61a5.74,5.74,0,0,0-10.82-3.72"/><circle class="cls-26" cx="170.27" cy="171.75" r="2.31"/><line class="cls-25" x1="126.05" y1="167.68" x2="129.31" y2="167.68"/><line class="cls-25" x1="133.66" y1="167.68" x2="144.61" y2="167.68"/><rect class="cls-26" x="184.02" y="146.47" width="15.34" height="4.88" rx="2.44"/><line class="cls-13" x1="276.15" y1="216.78" x2="270.55" y2="216.78"/><path class="cls-3" d="M91.25,45.06a7.69,7.69,0,0,0-7.7-7.69c-.31,0-.63,0-.93.05a5.73,5.73,0,0,0-11.18-1.07A5.79,5.79,0,0,0,63,43.43l-.22,0a1.34,1.34,0,0,0-1.35,1.35,1.25,1.25,0,0,0,.07.43A4.6,4.6,0,0,0,58.33,48H90.68A7.71,7.71,0,0,0,91.25,45.06Z"/><path class="cls-9" d="M241.32,109.87a3.8,3.8,0,0,0-3.62-3.8,7.92,7.92,0,0,0-7.37-10.79,8.16,8.16,0,0,0-2.22.32,7.91,7.91,0,0,0-15.4,2.55s0,.07,0,.1h0a11.21,11.21,0,0,0-11.21,11.22,11.66,11.66,0,0,0,.14,1.78h39.42A3.72,3.72,0,0,0,241.32,109.87Z"/><path class="cls-3" d="M301.29,38a15.55,15.55,0,0,0,.66-4.45A15.34,15.34,0,0,0,286.61,18.2a16,16,0,0,0-3.41.38,11.33,11.33,0,0,0-20.94,5.56A4.57,4.57,0,0,0,254,26.87a4.38,4.38,0,0,0,.2,1.31H254a12.73,12.73,0,0,0-11.93,17.12h67A7.81,7.81,0,0,0,301.29,38Z"/><path class="cls-13" d="M206.79,198.3a16.08,16.08,0,0,0-10.86,10.58,7.21,7.21,0,0,0-3.18-.73,7.34,7.34,0,0,0-7.34,7.2"/><path class="cls-13" d="M132.65,211.41a10.33,10.33,0,0,0-8.09-3.9,9.51,9.51,0,0,0-1.78.17c0-.11,0-.21,0-.31a14.89,14.89,0,0,0-14.89-14.89l-.49,0a16.48,16.48,0,0,0,.49-3.94A16.77,16.77,0,0,0,91.14,171.8a16.58,16.58,0,0,0-4.91.74,9.2,9.2,0,0,0-8.59-7.4,24.67,24.67,0,0,0-12.87-20.83,24.21,24.21,0,0,0-42.18-23.37"/><path class="cls-13" d="M268.59,136.35a12.54,12.54,0,0,0-2.47-.25,12.23,12.23,0,0,0-11,6.89,23.22,23.22,0,0,0-7.72-1.31,23.46,23.46,0,0,0-21.31,13.67,18.62,18.62,0,0,0-23.82,24.77,18,18,0,0,0-12.17,17c0,.19,0,.37,0,.56-.2,0-.39,0-.59,0a11.35,11.35,0,0,0-11.35,11.35c0,.11,0,.22,0,.34a7,7,0,0,0-7.87,2.63"/><path class="cls-13" d="M129.72,158.79a20.42,20.42,0,0,0-11.06,12.11,10,10,0,0,0-1.24-.09,9.72,9.72,0,0,0-9.42,7.36"/><path class="cls-13" d="M190.8,184.32a13.28,13.28,0,0,0-21.53.63,10.11,10.11,0,0,0-9.15-5.83,10.23,10.23,0,0,0-2,.2c.06-.63.1-1.28.1-1.93a20.34,20.34,0,0,0-24.55-19.87"/><path class="cls-26" d="M122.61,167.68H110.26a3.71,3.71,0,0,1-3.7-3.7h0a3.71,3.71,0,0,1,3.7-3.69h22.39"/><path class="cls-27" d="M265.94,92.7a6.4,6.4,0,0,1-1.55,2,1,1,0,0,0,0,1.46,6.4,6.4,0,0,1,1.55,2.05,1,1,0,0,0,1.76,0,6.26,6.26,0,0,1,1.55-2.05,1,1,0,0,0,0-1.46,6.26,6.26,0,0,1-1.55-2A1,1,0,0,0,265.94,92.7Z"/><path class="cls-27" d="M152.83,131.16a6.31,6.31,0,0,1-1.55,2.06,1,1,0,0,0,0,1.45,6.26,6.26,0,0,1,1.55,2.05,1,1,0,0,0,1.76,0,6.26,6.26,0,0,1,1.55-2.05,1,1,0,0,0,0-1.45,6.31,6.31,0,0,1-1.55-2.06A1,1,0,0,0,152.83,131.16Z"/><path class="cls-27" d="M102.58,5.76A6.42,6.42,0,0,1,101,7.82a1,1,0,0,0,0,1.45,6.26,6.26,0,0,1,1.55,2.05,1,1,0,0,0,1.77,0,6.13,6.13,0,0,1,1.55-2.05,1,1,0,0,0,0-1.45,6.28,6.28,0,0,1-1.55-2.06A1,1,0,0,0,102.58,5.76Z"/><path class="cls-12" d="M220.23,65H210.06a10.17,10.17,0,0,0-8.05-4,9.36,9.36,0,0,0-1.41.11,6.94,6.94,0,0,0-6.92-6.45,6.66,6.66,0,0,0-1.62.2,14.36,14.36,0,0,0-28,4.4,14.93,14.93,0,0,0,.16,2.13,11.32,11.32,0,0,0-7,5.52,11.43,11.43,0,0,0-16,10h78.17a8.44,8.44,0,0,0-7.14-4H212a9.54,9.54,0,0,0-.07-3.92h8.26a2,2,0,0,0,2-2h0A2,2,0,0,0,220.23,65Z"/><rect class="cls-14" x="204.01" y="53.87" width="7.21" height="2.43" rx="1.22"/><path class="cls-13" d="M220.23,69.11a2,2,0,0,0,2-2h0a2,2,0,0,0-2-2H210.06a10.17,10.17,0,0,0-8.05-4,9.36,9.36,0,0,0-1.41.11,6.94,6.94,0,0,0-6.92-6.45,6.66,6.66,0,0,0-1.62.2,14.36,14.36,0,0,0-28,4.4,14.93,14.93,0,0,0,.16,2.13,11.32,11.32,0,0,0-7,5.52,11.43,11.43,0,0,0-16,10h15.33"/><path class="cls-13" d="M161,77h58.31a8.44,8.44,0,0,0-7.14-4H212a9.54,9.54,0,0,0-.07-3.92h5.2"/><rect class="cls-14" x="214.63" y="58.44" width="4.46" height="1.91" rx="0.95"/><path class="cls-23" d="M159.56,68.38a11.7,11.7,0,0,1,3,3.38"/><path class="cls-23" d="M202.59,69.85a6.29,6.29,0,0,0-11.84-3h-.12a11.15,11.15,0,0,0-10.37,7.78"/><path class="cls-23" d="M177,56.88a3.65,3.65,0,0,1,6.8,0,3.61,3.61,0,0,1,.17,2.12"/><path class="cls-13" d="M124.05,156.79c-4.69-10.84-10.89-21.13-24-21.13-10.8,0-17.46,9.72-21.56,22"/><path class="cls-13" d="M207.56,153c-4.13-5.79-9.65-9.92-17.93-9.92-11.43,0-18.22,10.9-22.26,24.22a9.45,9.45,0,0,0-5.22-1.64,10.12,10.12,0,0,0-2,.18"/><line class="cls-13" x1="230.17" y1="221.68" x2="116.84" y2="221.68"/><line class="cls-13" x1="85.11" y1="221.68" x2="110.05" y2="221.68"/><line class="cls-13" x1="283.26" y1="221.68" x2="305.59" y2="221.68"/><line class="cls-13" x1="5.21" y1="221.68" x2="18.89" y2="221.68"/><circle class="cls-28" cx="143.27" cy="48.89" r="2.09"/><circle class="cls-28" cx="145.97" cy="56.38" r="1.29"/><path class="cls-16" d="M136.69,87.84a8.24,8.24,0,0,0-15-2.22,6.48,6.48,0,0,0-1.71-.24"/><path class="cls-7" d="M-47.73,113.57c6.42-10.2,19.64-16.45,26.38-25.2,7.37-9.58,12.41-21.91,20-29.89C7,49.66,29.1,55.73,37,48.17,59.34,26.78,64.71,36.06,75.32,31.29,86.72,26.16,84.5,8.42,94,3.75,105.77-2.08,110.73.05,120-3.06c20.48-6.83,20.17.51,37.4-1.11,0,0-92.95-54.64-95.44-53.82S-43.37-85.92-43.37-85.92L-55,26.76Z"/><path class="cls-29" d="M41.61,83.06a4.83,4.83,0,0,0-1.12-1.43,7,7,0,0,0-4.37-1.75,6.7,6.7,0,0,0-4.64,1.31,4.17,4.17,0,0,0-1.19,1.39,6.28,6.28,0,0,0,1.43,1.08,9.17,9.17,0,0,0,4.09,1.18,8.47,8.47,0,0,0,4.31-.76A5.11,5.11,0,0,0,41.61,83.06Z"/><path class="cls-13" d="M40.38,84a4.94,4.94,0,0,0,1.23-.89,4.83,4.83,0,0,0-1.12-1.43,7,7,0,0,0-4.37-1.75,6.7,6.7,0,0,0-4.64,1.31,4.17,4.17,0,0,0-1.19,1.39,6.28,6.28,0,0,0,1.43,1.08,9.17,9.17,0,0,0,4.09,1.18,9,9,0,0,0,3.42-.4"/><path class="cls-30" d="M66.52,65.09a5,5,0,0,0-6.29-3.23L50,65.16h0l2.55-7.08a5,5,0,1,0-9.4-3.39L37.94,69-50.53,97.51a5,5,0,0,0-3.23,6.29A5,5,0,0,0-49,107.27a5.14,5.14,0,0,0,1.53-.24L43.31,77.81h0l20-6.43A5,5,0,0,0,66.52,65.09Z"/><line class="cls-31" x1="42.37" y1="67.61" x2="48.49" y2="65.64"/><path class="cls-32" d="M61.16,54.91a7.4,7.4,0,0,0-2.77-.4,10.75,10.75,0,0,0-6.72,2.75,10.26,10.26,0,0,0-3.73,6.41,6.58,6.58,0,0,0,.17,2.82,10.17,10.17,0,0,0,2.73-.34,14,14,0,0,0,5.8-3.08,13.14,13.14,0,0,0,4-5.44A8.29,8.29,0,0,0,61.16,54.91Z"/><path class="cls-13" d="M60.75,57.2a7.79,7.79,0,0,0,.41-2.29,7.4,7.4,0,0,0-2.77-.4,10.75,10.75,0,0,0-6.72,2.75,10.26,10.26,0,0,0-3.73,6.41,6.58,6.58,0,0,0,.17,2.82,10.17,10.17,0,0,0,2.73-.34A15.12,15.12,0,0,0,60,59"/><path class="cls-33" d="M49.45,64.84a42.3,42.3,0,0,1,4.7-4.67"/><path class="cls-33" d="M55.52,59l1.72-1.33"/><ellipse class="cls-34" cx="43.87" cy="58.26" rx="10.39" ry="11.16"/><ellipse class="cls-34" cx="23.08" cy="58.26" rx="10.39" ry="11.16"/><path class="cls-35" d="M46.88,47.91a13.93,13.93,0,1,0-27.34-3.8,13.63,13.63,0,0,0,.54,3.8c-4.15,5.59-4.91,13.84.86,21.73a3.65,3.65,0,0,0,.76.76c13.65,9.94,28.47.42,28.47-12.56A16.6,16.6,0,0,0,46.88,47.91Z"/><circle class="cls-36" cx="39.49" cy="41.84" r="4.42"/><path class="cls-37" d="M42.13,41.36a2.65,2.65,0,0,1-5.29,0"/><circle class="cls-36" cx="27.47" cy="41.84" r="4.42"/><path class="cls-38" d="M43.2,54c-2.4-4.08-5.46-5.54-9.72-5.54-5,0-8.34,2-10.9,7.87a9.28,9.28,0,0,0,7.78,13c1,.07,2,.11,3.12.11s2.33,0,3.4-.14A9.17,9.17,0,0,0,44.5,56.64"/><path class="cls-39" d="M37.48,45.23a9.36,9.36,0,0,0-2-.82h0c-.68-1.5-1.29-2.08-2-2.08s-1.35.58-2,2.08h0a9.49,9.49,0,0,0-2,.82,1.22,1.22,0,0,0-.08,2.08c1.22.85,3,1.9,4.08,1.9s2.85-1.05,4.08-1.9A1.23,1.23,0,0,0,37.48,45.23Z"/><path class="cls-24" d="M33.48,47.94a2,2,0,0,0,1.22-.68,3.41,3.41,0,0,1,2.07-1"/><path class="cls-24" d="M33.48,47.94a2.06,2.06,0,0,1-1.23-.68,3.37,3.37,0,0,0-2.07-1"/><path class="cls-13" d="M46.88,47.91a14,14,0,0,0,.54-3.8,13.8,13.8,0,0,0-1.24-5.75"/><path class="cls-13" d="M20.94,69.64a3.65,3.65,0,0,0,.76.76"/><path class="cls-13" d="M44.8,36a13.94,13.94,0,0,0-25.26,8.14,13.63,13.63,0,0,0,.54,3.8"/><path class="cls-40" d="M24.49,69.42h-.57a5,5,0,0,0-5,5,1.77,1.77,0,1,0,3.54,0,1.77,1.77,0,1,0,3.53,0,1.77,1.77,0,1,0,3.54,0A5,5,0,0,0,24.49,69.42Z"/><path class="cls-40" d="M43,69.42h-.56a5,5,0,0,0-5,5,1.77,1.77,0,1,0,3.53,0,1.77,1.77,0,1,0,3.54,0,1.77,1.77,0,1,0,3.53,0A5,5,0,0,0,43,69.42Z"/><path class="cls-38" d="M44.51,29.24a1.11,1.11,0,0,1,2,.88c-2.21,7.15-10.4,9.93-13.06,9.93h0c-2.66,0-10.85-2.78-13.06-9.93a1.11,1.11,0,0,1,2-.88,13,13,0,0,0,11,5.5A13,13,0,0,0,44.51,29.24Z"/><path class="cls-37" d="M49.17,63.54A16.63,16.63,0,0,0,48.68,51"/><path class="cls-37" d="M18.28,51a17,17,0,0,0-.54,12.56"/><line class="cls-13" x1="252.1" y1="213.45" x2="252.1" y2="189.87"/><path class="cls-14" d="M252.1,189.87h0A16.92,16.92,0,0,1,269,206.79v0a0,0,0,0,1,0,0H252.1a0,0,0,0,1,0,0V189.87A0,0,0,0,1,252.1,189.87Z"/><line class="cls-41" x1="206.19" y1="13.95" x2="206.19" y2="12.51"/><line class="cls-41" x1="205.47" y1="13.23" x2="206.91" y2="13.23"/><line class="cls-41" x1="226.92" y1="47.31" x2="227.93" y2="46.29"/><line class="cls-41" x1="226.92" y1="46.29" x2="227.93" y2="47.31"/><line class="cls-22" x1="176.96" y1="91.18" x2="176.96" y2="89.74"/><line class="cls-22" x1="176.24" y1="90.46" x2="177.68" y2="90.46"/><line class="cls-22" x1="121.24" y1="31.73" x2="122.26" y2="30.71"/><line class="cls-22" x1="121.24" y1="30.71" x2="122.26" y2="31.73"/><line class="cls-41" x1="254.08" y1="8.54" x2="254.08" y2="7.1"/><line class="cls-41" x1="253.36" y1="7.82" x2="254.8" y2="7.82"/><line class="cls-41" x1="46.18" y1="14.68" x2="46.18" y2="13.23"/><line class="cls-41" x1="45.46" y1="13.95" x2="46.9" y2="13.95"/><circle class="cls-27" cx="178.43" cy="28.75" r="1.21"/><circle class="cls-27" cx="66.76" cy="95.82" r="1.21"/><circle class="cls-27" cx="77.27" cy="20.94" r="1.21"/><circle class="cls-27" cx="257.68" cy="73.04" r="1.21"/><circle class="cls-27" cx="239.17" cy="22.15" r="1.21"/><path class="cls-42" d="M237.45,262.52a24.41,24.41,0,0,0,2,2.18,85.67,85.67,0,0,0,6.67,5.88c6.16,5,16.2,11.62,29.88,20.73s22.63,16.24,29.05,20.77c3.12,2.31,5.63,3.88,7.25,4.94a26,26,0,0,0,2.57,1.46,24.73,24.73,0,0,0-.63-2.9,46.15,46.15,0,0,0-3.28-8.47,66.6,66.6,0,0,0-8.82-13.17,86.39,86.39,0,0,0-17.48-15.43,102.78,102.78,0,0,0-20.41-10.65,88.7,88.7,0,0,0-14.91-4.3,55.89,55.89,0,0,0-8.92-1.07A24.3,24.3,0,0,0,237.45,262.52Z"/><path class="cls-13" d="M247.21,263.19a50.62,50.62,0,0,0-7.33-.72,23.18,23.18,0,0,0-2.43,0,24.41,24.41,0,0,0,2,2.18,85.67,85.67,0,0,0,6.67,5.88c6.16,5,16.2,11.62,29.88,20.73s22.63,16.24,29.05,20.77c3.12,2.31,5.63,3.88,7.25,4.94a26,26,0,0,0,2.57,1.46,24.73,24.73,0,0,0-.63-2.9,46.15,46.15,0,0,0-3.28-8.47,66.6,66.6,0,0,0-8.82-13.17,86.39,86.39,0,0,0-17.48-15.43c-2.74-1.91-5.46-3.44-8-4.92s-5.05-2.66-7.43-3.66a96.32,96.32,0,0,0-12.64-4.64"/><path class="cls-43" d="M314.86,318.48a130.83,130.83,0,0,0-32.1-31.92"/><path class="cls-43" d="M279.48,284.34c-3.82-2.57-7.79-4.93-11.79-7.22"/><path class="cls-43" d="M256.71,271.35c2.51,1.28,5,2.51,7.51,3.88"/><path class="cls-32" d="M211.58,291.43s1.33.34,4.06.75,6.87,1.09,12.47,1.7c2.8.46,6,.81,9.53,1.3s7.48,1,11.79,1.78c8.63,1.37,18.83,3.14,30.6,6.11a292.51,292.51,0,0,1,29.68,9.23c4.13,1.4,7.7,3,11.06,4.24s6.17,2.65,8.82,3.67c5.07,2.35,9,3.85,11.47,5s3.82,1.53,3.82,1.53-.67-1.16-2.33-3.43a71.42,71.42,0,0,0-8.74-9.6c-2.24-1.91-4.79-4.16-7.86-6.41a107.07,107.07,0,0,0-10.76-6.85,126.51,126.51,0,0,0-31.39-12.39A133.85,133.85,0,0,0,250.41,284a119.44,119.44,0,0,0-12.65.66c-3.77.42-7.08,1-10,1.54a80.36,80.36,0,0,0-12.42,3.62C212.77,290.81,211.58,291.43,211.58,291.43Z"/><path class="cls-13" d="M224.75,286.89c-2.32.58-4.31,1.14-6,1.65s-3,1.09-4.08,1.52c-2.13.86-3.11,1.37-3.11,1.37s1.33.34,4.06.75,6.87,1.09,12.47,1.7c2.8.46,6,.81,9.53,1.3s7.48,1,11.79,1.78c8.63,1.37,18.83,3.14,30.6,6.11a292.51,292.51,0,0,1,29.68,9.23c4.13,1.4,7.7,3,11.06,4.24s6.17,2.65,8.82,3.67c5.07,2.35,9,3.85,11.47,5s3.82,1.53,3.82,1.53-.67-1.16-2.33-3.43a71.42,71.42,0,0,0-8.74-9.6c-2.24-1.91-4.79-4.16-7.86-6.41a107.07,107.07,0,0,0-10.76-6.85,126.51,126.51,0,0,0-31.39-12.39c-18.83-4.56-34.08-4.69-45.26-3.54"/><path class="cls-33" d="M344.88,326.77c-17-14.33-37.48-24.13-58.82-30"/><path class="cls-33" d="M280.47,295.26a186.44,186.44,0,0,0-19.88-3.7"/><polyline class="cls-33" points="242.51 290.04 245.6 290.14 248.69 290.37 254.85 290.85"/><path class="cls-12" d="M243.41,232s1.07,1.11,3.39,3.19c1.12,1.11,2.54,2.49,4.28,4.09s3.69,3.66,6,5.85c4.55,4.59,10.39,10.29,17.16,17.77s14.73,16.4,23.33,27.51,15.16,21.12,20.61,29.57c1.31,2.14,2.59,4.17,3.82,6.1.64.95,1.2,1.91,1.72,2.85l1.59,2.74q1.56,2.67,3,5c1,1.55,1.71,3.11,2.53,4.5,1.57,2.83,3,5.26,4.24,7.32s2.05,3.83,2.84,5.2c1.57,2.72,2.45,4,2.45,4s0-1.51-.14-4.69c-.1-1.59-.25-3.6-.52-6.06s-.95-5.24-1.66-8.53c-.39-1.64-.68-3.45-1.28-5.26s-1.17-3.78-1.84-5.84l-1.05-3.17c-.36-1.1-.75-2.21-1.23-3.31q-1.38-3.35-3-7A163.81,163.81,0,0,0,309.84,281a171.1,171.1,0,0,0-26.63-27.58,128.47,128.47,0,0,0-21.56-14.53c-3-1.5-5.61-2.82-7.93-3.7s-4.21-1.57-5.71-2.07C244.91,232.22,243.41,232,243.41,232Z"/><path class="cls-13" d="M258.43,237.26c-1.24-.59-2.39-1.14-3.47-1.62l-3.08-1.19c-1.9-.69-3.42-1.27-4.69-1.6-2.55-.67-3.78-.87-3.78-.87s1.07,1.11,3.39,3.19c1.12,1.11,2.54,2.49,4.28,4.09s3.69,3.66,6,5.85c4.55,4.59,10.39,10.29,17.16,17.77s14.73,16.4,23.33,27.51,15.16,21.12,20.61,29.57c1.31,2.14,2.59,4.17,3.82,6.1.64.95,1.2,1.91,1.72,2.85l1.59,2.74q1.56,2.67,3,5c1,1.55,1.71,3.11,2.53,4.5,1.57,2.83,3,5.26,4.24,7.32s2.05,3.83,2.84,5.2c1.57,2.72,2.45,4,2.45,4s0-1.51-.14-4.69c-.1-1.59-.25-3.6-.52-6.06s-.95-5.24-1.66-8.53c-.39-1.64-.68-3.45-1.28-5.26s-1.17-3.78-1.84-5.84l-1.05-3.17c-.36-1.1-.75-2.21-1.23-3.31q-1.38-3.35-3-7A163.81,163.81,0,0,0,309.84,281,174.69,174.69,0,0,0,290,259.29c-1.6-1.45-3.09-2.91-4.67-4.18l-4.54-3.69c-1.46-1.18-2.89-2.29-4.34-3.28l-4.12-2.89"/><path class="cls-33" d="M302.7,284.33c-2.47-3-4.86-6-7.39-9l-3.88-4.32c-1.3-1.43-2.56-2.9-3.94-4.26"/><path class="cls-33" d="M272.43,252.41c1.84,1.5,3.54,3.14,5.27,4.75s3.52,3.17,5.14,4.89"/><rect class="cls-14" x="204.01" y="53.87" width="7.21" height="2.43" rx="1.22"/><rect class="cls-14" x="214.63" y="58.44" width="4.46" height="1.91" rx="0.95"/><path class="cls-23" d="M159.56,68.38a11.7,11.7,0,0,1,3,3.38"/><path class="cls-23" d="M202.59,69.85a6.29,6.29,0,0,0-11.84-3h-.12a11.15,11.15,0,0,0-10.37,7.78"/><path class="cls-23" d="M177,56.88a3.65,3.65,0,0,1,6.8,0,3.61,3.61,0,0,1,.17,2.12"/><path class="cls-37" d="M24.82,41.36a2.65,2.65,0,0,0,5.3,0"/><path class="cls-44" d="M178.94,40.88h75.91a3.81,3.81,0,0,1,3.77,2.94A3.75,3.75,0,0,1,255,48.35h-10.3a5.56,5.56,0,0,0-5.61,4.83,5.4,5.4,0,0,0,5.36,6h64.64a5.57,5.57,0,0,0,5.61-4.84,5.39,5.39,0,0,0-5.36-5.94V37.9H281a6.37,6.37,0,0,1-6.36-6.37h0a9.38,9.38,0,0,0-9.36-9.35h-86.1"/><line class="cls-13" x1="183.91" y1="22.18" x2="179.22" y2="22.18"/><line class="cls-13" x1="203.73" y1="22.18" x2="188.1" y2="22.18"/><path class="cls-13" d="M260.8,59.13h48.26a5.57,5.57,0,0,0,5.61-4.84,5.39,5.39,0,0,0-5.36-5.94V37.9H281a6.37,6.37,0,0,1-6.36-6.37h0a9.38,9.38,0,0,0-9.36-9.35H207.54"/><line class="cls-13" x1="249.61" y1="59.13" x2="256.92" y2="59.13"/><path class="cls-13" d="M203.73,40.88h51.12a3.81,3.81,0,0,1,3.77,2.94A3.75,3.75,0,0,1,255,48.35h-10.3a5.56,5.56,0,0,0-5.61,4.83,5.4,5.4,0,0,0,5.36,6"/><line class="cls-13" x1="193.12" y1="40.88" x2="199.08" y2="40.88"/><path class="cls-44" d="M45.19,96.52H37.93a5.4,5.4,0,0,1-5.39-5.39h0a5.41,5.41,0,0,1,5.39-5.4h8.79a11.3,11.3,0,1,0,0-22.6h-73a11.33,11.33,0,0,0-11.3,11.3,11.33,11.33,0,0,0,11.3,11.3h9.72V99.45h36a4,4,0,0,1,4,4h0a4,4,0,0,1-4,4h-36v2.93H-3.5A12.66,12.66,0,0,0,9.05,121.74H92.31V96.52Z"/><line class="cls-13" x1="87.42" y1="121.74" x2="92.31" y2="121.74"/><line class="cls-13" x1="70.4" y1="121.74" x2="83.42" y2="121.74"/><path class="cls-13" d="M16.16,107.4H-16.58v2.93H-3.5A12.66,12.66,0,0,0,9.05,121.74H66.4"/><path class="cls-13" d="M40.26,63.13H-26.3a11.33,11.33,0,0,0-11.3,11.3,11.33,11.33,0,0,0,11.3,11.3h9.72V99.45h36a4,4,0,0,1,4,4h0a4,4,0,0,1-4,4"/><path class="cls-13" d="M84.35,96.52H37.93a5.4,5.4,0,0,1-5.39-5.39h0a5.41,5.41,0,0,1,5.39-5.4h8.79a11.3,11.3,0,1,0,0-22.6"/><line class="cls-13" x1="92.31" y1="96.52" x2="88.35" y2="96.52"/><rect class="cls-44" x="112.71" y="117.66" width="29.93" height="9.67" rx="4.84"/><path class="cls-13" d="M135.12,117.66h2.69a4.85,4.85,0,0,1,4.83,4.84h0a4.84,4.84,0,0,1-4.83,4.83H117.55a4.85,4.85,0,0,1-4.84-4.83h0a4.86,4.86,0,0,1,4.84-4.84h13.8"/><rect class="cls-44" x="146.38" y="15.31" width="14.66" height="6.7" rx="3.35"/><path class="cls-13" d="M156.92,15.31h.77A3.36,3.36,0,0,1,161,18.66h0A3.36,3.36,0,0,1,157.69,22h-8a3.36,3.36,0,0,1-3.35-3.35h0a3.36,3.36,0,0,1,3.35-3.35h4.57"/><line class="cls-19" x1="202.18" y1="264.42" x2="212.36" y2="264.42"/><line class="cls-19" x1="97.82" y1="264.42" x2="87.64" y2="264.42"/><path class="cls-13" d="M15.07,312.21C28,292.11,48.21,274.27,75,266.3"/><path class="cls-42" d="M91.12,269.56A8,8,0,0,0,90,266.87,8.92,8.92,0,0,0,84.33,263a8.79,8.79,0,0,0-7,1.11,6,6,0,0,0-2,2.17A14.5,14.5,0,0,0,77,268.56a10,10,0,0,0,5.29,3.12,9.84,9.84,0,0,0,6.35-.56A8.91,8.91,0,0,0,91.12,269.56Z"/><path class="cls-13" d="M89.09,270.92a8.68,8.68,0,0,0,2-1.36A8,8,0,0,0,90,266.87,8.92,8.92,0,0,0,84.33,263a8.79,8.79,0,0,0-7,1.11,6,6,0,0,0-2,2.17A14.5,14.5,0,0,0,77,268.56a10,10,0,0,0,5.29,3.12,9.93,9.93,0,0,0,5-.07"/><path class="cls-43" d="M77.27,266.35a40.31,40.31,0,0,1,6.06,1"/><path class="cls-43" d="M84.92,267.74c.65.16,1.29.34,1.94.52"/><path class="cls-42" d="M83.84,251.36a3.55,3.55,0,0,0-.84-.15,7,7,0,0,0-2.24.24,10.45,10.45,0,0,0-7,12,7.79,7.79,0,0,0,.81,2,4.42,4.42,0,0,0,.47.71,5.92,5.92,0,0,0,.82-.19,11.5,11.5,0,0,0,6.79-5.43,11.44,11.44,0,0,0,1.55-6.37,19.16,19.16,0,0,0-.22-2.06C83.91,251.66,83.84,251.36,83.84,251.36Z"/><path class="cls-13" d="M84.19,253.79a17.14,17.14,0,0,0-.35-2.43,3.55,3.55,0,0,0-.84-.15,7,7,0,0,0-2.24.24,10.45,10.45,0,0,0-7,12,7.79,7.79,0,0,0,.81,2,4.42,4.42,0,0,0,.47.71,5.92,5.92,0,0,0,.82-.19,11.5,11.5,0,0,0,6.79-5.43,11.51,11.51,0,0,0,1.53-4.91"/><path class="cls-43" d="M75.85,264.29a61.07,61.07,0,0,1,3-5.89"/><path class="cls-43" d="M79.7,256.89c.37-.61.76-1.22,1.16-1.81"/><path class="cls-42" d="M83.79,276.22a6.54,6.54,0,0,0-.74-3.08,10.71,10.71,0,0,0-6-5.28,10.53,10.53,0,0,0-8.1,0,7.3,7.3,0,0,0-2,1.25,5.07,5.07,0,0,0-.6.64,15,15,0,0,0,1.76,2.48,13.83,13.83,0,0,0,5.73,4,13.44,13.44,0,0,0,7,.82A13.75,13.75,0,0,0,83.79,276.22Z"/><path class="cls-13" d="M81.32,276.91a13.48,13.48,0,0,0,2.47-.69,6.54,6.54,0,0,0-.74-3.08,10.71,10.71,0,0,0-6-5.28,10.53,10.53,0,0,0-8.1,0,7.3,7.3,0,0,0-2,1.25,5.07,5.07,0,0,0-.6.64,15,15,0,0,0,1.76,2.48,13.83,13.83,0,0,0,5.73,4,13.68,13.68,0,0,0,5.46,1"/><path class="cls-43" d="M68.59,270a40.75,40.75,0,0,1,6.83,2"/><path class="cls-43" d="M77.18,272.72c.71.31,1.42.62,2.12,1"/><path class="cls-42" d="M72.33,253.52a8,8,0,0,0-2.87.82,10.29,10.29,0,0,0-4.94,12.41A7.86,7.86,0,0,0,66,269.32a9.37,9.37,0,0,0,2.71-1.2,11.19,11.19,0,0,0,4.72-11.86A9.18,9.18,0,0,0,72.33,253.52Z"/><path class="cls-13" d="M73.34,255.8a8.78,8.78,0,0,0-1-2.28,8,8,0,0,0-2.87.82,10.29,10.29,0,0,0-4.94,12.41A7.86,7.86,0,0,0,66,269.32a9.37,9.37,0,0,0,2.71-1.2,10.63,10.63,0,0,0,4.22-5.2,10.82,10.82,0,0,0,.76-5.18"/><path class="cls-43" d="M66.66,267.36q1-3.08,2.18-6.08"/><line class="cls-43" x1="69.49" y1="259.69" x2="70.33" y2="257.75"/><path class="cls-42" d="M77.18,281.87a8.72,8.72,0,0,0-.82-3.15,12.52,12.52,0,0,0-6-6,12,12,0,0,0-8.55-1.12,7.6,7.6,0,0,0-3,1.46,11.42,11.42,0,0,0,1.6,2.78,16.2,16.2,0,0,0,5.9,4.83A15.23,15.23,0,0,0,74,282.5,9.53,9.53,0,0,0,77.18,281.87Z"/><path class="cls-13" d="M74.54,282.46a9.12,9.12,0,0,0,2.64-.59,8.72,8.72,0,0,0-.82-3.15,12.52,12.52,0,0,0-6-6,12,12,0,0,0-8.55-1.12,7.6,7.6,0,0,0-3,1.46,11.42,11.42,0,0,0,1.6,2.78,17.51,17.51,0,0,0,11.8,6.59"/><path class="cls-43" d="M61.26,273.78a49.79,49.79,0,0,1,7.13,3"/><path class="cls-43" d="M70.22,277.69c.74.4,1.47.81,2.19,1.24"/><path class="cls-42" d="M63.93,255.87a8.72,8.72,0,0,0-2.93,1,10,10,0,0,0-2.63,2A11.6,11.6,0,0,0,56,262.75a10.7,10.7,0,0,0-.08,7.72,8,8,0,0,0,1.59,2.65,9.44,9.44,0,0,0,2.7-1.48,12.7,12.7,0,0,0,4.13-5.81,14.25,14.25,0,0,0,.86-3.88,11.86,11.86,0,0,0-.18-3.18A8.69,8.69,0,0,0,63.93,255.87Z"/><path class="cls-13" d="M64.9,258.28a7.94,7.94,0,0,0-1-2.41,8.72,8.72,0,0,0-2.93,1,10,10,0,0,0-2.63,2A11.6,11.6,0,0,0,56,262.75a10.7,10.7,0,0,0-.08,7.72,8,8,0,0,0,1.59,2.65,9.44,9.44,0,0,0,2.7-1.48,12.7,12.7,0,0,0,4.13-5.81,13.57,13.57,0,0,0,.87-5.46"/><path class="cls-43" d="M58.07,271c.62-2.25,1.28-4.49,2.09-6.68"/><path class="cls-43" d="M60.84,262.55c.28-.71.59-1.41.91-2.1"/><path class="cls-42" d="M69.33,287.12a8.3,8.3,0,0,0-.59-3.4,11.57,11.57,0,0,0-2-3.43,14.31,14.31,0,0,0-4.5-3.55,13.78,13.78,0,0,0-5.67-1.55,10.5,10.5,0,0,0-4.09.59A8.24,8.24,0,0,0,50.22,277a4.73,4.73,0,0,0-.69.64,8.48,8.48,0,0,0,.55.75,18.23,18.23,0,0,0,1.65,1.75,24.12,24.12,0,0,0,2.65,2.21,30.61,30.61,0,0,0,3.8,2.29,27.37,27.37,0,0,0,4.24,1.77,19.2,19.2,0,0,0,3.53.75A11.47,11.47,0,0,0,69.33,287.12Z"/><path class="cls-13" d="M66.5,287.23a12.65,12.65,0,0,0,2.06,0c.49-.05.77-.11.77-.11a8.3,8.3,0,0,0-.59-3.4,11.57,11.57,0,0,0-2-3.43,14.31,14.31,0,0,0-4.5-3.55,13.78,13.78,0,0,0-5.67-1.55,10.5,10.5,0,0,0-4.09.59A8.24,8.24,0,0,0,50.22,277a4.73,4.73,0,0,0-.69.64,8.48,8.48,0,0,0,.55.75,18.23,18.23,0,0,0,1.65,1.75,24.12,24.12,0,0,0,2.65,2.21,30.61,30.61,0,0,0,3.8,2.29,24.1,24.1,0,0,0,6,2.23"/><path class="cls-43" d="M52.21,278a29,29,0,0,1,4.1,1.05,31.06,31.06,0,0,1,3.9,1.66"/><path class="cls-43" d="M62.18,281.8c.79.48,1.57,1,2.32,1.51"/><path class="cls-42" d="M53.16,259.47a7.28,7.28,0,0,0-2.85,1.25A11.47,11.47,0,0,0,47,274.85a7.6,7.6,0,0,0,1.39,1.83,4.2,4.2,0,0,0,.68.54s.27-.17.71-.49a14.1,14.1,0,0,0,1.64-1.38,12.19,12.19,0,0,0,3.39-6.12,12.34,12.34,0,0,0-.26-7A10.78,10.78,0,0,0,53.16,259.47Z"/><path class="cls-13" d="M54.34,261.74a10.54,10.54,0,0,0-1.18-2.27,7.28,7.28,0,0,0-2.85,1.25A11.47,11.47,0,0,0,47,274.85a7.6,7.6,0,0,0,1.39,1.83,4.2,4.2,0,0,0,.68.54s.27-.17.71-.49a14.1,14.1,0,0,0,1.64-1.38,12.19,12.19,0,0,0,3.39-6.12,12.47,12.47,0,0,0,.15-5.53"/><path class="cls-43" d="M49.18,275a63.25,63.25,0,0,1,1.27-6.81"/><path class="cls-43" d="M50.9,266.4c.19-.73.4-1.45.61-2.18"/><path class="cls-42" d="M63.47,291.32a6.42,6.42,0,0,0-.15-.91,9.4,9.4,0,0,0-.89-2.33,13.86,13.86,0,0,0-6.77-6,13.69,13.69,0,0,0-9-1.05,7.58,7.58,0,0,0-3.09,1.47,12.68,12.68,0,0,0,1.82,2.79,18,18,0,0,0,6.67,4.9,17.64,17.64,0,0,0,8.16,1.72,12.94,12.94,0,0,0,2.41-.32A7.12,7.12,0,0,0,63.47,291.32Z"/><path class="cls-13" d="M60.72,291.88a13.63,13.63,0,0,0,2-.33,5.66,5.66,0,0,0,.73-.23,6.42,6.42,0,0,0-.15-.91,9.4,9.4,0,0,0-.89-2.33,13.86,13.86,0,0,0-6.77-6,13.69,13.69,0,0,0-9-1.05,7.58,7.58,0,0,0-3.09,1.47,12.68,12.68,0,0,0,1.82,2.79,18,18,0,0,0,6.67,4.9,18.73,18.73,0,0,0,6.37,1.7"/><path class="cls-43" d="M46.08,283.19a65.44,65.44,0,0,1,7.76,2.94"/><path class="cls-43" d="M55.84,287.07c.82.39,1.62.81,2.42,1.23"/><path class="cls-42" d="M41.71,262.8a7.58,7.58,0,0,0-2.4,2.09A11.48,11.48,0,0,0,37,272.66a11.15,11.15,0,0,0,3.17,7.65,7.41,7.41,0,0,0,1.92,1.37,4.69,4.69,0,0,0,.83.31,14.86,14.86,0,0,0,1.59-2.64,14.45,14.45,0,0,0,1.38-7.09,13.92,13.92,0,0,0-2.15-7.08A10.83,10.83,0,0,0,41.71,262.8Z"/><path class="cls-13" d="M43.46,264.76a9.87,9.87,0,0,0-1.75-2,7.58,7.58,0,0,0-2.4,2.09A11.48,11.48,0,0,0,37,272.66a11.15,11.15,0,0,0,3.17,7.65,7.41,7.41,0,0,0,1.92,1.37,4.69,4.69,0,0,0,.83.31,14.86,14.86,0,0,0,1.59-2.64,15.41,15.41,0,0,0,0-12.75"/><path class="cls-43" d="M42.32,279.74a44.54,44.54,0,0,1-.88-7.28"/><path class="cls-43" d="M41.39,270.51c0-.8,0-1.6,0-2.4"/><path class="cls-42" d="M58.5,297a9.09,9.09,0,0,0-1.13-3.5A13.19,13.19,0,0,0,54.73,290a16.6,16.6,0,0,0-5.35-3.38A15.52,15.52,0,0,0,43,285.46a13.62,13.62,0,0,0-2.49.34,14,14,0,0,0-1.94.68A8.78,8.78,0,0,0,36.23,288a5.92,5.92,0,0,0-.67.73,6.7,6.7,0,0,0,.72.66,21.12,21.12,0,0,0,2.07,1.53c.44.3.94.63,1.48.93s1.12.64,1.76,1a48,48,0,0,0,4.51,2.05,29.34,29.34,0,0,0,8.79,2.26A12.47,12.47,0,0,0,58.5,297Z"/><path class="cls-13" d="M55.49,297.17a11.57,11.57,0,0,0,3-.22,9.09,9.09,0,0,0-1.13-3.5A13.19,13.19,0,0,0,54.73,290a16.6,16.6,0,0,0-5.35-3.38A15.52,15.52,0,0,0,43,285.46a13.62,13.62,0,0,0-2.49.34,14,14,0,0,0-1.94.68A8.78,8.78,0,0,0,36.23,288a5.92,5.92,0,0,0-.67.73,6.7,6.7,0,0,0,.72.66,21.12,21.12,0,0,0,2.07,1.53c.44.3.94.63,1.48.93s1.12.64,1.76,1a48,48,0,0,0,4.51,2.05,33.06,33.06,0,0,0,6.84,2"/><path class="cls-43" d="M38.57,288.7a28.92,28.92,0,0,1,9.17,2"/><path class="cls-43" d="M50.05,291.76c.92.44,1.83.92,2.72,1.44"/><path class="cls-42" d="M33,268.42a5,5,0,0,0-.76.48,8.39,8.39,0,0,0-1.69,1.7,13,13,0,0,0,1.42,16.1,7.19,7.19,0,0,0,2,1.38,3.17,3.17,0,0,0,.86.28l.44-.77a19.77,19.77,0,0,0,1-2A16.87,16.87,0,0,0,35,270.89,12,12,0,0,0,33,268.42Z"/><path class="cls-13" d="M34.68,270.46a15.12,15.12,0,0,0-1.19-1.52,6.64,6.64,0,0,0-.52-.52,5,5,0,0,0-.76.48,8.39,8.39,0,0,0-1.69,1.7,13,13,0,0,0,1.42,16.1,7.19,7.19,0,0,0,2,1.38,3.17,3.17,0,0,0,.86.28l.44-.77a19.77,19.77,0,0,0,1-2,15.39,15.39,0,0,0,1-7.46,15.92,15.92,0,0,0-1.52-5.78"/><path class="cls-43" d="M34.07,286a49.27,49.27,0,0,1-1.21-7.55"/><path class="cls-43" d="M32.73,276.45c0-.83-.06-1.66-.08-2.5"/><path class="cls-42" d="M54.23,302.8a11.37,11.37,0,0,0-2.31-3.15,19.11,19.11,0,0,0-3.63-2.83,22.75,22.75,0,0,0-6.15-2.53,20.71,20.71,0,0,0-6.79-.63,15.05,15.05,0,0,0-4.69,1.1,11.05,11.05,0,0,0-2.54,1.49,5.57,5.57,0,0,0-.77.71,8.43,8.43,0,0,0,.78.68,20.43,20.43,0,0,0,2.33,1.56,29.88,29.88,0,0,0,3.87,1.89A42.6,42.6,0,0,0,40,302.91a27.67,27.67,0,0,0,10.51.95A11.3,11.3,0,0,0,54.23,302.8Z"/><path class="cls-13" d="M51.13,303.76a10.55,10.55,0,0,0,3.1-1,11.37,11.37,0,0,0-2.31-3.15,19.11,19.11,0,0,0-3.63-2.83,22.75,22.75,0,0,0-6.15-2.53,20.71,20.71,0,0,0-6.79-.63,15.05,15.05,0,0,0-4.69,1.1,11.05,11.05,0,0,0-2.54,1.49,5.57,5.57,0,0,0-.77.71,8.43,8.43,0,0,0,.78.68,20.43,20.43,0,0,0,2.33,1.56,29.88,29.88,0,0,0,3.87,1.89A42.6,42.6,0,0,0,40,302.91,31.35,31.35,0,0,0,48.27,304"/><path class="cls-43" d="M30.7,297a50.25,50.25,0,0,1,5.21.54c1.73.28,3.44.65,5.14,1.07"/><path class="cls-43" d="M43.75,299.34c1.1.32,2.19.66,3.28,1"/><path class="cls-42" d="M24.05,273.77a9,9,0,0,0-2.38,2.56,14.44,14.44,0,0,0-2.11,9.36,15.55,15.55,0,0,0,1.55,5.61,12.12,12.12,0,0,0,2.45,3.33,9.29,9.29,0,0,0,2.13,1.5,5.57,5.57,0,0,0,.88.36,6.22,6.22,0,0,0,.43-.84,16.92,16.92,0,0,0,.81-2.34,23.79,23.79,0,0,0,.61-8.42,21.05,21.05,0,0,0-2.31-8.34A10.34,10.34,0,0,0,24.05,273.77Z"/><path class="cls-13" d="M25.83,276.05a9.93,9.93,0,0,0-1.78-2.28,9,9,0,0,0-2.38,2.56,14.44,14.44,0,0,0-2.11,9.36,15.55,15.55,0,0,0,1.55,5.61,12.12,12.12,0,0,0,2.45,3.33,9.29,9.29,0,0,0,2.13,1.5,5.57,5.57,0,0,0,.88.36,6.22,6.22,0,0,0,.43-.84,16.92,16.92,0,0,0,.81-2.34,23.79,23.79,0,0,0,.61-8.42,23.32,23.32,0,0,0-1.5-6.65"/><path class="cls-43" d="M25.65,293.86A41.76,41.76,0,0,1,24,285.29"/><path class="cls-43" d="M23.84,283c-.05-.95-.06-1.9-.05-2.86"/><path class="cls-42" d="M17.83,288.21A6.16,6.16,0,0,0,15.45,290a9.58,9.58,0,0,0,1.8,13.39A6,6,0,0,0,20,304.54a14.41,14.41,0,0,0,1.44-2.49,11.14,11.14,0,0,0-1.59-11.82A13.28,13.28,0,0,0,17.83,288.21Z"/><path class="cls-13" d="M19.6,289.89a13.27,13.27,0,0,0-1.77-1.68A6.16,6.16,0,0,0,15.45,290a9.58,9.58,0,0,0,1.8,13.39A6,6,0,0,0,20,304.54a14.41,14.41,0,0,0,1.44-2.49,10.86,10.86,0,0,0,.92-6.14,10.54,10.54,0,0,0-1.67-4.54"/><path class="cls-43" d="M19.34,302.66A37,37,0,0,1,18,296.5"/><path class="cls-43" d="M17.8,294.83c-.06-.68-.11-1.37-.13-2.06"/><path class="cls-13" d="M.59,318.43c3.91-32.33,18.18-66.24,46.28-91.88"/><path class="cls-12" d="M68.63,221a10.69,10.69,0,0,0-3-2.63A12.21,12.21,0,0,0,56.43,217a12,12,0,0,0-7.92,5.51,8.21,8.21,0,0,0-1.21,3.87,19.91,19.91,0,0,0,3.46,1.76,13.62,13.62,0,0,0,8.33.69,13.41,13.41,0,0,0,7.47-4.46A12,12,0,0,0,68.63,221Z"/><path class="cls-13" d="M67,223.84A11.6,11.6,0,0,0,68.63,221a10.69,10.69,0,0,0-3-2.63A12.21,12.21,0,0,0,56.43,217a12,12,0,0,0-7.92,5.51,8.21,8.21,0,0,0-1.21,3.87,19.91,19.91,0,0,0,3.46,1.76,14.06,14.06,0,0,0,14.4-2.34"/><path class="cls-33" d="M49.73,225.24a56.07,56.07,0,0,1,8-2.38"/><path class="cls-33" d="M59.94,222.4c.9-.18,1.8-.34,2.69-.5"/><path class="cls-12" d="M48.9,202.93a4.66,4.66,0,0,0-1.12.33,9,9,0,0,0-2.6,1.62,13.22,13.22,0,0,0-4.33,9.28,13.36,13.36,0,0,0,2.9,9.63,10.88,10.88,0,0,0,2.2,2,6.16,6.16,0,0,0,1,.59,8.58,8.58,0,0,0,.89-.72,15.77,15.77,0,0,0,2-2.15,16.23,16.23,0,0,0,1.27-17.28,23.48,23.48,0,0,0-1.5-2.4C49.16,203.26,48.9,202.93,48.9,202.93Z"/><path class="cls-13" d="M50.78,205.71a25.18,25.18,0,0,0-1.88-2.78,4.66,4.66,0,0,0-1.12.33,9,9,0,0,0-2.6,1.62,13.22,13.22,0,0,0-4.33,9.28,13.36,13.36,0,0,0,2.9,9.63,10.88,10.88,0,0,0,2.2,2,6.16,6.16,0,0,0,1,.59,8.58,8.58,0,0,0,.89-.72,15.77,15.77,0,0,0,2-2.15,16.31,16.31,0,0,0,2.11-15.48"/><path class="cls-33" d="M46.77,223.55a84.09,84.09,0,0,1,.13-9"/><path class="cls-33" d="M47.1,212.18c.09-1,.21-1.94.35-2.91"/><path class="cls-32" d="M63.59,233.49a8.89,8.89,0,0,0-2.73-3.36,14.64,14.64,0,0,0-10.56-2.88,14.45,14.45,0,0,0-10,4.75,9.77,9.77,0,0,0-1.66,2.7,7.17,7.17,0,0,0-.36,1.15,20.28,20.28,0,0,0,3.63,2,18.71,18.71,0,0,0,9.4,1.49,18.69,18.69,0,0,0,12.25-5.84Z"/><path class="cls-13" d="M61,235.8a18.72,18.72,0,0,0,2.62-2.31,8.89,8.89,0,0,0-2.73-3.36,14.64,14.64,0,0,0-10.56-2.88,14.45,14.45,0,0,0-10,4.75,9.77,9.77,0,0,0-1.66,2.7,7.17,7.17,0,0,0-.36,1.15,20.28,20.28,0,0,0,3.63,2,18.71,18.71,0,0,0,9.4,1.49,19,19,0,0,0,7.27-2.06"/><path class="cls-33" d="M41.25,234.89a54.34,54.34,0,0,1,9.57-1.6"/><path class="cls-33" d="M53.4,233.11c1.06,0,2.12-.08,3.17-.08"/><path class="cls-32" d="M36.06,212.42a10.89,10.89,0,0,0-3,2.71,14,14,0,0,0,1.3,18.16,10.53,10.53,0,0,0,3.39,2.25,12.58,12.58,0,0,0,2.61-3.08,15.25,15.25,0,0,0-1.24-17.36A12.32,12.32,0,0,0,36.06,212.42Z"/><path class="cls-13" d="M38.66,214.62a12,12,0,0,0-2.6-2.2,10.89,10.89,0,0,0-3,2.71,14,14,0,0,0,1.3,18.16,10.53,10.53,0,0,0,3.39,2.25,12.58,12.58,0,0,0,2.61-3.08,14.46,14.46,0,0,0,2.1-8.88,14.69,14.69,0,0,0-2.14-6.81"/><path class="cls-33" d="M37.31,232.77q-.62-4.36-.94-8.75"/><line class="cls-33" x1="36.23" y1="221.68" x2="36.11" y2="218.8"/><path class="cls-12" d="M58.83,244.34A11.78,11.78,0,0,0,56,241a17,17,0,0,0-10.86-3.78,16.24,16.24,0,0,0-11.16,3.7,10.16,10.16,0,0,0-2.75,3.53,15.49,15.49,0,0,0,3.6,2.47,22.17,22.17,0,0,0,10.11,2.42A20.8,20.8,0,0,0,55.31,247,13.06,13.06,0,0,0,58.83,244.34Z"/><path class="cls-13" d="M55.94,246.63a12.51,12.51,0,0,0,2.89-2.29A11.78,11.78,0,0,0,56,241a17,17,0,0,0-10.86-3.78,16.24,16.24,0,0,0-11.16,3.7,10.16,10.16,0,0,0-2.75,3.53,15.49,15.49,0,0,0,3.6,2.47,22.17,22.17,0,0,0,10.11,2.42A21.85,21.85,0,0,0,53.18,248"/><path class="cls-33" d="M34.49,243.86a67.06,67.06,0,0,1,10.5-.62"/><path class="cls-33" d="M47.8,243.34c1.15,0,2.29.13,3.43.22"/><path class="cls-12" d="M27.15,220.29a12,12,0,0,0-3,2.91,13.27,13.27,0,0,0-2.05,4,15.51,15.51,0,0,0-.59,6.23A14.58,14.58,0,0,0,26,243a11.08,11.08,0,0,0,3.54,2.31,12.7,12.7,0,0,0,2.42-3.42,17.27,17.27,0,0,0,1.63-9.59A19.15,19.15,0,0,0,32.29,227a16.11,16.11,0,0,0-2.11-3.8A11.6,11.6,0,0,0,27.15,220.29Z"/><path class="cls-13" d="M29.76,222.67a11,11,0,0,0-2.61-2.38,12,12,0,0,0-3,2.91,13.27,13.27,0,0,0-2.05,4,15.51,15.51,0,0,0-.59,6.23A14.58,14.58,0,0,0,26,243a11.08,11.08,0,0,0,3.54,2.31,12.7,12.7,0,0,0,2.42-3.42,17.27,17.27,0,0,0,1.63-9.59,18.32,18.32,0,0,0-2.17-7.22"/><path class="cls-33" d="M28.91,242.29c-.58-3.13-1.1-6.27-1.4-9.43"/><path class="cls-33" d="M27.31,230.32c-.07-1-.11-2.08-.13-3.12"/><path class="cls-32" d="M52.31,255.44a11.49,11.49,0,0,0-2.74-3.83,16,16,0,0,0-4.51-3,19.26,19.26,0,0,0-7.62-1.69,18.58,18.58,0,0,0-7.88,1.46,14.46,14.46,0,0,0-4.67,3.15,11.32,11.32,0,0,0-2,2.87,6.68,6.68,0,0,0-.47,1.19,10.49,10.49,0,0,0,1.12.59,27.84,27.84,0,0,0,3.06,1.18,34.5,34.5,0,0,0,4.56,1.13,40.25,40.25,0,0,0,6,.55,37.87,37.87,0,0,0,6.26-.33,26,26,0,0,0,4.77-1.18A15.61,15.61,0,0,0,52.31,255.44Z"/><path class="cls-13" d="M48.9,257.26A18.87,18.87,0,0,0,51.43,256a8.94,8.94,0,0,0,.88-.59,11.49,11.49,0,0,0-2.74-3.83,16,16,0,0,0-4.51-3,19.26,19.26,0,0,0-7.62-1.69,18.58,18.58,0,0,0-7.88,1.46,14.46,14.46,0,0,0-4.67,3.15,11.32,11.32,0,0,0-2,2.87,6.68,6.68,0,0,0-.47,1.19,10.49,10.49,0,0,0,1.12.59,27.84,27.84,0,0,0,3.06,1.18,34.5,34.5,0,0,0,4.56,1.13,40.25,40.25,0,0,0,6,.55,32.66,32.66,0,0,0,8.68-.81"/><path class="cls-33" d="M25.88,254.4a39,39,0,0,1,5.65-1.15A42.88,42.88,0,0,1,37.3,253"/><path class="cls-33" d="M40.38,253.15c1.25.12,2.5.27,3.75.48"/><path class="cls-32" d="M16.06,231.1a10,10,0,0,0-2.76,3.22,15.63,15.63,0,0,0,4.28,19.33,10,10,0,0,0,2.78,1.42,4.89,4.89,0,0,0,1.16.25s.23-.36.58-1a20,20,0,0,0,1.2-2.67,16.79,16.79,0,0,0,.53-9.52,16.85,16.85,0,0,0-4.5-8.48A14.66,14.66,0,0,0,16.06,231.1Z"/><path class="cls-13" d="M18.86,233.18a14.34,14.34,0,0,0-2.8-2.08,10,10,0,0,0-2.76,3.22,15.63,15.63,0,0,0,4.28,19.33,10,10,0,0,0,2.78,1.42,4.89,4.89,0,0,0,1.16.25s.23-.36.58-1a20,20,0,0,0,1.2-2.67,16.79,16.79,0,0,0,.53-9.52,17.13,17.13,0,0,0-3.11-6.88"/><path class="cls-33" d="M20.4,252.53a84.65,84.65,0,0,1-2.5-9.11"/><path class="cls-33" d="M17.4,241c-.2-1-.38-2-.54-3"/><path class="cls-12" d="M47.61,264.08a7.51,7.51,0,0,0-.73-1,12.93,12.93,0,0,0-2.47-2.33,18.93,18.93,0,0,0-11.87-3.35,18.69,18.69,0,0,0-11.73,4.08,10.2,10.2,0,0,0-2.92,3.65,17.47,17.47,0,0,0,3.88,2.33,24.47,24.47,0,0,0,11.1,2.06,24.07,24.07,0,0,0,11-2.73,17.9,17.9,0,0,0,2.77-1.82A9.78,9.78,0,0,0,47.61,264.08Z"/><path class="cls-13" d="M44.57,266.39a17,17,0,0,0,2.27-1.6,9.55,9.55,0,0,0,.77-.71,7.51,7.51,0,0,0-.73-1,12.93,12.93,0,0,0-2.47-2.33,18.93,18.93,0,0,0-11.87-3.35,18.69,18.69,0,0,0-11.73,4.08,10.2,10.2,0,0,0-2.92,3.65,17.47,17.47,0,0,0,3.88,2.33,24.47,24.47,0,0,0,11.1,2.06,25.29,25.29,0,0,0,8.83-1.69"/><path class="cls-33" d="M21.44,264.41a90.2,90.2,0,0,1,11.27-1"/><path class="cls-33" d="M35.73,263.39c1.23,0,2.46,0,3.7.06"/><path class="cls-12" d="M4,242a10.21,10.21,0,0,0-1.71,4,15.63,15.63,0,0,0,1.78,10.91,15.28,15.28,0,0,0,8.42,7.51,10.19,10.19,0,0,0,3.18.53,7,7,0,0,0,1.21-.1,21.15,21.15,0,0,0,.37-4.19,19.64,19.64,0,0,0-2.51-9.52,18.91,18.91,0,0,0-6.83-7.42A14.46,14.46,0,0,0,4,242Z"/><path class="cls-13" d="M7.29,243.35A13.69,13.69,0,0,0,4,242a10.21,10.21,0,0,0-1.71,4,15.63,15.63,0,0,0,1.78,10.91,15.28,15.28,0,0,0,8.42,7.51,10.19,10.19,0,0,0,3.18.53,7,7,0,0,0,1.21-.1,21.15,21.15,0,0,0,.37-4.19,19.64,19.64,0,0,0-2.51-9.52,19.58,19.58,0,0,0-5-6.14"/><path class="cls-33" d="M14.77,262.41A61.27,61.27,0,0,1,9.38,254"/><path class="cls-33" d="M8.16,251.63c-.5-1-1-2-1.42-2.95"/><path class="cls-32" d="M44.84,273.93a12.17,12.17,0,0,0-3.46-3.63,18.34,18.34,0,0,0-5.28-2.67,22.52,22.52,0,0,0-8.58-1A21,21,0,0,0,19,269a18.92,18.92,0,0,0-2.86,1.9,17.41,17.41,0,0,0-2,2,12,12,0,0,0-1.94,3.25,7,7,0,0,0-.38,1.29,10.43,10.43,0,0,0,1.27.38,29.58,29.58,0,0,0,3.45.64c.72.11,1.52.22,2.36.27s1.77.12,2.74.16a65,65,0,0,0,6.76-.17,39.7,39.7,0,0,0,12.13-2.44A16.51,16.51,0,0,0,44.84,273.93Z"/><path class="cls-13" d="M41.29,276a15.4,15.4,0,0,0,3.55-2.05,12.17,12.17,0,0,0-3.46-3.63,18.34,18.34,0,0,0-5.28-2.67,22.52,22.52,0,0,0-8.58-1A21,21,0,0,0,19,269a18.92,18.92,0,0,0-2.86,1.9,17.41,17.41,0,0,0-2,2,12,12,0,0,0-1.94,3.25,7,7,0,0,0-.38,1.29,10.43,10.43,0,0,0,1.27.38,29.58,29.58,0,0,0,3.45.64c.72.11,1.52.22,2.36.27s1.77.12,2.74.16a65,65,0,0,0,6.76-.17A45.63,45.63,0,0,0,38,277.18"/><path class="cls-33" d="M15.49,275.63A39.14,39.14,0,0,1,28,272.7"/><path class="cls-33" d="M31.39,272.57c1.4,0,2.81.05,4.2.15"/><path class="cls-32" d="M-3.42,254.06a6.48,6.48,0,0,0-.64,1,11.21,11.21,0,0,0-1.06,3.1,16.29,16.29,0,0,0,2.34,11.39,16.31,16.31,0,0,0,9,7.53,10.15,10.15,0,0,0,3.31.49,4.6,4.6,0,0,0,1.22-.17l.08-1.2a25.63,25.63,0,0,0,0-3.06,21.11,21.11,0,0,0-3.14-9.78,21.13,21.13,0,0,0-7.15-7.48A17,17,0,0,0-3.42,254.06Z"/><path class="cls-13" d="M-.1,255.55a19.71,19.71,0,0,0-2.36-1.16,7.62,7.62,0,0,0-1-.33,6.48,6.48,0,0,0-.64,1,11.21,11.21,0,0,0-1.06,3.1,16.29,16.29,0,0,0,2.34,11.39,16.31,16.31,0,0,0,9,7.53,10.15,10.15,0,0,0,3.31.49,4.6,4.6,0,0,0,1.22-.17l.08-1.2a25.63,25.63,0,0,0,0-3.06,21.11,21.11,0,0,0-3.14-9.78,21.79,21.79,0,0,0-5.3-6.19"/><path class="cls-33" d="M8.39,275a67.37,67.37,0,0,1-6-8.55"/><path class="cls-33" d="M1.06,264.06c-.56-1-1.07-2-1.58-3"/><path class="cls-12" d="M43.08,283.65a15.21,15.21,0,0,0-4.7-2.49,24.92,24.92,0,0,0-6.14-1.33,31.06,31.06,0,0,0-9,.54,28.14,28.14,0,0,0-8.72,3.26,20.75,20.75,0,0,0-5.1,4.13,15,15,0,0,0-2.24,3.33,9.08,9.08,0,0,0-.52,1.33,10.72,10.72,0,0,0,1.36.37,26.12,26.12,0,0,0,3.79.54,41.79,41.79,0,0,0,5.87,0,59.15,59.15,0,0,0,8-1.11,37.39,37.39,0,0,0,13.48-5.08A15.54,15.54,0,0,0,43.08,283.65Z"/><path class="cls-13" d="M39.85,286.66a14.32,14.32,0,0,0,3.23-3,15.21,15.21,0,0,0-4.7-2.49,24.92,24.92,0,0,0-6.14-1.33,31.06,31.06,0,0,0-9,.54,28.14,28.14,0,0,0-8.72,3.26,20.75,20.75,0,0,0-5.1,4.13,15,15,0,0,0-2.24,3.33,9.08,9.08,0,0,0-.52,1.33,10.72,10.72,0,0,0,1.36.37,26.12,26.12,0,0,0,3.79.54,41.79,41.79,0,0,0,5.87,0,59.15,59.15,0,0,0,8-1.11,42.52,42.52,0,0,0,10.87-3.56"/><path class="cls-33" d="M10.75,290.47c2.19-.93,4.44-1.72,6.72-2.43s4.61-1.24,6.94-1.73"/><path class="cls-33" d="M28.16,285.62c1.54-.26,3.08-.49,4.63-.7"/><path class="cls-12" d="M-11.19,265.91a12.39,12.39,0,0,0-1.4,4.56,19.71,19.71,0,0,0,3,12.74,21.38,21.38,0,0,0,5.23,6,16.32,16.32,0,0,0,5,2.62,12.52,12.52,0,0,0,3.5.58,7.87,7.87,0,0,0,1.3-.07,10.16,10.16,0,0,0,0-1.29A23.06,23.06,0,0,0,5,287.67,32.06,32.06,0,0,0,.77,277,28.76,28.76,0,0,0-7,268.1,14.73,14.73,0,0,0-11.19,265.91Z"/><path class="cls-13" d="M-7.65,267.66a13.87,13.87,0,0,0-3.54-1.75,12.39,12.39,0,0,0-1.4,4.56,19.71,19.71,0,0,0,3,12.74,21.38,21.38,0,0,0,5.23,6,16.32,16.32,0,0,0,5,2.62,12.52,12.52,0,0,0,3.5.58,7.87,7.87,0,0,0,1.3-.07,10.16,10.16,0,0,0,0-1.29A23.06,23.06,0,0,0,5,287.67,32.06,32.06,0,0,0,.77,277,31.34,31.34,0,0,0-5,269.71"/><path class="cls-33" d="M2.7,289.63a57,57,0,0,1-7.13-9.53"/><path class="cls-32" d="M33.81,297.55A11.08,11.08,0,0,0,29.69,295a21.22,21.22,0,0,0-13.14-.39c-5.84,1.53-9.46,4.51-11.34,7a11.89,11.89,0,0,0-1.76,3.17A7,7,0,0,0,3.13,306a23.88,23.88,0,0,0,4.54,1.09,29.06,29.06,0,0,0,12-.81A27.54,27.54,0,0,0,30.56,301,17.83,17.83,0,0,0,33.81,297.55Z"/><path class="cls-13" d="M31.15,300.47a16.69,16.69,0,0,0,2.66-2.92A11.08,11.08,0,0,0,29.69,295a21.22,21.22,0,0,0-13.14-.39c-5.84,1.53-9.46,4.51-11.34,7a11.89,11.89,0,0,0-1.76,3.17A7,7,0,0,0,3.13,306a23.88,23.88,0,0,0,4.54,1.09,29.06,29.06,0,0,0,12-.81,29.36,29.36,0,0,0,8.87-3.81"/><path class="cls-33" d="M6.58,304.3a79.17,79.17,0,0,1,11.5-3.84"/><path class="cls-33" d="M21.23,299.68c1.29-.3,2.58-.57,3.88-.83"/><path class="cls-32" d="M-10.25,287.33A8.41,8.41,0,0,0-12.1,291a12.2,12.2,0,0,0,1.91,9.78,12.22,12.22,0,0,0,8.25,5.59,8.34,8.34,0,0,0,4.09-.28,20.5,20.5,0,0,0,.29-3.92,14.84,14.84,0,0,0-2.52-8.08,14.79,14.79,0,0,0-6.45-5.48A18.65,18.65,0,0,0-10.25,287.33Z"/><path class="cls-13" d="M-7.09,288.35a17.9,17.9,0,0,0-3.16-1A8.41,8.41,0,0,0-12.1,291a12.2,12.2,0,0,0,1.91,9.78,12.22,12.22,0,0,0,8.25,5.59,8.34,8.34,0,0,0,4.09-.28,20.5,20.5,0,0,0,.29-3.92,14.84,14.84,0,0,0-2.52-8.08,14.63,14.63,0,0,0-4.74-4.58"/><path class="cls-33" d="M.17,304.17a48.86,48.86,0,0,1-5.3-6.76"/><line class="cls-19" x1="191.27" y1="232.98" x2="201.63" y2="232.98"/><line class="cls-19" x1="98.37" y1="232.98" x2="108.73" y2="232.98"/></g></svg>