<svg id="Layer_1" data-name="Layer 1" xmlns="http://www.w3.org/2000/svg" xmlns:xlink="http://www.w3.org/1999/xlink" viewBox="0 0 300 300"><defs><style>.cls-1,.cls-11,.cls-12,.cls-5,.cls-6,.cls-7,.cls-9{fill:none;}.cls-2{clip-path:url(#clip-path);}.cls-16,.cls-3{fill:#fff5e0;}.cls-13,.cls-17,.cls-4{fill:#fff;}.cls-5{stroke:#f7d2b6;}.cls-11,.cls-12,.cls-13,.cls-15,.cls-16,.cls-5,.cls-6,.cls-7,.cls-9{stroke-linecap:round;stroke-linejoin:round;}.cls-6{stroke:#f46a54;}.cls-13,.cls-14,.cls-15,.cls-16,.cls-7{stroke:#cb154f;}.cls-14,.cls-15,.cls-8{fill:#ffbba9;}.cls-9{stroke:#f5627e;}.cls-10{fill:#ff988d;}.cls-11{stroke:#ff988d;}.cls-12{stroke:#f5a091;}.cls-14{stroke-miterlimit:10;}.cls-17{opacity:0.7;}.cls-18{fill:#ffba84;opacity:0.5;}</style><clipPath id="clip-path"><rect class="cls-1" width="300" height="300"/></clipPath></defs><g class="cls-2"><rect class="cls-3" x="-0.12" y="-0.12" width="300.23" height="300.23"/><path class="cls-4" d="M263.63,150.19c0,9.7-3.59,19.91-6,28.85-2.47,9.24-4.3,20-9,28.12A120.3,120.3,0,0,1,230.79,231c-6.67,6.67-19.84,5.81-28,10.56S188.25,255.91,179,258.38c-8.94,2.39-19.3,2.62-29,2.62s-17.46-9.93-26.39-12.32c-9.25-2.47-22.77,5.36-30.86.68S84.66,228.88,78,222.21s-22.18-6.66-26.94-14.88-2.75-20-5.22-29.22c-2.39-8.94-9.5-18.22-9.5-27.92s7-19,9.41-27.94C48.21,113,49.22,102.8,53.9,94.7S66,79.52,72.67,72.85s16.67-8.78,24.88-13.53A109.27,109.27,0,0,1,114.9,51c2.53-.93,5.14-1.76,7.87-2.49,8.94-2.39,17.55-10.26,27.24-10.26a116.06,116.06,0,0,1,29,3.65c9.25,2.47,20.24,4.26,28.34,9S221.91,65,228.58,71.63,243,85.54,247.77,93.75s3.89,19.3,6.36,28.54C256.52,131.23,263.63,140.5,263.63,150.19Z"/><path class="cls-4" d="M381.08,147.5H180.49L288,136.91a.5.5,0,0,0,.45-.55.52.52,0,0,0-.55-.45L180.21,146.52l4.34-8.13,137.2-56.83A2.5,2.5,0,1,0,319.84,77L188.27,131.44l.83-1.55,1.65-1.1L354,41.51a.5.5,0,0,0,.21-.68.51.51,0,0,0-.68-.2L199.24,123.12,344.92,25.77a5,5,0,1,0-5.56-8.31L199.1,111.18l.78-1.47,75.48-61.94a.52.52,0,0,0,.07-.71.51.51,0,0,0-.71-.06l-73.61,60.4,5.73-10.7L315.17-11.63a2.52,2.52,0,0,0,0-3.54,2.5,2.5,0,0,0-3.54,0L215,81.51l22.45-42a25,25,0,1,0-44.1-23.57L159.48,79.22,172.87-56.73a2.49,2.49,0,0,0-2.24-2.73,2.49,2.49,0,0,0-2.73,2.24L153.38,90.13l-2.88-14.5V-11.76a.5.5,0,0,0-.5-.5.5.5,0,0,0-.5.5V70.6L119.63-79.57A15,15,0,0,0,102-91.36,15,15,0,0,0,90.21-73.72L124,96,43.27-55a2.5,2.5,0,0,0-3.38-1,2.5,2.5,0,0,0-1,3.38l88.46,165.5.65,3.25L22-42.42a.49.49,0,0,0-.69-.13.5.5,0,0,0-.14.69L126.83,116.22,40.92,30.32a7.5,7.5,0,0,0-10.6,10.6L109,119.58l-149.72-100a2.5,2.5,0,0,0-3.47.69,2.51,2.51,0,0,0,.69,3.47L113.11,128.36l-1-.29L28.43,83.32A1.5,1.5,0,0,0,27,86l70.43,37.65L60.62,112.44.75,87.64a.5.5,0,0,0-.66.27.51.51,0,0,0,.27.65l50.5,20.92-97-29.42a10,10,0,0,0-12.47,6.66A10,10,0,0,0-51.92,99.2l148.45,45L-10.93,133.65a.52.52,0,0,0-.55.45.5.5,0,0,0,.45.54l112.47,11.08,5.87,1.78H-81.08a2.5,2.5,0,0,0-2.5,2.5,2.5,2.5,0,0,0,2.5,2.5H119.51L12,163.09a.5.5,0,0,0,0,1h.05l107.72-10.61-4.34,8.13-137.2,56.83a2.49,2.49,0,0,0-1.35,3.26,2.49,2.49,0,0,0,2.31,1.55,2.49,2.49,0,0,0,.95-.2l131.57-54.49-.83,1.55-1.64,1.1L-54,258.49a.5.5,0,0,0-.21.68.49.49,0,0,0,.44.26.53.53,0,0,0,.24-.06l154.33-82.49L-44.92,274.23a5,5,0,0,0-1.38,6.93,5,5,0,0,0,4.17,2.22,5,5,0,0,0,2.77-.84L100.9,188.82l-.78,1.47L24.64,252.23a.52.52,0,0,0-.07.71.5.5,0,0,0,.39.18.51.51,0,0,0,.32-.12l73.6-60.4-5.72,10.7L-15.17,311.63a2.5,2.5,0,0,0,0,3.54,2.49,2.49,0,0,0,1.77.73,2.49,2.49,0,0,0,1.77-.73L85,218.49l-22.45,42a25,25,0,1,0,44.1,23.57l33.83-63.28-13.39,136a2.49,2.49,0,0,0,2.24,2.73h.25a2.49,2.49,0,0,0,2.48-2.25l14.52-147.35,2.88,14.51v87.38a.5.5,0,0,0,1,0V229.4l29.87,150.17a15,15,0,0,0,14.7,12.08,15.58,15.58,0,0,0,2.94-.29,15,15,0,0,0,11.78-17.64L176,204l80.69,151a2.5,2.5,0,0,0,4.41-2.36l-88.46-165.5-.65-3.25L278,342.42a.49.49,0,0,0,.41.22.47.47,0,0,0,.28-.09.5.5,0,0,0,.14-.69L173.17,183.78l85.91,85.9a7.5,7.5,0,0,0,10.6-10.6L191,180.42l149.72,100a2.46,2.46,0,0,0,1.39.42,2.5,2.5,0,0,0,1.39-4.58L186.89,171.64l1,.29,83.72,44.75a1.53,1.53,0,0,0,.71.18A1.5,1.5,0,0,0,273,214L202.57,176.4l36.81,11.16,59.87,24.8a.48.48,0,0,0,.2,0,.49.49,0,0,0,.46-.31.51.51,0,0,0-.27-.65l-50.5-20.92,97,29.42a9.72,9.72,0,0,0,2.9.44,10,10,0,0,0,2.9-19.58l-148.45-45,107.46,10.58H311a.52.52,0,0,0,.5-.46.5.5,0,0,0-.45-.54L198.56,154.28l-5.87-1.78H381.08a2.5,2.5,0,0,0,0-5Z"/><path class="cls-5" d="M292.41,4.05,226.57,69.9"/><path class="cls-6" d="M260.81,42.72l54.36-54.35a2.52,2.52,0,0,0,0-3.54,2.5,2.5,0,0,0-3.54,0"/><path class="cls-5" d="M230.1,73.43l27-26.94"/><path class="cls-5" d="M244.83,92.65,344.92,25.77a5,5,0,1,0-5.56-8.31L239.27,84.34"/><path class="cls-5" d="M263.63,100.23l-12.22,5.06"/><path class="cls-5" d="M321.75,81.56A2.5,2.5,0,1,0,319.84,77L268.28,98.3"/><path class="cls-5" d="M253.33,109.91l43.08-17.85"/><path class="cls-5" d="M260.78,152.5h120.3a2.5,2.5,0,0,0,0-5H260.78"/><path class="cls-7" d="M260.24,161.36l50.69,5H311a.52.52,0,0,0,.5-.46.5.5,0,0,0-.45-.54l-50.7-5"/><path class="cls-5" d="M252.73,191.61l93.39,28.33a9.72,9.72,0,0,0,2.9.44,10,10,0,0,0,2.9-19.58l-93.39-28.33"/><path class="cls-5" d="M271.61,213.3l-23.17-12.38"/><path class="cls-5" d="M247,203.56l20,10.68"/><path class="cls-5" d="M296.34,244.77l-52.83-35.29"/><path class="cls-5" d="M286.8,244.41l53.95,36a2.46,2.46,0,0,0,1.39.42,2.5,2.5,0,0,0,1.39-4.58"/><line class="cls-5" x1="274.29" y1="236.05" x2="282.49" y2="241.53"/><path class="cls-5" d="M240.73,213.63,270,233.2"/><path class="cls-5" d="M269.68,259.08l-36.2-36.21"/><path class="cls-5" d="M246.4,257l12.68,12.67"/><path class="cls-5" d="M222.87,233.48l18.35,18.35"/><path class="cls-5" d="M200,248.9,256.73,355a2.5,2.5,0,0,0,4.41-2.36L204.43,246.54"/><path class="cls-5" d="M192.62,287.37l-6.48-32.59"/><path class="cls-5" d="M193.78,293.21l16,80.51A15,15,0,0,1,198,391.36a15.58,15.58,0,0,1-2.94.29,15,15,0,0,1-14.7-12.08l-23.66-119"/><path class="cls-5" d="M138.22,295.13l3.41-34.63"/><path class="cls-5" d="M136.65,260l-9.52,96.72a2.49,2.49,0,0,0,2.24,2.73h.25a2.49,2.49,0,0,0,2.48-2.25"/><path class="cls-5" d="M106.69,284.06,121.15,257"/><path class="cls-5" d="M77.06,233.42,62.59,260.49"/><path class="cls-5" d="M69.9,226.57l-85.07,85.06a2.5,2.5,0,0,0,0,3.54,2.49,2.49,0,0,0,1.77.73,2.49,2.49,0,0,0,1.77-.73L73.43,230.1"/><path class="cls-5" d="M55.17,207.35-44.92,274.23a5,5,0,0,0-1.38,6.93,5,5,0,0,0,4.17,2.22,5,5,0,0,0,2.77-.84L60.73,215.66"/><path class="cls-6" d="M46.67,190.09l-68.42,28.35a2.49,2.49,0,0,0-1.35,3.26,2.49,2.49,0,0,0,2.31,1.55,2.49,2.49,0,0,0,.95-.2l68.43-28.34"/><path class="cls-7" d="M39.67,160.36,12,163.09a.5.5,0,0,0,0,1h.05l27.69-2.73"/><path class="cls-5" d="M39.22,147.5H-81.08a2.5,2.5,0,0,0-2.5,2.5,2.5,2.5,0,0,0,2.5,2.5H39.22"/><path class="cls-5" d="M16.84,120.06l24.63,7.47"/><path class="cls-5" d="M47.27,108.39-46.12,80.06a10,10,0,0,0-12.47,6.66A10,10,0,0,0-51.92,99.2L10,118"/><path class="cls-5" d="M27,86,51.56,99.08"/><path class="cls-5" d="M53,96.44,28.43,83.32"/><path class="cls-5" d="M51.56,87.23l4.93,3.29"/><line class="cls-5" x1="41.92" y1="80.79" x2="48.8" y2="85.39"/><path class="cls-5" d="M6,50.79-40.75,19.54a2.5,2.5,0,0,0-3.47.69,2.51,2.51,0,0,0,.69,3.47L39.19,79"/><path class="cls-5" d="M59.27,86.37,10,53.46"/><path class="cls-5" d="M46.83,57.44,66.52,77.13"/><path class="cls-5" d="M30.32,40.92,42.58,53.18"/><path class="cls-5" d="M77.13,66.52,40.92,30.32"/><path class="cls-5" d="M71.06-3,43.27-55a2.5,2.5,0,0,0-3.38-1,2.5,2.5,0,0,0-1,3.38L95.57,53.46"/><path class="cls-5" d="M100,51.1l-25.14-47"/><path class="cls-5" d="M109.68,24.19l4.18,21"/><line class="cls-5" x1="106.79" y1="9.66" x2="108.81" y2="19.82"/><path class="cls-5" d="M143.29,39.4l-23.66-119A15,15,0,0,0,102-91.36,15,15,0,0,0,90.21-73.72L105.84,4.87"/><path class="cls-5" d="M159.46,28.44,158.37,39.5"/><path class="cls-5" d="M167.51-2.32l5.36-54.41a2.49,2.49,0,0,0-2.24-2.73,2.49,2.49,0,0,0-2.73,2.24L160,23"/><path class="cls-5" d="M163.35,40l3.17-32.23"/><path class="cls-6" d="M193.31,15.94,178.85,43"/><path class="cls-5" d="M222.94,66.58l14.47-27.07"/><path class="cls-8" d="M291.78,125.25l-.31,0a6.4,6.4,0,0,1-2.79-.53h0l-30.19-12.37a76,76,0,0,0-40.37-4.79l-12.56,1.93a10,10,0,0,0-8.24,12.07,10.22,10.22,0,0,0,11.61,7.65l6.26-1A39.61,39.61,0,0,1,247.69,138a208,208,0,0,1-32.57,7.84l-22.45,3.05-31.43.82L147.61,146a10,10,0,0,0-12,6.26l-7.33-2.42a10,10,0,1,0-6.27,19l56.4,18.64a10,10,0,0,0,3.95.47l3.11-.25,11.88,7.55a10,10,0,0,0,5.82,1.54l71.69-3.33c19.19-.89,26.27-7.28,45.15-19.4l5.23-75.47S305.8,124.48,291.78,125.25Z"/><path class="cls-7" d="M273.79,118.64l14.88,6.1h0a6.4,6.4,0,0,0,2.79.53l.31,0c14-.77,33.48-26.63,33.48-26.63L320,174.09c-18.88,12.12-26,18.51-45.15,19.4l-41.52,1.93"/><path class="cls-7" d="M205.05,129.1a9.94,9.94,0,0,1,.5-19.59l12.56-1.93a76,76,0,0,1,40.37,4.79l12.5,5.12"/><path class="cls-9" d="M136.86,149.93A10,10,0,0,1,147.61,146l7.59,2"/><line class="cls-9" x1="214.27" y1="176.29" x2="225.24" y2="175.78"/><line class="cls-9" x1="190.15" y1="157.39" x2="170.94" y2="152.27"/><path class="cls-9" d="M226.74,152.57a5.93,5.93,0,0,1-4.58,2.21l-28.35,2.31"/><path class="cls-9" d="M156.24,150.45a10,10,0,0,1,9.15.82l36.78,23.36a12.13,12.13,0,0,0,7.11,1.89"/><path class="cls-9" d="M190.34,167.12l33.68-2.6c2.52-.21,4.29-.49,6.63-2.44"/><path class="cls-9" d="M117.55,152.89a10,10,0,0,1,10.75-3l22.06,7.29"/><path class="cls-9" d="M152.44,160.75l11.33,7.18a2.32,2.32,0,0,1,.77,3.12h0"/><path class="cls-9" d="M117.61,161.54l10.76,3.58a3.11,3.11,0,0,1,2,3.79h0"/><path class="cls-9" d="M247.69,138c4.45-1.45,7.65-3.7,13.06-4.88"/><path class="cls-7" d="M247.69,138h0a39.61,39.61,0,0,0-32.51-9.71l-6.26,1"/><path class="cls-9" d="M167,149.53l25.65-.67s16.84-2.26,22.45-3.05c21.75-3.09,32.57-7.84,32.57-7.84"/><path class="cls-8" d="M167.63,109.18l-13.58-1.41-38.19-14a10,10,0,0,0-7.23.13L52.14,116.92l-.21.1-.57.26-.35.2a4.85,4.85,0,0,0-.49.29,4.56,4.56,0,0,0-.39.27l-.39.28-.43.36L49,119l-.43.45-.17.17-35.2,40-43.06,32.36a10,10,0,0,0-4,8.81l3.44,41.94a10,10,0,0,0,6.34,8.5,10,10,0,0,0,3.63.69,10,10,0,0,0,6.79-2.66L23,215.32c7.08-6.55,12.26-7.08,24.72-5.68,11.29,1.26,33.4-5.77,45.12-10.72l10.47-4.41a10,10,0,0,0,5-13.71c-2.38-4.76-8.19-6.56-13.13-4.59-17.42,7-25.64,7.29-30.18,4.35,1.49-.68,3-1.3,4.41-1.88,8.89-3.61,10.69-12.59,12.43-21.27,1.27-6.33,2.76-13.67,6.61-21.61l13.64-5.14,6.16.33,38,16.78a10,10,0,0,0,12.61-14.29,10,10,0,0,0,6.84-4.4,10,10,0,0,0,1.92-19.9Z"/><path class="cls-10" d="M65,180.57h0c1.49-.68,3-1.3,4.41-1.88,8.89-3.61,10.69-12.59,12.43-21.27,1.27-6.33,2.76-13.67,6.61-21.61l-3.41,1.28L78.9,139.4h0c-5.15,1.94-8.62,7.42-15.3,23.87-2.72,6.7-3.42,12.83-.07,16.11A9.52,9.52,0,0,0,65,180.57Z"/><path class="cls-9" d="M159.67,109.83l2.82,1a10,10,0,0,1-3.92,19.38"/><path class="cls-7" d="M10.48,161.58l-40.33,30.31a10,10,0,0,0-4,8.81l3.44,41.94a10,10,0,0,0,6.34,8.5,10,10,0,0,0,3.63.69,10,10,0,0,0,6.79-2.66L23,215.32c7.08-6.55,12.26-7.08,24.72-5.68,11.29,1.26,33.4-5.77,45.12-10.72l10.47-4.41a10,10,0,0,0,5-4.59"/><path class="cls-9" d="M70.56,120.94a33.68,33.68,0,0,1-9.28,1h0"/><line class="cls-9" x1="105.02" y1="129.56" x2="108.26" y2="130.99"/><path class="cls-9" d="M65,180.57a9.52,9.52,0,0,1-1.48-1.19c-3.35-3.28-2.65-9.41.07-16.11,6.68-16.45,10.15-21.93,15.3-23.87h0l6.15-2.32"/><path class="cls-9" d="M88.58,182.79c-.82,1.32-1,4-.37,6.58a6.41,6.41,0,0,0,8.42,4.28l6.74-2.48"/><line class="cls-9" x1="91.4" y1="181.64" x2="95.59" y2="180.1"/><path class="cls-9" d="M143.51,127.87h0a3.48,3.48,0,0,0,1.77,4.52l10.32,4.69"/><path class="cls-9" d="M154,109.83h0a3.53,3.53,0,0,0,2.13,4.46l8.75,3.21"/><path class="cls-7" d="M109.36,186.05a9.93,9.93,0,0,0-1-5.25c-2.38-4.76-8.19-6.56-13.13-4.59-17.42,7-25.64,7.29-30.18,4.35,1.49-.68,3-1.3,4.41-1.88,8.89-3.61,10.69-12.59,12.43-21.27,1.27-6.33,2.76-13.67,6.61-21.61l13.64-5.14,6.16.33"/><circle class="cls-4" cx="276.67" cy="288.11" r="5.1"/><path class="cls-6" d="M275.5,283.15a5.12,5.12,0,1,1-2.8,1.77"/><circle class="cls-4" cx="57.44" cy="279.63" r="6.8"/><path class="cls-6" d="M64.08,281.11A6.81,6.81,0,1,1,58.92,273a6.63,6.63,0,0,1,1.93.75"/><circle class="cls-4" cx="260.81" cy="10.34" r="6.28"/><path class="cls-6" d="M266.94,11.7a6.28,6.28,0,1,1-4.76-7.5,6.61,6.61,0,0,1,1.78.7"/><circle class="cls-4" cx="284.41" cy="254.78" r="1.92"/><path class="cls-6" d="M284.84,252.9a2.86,2.86,0,0,1,.41.15,1.93,1.93,0,1,1-2.57.88"/><circle class="cls-4" cx="32.35" cy="9.45" r="3.58"/><path class="cls-6" d="M35.59,7.93a3.76,3.76,0,0,1,.26.78A3.58,3.58,0,1,1,31.6,6"/><circle class="cls-4" cx="115.12" cy="299.89" r="3.98"/><path class="cls-6" d="M117.06,296.42a4.73,4.73,0,0,1,.75.54,4,4,0,1,1-5.63.25"/><path class="cls-10" d="M252.35,170a51.12,51.12,0,0,0,21.71-28.06c4.27-13.59,20.38-10.47,25.54,7C276.65,153.09,263.69,165.65,252.35,170Z"/><path class="cls-9" d="M225.24,175.78c30.13-1.4,37.11-13.56,57.61-21.86"/><path class="cls-9" d="M287.14,152.31A96.69,96.69,0,0,1,299.6,149"/><ellipse class="cls-10" cx="105.39" cy="112.71" rx="6.87" ry="3.95"/><ellipse class="cls-10" cx="202.04" cy="192.76" rx="3.95" ry="6.87" transform="translate(-18.08 364.58) rotate(-81.63)"/><ellipse class="cls-10" cx="112.26" cy="97.07" rx="6.87" ry="3.95"/><path class="cls-9" d="M156.18,130.61a10.42,10.42,0,0,0-2.17-1.28l-44.65-19.72a10,10,0,0,0-7.57-.21L74.15,119.82"/><path class="cls-7" d="M108.26,131l38,16.78a10,10,0,0,0,12.61-14.29,10,10,0,0,0,6.84-4.4,10,10,0,0,0,1.92-19.9l-13.58-1.41-38.19-14a10,10,0,0,0-7.23.13L52.14,116.92l-.21.1-.57.26-.35.2a4.85,4.85,0,0,0-.49.29,4.56,4.56,0,0,0-.39.27l-.39.28-.43.36L49,119l-.43.45-.17.17-35.2,40"/><circle class="cls-10" cx="54.9" cy="195.42" r="7.69"/><circle class="cls-10" cx="207.31" cy="119.23" r="6.45"/><path class="cls-10" d="M175.25,181.22a2.74,2.74,0,0,0-1.11,1.76c-.32,2.16,2.46,4.36,6.21,4.91a10.06,10.06,0,0,0,4.8-.38Z"/><path class="cls-7" d="M275.23,193.47l-.35,0-71.69,3.33a10,10,0,0,1-5.82-1.54L155,168.33a10.23,10.23,0,0,1-3.7-13.41,10,10,0,0,1,2.46-3"/><path class="cls-7" d="M182.38,188a10,10,0,0,1-3.95-.47L122.34,169a10.23,10.23,0,0,1-6.73-12.56"/><path class="cls-6" d="M78.83,68.23c5.88-3.41,12.77-5.47,18.72-8.91l.88-.51"/><path class="cls-5" d="M59.62,86.6c2.45-3,5.13-5.8,7.83-8.54"/><path class="cls-5" d="M49.33,106.66a47.62,47.62,0,0,1,4.57-12c.82-1.41,1.71-2.78,2.66-4.13"/><path class="cls-5" d="M75.94,220.53c-3.75-2.57-9-4-13.84-5.79"/><path class="cls-5" d="M80.88,226.29a20.71,20.71,0,0,0-1.33-2.2"/><path class="cls-6" d="M137,256.07c-3.89-2.51-7.69-5.33-11.7-6.83"/><path class="cls-5" d="M148.8,260.94a19.59,19.59,0,0,1-7-2.12"/><path class="cls-5" d="M156.77,260.94c-1.54,0-3.08,0-4.61.05"/><path class="cls-5" d="M197.92,245c-3.9,3.2-7.6,7.06-11.72,9.92"/><path class="cls-5" d="M207.91,239.33a26.11,26.11,0,0,0-5.17,2.2L202,242"/><path class="cls-5" d="M224.33,234.93c-4.06,1.57-8.78,2.37-13.21,3.49"/><path class="cls-5" d="M243.44,215.44a124.09,124.09,0,0,1-7.49,9.9"/><path class="cls-5" d="M249.92,204.79c-.39.81-.81,1.6-1.25,2.37q-1.17,2-2.48,4.1"/><path class="cls-5" d="M253.07,196.66c-.61,1.94-1.27,3.83-2,5.65"/><path class="cls-5" d="M246.44,91.58c.46.71.91,1.44,1.33,2.17a34,34,0,0,1,3.67,11.53"/><path class="cls-5" d="M230.24,73.29c3.33,3.3,6.84,6.74,10,10.37"/><path class="cls-5" d="M223.3,65.9c1.15,1.31,2.29,2.6,3.44,3.82"/><path class="cls-5" d="M163.44,39.05A107.25,107.25,0,0,1,179,41.93l.35.09"/><path class="cls-5" d="M143.3,39.43A21.69,21.69,0,0,1,150,38.28c2.78,0,5.61.11,8.45.31"/><path class="cls-5" d="M102.81,56.42A100.5,100.5,0,0,1,114.9,51"/><path class="cls-4" d="M271.52-18.86l16.25-16.26a13.33,13.33,0,0,1,17.57-1.3,13.13,13.13,0,0,1,1.2,19.58L252.68,37a13.33,13.33,0,0,1-17.57,1.31,13.14,13.14,0,0,1-1.2-19.59l1-1a10.27,10.27,0,0,0,.9-13.69,10.08,10.08,0,0,0-14.89-.74L210.45,13.8,190,34.25a6.72,6.72,0,0,1-8.77.76,6.58,6.58,0,0,1-.66-9.85l59.75-59.75a6.58,6.58,0,0,1,9.26,0l.93.94,6.85-6.85a8.43,8.43,0,0,1,10.86-1,8.28,8.28,0,0,1,1,12.53l-3.92,3.91a4.42,4.42,0,0,0,0,6.23A4.41,4.41,0,0,0,271.52-18.86Z"/><path class="cls-7" d="M190,34.25a6.72,6.72,0,0,1-8.77.76,6.58,6.58,0,0,1-.66-9.85l40.93-40.93"/><line class="cls-7" x1="196.42" y1="27.82" x2="192.73" y2="31.51"/><path class="cls-7" d="M233.91,18.74l1-1a10.27,10.27,0,0,0,.9-13.69,10.08,10.08,0,0,0-14.89-.74L210.45,13.8,199.08,25.16"/><path class="cls-7" d="M297.42-7.72,252.68,37a13.33,13.33,0,0,1-17.57,1.31"/><line class="cls-7" x1="254.17" y1="-1.51" x2="252.54" y2="0.12"/><line class="cls-7" x1="220.91" y1="3.33" x2="227.79" y2="-3.55"/><path class="cls-4" d="M-4.14,145.51l16.25-16.26A13.33,13.33,0,0,1,29.68,128a13.13,13.13,0,0,1,1.2,19.58L-23,201.39a13.35,13.35,0,0,1-17.57,1.31,13.14,13.14,0,0,1-1.2-19.59l1-1a10.27,10.27,0,0,0,.9-13.69,10.08,10.08,0,0,0-14.89-.74l-10.46,10.47-20.46,20.45a6.72,6.72,0,0,1-8.77.76,6.58,6.58,0,0,1-.66-9.85l59.75-59.75a6.58,6.58,0,0,1,9.26,0l.93.94,6.85-6.85a8.42,8.42,0,0,1,10.86-1,8.28,8.28,0,0,1,1,12.53l-3.92,3.91a4.42,4.42,0,0,0,0,6.23A4.41,4.41,0,0,0-4.14,145.51Z"/><path class="cls-7" d="M-50.79,145.22l15.44-15.44a6.58,6.58,0,0,1,9.26,0l.93.94,6.85-6.85a8.42,8.42,0,0,1,10.86-1,8.28,8.28,0,0,1,1,12.53l-3.92,3.91a4.42,4.42,0,0,0,0,6.23,4.41,4.41,0,0,0,6.23,0l16.25-16.26"/><path class="cls-7" d="M21.76,156.65-23,201.39a13.35,13.35,0,0,1-17.57,1.31"/><line class="cls-7" x1="24.05" y1="154.36" x2="29.25" y2="149.16"/><line class="cls-7" x1="31.51" y1="146.85" x2="35.09" y2="143.27"/><line class="cls-7" x1="29.71" y1="134.46" x2="21.16" y2="143.02"/><line class="cls-7" x1="17.74" y1="146.44" x2="15.04" y2="149.13"/><path class="cls-8" d="M216.94,45.32l21.44-21.45a4.38,4.38,0,0,1,6.19,6.19L223.12,51.5a4.37,4.37,0,0,1-6.18-6.18Z"/><path class="cls-7" d="M235.82,26.44l2.56-2.57a4.38,4.38,0,0,1,6.19,6.19L223.12,51.5a4.37,4.37,0,0,1-6.18-6.18"/><line class="cls-7" x1="225.95" y1="36.3" x2="233.25" y2="29"/><line class="cls-7" x1="219.46" y1="42.79" x2="223.39" y2="38.87"/><path class="cls-8" d="M35.67,253.67l16.26-16.25a13.33,13.33,0,0,0,1.3-17.57,13.13,13.13,0,0,0-19.58-1.2l-53.86,53.86a13.33,13.33,0,0,0-1.3,17.57,13.13,13.13,0,0,0,19.58,1.2l1-1a10.26,10.26,0,0,1,13.69-.89,10.07,10.07,0,0,1,.75,14.88L3,314.75-17.44,335.2a6.71,6.71,0,0,0-.75,8.77,6.56,6.56,0,0,0,9.84.67L51.4,284.88a6.56,6.56,0,0,0,0-9.26l-.93-.93,6.84-6.85a8.42,8.42,0,0,0,1-10.86,8.27,8.27,0,0,0-12.53-1L41.9,259.9a4.41,4.41,0,0,1-6.23-6.23Z"/><path class="cls-4" d="M56.77,304.07a5.22,5.22,0,0,0,7.37,0l6.4-6.39a5.21,5.21,0,0,0-7.37-7.37l-6.4,6.4A5.23,5.23,0,0,0,56.77,304.07Z"/><path class="cls-8" d="M75.65,269.59l9.21-9.21a3.26,3.26,0,1,0-4.6-4.61L71.05,265a3.26,3.26,0,0,0,4.6,4.61Z"/><path class="cls-4" d="M.54,242.06,22,220.61a4.37,4.37,0,0,0-6.19-6.18L-5.64,235.87a4.39,4.39,0,0,0,0,6.19A4.38,4.38,0,0,0,.54,242.06Z"/><rect class="cls-8" x="61.82" y="228.39" width="16.56" height="8.15" rx="4.07" transform="translate(-143.84 117.65) rotate(-45)"/><circle class="cls-8" cx="37.21" cy="205.35" r="4.37" transform="translate(-134.31 86.45) rotate(-45)"/><path class="cls-7" d="M24.54,227.77l-44.75,44.74a13.33,13.33,0,0,0-1.3,17.57,13.11,13.11,0,0,0,14.9,4.2"/><line class="cls-11" x1="35.67" y1="253.67" x2="27.21" y2="262.14"/><line class="cls-11" x1="24.49" y1="264.85" x2="21.04" y2="268.31"/><line class="cls-12" x1="18.33" y1="271.02" x2="16.7" y2="272.65"/><line class="cls-11" x1="13.49" y1="304.28" x2="20.36" y2="297.4"/><line class="cls-11" x1="22.57" y1="295.2" x2="24.08" y2="293.68"/><line class="cls-11" x1="47.92" y1="277.23" x2="43.7" y2="281.46"/><line class="cls-11" x1="41.28" y1="283.88" x2="39.24" y2="285.92"/><line class="cls-7" x1="26.82" y1="225.48" x2="32.02" y2="220.29"/><line class="cls-7" x1="34.33" y1="218.03" x2="37.91" y2="214.44"/><path class="cls-7" d="M54.86,233.06a13.48,13.48,0,0,0,.93-7.33"/><line class="cls-11" x1="46.72" y1="219.82" x2="38.17" y2="228.38"/><line class="cls-11" x1="34.75" y1="231.8" x2="32.05" y2="234.49"/><path class="cls-7" d="M67.93,228.87l-3.69,3.68a4.1,4.1,0,0,0,0,5.77h0a4.1,4.1,0,0,0,5.77,0L76,232.37a4.07,4.07,0,0,0,0-5.76h0a4.07,4.07,0,0,0-5.76,0"/><path class="cls-7" d="M19.42,223.18,22,220.61a4.37,4.37,0,0,0-6.19-6.18L-5.64,235.87a4.39,4.39,0,0,0,0,6.19,4.38,4.38,0,0,0,6.18,0"/><line class="cls-7" x1="9.55" y1="233.05" x2="16.86" y2="225.74"/><line class="cls-7" x1="3.07" y1="239.53" x2="6.99" y2="235.61"/><path class="cls-8" d="M231.64,123.26l21.44-21.44a4.37,4.37,0,1,0-6.18-6.18l-21.45,21.44a4.37,4.37,0,0,0,6.19,6.18Z"/><path class="cls-7" d="M250.51,104.38l2.57-2.56a4.37,4.37,0,1,0-6.18-6.18l-13.54,13.53"/><line class="cls-7" x1="244.3" y1="110.6" x2="247.95" y2="106.95"/><path class="cls-7" d="M36.7,201a4.34,4.34,0,0,0-2.59,1.25,4.37,4.37,0,1,0,6.19,0"/><path class="cls-7" d="M66.47,288.8a5.2,5.2,0,0,0-3.3,1.51l-6.4,6.4a5.21,5.21,0,1,0,7.37,7.36l6.4-6.39a5.24,5.24,0,0,0,0-7.37"/><path class="cls-4" d="M155.65,188.5a5.22,5.22,0,0,0,7.37,0l6.4-6.39a5.21,5.21,0,1,0-7.37-7.37l-6.4,6.4A5.23,5.23,0,0,0,155.65,188.5Z"/><path class="cls-7" d="M166.38,185.15l3-3a5.24,5.24,0,0,0,0-7.37"/><path class="cls-7" d="M165.36,173.23a5.2,5.2,0,0,0-3.31,1.51l-6.4,6.4"/><line class="cls-7" x1="79.09" y1="266.15" x2="82.4" y2="262.85"/><path class="cls-7" d="M84.86,260.38a3.26,3.26,0,1,0-4.6-4.61L71.05,265a3.26,3.26,0,0,0,4.6,4.61L77.26,268"/><path class="cls-7" d="M-1.93,291.28l1-1a10.26,10.26,0,0,1,13.69-.89,10.07,10.07,0,0,1,.75,14.88L3,314.75-8.35,326.11"/><path class="cls-7" d="M36,300.32,51.4,284.88a6.56,6.56,0,0,0,0-9.26l-.93-.93,6.84-6.85a8.42,8.42,0,0,0,1-10.86,8.27,8.27,0,0,0-12.53-1L41.9,259.9a4.41,4.41,0,0,1-6.23-6.23l16.26-16.25"/><rect class="cls-4" x="101.96" y="126.8" width="18.56" height="7.72" rx="3.86" transform="translate(-59.81 116.93) rotate(-45)"/><path class="cls-7" d="M114.17,123.08a3.66,3.66,0,0,1,1.36-.08"/><path class="cls-7" d="M108.79,127.65l3.4-3.4"/><path class="cls-7" d="M103.38,133.06l3.82-3.82"/><path class="cls-7" d="M117.8,124.1h0a3.86,3.86,0,0,1,0,5.46l-5.19,5.19"/><rect class="cls-4" x="-26.51" y="274.9" width="59.93" height="24.94" rx="12.47" transform="translate(-202.19 86.61) rotate(-45)"/><path class="cls-7" d="M11.13,263.45a12.65,12.65,0,0,1,8-.47"/><path class="cls-7" d="M-5.65,278.84,6.53,266.66"/><path class="cls-7" d="M24.64,266.18h0a12.51,12.51,0,0,1,0,17.64L-.1,308.56a12.5,12.5,0,0,1-17.63,0h0a12.51,12.51,0,0,1,0-17.64l8.13-8.13"/><rect class="cls-8" x="59.91" y="106.43" width="22.91" height="9.54" rx="4.77" transform="translate(-57.73 83.04) rotate(-45)"/><path class="cls-7" d="M74.31,102.06a4.73,4.73,0,0,1,3.06-.18"/><path class="cls-7" d="M67.89,107.94l4.66-4.66"/><path class="cls-7" d="M63.27,112.56l3.11-3.11"/><path class="cls-7" d="M79.47,103.1h0a4.77,4.77,0,0,1,0,6.74"/><circle class="cls-4" cx="52.37" cy="227.77" r="6.56"/><path class="cls-7" d="M54.92,221.73a6.6,6.6,0,0,1,3.33,3.13"/><path class="cls-7" d="M58.92,227.77a6.56,6.56,0,1,1-6.55-6.56"/><circle class="cls-4" cx="210.27" cy="177.19" r="4.97"/><path class="cls-7" d="M212.21,172.61a5,5,0,0,1,2.52,2.38"/><path class="cls-7" d="M215.24,177.19a5,5,0,1,1-5-5"/><circle class="cls-4" cx="241" cy="133.09" r="5.44"/><path class="cls-7" d="M244.11,128.63a5.46,5.46,0,0,1,2.16,3.12"/><path class="cls-7" d="M235.68,132a5.42,5.42,0,0,1,6.45-4.18"/><path class="cls-7" d="M246.32,134.22a5.5,5.5,0,0,1-1.54,2.78"/><circle class="cls-4" cx="62.1" cy="192.81" r="2.71"/><path class="cls-7" d="M63.79,190.68a2.71,2.71,0,1,0,1,2.13"/><path class="cls-8" d="M197.77,27.92l-5.23,5.23a8,8,0,0,0-1.9-3,8.22,8.22,0,0,0-11.58,0l-26.5,26.5A8.18,8.18,0,0,0,164.13,68.2L185.38,47a6.06,6.06,0,0,0,.65.79h0a5.75,5.75,0,0,0,8.09,0L205.86,36a5.73,5.73,0,0,0,0-8.09h0A5.73,5.73,0,0,0,197.77,27.92Z"/><path class="cls-7" d="M192.54,33.15a8,8,0,0,0-1.9-3,8.22,8.22,0,0,0-11.58,0"/><path class="cls-7" d="M197.77,27.92l-2.56,2.56"/><path class="cls-7" d="M204.19,37.69,205.86,36"/><line class="cls-7" x1="196.49" y1="45.38" x2="201.97" y2="39.91"/><path class="cls-7" d="M170.11,62.22,185.38,47a6.06,6.06,0,0,0,.65.79h0a5.75,5.75,0,0,0,8.09,0"/><path class="cls-7" d="M174.23,35,152.56,56.62A8.18,8.18,0,0,0,164.13,68.2l2.43-2.43"/><path class="cls-8" d="M130.49,102l11.18-11.17a6,6,0,0,1,8.42,0h0a6,6,0,0,1,0,8.42l-11.18,11.17"/><path class="cls-7" d="M147.77,101.53l-5.58,5.57"/><path class="cls-7" d="M151.7,93.76a6,6,0,0,1-1.61,5.45"/><path class="cls-7" d="M130.49,102l11.18-11.17a6,6,0,0,1,8.42,0h0"/><circle class="cls-4" cx="129.72" cy="140.57" r="2.6"/><path class="cls-7" d="M127.24,139.76a2.6,2.6,0,0,1,5,1.62,2.58,2.58,0,0,1-1.23,1.47"/><circle class="cls-13" cx="131.46" cy="120.94" r="2.13"/><circle class="cls-14" cx="108.79" cy="79.14" r="3.19"/><path class="cls-15" d="M180.54,87a5.55,5.55,0,1,1-3.95,1.65"/><path class="cls-16" d="M286.92,122.88a4.07,4.07,0,1,1-7-2.81"/><rect class="cls-4" x="200.69" y="195.64" width="23.93" height="9.67" rx="4.84" transform="translate(504.77 191.87) rotate(135)"/><path class="cls-7" d="M208.45,197.84l5.82-5.83a4.85,4.85,0,0,1,6.84,0h0a4.85,4.85,0,0,1,0,6.84"/><path class="cls-8" d="M244.7,51.92l21.63-21.63,9.18-9.18,4.87-4.87a3.83,3.83,0,0,0,.59-4.75,3.74,3.74,0,0,0-5.78-.62l-5,5-2.32,2.32a5.56,5.56,0,0,1-7.39.55,5.39,5.39,0,0,1-.41-8l17.95-18L305.81-35a5.58,5.58,0,0,1,7.39-.55,5.41,5.41,0,0,1,.41,8L321-20.16l-20,20a6.37,6.37,0,0,0,0,9h0a9.38,9.38,0,0,1,0,13.23L258.13,65"/><line class="cls-7" x1="261.45" y1="61.63" x2="258.13" y2="64.95"/><line class="cls-7" x1="275.46" y1="47.62" x2="264.41" y2="58.67"/><path class="cls-7" d="M271.69-.87l6.37-6.38L305.81-35a5.58,5.58,0,0,1,7.39-.55,5.41,5.41,0,0,1,.41,8L321-20.16l-20,20a6.37,6.37,0,0,0,0,9h0a9.38,9.38,0,0,1,0,13.23L278.15,44.92"/><line class="cls-7" x1="263.78" y1="7.04" x2="268.95" y2="1.87"/><path class="cls-7" d="M262.23,34.39l4.1-4.1,9.18-9.18,4.87-4.87a3.83,3.83,0,0,0,.59-4.75,3.74,3.74,0,0,0-5.78-.62l-5,5-2.32,2.32a5.56,5.56,0,0,1-7.39.55,5.39,5.39,0,0,1-.41-8"/><line class="cls-7" x1="254.73" y1="41.89" x2="258.94" y2="37.68"/><path class="cls-4" d="M324.19,23.87,297.75,50.32a11.9,11.9,0,0,1-16.77,0h0a11.9,11.9,0,0,1,0-16.77L307.43,7.11"/><path class="cls-7" d="M278.84,47.39A11.92,11.92,0,0,1,281,33.55l6.15-6.14"/><path class="cls-7" d="M286.34,53.39A11.87,11.87,0,0,1,281,50.32h0"/><path class="cls-7" d="M324.19,23.87,297.75,50.32a11.81,11.81,0,0,1-7.8,3.44"/><path class="cls-8" d="M182.49,149.6l6.62-6.63a9.8,9.8,0,0,1,13.8,0h0a9.73,9.73,0,0,1,2.67,8.77"/><path class="cls-9" d="M204.68,145.38a9.8,9.8,0,0,1,1.08,4.41"/><path class="cls-9" d="M198.51,140.45a9.66,9.66,0,0,1,4.4,2.52h0"/><path class="cls-9" d="M182.49,149.6l6.62-6.63a9.75,9.75,0,0,1,6.42-2.83"/><path class="cls-17" d="M245.14,238a10.4,10.4,0,0,1-4.46-.89c-2.48-1.16-3.83-3.35-4.92-5.11-.29-.47-.58-.94-.89-1.37s-.71-.95-1.09-1.42c-1.36-1.7-2.9-3.62-3.13-6.23a17.81,17.81,0,0,1,1.6-8.85c1.19-2.55,3.44-4,5.26-5.21l1.14-.75c2-1.45,4.61-3.24,7.82-3.53l.86-.08c2.43-.24,5.44-.54,8.14.71s4.52,3.83,5.94,5.88l.4.57a16.9,16.9,0,0,1,2.65,8.25,16.3,16.3,0,0,1-15,17.68l-1.14.12A27.19,27.19,0,0,1,245.14,238Zm5.54-28.66c-.94,0-1.92.1-2.85.19l-.91.09c-1.88.17-3.59,1.37-5.4,2.64-.41.29-.84.57-1.28.85-1.48,1-2.87,1.88-3.45,3.13h0a12.94,12.94,0,0,0-1.15,6.29c.1,1.11,1.05,2.3,2.05,3.55.43.53.88,1.09,1.29,1.68s.7,1.06,1,1.61c.89,1.44,1.66,2.68,2.78,3.2,1.35.63,3.09.44,4.93.23l1.24-.13a10.87,10.87,0,0,0,9.33-6.44,11.15,11.15,0,0,0,1.19-5.82,11.72,11.72,0,0,0-1.77-5.82l-.41-.59c-1.13-1.64-2.41-3.49-3.93-4.19A6.53,6.53,0,0,0,250.68,209.38Zm-16.16,5.85h0Z"/><path class="cls-18" d="M220.09,311a9.47,9.47,0,0,1-4-.8c-2.21-1-3.42-3-4.49-4.73-.31-.49-.6-1-.92-1.42s-.74-1-1.13-1.47c-1.27-1.59-2.71-3.38-2.92-5.69a16.83,16.83,0,0,1,1.52-8.34c1.06-2.29,3.1-3.62,4.89-4.79.4-.26.79-.51,1.17-.78,2.06-1.44,4.4-3.08,7.34-3.34l.88-.09c2.3-.23,5.16-.51,7.61.63s4.19,3.59,5.54,5.54l.4.57a15.49,15.49,0,0,1,2.47,7.76,15.15,15.15,0,0,1-1.54,7.87,14.91,14.91,0,0,1-12.6,8.74l-1.16.12A29.36,29.36,0,0,1,220.09,311Zm5.55-28.66a28.07,28.07,0,0,0-2.93.2l-.91.08c-2.14.2-4.05,1.53-5.89,2.82-.4.28-.82.56-1.25.83-1.6,1-3.11,2-3.81,3.55a13.93,13.93,0,0,0-1.25,6.8c.13,1.41,1.17,2.71,2.27,4.08.43.54.86,1.08,1.25,1.63s.68,1,1,1.56c.93,1.51,1.81,2.94,3.21,3.59,1.6.74,3.48.53,5.46.31l1.22-.12a12.05,12.05,0,0,0,6-2.08,11.87,11.87,0,0,0,4.1-4.94,12,12,0,0,0,1.27-6.33A12.66,12.66,0,0,0,233.5,288l-.41-.59c-1.2-1.73-2.56-3.7-4.33-4.52A7.36,7.36,0,0,0,225.64,282.3Z"/><path class="cls-18" d="M281,115.94a9.08,9.08,0,0,1-3.91-.82A9.87,9.87,0,0,1,272.9,111c-.11-.19-.23-.38-.35-.56l-.44-.57a9.52,9.52,0,0,1-2.47-5.29,13.06,13.06,0,0,1,1.18-6.6A10.32,10.32,0,0,1,275,93.67l.5-.34a12.1,12.1,0,0,1,6-2.53l.43,0a11.53,11.53,0,0,1,6.25.71,11.87,11.87,0,0,1,4.65,4.38l.2.29a12.4,12.4,0,0,1,2.06,6.18,12.82,12.82,0,0,1-5.32,11.29,12,12,0,0,1-6,2.14l-.54.06A17.51,17.51,0,0,1,281,115.94Zm.84-9.51Zm-2.25-3.19.3.38c.28.35.57.72.83,1.08s.45.68.67,1l.11.17.49,0,.74-.07a2.37,2.37,0,0,0,1.2-.37,2.91,2.91,0,0,0,1.1-2.21,3.14,3.14,0,0,0-.29-1.34l-.23-.34c-.2-.28-.46-.65-.66-.91-.31,0-.72,0-1,.09l-.43,0a8.78,8.78,0,0,0-1.2.77l-.79.52c-.2.13-.47.3-.64.43A3.35,3.35,0,0,0,279.61,103.24Zm0,.44h0Zm0-1.08Zm.27-.41Zm2.43-1.44h0Zm1.87-.12Zm-8.83-.55h0Z"/><path class="cls-17" d="M3.05,84.85a8.94,8.94,0,0,1-3.84-.77A10.28,10.28,0,0,1-5,79.7c-.23-.38-.46-.75-.71-1.11s-.58-.76-.89-1.14a10.24,10.24,0,0,1-2.67-5.37,15.17,15.17,0,0,1,1.36-7.5h0a11.12,11.12,0,0,1,4.49-4.47c.31-.21.63-.41.92-.62,1.74-1.22,3.9-2.73,6.65-3l.71-.07c2.05-.2,4.6-.46,6.93.63s3.87,3.25,5.06,5l.33.47a14.32,14.32,0,0,1,2.26,7A13.65,13.65,0,0,1,18,76.64a13.47,13.47,0,0,1-4.62,5.55,13.66,13.66,0,0,1-6.79,2.38l-.92.09A23.55,23.55,0,0,1,3.05,84.85ZM-3.42,66.68h0a10.21,10.21,0,0,0-.91,4.95,6.26,6.26,0,0,0,1.6,2.69c.37.47.74.93,1.07,1.4s.59.89.87,1.35a6.19,6.19,0,0,0,2.1,2.47,7.63,7.63,0,0,0,3.83.15l1-.1a8.5,8.5,0,0,0,7.32-5A8.75,8.75,0,0,0,14.42,70a9.27,9.27,0,0,0-1.37-4.58l-.35-.49c-.89-1.3-1.91-2.77-3-3.3s-2.81-.33-4.33-.18l-.76.07A9.62,9.62,0,0,0,.33,63.58l-1.06.72A7.18,7.18,0,0,0-3.42,66.68Z"/><path class="cls-18" d="M36.91,6.11c-.37-1.54.35-3.06.76-4.48a8.67,8.67,0,0,1,2-4c1.07-1,2.29-2.36,3.83-2.73s3.25.22,4.67.64a8.76,8.76,0,0,1,3.72,2.51,8.37,8.37,0,0,1,2,3.91,8.22,8.22,0,0,1-.09,4.38,8.13,8.13,0,0,1-2.34,3.68c-1.07,1-2.12,2.3-3.66,2.67s-3-.44-4.43-.86-3.19-.52-4.24-1.63A9.33,9.33,0,0,1,36.91,6.11Z"/><path class="cls-17" d="M78.08,72.7a14.49,14.49,0,0,1-6.2-1.26c-3.54-1.65-5.44-4.71-6.82-7-.33-.54-.66-1.07-1-1.57s-.79-1.05-1.25-1.62c-1.73-2.16-3.89-4.85-4.22-8.62A23.51,23.51,0,0,1,60.7,41c1.67-3.61,4.67-5.56,7.08-7.14.46-.29.9-.58,1.33-.88,2.69-1.88,6-4.23,10.45-4.62l1-.1c3.18-.32,7.14-.72,10.9,1s6.24,5.25,8,7.79l.48.68a22.3,22.3,0,0,1,3.56,11,21.43,21.43,0,0,1-2.15,11.16A21.23,21.23,0,0,1,83.47,72.27l-1.34.14A35.52,35.52,0,0,1,78.08,72.7Zm6.78-34.77c-1,0-2.2.12-3.29.23l-1.12.11c-1.64.14-3.28,1.22-5.6,2.85-.52.36-1.06.71-1.6,1.07-1.55,1-3,2-3.48,3h0a13.74,13.74,0,0,0-1.23,6.62c.07.76,1.14,2.08,2.07,3.25.54.67,1.1,1.37,1.64,2.14s.91,1.38,1.32,2c.88,1.42,1.71,2.75,2.53,3.14,1.14.53,3,.32,4.94.1l1.55-.15a11.25,11.25,0,0,0,9.71-6.69,11.65,11.65,0,0,0,1.26-6.05,12.49,12.49,0,0,0-1.79-6.12l-.51-.73C90,41,88.63,39,87.27,38.31A6,6,0,0,0,84.86,37.93ZM65.23,43.06h0Z"/><path class="cls-17" d="M87.54,9.44C85.88,7.25,86,4.35,85.65,1.81S85-3.42,86-5.85s2-5.33,4.19-7,5.31-1.88,7.85-2.2a15,15,0,0,1,7.63,1.41,14.35,14.35,0,0,1,5.91,4.81,14.13,14.13,0,0,1,2.88,7,14.11,14.11,0,0,1-1.16,7.46c-1,2.36-1.78,5.11-4,6.77s-5.08,1.38-7.62,1.69-5.42,1.37-7.86.35A16.18,16.18,0,0,1,87.54,9.44Z"/><path class="cls-17" d="M279.38,287.23c1.1-2.37,3.57-3.58,5.56-5s4.11-2.85,6.61-3.08,5.37-.69,7.73.41,3.94,3.62,5.34,5.61a14.35,14.35,0,0,1,2.21,7,14.65,14.65,0,0,1-6,12.63A13.43,13.43,0,0,1,294,307.2c-2.42.22-5.08.78-7.44-.32s-3.42-3.66-4.82-5.65-3.56-3.94-3.78-6.44A15.28,15.28,0,0,1,279.38,287.23Z"/><path class="cls-17" d="M277.89,49.72c1.41-3,4.61-4.62,7.18-6.42s5.3-3.69,8.53-4,6.92-.89,10,.53,5.09,4.67,6.89,7.24a18.4,18.4,0,0,1,2.85,9.08,17.58,17.58,0,0,1-1.82,9.16A17.24,17.24,0,0,1,296.81,75.5c-3.12.28-6.56,1-9.61-.42s-4.41-4.72-6.21-7.29-4.6-5.08-4.89-8.31A19.79,19.79,0,0,1,277.89,49.72Z"/><path class="cls-17" d="M115.67,245c2.57-2.07,6.06-2.06,9.1-2.52s6.26-.93,9.22.22,6.47,2.22,8.54,4.8,2.43,6.31,2.9,9.35A18,18,0,0,1,144,266.1a17.29,17.29,0,0,1-5.58,7.26,16.93,16.93,0,0,1-17.32,2.55c-2.86-1.12-6.19-2-8.26-4.55s-1.82-6.07-2.29-9.11-1.82-6.46-.67-9.42A19.36,19.36,0,0,1,115.67,245Z"/><circle class="cls-8" cx="229.6" cy="9.66" r="12.49" transform="translate(-0.17 5.66) rotate(-1.41)"/><path class="cls-7" d="M242.09,9.35a12.49,12.49,0,1,0-12.18,12.8"/><circle class="cls-4" cx="242.09" cy="9.66" r="4.37" transform="translate(64.08 174.01) rotate(-45)"/><path class="cls-7" d="M246.43,10.17a4.31,4.31,0,0,1-1.25,2.58,4.37,4.37,0,1,1,0-6.18"/><path class="cls-6" d="M277.89,49.72c1.41-3,4.61-4.62,7.18-6.42s5.3-3.69,8.53-4,6.92-.89,10,.53,5.09,4.67,6.89,7.24a18.4,18.4,0,0,1,2.85,9.08,17.58,17.58,0,0,1-1.82,9.16A17.24,17.24,0,0,1,296.81,75.5c-3.12.28-6.56,1-9.61-.42s-4.41-4.72-6.21-7.29-4.6-5.08-4.89-8.31A19.79,19.79,0,0,1,277.89,49.72Z"/><path class="cls-6" d="M281,115.94a9.08,9.08,0,0,1-3.91-.82A9.87,9.87,0,0,1,272.9,111c-.11-.19-.23-.38-.35-.56l-.44-.57a9.52,9.52,0,0,1-2.47-5.29,13.06,13.06,0,0,1,1.18-6.6A10.32,10.32,0,0,1,275,93.67l.5-.34a12.1,12.1,0,0,1,6-2.53l.43,0a11.53,11.53,0,0,1,6.25.71,11.87,11.87,0,0,1,4.65,4.38l.2.29a12.4,12.4,0,0,1,2.06,6.18,12.82,12.82,0,0,1-5.32,11.29,12,12,0,0,1-6,2.14l-.54.06A17.51,17.51,0,0,1,281,115.94Zm.84-9.51Zm-2.25-3.19.3.38c.28.35.57.72.83,1.08s.45.68.67,1l.11.17.49,0,.74-.07a2.37,2.37,0,0,0,1.2-.37,2.91,2.91,0,0,0,1.1-2.21,3.14,3.14,0,0,0-.29-1.34l-.23-.34c-.2-.28-.46-.65-.66-.91-.31,0-.72,0-1,.09l-.43,0a8.78,8.78,0,0,0-1.2.77l-.79.52c-.2.13-.47.3-.64.43A3.35,3.35,0,0,0,279.61,103.24Zm0,.44h0Zm0-1.08Zm.27-.41Zm2.43-1.44h0Zm1.87-.12Z"/><path class="cls-6" d="M279.38,287.23c1.1-2.37,3.57-3.58,5.56-5s4.11-2.85,6.61-3.08,5.37-.69,7.73.41,3.94,3.62,5.34,5.61a14.35,14.35,0,0,1,2.21,7,14.65,14.65,0,0,1-6,12.63A13.43,13.43,0,0,1,294,307.2c-2.42.22-5.08.78-7.44-.32s-3.42-3.66-4.82-5.65-3.56-3.94-3.78-6.44A15.28,15.28,0,0,1,279.38,287.23Z"/><path class="cls-6" d="M231.67,308.09a14.89,14.89,0,0,1-7.38,2.53l-1.16.12a29.36,29.36,0,0,1-3,.22,9.47,9.47,0,0,1-4-.8c-2.21-1-3.42-3-4.49-4.73-.31-.49-.6-1-.92-1.42s-.74-1-1.13-1.47c-1.27-1.59-2.71-3.38-2.92-5.69a16.83,16.83,0,0,1,1.52-8.34c1.06-2.29,3.1-3.62,4.89-4.79.4-.26.79-.51,1.17-.78a30.31,30.31,0,0,1,3-1.93m4.89-1.47.33,0c2.3-.23,5.16-.51,7.61.63s4.19,3.59,5.54,5.54l.4.57a15.49,15.49,0,0,1,2.47,7.76,15.15,15.15,0,0,1-1.54,7.87,16,16,0,0,1-1.5,2.58m-1.63-3a8.56,8.56,0,0,0,.41-.8,12,12,0,0,0,1.27-6.33A12.66,12.66,0,0,0,233.5,288l-.41-.59c-1.2-1.73-2.56-3.7-4.33-4.52a7.36,7.36,0,0,0-3.12-.56c-.67,0-1.36.05-2,.11m-5,1.24a30.13,30.13,0,0,0-2.69,1.75c-.4.28-.82.56-1.25.83-1.6,1-3.11,2-3.81,3.55a13.93,13.93,0,0,0-1.25,6.8c.13,1.41,1.17,2.71,2.27,4.08.43.54.86,1.08,1.25,1.63s.68,1,1,1.56c.93,1.51,1.81,2.94,3.21,3.59,1.6.74,3.48.53,5.46.31l1.22-.12a12.05,12.05,0,0,0,6-2.08l.17-.12"/><path class="cls-5" d="M247.33,204.6c2.43-.24,5.44-.54,8.14.71s4.52,3.83,5.94,5.88l.4.57a16.9,16.9,0,0,1,2.65,8.25,16.3,16.3,0,0,1-15,17.68l-1.14.12a27.19,27.19,0,0,1-3.13.23,10.4,10.4,0,0,1-4.46-.89m10-27.77c-.94,0-1.92.1-2.85.19l-.91.09c-1.88.17-3.59,1.37-5.4,2.64-.41.29-.84.57-1.28.85-1.48,1-2.87,1.88-3.45,3.13h0a12.94,12.94,0,0,0-1.15,6.29c.1,1.11,1.05,2.3,2.05,3.55.43.53.88,1.09,1.29,1.68s.7,1.06,1,1.61c.89,1.44,1.66,2.68,2.78,3.2,1.35.63,3.09.44,4.93.23l1.24-.13a10.87,10.87,0,0,0,9.33-6.44,11.15,11.15,0,0,0,1.19-5.82,11.72,11.72,0,0,0-1.77-5.82l-.41-.59c-1.13-1.64-2.41-3.49-3.93-4.19A6.53,6.53,0,0,0,250.68,209.38Z"/><path class="cls-5" d="M145.43,256.88A18,18,0,0,1,144,266.1a17.29,17.29,0,0,1-5.58,7.26,16.93,16.93,0,0,1-17.32,2.55c-2.86-1.12-6.19-2-8.26-4.55"/><path class="cls-5" d="M18.49,65.14a17.19,17.19,0,0,1,.91,4.39A13.65,13.65,0,0,1,18,76.64a13.47,13.47,0,0,1-4.62,5.55,13.66,13.66,0,0,1-6.79,2.38l-.92.09a23.55,23.55,0,0,1-2.64.19,8.94,8.94,0,0,1-3.84-.77A10.28,10.28,0,0,1-5,79.7c-.23-.38-.46-.75-.71-1.11s-.58-.76-.89-1.14a10.24,10.24,0,0,1-2.67-5.37,15.17,15.17,0,0,1,1.36-7.5h0a11.12,11.12,0,0,1,4.49-4.47c.31-.21.63-.41.92-.62,1.74-1.22,3.9-2.73,6.65-3l.71-.07.58,0M-3.42,66.68h0a10.21,10.21,0,0,0-.91,4.95,6.26,6.26,0,0,0,1.6,2.69c.37.47.74.93,1.07,1.4s.59.89.87,1.35a6.19,6.19,0,0,0,2.1,2.47,7.63,7.63,0,0,0,3.83.15l1-.1a8.5,8.5,0,0,0,7.32-5A8.75,8.75,0,0,0,14.42,70a9.27,9.27,0,0,0-1.37-4.58l-.35-.49c-.89-1.3-1.91-2.77-3-3.3s-2.81-.33-4.33-.18l-.76.07A9.62,9.62,0,0,0,.33,63.58l-1.06.72A7.18,7.18,0,0,0-3.42,66.68Z"/><path class="cls-6" d="M36.91,6.11c-.37-1.54.35-3.06.76-4.48a8.67,8.67,0,0,1,2-4c1.07-1,2.29-2.36,3.83-2.73s3.25.22,4.67.64a8.76,8.76,0,0,1,3.72,2.51,8.37,8.37,0,0,1,2,3.91,8.22,8.22,0,0,1-.09,4.38,8.13,8.13,0,0,1-2.34,3.68c-1.07,1-2.12,2.3-3.66,2.67s-3-.44-4.43-.86-3.19-.52-4.24-1.63A9.33,9.33,0,0,1,36.91,6.11Z"/><path class="cls-5" d="M87.69,28.13a13.54,13.54,0,0,1,3.79,1.12c3.83,1.77,6.24,5.25,8,7.79l.48.68a22.3,22.3,0,0,1,3.56,11,20.06,20.06,0,0,1-.78,7.57M58.67,48.06a24.35,24.35,0,0,1,2-7.11c1.67-3.61,4.67-5.56,7.08-7.14.46-.29.9-.58,1.33-.88,2.69-1.88,6-4.23,10.45-4.62l1-.1L82,28.07m6.37,11a4.86,4.86,0,0,0-.81-.62l-.28-.15a6,6,0,0,0-2.41-.38c-1,0-2.2.12-3.29.23l-1.12.11c-1.64.14-3.28,1.22-5.6,2.85-.52.36-1.06.71-1.6,1.07-1.55,1-3,2-3.48,3h0a13.74,13.74,0,0,0-1.23,6.62c.07.76,1.14,2.08,2.07,3.25.54.67,1.1,1.37,1.64,2.14s.91,1.38,1.32,2c.88,1.42,1.71,2.75,2.53,3.14,1.14.53,3,.32,4.94.1l1.55-.15a11.25,11.25,0,0,0,9.71-6.69,11.65,11.65,0,0,0,1.27-5.91.61.61,0,0,0,0-.14c0-.19,0-.38,0-.56"/><path class="cls-5" d="M107.62,13.33c-1.86.63-4,.54-5.87.77-2.62.33-5.42,1.37-7.86.35a16.18,16.18,0,0,1-6.35-5C85.88,7.25,86,4.35,85.65,1.81S85-3.42,86-5.85s2-5.33,4.19-7,5.31-1.88,7.85-2.2a11.8,11.8,0,0,1,3.84.19"/><path class="cls-8" d="M291.3,302.61c.41,6.21-3.38,11.59-5.95,16.8-2.66,5.37-5.34,10.7-10.32,14-4.82,3.24-10.44,7.61-16.65,8s-12.41-3.07-17.62-5.64c-5.37-2.65-9.36-7.23-12.7-12.21a32.55,32.55,0,0,1-5.18-16.48,31.87,31.87,0,0,1,14.79-29.54c4.82-3.23,9.76-7.45,16-7.86S265,273.47,270.2,276c5.37,2.65,12,4.16,15.31,9.14A36.79,36.79,0,0,1,291.3,302.61Z"/><path class="cls-7" d="M231.55,282.63a37,37,0,0,1,6.12-5"/><path class="cls-7" d="M244.88,272.75a19.69,19.69,0,0,1,8.76-3c6.21-.41,11.35,3.74,16.56,6.31,5.37,2.65,12,4.16,15.31,9.14a36.79,36.79,0,0,1,5.79,17.43c.41,6.21-3.38,11.59-5.95,16.8-2.66,5.37-5.34,10.7-10.32,14-4.82,3.24-10.44,7.61-16.65,8s-12.41-3.07-17.62-5.64c-5.37-2.65-9.36-7.23-12.7-12.21a32.55,32.55,0,0,1-5.18-16.48,32.13,32.13,0,0,1,3.28-16.86"/><path class="cls-17" d="M-12.32,26.16c-.82-4.89,1.76-9.46,3.39-13.79S-5.55,3.47-1.87.43,5.8-6.43,10.69-7.24,20.77-5.8,25.1-4.17s8,5,11,8.67a25.84,25.84,0,0,1,5.41,12.65,25.41,25.41,0,0,1-9.37,24.59c-3.57,2.94-7.15,6.68-12,7.5s-9.3-2.07-13.63-3.69-9.82-2.36-12.86-6A29.12,29.12,0,0,1-12.32,26.16Z"/><path class="cls-7" d="M36.62,37.26a29.81,29.81,0,0,1-4.44,4.48"/><path class="cls-7" d="M26.84,46.15a15.83,15.83,0,0,1-6.7,3.09c-4.89.82-9.3-2.07-13.63-3.69s-9.82-2.36-12.86-6a29.12,29.12,0,0,1-6-13.35c-.82-4.89,1.76-9.46,3.39-13.79S-5.55,3.47-1.87.43,5.8-6.43,10.69-7.24,20.77-5.8,25.1-4.17s8,5,11,8.67a25.84,25.84,0,0,1,5.41,12.65,25.59,25.59,0,0,1-1.26,13.62"/><path class="cls-17" d="M313.17,223c3.56,1.69,5.37,5.45,7.45,8.48s4.27,6.26,4.58,10,1,8.12-.71,11.68-5.52,5.92-8.55,8-6.89,2.94-10.68,3.25a20.61,20.61,0,0,1-10.71-2.22A20.23,20.23,0,0,1,282.77,245c-.3-3.66-1.11-7.7.58-11.26s5.58-5.13,8.61-7.21,6-5.34,9.78-5.65A23.21,23.21,0,0,1,313.17,223Z"/><path class="cls-7" d="M282.32,239.47a12.53,12.53,0,0,1,1-5.78c1.69-3.56,5.58-5.13,8.61-7.21s6-5.34,9.78-5.65A23.21,23.21,0,0,1,313.17,223c3.56,1.69,5.37,5.45,7.45,8.48s4.27,6.26,4.58,10,1,8.12-.71,11.68-5.52,5.92-8.55,8-6.89,2.94-10.68,3.25a20.61,20.61,0,0,1-10.71-2.22,20.3,20.3,0,0,1-8.31-7"/></g></svg>