<svg width="10" height="13" viewBox="0 0 10 13" fill="none" xmlns="http://www.w3.org/2000/svg">
<path d="M8.52847 1.45558C7.96666 0.896707 7.28008 0.479333 6.52531 0.237856C5.77055 -0.00362042 4.96922 -0.0622907 4.18733 0.0666847C3.40545 0.19566 2.6654 0.508591 2.02817 0.979681C1.39095 1.45077 0.874795 2.06654 0.522236 2.77624C0.169677 3.48595 -0.00919942 4.26927 0.000364272 5.06167C0.00992796 5.85406 0.207651 6.63284 0.577237 7.33383C0.946822 8.03481 1.4777 8.63795 2.12611 9.09352C2.77451 9.5491 3.52188 9.84407 4.30665 9.95414V12.7556L8.52847 8.53379C9.4661 7.59463 9.99273 6.32177 9.99273 4.99469C9.99273 3.6676 9.4661 2.39474 8.52847 1.45558Z" fill="#2B2726"/>
</svg>
